%TF.GenerationSoftware,KiCad,Pcbnew,8.0.6*%
%TF.CreationDate,2025-02-12T14:20:04-05:00*%
%TF.ProjectId,module led hall,6d6f6475-6c65-4206-9c65-642068616c6c,rev?*%
%TF.SameCoordinates,Original*%
%TF.FileFunction,Drillmap*%
%TF.FilePolarity,Positive*%
%FSLAX45Y45*%
G04 Gerber Fmt 4.5, Leading zero omitted, Abs format (unit mm)*
G04 Created by KiCad (PCBNEW 8.0.6) date 2025-02-12 14:20:04*
%MOMM*%
%LPD*%
G01*
G04 APERTURE LIST*
%ADD10C,0.200000*%
%ADD11C,0.100000*%
%ADD12C,1.550000*%
G04 APERTURE END LIST*
D10*
X12000000Y-10000000D02*
G75*
G02*
X8000000Y-10000000I-2000000J0D01*
G01*
X8000000Y-10000000D02*
G75*
G02*
X12000000Y-10000000I2000000J0D01*
G01*
D11*
X9840000Y-8523000D02*
X9870000Y-8553000D01*
X9870000Y-8523000D02*
X9840000Y-8553000D01*
X9940000Y-8487000D02*
X9970000Y-8517000D01*
X9970000Y-8487000D02*
X9940000Y-8517000D01*
X10366000Y-8731000D02*
X10396000Y-8761000D01*
X10396000Y-8731000D02*
X10366000Y-8761000D01*
X11500000Y-9700000D02*
G75*
G02*
X11400000Y-9700000I-50000J0D01*
G01*
X11400000Y-9700000D02*
G75*
G02*
X11500000Y-9700000I50000J0D01*
G01*
X11500000Y-9954000D02*
G75*
G02*
X11400000Y-9954000I-50000J0D01*
G01*
X11400000Y-9954000D02*
G75*
G02*
X11500000Y-9954000I50000J0D01*
G01*
X11500000Y-10208000D02*
G75*
G02*
X11400000Y-10208000I-50000J0D01*
G01*
X11400000Y-10208000D02*
G75*
G02*
X11500000Y-10208000I50000J0D01*
G01*
X11754000Y-9700000D02*
G75*
G02*
X11654000Y-9700000I-50000J0D01*
G01*
X11654000Y-9700000D02*
G75*
G02*
X11754000Y-9700000I50000J0D01*
G01*
X11754000Y-9954000D02*
G75*
G02*
X11654000Y-9954000I-50000J0D01*
G01*
X11654000Y-9954000D02*
G75*
G02*
X11754000Y-9954000I50000J0D01*
G01*
X11754000Y-10208000D02*
G75*
G02*
X11654000Y-10208000I-50000J0D01*
G01*
X11654000Y-10208000D02*
G75*
G02*
X11754000Y-10208000I50000J0D01*
G01*
D12*
X10000000Y-9225000D02*
X10000000Y-10775000D01*
X9225000Y-10000000D02*
X10775000Y-10000000D01*
D10*
X8250777Y-12321484D02*
X8250777Y-12121484D01*
X8250777Y-12121484D02*
X8298396Y-12121484D01*
X8298396Y-12121484D02*
X8326967Y-12131008D01*
X8326967Y-12131008D02*
X8346015Y-12150055D01*
X8346015Y-12150055D02*
X8355539Y-12169103D01*
X8355539Y-12169103D02*
X8365062Y-12207198D01*
X8365062Y-12207198D02*
X8365062Y-12235769D01*
X8365062Y-12235769D02*
X8355539Y-12273865D01*
X8355539Y-12273865D02*
X8346015Y-12292912D01*
X8346015Y-12292912D02*
X8326967Y-12311960D01*
X8326967Y-12311960D02*
X8298396Y-12321484D01*
X8298396Y-12321484D02*
X8250777Y-12321484D01*
X8450777Y-12321484D02*
X8450777Y-12188150D01*
X8450777Y-12226246D02*
X8460301Y-12207198D01*
X8460301Y-12207198D02*
X8469824Y-12197674D01*
X8469824Y-12197674D02*
X8488872Y-12188150D01*
X8488872Y-12188150D02*
X8507920Y-12188150D01*
X8574586Y-12321484D02*
X8574586Y-12188150D01*
X8574586Y-12121484D02*
X8565063Y-12131008D01*
X8565063Y-12131008D02*
X8574586Y-12140531D01*
X8574586Y-12140531D02*
X8584110Y-12131008D01*
X8584110Y-12131008D02*
X8574586Y-12121484D01*
X8574586Y-12121484D02*
X8574586Y-12140531D01*
X8698396Y-12321484D02*
X8679348Y-12311960D01*
X8679348Y-12311960D02*
X8669824Y-12292912D01*
X8669824Y-12292912D02*
X8669824Y-12121484D01*
X8803158Y-12321484D02*
X8784110Y-12311960D01*
X8784110Y-12311960D02*
X8774586Y-12292912D01*
X8774586Y-12292912D02*
X8774586Y-12121484D01*
X9031729Y-12321484D02*
X9031729Y-12121484D01*
X9031729Y-12121484D02*
X9098396Y-12264341D01*
X9098396Y-12264341D02*
X9165063Y-12121484D01*
X9165063Y-12121484D02*
X9165063Y-12321484D01*
X9346015Y-12321484D02*
X9346015Y-12216722D01*
X9346015Y-12216722D02*
X9336491Y-12197674D01*
X9336491Y-12197674D02*
X9317444Y-12188150D01*
X9317444Y-12188150D02*
X9279348Y-12188150D01*
X9279348Y-12188150D02*
X9260301Y-12197674D01*
X9346015Y-12311960D02*
X9326967Y-12321484D01*
X9326967Y-12321484D02*
X9279348Y-12321484D01*
X9279348Y-12321484D02*
X9260301Y-12311960D01*
X9260301Y-12311960D02*
X9250777Y-12292912D01*
X9250777Y-12292912D02*
X9250777Y-12273865D01*
X9250777Y-12273865D02*
X9260301Y-12254817D01*
X9260301Y-12254817D02*
X9279348Y-12245293D01*
X9279348Y-12245293D02*
X9326967Y-12245293D01*
X9326967Y-12245293D02*
X9346015Y-12235769D01*
X9441253Y-12188150D02*
X9441253Y-12388150D01*
X9441253Y-12197674D02*
X9460301Y-12188150D01*
X9460301Y-12188150D02*
X9498396Y-12188150D01*
X9498396Y-12188150D02*
X9517444Y-12197674D01*
X9517444Y-12197674D02*
X9526967Y-12207198D01*
X9526967Y-12207198D02*
X9536491Y-12226246D01*
X9536491Y-12226246D02*
X9536491Y-12283388D01*
X9536491Y-12283388D02*
X9526967Y-12302436D01*
X9526967Y-12302436D02*
X9517444Y-12311960D01*
X9517444Y-12311960D02*
X9498396Y-12321484D01*
X9498396Y-12321484D02*
X9460301Y-12321484D01*
X9460301Y-12321484D02*
X9441253Y-12311960D01*
X9622205Y-12302436D02*
X9631729Y-12311960D01*
X9631729Y-12311960D02*
X9622205Y-12321484D01*
X9622205Y-12321484D02*
X9612682Y-12311960D01*
X9612682Y-12311960D02*
X9622205Y-12302436D01*
X9622205Y-12302436D02*
X9622205Y-12321484D01*
X9622205Y-12197674D02*
X9631729Y-12207198D01*
X9631729Y-12207198D02*
X9622205Y-12216722D01*
X9622205Y-12216722D02*
X9612682Y-12207198D01*
X9612682Y-12207198D02*
X9622205Y-12197674D01*
X9622205Y-12197674D02*
X9622205Y-12216722D01*
D11*
X7960000Y-12635000D02*
X7990000Y-12665000D01*
X7990000Y-12635000D02*
X7960000Y-12665000D01*
D10*
X8288872Y-12541484D02*
X8307920Y-12541484D01*
X8307920Y-12541484D02*
X8326967Y-12551008D01*
X8326967Y-12551008D02*
X8336491Y-12560531D01*
X8336491Y-12560531D02*
X8346015Y-12579579D01*
X8346015Y-12579579D02*
X8355539Y-12617674D01*
X8355539Y-12617674D02*
X8355539Y-12665293D01*
X8355539Y-12665293D02*
X8346015Y-12703388D01*
X8346015Y-12703388D02*
X8336491Y-12722436D01*
X8336491Y-12722436D02*
X8326967Y-12731960D01*
X8326967Y-12731960D02*
X8307920Y-12741484D01*
X8307920Y-12741484D02*
X8288872Y-12741484D01*
X8288872Y-12741484D02*
X8269824Y-12731960D01*
X8269824Y-12731960D02*
X8260301Y-12722436D01*
X8260301Y-12722436D02*
X8250777Y-12703388D01*
X8250777Y-12703388D02*
X8241253Y-12665293D01*
X8241253Y-12665293D02*
X8241253Y-12617674D01*
X8241253Y-12617674D02*
X8250777Y-12579579D01*
X8250777Y-12579579D02*
X8260301Y-12560531D01*
X8260301Y-12560531D02*
X8269824Y-12551008D01*
X8269824Y-12551008D02*
X8288872Y-12541484D01*
X8441253Y-12722436D02*
X8450777Y-12731960D01*
X8450777Y-12731960D02*
X8441253Y-12741484D01*
X8441253Y-12741484D02*
X8431729Y-12731960D01*
X8431729Y-12731960D02*
X8441253Y-12722436D01*
X8441253Y-12722436D02*
X8441253Y-12741484D01*
X8517444Y-12541484D02*
X8641253Y-12541484D01*
X8641253Y-12541484D02*
X8574586Y-12617674D01*
X8574586Y-12617674D02*
X8603158Y-12617674D01*
X8603158Y-12617674D02*
X8622205Y-12627198D01*
X8622205Y-12627198D02*
X8631729Y-12636722D01*
X8631729Y-12636722D02*
X8641253Y-12655769D01*
X8641253Y-12655769D02*
X8641253Y-12703388D01*
X8641253Y-12703388D02*
X8631729Y-12722436D01*
X8631729Y-12722436D02*
X8622205Y-12731960D01*
X8622205Y-12731960D02*
X8603158Y-12741484D01*
X8603158Y-12741484D02*
X8546015Y-12741484D01*
X8546015Y-12741484D02*
X8526967Y-12731960D01*
X8526967Y-12731960D02*
X8517444Y-12722436D01*
X8765063Y-12541484D02*
X8784110Y-12541484D01*
X8784110Y-12541484D02*
X8803158Y-12551008D01*
X8803158Y-12551008D02*
X8812682Y-12560531D01*
X8812682Y-12560531D02*
X8822205Y-12579579D01*
X8822205Y-12579579D02*
X8831729Y-12617674D01*
X8831729Y-12617674D02*
X8831729Y-12665293D01*
X8831729Y-12665293D02*
X8822205Y-12703388D01*
X8822205Y-12703388D02*
X8812682Y-12722436D01*
X8812682Y-12722436D02*
X8803158Y-12731960D01*
X8803158Y-12731960D02*
X8784110Y-12741484D01*
X8784110Y-12741484D02*
X8765063Y-12741484D01*
X8765063Y-12741484D02*
X8746015Y-12731960D01*
X8746015Y-12731960D02*
X8736491Y-12722436D01*
X8736491Y-12722436D02*
X8726967Y-12703388D01*
X8726967Y-12703388D02*
X8717444Y-12665293D01*
X8717444Y-12665293D02*
X8717444Y-12617674D01*
X8717444Y-12617674D02*
X8726967Y-12579579D01*
X8726967Y-12579579D02*
X8736491Y-12560531D01*
X8736491Y-12560531D02*
X8746015Y-12551008D01*
X8746015Y-12551008D02*
X8765063Y-12541484D01*
X8955539Y-12541484D02*
X8974586Y-12541484D01*
X8974586Y-12541484D02*
X8993634Y-12551008D01*
X8993634Y-12551008D02*
X9003158Y-12560531D01*
X9003158Y-12560531D02*
X9012682Y-12579579D01*
X9012682Y-12579579D02*
X9022205Y-12617674D01*
X9022205Y-12617674D02*
X9022205Y-12665293D01*
X9022205Y-12665293D02*
X9012682Y-12703388D01*
X9012682Y-12703388D02*
X9003158Y-12722436D01*
X9003158Y-12722436D02*
X8993634Y-12731960D01*
X8993634Y-12731960D02*
X8974586Y-12741484D01*
X8974586Y-12741484D02*
X8955539Y-12741484D01*
X8955539Y-12741484D02*
X8936491Y-12731960D01*
X8936491Y-12731960D02*
X8926967Y-12722436D01*
X8926967Y-12722436D02*
X8917444Y-12703388D01*
X8917444Y-12703388D02*
X8907920Y-12665293D01*
X8907920Y-12665293D02*
X8907920Y-12617674D01*
X8907920Y-12617674D02*
X8917444Y-12579579D01*
X8917444Y-12579579D02*
X8926967Y-12560531D01*
X8926967Y-12560531D02*
X8936491Y-12551008D01*
X8936491Y-12551008D02*
X8955539Y-12541484D01*
X9107920Y-12741484D02*
X9107920Y-12608150D01*
X9107920Y-12627198D02*
X9117444Y-12617674D01*
X9117444Y-12617674D02*
X9136491Y-12608150D01*
X9136491Y-12608150D02*
X9165063Y-12608150D01*
X9165063Y-12608150D02*
X9184110Y-12617674D01*
X9184110Y-12617674D02*
X9193634Y-12636722D01*
X9193634Y-12636722D02*
X9193634Y-12741484D01*
X9193634Y-12636722D02*
X9203158Y-12617674D01*
X9203158Y-12617674D02*
X9222205Y-12608150D01*
X9222205Y-12608150D02*
X9250777Y-12608150D01*
X9250777Y-12608150D02*
X9269825Y-12617674D01*
X9269825Y-12617674D02*
X9279348Y-12636722D01*
X9279348Y-12636722D02*
X9279348Y-12741484D01*
X9374586Y-12741484D02*
X9374586Y-12608150D01*
X9374586Y-12627198D02*
X9384110Y-12617674D01*
X9384110Y-12617674D02*
X9403158Y-12608150D01*
X9403158Y-12608150D02*
X9431729Y-12608150D01*
X9431729Y-12608150D02*
X9450777Y-12617674D01*
X9450777Y-12617674D02*
X9460301Y-12636722D01*
X9460301Y-12636722D02*
X9460301Y-12741484D01*
X9460301Y-12636722D02*
X9469825Y-12617674D01*
X9469825Y-12617674D02*
X9488872Y-12608150D01*
X9488872Y-12608150D02*
X9517444Y-12608150D01*
X9517444Y-12608150D02*
X9536491Y-12617674D01*
X9536491Y-12617674D02*
X9546015Y-12636722D01*
X9546015Y-12636722D02*
X9546015Y-12741484D01*
X9936491Y-12531960D02*
X9765063Y-12789103D01*
X10193634Y-12541484D02*
X10212682Y-12541484D01*
X10212682Y-12541484D02*
X10231729Y-12551008D01*
X10231729Y-12551008D02*
X10241253Y-12560531D01*
X10241253Y-12560531D02*
X10250777Y-12579579D01*
X10250777Y-12579579D02*
X10260301Y-12617674D01*
X10260301Y-12617674D02*
X10260301Y-12665293D01*
X10260301Y-12665293D02*
X10250777Y-12703388D01*
X10250777Y-12703388D02*
X10241253Y-12722436D01*
X10241253Y-12722436D02*
X10231729Y-12731960D01*
X10231729Y-12731960D02*
X10212682Y-12741484D01*
X10212682Y-12741484D02*
X10193634Y-12741484D01*
X10193634Y-12741484D02*
X10174587Y-12731960D01*
X10174587Y-12731960D02*
X10165063Y-12722436D01*
X10165063Y-12722436D02*
X10155539Y-12703388D01*
X10155539Y-12703388D02*
X10146015Y-12665293D01*
X10146015Y-12665293D02*
X10146015Y-12617674D01*
X10146015Y-12617674D02*
X10155539Y-12579579D01*
X10155539Y-12579579D02*
X10165063Y-12560531D01*
X10165063Y-12560531D02*
X10174587Y-12551008D01*
X10174587Y-12551008D02*
X10193634Y-12541484D01*
X10346015Y-12722436D02*
X10355539Y-12731960D01*
X10355539Y-12731960D02*
X10346015Y-12741484D01*
X10346015Y-12741484D02*
X10336491Y-12731960D01*
X10336491Y-12731960D02*
X10346015Y-12722436D01*
X10346015Y-12722436D02*
X10346015Y-12741484D01*
X10479348Y-12541484D02*
X10498396Y-12541484D01*
X10498396Y-12541484D02*
X10517444Y-12551008D01*
X10517444Y-12551008D02*
X10526968Y-12560531D01*
X10526968Y-12560531D02*
X10536491Y-12579579D01*
X10536491Y-12579579D02*
X10546015Y-12617674D01*
X10546015Y-12617674D02*
X10546015Y-12665293D01*
X10546015Y-12665293D02*
X10536491Y-12703388D01*
X10536491Y-12703388D02*
X10526968Y-12722436D01*
X10526968Y-12722436D02*
X10517444Y-12731960D01*
X10517444Y-12731960D02*
X10498396Y-12741484D01*
X10498396Y-12741484D02*
X10479348Y-12741484D01*
X10479348Y-12741484D02*
X10460301Y-12731960D01*
X10460301Y-12731960D02*
X10450777Y-12722436D01*
X10450777Y-12722436D02*
X10441253Y-12703388D01*
X10441253Y-12703388D02*
X10431729Y-12665293D01*
X10431729Y-12665293D02*
X10431729Y-12617674D01*
X10431729Y-12617674D02*
X10441253Y-12579579D01*
X10441253Y-12579579D02*
X10450777Y-12560531D01*
X10450777Y-12560531D02*
X10460301Y-12551008D01*
X10460301Y-12551008D02*
X10479348Y-12541484D01*
X10736491Y-12741484D02*
X10622206Y-12741484D01*
X10679348Y-12741484D02*
X10679348Y-12541484D01*
X10679348Y-12541484D02*
X10660301Y-12570055D01*
X10660301Y-12570055D02*
X10641253Y-12589103D01*
X10641253Y-12589103D02*
X10622206Y-12598627D01*
X10926968Y-12741484D02*
X10812682Y-12741484D01*
X10869825Y-12741484D02*
X10869825Y-12541484D01*
X10869825Y-12541484D02*
X10850777Y-12570055D01*
X10850777Y-12570055D02*
X10831729Y-12589103D01*
X10831729Y-12589103D02*
X10812682Y-12598627D01*
X11041253Y-12627198D02*
X11022206Y-12617674D01*
X11022206Y-12617674D02*
X11012682Y-12608150D01*
X11012682Y-12608150D02*
X11003158Y-12589103D01*
X11003158Y-12589103D02*
X11003158Y-12579579D01*
X11003158Y-12579579D02*
X11012682Y-12560531D01*
X11012682Y-12560531D02*
X11022206Y-12551008D01*
X11022206Y-12551008D02*
X11041253Y-12541484D01*
X11041253Y-12541484D02*
X11079349Y-12541484D01*
X11079349Y-12541484D02*
X11098396Y-12551008D01*
X11098396Y-12551008D02*
X11107920Y-12560531D01*
X11107920Y-12560531D02*
X11117444Y-12579579D01*
X11117444Y-12579579D02*
X11117444Y-12589103D01*
X11117444Y-12589103D02*
X11107920Y-12608150D01*
X11107920Y-12608150D02*
X11098396Y-12617674D01*
X11098396Y-12617674D02*
X11079349Y-12627198D01*
X11079349Y-12627198D02*
X11041253Y-12627198D01*
X11041253Y-12627198D02*
X11022206Y-12636722D01*
X11022206Y-12636722D02*
X11012682Y-12646246D01*
X11012682Y-12646246D02*
X11003158Y-12665293D01*
X11003158Y-12665293D02*
X11003158Y-12703388D01*
X11003158Y-12703388D02*
X11012682Y-12722436D01*
X11012682Y-12722436D02*
X11022206Y-12731960D01*
X11022206Y-12731960D02*
X11041253Y-12741484D01*
X11041253Y-12741484D02*
X11079349Y-12741484D01*
X11079349Y-12741484D02*
X11098396Y-12731960D01*
X11098396Y-12731960D02*
X11107920Y-12722436D01*
X11107920Y-12722436D02*
X11117444Y-12703388D01*
X11117444Y-12703388D02*
X11117444Y-12665293D01*
X11117444Y-12665293D02*
X11107920Y-12646246D01*
X11107920Y-12646246D02*
X11098396Y-12636722D01*
X11098396Y-12636722D02*
X11079349Y-12627198D01*
X11193634Y-12541484D02*
X11193634Y-12579579D01*
X11269825Y-12541484D02*
X11269825Y-12579579D01*
X11565063Y-12817674D02*
X11555539Y-12808150D01*
X11555539Y-12808150D02*
X11536491Y-12779579D01*
X11536491Y-12779579D02*
X11526968Y-12760531D01*
X11526968Y-12760531D02*
X11517444Y-12731960D01*
X11517444Y-12731960D02*
X11507920Y-12684341D01*
X11507920Y-12684341D02*
X11507920Y-12646246D01*
X11507920Y-12646246D02*
X11517444Y-12598627D01*
X11517444Y-12598627D02*
X11526968Y-12570055D01*
X11526968Y-12570055D02*
X11536491Y-12551008D01*
X11536491Y-12551008D02*
X11555539Y-12522436D01*
X11555539Y-12522436D02*
X11565063Y-12512912D01*
X11622206Y-12541484D02*
X11746015Y-12541484D01*
X11746015Y-12541484D02*
X11679348Y-12617674D01*
X11679348Y-12617674D02*
X11707920Y-12617674D01*
X11707920Y-12617674D02*
X11726968Y-12627198D01*
X11726968Y-12627198D02*
X11736491Y-12636722D01*
X11736491Y-12636722D02*
X11746015Y-12655769D01*
X11746015Y-12655769D02*
X11746015Y-12703388D01*
X11746015Y-12703388D02*
X11736491Y-12722436D01*
X11736491Y-12722436D02*
X11726968Y-12731960D01*
X11726968Y-12731960D02*
X11707920Y-12741484D01*
X11707920Y-12741484D02*
X11650777Y-12741484D01*
X11650777Y-12741484D02*
X11631729Y-12731960D01*
X11631729Y-12731960D02*
X11622206Y-12722436D01*
X11984110Y-12741484D02*
X11984110Y-12541484D01*
X12069825Y-12741484D02*
X12069825Y-12636722D01*
X12069825Y-12636722D02*
X12060301Y-12617674D01*
X12060301Y-12617674D02*
X12041253Y-12608150D01*
X12041253Y-12608150D02*
X12012682Y-12608150D01*
X12012682Y-12608150D02*
X11993634Y-12617674D01*
X11993634Y-12617674D02*
X11984110Y-12627198D01*
X12193634Y-12741484D02*
X12174587Y-12731960D01*
X12174587Y-12731960D02*
X12165063Y-12722436D01*
X12165063Y-12722436D02*
X12155539Y-12703388D01*
X12155539Y-12703388D02*
X12155539Y-12646246D01*
X12155539Y-12646246D02*
X12165063Y-12627198D01*
X12165063Y-12627198D02*
X12174587Y-12617674D01*
X12174587Y-12617674D02*
X12193634Y-12608150D01*
X12193634Y-12608150D02*
X12222206Y-12608150D01*
X12222206Y-12608150D02*
X12241253Y-12617674D01*
X12241253Y-12617674D02*
X12250777Y-12627198D01*
X12250777Y-12627198D02*
X12260301Y-12646246D01*
X12260301Y-12646246D02*
X12260301Y-12703388D01*
X12260301Y-12703388D02*
X12250777Y-12722436D01*
X12250777Y-12722436D02*
X12241253Y-12731960D01*
X12241253Y-12731960D02*
X12222206Y-12741484D01*
X12222206Y-12741484D02*
X12193634Y-12741484D01*
X12374587Y-12741484D02*
X12355539Y-12731960D01*
X12355539Y-12731960D02*
X12346015Y-12712912D01*
X12346015Y-12712912D02*
X12346015Y-12541484D01*
X12526968Y-12731960D02*
X12507920Y-12741484D01*
X12507920Y-12741484D02*
X12469825Y-12741484D01*
X12469825Y-12741484D02*
X12450777Y-12731960D01*
X12450777Y-12731960D02*
X12441253Y-12712912D01*
X12441253Y-12712912D02*
X12441253Y-12636722D01*
X12441253Y-12636722D02*
X12450777Y-12617674D01*
X12450777Y-12617674D02*
X12469825Y-12608150D01*
X12469825Y-12608150D02*
X12507920Y-12608150D01*
X12507920Y-12608150D02*
X12526968Y-12617674D01*
X12526968Y-12617674D02*
X12536491Y-12636722D01*
X12536491Y-12636722D02*
X12536491Y-12655769D01*
X12536491Y-12655769D02*
X12441253Y-12674817D01*
X12612682Y-12731960D02*
X12631730Y-12741484D01*
X12631730Y-12741484D02*
X12669825Y-12741484D01*
X12669825Y-12741484D02*
X12688872Y-12731960D01*
X12688872Y-12731960D02*
X12698396Y-12712912D01*
X12698396Y-12712912D02*
X12698396Y-12703388D01*
X12698396Y-12703388D02*
X12688872Y-12684341D01*
X12688872Y-12684341D02*
X12669825Y-12674817D01*
X12669825Y-12674817D02*
X12641253Y-12674817D01*
X12641253Y-12674817D02*
X12622206Y-12665293D01*
X12622206Y-12665293D02*
X12612682Y-12646246D01*
X12612682Y-12646246D02*
X12612682Y-12636722D01*
X12612682Y-12636722D02*
X12622206Y-12617674D01*
X12622206Y-12617674D02*
X12641253Y-12608150D01*
X12641253Y-12608150D02*
X12669825Y-12608150D01*
X12669825Y-12608150D02*
X12688872Y-12617674D01*
X12765063Y-12817674D02*
X12774587Y-12808150D01*
X12774587Y-12808150D02*
X12793634Y-12779579D01*
X12793634Y-12779579D02*
X12803158Y-12760531D01*
X12803158Y-12760531D02*
X12812682Y-12731960D01*
X12812682Y-12731960D02*
X12822206Y-12684341D01*
X12822206Y-12684341D02*
X12822206Y-12646246D01*
X12822206Y-12646246D02*
X12812682Y-12598627D01*
X12812682Y-12598627D02*
X12803158Y-12570055D01*
X12803158Y-12570055D02*
X12793634Y-12551008D01*
X12793634Y-12551008D02*
X12774587Y-12522436D01*
X12774587Y-12522436D02*
X12765063Y-12512912D01*
D11*
X7990000Y-12914000D02*
G75*
G02*
X7890000Y-12914000I-50000J0D01*
G01*
X7890000Y-12914000D02*
G75*
G02*
X7990000Y-12914000I50000J0D01*
G01*
D10*
X8355539Y-13005484D02*
X8241253Y-13005484D01*
X8298396Y-13005484D02*
X8298396Y-12805484D01*
X8298396Y-12805484D02*
X8279348Y-12834055D01*
X8279348Y-12834055D02*
X8260301Y-12853103D01*
X8260301Y-12853103D02*
X8241253Y-12862627D01*
X8441253Y-12986436D02*
X8450777Y-12995960D01*
X8450777Y-12995960D02*
X8441253Y-13005484D01*
X8441253Y-13005484D02*
X8431729Y-12995960D01*
X8431729Y-12995960D02*
X8441253Y-12986436D01*
X8441253Y-12986436D02*
X8441253Y-13005484D01*
X8574586Y-12805484D02*
X8593634Y-12805484D01*
X8593634Y-12805484D02*
X8612682Y-12815008D01*
X8612682Y-12815008D02*
X8622205Y-12824531D01*
X8622205Y-12824531D02*
X8631729Y-12843579D01*
X8631729Y-12843579D02*
X8641253Y-12881674D01*
X8641253Y-12881674D02*
X8641253Y-12929293D01*
X8641253Y-12929293D02*
X8631729Y-12967388D01*
X8631729Y-12967388D02*
X8622205Y-12986436D01*
X8622205Y-12986436D02*
X8612682Y-12995960D01*
X8612682Y-12995960D02*
X8593634Y-13005484D01*
X8593634Y-13005484D02*
X8574586Y-13005484D01*
X8574586Y-13005484D02*
X8555539Y-12995960D01*
X8555539Y-12995960D02*
X8546015Y-12986436D01*
X8546015Y-12986436D02*
X8536491Y-12967388D01*
X8536491Y-12967388D02*
X8526967Y-12929293D01*
X8526967Y-12929293D02*
X8526967Y-12881674D01*
X8526967Y-12881674D02*
X8536491Y-12843579D01*
X8536491Y-12843579D02*
X8546015Y-12824531D01*
X8546015Y-12824531D02*
X8555539Y-12815008D01*
X8555539Y-12815008D02*
X8574586Y-12805484D01*
X8765063Y-12805484D02*
X8784110Y-12805484D01*
X8784110Y-12805484D02*
X8803158Y-12815008D01*
X8803158Y-12815008D02*
X8812682Y-12824531D01*
X8812682Y-12824531D02*
X8822205Y-12843579D01*
X8822205Y-12843579D02*
X8831729Y-12881674D01*
X8831729Y-12881674D02*
X8831729Y-12929293D01*
X8831729Y-12929293D02*
X8822205Y-12967388D01*
X8822205Y-12967388D02*
X8812682Y-12986436D01*
X8812682Y-12986436D02*
X8803158Y-12995960D01*
X8803158Y-12995960D02*
X8784110Y-13005484D01*
X8784110Y-13005484D02*
X8765063Y-13005484D01*
X8765063Y-13005484D02*
X8746015Y-12995960D01*
X8746015Y-12995960D02*
X8736491Y-12986436D01*
X8736491Y-12986436D02*
X8726967Y-12967388D01*
X8726967Y-12967388D02*
X8717444Y-12929293D01*
X8717444Y-12929293D02*
X8717444Y-12881674D01*
X8717444Y-12881674D02*
X8726967Y-12843579D01*
X8726967Y-12843579D02*
X8736491Y-12824531D01*
X8736491Y-12824531D02*
X8746015Y-12815008D01*
X8746015Y-12815008D02*
X8765063Y-12805484D01*
X8955539Y-12805484D02*
X8974586Y-12805484D01*
X8974586Y-12805484D02*
X8993634Y-12815008D01*
X8993634Y-12815008D02*
X9003158Y-12824531D01*
X9003158Y-12824531D02*
X9012682Y-12843579D01*
X9012682Y-12843579D02*
X9022205Y-12881674D01*
X9022205Y-12881674D02*
X9022205Y-12929293D01*
X9022205Y-12929293D02*
X9012682Y-12967388D01*
X9012682Y-12967388D02*
X9003158Y-12986436D01*
X9003158Y-12986436D02*
X8993634Y-12995960D01*
X8993634Y-12995960D02*
X8974586Y-13005484D01*
X8974586Y-13005484D02*
X8955539Y-13005484D01*
X8955539Y-13005484D02*
X8936491Y-12995960D01*
X8936491Y-12995960D02*
X8926967Y-12986436D01*
X8926967Y-12986436D02*
X8917444Y-12967388D01*
X8917444Y-12967388D02*
X8907920Y-12929293D01*
X8907920Y-12929293D02*
X8907920Y-12881674D01*
X8907920Y-12881674D02*
X8917444Y-12843579D01*
X8917444Y-12843579D02*
X8926967Y-12824531D01*
X8926967Y-12824531D02*
X8936491Y-12815008D01*
X8936491Y-12815008D02*
X8955539Y-12805484D01*
X9107920Y-13005484D02*
X9107920Y-12872150D01*
X9107920Y-12891198D02*
X9117444Y-12881674D01*
X9117444Y-12881674D02*
X9136491Y-12872150D01*
X9136491Y-12872150D02*
X9165063Y-12872150D01*
X9165063Y-12872150D02*
X9184110Y-12881674D01*
X9184110Y-12881674D02*
X9193634Y-12900722D01*
X9193634Y-12900722D02*
X9193634Y-13005484D01*
X9193634Y-12900722D02*
X9203158Y-12881674D01*
X9203158Y-12881674D02*
X9222205Y-12872150D01*
X9222205Y-12872150D02*
X9250777Y-12872150D01*
X9250777Y-12872150D02*
X9269825Y-12881674D01*
X9269825Y-12881674D02*
X9279348Y-12900722D01*
X9279348Y-12900722D02*
X9279348Y-13005484D01*
X9374586Y-13005484D02*
X9374586Y-12872150D01*
X9374586Y-12891198D02*
X9384110Y-12881674D01*
X9384110Y-12881674D02*
X9403158Y-12872150D01*
X9403158Y-12872150D02*
X9431729Y-12872150D01*
X9431729Y-12872150D02*
X9450777Y-12881674D01*
X9450777Y-12881674D02*
X9460301Y-12900722D01*
X9460301Y-12900722D02*
X9460301Y-13005484D01*
X9460301Y-12900722D02*
X9469825Y-12881674D01*
X9469825Y-12881674D02*
X9488872Y-12872150D01*
X9488872Y-12872150D02*
X9517444Y-12872150D01*
X9517444Y-12872150D02*
X9536491Y-12881674D01*
X9536491Y-12881674D02*
X9546015Y-12900722D01*
X9546015Y-12900722D02*
X9546015Y-13005484D01*
X9936491Y-12795960D02*
X9765063Y-13053103D01*
X10193634Y-12805484D02*
X10212682Y-12805484D01*
X10212682Y-12805484D02*
X10231729Y-12815008D01*
X10231729Y-12815008D02*
X10241253Y-12824531D01*
X10241253Y-12824531D02*
X10250777Y-12843579D01*
X10250777Y-12843579D02*
X10260301Y-12881674D01*
X10260301Y-12881674D02*
X10260301Y-12929293D01*
X10260301Y-12929293D02*
X10250777Y-12967388D01*
X10250777Y-12967388D02*
X10241253Y-12986436D01*
X10241253Y-12986436D02*
X10231729Y-12995960D01*
X10231729Y-12995960D02*
X10212682Y-13005484D01*
X10212682Y-13005484D02*
X10193634Y-13005484D01*
X10193634Y-13005484D02*
X10174587Y-12995960D01*
X10174587Y-12995960D02*
X10165063Y-12986436D01*
X10165063Y-12986436D02*
X10155539Y-12967388D01*
X10155539Y-12967388D02*
X10146015Y-12929293D01*
X10146015Y-12929293D02*
X10146015Y-12881674D01*
X10146015Y-12881674D02*
X10155539Y-12843579D01*
X10155539Y-12843579D02*
X10165063Y-12824531D01*
X10165063Y-12824531D02*
X10174587Y-12815008D01*
X10174587Y-12815008D02*
X10193634Y-12805484D01*
X10346015Y-12986436D02*
X10355539Y-12995960D01*
X10355539Y-12995960D02*
X10346015Y-13005484D01*
X10346015Y-13005484D02*
X10336491Y-12995960D01*
X10336491Y-12995960D02*
X10346015Y-12986436D01*
X10346015Y-12986436D02*
X10346015Y-13005484D01*
X10479348Y-12805484D02*
X10498396Y-12805484D01*
X10498396Y-12805484D02*
X10517444Y-12815008D01*
X10517444Y-12815008D02*
X10526968Y-12824531D01*
X10526968Y-12824531D02*
X10536491Y-12843579D01*
X10536491Y-12843579D02*
X10546015Y-12881674D01*
X10546015Y-12881674D02*
X10546015Y-12929293D01*
X10546015Y-12929293D02*
X10536491Y-12967388D01*
X10536491Y-12967388D02*
X10526968Y-12986436D01*
X10526968Y-12986436D02*
X10517444Y-12995960D01*
X10517444Y-12995960D02*
X10498396Y-13005484D01*
X10498396Y-13005484D02*
X10479348Y-13005484D01*
X10479348Y-13005484D02*
X10460301Y-12995960D01*
X10460301Y-12995960D02*
X10450777Y-12986436D01*
X10450777Y-12986436D02*
X10441253Y-12967388D01*
X10441253Y-12967388D02*
X10431729Y-12929293D01*
X10431729Y-12929293D02*
X10431729Y-12881674D01*
X10431729Y-12881674D02*
X10441253Y-12843579D01*
X10441253Y-12843579D02*
X10450777Y-12824531D01*
X10450777Y-12824531D02*
X10460301Y-12815008D01*
X10460301Y-12815008D02*
X10479348Y-12805484D01*
X10612682Y-12805484D02*
X10736491Y-12805484D01*
X10736491Y-12805484D02*
X10669825Y-12881674D01*
X10669825Y-12881674D02*
X10698396Y-12881674D01*
X10698396Y-12881674D02*
X10717444Y-12891198D01*
X10717444Y-12891198D02*
X10726968Y-12900722D01*
X10726968Y-12900722D02*
X10736491Y-12919769D01*
X10736491Y-12919769D02*
X10736491Y-12967388D01*
X10736491Y-12967388D02*
X10726968Y-12986436D01*
X10726968Y-12986436D02*
X10717444Y-12995960D01*
X10717444Y-12995960D02*
X10698396Y-13005484D01*
X10698396Y-13005484D02*
X10641253Y-13005484D01*
X10641253Y-13005484D02*
X10622206Y-12995960D01*
X10622206Y-12995960D02*
X10612682Y-12986436D01*
X10831729Y-13005484D02*
X10869825Y-13005484D01*
X10869825Y-13005484D02*
X10888872Y-12995960D01*
X10888872Y-12995960D02*
X10898396Y-12986436D01*
X10898396Y-12986436D02*
X10917444Y-12957865D01*
X10917444Y-12957865D02*
X10926968Y-12919769D01*
X10926968Y-12919769D02*
X10926968Y-12843579D01*
X10926968Y-12843579D02*
X10917444Y-12824531D01*
X10917444Y-12824531D02*
X10907920Y-12815008D01*
X10907920Y-12815008D02*
X10888872Y-12805484D01*
X10888872Y-12805484D02*
X10850777Y-12805484D01*
X10850777Y-12805484D02*
X10831729Y-12815008D01*
X10831729Y-12815008D02*
X10822206Y-12824531D01*
X10822206Y-12824531D02*
X10812682Y-12843579D01*
X10812682Y-12843579D02*
X10812682Y-12891198D01*
X10812682Y-12891198D02*
X10822206Y-12910246D01*
X10822206Y-12910246D02*
X10831729Y-12919769D01*
X10831729Y-12919769D02*
X10850777Y-12929293D01*
X10850777Y-12929293D02*
X10888872Y-12929293D01*
X10888872Y-12929293D02*
X10907920Y-12919769D01*
X10907920Y-12919769D02*
X10917444Y-12910246D01*
X10917444Y-12910246D02*
X10926968Y-12891198D01*
X11098396Y-12872150D02*
X11098396Y-13005484D01*
X11050777Y-12795960D02*
X11003158Y-12938817D01*
X11003158Y-12938817D02*
X11126968Y-12938817D01*
X11193634Y-12805484D02*
X11193634Y-12843579D01*
X11269825Y-12805484D02*
X11269825Y-12843579D01*
X11565063Y-13081674D02*
X11555539Y-13072150D01*
X11555539Y-13072150D02*
X11536491Y-13043579D01*
X11536491Y-13043579D02*
X11526968Y-13024531D01*
X11526968Y-13024531D02*
X11517444Y-12995960D01*
X11517444Y-12995960D02*
X11507920Y-12948341D01*
X11507920Y-12948341D02*
X11507920Y-12910246D01*
X11507920Y-12910246D02*
X11517444Y-12862627D01*
X11517444Y-12862627D02*
X11526968Y-12834055D01*
X11526968Y-12834055D02*
X11536491Y-12815008D01*
X11536491Y-12815008D02*
X11555539Y-12786436D01*
X11555539Y-12786436D02*
X11565063Y-12776912D01*
X11726968Y-12805484D02*
X11688872Y-12805484D01*
X11688872Y-12805484D02*
X11669825Y-12815008D01*
X11669825Y-12815008D02*
X11660301Y-12824531D01*
X11660301Y-12824531D02*
X11641253Y-12853103D01*
X11641253Y-12853103D02*
X11631729Y-12891198D01*
X11631729Y-12891198D02*
X11631729Y-12967388D01*
X11631729Y-12967388D02*
X11641253Y-12986436D01*
X11641253Y-12986436D02*
X11650777Y-12995960D01*
X11650777Y-12995960D02*
X11669825Y-13005484D01*
X11669825Y-13005484D02*
X11707920Y-13005484D01*
X11707920Y-13005484D02*
X11726968Y-12995960D01*
X11726968Y-12995960D02*
X11736491Y-12986436D01*
X11736491Y-12986436D02*
X11746015Y-12967388D01*
X11746015Y-12967388D02*
X11746015Y-12919769D01*
X11746015Y-12919769D02*
X11736491Y-12900722D01*
X11736491Y-12900722D02*
X11726968Y-12891198D01*
X11726968Y-12891198D02*
X11707920Y-12881674D01*
X11707920Y-12881674D02*
X11669825Y-12881674D01*
X11669825Y-12881674D02*
X11650777Y-12891198D01*
X11650777Y-12891198D02*
X11641253Y-12900722D01*
X11641253Y-12900722D02*
X11631729Y-12919769D01*
X11984110Y-13005484D02*
X11984110Y-12805484D01*
X12069825Y-13005484D02*
X12069825Y-12900722D01*
X12069825Y-12900722D02*
X12060301Y-12881674D01*
X12060301Y-12881674D02*
X12041253Y-12872150D01*
X12041253Y-12872150D02*
X12012682Y-12872150D01*
X12012682Y-12872150D02*
X11993634Y-12881674D01*
X11993634Y-12881674D02*
X11984110Y-12891198D01*
X12193634Y-13005484D02*
X12174587Y-12995960D01*
X12174587Y-12995960D02*
X12165063Y-12986436D01*
X12165063Y-12986436D02*
X12155539Y-12967388D01*
X12155539Y-12967388D02*
X12155539Y-12910246D01*
X12155539Y-12910246D02*
X12165063Y-12891198D01*
X12165063Y-12891198D02*
X12174587Y-12881674D01*
X12174587Y-12881674D02*
X12193634Y-12872150D01*
X12193634Y-12872150D02*
X12222206Y-12872150D01*
X12222206Y-12872150D02*
X12241253Y-12881674D01*
X12241253Y-12881674D02*
X12250777Y-12891198D01*
X12250777Y-12891198D02*
X12260301Y-12910246D01*
X12260301Y-12910246D02*
X12260301Y-12967388D01*
X12260301Y-12967388D02*
X12250777Y-12986436D01*
X12250777Y-12986436D02*
X12241253Y-12995960D01*
X12241253Y-12995960D02*
X12222206Y-13005484D01*
X12222206Y-13005484D02*
X12193634Y-13005484D01*
X12374587Y-13005484D02*
X12355539Y-12995960D01*
X12355539Y-12995960D02*
X12346015Y-12976912D01*
X12346015Y-12976912D02*
X12346015Y-12805484D01*
X12526968Y-12995960D02*
X12507920Y-13005484D01*
X12507920Y-13005484D02*
X12469825Y-13005484D01*
X12469825Y-13005484D02*
X12450777Y-12995960D01*
X12450777Y-12995960D02*
X12441253Y-12976912D01*
X12441253Y-12976912D02*
X12441253Y-12900722D01*
X12441253Y-12900722D02*
X12450777Y-12881674D01*
X12450777Y-12881674D02*
X12469825Y-12872150D01*
X12469825Y-12872150D02*
X12507920Y-12872150D01*
X12507920Y-12872150D02*
X12526968Y-12881674D01*
X12526968Y-12881674D02*
X12536491Y-12900722D01*
X12536491Y-12900722D02*
X12536491Y-12919769D01*
X12536491Y-12919769D02*
X12441253Y-12938817D01*
X12612682Y-12995960D02*
X12631730Y-13005484D01*
X12631730Y-13005484D02*
X12669825Y-13005484D01*
X12669825Y-13005484D02*
X12688872Y-12995960D01*
X12688872Y-12995960D02*
X12698396Y-12976912D01*
X12698396Y-12976912D02*
X12698396Y-12967388D01*
X12698396Y-12967388D02*
X12688872Y-12948341D01*
X12688872Y-12948341D02*
X12669825Y-12938817D01*
X12669825Y-12938817D02*
X12641253Y-12938817D01*
X12641253Y-12938817D02*
X12622206Y-12929293D01*
X12622206Y-12929293D02*
X12612682Y-12910246D01*
X12612682Y-12910246D02*
X12612682Y-12900722D01*
X12612682Y-12900722D02*
X12622206Y-12881674D01*
X12622206Y-12881674D02*
X12641253Y-12872150D01*
X12641253Y-12872150D02*
X12669825Y-12872150D01*
X12669825Y-12872150D02*
X12688872Y-12881674D01*
X12765063Y-13081674D02*
X12774587Y-13072150D01*
X12774587Y-13072150D02*
X12793634Y-13043579D01*
X12793634Y-13043579D02*
X12803158Y-13024531D01*
X12803158Y-13024531D02*
X12812682Y-12995960D01*
X12812682Y-12995960D02*
X12822206Y-12948341D01*
X12822206Y-12948341D02*
X12822206Y-12910246D01*
X12822206Y-12910246D02*
X12812682Y-12862627D01*
X12812682Y-12862627D02*
X12803158Y-12834055D01*
X12803158Y-12834055D02*
X12793634Y-12815008D01*
X12793634Y-12815008D02*
X12774587Y-12786436D01*
X12774587Y-12786436D02*
X12765063Y-12776912D01*
X7890000Y-13078000D02*
X7890000Y-13278000D01*
X7790000Y-13178000D02*
X7990000Y-13178000D01*
X8355539Y-13269484D02*
X8241253Y-13269484D01*
X8298396Y-13269484D02*
X8298396Y-13069484D01*
X8298396Y-13069484D02*
X8279348Y-13098055D01*
X8279348Y-13098055D02*
X8260301Y-13117103D01*
X8260301Y-13117103D02*
X8241253Y-13126627D01*
X8536491Y-13069484D02*
X8441253Y-13069484D01*
X8441253Y-13069484D02*
X8431729Y-13164722D01*
X8431729Y-13164722D02*
X8441253Y-13155198D01*
X8441253Y-13155198D02*
X8460301Y-13145674D01*
X8460301Y-13145674D02*
X8507920Y-13145674D01*
X8507920Y-13145674D02*
X8526967Y-13155198D01*
X8526967Y-13155198D02*
X8536491Y-13164722D01*
X8536491Y-13164722D02*
X8546015Y-13183769D01*
X8546015Y-13183769D02*
X8546015Y-13231388D01*
X8546015Y-13231388D02*
X8536491Y-13250436D01*
X8536491Y-13250436D02*
X8526967Y-13259960D01*
X8526967Y-13259960D02*
X8507920Y-13269484D01*
X8507920Y-13269484D02*
X8460301Y-13269484D01*
X8460301Y-13269484D02*
X8441253Y-13259960D01*
X8441253Y-13259960D02*
X8431729Y-13250436D01*
X8631729Y-13250436D02*
X8641253Y-13259960D01*
X8641253Y-13259960D02*
X8631729Y-13269484D01*
X8631729Y-13269484D02*
X8622205Y-13259960D01*
X8622205Y-13259960D02*
X8631729Y-13250436D01*
X8631729Y-13250436D02*
X8631729Y-13269484D01*
X8822205Y-13069484D02*
X8726967Y-13069484D01*
X8726967Y-13069484D02*
X8717444Y-13164722D01*
X8717444Y-13164722D02*
X8726967Y-13155198D01*
X8726967Y-13155198D02*
X8746015Y-13145674D01*
X8746015Y-13145674D02*
X8793634Y-13145674D01*
X8793634Y-13145674D02*
X8812682Y-13155198D01*
X8812682Y-13155198D02*
X8822205Y-13164722D01*
X8822205Y-13164722D02*
X8831729Y-13183769D01*
X8831729Y-13183769D02*
X8831729Y-13231388D01*
X8831729Y-13231388D02*
X8822205Y-13250436D01*
X8822205Y-13250436D02*
X8812682Y-13259960D01*
X8812682Y-13259960D02*
X8793634Y-13269484D01*
X8793634Y-13269484D02*
X8746015Y-13269484D01*
X8746015Y-13269484D02*
X8726967Y-13259960D01*
X8726967Y-13259960D02*
X8717444Y-13250436D01*
X8955539Y-13069484D02*
X8974586Y-13069484D01*
X8974586Y-13069484D02*
X8993634Y-13079008D01*
X8993634Y-13079008D02*
X9003158Y-13088531D01*
X9003158Y-13088531D02*
X9012682Y-13107579D01*
X9012682Y-13107579D02*
X9022205Y-13145674D01*
X9022205Y-13145674D02*
X9022205Y-13193293D01*
X9022205Y-13193293D02*
X9012682Y-13231388D01*
X9012682Y-13231388D02*
X9003158Y-13250436D01*
X9003158Y-13250436D02*
X8993634Y-13259960D01*
X8993634Y-13259960D02*
X8974586Y-13269484D01*
X8974586Y-13269484D02*
X8955539Y-13269484D01*
X8955539Y-13269484D02*
X8936491Y-13259960D01*
X8936491Y-13259960D02*
X8926967Y-13250436D01*
X8926967Y-13250436D02*
X8917444Y-13231388D01*
X8917444Y-13231388D02*
X8907920Y-13193293D01*
X8907920Y-13193293D02*
X8907920Y-13145674D01*
X8907920Y-13145674D02*
X8917444Y-13107579D01*
X8917444Y-13107579D02*
X8926967Y-13088531D01*
X8926967Y-13088531D02*
X8936491Y-13079008D01*
X8936491Y-13079008D02*
X8955539Y-13069484D01*
X9146015Y-13069484D02*
X9165063Y-13069484D01*
X9165063Y-13069484D02*
X9184110Y-13079008D01*
X9184110Y-13079008D02*
X9193634Y-13088531D01*
X9193634Y-13088531D02*
X9203158Y-13107579D01*
X9203158Y-13107579D02*
X9212682Y-13145674D01*
X9212682Y-13145674D02*
X9212682Y-13193293D01*
X9212682Y-13193293D02*
X9203158Y-13231388D01*
X9203158Y-13231388D02*
X9193634Y-13250436D01*
X9193634Y-13250436D02*
X9184110Y-13259960D01*
X9184110Y-13259960D02*
X9165063Y-13269484D01*
X9165063Y-13269484D02*
X9146015Y-13269484D01*
X9146015Y-13269484D02*
X9126967Y-13259960D01*
X9126967Y-13259960D02*
X9117444Y-13250436D01*
X9117444Y-13250436D02*
X9107920Y-13231388D01*
X9107920Y-13231388D02*
X9098396Y-13193293D01*
X9098396Y-13193293D02*
X9098396Y-13145674D01*
X9098396Y-13145674D02*
X9107920Y-13107579D01*
X9107920Y-13107579D02*
X9117444Y-13088531D01*
X9117444Y-13088531D02*
X9126967Y-13079008D01*
X9126967Y-13079008D02*
X9146015Y-13069484D01*
X9298396Y-13269484D02*
X9298396Y-13136150D01*
X9298396Y-13155198D02*
X9307920Y-13145674D01*
X9307920Y-13145674D02*
X9326967Y-13136150D01*
X9326967Y-13136150D02*
X9355539Y-13136150D01*
X9355539Y-13136150D02*
X9374586Y-13145674D01*
X9374586Y-13145674D02*
X9384110Y-13164722D01*
X9384110Y-13164722D02*
X9384110Y-13269484D01*
X9384110Y-13164722D02*
X9393634Y-13145674D01*
X9393634Y-13145674D02*
X9412682Y-13136150D01*
X9412682Y-13136150D02*
X9441253Y-13136150D01*
X9441253Y-13136150D02*
X9460301Y-13145674D01*
X9460301Y-13145674D02*
X9469825Y-13164722D01*
X9469825Y-13164722D02*
X9469825Y-13269484D01*
X9565063Y-13269484D02*
X9565063Y-13136150D01*
X9565063Y-13155198D02*
X9574586Y-13145674D01*
X9574586Y-13145674D02*
X9593634Y-13136150D01*
X9593634Y-13136150D02*
X9622206Y-13136150D01*
X9622206Y-13136150D02*
X9641253Y-13145674D01*
X9641253Y-13145674D02*
X9650777Y-13164722D01*
X9650777Y-13164722D02*
X9650777Y-13269484D01*
X9650777Y-13164722D02*
X9660301Y-13145674D01*
X9660301Y-13145674D02*
X9679348Y-13136150D01*
X9679348Y-13136150D02*
X9707920Y-13136150D01*
X9707920Y-13136150D02*
X9726967Y-13145674D01*
X9726967Y-13145674D02*
X9736491Y-13164722D01*
X9736491Y-13164722D02*
X9736491Y-13269484D01*
X10126967Y-13059960D02*
X9955539Y-13317103D01*
X10384110Y-13069484D02*
X10403158Y-13069484D01*
X10403158Y-13069484D02*
X10422206Y-13079008D01*
X10422206Y-13079008D02*
X10431729Y-13088531D01*
X10431729Y-13088531D02*
X10441253Y-13107579D01*
X10441253Y-13107579D02*
X10450777Y-13145674D01*
X10450777Y-13145674D02*
X10450777Y-13193293D01*
X10450777Y-13193293D02*
X10441253Y-13231388D01*
X10441253Y-13231388D02*
X10431729Y-13250436D01*
X10431729Y-13250436D02*
X10422206Y-13259960D01*
X10422206Y-13259960D02*
X10403158Y-13269484D01*
X10403158Y-13269484D02*
X10384110Y-13269484D01*
X10384110Y-13269484D02*
X10365063Y-13259960D01*
X10365063Y-13259960D02*
X10355539Y-13250436D01*
X10355539Y-13250436D02*
X10346015Y-13231388D01*
X10346015Y-13231388D02*
X10336491Y-13193293D01*
X10336491Y-13193293D02*
X10336491Y-13145674D01*
X10336491Y-13145674D02*
X10346015Y-13107579D01*
X10346015Y-13107579D02*
X10355539Y-13088531D01*
X10355539Y-13088531D02*
X10365063Y-13079008D01*
X10365063Y-13079008D02*
X10384110Y-13069484D01*
X10536491Y-13250436D02*
X10546015Y-13259960D01*
X10546015Y-13259960D02*
X10536491Y-13269484D01*
X10536491Y-13269484D02*
X10526968Y-13259960D01*
X10526968Y-13259960D02*
X10536491Y-13250436D01*
X10536491Y-13250436D02*
X10536491Y-13269484D01*
X10717444Y-13069484D02*
X10679348Y-13069484D01*
X10679348Y-13069484D02*
X10660301Y-13079008D01*
X10660301Y-13079008D02*
X10650777Y-13088531D01*
X10650777Y-13088531D02*
X10631729Y-13117103D01*
X10631729Y-13117103D02*
X10622206Y-13155198D01*
X10622206Y-13155198D02*
X10622206Y-13231388D01*
X10622206Y-13231388D02*
X10631729Y-13250436D01*
X10631729Y-13250436D02*
X10641253Y-13259960D01*
X10641253Y-13259960D02*
X10660301Y-13269484D01*
X10660301Y-13269484D02*
X10698396Y-13269484D01*
X10698396Y-13269484D02*
X10717444Y-13259960D01*
X10717444Y-13259960D02*
X10726968Y-13250436D01*
X10726968Y-13250436D02*
X10736491Y-13231388D01*
X10736491Y-13231388D02*
X10736491Y-13183769D01*
X10736491Y-13183769D02*
X10726968Y-13164722D01*
X10726968Y-13164722D02*
X10717444Y-13155198D01*
X10717444Y-13155198D02*
X10698396Y-13145674D01*
X10698396Y-13145674D02*
X10660301Y-13145674D01*
X10660301Y-13145674D02*
X10641253Y-13155198D01*
X10641253Y-13155198D02*
X10631729Y-13164722D01*
X10631729Y-13164722D02*
X10622206Y-13183769D01*
X10926968Y-13269484D02*
X10812682Y-13269484D01*
X10869825Y-13269484D02*
X10869825Y-13069484D01*
X10869825Y-13069484D02*
X10850777Y-13098055D01*
X10850777Y-13098055D02*
X10831729Y-13117103D01*
X10831729Y-13117103D02*
X10812682Y-13126627D01*
X11050777Y-13069484D02*
X11069825Y-13069484D01*
X11069825Y-13069484D02*
X11088872Y-13079008D01*
X11088872Y-13079008D02*
X11098396Y-13088531D01*
X11098396Y-13088531D02*
X11107920Y-13107579D01*
X11107920Y-13107579D02*
X11117444Y-13145674D01*
X11117444Y-13145674D02*
X11117444Y-13193293D01*
X11117444Y-13193293D02*
X11107920Y-13231388D01*
X11107920Y-13231388D02*
X11098396Y-13250436D01*
X11098396Y-13250436D02*
X11088872Y-13259960D01*
X11088872Y-13259960D02*
X11069825Y-13269484D01*
X11069825Y-13269484D02*
X11050777Y-13269484D01*
X11050777Y-13269484D02*
X11031729Y-13259960D01*
X11031729Y-13259960D02*
X11022206Y-13250436D01*
X11022206Y-13250436D02*
X11012682Y-13231388D01*
X11012682Y-13231388D02*
X11003158Y-13193293D01*
X11003158Y-13193293D02*
X11003158Y-13145674D01*
X11003158Y-13145674D02*
X11012682Y-13107579D01*
X11012682Y-13107579D02*
X11022206Y-13088531D01*
X11022206Y-13088531D02*
X11031729Y-13079008D01*
X11031729Y-13079008D02*
X11050777Y-13069484D01*
X11193634Y-13088531D02*
X11203158Y-13079008D01*
X11203158Y-13079008D02*
X11222206Y-13069484D01*
X11222206Y-13069484D02*
X11269825Y-13069484D01*
X11269825Y-13069484D02*
X11288872Y-13079008D01*
X11288872Y-13079008D02*
X11298396Y-13088531D01*
X11298396Y-13088531D02*
X11307920Y-13107579D01*
X11307920Y-13107579D02*
X11307920Y-13126627D01*
X11307920Y-13126627D02*
X11298396Y-13155198D01*
X11298396Y-13155198D02*
X11184110Y-13269484D01*
X11184110Y-13269484D02*
X11307920Y-13269484D01*
X11384110Y-13069484D02*
X11384110Y-13107579D01*
X11460301Y-13069484D02*
X11460301Y-13107579D01*
X11755539Y-13345674D02*
X11746015Y-13336150D01*
X11746015Y-13336150D02*
X11726968Y-13307579D01*
X11726968Y-13307579D02*
X11717444Y-13288531D01*
X11717444Y-13288531D02*
X11707920Y-13259960D01*
X11707920Y-13259960D02*
X11698396Y-13212341D01*
X11698396Y-13212341D02*
X11698396Y-13174246D01*
X11698396Y-13174246D02*
X11707920Y-13126627D01*
X11707920Y-13126627D02*
X11717444Y-13098055D01*
X11717444Y-13098055D02*
X11726968Y-13079008D01*
X11726968Y-13079008D02*
X11746015Y-13050436D01*
X11746015Y-13050436D02*
X11755539Y-13040912D01*
X11936491Y-13269484D02*
X11822206Y-13269484D01*
X11879348Y-13269484D02*
X11879348Y-13069484D01*
X11879348Y-13069484D02*
X11860301Y-13098055D01*
X11860301Y-13098055D02*
X11841253Y-13117103D01*
X11841253Y-13117103D02*
X11822206Y-13126627D01*
X12174587Y-13269484D02*
X12174587Y-13069484D01*
X12260301Y-13269484D02*
X12260301Y-13164722D01*
X12260301Y-13164722D02*
X12250777Y-13145674D01*
X12250777Y-13145674D02*
X12231730Y-13136150D01*
X12231730Y-13136150D02*
X12203158Y-13136150D01*
X12203158Y-13136150D02*
X12184110Y-13145674D01*
X12184110Y-13145674D02*
X12174587Y-13155198D01*
X12384110Y-13269484D02*
X12365063Y-13259960D01*
X12365063Y-13259960D02*
X12355539Y-13250436D01*
X12355539Y-13250436D02*
X12346015Y-13231388D01*
X12346015Y-13231388D02*
X12346015Y-13174246D01*
X12346015Y-13174246D02*
X12355539Y-13155198D01*
X12355539Y-13155198D02*
X12365063Y-13145674D01*
X12365063Y-13145674D02*
X12384110Y-13136150D01*
X12384110Y-13136150D02*
X12412682Y-13136150D01*
X12412682Y-13136150D02*
X12431730Y-13145674D01*
X12431730Y-13145674D02*
X12441253Y-13155198D01*
X12441253Y-13155198D02*
X12450777Y-13174246D01*
X12450777Y-13174246D02*
X12450777Y-13231388D01*
X12450777Y-13231388D02*
X12441253Y-13250436D01*
X12441253Y-13250436D02*
X12431730Y-13259960D01*
X12431730Y-13259960D02*
X12412682Y-13269484D01*
X12412682Y-13269484D02*
X12384110Y-13269484D01*
X12565063Y-13269484D02*
X12546015Y-13259960D01*
X12546015Y-13259960D02*
X12536491Y-13240912D01*
X12536491Y-13240912D02*
X12536491Y-13069484D01*
X12717444Y-13259960D02*
X12698396Y-13269484D01*
X12698396Y-13269484D02*
X12660301Y-13269484D01*
X12660301Y-13269484D02*
X12641253Y-13259960D01*
X12641253Y-13259960D02*
X12631730Y-13240912D01*
X12631730Y-13240912D02*
X12631730Y-13164722D01*
X12631730Y-13164722D02*
X12641253Y-13145674D01*
X12641253Y-13145674D02*
X12660301Y-13136150D01*
X12660301Y-13136150D02*
X12698396Y-13136150D01*
X12698396Y-13136150D02*
X12717444Y-13145674D01*
X12717444Y-13145674D02*
X12726968Y-13164722D01*
X12726968Y-13164722D02*
X12726968Y-13183769D01*
X12726968Y-13183769D02*
X12631730Y-13202817D01*
X12793634Y-13345674D02*
X12803158Y-13336150D01*
X12803158Y-13336150D02*
X12822206Y-13307579D01*
X12822206Y-13307579D02*
X12831730Y-13288531D01*
X12831730Y-13288531D02*
X12841253Y-13259960D01*
X12841253Y-13259960D02*
X12850777Y-13212341D01*
X12850777Y-13212341D02*
X12850777Y-13174246D01*
X12850777Y-13174246D02*
X12841253Y-13126627D01*
X12841253Y-13126627D02*
X12831730Y-13098055D01*
X12831730Y-13098055D02*
X12822206Y-13079008D01*
X12822206Y-13079008D02*
X12803158Y-13050436D01*
X12803158Y-13050436D02*
X12793634Y-13040912D01*
M02*
