%TF.GenerationSoftware,KiCad,Pcbnew,8.0.6*%
%TF.CreationDate,2025-02-12T14:20:06-05:00*%
%TF.ProjectId,module led hall,6d6f6475-6c65-4206-9c65-642068616c6c,rev?*%
%TF.SameCoordinates,Original*%
%TF.FileFunction,Legend,Bot*%
%TF.FilePolarity,Positive*%
%FSLAX46Y46*%
G04 Gerber Fmt 4.6, Leading zero omitted, Abs format (unit mm)*
G04 Created by KiCad (PCBNEW 8.0.6) date 2025-02-12 14:20:06*
%MOMM*%
%LPD*%
G01*
G04 APERTURE LIST*
%ADD10C,0.300000*%
%ADD11C,0.150000*%
%ADD12C,0.120000*%
G04 APERTURE END LIST*
D10*
X83204087Y-103690000D02*
X84704087Y-103690000D01*
X83989801Y-103690000D02*
X83989801Y-102832857D01*
X83204087Y-102832857D02*
X84704087Y-102832857D01*
X83989801Y-101618571D02*
X83918373Y-101404285D01*
X83918373Y-101404285D02*
X83846944Y-101332856D01*
X83846944Y-101332856D02*
X83704087Y-101261428D01*
X83704087Y-101261428D02*
X83489801Y-101261428D01*
X83489801Y-101261428D02*
X83346944Y-101332856D01*
X83346944Y-101332856D02*
X83275516Y-101404285D01*
X83275516Y-101404285D02*
X83204087Y-101547142D01*
X83204087Y-101547142D02*
X83204087Y-102118571D01*
X83204087Y-102118571D02*
X84704087Y-102118571D01*
X84704087Y-102118571D02*
X84704087Y-101618571D01*
X84704087Y-101618571D02*
X84632658Y-101475714D01*
X84632658Y-101475714D02*
X84561230Y-101404285D01*
X84561230Y-101404285D02*
X84418373Y-101332856D01*
X84418373Y-101332856D02*
X84275516Y-101332856D01*
X84275516Y-101332856D02*
X84132658Y-101404285D01*
X84132658Y-101404285D02*
X84061230Y-101475714D01*
X84061230Y-101475714D02*
X83989801Y-101618571D01*
X83989801Y-101618571D02*
X83989801Y-102118571D01*
X83775516Y-100618571D02*
X83775516Y-99475714D01*
X83204087Y-98761428D02*
X84704087Y-98761428D01*
X83989801Y-98761428D02*
X83989801Y-97904285D01*
X83204087Y-97904285D02*
X84704087Y-97904285D01*
X83204087Y-96475713D02*
X83204087Y-97189999D01*
X83204087Y-97189999D02*
X84704087Y-97189999D01*
X82289171Y-102832856D02*
X80789171Y-102332856D01*
X80789171Y-102332856D02*
X82289171Y-101832856D01*
X80932028Y-101332857D02*
X80860600Y-101261428D01*
X80860600Y-101261428D02*
X80789171Y-101332857D01*
X80789171Y-101332857D02*
X80860600Y-101404285D01*
X80860600Y-101404285D02*
X80932028Y-101332857D01*
X80932028Y-101332857D02*
X80789171Y-101332857D01*
X82289171Y-100332856D02*
X82289171Y-100189999D01*
X82289171Y-100189999D02*
X82217742Y-100047142D01*
X82217742Y-100047142D02*
X82146314Y-99975714D01*
X82146314Y-99975714D02*
X82003457Y-99904285D01*
X82003457Y-99904285D02*
X81717742Y-99832856D01*
X81717742Y-99832856D02*
X81360600Y-99832856D01*
X81360600Y-99832856D02*
X81074885Y-99904285D01*
X81074885Y-99904285D02*
X80932028Y-99975714D01*
X80932028Y-99975714D02*
X80860600Y-100047142D01*
X80860600Y-100047142D02*
X80789171Y-100189999D01*
X80789171Y-100189999D02*
X80789171Y-100332856D01*
X80789171Y-100332856D02*
X80860600Y-100475714D01*
X80860600Y-100475714D02*
X80932028Y-100547142D01*
X80932028Y-100547142D02*
X81074885Y-100618571D01*
X81074885Y-100618571D02*
X81360600Y-100689999D01*
X81360600Y-100689999D02*
X81717742Y-100689999D01*
X81717742Y-100689999D02*
X82003457Y-100618571D01*
X82003457Y-100618571D02*
X82146314Y-100547142D01*
X82146314Y-100547142D02*
X82217742Y-100475714D01*
X82217742Y-100475714D02*
X82289171Y-100332856D01*
X80932028Y-99190000D02*
X80860600Y-99118571D01*
X80860600Y-99118571D02*
X80789171Y-99190000D01*
X80789171Y-99190000D02*
X80860600Y-99261428D01*
X80860600Y-99261428D02*
X80932028Y-99190000D01*
X80932028Y-99190000D02*
X80789171Y-99190000D01*
X82289171Y-98618571D02*
X82289171Y-97689999D01*
X82289171Y-97689999D02*
X81717742Y-98189999D01*
X81717742Y-98189999D02*
X81717742Y-97975714D01*
X81717742Y-97975714D02*
X81646314Y-97832857D01*
X81646314Y-97832857D02*
X81574885Y-97761428D01*
X81574885Y-97761428D02*
X81432028Y-97689999D01*
X81432028Y-97689999D02*
X81074885Y-97689999D01*
X81074885Y-97689999D02*
X80932028Y-97761428D01*
X80932028Y-97761428D02*
X80860600Y-97832857D01*
X80860600Y-97832857D02*
X80789171Y-97975714D01*
X80789171Y-97975714D02*
X80789171Y-98404285D01*
X80789171Y-98404285D02*
X80860600Y-98547142D01*
X80860600Y-98547142D02*
X80932028Y-98618571D01*
X85472028Y-103948346D02*
X85400600Y-104019774D01*
X85400600Y-104019774D02*
X85329171Y-104234060D01*
X85329171Y-104234060D02*
X85329171Y-104376917D01*
X85329171Y-104376917D02*
X85400600Y-104591203D01*
X85400600Y-104591203D02*
X85543457Y-104734060D01*
X85543457Y-104734060D02*
X85686314Y-104805489D01*
X85686314Y-104805489D02*
X85972028Y-104876917D01*
X85972028Y-104876917D02*
X86186314Y-104876917D01*
X86186314Y-104876917D02*
X86472028Y-104805489D01*
X86472028Y-104805489D02*
X86614885Y-104734060D01*
X86614885Y-104734060D02*
X86757742Y-104591203D01*
X86757742Y-104591203D02*
X86829171Y-104376917D01*
X86829171Y-104376917D02*
X86829171Y-104234060D01*
X86829171Y-104234060D02*
X86757742Y-104019774D01*
X86757742Y-104019774D02*
X86686314Y-103948346D01*
X85329171Y-103305489D02*
X86829171Y-103305489D01*
X85329171Y-102591203D02*
X86829171Y-102591203D01*
X86829171Y-102591203D02*
X86829171Y-102234060D01*
X86829171Y-102234060D02*
X86757742Y-102019774D01*
X86757742Y-102019774D02*
X86614885Y-101876917D01*
X86614885Y-101876917D02*
X86472028Y-101805488D01*
X86472028Y-101805488D02*
X86186314Y-101734060D01*
X86186314Y-101734060D02*
X85972028Y-101734060D01*
X85972028Y-101734060D02*
X85686314Y-101805488D01*
X85686314Y-101805488D02*
X85543457Y-101876917D01*
X85543457Y-101876917D02*
X85400600Y-102019774D01*
X85400600Y-102019774D02*
X85329171Y-102234060D01*
X85329171Y-102234060D02*
X85329171Y-102591203D01*
X85472028Y-100234060D02*
X85400600Y-100305488D01*
X85400600Y-100305488D02*
X85329171Y-100519774D01*
X85329171Y-100519774D02*
X85329171Y-100662631D01*
X85329171Y-100662631D02*
X85400600Y-100876917D01*
X85400600Y-100876917D02*
X85543457Y-101019774D01*
X85543457Y-101019774D02*
X85686314Y-101091203D01*
X85686314Y-101091203D02*
X85972028Y-101162631D01*
X85972028Y-101162631D02*
X86186314Y-101162631D01*
X86186314Y-101162631D02*
X86472028Y-101091203D01*
X86472028Y-101091203D02*
X86614885Y-101019774D01*
X86614885Y-101019774D02*
X86757742Y-100876917D01*
X86757742Y-100876917D02*
X86829171Y-100662631D01*
X86829171Y-100662631D02*
X86829171Y-100519774D01*
X86829171Y-100519774D02*
X86757742Y-100305488D01*
X86757742Y-100305488D02*
X86686314Y-100234060D01*
X86829171Y-99305488D02*
X86829171Y-99019774D01*
X86829171Y-99019774D02*
X86757742Y-98876917D01*
X86757742Y-98876917D02*
X86614885Y-98734060D01*
X86614885Y-98734060D02*
X86329171Y-98662631D01*
X86329171Y-98662631D02*
X85829171Y-98662631D01*
X85829171Y-98662631D02*
X85543457Y-98734060D01*
X85543457Y-98734060D02*
X85400600Y-98876917D01*
X85400600Y-98876917D02*
X85329171Y-99019774D01*
X85329171Y-99019774D02*
X85329171Y-99305488D01*
X85329171Y-99305488D02*
X85400600Y-99448346D01*
X85400600Y-99448346D02*
X85543457Y-99591203D01*
X85543457Y-99591203D02*
X85829171Y-99662631D01*
X85829171Y-99662631D02*
X86329171Y-99662631D01*
X86329171Y-99662631D02*
X86614885Y-99591203D01*
X86614885Y-99591203D02*
X86757742Y-99448346D01*
X86757742Y-99448346D02*
X86829171Y-99305488D01*
X85472028Y-98019774D02*
X85400600Y-97948345D01*
X85400600Y-97948345D02*
X85329171Y-98019774D01*
X85329171Y-98019774D02*
X85400600Y-98091202D01*
X85400600Y-98091202D02*
X85472028Y-98019774D01*
X85472028Y-98019774D02*
X85329171Y-98019774D01*
X85472028Y-96448345D02*
X85400600Y-96519773D01*
X85400600Y-96519773D02*
X85329171Y-96734059D01*
X85329171Y-96734059D02*
X85329171Y-96876916D01*
X85329171Y-96876916D02*
X85400600Y-97091202D01*
X85400600Y-97091202D02*
X85543457Y-97234059D01*
X85543457Y-97234059D02*
X85686314Y-97305488D01*
X85686314Y-97305488D02*
X85972028Y-97376916D01*
X85972028Y-97376916D02*
X86186314Y-97376916D01*
X86186314Y-97376916D02*
X86472028Y-97305488D01*
X86472028Y-97305488D02*
X86614885Y-97234059D01*
X86614885Y-97234059D02*
X86757742Y-97091202D01*
X86757742Y-97091202D02*
X86829171Y-96876916D01*
X86829171Y-96876916D02*
X86829171Y-96734059D01*
X86829171Y-96734059D02*
X86757742Y-96519773D01*
X86757742Y-96519773D02*
X86686314Y-96448345D01*
X85757742Y-95876916D02*
X85757742Y-95162631D01*
X85329171Y-96019773D02*
X86829171Y-95519773D01*
X86829171Y-95519773D02*
X85329171Y-95019773D01*
D11*
X113496666Y-87814819D02*
X113829999Y-87338628D01*
X114068094Y-87814819D02*
X114068094Y-86814819D01*
X114068094Y-86814819D02*
X113687142Y-86814819D01*
X113687142Y-86814819D02*
X113591904Y-86862438D01*
X113591904Y-86862438D02*
X113544285Y-86910057D01*
X113544285Y-86910057D02*
X113496666Y-87005295D01*
X113496666Y-87005295D02*
X113496666Y-87148152D01*
X113496666Y-87148152D02*
X113544285Y-87243390D01*
X113544285Y-87243390D02*
X113591904Y-87291009D01*
X113591904Y-87291009D02*
X113687142Y-87338628D01*
X113687142Y-87338628D02*
X114068094Y-87338628D01*
X113163332Y-86814819D02*
X112544285Y-86814819D01*
X112544285Y-86814819D02*
X112877618Y-87195771D01*
X112877618Y-87195771D02*
X112734761Y-87195771D01*
X112734761Y-87195771D02*
X112639523Y-87243390D01*
X112639523Y-87243390D02*
X112591904Y-87291009D01*
X112591904Y-87291009D02*
X112544285Y-87386247D01*
X112544285Y-87386247D02*
X112544285Y-87624342D01*
X112544285Y-87624342D02*
X112591904Y-87719580D01*
X112591904Y-87719580D02*
X112639523Y-87767200D01*
X112639523Y-87767200D02*
X112734761Y-87814819D01*
X112734761Y-87814819D02*
X113020475Y-87814819D01*
X113020475Y-87814819D02*
X113115713Y-87767200D01*
X113115713Y-87767200D02*
X113163332Y-87719580D01*
X96766666Y-117709580D02*
X96814285Y-117757200D01*
X96814285Y-117757200D02*
X96957142Y-117804819D01*
X96957142Y-117804819D02*
X97052380Y-117804819D01*
X97052380Y-117804819D02*
X97195237Y-117757200D01*
X97195237Y-117757200D02*
X97290475Y-117661961D01*
X97290475Y-117661961D02*
X97338094Y-117566723D01*
X97338094Y-117566723D02*
X97385713Y-117376247D01*
X97385713Y-117376247D02*
X97385713Y-117233390D01*
X97385713Y-117233390D02*
X97338094Y-117042914D01*
X97338094Y-117042914D02*
X97290475Y-116947676D01*
X97290475Y-116947676D02*
X97195237Y-116852438D01*
X97195237Y-116852438D02*
X97052380Y-116804819D01*
X97052380Y-116804819D02*
X96957142Y-116804819D01*
X96957142Y-116804819D02*
X96814285Y-116852438D01*
X96814285Y-116852438D02*
X96766666Y-116900057D01*
X95814285Y-117804819D02*
X96385713Y-117804819D01*
X96099999Y-117804819D02*
X96099999Y-116804819D01*
X96099999Y-116804819D02*
X96195237Y-116947676D01*
X96195237Y-116947676D02*
X96290475Y-117042914D01*
X96290475Y-117042914D02*
X96385713Y-117090533D01*
X113516666Y-90074819D02*
X113849999Y-89598628D01*
X114088094Y-90074819D02*
X114088094Y-89074819D01*
X114088094Y-89074819D02*
X113707142Y-89074819D01*
X113707142Y-89074819D02*
X113611904Y-89122438D01*
X113611904Y-89122438D02*
X113564285Y-89170057D01*
X113564285Y-89170057D02*
X113516666Y-89265295D01*
X113516666Y-89265295D02*
X113516666Y-89408152D01*
X113516666Y-89408152D02*
X113564285Y-89503390D01*
X113564285Y-89503390D02*
X113611904Y-89551009D01*
X113611904Y-89551009D02*
X113707142Y-89598628D01*
X113707142Y-89598628D02*
X114088094Y-89598628D01*
X113135713Y-89170057D02*
X113088094Y-89122438D01*
X113088094Y-89122438D02*
X112992856Y-89074819D01*
X112992856Y-89074819D02*
X112754761Y-89074819D01*
X112754761Y-89074819D02*
X112659523Y-89122438D01*
X112659523Y-89122438D02*
X112611904Y-89170057D01*
X112611904Y-89170057D02*
X112564285Y-89265295D01*
X112564285Y-89265295D02*
X112564285Y-89360533D01*
X112564285Y-89360533D02*
X112611904Y-89503390D01*
X112611904Y-89503390D02*
X113183332Y-90074819D01*
X113183332Y-90074819D02*
X112564285Y-90074819D01*
X112196666Y-85814819D02*
X112529999Y-85338628D01*
X112768094Y-85814819D02*
X112768094Y-84814819D01*
X112768094Y-84814819D02*
X112387142Y-84814819D01*
X112387142Y-84814819D02*
X112291904Y-84862438D01*
X112291904Y-84862438D02*
X112244285Y-84910057D01*
X112244285Y-84910057D02*
X112196666Y-85005295D01*
X112196666Y-85005295D02*
X112196666Y-85148152D01*
X112196666Y-85148152D02*
X112244285Y-85243390D01*
X112244285Y-85243390D02*
X112291904Y-85291009D01*
X112291904Y-85291009D02*
X112387142Y-85338628D01*
X112387142Y-85338628D02*
X112768094Y-85338628D01*
X111339523Y-85148152D02*
X111339523Y-85814819D01*
X111577618Y-84767200D02*
X111815713Y-85481485D01*
X111815713Y-85481485D02*
X111196666Y-85481485D01*
X100701904Y-116494819D02*
X100701904Y-117304342D01*
X100701904Y-117304342D02*
X100654285Y-117399580D01*
X100654285Y-117399580D02*
X100606666Y-117447200D01*
X100606666Y-117447200D02*
X100511428Y-117494819D01*
X100511428Y-117494819D02*
X100320952Y-117494819D01*
X100320952Y-117494819D02*
X100225714Y-117447200D01*
X100225714Y-117447200D02*
X100178095Y-117399580D01*
X100178095Y-117399580D02*
X100130476Y-117304342D01*
X100130476Y-117304342D02*
X100130476Y-116494819D01*
X99701904Y-116590057D02*
X99654285Y-116542438D01*
X99654285Y-116542438D02*
X99559047Y-116494819D01*
X99559047Y-116494819D02*
X99320952Y-116494819D01*
X99320952Y-116494819D02*
X99225714Y-116542438D01*
X99225714Y-116542438D02*
X99178095Y-116590057D01*
X99178095Y-116590057D02*
X99130476Y-116685295D01*
X99130476Y-116685295D02*
X99130476Y-116780533D01*
X99130476Y-116780533D02*
X99178095Y-116923390D01*
X99178095Y-116923390D02*
X99749523Y-117494819D01*
X99749523Y-117494819D02*
X99130476Y-117494819D01*
X94366666Y-117709580D02*
X94414285Y-117757200D01*
X94414285Y-117757200D02*
X94557142Y-117804819D01*
X94557142Y-117804819D02*
X94652380Y-117804819D01*
X94652380Y-117804819D02*
X94795237Y-117757200D01*
X94795237Y-117757200D02*
X94890475Y-117661961D01*
X94890475Y-117661961D02*
X94938094Y-117566723D01*
X94938094Y-117566723D02*
X94985713Y-117376247D01*
X94985713Y-117376247D02*
X94985713Y-117233390D01*
X94985713Y-117233390D02*
X94938094Y-117042914D01*
X94938094Y-117042914D02*
X94890475Y-116947676D01*
X94890475Y-116947676D02*
X94795237Y-116852438D01*
X94795237Y-116852438D02*
X94652380Y-116804819D01*
X94652380Y-116804819D02*
X94557142Y-116804819D01*
X94557142Y-116804819D02*
X94414285Y-116852438D01*
X94414285Y-116852438D02*
X94366666Y-116900057D01*
X93985713Y-116900057D02*
X93938094Y-116852438D01*
X93938094Y-116852438D02*
X93842856Y-116804819D01*
X93842856Y-116804819D02*
X93604761Y-116804819D01*
X93604761Y-116804819D02*
X93509523Y-116852438D01*
X93509523Y-116852438D02*
X93461904Y-116900057D01*
X93461904Y-116900057D02*
X93414285Y-116995295D01*
X93414285Y-116995295D02*
X93414285Y-117090533D01*
X93414285Y-117090533D02*
X93461904Y-117233390D01*
X93461904Y-117233390D02*
X94033332Y-117804819D01*
X94033332Y-117804819D02*
X93414285Y-117804819D01*
D12*
%TO.C,R3*%
X109342936Y-86200000D02*
X110797064Y-86200000D01*
X109342936Y-88020000D02*
X110797064Y-88020000D01*
%TO.C,C1*%
X95750000Y-115036252D02*
X95750000Y-113613748D01*
X97570000Y-115036252D02*
X97570000Y-113613748D01*
%TO.C,R2*%
X109382936Y-88720000D02*
X110837064Y-88720000D01*
X109382936Y-90540000D02*
X110837064Y-90540000D01*
%TO.C,R4*%
X108152936Y-83880000D02*
X109607064Y-83880000D01*
X108152936Y-85700000D02*
X109607064Y-85700000D01*
%TO.C,U2*%
X98815000Y-112842500D02*
X100415000Y-112842500D01*
X98815000Y-113752500D02*
X98815000Y-112842500D01*
X98815000Y-116062500D02*
X98815000Y-115152500D01*
X98815000Y-116062500D02*
X100965000Y-116062500D01*
X100915000Y-112892500D02*
X100675000Y-112562500D01*
X101155000Y-112562500D01*
X100915000Y-112892500D01*
G36*
X100915000Y-112892500D02*
G01*
X100675000Y-112562500D01*
X101155000Y-112562500D01*
X100915000Y-112892500D01*
G37*
%TO.C,C2*%
X93290000Y-115036252D02*
X93290000Y-113613748D01*
X95110000Y-115036252D02*
X95110000Y-113613748D01*
%TD*%
M02*
