%TF.GenerationSoftware,KiCad,Pcbnew,8.0.6*%
%TF.CreationDate,2025-02-12T14:20:06-05:00*%
%TF.ProjectId,module led hall,6d6f6475-6c65-4206-9c65-642068616c6c,rev?*%
%TF.SameCoordinates,Original*%
%TF.FileFunction,Legend,Top*%
%TF.FilePolarity,Positive*%
%FSLAX46Y46*%
G04 Gerber Fmt 4.6, Leading zero omitted, Abs format (unit mm)*
G04 Created by KiCad (PCBNEW 8.0.6) date 2025-02-12 14:20:06*
%MOMM*%
%LPD*%
G01*
G04 APERTURE LIST*
%ADD10C,0.150000*%
%ADD11C,0.120000*%
G04 APERTURE END LIST*
D10*
X115436666Y-90354819D02*
X115436666Y-91069104D01*
X115436666Y-91069104D02*
X115389047Y-91211961D01*
X115389047Y-91211961D02*
X115293809Y-91307200D01*
X115293809Y-91307200D02*
X115150952Y-91354819D01*
X115150952Y-91354819D02*
X115055714Y-91354819D01*
X116436666Y-91354819D02*
X115865238Y-91354819D01*
X116150952Y-91354819D02*
X116150952Y-90354819D01*
X116150952Y-90354819D02*
X116055714Y-90497676D01*
X116055714Y-90497676D02*
X115960476Y-90592914D01*
X115960476Y-90592914D02*
X115865238Y-90640533D01*
X99716666Y-88994819D02*
X99716666Y-89709104D01*
X99716666Y-89709104D02*
X99669047Y-89851961D01*
X99669047Y-89851961D02*
X99573809Y-89947200D01*
X99573809Y-89947200D02*
X99430952Y-89994819D01*
X99430952Y-89994819D02*
X99335714Y-89994819D01*
X100145238Y-89090057D02*
X100192857Y-89042438D01*
X100192857Y-89042438D02*
X100288095Y-88994819D01*
X100288095Y-88994819D02*
X100526190Y-88994819D01*
X100526190Y-88994819D02*
X100621428Y-89042438D01*
X100621428Y-89042438D02*
X100669047Y-89090057D01*
X100669047Y-89090057D02*
X100716666Y-89185295D01*
X100716666Y-89185295D02*
X100716666Y-89280533D01*
X100716666Y-89280533D02*
X100669047Y-89423390D01*
X100669047Y-89423390D02*
X100097619Y-89994819D01*
X100097619Y-89994819D02*
X100716666Y-89994819D01*
D11*
%TO.C,J1*%
X109820000Y-96500000D02*
X109820000Y-97500000D01*
X109820000Y-97500000D02*
X110820000Y-97000000D01*
X110820000Y-97000000D02*
X109820000Y-96500000D01*
X111210000Y-91790000D02*
X120330000Y-91790000D01*
X111210000Y-97490000D02*
X112520000Y-97490000D01*
X111210000Y-107290000D02*
X111210000Y-91790000D01*
X112520000Y-93090000D02*
X119020000Y-93090000D01*
X112520000Y-97490000D02*
X112520000Y-93090000D01*
X112520000Y-101590000D02*
X111210000Y-101590000D01*
X112520000Y-101590000D02*
X112520000Y-101590000D01*
X112520000Y-105990000D02*
X112520000Y-101590000D01*
X119020000Y-93090000D02*
X119020000Y-105990000D01*
X119020000Y-105990000D02*
X112520000Y-105990000D01*
X120330000Y-91790000D02*
X120330000Y-107290000D01*
X120330000Y-107290000D02*
X111210000Y-107290000D01*
%TO.C,J2*%
X93980000Y-80830000D02*
X106120000Y-80830000D01*
X93980000Y-81940000D02*
X93980000Y-80830000D01*
X95005000Y-81940000D02*
X93980000Y-81940000D01*
X95005000Y-82480000D02*
X95005000Y-81940000D01*
X97985000Y-86450000D02*
X97160000Y-86450000D01*
X102115000Y-86450000D02*
X102115000Y-88250000D01*
X102940000Y-86450000D02*
X102115000Y-86450000D01*
X105095000Y-81940000D02*
X105095000Y-82480000D01*
X106120000Y-80830000D02*
X106120000Y-81940000D01*
X106120000Y-81940000D02*
X105095000Y-81940000D01*
%TD*%
M02*
