%TF.GenerationSoftware,KiCad,Pcbnew,8.0.6*%
%TF.CreationDate,2025-02-12T14:20:04-05:00*%
%TF.ProjectId,module led hall,6d6f6475-6c65-4206-9c65-642068616c6c,rev?*%
%TF.SameCoordinates,Original*%
%TF.FileFunction,Drillmap*%
%TF.FilePolarity,Positive*%
%FSLAX45Y45*%
G04 Gerber Fmt 4.5, Leading zero omitted, Abs format (unit mm)*
G04 Created by KiCad (PCBNEW 8.0.6) date 2025-02-12 14:20:04*
%MOMM*%
%LPD*%
G01*
G04 APERTURE LIST*
%ADD10C,0.200000*%
%ADD11C,0.430000*%
G04 APERTURE END LIST*
D10*
X12000000Y-10000000D02*
G75*
G02*
X8000000Y-10000000I-2000000J0D01*
G01*
X8000000Y-10000000D02*
G75*
G02*
X12000000Y-10000000I2000000J0D01*
G01*
D11*
X8683000Y-8694000D02*
X9113000Y-9124000D01*
X9113000Y-8694000D02*
X8683000Y-9124000D01*
X10755000Y-10996000D02*
X11185000Y-11426000D01*
X11185000Y-10996000D02*
X10755000Y-11426000D01*
D10*
X8250777Y-12321484D02*
X8250777Y-12121484D01*
X8250777Y-12121484D02*
X8298396Y-12121484D01*
X8298396Y-12121484D02*
X8326967Y-12131008D01*
X8326967Y-12131008D02*
X8346015Y-12150055D01*
X8346015Y-12150055D02*
X8355539Y-12169103D01*
X8355539Y-12169103D02*
X8365062Y-12207198D01*
X8365062Y-12207198D02*
X8365062Y-12235769D01*
X8365062Y-12235769D02*
X8355539Y-12273865D01*
X8355539Y-12273865D02*
X8346015Y-12292912D01*
X8346015Y-12292912D02*
X8326967Y-12311960D01*
X8326967Y-12311960D02*
X8298396Y-12321484D01*
X8298396Y-12321484D02*
X8250777Y-12321484D01*
X8450777Y-12321484D02*
X8450777Y-12188150D01*
X8450777Y-12226246D02*
X8460301Y-12207198D01*
X8460301Y-12207198D02*
X8469824Y-12197674D01*
X8469824Y-12197674D02*
X8488872Y-12188150D01*
X8488872Y-12188150D02*
X8507920Y-12188150D01*
X8574586Y-12321484D02*
X8574586Y-12188150D01*
X8574586Y-12121484D02*
X8565063Y-12131008D01*
X8565063Y-12131008D02*
X8574586Y-12140531D01*
X8574586Y-12140531D02*
X8584110Y-12131008D01*
X8584110Y-12131008D02*
X8574586Y-12121484D01*
X8574586Y-12121484D02*
X8574586Y-12140531D01*
X8698396Y-12321484D02*
X8679348Y-12311960D01*
X8679348Y-12311960D02*
X8669824Y-12292912D01*
X8669824Y-12292912D02*
X8669824Y-12121484D01*
X8803158Y-12321484D02*
X8784110Y-12311960D01*
X8784110Y-12311960D02*
X8774586Y-12292912D01*
X8774586Y-12292912D02*
X8774586Y-12121484D01*
X9031729Y-12321484D02*
X9031729Y-12121484D01*
X9031729Y-12121484D02*
X9098396Y-12264341D01*
X9098396Y-12264341D02*
X9165063Y-12121484D01*
X9165063Y-12121484D02*
X9165063Y-12321484D01*
X9346015Y-12321484D02*
X9346015Y-12216722D01*
X9346015Y-12216722D02*
X9336491Y-12197674D01*
X9336491Y-12197674D02*
X9317444Y-12188150D01*
X9317444Y-12188150D02*
X9279348Y-12188150D01*
X9279348Y-12188150D02*
X9260301Y-12197674D01*
X9346015Y-12311960D02*
X9326967Y-12321484D01*
X9326967Y-12321484D02*
X9279348Y-12321484D01*
X9279348Y-12321484D02*
X9260301Y-12311960D01*
X9260301Y-12311960D02*
X9250777Y-12292912D01*
X9250777Y-12292912D02*
X9250777Y-12273865D01*
X9250777Y-12273865D02*
X9260301Y-12254817D01*
X9260301Y-12254817D02*
X9279348Y-12245293D01*
X9279348Y-12245293D02*
X9326967Y-12245293D01*
X9326967Y-12245293D02*
X9346015Y-12235769D01*
X9441253Y-12188150D02*
X9441253Y-12388150D01*
X9441253Y-12197674D02*
X9460301Y-12188150D01*
X9460301Y-12188150D02*
X9498396Y-12188150D01*
X9498396Y-12188150D02*
X9517444Y-12197674D01*
X9517444Y-12197674D02*
X9526967Y-12207198D01*
X9526967Y-12207198D02*
X9536491Y-12226246D01*
X9536491Y-12226246D02*
X9536491Y-12283388D01*
X9536491Y-12283388D02*
X9526967Y-12302436D01*
X9526967Y-12302436D02*
X9517444Y-12311960D01*
X9517444Y-12311960D02*
X9498396Y-12321484D01*
X9498396Y-12321484D02*
X9460301Y-12321484D01*
X9460301Y-12321484D02*
X9441253Y-12311960D01*
X9622205Y-12302436D02*
X9631729Y-12311960D01*
X9631729Y-12311960D02*
X9622205Y-12321484D01*
X9622205Y-12321484D02*
X9612682Y-12311960D01*
X9612682Y-12311960D02*
X9622205Y-12302436D01*
X9622205Y-12302436D02*
X9622205Y-12321484D01*
X9622205Y-12197674D02*
X9631729Y-12207198D01*
X9631729Y-12207198D02*
X9622205Y-12216722D01*
X9622205Y-12216722D02*
X9612682Y-12207198D01*
X9612682Y-12207198D02*
X9622205Y-12197674D01*
X9622205Y-12197674D02*
X9622205Y-12216722D01*
X7790000Y-12550000D02*
X7990000Y-12750000D01*
X7990000Y-12550000D02*
X7790000Y-12750000D01*
X8336491Y-12608150D02*
X8336491Y-12741484D01*
X8288872Y-12531960D02*
X8241253Y-12674817D01*
X8241253Y-12674817D02*
X8365062Y-12674817D01*
X8441253Y-12722436D02*
X8450777Y-12731960D01*
X8450777Y-12731960D02*
X8441253Y-12741484D01*
X8441253Y-12741484D02*
X8431729Y-12731960D01*
X8431729Y-12731960D02*
X8441253Y-12722436D01*
X8441253Y-12722436D02*
X8441253Y-12741484D01*
X8517444Y-12541484D02*
X8641253Y-12541484D01*
X8641253Y-12541484D02*
X8574586Y-12617674D01*
X8574586Y-12617674D02*
X8603158Y-12617674D01*
X8603158Y-12617674D02*
X8622205Y-12627198D01*
X8622205Y-12627198D02*
X8631729Y-12636722D01*
X8631729Y-12636722D02*
X8641253Y-12655769D01*
X8641253Y-12655769D02*
X8641253Y-12703388D01*
X8641253Y-12703388D02*
X8631729Y-12722436D01*
X8631729Y-12722436D02*
X8622205Y-12731960D01*
X8622205Y-12731960D02*
X8603158Y-12741484D01*
X8603158Y-12741484D02*
X8546015Y-12741484D01*
X8546015Y-12741484D02*
X8526967Y-12731960D01*
X8526967Y-12731960D02*
X8517444Y-12722436D01*
X8765063Y-12541484D02*
X8784110Y-12541484D01*
X8784110Y-12541484D02*
X8803158Y-12551008D01*
X8803158Y-12551008D02*
X8812682Y-12560531D01*
X8812682Y-12560531D02*
X8822205Y-12579579D01*
X8822205Y-12579579D02*
X8831729Y-12617674D01*
X8831729Y-12617674D02*
X8831729Y-12665293D01*
X8831729Y-12665293D02*
X8822205Y-12703388D01*
X8822205Y-12703388D02*
X8812682Y-12722436D01*
X8812682Y-12722436D02*
X8803158Y-12731960D01*
X8803158Y-12731960D02*
X8784110Y-12741484D01*
X8784110Y-12741484D02*
X8765063Y-12741484D01*
X8765063Y-12741484D02*
X8746015Y-12731960D01*
X8746015Y-12731960D02*
X8736491Y-12722436D01*
X8736491Y-12722436D02*
X8726967Y-12703388D01*
X8726967Y-12703388D02*
X8717444Y-12665293D01*
X8717444Y-12665293D02*
X8717444Y-12617674D01*
X8717444Y-12617674D02*
X8726967Y-12579579D01*
X8726967Y-12579579D02*
X8736491Y-12560531D01*
X8736491Y-12560531D02*
X8746015Y-12551008D01*
X8746015Y-12551008D02*
X8765063Y-12541484D01*
X8955539Y-12541484D02*
X8974586Y-12541484D01*
X8974586Y-12541484D02*
X8993634Y-12551008D01*
X8993634Y-12551008D02*
X9003158Y-12560531D01*
X9003158Y-12560531D02*
X9012682Y-12579579D01*
X9012682Y-12579579D02*
X9022205Y-12617674D01*
X9022205Y-12617674D02*
X9022205Y-12665293D01*
X9022205Y-12665293D02*
X9012682Y-12703388D01*
X9012682Y-12703388D02*
X9003158Y-12722436D01*
X9003158Y-12722436D02*
X8993634Y-12731960D01*
X8993634Y-12731960D02*
X8974586Y-12741484D01*
X8974586Y-12741484D02*
X8955539Y-12741484D01*
X8955539Y-12741484D02*
X8936491Y-12731960D01*
X8936491Y-12731960D02*
X8926967Y-12722436D01*
X8926967Y-12722436D02*
X8917444Y-12703388D01*
X8917444Y-12703388D02*
X8907920Y-12665293D01*
X8907920Y-12665293D02*
X8907920Y-12617674D01*
X8907920Y-12617674D02*
X8917444Y-12579579D01*
X8917444Y-12579579D02*
X8926967Y-12560531D01*
X8926967Y-12560531D02*
X8936491Y-12551008D01*
X8936491Y-12551008D02*
X8955539Y-12541484D01*
X9107920Y-12741484D02*
X9107920Y-12608150D01*
X9107920Y-12627198D02*
X9117444Y-12617674D01*
X9117444Y-12617674D02*
X9136491Y-12608150D01*
X9136491Y-12608150D02*
X9165063Y-12608150D01*
X9165063Y-12608150D02*
X9184110Y-12617674D01*
X9184110Y-12617674D02*
X9193634Y-12636722D01*
X9193634Y-12636722D02*
X9193634Y-12741484D01*
X9193634Y-12636722D02*
X9203158Y-12617674D01*
X9203158Y-12617674D02*
X9222205Y-12608150D01*
X9222205Y-12608150D02*
X9250777Y-12608150D01*
X9250777Y-12608150D02*
X9269825Y-12617674D01*
X9269825Y-12617674D02*
X9279348Y-12636722D01*
X9279348Y-12636722D02*
X9279348Y-12741484D01*
X9374586Y-12741484D02*
X9374586Y-12608150D01*
X9374586Y-12627198D02*
X9384110Y-12617674D01*
X9384110Y-12617674D02*
X9403158Y-12608150D01*
X9403158Y-12608150D02*
X9431729Y-12608150D01*
X9431729Y-12608150D02*
X9450777Y-12617674D01*
X9450777Y-12617674D02*
X9460301Y-12636722D01*
X9460301Y-12636722D02*
X9460301Y-12741484D01*
X9460301Y-12636722D02*
X9469825Y-12617674D01*
X9469825Y-12617674D02*
X9488872Y-12608150D01*
X9488872Y-12608150D02*
X9517444Y-12608150D01*
X9517444Y-12608150D02*
X9536491Y-12617674D01*
X9536491Y-12617674D02*
X9546015Y-12636722D01*
X9546015Y-12636722D02*
X9546015Y-12741484D01*
X9936491Y-12531960D02*
X9765063Y-12789103D01*
X10193634Y-12541484D02*
X10212682Y-12541484D01*
X10212682Y-12541484D02*
X10231729Y-12551008D01*
X10231729Y-12551008D02*
X10241253Y-12560531D01*
X10241253Y-12560531D02*
X10250777Y-12579579D01*
X10250777Y-12579579D02*
X10260301Y-12617674D01*
X10260301Y-12617674D02*
X10260301Y-12665293D01*
X10260301Y-12665293D02*
X10250777Y-12703388D01*
X10250777Y-12703388D02*
X10241253Y-12722436D01*
X10241253Y-12722436D02*
X10231729Y-12731960D01*
X10231729Y-12731960D02*
X10212682Y-12741484D01*
X10212682Y-12741484D02*
X10193634Y-12741484D01*
X10193634Y-12741484D02*
X10174587Y-12731960D01*
X10174587Y-12731960D02*
X10165063Y-12722436D01*
X10165063Y-12722436D02*
X10155539Y-12703388D01*
X10155539Y-12703388D02*
X10146015Y-12665293D01*
X10146015Y-12665293D02*
X10146015Y-12617674D01*
X10146015Y-12617674D02*
X10155539Y-12579579D01*
X10155539Y-12579579D02*
X10165063Y-12560531D01*
X10165063Y-12560531D02*
X10174587Y-12551008D01*
X10174587Y-12551008D02*
X10193634Y-12541484D01*
X10346015Y-12722436D02*
X10355539Y-12731960D01*
X10355539Y-12731960D02*
X10346015Y-12741484D01*
X10346015Y-12741484D02*
X10336491Y-12731960D01*
X10336491Y-12731960D02*
X10346015Y-12722436D01*
X10346015Y-12722436D02*
X10346015Y-12741484D01*
X10546015Y-12741484D02*
X10431729Y-12741484D01*
X10488872Y-12741484D02*
X10488872Y-12541484D01*
X10488872Y-12541484D02*
X10469825Y-12570055D01*
X10469825Y-12570055D02*
X10450777Y-12589103D01*
X10450777Y-12589103D02*
X10431729Y-12598627D01*
X10717444Y-12541484D02*
X10679348Y-12541484D01*
X10679348Y-12541484D02*
X10660301Y-12551008D01*
X10660301Y-12551008D02*
X10650777Y-12560531D01*
X10650777Y-12560531D02*
X10631729Y-12589103D01*
X10631729Y-12589103D02*
X10622206Y-12627198D01*
X10622206Y-12627198D02*
X10622206Y-12703388D01*
X10622206Y-12703388D02*
X10631729Y-12722436D01*
X10631729Y-12722436D02*
X10641253Y-12731960D01*
X10641253Y-12731960D02*
X10660301Y-12741484D01*
X10660301Y-12741484D02*
X10698396Y-12741484D01*
X10698396Y-12741484D02*
X10717444Y-12731960D01*
X10717444Y-12731960D02*
X10726968Y-12722436D01*
X10726968Y-12722436D02*
X10736491Y-12703388D01*
X10736491Y-12703388D02*
X10736491Y-12655769D01*
X10736491Y-12655769D02*
X10726968Y-12636722D01*
X10726968Y-12636722D02*
X10717444Y-12627198D01*
X10717444Y-12627198D02*
X10698396Y-12617674D01*
X10698396Y-12617674D02*
X10660301Y-12617674D01*
X10660301Y-12617674D02*
X10641253Y-12627198D01*
X10641253Y-12627198D02*
X10631729Y-12636722D01*
X10631729Y-12636722D02*
X10622206Y-12655769D01*
X10831729Y-12741484D02*
X10869825Y-12741484D01*
X10869825Y-12741484D02*
X10888872Y-12731960D01*
X10888872Y-12731960D02*
X10898396Y-12722436D01*
X10898396Y-12722436D02*
X10917444Y-12693865D01*
X10917444Y-12693865D02*
X10926968Y-12655769D01*
X10926968Y-12655769D02*
X10926968Y-12579579D01*
X10926968Y-12579579D02*
X10917444Y-12560531D01*
X10917444Y-12560531D02*
X10907920Y-12551008D01*
X10907920Y-12551008D02*
X10888872Y-12541484D01*
X10888872Y-12541484D02*
X10850777Y-12541484D01*
X10850777Y-12541484D02*
X10831729Y-12551008D01*
X10831729Y-12551008D02*
X10822206Y-12560531D01*
X10822206Y-12560531D02*
X10812682Y-12579579D01*
X10812682Y-12579579D02*
X10812682Y-12627198D01*
X10812682Y-12627198D02*
X10822206Y-12646246D01*
X10822206Y-12646246D02*
X10831729Y-12655769D01*
X10831729Y-12655769D02*
X10850777Y-12665293D01*
X10850777Y-12665293D02*
X10888872Y-12665293D01*
X10888872Y-12665293D02*
X10907920Y-12655769D01*
X10907920Y-12655769D02*
X10917444Y-12646246D01*
X10917444Y-12646246D02*
X10926968Y-12627198D01*
X10993634Y-12541484D02*
X11117444Y-12541484D01*
X11117444Y-12541484D02*
X11050777Y-12617674D01*
X11050777Y-12617674D02*
X11079349Y-12617674D01*
X11079349Y-12617674D02*
X11098396Y-12627198D01*
X11098396Y-12627198D02*
X11107920Y-12636722D01*
X11107920Y-12636722D02*
X11117444Y-12655769D01*
X11117444Y-12655769D02*
X11117444Y-12703388D01*
X11117444Y-12703388D02*
X11107920Y-12722436D01*
X11107920Y-12722436D02*
X11098396Y-12731960D01*
X11098396Y-12731960D02*
X11079349Y-12741484D01*
X11079349Y-12741484D02*
X11022206Y-12741484D01*
X11022206Y-12741484D02*
X11003158Y-12731960D01*
X11003158Y-12731960D02*
X10993634Y-12722436D01*
X11193634Y-12541484D02*
X11193634Y-12579579D01*
X11269825Y-12541484D02*
X11269825Y-12579579D01*
X11565063Y-12817674D02*
X11555539Y-12808150D01*
X11555539Y-12808150D02*
X11536491Y-12779579D01*
X11536491Y-12779579D02*
X11526968Y-12760531D01*
X11526968Y-12760531D02*
X11517444Y-12731960D01*
X11517444Y-12731960D02*
X11507920Y-12684341D01*
X11507920Y-12684341D02*
X11507920Y-12646246D01*
X11507920Y-12646246D02*
X11517444Y-12598627D01*
X11517444Y-12598627D02*
X11526968Y-12570055D01*
X11526968Y-12570055D02*
X11536491Y-12551008D01*
X11536491Y-12551008D02*
X11555539Y-12522436D01*
X11555539Y-12522436D02*
X11565063Y-12512912D01*
X11631729Y-12560531D02*
X11641253Y-12551008D01*
X11641253Y-12551008D02*
X11660301Y-12541484D01*
X11660301Y-12541484D02*
X11707920Y-12541484D01*
X11707920Y-12541484D02*
X11726968Y-12551008D01*
X11726968Y-12551008D02*
X11736491Y-12560531D01*
X11736491Y-12560531D02*
X11746015Y-12579579D01*
X11746015Y-12579579D02*
X11746015Y-12598627D01*
X11746015Y-12598627D02*
X11736491Y-12627198D01*
X11736491Y-12627198D02*
X11622206Y-12741484D01*
X11622206Y-12741484D02*
X11746015Y-12741484D01*
X11984110Y-12741484D02*
X11984110Y-12541484D01*
X12069825Y-12741484D02*
X12069825Y-12636722D01*
X12069825Y-12636722D02*
X12060301Y-12617674D01*
X12060301Y-12617674D02*
X12041253Y-12608150D01*
X12041253Y-12608150D02*
X12012682Y-12608150D01*
X12012682Y-12608150D02*
X11993634Y-12617674D01*
X11993634Y-12617674D02*
X11984110Y-12627198D01*
X12193634Y-12741484D02*
X12174587Y-12731960D01*
X12174587Y-12731960D02*
X12165063Y-12722436D01*
X12165063Y-12722436D02*
X12155539Y-12703388D01*
X12155539Y-12703388D02*
X12155539Y-12646246D01*
X12155539Y-12646246D02*
X12165063Y-12627198D01*
X12165063Y-12627198D02*
X12174587Y-12617674D01*
X12174587Y-12617674D02*
X12193634Y-12608150D01*
X12193634Y-12608150D02*
X12222206Y-12608150D01*
X12222206Y-12608150D02*
X12241253Y-12617674D01*
X12241253Y-12617674D02*
X12250777Y-12627198D01*
X12250777Y-12627198D02*
X12260301Y-12646246D01*
X12260301Y-12646246D02*
X12260301Y-12703388D01*
X12260301Y-12703388D02*
X12250777Y-12722436D01*
X12250777Y-12722436D02*
X12241253Y-12731960D01*
X12241253Y-12731960D02*
X12222206Y-12741484D01*
X12222206Y-12741484D02*
X12193634Y-12741484D01*
X12374587Y-12741484D02*
X12355539Y-12731960D01*
X12355539Y-12731960D02*
X12346015Y-12712912D01*
X12346015Y-12712912D02*
X12346015Y-12541484D01*
X12526968Y-12731960D02*
X12507920Y-12741484D01*
X12507920Y-12741484D02*
X12469825Y-12741484D01*
X12469825Y-12741484D02*
X12450777Y-12731960D01*
X12450777Y-12731960D02*
X12441253Y-12712912D01*
X12441253Y-12712912D02*
X12441253Y-12636722D01*
X12441253Y-12636722D02*
X12450777Y-12617674D01*
X12450777Y-12617674D02*
X12469825Y-12608150D01*
X12469825Y-12608150D02*
X12507920Y-12608150D01*
X12507920Y-12608150D02*
X12526968Y-12617674D01*
X12526968Y-12617674D02*
X12536491Y-12636722D01*
X12536491Y-12636722D02*
X12536491Y-12655769D01*
X12536491Y-12655769D02*
X12441253Y-12674817D01*
X12612682Y-12731960D02*
X12631730Y-12741484D01*
X12631730Y-12741484D02*
X12669825Y-12741484D01*
X12669825Y-12741484D02*
X12688872Y-12731960D01*
X12688872Y-12731960D02*
X12698396Y-12712912D01*
X12698396Y-12712912D02*
X12698396Y-12703388D01*
X12698396Y-12703388D02*
X12688872Y-12684341D01*
X12688872Y-12684341D02*
X12669825Y-12674817D01*
X12669825Y-12674817D02*
X12641253Y-12674817D01*
X12641253Y-12674817D02*
X12622206Y-12665293D01*
X12622206Y-12665293D02*
X12612682Y-12646246D01*
X12612682Y-12646246D02*
X12612682Y-12636722D01*
X12612682Y-12636722D02*
X12622206Y-12617674D01*
X12622206Y-12617674D02*
X12641253Y-12608150D01*
X12641253Y-12608150D02*
X12669825Y-12608150D01*
X12669825Y-12608150D02*
X12688872Y-12617674D01*
X12765063Y-12817674D02*
X12774587Y-12808150D01*
X12774587Y-12808150D02*
X12793634Y-12779579D01*
X12793634Y-12779579D02*
X12803158Y-12760531D01*
X12803158Y-12760531D02*
X12812682Y-12731960D01*
X12812682Y-12731960D02*
X12822206Y-12684341D01*
X12822206Y-12684341D02*
X12822206Y-12646246D01*
X12822206Y-12646246D02*
X12812682Y-12598627D01*
X12812682Y-12598627D02*
X12803158Y-12570055D01*
X12803158Y-12570055D02*
X12793634Y-12551008D01*
X12793634Y-12551008D02*
X12774587Y-12522436D01*
X12774587Y-12522436D02*
X12765063Y-12512912D01*
X13126968Y-12817674D02*
X13117444Y-12808150D01*
X13117444Y-12808150D02*
X13098396Y-12779579D01*
X13098396Y-12779579D02*
X13088872Y-12760531D01*
X13088872Y-12760531D02*
X13079349Y-12731960D01*
X13079349Y-12731960D02*
X13069825Y-12684341D01*
X13069825Y-12684341D02*
X13069825Y-12646246D01*
X13069825Y-12646246D02*
X13079349Y-12598627D01*
X13079349Y-12598627D02*
X13088872Y-12570055D01*
X13088872Y-12570055D02*
X13098396Y-12551008D01*
X13098396Y-12551008D02*
X13117444Y-12522436D01*
X13117444Y-12522436D02*
X13126968Y-12512912D01*
X13203158Y-12608150D02*
X13203158Y-12741484D01*
X13203158Y-12627198D02*
X13212682Y-12617674D01*
X13212682Y-12617674D02*
X13231730Y-12608150D01*
X13231730Y-12608150D02*
X13260301Y-12608150D01*
X13260301Y-12608150D02*
X13279349Y-12617674D01*
X13279349Y-12617674D02*
X13288872Y-12636722D01*
X13288872Y-12636722D02*
X13288872Y-12741484D01*
X13412682Y-12741484D02*
X13393634Y-12731960D01*
X13393634Y-12731960D02*
X13384111Y-12722436D01*
X13384111Y-12722436D02*
X13374587Y-12703388D01*
X13374587Y-12703388D02*
X13374587Y-12646246D01*
X13374587Y-12646246D02*
X13384111Y-12627198D01*
X13384111Y-12627198D02*
X13393634Y-12617674D01*
X13393634Y-12617674D02*
X13412682Y-12608150D01*
X13412682Y-12608150D02*
X13441253Y-12608150D01*
X13441253Y-12608150D02*
X13460301Y-12617674D01*
X13460301Y-12617674D02*
X13469825Y-12627198D01*
X13469825Y-12627198D02*
X13479349Y-12646246D01*
X13479349Y-12646246D02*
X13479349Y-12703388D01*
X13479349Y-12703388D02*
X13469825Y-12722436D01*
X13469825Y-12722436D02*
X13460301Y-12731960D01*
X13460301Y-12731960D02*
X13441253Y-12741484D01*
X13441253Y-12741484D02*
X13412682Y-12741484D01*
X13536492Y-12608150D02*
X13612682Y-12608150D01*
X13565063Y-12541484D02*
X13565063Y-12712912D01*
X13565063Y-12712912D02*
X13574587Y-12731960D01*
X13574587Y-12731960D02*
X13593634Y-12741484D01*
X13593634Y-12741484D02*
X13612682Y-12741484D01*
X13831730Y-12608150D02*
X13831730Y-12808150D01*
X13831730Y-12617674D02*
X13850777Y-12608150D01*
X13850777Y-12608150D02*
X13888873Y-12608150D01*
X13888873Y-12608150D02*
X13907920Y-12617674D01*
X13907920Y-12617674D02*
X13917444Y-12627198D01*
X13917444Y-12627198D02*
X13926968Y-12646246D01*
X13926968Y-12646246D02*
X13926968Y-12703388D01*
X13926968Y-12703388D02*
X13917444Y-12722436D01*
X13917444Y-12722436D02*
X13907920Y-12731960D01*
X13907920Y-12731960D02*
X13888873Y-12741484D01*
X13888873Y-12741484D02*
X13850777Y-12741484D01*
X13850777Y-12741484D02*
X13831730Y-12731960D01*
X14041253Y-12741484D02*
X14022206Y-12731960D01*
X14022206Y-12731960D02*
X14012682Y-12712912D01*
X14012682Y-12712912D02*
X14012682Y-12541484D01*
X14203158Y-12741484D02*
X14203158Y-12636722D01*
X14203158Y-12636722D02*
X14193634Y-12617674D01*
X14193634Y-12617674D02*
X14174587Y-12608150D01*
X14174587Y-12608150D02*
X14136492Y-12608150D01*
X14136492Y-12608150D02*
X14117444Y-12617674D01*
X14203158Y-12731960D02*
X14184111Y-12741484D01*
X14184111Y-12741484D02*
X14136492Y-12741484D01*
X14136492Y-12741484D02*
X14117444Y-12731960D01*
X14117444Y-12731960D02*
X14107920Y-12712912D01*
X14107920Y-12712912D02*
X14107920Y-12693865D01*
X14107920Y-12693865D02*
X14117444Y-12674817D01*
X14117444Y-12674817D02*
X14136492Y-12665293D01*
X14136492Y-12665293D02*
X14184111Y-12665293D01*
X14184111Y-12665293D02*
X14203158Y-12655769D01*
X14269825Y-12608150D02*
X14346015Y-12608150D01*
X14298396Y-12541484D02*
X14298396Y-12712912D01*
X14298396Y-12712912D02*
X14307920Y-12731960D01*
X14307920Y-12731960D02*
X14326968Y-12741484D01*
X14326968Y-12741484D02*
X14346015Y-12741484D01*
X14488873Y-12731960D02*
X14469825Y-12741484D01*
X14469825Y-12741484D02*
X14431730Y-12741484D01*
X14431730Y-12741484D02*
X14412682Y-12731960D01*
X14412682Y-12731960D02*
X14403158Y-12712912D01*
X14403158Y-12712912D02*
X14403158Y-12636722D01*
X14403158Y-12636722D02*
X14412682Y-12617674D01*
X14412682Y-12617674D02*
X14431730Y-12608150D01*
X14431730Y-12608150D02*
X14469825Y-12608150D01*
X14469825Y-12608150D02*
X14488873Y-12617674D01*
X14488873Y-12617674D02*
X14498396Y-12636722D01*
X14498396Y-12636722D02*
X14498396Y-12655769D01*
X14498396Y-12655769D02*
X14403158Y-12674817D01*
X14669825Y-12741484D02*
X14669825Y-12541484D01*
X14669825Y-12731960D02*
X14650777Y-12741484D01*
X14650777Y-12741484D02*
X14612682Y-12741484D01*
X14612682Y-12741484D02*
X14593634Y-12731960D01*
X14593634Y-12731960D02*
X14584111Y-12722436D01*
X14584111Y-12722436D02*
X14574587Y-12703388D01*
X14574587Y-12703388D02*
X14574587Y-12646246D01*
X14574587Y-12646246D02*
X14584111Y-12627198D01*
X14584111Y-12627198D02*
X14593634Y-12617674D01*
X14593634Y-12617674D02*
X14612682Y-12608150D01*
X14612682Y-12608150D02*
X14650777Y-12608150D01*
X14650777Y-12608150D02*
X14669825Y-12617674D01*
X14746015Y-12817674D02*
X14755539Y-12808150D01*
X14755539Y-12808150D02*
X14774587Y-12779579D01*
X14774587Y-12779579D02*
X14784111Y-12760531D01*
X14784111Y-12760531D02*
X14793634Y-12731960D01*
X14793634Y-12731960D02*
X14803158Y-12684341D01*
X14803158Y-12684341D02*
X14803158Y-12646246D01*
X14803158Y-12646246D02*
X14793634Y-12598627D01*
X14793634Y-12598627D02*
X14784111Y-12570055D01*
X14784111Y-12570055D02*
X14774587Y-12551008D01*
X14774587Y-12551008D02*
X14755539Y-12522436D01*
X14755539Y-12522436D02*
X14746015Y-12512912D01*
M02*
