%TF.GenerationSoftware,KiCad,Pcbnew,8.0.6*%
%TF.CreationDate,2025-02-12T14:20:06-05:00*%
%TF.ProjectId,module led hall,6d6f6475-6c65-4206-9c65-642068616c6c,rev?*%
%TF.SameCoordinates,Original*%
%TF.FileFunction,Copper,L2,Bot*%
%TF.FilePolarity,Positive*%
%FSLAX46Y46*%
G04 Gerber Fmt 4.6, Leading zero omitted, Abs format (unit mm)*
G04 Created by KiCad (PCBNEW 8.0.6) date 2025-02-12 14:20:06*
%MOMM*%
%LPD*%
G01*
G04 APERTURE LIST*
G04 Aperture macros list*
%AMRoundRect*
0 Rectangle with rounded corners*
0 $1 Rounding radius*
0 $2 $3 $4 $5 $6 $7 $8 $9 X,Y pos of 4 corners*
0 Add a 4 corners polygon primitive as box body*
4,1,4,$2,$3,$4,$5,$6,$7,$8,$9,$2,$3,0*
0 Add four circle primitives for the rounded corners*
1,1,$1+$1,$2,$3*
1,1,$1+$1,$4,$5*
1,1,$1+$1,$6,$7*
1,1,$1+$1,$8,$9*
0 Add four rect primitives between the rounded corners*
20,1,$1+$1,$2,$3,$4,$5,0*
20,1,$1+$1,$4,$5,$6,$7,0*
20,1,$1+$1,$6,$7,$8,$9,0*
20,1,$1+$1,$8,$9,$2,$3,0*%
G04 Aperture macros list end*
%TA.AperFunction,ComponentPad*%
%ADD10RoundRect,0.250000X-0.600000X-0.600000X0.600000X-0.600000X0.600000X0.600000X-0.600000X0.600000X0*%
%TD*%
%TA.AperFunction,ComponentPad*%
%ADD11C,1.700000*%
%TD*%
%TA.AperFunction,SMDPad,CuDef*%
%ADD12RoundRect,0.250000X0.312500X0.625000X-0.312500X0.625000X-0.312500X-0.625000X0.312500X-0.625000X0*%
%TD*%
%TA.AperFunction,SMDPad,CuDef*%
%ADD13RoundRect,0.250000X-0.650000X0.325000X-0.650000X-0.325000X0.650000X-0.325000X0.650000X0.325000X0*%
%TD*%
%TA.AperFunction,SMDPad,CuDef*%
%ADD14RoundRect,0.175000X0.325000X0.175000X-0.325000X0.175000X-0.325000X-0.175000X0.325000X-0.175000X0*%
%TD*%
%TA.AperFunction,ViaPad*%
%ADD15C,17.000000*%
%TD*%
%TA.AperFunction,ViaPad*%
%ADD16C,0.600000*%
%TD*%
%TA.AperFunction,Conductor*%
%ADD17C,0.400000*%
%TD*%
G04 APERTURE END LIST*
D10*
%TO.P,J1,1,Pin_1*%
%TO.N,VCC*%
X114500000Y-97000000D03*
D11*
%TO.P,J1,2,Pin_2*%
%TO.N,Red*%
X117040000Y-97000000D03*
%TO.P,J1,3,Pin_3*%
%TO.N,Green*%
X114500000Y-99540000D03*
%TO.P,J1,4,Pin_4*%
%TO.N,Blue*%
X117040000Y-99540000D03*
%TO.P,J1,5,Pin_5*%
%TO.N,Signal*%
X114500000Y-102080000D03*
%TO.P,J1,6,Pin_6*%
%TO.N,GND*%
X117040000Y-102080000D03*
%TD*%
D12*
%TO.P,R3,1*%
%TO.N,Green*%
X111532500Y-87110000D03*
%TO.P,R3,2*%
%TO.N,Net-(J2-Pin_4)*%
X108607500Y-87110000D03*
%TD*%
D13*
%TO.P,C1,1*%
%TO.N,Signal*%
X96660000Y-112850000D03*
%TO.P,C1,2*%
%TO.N,GND*%
X96660000Y-115800000D03*
%TD*%
D12*
%TO.P,R2,1*%
%TO.N,Red*%
X111572500Y-89630000D03*
%TO.P,R2,2*%
%TO.N,Net-(J2-Pin_1)*%
X108647500Y-89630000D03*
%TD*%
%TO.P,R4,1*%
%TO.N,Blue*%
X110342500Y-84790000D03*
%TO.P,R4,2*%
%TO.N,Net-(J2-Pin_3)*%
X107417500Y-84790000D03*
%TD*%
D14*
%TO.P,U2,1,VCC*%
%TO.N,VCC*%
X101090000Y-113502500D03*
%TO.P,U2,2,VOUT*%
%TO.N,Signal*%
X101090000Y-115402500D03*
%TO.P,U2,3,GND*%
%TO.N,GND*%
X98690000Y-114452500D03*
%TD*%
D13*
%TO.P,C2,1*%
%TO.N,VCC*%
X94200000Y-112850000D03*
%TO.P,C2,2*%
%TO.N,GND*%
X94200000Y-115800000D03*
%TD*%
D15*
%TO.N,*%
X100000000Y-100000000D03*
D16*
%TO.N,Net-(J2-Pin_1)*%
X103810000Y-87460000D03*
%TO.N,Net-(J2-Pin_4)*%
X98550000Y-85380000D03*
%TO.N,Net-(J2-Pin_3)*%
X99550000Y-85020000D03*
%TD*%
D17*
%TO.N,VCC*%
X114500000Y-97000000D02*
X112360000Y-99140000D01*
X94200000Y-112850000D02*
X94758834Y-112850000D01*
X112360000Y-101540000D02*
X101090000Y-112810000D01*
X99462500Y-111875000D02*
X101090000Y-113502500D01*
X101090000Y-112810000D02*
X101090000Y-113502500D01*
X95733834Y-111875000D02*
X99462500Y-111875000D01*
X94758834Y-112850000D02*
X95733834Y-111875000D01*
X112360000Y-99140000D02*
X112360000Y-101540000D01*
%TO.N,Green*%
X111532500Y-87110000D02*
X111532500Y-87806334D01*
X111532500Y-87806334D02*
X110610000Y-88728834D01*
X110610000Y-90983834D02*
X115750000Y-96123834D01*
X115750000Y-96123834D02*
X115750000Y-98290000D01*
X115750000Y-98290000D02*
X114500000Y-99540000D01*
X110610000Y-88728834D02*
X110610000Y-90983834D01*
%TO.N,Blue*%
X111076166Y-84790000D02*
X113030000Y-86743834D01*
X113030000Y-89470000D02*
X118290000Y-94730000D01*
X113030000Y-86743834D02*
X113030000Y-89470000D01*
X118290000Y-98290000D02*
X117040000Y-99540000D01*
X118290000Y-94730000D02*
X118290000Y-98290000D01*
X110342500Y-84790000D02*
X111076166Y-84790000D01*
%TO.N,Red*%
X111572500Y-89630000D02*
X117040000Y-95097500D01*
X117040000Y-95097500D02*
X117040000Y-97000000D01*
%TO.N,GND*%
X101658022Y-116152500D02*
X101990000Y-115820522D01*
X98690000Y-114452500D02*
X99993750Y-115756250D01*
X99993750Y-115756250D02*
X100390000Y-116152500D01*
X101990000Y-115810000D02*
X102730000Y-115070000D01*
X102730000Y-112940000D02*
X111850000Y-103820000D01*
X115300000Y-103820000D02*
X117040000Y-102080000D01*
X94200000Y-115800000D02*
X96660000Y-115800000D01*
X96660000Y-115800000D02*
X99950000Y-115800000D01*
X99950000Y-115800000D02*
X99993750Y-115756250D01*
X111850000Y-103820000D02*
X115300000Y-103820000D01*
X102730000Y-115070000D02*
X102730000Y-112940000D01*
X100390000Y-116152500D02*
X101658022Y-116152500D01*
X101990000Y-115820522D02*
X101990000Y-115810000D01*
%TO.N,Signal*%
X96660000Y-112850000D02*
X98537500Y-112850000D01*
X98537500Y-112850000D02*
X101090000Y-115402500D01*
X102130000Y-112670000D02*
X102130000Y-114362500D01*
X102130000Y-114362500D02*
X101090000Y-115402500D01*
X112720000Y-102080000D02*
X102130000Y-112670000D01*
X114500000Y-102080000D02*
X112720000Y-102080000D01*
%TO.N,Net-(J2-Pin_1)*%
X106477500Y-87460000D02*
X103810000Y-87460000D01*
X108647500Y-89630000D02*
X106477500Y-87460000D01*
%TO.N,Net-(J2-Pin_4)*%
X108607500Y-87110000D02*
X108045000Y-86547500D01*
X108045000Y-86547500D02*
X99717500Y-86547500D01*
X99717500Y-86547500D02*
X98550000Y-85380000D01*
%TO.N,Net-(J2-Pin_3)*%
X99780000Y-84790000D02*
X99550000Y-85020000D01*
X107417500Y-84790000D02*
X99780000Y-84790000D01*
%TD*%
M02*
