M48
;GenerationSoftware,Autodesk,EAGLE,9.6.0*%
;CreationDate,2020-05-08T12:17:55Z*%
FMAT,2
ICI,OFF
METRIC,TZ,000.000
T12C0.305
T11C0.350
T10C0.710
T9C0.813
T8C0.850
T7C0.950
T6C0.960
T5C1.100
T4C1.300
T3C1.500
T2C2.300
T1C3.200
%
G90
M71
T1
X3200Y3200
X3200Y37500
X68000Y3200
X68000Y37500
T2
X35890Y29845
X47930Y29845
X7962Y30261
X21102Y30261
T3
X16510Y22225
X11510Y22225
T4
X8276Y4420
X51414Y36220
X27305Y22225
X7305Y22225
X56494Y36220
X27284Y36220
X32364Y36220
X13356Y4420
T5
X27940Y5080
X27940Y2540
X25400Y5080
X25400Y2540
X22860Y5080
X22860Y2540
X20320Y5080
X20320Y2540
X17780Y5080
X17780Y2540
X17780Y8255
X25400Y8255
X35560Y2540
X43180Y5080
X58420Y2540
X55880Y5080
X55880Y2540
X53340Y5080
X50800Y5080
X53340Y2540
X50800Y2540
X43180Y2540
X48260Y2540
X45720Y5080
X45720Y2540
X40640Y5080
X40640Y2540
X38100Y5080
X58420Y5080
X38100Y2540
X35560Y5080
X33020Y5080
X33020Y2540
X30480Y5080
X30480Y2540
X48260Y5080
T6
X41910Y20320
X44450Y20320
X39370Y20320
X44450Y12065
X39370Y12065
X41910Y12065
T7
X18032Y27551
X40660Y25135
X43160Y25135
X43160Y27135
X40660Y27135
X13532Y27551
X15532Y27551
X11032Y27551
T8
X53975Y18415
X53975Y23495
X28575Y12065
X33655Y12065
T9
X50800Y8255
X50800Y12065
X55245Y11430
X59055Y11430
T10
X5170Y10200
X3900Y11470
X5170Y11470
X3900Y12740
X3900Y22900
X5170Y22900
X3900Y24170
X5170Y24170
X3900Y25440
X3900Y26710
X5170Y26710
X3900Y27980
X5170Y27980
X5170Y25440
X3900Y10200
X3900Y17820
X3900Y19090
X5170Y19090
X3900Y29250
X3900Y20360
X5170Y17820
X5170Y20360
X5170Y29250
X5170Y21630
X5170Y30520
X5170Y12740
X3900Y21630
X3900Y14010
X3900Y30520
X3900Y15280
X5170Y15280
X3900Y16550
X5170Y16550
X5170Y14010
T11
X29081Y3824
X45031Y25730
X47002Y6694
X38657Y8900
X21012Y8324
X62594Y37424
X63102Y3312
X19937Y36106
X14717Y36290
X10543Y36290
X6527Y36926
X10145Y30484
X19220Y17792
X13192Y17262
X15378Y19118
X22002Y21139
X18823Y11165
X16206Y12225
X12729Y24718
X7374Y15399
X15400Y4614
X14687Y7189
X11192Y12364
X8087Y16710
X55352Y13569
X52409Y16972
X50638Y10119
X41923Y8096
X45326Y8464
X46269Y17317
X45947Y13523
X49235Y14282
X35345Y8967
X32951Y8847
X27310Y8009
X50746Y13159
X52614Y7361
X11928Y32027
X13497Y31309
X15027Y30324
X16836Y29592
X18845Y31122
X19230Y33078
X31280Y33055
X35466Y33101
X44089Y33745
X47354Y37218
X19499Y23151
X1826Y21237
X10207Y6455
X11750Y4970
T12
X1606Y24466
X57474Y7077
X8890Y37783
X2857Y27940
X30797Y13335
X48577Y3810
X47954Y19546
X51435Y22860
X4128Y33973
X37783Y15240
X8573Y13970
X4128Y7620
X34608Y7620
X28892Y6667
X24130Y4763
X9843Y18098
X11747Y16192
X9208Y13652
X59690Y635
X55880Y7620
X17780Y32067
X1587Y15875
X9208Y15557
X48895Y11112
X50800Y16510
X47625Y24130
X6350Y30797
X31432Y11747
X48577Y6985
X48577Y9208
X48260Y13970
X45402Y16828
X42228Y13652
X27305Y23812
X21907Y23812
X49530Y3810
X48260Y6350
X13652Y13017
X49530Y7302
X60007Y22542
X11747Y35243
X9208Y27622
X8573Y26352
X29527Y11112
X7620Y19050
X40323Y3810
X7620Y8255
X33973Y8255
X22860Y9208
X18415Y13652
X14287Y13652
X10160Y13652
X11430Y19050
X8573Y19050
X24447Y9208
X20638Y13017
X47625Y7620
X48260Y10478
X50165Y17145
X43498Y28892
X50482Y31115
X57467Y3810
X32067Y11112
X1587Y25717
X49847Y6667
X56832Y7620
M30