%TF.GenerationSoftware,KiCad,Pcbnew,8.0.6*%
%TF.CreationDate,2025-02-12T15:18:34-05:00*%
%TF.ProjectId,HydroBall,48796472-6f42-4616-9c6c-2e6b69636164,rev?*%
%TF.SameCoordinates,Original*%
%TF.FileFunction,Copper,L4,Bot*%
%TF.FilePolarity,Positive*%
%FSLAX46Y46*%
G04 Gerber Fmt 4.6, Leading zero omitted, Abs format (unit mm)*
G04 Created by KiCad (PCBNEW 8.0.6) date 2025-02-12 15:18:34*
%MOMM*%
%LPD*%
G01*
G04 APERTURE LIST*
G04 Aperture macros list*
%AMRoundRect*
0 Rectangle with rounded corners*
0 $1 Rounding radius*
0 $2 $3 $4 $5 $6 $7 $8 $9 X,Y pos of 4 corners*
0 Add a 4 corners polygon primitive as box body*
4,1,4,$2,$3,$4,$5,$6,$7,$8,$9,$2,$3,0*
0 Add four circle primitives for the rounded corners*
1,1,$1+$1,$2,$3*
1,1,$1+$1,$4,$5*
1,1,$1+$1,$6,$7*
1,1,$1+$1,$8,$9*
0 Add four rect primitives between the rounded corners*
20,1,$1+$1,$2,$3,$4,$5,0*
20,1,$1+$1,$4,$5,$6,$7,0*
20,1,$1+$1,$6,$7,$8,$9,0*
20,1,$1+$1,$8,$9,$2,$3,0*%
%AMHorizOval*
0 Thick line with rounded ends*
0 $1 width*
0 $2 $3 position (X,Y) of the first rounded end (center of the circle)*
0 $4 $5 position (X,Y) of the second rounded end (center of the circle)*
0 Add line between two ends*
20,1,$1,$2,$3,$4,$5,0*
0 Add two circle primitives to create the rounded ends*
1,1,$1,$2,$3*
1,1,$1,$4,$5*%
G04 Aperture macros list end*
%TA.AperFunction,ComponentPad*%
%ADD10C,1.524000*%
%TD*%
%TA.AperFunction,ComponentPad*%
%ADD11C,4.500000*%
%TD*%
%TA.AperFunction,ComponentPad*%
%ADD12R,1.700000X1.700000*%
%TD*%
%TA.AperFunction,ComponentPad*%
%ADD13O,1.700000X1.700000*%
%TD*%
%TA.AperFunction,ComponentPad*%
%ADD14RoundRect,0.250000X-0.600000X-0.725000X0.600000X-0.725000X0.600000X0.725000X-0.600000X0.725000X0*%
%TD*%
%TA.AperFunction,ComponentPad*%
%ADD15O,1.700000X1.950000*%
%TD*%
%TA.AperFunction,ComponentPad*%
%ADD16RoundRect,0.249999X1.550001X-0.790001X1.550001X0.790001X-1.550001X0.790001X-1.550001X-0.790001X0*%
%TD*%
%TA.AperFunction,ComponentPad*%
%ADD17O,3.600000X2.080000*%
%TD*%
%TA.AperFunction,ComponentPad*%
%ADD18RoundRect,0.250000X0.725000X-0.600000X0.725000X0.600000X-0.725000X0.600000X-0.725000X-0.600000X0*%
%TD*%
%TA.AperFunction,ComponentPad*%
%ADD19O,1.950000X1.700000*%
%TD*%
%TA.AperFunction,ComponentPad*%
%ADD20RoundRect,0.250000X-0.600000X-0.750000X0.600000X-0.750000X0.600000X0.750000X-0.600000X0.750000X0*%
%TD*%
%TA.AperFunction,ComponentPad*%
%ADD21O,1.700000X2.000000*%
%TD*%
%TA.AperFunction,ComponentPad*%
%ADD22R,2.000000X2.000000*%
%TD*%
%TA.AperFunction,ComponentPad*%
%ADD23C,2.000000*%
%TD*%
%TA.AperFunction,ComponentPad*%
%ADD24R,2.250000X2.250000*%
%TD*%
%TA.AperFunction,ComponentPad*%
%ADD25C,2.250000*%
%TD*%
%TA.AperFunction,SMDPad,CuDef*%
%ADD26C,0.750000*%
%TD*%
%TA.AperFunction,ComponentPad*%
%ADD27HorizOval,1.700000X0.000000X0.000000X0.000000X0.000000X0*%
%TD*%
%TA.AperFunction,ViaPad*%
%ADD28C,0.800000*%
%TD*%
%TA.AperFunction,Conductor*%
%ADD29C,0.250000*%
%TD*%
%TA.AperFunction,Conductor*%
%ADD30C,2.540000*%
%TD*%
G04 APERTURE END LIST*
D10*
%TO.P,U1,1,Gnd*%
%TO.N,GND*%
X148355000Y-138245000D03*
%TO.P,U1,2,3.3v*%
%TO.N,+3.3V*%
X150895000Y-138245000D03*
%TO.P,U1,3*%
%TO.N,N/C*%
X153435000Y-138245000D03*
%TO.P,U1,4*%
X155975000Y-138245000D03*
%TO.P,U1,5*%
X158515000Y-138245000D03*
%TO.P,U1,6*%
X161055000Y-138245000D03*
%TO.P,U1,7,pps*%
%TO.N,PPS*%
X163595000Y-138245000D03*
%TO.P,U1,8,rst_*%
%TO.N,unconnected-(U1-rst_-Pad8)*%
X166135000Y-138245000D03*
%TO.P,U1,9*%
%TO.N,N/C*%
X168675000Y-138245000D03*
%TO.P,U1,10*%
X171215000Y-138245000D03*
%TO.P,U1,11,Gnd*%
%TO.N,GND*%
X148355000Y-97605000D03*
%TO.P,U1,12,5v*%
%TO.N,unconnected-(U1-5v-Pad12)*%
X150895000Y-97605000D03*
%TO.P,U1,13,3.3v*%
%TO.N,+3.3V*%
X153435000Y-97605000D03*
%TO.P,U1,14,tx2*%
%TO.N,Net-(JP3-A)*%
X155975000Y-97605000D03*
%TO.P,U1,15,rx2*%
%TO.N,Net-(JP1-A)*%
X158515000Y-97605000D03*
%TO.P,U1,16*%
%TO.N,N/C*%
X161055000Y-97605000D03*
%TO.P,U1,17,rx1*%
%TO.N,U1TX*%
X163595000Y-97605000D03*
%TO.P,U1,18,tx1*%
%TO.N,U1RX*%
X166135000Y-97605000D03*
%TO.P,U1,19*%
%TO.N,N/C*%
X168675000Y-97605000D03*
%TO.P,U1,20*%
X135655000Y-105225000D03*
%TO.P,U1,21*%
X135655000Y-107765000D03*
%TO.P,U1,22*%
X135655000Y-110305000D03*
%TO.P,U1,23,3.3v*%
%TO.N,+3.3V*%
X135655000Y-112845000D03*
%TO.P,U1,24*%
%TO.N,N/C*%
X135655000Y-115385000D03*
%TO.P,U1,25,Gnd*%
%TO.N,GND*%
X135655000Y-117925000D03*
%TD*%
D11*
%TO.P,H4,1*%
%TO.N,N/C*%
X116200000Y-143380000D03*
%TD*%
D12*
%TO.P,J14,1,Pin_1*%
%TO.N,+5P*%
X124000000Y-98100000D03*
D13*
%TO.P,J14,2,Pin_2*%
X124000000Y-100640000D03*
%TO.P,J14,3,Pin_3*%
X121460000Y-98100000D03*
%TO.P,J14,4,Pin_4*%
X121460000Y-100640000D03*
%TO.P,J14,5,Pin_5*%
%TO.N,GND*%
X118920000Y-98100000D03*
%TO.P,J14,6,Pin_6*%
X118920000Y-100640000D03*
%TO.P,J14,7,Pin_7*%
X116380000Y-98100000D03*
%TO.P,J14,8,Pin_8*%
X116380000Y-100640000D03*
%TD*%
D14*
%TO.P,J1,1,Pin_1*%
%TO.N,GND*%
X119750000Y-51705000D03*
D15*
%TO.P,J1,2,Pin_2*%
%TO.N,U1RX*%
X122250000Y-51705000D03*
%TO.P,J1,3,Pin_3*%
%TO.N,U1TX*%
X124750000Y-51705000D03*
%TO.P,J1,4,Pin_4*%
%TO.N,PPS*%
X127250000Y-51705000D03*
%TO.P,J1,5,Pin_5*%
%TO.N,+3.3V*%
X129750000Y-51705000D03*
%TO.P,J1,6,Pin_6*%
%TO.N,+5V*%
X132250000Y-51705000D03*
%TD*%
D12*
%TO.P,J11,1,Pin_1*%
%TO.N,+5V*%
X104050000Y-42975000D03*
D13*
%TO.P,J11,2,Pin_2*%
X106590000Y-42975000D03*
%TO.P,J11,3,Pin_3*%
X104050000Y-45515000D03*
%TO.P,J11,4,Pin_4*%
%TO.N,Signal*%
X106590000Y-45515000D03*
%TO.P,J11,5,Pin_5*%
%TO.N,Pwr_off*%
X104050000Y-48055000D03*
%TO.P,J11,6,Pin_6*%
%TO.N,Pwr_mon*%
X106590000Y-48055000D03*
%TO.P,J11,7,Pin_7*%
%TO.N,Red*%
X104050000Y-50595000D03*
%TO.P,J11,8,Pin_8*%
%TO.N,Green*%
X106590000Y-50595000D03*
%TO.P,J11,9,Pin_9*%
%TO.N,Pwr_Pulse*%
X104050000Y-53135000D03*
%TO.P,J11,10,Pin_10*%
%TO.N,GND*%
X106590000Y-53135000D03*
%TO.P,J11,11,Pin_11*%
X104050000Y-55675000D03*
%TO.P,J11,12,Pin_12*%
X106590000Y-55675000D03*
%TD*%
D16*
%TO.P,J9,1,Pin_1*%
%TO.N,GND*%
X107310000Y-122080000D03*
D17*
%TO.P,J9,2,Pin_2*%
X107310000Y-117000000D03*
%TO.P,J9,3,Pin_3*%
%TO.N,Net-(J9-Pin_3)*%
X107310000Y-111920000D03*
%TO.P,J9,4,Pin_4*%
X107310000Y-106840000D03*
%TD*%
D14*
%TO.P,J3,1,Pin_1*%
%TO.N,GND*%
X160650000Y-51555000D03*
D15*
%TO.P,J3,2,Pin_2*%
%TO.N,SCK4*%
X163150000Y-51555000D03*
%TO.P,J3,3,Pin_3*%
%TO.N,SDA4*%
X165650000Y-51555000D03*
%TO.P,J3,4,Pin_4*%
%TO.N,+3.3V*%
X168150000Y-51555000D03*
%TO.P,J3,5,Pin_5*%
%TO.N,+5V*%
X170650000Y-51555000D03*
%TD*%
D11*
%TO.P,H5,1*%
%TO.N,N/C*%
X116200000Y-92480000D03*
%TD*%
%TO.P,H3,1*%
%TO.N,N/C*%
X174200000Y-43480000D03*
%TD*%
D18*
%TO.P,J5,1,Pin_1*%
%TO.N,GND*%
X171600000Y-85980000D03*
D19*
%TO.P,J5,2,Pin_2*%
%TO.N,U5RX*%
X171600000Y-83480000D03*
%TO.P,J5,3,Pin_3*%
%TO.N,U5TX*%
X171600000Y-80980000D03*
%TO.P,J5,4,Pin_4*%
%TO.N,+3.3V*%
X171600000Y-78480000D03*
%TO.P,J5,5,Pin_5*%
%TO.N,+5V*%
X171600000Y-75980000D03*
%TD*%
D20*
%TO.P,J13,1,Pin_1*%
%TO.N,GND*%
X170790000Y-61530000D03*
D21*
%TO.P,J13,2,Pin_2*%
%TO.N,Net-(J13-Pin_2)*%
X173290000Y-61530000D03*
%TD*%
D14*
%TO.P,J6,1,Pin_1*%
%TO.N,GND*%
X119750000Y-61480000D03*
D15*
%TO.P,J6,2,Pin_2*%
%TO.N,SCK1*%
X122250000Y-61480000D03*
%TO.P,J6,3,Pin_3*%
%TO.N,SDA1*%
X124750000Y-61480000D03*
%TO.P,J6,4,Pin_4*%
%TO.N,+3.3V*%
X127250000Y-61480000D03*
%TO.P,J6,5,Pin_5*%
%TO.N,+5V*%
X129750000Y-61480000D03*
%TD*%
D11*
%TO.P,H2,1*%
%TO.N,N/C*%
X174200000Y-143380000D03*
%TD*%
D14*
%TO.P,J4,1,Pin_1*%
%TO.N,GND*%
X154425000Y-61505000D03*
D15*
%TO.P,J4,2,Pin_2*%
%TO.N,SCK4*%
X156925000Y-61505000D03*
%TO.P,J4,3,Pin_3*%
%TO.N,SDA4*%
X159425000Y-61505000D03*
%TO.P,J4,4,Pin_4*%
%TO.N,+3.3V*%
X161925000Y-61505000D03*
%TO.P,J4,5,Pin_5*%
%TO.N,+5V*%
X164425000Y-61505000D03*
%TD*%
D14*
%TO.P,J2,1,Pin_1*%
%TO.N,GND*%
X138875000Y-51680000D03*
D15*
%TO.P,J2,2,Pin_2*%
%TO.N,CE0*%
X141375000Y-51680000D03*
%TO.P,J2,3,Pin_3*%
%TO.N,SCLK*%
X143875000Y-51680000D03*
%TO.P,J2,4,Pin_4*%
%TO.N,MOSI*%
X146375000Y-51680000D03*
%TO.P,J2,5,Pin_5*%
%TO.N,MISO*%
X148875000Y-51680000D03*
%TO.P,J2,6,Pin_6*%
%TO.N,+3.3V*%
X151375000Y-51680000D03*
%TO.P,J2,7,Pin_7*%
%TO.N,+5V*%
X153875000Y-51680000D03*
%TD*%
D10*
%TO.P,U2,1,3.3v*%
%TO.N,+3.3V*%
X141220000Y-94010000D03*
%TO.P,U2,2*%
%TO.N,N/C*%
X143760000Y-94010000D03*
%TO.P,U2,3,gnd*%
%TO.N,GND*%
X146300000Y-94010000D03*
%TO.P,U2,4,sda*%
%TO.N,SDA1*%
X148840000Y-94010000D03*
%TO.P,U2,5,scl*%
%TO.N,SCK1*%
X151380000Y-94010000D03*
%TO.P,U2,6,rst*%
%TO.N,unconnected-(U2-rst-Pad6)*%
X153920000Y-94010000D03*
%TO.P,U2,7*%
%TO.N,N/C*%
X151380000Y-76230000D03*
%TO.P,U2,8*%
X148840000Y-76230000D03*
%TO.P,U2,9*%
X146300000Y-76230000D03*
%TO.P,U2,10*%
X143760000Y-76230000D03*
%TD*%
D11*
%TO.P,H6,1*%
%TO.N,N/C*%
X174200000Y-92480000D03*
%TD*%
D14*
%TO.P,J7,1,Pin_1*%
%TO.N,GND*%
X136850000Y-61430000D03*
D15*
%TO.P,J7,2,Pin_2*%
%TO.N,SCK1*%
X139350000Y-61430000D03*
%TO.P,J7,3,Pin_3*%
%TO.N,SDA1*%
X141850000Y-61430000D03*
%TO.P,J7,4,Pin_4*%
%TO.N,+3.3V*%
X144350000Y-61430000D03*
%TO.P,J7,5,Pin_5*%
%TO.N,+5V*%
X146850000Y-61430000D03*
%TD*%
D11*
%TO.P,H1,1*%
%TO.N,N/C*%
X116200000Y-43480000D03*
%TD*%
D22*
%TO.P,C5,1*%
%TO.N,SEN-*%
X127730000Y-110270000D03*
D23*
%TO.P,C5,2*%
%TO.N,GND*%
X127730000Y-105270000D03*
%TD*%
D24*
%TO.P,PS1,1,CTRL*%
%TO.N,unconnected-(PS1-CTRL-Pad1)*%
X112695000Y-136435000D03*
D25*
%TO.P,PS1,2,GND*%
%TO.N,GND*%
X112695000Y-128815000D03*
%TO.P,PS1,3,VIN*%
%TO.N,Net-(PS1-VIN)*%
X112695000Y-123735000D03*
%TO.P,PS1,4,+VO*%
%TO.N,+5P*%
X133015000Y-116115000D03*
%TO.P,PS1,5,TRIM*%
%TO.N,Net-(PS1-TRIM)*%
X133015000Y-126275000D03*
%TO.P,PS1,6,0V*%
%TO.N,GND*%
X133015000Y-136435000D03*
%TD*%
D26*
%TO.P,FID4,*%
%TO.N,*%
X170100000Y-92375000D03*
%TD*%
D12*
%TO.P,J8,1,3V3*%
%TO.N,+3.3V*%
X121200000Y-44750000D03*
D27*
%TO.P,J8,2,5V*%
%TO.N,+5V*%
X121200000Y-42210000D03*
D13*
%TO.P,J8,3,SDA/GPIO2*%
%TO.N,SDA1*%
X123740000Y-44750000D03*
D27*
%TO.P,J8,4,5V*%
%TO.N,+5V*%
X123740000Y-42210000D03*
D13*
%TO.P,J8,5,SCL/GPIO3*%
%TO.N,SCK1*%
X126280000Y-44750000D03*
%TO.P,J8,6,GND*%
%TO.N,GND*%
X126280000Y-42210000D03*
%TO.P,J8,7,GCLK0/GPIO4*%
%TO.N,PPS*%
X128820000Y-44750000D03*
%TO.P,J8,8,GPIO14/TXD*%
%TO.N,U1TX*%
X128820000Y-42210000D03*
D27*
%TO.P,J8,9,GND*%
%TO.N,GND*%
X131360000Y-44750000D03*
D13*
%TO.P,J8,10,GPIO15/RXD*%
%TO.N,U1RX*%
X131360000Y-42210000D03*
%TO.P,J8,11,GPIO17*%
%TO.N,unconnected-(J8-GPIO17-Pad11)*%
X133900000Y-44750000D03*
%TO.P,J8,12,GPIO18/PWM0*%
%TO.N,W_Intrusion*%
X133900000Y-42210000D03*
%TO.P,J8,13,GPIO27*%
%TO.N,Green-g*%
X136440000Y-44750000D03*
%TO.P,J8,14,GND*%
%TO.N,GND*%
X136440000Y-42210000D03*
%TO.P,J8,15,GPIO22*%
%TO.N,Pwr_off*%
X138980000Y-44750000D03*
%TO.P,J8,16,GPIO23*%
%TO.N,Pwr_Pulse*%
X138980000Y-42210000D03*
D27*
%TO.P,J8,17,3V3*%
%TO.N,+3.3V*%
X141520000Y-44750000D03*
D13*
%TO.P,J8,18,GPIO24*%
%TO.N,unconnected-(J8-GPIO24-Pad18)*%
X141520000Y-42210000D03*
%TO.P,J8,19,MOSI0/GPIO10*%
%TO.N,MOSI*%
X144060000Y-44750000D03*
%TO.P,J8,20,GND*%
%TO.N,GND*%
X144060000Y-42210000D03*
%TO.P,J8,21,MISO0/GPIO9*%
%TO.N,MISO*%
X146600000Y-44750000D03*
%TO.P,J8,22,GPIO25*%
%TO.N,unconnected-(J8-GPIO25-Pad22)*%
X146600000Y-42210000D03*
%TO.P,J8,23,SCLK0/GPIO11*%
%TO.N,SCLK*%
X149140000Y-44750000D03*
%TO.P,J8,24,~{CE0}/GPIO8*%
%TO.N,CE0*%
X149140000Y-42210000D03*
D27*
%TO.P,J8,25,GND*%
%TO.N,GND*%
X151680000Y-44750000D03*
D13*
%TO.P,J8,26,~{CE1}/GPIO7*%
%TO.N,SCK4*%
X151680000Y-42210000D03*
%TO.P,J8,27,ID_SD/GPIO0*%
%TO.N,U2TX*%
X154220000Y-44750000D03*
%TO.P,J8,28,ID_SC/GPIO1*%
%TO.N,U2RX*%
X154220000Y-42210000D03*
%TO.P,J8,29,GCLK1/GPIO5*%
%TO.N,unconnected-(J8-GCLK1{slash}GPIO5-Pad29)*%
X156760000Y-44750000D03*
%TO.P,J8,30,GND*%
%TO.N,GND*%
X156760000Y-42210000D03*
%TO.P,J8,31,GCLK2/GPIO6*%
%TO.N,SDA4*%
X159300000Y-44750000D03*
%TO.P,J8,32,PWM0/GPIO12*%
%TO.N,U5TX*%
X159300000Y-42210000D03*
%TO.P,J8,33,PWM1/GPIO13*%
%TO.N,U5RX*%
X161840000Y-44750000D03*
%TO.P,J8,34,GND*%
%TO.N,GND*%
X161840000Y-42210000D03*
%TO.P,J8,35,GPIO19/MISO1*%
%TO.N,unconnected-(J8-GPIO19{slash}MISO1-Pad35)*%
X164380000Y-44750000D03*
%TO.P,J8,36,GPIO16*%
%TO.N,Pwr_mon*%
X164380000Y-42210000D03*
%TO.P,J8,37,GPIO26*%
%TO.N,Red_g*%
X166920000Y-44750000D03*
%TO.P,J8,38,GPIO20/MOSI1*%
%TO.N,unconnected-(J8-GPIO20{slash}MOSI1-Pad38)*%
X166920000Y-42210000D03*
%TO.P,J8,39,GND*%
%TO.N,GND*%
X169460000Y-44750000D03*
%TO.P,J8,40,GPIO21/SCLK1*%
%TO.N,unconnected-(J8-GPIO21{slash}SCLK1-Pad40)*%
X169460000Y-42210000D03*
%TD*%
D22*
%TO.P,C9,1*%
%TO.N,Net-(PS1-VIN)*%
X116970000Y-110520000D03*
D23*
%TO.P,C9,2*%
%TO.N,GND*%
X116970000Y-105520000D03*
%TD*%
D26*
%TO.P,FID6,*%
%TO.N,*%
X108625000Y-140975000D03*
%TD*%
%TO.P,FID5,*%
%TO.N,*%
X103910000Y-60840000D03*
%TD*%
D28*
%TO.N,Red_g*%
X146750000Y-68150000D03*
%TO.N,SCK4*%
X116350000Y-50750000D03*
%TO.N,SDA4*%
X116350000Y-48900000D03*
%TO.N,Green-g*%
X140640000Y-66110571D03*
X140860000Y-71600000D03*
%TO.N,GND*%
X163130000Y-65040000D03*
X172780000Y-69360000D03*
X161000000Y-64920000D03*
X142930000Y-71740000D03*
X116680000Y-56690000D03*
%TO.N,+3.3V*%
X162120000Y-73780000D03*
X167260000Y-66810000D03*
X123300000Y-138100000D03*
X122200000Y-129925000D03*
X112300000Y-53050000D03*
%TO.N,U2RX*%
X145325000Y-144125000D03*
%TO.N,PPS*%
X133175000Y-63400000D03*
X133175000Y-65350000D03*
X142459437Y-96440563D03*
%TO.N,U2TX*%
X141525000Y-144150000D03*
%TO.N,Pwr_mon*%
X166850000Y-47625000D03*
X158050000Y-48050000D03*
%TO.N,Net-(PS1-VIN)*%
X125925000Y-122350000D03*
%TO.N,Red*%
X114465000Y-59000000D03*
%TO.N,Green*%
X114550000Y-61260000D03*
%TD*%
D29*
%TO.N,Red_g*%
X169325000Y-47155000D02*
X169325000Y-52166701D01*
X154566701Y-68150000D02*
X146750000Y-68150000D01*
X169325000Y-52166701D02*
X160600000Y-60891701D01*
X160600000Y-62116701D02*
X154566701Y-68150000D01*
X166920000Y-44750000D02*
X169325000Y-47155000D01*
X160600000Y-60891701D02*
X160600000Y-62116701D01*
%TO.N,SCK4*%
X156925000Y-57780000D02*
X163150000Y-51555000D01*
X161850000Y-50255000D02*
X163150000Y-51555000D01*
X156925000Y-61505000D02*
X156925000Y-57780000D01*
X116350000Y-50750000D02*
X116845000Y-50255000D01*
X116845000Y-50255000D02*
X161850000Y-50255000D01*
%TO.N,Pwr_Pulse*%
X106103299Y-44340000D02*
X105250000Y-45193299D01*
X125603299Y-43575000D02*
X124915000Y-44263299D01*
X103563299Y-46880000D02*
X102875000Y-47568299D01*
X102875000Y-47568299D02*
X102875000Y-51960000D01*
X107076701Y-44340000D02*
X106103299Y-44340000D01*
X105250000Y-45193299D02*
X105250000Y-45976701D01*
X124915000Y-45236701D02*
X123843350Y-46308351D01*
X104346701Y-46880000D02*
X103563299Y-46880000D01*
X124915000Y-44263299D02*
X124915000Y-45236701D01*
X102875000Y-51960000D02*
X104050000Y-53135000D01*
X123843350Y-46308351D02*
X109045052Y-46308351D01*
X138980000Y-42210000D02*
X137615000Y-43575000D01*
X109045052Y-46308351D02*
X107076701Y-44340000D01*
X105250000Y-45976701D02*
X104346701Y-46880000D01*
X137615000Y-43575000D02*
X125603299Y-43575000D01*
%TO.N,SDA4*%
X162995000Y-48900000D02*
X165650000Y-51555000D01*
X165650000Y-51100000D02*
X159300000Y-44750000D01*
X159425000Y-57780000D02*
X165650000Y-51555000D01*
X159425000Y-61505000D02*
X159425000Y-57780000D01*
X116350000Y-48900000D02*
X162995000Y-48900000D01*
%TO.N,Green-g*%
X140640000Y-71380000D02*
X140860000Y-71600000D01*
X140640000Y-66110571D02*
X140640000Y-71380000D01*
%TO.N,SDA1*%
X127675000Y-64405000D02*
X138875000Y-64405000D01*
X124750000Y-61480000D02*
X127675000Y-64405000D01*
X138875000Y-64405000D02*
X141850000Y-61430000D01*
%TO.N,PPS*%
X142095528Y-96440563D02*
X142459437Y-96440563D01*
X133175000Y-65350000D02*
X133175000Y-87332589D01*
X136419501Y-90764536D02*
X142095528Y-96440563D01*
X136419501Y-90577089D02*
X136419501Y-90764536D01*
X133175000Y-87332589D02*
X136419501Y-90577089D01*
%TO.N,Pwr_off*%
X105225000Y-46880000D02*
X136850000Y-46880000D01*
X136850000Y-46880000D02*
X138980000Y-44750000D01*
X104050000Y-48055000D02*
X105225000Y-46880000D01*
D30*
%TO.N,+5P*%
X121460000Y-98100000D02*
X121460000Y-100640000D01*
X124000000Y-98100000D02*
X124000000Y-100640000D01*
X128770000Y-100640000D02*
X133015000Y-104885000D01*
X121460000Y-98100000D02*
X124000000Y-98100000D01*
X133015000Y-104885000D02*
X133015000Y-116115000D01*
X121460000Y-100640000D02*
X124000000Y-100640000D01*
X124000000Y-100640000D02*
X128770000Y-100640000D01*
D29*
%TO.N,Pwr_mon*%
X106590000Y-48055000D02*
X157965000Y-48055000D01*
X165555000Y-43385000D02*
X165555000Y-46330000D01*
X164380000Y-42210000D02*
X165555000Y-43385000D01*
X165555000Y-46330000D02*
X166850000Y-47625000D01*
X158050000Y-48050000D02*
X157975000Y-48055000D01*
X157965000Y-48055000D02*
X158050000Y-48050000D01*
X157975000Y-48055000D02*
X157970000Y-48055000D01*
D30*
%TO.N,Net-(PS1-VIN)*%
X125925000Y-122350000D02*
X119820000Y-122350000D01*
X116950000Y-110530000D02*
X116950000Y-119480000D01*
X116950000Y-119480000D02*
X112695000Y-123735000D01*
X119820000Y-122350000D02*
X116950000Y-119480000D01*
D29*
%TO.N,Red*%
X114465000Y-59000000D02*
X114465000Y-58895000D01*
X105225000Y-51770000D02*
X104050000Y-50595000D01*
X107340000Y-51770000D02*
X105225000Y-51770000D01*
X114465000Y-58895000D02*
X107340000Y-51770000D01*
%TO.N,Green*%
X115190000Y-59640000D02*
X115190000Y-57992919D01*
X114270000Y-60560000D02*
X115190000Y-59640000D01*
X114270000Y-60980000D02*
X114270000Y-60560000D01*
X115190000Y-57992919D02*
X107792081Y-50595000D01*
X107792081Y-50595000D02*
X106590000Y-50595000D01*
X114550000Y-61260000D02*
X114270000Y-60980000D01*
%TD*%
%TA.AperFunction,Conductor*%
%TO.N,+5V*%
G36*
X172417614Y-41101305D02*
G01*
X172484546Y-41121347D01*
X172530018Y-41174395D01*
X172539592Y-41243606D01*
X172510227Y-41307006D01*
X172493424Y-41322913D01*
X172372745Y-41417459D01*
X172137460Y-41652744D01*
X171932251Y-41914673D01*
X171852884Y-42045963D01*
X171780814Y-42165182D01*
X171760101Y-42199445D01*
X171760100Y-42199447D01*
X171755350Y-42210001D01*
X171636084Y-42475000D01*
X171623536Y-42502880D01*
X171623530Y-42502895D01*
X171524546Y-42820550D01*
X171524544Y-42820556D01*
X171524544Y-42820559D01*
X171496906Y-42971373D01*
X171464563Y-43147863D01*
X171444473Y-43480000D01*
X171464563Y-43812136D01*
X171464563Y-43812141D01*
X171464564Y-43812142D01*
X171524544Y-44139441D01*
X171524545Y-44139445D01*
X171524546Y-44139449D01*
X171623530Y-44457104D01*
X171623534Y-44457116D01*
X171623537Y-44457123D01*
X171760102Y-44760557D01*
X171896026Y-44985403D01*
X171932251Y-45045326D01*
X172137460Y-45307255D01*
X172372744Y-45542539D01*
X172634673Y-45747748D01*
X172634678Y-45747751D01*
X172634682Y-45747754D01*
X172919443Y-45919898D01*
X173222877Y-46056463D01*
X173222890Y-46056467D01*
X173222895Y-46056469D01*
X173403840Y-46112853D01*
X173540559Y-46155456D01*
X173867858Y-46215436D01*
X174200000Y-46235527D01*
X174532142Y-46215436D01*
X174859441Y-46155456D01*
X175177123Y-46056463D01*
X175480557Y-45919898D01*
X175765318Y-45747754D01*
X175816011Y-45708039D01*
X175894518Y-45646532D01*
X176027252Y-45542542D01*
X176262542Y-45307252D01*
X176467754Y-45045318D01*
X176617218Y-44798074D01*
X176668743Y-44750890D01*
X176737602Y-44739051D01*
X176801931Y-44766320D01*
X176841305Y-44824038D01*
X176847332Y-44862315D01*
X176814377Y-91043347D01*
X176794645Y-91110373D01*
X176741808Y-91156090D01*
X176672642Y-91165984D01*
X176609107Y-91136914D01*
X176584265Y-91107415D01*
X176467754Y-90914682D01*
X176262542Y-90652748D01*
X176262539Y-90652744D01*
X176027255Y-90417460D01*
X175765326Y-90212251D01*
X175709250Y-90178352D01*
X175480557Y-90040102D01*
X175177123Y-89903537D01*
X175177116Y-89903534D01*
X175177104Y-89903530D01*
X174859449Y-89804546D01*
X174859445Y-89804545D01*
X174859441Y-89804544D01*
X174532142Y-89744564D01*
X174532141Y-89744563D01*
X174532136Y-89744563D01*
X174200000Y-89724473D01*
X173867863Y-89744563D01*
X173867858Y-89744564D01*
X173540559Y-89804544D01*
X173540556Y-89804544D01*
X173540550Y-89804546D01*
X173222895Y-89903530D01*
X173222879Y-89903536D01*
X173222877Y-89903537D01*
X173029656Y-89990498D01*
X172919447Y-90040100D01*
X172919445Y-90040101D01*
X172634673Y-90212251D01*
X172372744Y-90417460D01*
X172137460Y-90652744D01*
X171932251Y-90914673D01*
X171912717Y-90946987D01*
X171760102Y-91199443D01*
X171636991Y-91472985D01*
X171623536Y-91502880D01*
X171623530Y-91502895D01*
X171524546Y-91820550D01*
X171464563Y-92147863D01*
X171461531Y-92197993D01*
X171437834Y-92263722D01*
X171382364Y-92306205D01*
X171312731Y-92311954D01*
X171251044Y-92279145D01*
X171216888Y-92218193D01*
X171214286Y-92201947D01*
X171211076Y-92167308D01*
X171211076Y-92167304D01*
X171153994Y-91966681D01*
X171061019Y-91779962D01*
X170935318Y-91613507D01*
X170781171Y-91472984D01*
X170603828Y-91363177D01*
X170603827Y-91363176D01*
X170461609Y-91308081D01*
X170409327Y-91287827D01*
X170204293Y-91249500D01*
X169995707Y-91249500D01*
X169790673Y-91287827D01*
X169790670Y-91287827D01*
X169790670Y-91287828D01*
X169596172Y-91363176D01*
X169596171Y-91363177D01*
X169418827Y-91472985D01*
X169264683Y-91613505D01*
X169138981Y-91779961D01*
X169046007Y-91966677D01*
X169046006Y-91966681D01*
X168994456Y-92147863D01*
X168988923Y-92167308D01*
X168969678Y-92374999D01*
X168969678Y-92375000D01*
X168988923Y-92582691D01*
X168988923Y-92582693D01*
X168988924Y-92582696D01*
X169039920Y-92761929D01*
X169046007Y-92783322D01*
X169138981Y-92970038D01*
X169264683Y-93136494D01*
X169316064Y-93183334D01*
X169418829Y-93277016D01*
X169596172Y-93386823D01*
X169790673Y-93462173D01*
X169995707Y-93500500D01*
X169995710Y-93500500D01*
X170204290Y-93500500D01*
X170204293Y-93500500D01*
X170409327Y-93462173D01*
X170603828Y-93386823D01*
X170781171Y-93277016D01*
X170935318Y-93136493D01*
X171061019Y-92970038D01*
X171153994Y-92783319D01*
X171209566Y-92588000D01*
X171246843Y-92528911D01*
X171310153Y-92499353D01*
X171379392Y-92508715D01*
X171432579Y-92554024D01*
X171452605Y-92614451D01*
X171464563Y-92812136D01*
X171464563Y-92812141D01*
X171464564Y-92812142D01*
X171524544Y-93139441D01*
X171524545Y-93139445D01*
X171524546Y-93139449D01*
X171623530Y-93457104D01*
X171623534Y-93457116D01*
X171623537Y-93457123D01*
X171760102Y-93760557D01*
X171856625Y-93920225D01*
X171932251Y-94045326D01*
X172137460Y-94307255D01*
X172372744Y-94542539D01*
X172634673Y-94747748D01*
X172634678Y-94747751D01*
X172634682Y-94747754D01*
X172919443Y-94919898D01*
X173222877Y-95056463D01*
X173222890Y-95056467D01*
X173222895Y-95056469D01*
X173434665Y-95122458D01*
X173540559Y-95155456D01*
X173867858Y-95215436D01*
X174200000Y-95235527D01*
X174532142Y-95215436D01*
X174859441Y-95155456D01*
X175177123Y-95056463D01*
X175480557Y-94919898D01*
X175765318Y-94747754D01*
X176027252Y-94542542D01*
X176262542Y-94307252D01*
X176467754Y-94045318D01*
X176582210Y-93855983D01*
X176633735Y-93808800D01*
X176702594Y-93796961D01*
X176766923Y-93824230D01*
X176806297Y-93881948D01*
X176812324Y-93920225D01*
X176778097Y-141883332D01*
X176758365Y-141950358D01*
X176705528Y-141996075D01*
X176636362Y-142005969D01*
X176572827Y-141976899D01*
X176547984Y-141947399D01*
X176467754Y-141814682D01*
X176262542Y-141552748D01*
X176262539Y-141552744D01*
X176027255Y-141317460D01*
X175765326Y-141112251D01*
X175765318Y-141112246D01*
X175480557Y-140940102D01*
X175177123Y-140803537D01*
X175177116Y-140803534D01*
X175177104Y-140803530D01*
X174859449Y-140704546D01*
X174859445Y-140704545D01*
X174859441Y-140704544D01*
X174532142Y-140644564D01*
X174532141Y-140644563D01*
X174532136Y-140644563D01*
X174200000Y-140624473D01*
X173867863Y-140644563D01*
X173867858Y-140644564D01*
X173540559Y-140704544D01*
X173540556Y-140704544D01*
X173540550Y-140704546D01*
X173222895Y-140803530D01*
X173222879Y-140803536D01*
X173222877Y-140803537D01*
X173029656Y-140890498D01*
X172919447Y-140940100D01*
X172919445Y-140940101D01*
X172634673Y-141112251D01*
X172372744Y-141317460D01*
X172137460Y-141552744D01*
X171932251Y-141814673D01*
X171852019Y-141947394D01*
X171782633Y-142062173D01*
X171760101Y-142099445D01*
X171760100Y-142099447D01*
X171623536Y-142402880D01*
X171623530Y-142402895D01*
X171524546Y-142720550D01*
X171464563Y-143047863D01*
X171444473Y-143380000D01*
X171464563Y-143712136D01*
X171464563Y-143712141D01*
X171464564Y-143712142D01*
X171524544Y-144039441D01*
X171524545Y-144039445D01*
X171524546Y-144039449D01*
X171623530Y-144357104D01*
X171623534Y-144357116D01*
X171623537Y-144357123D01*
X171760102Y-144660557D01*
X171932246Y-144945318D01*
X171932251Y-144945326D01*
X172137460Y-145207255D01*
X172372744Y-145442539D01*
X172634673Y-145647748D01*
X172634678Y-145647751D01*
X172634682Y-145647754D01*
X172919443Y-145819898D01*
X173222877Y-145956463D01*
X173261142Y-145968386D01*
X173319289Y-146007124D01*
X173347263Y-146071149D01*
X173336182Y-146140134D01*
X173289563Y-146192178D01*
X173223754Y-146210771D01*
X117646642Y-145988090D01*
X117579682Y-145968137D01*
X117534139Y-145915150D01*
X117524473Y-145845952D01*
X117553752Y-145782513D01*
X117582981Y-145757980D01*
X117765318Y-145647754D01*
X118027252Y-145442542D01*
X118262542Y-145207252D01*
X118435769Y-144986144D01*
X118467748Y-144945326D01*
X118467748Y-144945324D01*
X118467754Y-144945318D01*
X118639898Y-144660557D01*
X118776463Y-144357123D01*
X118841005Y-144150000D01*
X140619540Y-144150000D01*
X140639326Y-144338256D01*
X140639327Y-144338259D01*
X140697818Y-144518277D01*
X140697821Y-144518284D01*
X140792467Y-144682216D01*
X140884462Y-144784386D01*
X140919129Y-144822888D01*
X141072265Y-144934148D01*
X141072270Y-144934151D01*
X141245192Y-145011142D01*
X141245197Y-145011144D01*
X141430354Y-145050500D01*
X141430355Y-145050500D01*
X141619644Y-145050500D01*
X141619646Y-145050500D01*
X141804803Y-145011144D01*
X141977730Y-144934151D01*
X142130871Y-144822888D01*
X142257533Y-144682216D01*
X142352179Y-144518284D01*
X142410674Y-144338256D01*
X142430460Y-144150000D01*
X142427832Y-144125000D01*
X144419540Y-144125000D01*
X144439326Y-144313256D01*
X144439327Y-144313259D01*
X144497818Y-144493277D01*
X144497821Y-144493284D01*
X144592467Y-144657216D01*
X144706972Y-144784386D01*
X144719129Y-144797888D01*
X144872265Y-144909148D01*
X144872270Y-144909151D01*
X145045192Y-144986142D01*
X145045197Y-144986144D01*
X145230354Y-145025500D01*
X145230355Y-145025500D01*
X145419644Y-145025500D01*
X145419646Y-145025500D01*
X145604803Y-144986144D01*
X145777730Y-144909151D01*
X145930871Y-144797888D01*
X146057533Y-144657216D01*
X146152179Y-144493284D01*
X146210674Y-144313256D01*
X146230460Y-144125000D01*
X146210674Y-143936744D01*
X146152179Y-143756716D01*
X146057533Y-143592784D01*
X145930871Y-143452112D01*
X145930870Y-143452111D01*
X145777734Y-143340851D01*
X145777729Y-143340848D01*
X145604807Y-143263857D01*
X145604802Y-143263855D01*
X145459001Y-143232865D01*
X145419646Y-143224500D01*
X145230354Y-143224500D01*
X145197897Y-143231398D01*
X145045197Y-143263855D01*
X145045192Y-143263857D01*
X144872270Y-143340848D01*
X144872265Y-143340851D01*
X144719129Y-143452111D01*
X144592466Y-143592785D01*
X144497821Y-143756715D01*
X144497818Y-143756722D01*
X144439327Y-143936740D01*
X144439326Y-143936744D01*
X144419540Y-144125000D01*
X142427832Y-144125000D01*
X142410674Y-143961744D01*
X142352179Y-143781716D01*
X142257533Y-143617784D01*
X142130871Y-143477112D01*
X142130870Y-143477111D01*
X141977734Y-143365851D01*
X141977729Y-143365848D01*
X141804807Y-143288857D01*
X141804802Y-143288855D01*
X141659001Y-143257865D01*
X141619646Y-143249500D01*
X141430354Y-143249500D01*
X141397897Y-143256398D01*
X141245197Y-143288855D01*
X141245192Y-143288857D01*
X141072270Y-143365848D01*
X141072265Y-143365851D01*
X140919129Y-143477111D01*
X140792466Y-143617785D01*
X140697821Y-143781715D01*
X140697818Y-143781722D01*
X140647450Y-143936740D01*
X140639326Y-143961744D01*
X140619540Y-144150000D01*
X118841005Y-144150000D01*
X118875456Y-144039441D01*
X118935436Y-143712142D01*
X118955527Y-143380000D01*
X118935436Y-143047858D01*
X118875456Y-142720559D01*
X118776463Y-142402877D01*
X118639898Y-142099443D01*
X118467754Y-141814682D01*
X118467751Y-141814678D01*
X118467748Y-141814673D01*
X118262539Y-141552744D01*
X118027255Y-141317460D01*
X117765326Y-141112251D01*
X117765318Y-141112246D01*
X117480557Y-140940102D01*
X117177123Y-140803537D01*
X117177116Y-140803534D01*
X117177104Y-140803530D01*
X116859449Y-140704546D01*
X116859445Y-140704545D01*
X116859441Y-140704544D01*
X116532142Y-140644564D01*
X116532141Y-140644563D01*
X116532136Y-140644563D01*
X116200000Y-140624473D01*
X115867863Y-140644563D01*
X115867858Y-140644564D01*
X115540559Y-140704544D01*
X115540556Y-140704544D01*
X115540550Y-140704546D01*
X115222895Y-140803530D01*
X115222879Y-140803536D01*
X115222877Y-140803537D01*
X115029656Y-140890498D01*
X114919447Y-140940100D01*
X114919445Y-140940101D01*
X114634673Y-141112251D01*
X114372744Y-141317460D01*
X114137460Y-141552744D01*
X113932251Y-141814673D01*
X113852019Y-141947394D01*
X113782633Y-142062173D01*
X113760101Y-142099445D01*
X113760100Y-142099447D01*
X113623536Y-142402880D01*
X113623530Y-142402895D01*
X113524546Y-142720550D01*
X113464563Y-143047863D01*
X113444473Y-143380000D01*
X113464563Y-143712136D01*
X113464563Y-143712141D01*
X113464564Y-143712142D01*
X113524544Y-144039441D01*
X113524545Y-144039445D01*
X113524546Y-144039449D01*
X113623530Y-144357104D01*
X113623534Y-144357116D01*
X113623537Y-144357123D01*
X113760102Y-144660557D01*
X113932246Y-144945318D01*
X113932251Y-144945326D01*
X114137460Y-145207255D01*
X114372744Y-145442539D01*
X114372748Y-145442542D01*
X114634682Y-145647754D01*
X114797701Y-145746302D01*
X114844886Y-145797828D01*
X114856725Y-145866687D01*
X114829456Y-145931016D01*
X114771738Y-145970390D01*
X114733052Y-145976416D01*
X102023649Y-145925495D01*
X101956689Y-145905542D01*
X101911146Y-145852555D01*
X101900146Y-145801353D01*
X101905881Y-140974999D01*
X107494678Y-140974999D01*
X107494678Y-140975000D01*
X107513923Y-141182691D01*
X107513923Y-141182693D01*
X107513924Y-141182696D01*
X107571006Y-141383319D01*
X107663981Y-141570038D01*
X107789682Y-141736493D01*
X107943829Y-141877016D01*
X108121172Y-141986823D01*
X108315673Y-142062173D01*
X108520707Y-142100500D01*
X108520710Y-142100500D01*
X108729290Y-142100500D01*
X108729293Y-142100500D01*
X108934327Y-142062173D01*
X109128828Y-141986823D01*
X109306171Y-141877016D01*
X109460318Y-141736493D01*
X109586019Y-141570038D01*
X109678994Y-141383319D01*
X109736076Y-141182696D01*
X109755322Y-140975000D01*
X109736076Y-140767304D01*
X109678994Y-140566681D01*
X109586019Y-140379962D01*
X109460318Y-140213507D01*
X109306171Y-140072984D01*
X109128828Y-139963177D01*
X109128827Y-139963176D01*
X108986609Y-139908081D01*
X108934327Y-139887827D01*
X108729293Y-139849500D01*
X108520707Y-139849500D01*
X108315673Y-139887827D01*
X108315670Y-139887827D01*
X108315670Y-139887828D01*
X108121172Y-139963176D01*
X108121171Y-139963177D01*
X107943827Y-140072985D01*
X107789683Y-140213505D01*
X107663981Y-140379961D01*
X107571007Y-140566677D01*
X107513923Y-140767308D01*
X107494678Y-140974999D01*
X101905881Y-140974999D01*
X101909297Y-138100000D01*
X122394540Y-138100000D01*
X122414326Y-138288256D01*
X122414327Y-138288259D01*
X122472818Y-138468277D01*
X122472821Y-138468284D01*
X122567467Y-138632216D01*
X122626133Y-138697371D01*
X122694129Y-138772888D01*
X122847265Y-138884148D01*
X122847270Y-138884151D01*
X123020192Y-138961142D01*
X123020197Y-138961144D01*
X123205354Y-139000500D01*
X123205355Y-139000500D01*
X123394644Y-139000500D01*
X123394646Y-139000500D01*
X123579803Y-138961144D01*
X123752730Y-138884151D01*
X123905871Y-138772888D01*
X124032533Y-138632216D01*
X124127179Y-138468284D01*
X124185674Y-138288256D01*
X124190221Y-138244997D01*
X147087677Y-138244997D01*
X147087677Y-138245002D01*
X147106929Y-138465062D01*
X147106930Y-138465070D01*
X147164104Y-138678445D01*
X147164105Y-138678447D01*
X147164106Y-138678450D01*
X147197382Y-138749811D01*
X147257466Y-138878662D01*
X147257468Y-138878666D01*
X147384170Y-139059615D01*
X147384175Y-139059621D01*
X147540378Y-139215824D01*
X147540384Y-139215829D01*
X147721333Y-139342531D01*
X147721335Y-139342532D01*
X147721338Y-139342534D01*
X147921550Y-139435894D01*
X148134932Y-139493070D01*
X148292123Y-139506822D01*
X148354998Y-139512323D01*
X148355000Y-139512323D01*
X148355002Y-139512323D01*
X148410017Y-139507509D01*
X148575068Y-139493070D01*
X148788450Y-139435894D01*
X148988662Y-139342534D01*
X149169620Y-139215826D01*
X149325826Y-139059620D01*
X149452534Y-138878662D01*
X149512618Y-138749811D01*
X149558790Y-138697371D01*
X149625983Y-138678219D01*
X149692865Y-138698435D01*
X149737382Y-138749811D01*
X149797464Y-138878658D01*
X149797468Y-138878666D01*
X149924170Y-139059615D01*
X149924175Y-139059621D01*
X150080378Y-139215824D01*
X150080384Y-139215829D01*
X150261333Y-139342531D01*
X150261335Y-139342532D01*
X150261338Y-139342534D01*
X150461550Y-139435894D01*
X150674932Y-139493070D01*
X150832123Y-139506822D01*
X150894998Y-139512323D01*
X150895000Y-139512323D01*
X150895002Y-139512323D01*
X150950017Y-139507509D01*
X151115068Y-139493070D01*
X151328450Y-139435894D01*
X151528662Y-139342534D01*
X151709620Y-139215826D01*
X151865826Y-139059620D01*
X151992534Y-138878662D01*
X152052618Y-138749811D01*
X152098790Y-138697371D01*
X152165983Y-138678219D01*
X152232865Y-138698435D01*
X152277382Y-138749811D01*
X152337464Y-138878658D01*
X152337468Y-138878666D01*
X152464170Y-139059615D01*
X152464175Y-139059621D01*
X152620378Y-139215824D01*
X152620384Y-139215829D01*
X152801333Y-139342531D01*
X152801335Y-139342532D01*
X152801338Y-139342534D01*
X153001550Y-139435894D01*
X153214932Y-139493070D01*
X153372123Y-139506822D01*
X153434998Y-139512323D01*
X153435000Y-139512323D01*
X153435002Y-139512323D01*
X153490017Y-139507509D01*
X153655068Y-139493070D01*
X153868450Y-139435894D01*
X154068662Y-139342534D01*
X154249620Y-139215826D01*
X154405826Y-139059620D01*
X154532534Y-138878662D01*
X154592618Y-138749811D01*
X154638790Y-138697371D01*
X154705983Y-138678219D01*
X154772865Y-138698435D01*
X154817382Y-138749811D01*
X154877464Y-138878658D01*
X154877468Y-138878666D01*
X155004170Y-139059615D01*
X155004175Y-139059621D01*
X155160378Y-139215824D01*
X155160384Y-139215829D01*
X155341333Y-139342531D01*
X155341335Y-139342532D01*
X155341338Y-139342534D01*
X155541550Y-139435894D01*
X155754932Y-139493070D01*
X155912123Y-139506822D01*
X155974998Y-139512323D01*
X155975000Y-139512323D01*
X155975002Y-139512323D01*
X156030017Y-139507509D01*
X156195068Y-139493070D01*
X156408450Y-139435894D01*
X156608662Y-139342534D01*
X156789620Y-139215826D01*
X156945826Y-139059620D01*
X157072534Y-138878662D01*
X157132618Y-138749811D01*
X157178790Y-138697371D01*
X157245983Y-138678219D01*
X157312865Y-138698435D01*
X157357382Y-138749811D01*
X157417464Y-138878658D01*
X157417468Y-138878666D01*
X157544170Y-139059615D01*
X157544175Y-139059621D01*
X157700378Y-139215824D01*
X157700384Y-139215829D01*
X157881333Y-139342531D01*
X157881335Y-139342532D01*
X157881338Y-139342534D01*
X158081550Y-139435894D01*
X158294932Y-139493070D01*
X158452123Y-139506822D01*
X158514998Y-139512323D01*
X158515000Y-139512323D01*
X158515002Y-139512323D01*
X158570017Y-139507509D01*
X158735068Y-139493070D01*
X158948450Y-139435894D01*
X159148662Y-139342534D01*
X159329620Y-139215826D01*
X159485826Y-139059620D01*
X159612534Y-138878662D01*
X159672618Y-138749811D01*
X159718790Y-138697371D01*
X159785983Y-138678219D01*
X159852865Y-138698435D01*
X159897382Y-138749811D01*
X159957464Y-138878658D01*
X159957468Y-138878666D01*
X160084170Y-139059615D01*
X160084175Y-139059621D01*
X160240378Y-139215824D01*
X160240384Y-139215829D01*
X160421333Y-139342531D01*
X160421335Y-139342532D01*
X160421338Y-139342534D01*
X160621550Y-139435894D01*
X160834932Y-139493070D01*
X160992123Y-139506822D01*
X161054998Y-139512323D01*
X161055000Y-139512323D01*
X161055002Y-139512323D01*
X161110017Y-139507509D01*
X161275068Y-139493070D01*
X161488450Y-139435894D01*
X161688662Y-139342534D01*
X161869620Y-139215826D01*
X162025826Y-139059620D01*
X162152534Y-138878662D01*
X162212618Y-138749811D01*
X162258790Y-138697371D01*
X162325983Y-138678219D01*
X162392865Y-138698435D01*
X162437382Y-138749811D01*
X162497464Y-138878658D01*
X162497468Y-138878666D01*
X162624170Y-139059615D01*
X162624175Y-139059621D01*
X162780378Y-139215824D01*
X162780384Y-139215829D01*
X162961333Y-139342531D01*
X162961335Y-139342532D01*
X162961338Y-139342534D01*
X163161550Y-139435894D01*
X163374932Y-139493070D01*
X163532123Y-139506822D01*
X163594998Y-139512323D01*
X163595000Y-139512323D01*
X163595002Y-139512323D01*
X163650017Y-139507509D01*
X163815068Y-139493070D01*
X164028450Y-139435894D01*
X164228662Y-139342534D01*
X164409620Y-139215826D01*
X164565826Y-139059620D01*
X164692534Y-138878662D01*
X164752618Y-138749811D01*
X164798790Y-138697371D01*
X164865983Y-138678219D01*
X164932865Y-138698435D01*
X164977382Y-138749811D01*
X165037464Y-138878658D01*
X165037468Y-138878666D01*
X165164170Y-139059615D01*
X165164175Y-139059621D01*
X165320378Y-139215824D01*
X165320384Y-139215829D01*
X165501333Y-139342531D01*
X165501335Y-139342532D01*
X165501338Y-139342534D01*
X165701550Y-139435894D01*
X165914932Y-139493070D01*
X166072123Y-139506822D01*
X166134998Y-139512323D01*
X166135000Y-139512323D01*
X166135002Y-139512323D01*
X166190017Y-139507509D01*
X166355068Y-139493070D01*
X166568450Y-139435894D01*
X166768662Y-139342534D01*
X166949620Y-139215826D01*
X167105826Y-139059620D01*
X167232534Y-138878662D01*
X167292618Y-138749811D01*
X167338790Y-138697371D01*
X167405983Y-138678219D01*
X167472865Y-138698435D01*
X167517382Y-138749811D01*
X167577464Y-138878658D01*
X167577468Y-138878666D01*
X167704170Y-139059615D01*
X167704175Y-139059621D01*
X167860378Y-139215824D01*
X167860384Y-139215829D01*
X168041333Y-139342531D01*
X168041335Y-139342532D01*
X168041338Y-139342534D01*
X168241550Y-139435894D01*
X168454932Y-139493070D01*
X168612123Y-139506822D01*
X168674998Y-139512323D01*
X168675000Y-139512323D01*
X168675002Y-139512323D01*
X168730017Y-139507509D01*
X168895068Y-139493070D01*
X169108450Y-139435894D01*
X169308662Y-139342534D01*
X169489620Y-139215826D01*
X169645826Y-139059620D01*
X169772534Y-138878662D01*
X169832618Y-138749811D01*
X169878790Y-138697371D01*
X169945983Y-138678219D01*
X170012865Y-138698435D01*
X170057382Y-138749811D01*
X170117464Y-138878658D01*
X170117468Y-138878666D01*
X170244170Y-139059615D01*
X170244175Y-139059621D01*
X170400378Y-139215824D01*
X170400384Y-139215829D01*
X170581333Y-139342531D01*
X170581335Y-139342532D01*
X170581338Y-139342534D01*
X170781550Y-139435894D01*
X170994932Y-139493070D01*
X171152123Y-139506822D01*
X171214998Y-139512323D01*
X171215000Y-139512323D01*
X171215002Y-139512323D01*
X171270017Y-139507509D01*
X171435068Y-139493070D01*
X171648450Y-139435894D01*
X171848662Y-139342534D01*
X172029620Y-139215826D01*
X172185826Y-139059620D01*
X172312534Y-138878662D01*
X172405894Y-138678450D01*
X172463070Y-138465068D01*
X172482323Y-138245000D01*
X172463070Y-138024932D01*
X172405894Y-137811550D01*
X172312534Y-137611339D01*
X172185826Y-137430380D01*
X172029620Y-137274174D01*
X172029616Y-137274171D01*
X172029615Y-137274170D01*
X171848666Y-137147468D01*
X171848662Y-137147466D01*
X171848660Y-137147465D01*
X171648450Y-137054106D01*
X171648447Y-137054105D01*
X171648445Y-137054104D01*
X171435070Y-136996930D01*
X171435062Y-136996929D01*
X171215002Y-136977677D01*
X171214998Y-136977677D01*
X170994937Y-136996929D01*
X170994929Y-136996930D01*
X170781554Y-137054104D01*
X170781548Y-137054107D01*
X170581340Y-137147465D01*
X170581338Y-137147466D01*
X170400377Y-137274175D01*
X170244175Y-137430377D01*
X170117466Y-137611338D01*
X170117465Y-137611340D01*
X170057382Y-137740189D01*
X170011209Y-137792628D01*
X169944016Y-137811780D01*
X169877135Y-137791564D01*
X169832618Y-137740189D01*
X169772534Y-137611340D01*
X169772533Y-137611338D01*
X169645827Y-137430381D01*
X169608842Y-137393396D01*
X169489620Y-137274174D01*
X169489616Y-137274171D01*
X169489615Y-137274170D01*
X169308666Y-137147468D01*
X169308662Y-137147466D01*
X169308660Y-137147465D01*
X169108450Y-137054106D01*
X169108447Y-137054105D01*
X169108445Y-137054104D01*
X168895070Y-136996930D01*
X168895062Y-136996929D01*
X168675002Y-136977677D01*
X168674998Y-136977677D01*
X168454937Y-136996929D01*
X168454929Y-136996930D01*
X168241554Y-137054104D01*
X168241548Y-137054107D01*
X168041340Y-137147465D01*
X168041338Y-137147466D01*
X167860377Y-137274175D01*
X167704175Y-137430377D01*
X167577466Y-137611338D01*
X167577465Y-137611340D01*
X167517382Y-137740189D01*
X167471209Y-137792628D01*
X167404016Y-137811780D01*
X167337135Y-137791564D01*
X167292618Y-137740189D01*
X167232534Y-137611340D01*
X167232533Y-137611338D01*
X167105827Y-137430381D01*
X167068842Y-137393396D01*
X166949620Y-137274174D01*
X166949616Y-137274171D01*
X166949615Y-137274170D01*
X166768666Y-137147468D01*
X166768662Y-137147466D01*
X166768660Y-137147465D01*
X166568450Y-137054106D01*
X166568447Y-137054105D01*
X166568445Y-137054104D01*
X166355070Y-136996930D01*
X166355062Y-136996929D01*
X166135002Y-136977677D01*
X166134998Y-136977677D01*
X165914937Y-136996929D01*
X165914929Y-136996930D01*
X165701554Y-137054104D01*
X165701548Y-137054107D01*
X165501340Y-137147465D01*
X165501338Y-137147466D01*
X165320377Y-137274175D01*
X165164175Y-137430377D01*
X165037466Y-137611338D01*
X165037465Y-137611340D01*
X164977382Y-137740189D01*
X164931209Y-137792628D01*
X164864016Y-137811780D01*
X164797135Y-137791564D01*
X164752618Y-137740189D01*
X164692534Y-137611340D01*
X164692533Y-137611338D01*
X164565827Y-137430381D01*
X164528842Y-137393396D01*
X164409620Y-137274174D01*
X164409616Y-137274171D01*
X164409615Y-137274170D01*
X164228666Y-137147468D01*
X164228662Y-137147466D01*
X164228660Y-137147465D01*
X164028450Y-137054106D01*
X164028447Y-137054105D01*
X164028445Y-137054104D01*
X163815070Y-136996930D01*
X163815062Y-136996929D01*
X163595002Y-136977677D01*
X163594998Y-136977677D01*
X163374937Y-136996929D01*
X163374929Y-136996930D01*
X163161554Y-137054104D01*
X163161548Y-137054107D01*
X162961340Y-137147465D01*
X162961338Y-137147466D01*
X162780377Y-137274175D01*
X162624175Y-137430377D01*
X162497466Y-137611338D01*
X162497465Y-137611340D01*
X162437382Y-137740189D01*
X162391209Y-137792628D01*
X162324016Y-137811780D01*
X162257135Y-137791564D01*
X162212618Y-137740189D01*
X162152534Y-137611340D01*
X162152533Y-137611338D01*
X162025827Y-137430381D01*
X161988842Y-137393396D01*
X161869620Y-137274174D01*
X161869616Y-137274171D01*
X161869615Y-137274170D01*
X161688666Y-137147468D01*
X161688662Y-137147466D01*
X161688660Y-137147465D01*
X161488450Y-137054106D01*
X161488447Y-137054105D01*
X161488445Y-137054104D01*
X161275070Y-136996930D01*
X161275062Y-136996929D01*
X161055002Y-136977677D01*
X161054998Y-136977677D01*
X160834937Y-136996929D01*
X160834929Y-136996930D01*
X160621554Y-137054104D01*
X160621548Y-137054107D01*
X160421340Y-137147465D01*
X160421338Y-137147466D01*
X160240377Y-137274175D01*
X160084175Y-137430377D01*
X159957466Y-137611338D01*
X159957465Y-137611340D01*
X159897382Y-137740189D01*
X159851209Y-137792628D01*
X159784016Y-137811780D01*
X159717135Y-137791564D01*
X159672618Y-137740189D01*
X159612534Y-137611340D01*
X159612533Y-137611338D01*
X159485827Y-137430381D01*
X159448842Y-137393396D01*
X159329620Y-137274174D01*
X159329616Y-137274171D01*
X159329615Y-137274170D01*
X159148666Y-137147468D01*
X159148662Y-137147466D01*
X159148660Y-137147465D01*
X158948450Y-137054106D01*
X158948447Y-137054105D01*
X158948445Y-137054104D01*
X158735070Y-136996930D01*
X158735062Y-136996929D01*
X158515002Y-136977677D01*
X158514998Y-136977677D01*
X158294937Y-136996929D01*
X158294929Y-136996930D01*
X158081554Y-137054104D01*
X158081548Y-137054107D01*
X157881340Y-137147465D01*
X157881338Y-137147466D01*
X157700377Y-137274175D01*
X157544175Y-137430377D01*
X157417466Y-137611338D01*
X157417465Y-137611340D01*
X157357382Y-137740189D01*
X157311209Y-137792628D01*
X157244016Y-137811780D01*
X157177135Y-137791564D01*
X157132618Y-137740189D01*
X157072534Y-137611340D01*
X157072533Y-137611338D01*
X156945827Y-137430381D01*
X156908842Y-137393396D01*
X156789620Y-137274174D01*
X156789616Y-137274171D01*
X156789615Y-137274170D01*
X156608666Y-137147468D01*
X156608662Y-137147466D01*
X156608660Y-137147465D01*
X156408450Y-137054106D01*
X156408447Y-137054105D01*
X156408445Y-137054104D01*
X156195070Y-136996930D01*
X156195062Y-136996929D01*
X155975002Y-136977677D01*
X155974998Y-136977677D01*
X155754937Y-136996929D01*
X155754929Y-136996930D01*
X155541554Y-137054104D01*
X155541548Y-137054107D01*
X155341340Y-137147465D01*
X155341338Y-137147466D01*
X155160377Y-137274175D01*
X155004175Y-137430377D01*
X154877466Y-137611338D01*
X154877465Y-137611340D01*
X154817382Y-137740189D01*
X154771209Y-137792628D01*
X154704016Y-137811780D01*
X154637135Y-137791564D01*
X154592618Y-137740189D01*
X154532534Y-137611340D01*
X154532533Y-137611338D01*
X154405827Y-137430381D01*
X154368842Y-137393396D01*
X154249620Y-137274174D01*
X154249616Y-137274171D01*
X154249615Y-137274170D01*
X154068666Y-137147468D01*
X154068662Y-137147466D01*
X154068660Y-137147465D01*
X153868450Y-137054106D01*
X153868447Y-137054105D01*
X153868445Y-137054104D01*
X153655070Y-136996930D01*
X153655062Y-136996929D01*
X153435002Y-136977677D01*
X153434998Y-136977677D01*
X153214937Y-136996929D01*
X153214929Y-136996930D01*
X153001554Y-137054104D01*
X153001548Y-137054107D01*
X152801340Y-137147465D01*
X152801338Y-137147466D01*
X152620377Y-137274175D01*
X152464175Y-137430377D01*
X152337466Y-137611338D01*
X152337465Y-137611340D01*
X152277382Y-137740189D01*
X152231209Y-137792628D01*
X152164016Y-137811780D01*
X152097135Y-137791564D01*
X152052618Y-137740189D01*
X151992534Y-137611340D01*
X151992533Y-137611338D01*
X151865827Y-137430381D01*
X151828842Y-137393396D01*
X151709620Y-137274174D01*
X151709616Y-137274171D01*
X151709615Y-137274170D01*
X151528666Y-137147468D01*
X151528662Y-137147466D01*
X151528660Y-137147465D01*
X151328450Y-137054106D01*
X151328447Y-137054105D01*
X151328445Y-137054104D01*
X151115070Y-136996930D01*
X151115062Y-136996929D01*
X150895002Y-136977677D01*
X150894998Y-136977677D01*
X150674937Y-136996929D01*
X150674929Y-136996930D01*
X150461554Y-137054104D01*
X150461548Y-137054107D01*
X150261340Y-137147465D01*
X150261338Y-137147466D01*
X150080377Y-137274175D01*
X149924175Y-137430377D01*
X149797466Y-137611338D01*
X149797465Y-137611340D01*
X149737382Y-137740189D01*
X149691209Y-137792628D01*
X149624016Y-137811780D01*
X149557135Y-137791564D01*
X149512618Y-137740189D01*
X149452534Y-137611340D01*
X149452533Y-137611338D01*
X149325827Y-137430381D01*
X149288842Y-137393396D01*
X149169620Y-137274174D01*
X149169616Y-137274171D01*
X149169615Y-137274170D01*
X148988666Y-137147468D01*
X148988662Y-137147466D01*
X148988660Y-137147465D01*
X148788450Y-137054106D01*
X148788447Y-137054105D01*
X148788445Y-137054104D01*
X148575070Y-136996930D01*
X148575062Y-136996929D01*
X148355002Y-136977677D01*
X148354998Y-136977677D01*
X148134937Y-136996929D01*
X148134929Y-136996930D01*
X147921554Y-137054104D01*
X147921548Y-137054107D01*
X147721340Y-137147465D01*
X147721338Y-137147466D01*
X147540377Y-137274175D01*
X147384175Y-137430377D01*
X147257466Y-137611338D01*
X147257465Y-137611340D01*
X147164107Y-137811548D01*
X147164104Y-137811554D01*
X147106930Y-138024929D01*
X147106929Y-138024937D01*
X147087677Y-138244997D01*
X124190221Y-138244997D01*
X124205460Y-138100000D01*
X124185674Y-137911744D01*
X124127179Y-137731716D01*
X124032533Y-137567784D01*
X123905871Y-137427112D01*
X123859465Y-137393396D01*
X123752734Y-137315851D01*
X123752729Y-137315848D01*
X123579807Y-137238857D01*
X123579802Y-137238855D01*
X123434001Y-137207865D01*
X123394646Y-137199500D01*
X123205354Y-137199500D01*
X123172897Y-137206398D01*
X123020197Y-137238855D01*
X123020192Y-137238857D01*
X122847270Y-137315848D01*
X122847265Y-137315851D01*
X122694129Y-137427111D01*
X122567466Y-137567785D01*
X122472821Y-137731715D01*
X122472818Y-137731722D01*
X122446806Y-137811780D01*
X122414326Y-137911744D01*
X122394540Y-138100000D01*
X101909297Y-138100000D01*
X101912669Y-135262135D01*
X111069500Y-135262135D01*
X111069500Y-137607870D01*
X111069501Y-137607876D01*
X111075908Y-137667483D01*
X111126202Y-137802328D01*
X111126206Y-137802335D01*
X111212452Y-137917544D01*
X111212455Y-137917547D01*
X111327664Y-138003793D01*
X111327671Y-138003797D01*
X111462517Y-138054091D01*
X111462516Y-138054091D01*
X111469444Y-138054835D01*
X111522127Y-138060500D01*
X113867872Y-138060499D01*
X113927483Y-138054091D01*
X114062331Y-138003796D01*
X114177546Y-137917546D01*
X114263796Y-137802331D01*
X114314091Y-137667483D01*
X114320500Y-137607873D01*
X114320499Y-136435000D01*
X131384474Y-136435000D01*
X131404547Y-136690064D01*
X131464279Y-136938864D01*
X131562188Y-137175239D01*
X131562190Y-137175242D01*
X131695875Y-137393396D01*
X131695878Y-137393401D01*
X131771200Y-137481591D01*
X131862044Y-137587956D01*
X131986579Y-137694319D01*
X132056598Y-137754121D01*
X132056600Y-137754122D01*
X132056601Y-137754123D01*
X132150320Y-137811554D01*
X132274757Y-137887809D01*
X132274760Y-137887811D01*
X132511135Y-137985720D01*
X132511140Y-137985722D01*
X132759930Y-138045452D01*
X133015000Y-138065526D01*
X133270070Y-138045452D01*
X133518860Y-137985722D01*
X133683449Y-137917547D01*
X133755239Y-137887811D01*
X133755240Y-137887810D01*
X133755243Y-137887809D01*
X133973399Y-137754123D01*
X134167956Y-137587956D01*
X134334123Y-137393399D01*
X134467809Y-137175243D01*
X134565722Y-136938860D01*
X134625452Y-136690070D01*
X134645526Y-136435000D01*
X134625452Y-136179930D01*
X134565722Y-135931140D01*
X134565720Y-135931135D01*
X134467811Y-135694760D01*
X134467809Y-135694757D01*
X134334124Y-135476603D01*
X134334121Y-135476598D01*
X134274319Y-135406579D01*
X134167956Y-135282044D01*
X134061591Y-135191200D01*
X133973401Y-135115878D01*
X133973396Y-135115875D01*
X133755242Y-134982190D01*
X133755239Y-134982188D01*
X133518864Y-134884279D01*
X133518860Y-134884278D01*
X133270070Y-134824548D01*
X133270067Y-134824547D01*
X133270064Y-134824547D01*
X133015000Y-134804474D01*
X132759935Y-134824547D01*
X132759931Y-134824547D01*
X132759930Y-134824548D01*
X132635535Y-134854413D01*
X132511135Y-134884279D01*
X132274760Y-134982188D01*
X132274757Y-134982190D01*
X132056603Y-135115875D01*
X132056598Y-135115878D01*
X131862044Y-135282044D01*
X131695878Y-135476598D01*
X131695875Y-135476603D01*
X131562190Y-135694757D01*
X131562188Y-135694760D01*
X131464279Y-135931135D01*
X131404547Y-136179935D01*
X131384474Y-136435000D01*
X114320499Y-136435000D01*
X114320499Y-135262128D01*
X114314091Y-135202517D01*
X114281776Y-135115877D01*
X114263797Y-135067671D01*
X114263793Y-135067664D01*
X114177547Y-134952455D01*
X114177544Y-134952452D01*
X114062335Y-134866206D01*
X114062328Y-134866202D01*
X113927482Y-134815908D01*
X113927483Y-134815908D01*
X113867883Y-134809501D01*
X113867881Y-134809500D01*
X113867873Y-134809500D01*
X113867864Y-134809500D01*
X111522129Y-134809500D01*
X111522123Y-134809501D01*
X111462516Y-134815908D01*
X111327671Y-134866202D01*
X111327664Y-134866206D01*
X111212455Y-134952452D01*
X111212452Y-134952455D01*
X111126206Y-135067664D01*
X111126202Y-135067671D01*
X111075908Y-135202517D01*
X111069501Y-135262116D01*
X111069501Y-135262123D01*
X111069500Y-135262135D01*
X101912669Y-135262135D01*
X101920330Y-128815000D01*
X111064474Y-128815000D01*
X111084547Y-129070064D01*
X111084547Y-129070067D01*
X111084548Y-129070070D01*
X111128253Y-129252111D01*
X111144279Y-129318864D01*
X111242188Y-129555239D01*
X111242190Y-129555242D01*
X111375875Y-129773396D01*
X111375878Y-129773401D01*
X111451200Y-129861591D01*
X111542044Y-129967956D01*
X111666579Y-130074319D01*
X111736598Y-130134121D01*
X111736603Y-130134124D01*
X111954757Y-130267809D01*
X111954760Y-130267811D01*
X112191135Y-130365720D01*
X112191140Y-130365722D01*
X112439930Y-130425452D01*
X112695000Y-130445526D01*
X112950070Y-130425452D01*
X113198860Y-130365722D01*
X113373758Y-130293277D01*
X113435239Y-130267811D01*
X113435240Y-130267810D01*
X113435243Y-130267809D01*
X113653399Y-130134123D01*
X113847956Y-129967956D01*
X113884644Y-129925000D01*
X121294540Y-129925000D01*
X121314326Y-130113256D01*
X121314327Y-130113259D01*
X121372818Y-130293277D01*
X121372821Y-130293284D01*
X121467467Y-130457216D01*
X121594129Y-130597888D01*
X121747265Y-130709148D01*
X121747270Y-130709151D01*
X121920192Y-130786142D01*
X121920197Y-130786144D01*
X122105354Y-130825500D01*
X122105355Y-130825500D01*
X122294644Y-130825500D01*
X122294646Y-130825500D01*
X122479803Y-130786144D01*
X122652730Y-130709151D01*
X122805871Y-130597888D01*
X122932533Y-130457216D01*
X123027179Y-130293284D01*
X123085674Y-130113256D01*
X123105460Y-129925000D01*
X123085674Y-129736744D01*
X123027179Y-129556716D01*
X122932533Y-129392784D01*
X122805871Y-129252112D01*
X122805870Y-129252111D01*
X122652734Y-129140851D01*
X122652729Y-129140848D01*
X122479807Y-129063857D01*
X122479802Y-129063855D01*
X122334001Y-129032865D01*
X122294646Y-129024500D01*
X122105354Y-129024500D01*
X122072897Y-129031398D01*
X121920197Y-129063855D01*
X121920192Y-129063857D01*
X121747270Y-129140848D01*
X121747265Y-129140851D01*
X121594129Y-129252111D01*
X121467466Y-129392785D01*
X121372821Y-129556715D01*
X121372818Y-129556722D01*
X121314327Y-129736740D01*
X121314326Y-129736744D01*
X121294540Y-129925000D01*
X113884644Y-129925000D01*
X114014123Y-129773399D01*
X114147809Y-129555243D01*
X114245722Y-129318860D01*
X114305452Y-129070070D01*
X114325526Y-128815000D01*
X114305452Y-128559930D01*
X114245722Y-128311140D01*
X114245720Y-128311135D01*
X114147811Y-128074760D01*
X114147809Y-128074757D01*
X114044104Y-127905526D01*
X114014123Y-127856601D01*
X114014122Y-127856600D01*
X114014121Y-127856598D01*
X113904124Y-127727809D01*
X113847956Y-127662044D01*
X113741591Y-127571200D01*
X113653401Y-127495878D01*
X113653396Y-127495875D01*
X113435242Y-127362190D01*
X113435239Y-127362188D01*
X113198864Y-127264279D01*
X113198860Y-127264278D01*
X112950070Y-127204548D01*
X112950067Y-127204547D01*
X112950064Y-127204547D01*
X112695000Y-127184474D01*
X112439935Y-127204547D01*
X112439931Y-127204547D01*
X112439930Y-127204548D01*
X112319771Y-127233396D01*
X112191135Y-127264279D01*
X111954760Y-127362188D01*
X111954757Y-127362190D01*
X111736603Y-127495875D01*
X111736598Y-127495878D01*
X111542044Y-127662044D01*
X111375878Y-127856598D01*
X111375875Y-127856603D01*
X111242190Y-128074757D01*
X111242188Y-128074760D01*
X111144279Y-128311135D01*
X111084547Y-128559935D01*
X111064474Y-128815000D01*
X101920330Y-128815000D01*
X101923348Y-126275000D01*
X131384474Y-126275000D01*
X131404547Y-126530064D01*
X131464279Y-126778864D01*
X131562188Y-127015239D01*
X131562190Y-127015242D01*
X131695875Y-127233396D01*
X131695878Y-127233401D01*
X131771200Y-127321591D01*
X131862044Y-127427956D01*
X131941571Y-127495878D01*
X132056598Y-127594121D01*
X132056603Y-127594124D01*
X132274757Y-127727809D01*
X132274760Y-127727811D01*
X132511135Y-127825720D01*
X132511140Y-127825722D01*
X132759930Y-127885452D01*
X133015000Y-127905526D01*
X133270070Y-127885452D01*
X133518860Y-127825722D01*
X133637051Y-127776765D01*
X133755239Y-127727811D01*
X133755240Y-127727810D01*
X133755243Y-127727809D01*
X133973399Y-127594123D01*
X134167956Y-127427956D01*
X134334123Y-127233399D01*
X134467809Y-127015243D01*
X134565722Y-126778860D01*
X134625452Y-126530070D01*
X134645526Y-126275000D01*
X134625452Y-126019930D01*
X134565722Y-125771140D01*
X134565720Y-125771135D01*
X134467811Y-125534760D01*
X134467809Y-125534757D01*
X134340079Y-125326320D01*
X134334123Y-125316601D01*
X134334122Y-125316600D01*
X134334121Y-125316598D01*
X134243313Y-125210276D01*
X134167956Y-125122044D01*
X134061591Y-125031200D01*
X133973401Y-124955878D01*
X133973396Y-124955875D01*
X133755242Y-124822190D01*
X133755239Y-124822188D01*
X133518864Y-124724279D01*
X133518860Y-124724278D01*
X133270070Y-124664548D01*
X133270067Y-124664547D01*
X133270064Y-124664547D01*
X133015000Y-124644474D01*
X132759935Y-124664547D01*
X132759931Y-124664547D01*
X132759930Y-124664548D01*
X132635535Y-124694413D01*
X132511135Y-124724279D01*
X132274760Y-124822188D01*
X132274757Y-124822190D01*
X132056603Y-124955875D01*
X132056598Y-124955878D01*
X131862044Y-125122044D01*
X131695878Y-125316598D01*
X131695875Y-125316603D01*
X131562190Y-125534757D01*
X131562188Y-125534760D01*
X131464279Y-125771135D01*
X131404547Y-126019935D01*
X131384474Y-126275000D01*
X101923348Y-126275000D01*
X101929331Y-121239982D01*
X105009500Y-121239982D01*
X105009500Y-122920017D01*
X105020000Y-123022796D01*
X105020001Y-123022798D01*
X105075186Y-123189335D01*
X105167288Y-123338656D01*
X105291344Y-123462712D01*
X105440665Y-123554814D01*
X105607202Y-123609999D01*
X105709990Y-123620500D01*
X105709995Y-123620500D01*
X108910005Y-123620500D01*
X108910010Y-123620500D01*
X108925211Y-123618947D01*
X110924499Y-123618947D01*
X110924499Y-123851045D01*
X110948076Y-124030135D01*
X110954793Y-124081149D01*
X111014863Y-124305330D01*
X111103677Y-124519745D01*
X111103681Y-124519755D01*
X111219723Y-124720746D01*
X111361009Y-124904874D01*
X111361015Y-124904881D01*
X111525118Y-125068984D01*
X111525125Y-125068990D01*
X111709253Y-125210276D01*
X111910244Y-125326318D01*
X111910245Y-125326318D01*
X111910248Y-125326320D01*
X112124670Y-125415137D01*
X112348851Y-125475207D01*
X112578955Y-125505501D01*
X112578962Y-125505501D01*
X112811038Y-125505501D01*
X112811045Y-125505501D01*
X113041149Y-125475207D01*
X113265330Y-125415137D01*
X113479752Y-125326320D01*
X113680747Y-125210276D01*
X113864876Y-125068989D01*
X116862319Y-122071546D01*
X116923642Y-122038061D01*
X116993334Y-122043045D01*
X117037681Y-122071546D01*
X118483566Y-123517431D01*
X118483603Y-123517470D01*
X118650117Y-123683984D01*
X118650124Y-123683990D01*
X118834250Y-123825275D01*
X118834252Y-123825276D01*
X118878886Y-123851045D01*
X119035248Y-123941321D01*
X119249670Y-124030137D01*
X119473851Y-124090207D01*
X119676620Y-124116902D01*
X119703939Y-124120499D01*
X119703955Y-124120501D01*
X119703962Y-124120501D01*
X119939885Y-124120501D01*
X119939917Y-124120500D01*
X126041038Y-124120500D01*
X126041045Y-124120500D01*
X126271149Y-124090206D01*
X126495330Y-124030137D01*
X126709752Y-123941320D01*
X126910748Y-123825276D01*
X127094877Y-123683989D01*
X127258989Y-123519877D01*
X127400276Y-123335748D01*
X127516320Y-123134752D01*
X127605137Y-122920330D01*
X127665206Y-122696149D01*
X127695500Y-122466045D01*
X127695500Y-122233955D01*
X127665206Y-122003851D01*
X127605137Y-121779670D01*
X127516320Y-121565248D01*
X127516314Y-121565237D01*
X127400279Y-121364256D01*
X127400278Y-121364254D01*
X127258990Y-121180124D01*
X127258984Y-121180117D01*
X127094882Y-121016015D01*
X127094875Y-121016009D01*
X126910745Y-120874721D01*
X126910743Y-120874720D01*
X126709762Y-120758685D01*
X126709754Y-120758681D01*
X126709752Y-120758680D01*
X126561542Y-120697289D01*
X126495328Y-120669862D01*
X126353203Y-120631780D01*
X126271149Y-120609794D01*
X126236148Y-120605186D01*
X126041052Y-120579500D01*
X126041045Y-120579500D01*
X120604727Y-120579500D01*
X120537688Y-120559815D01*
X120517046Y-120543181D01*
X118756819Y-118782954D01*
X118723334Y-118721631D01*
X118720500Y-118695273D01*
X118720500Y-110413961D01*
X118720499Y-110413947D01*
X118706156Y-110305002D01*
X118690206Y-110183851D01*
X118630137Y-109959670D01*
X118541320Y-109745248D01*
X118487111Y-109651355D01*
X118470499Y-109589356D01*
X118470499Y-109472129D01*
X118470498Y-109472123D01*
X118470497Y-109472116D01*
X118464091Y-109412517D01*
X118434869Y-109334170D01*
X118413797Y-109277671D01*
X118413793Y-109277664D01*
X118372224Y-109222135D01*
X126229500Y-109222135D01*
X126229500Y-111317870D01*
X126229501Y-111317876D01*
X126235908Y-111377483D01*
X126286202Y-111512328D01*
X126286206Y-111512335D01*
X126372452Y-111627544D01*
X126372455Y-111627547D01*
X126487664Y-111713793D01*
X126487671Y-111713797D01*
X126622517Y-111764091D01*
X126622516Y-111764091D01*
X126629444Y-111764835D01*
X126682127Y-111770500D01*
X128777872Y-111770499D01*
X128837483Y-111764091D01*
X128972331Y-111713796D01*
X129087546Y-111627546D01*
X129173796Y-111512331D01*
X129224091Y-111377483D01*
X129230500Y-111317873D01*
X129230499Y-109222128D01*
X129224091Y-109162517D01*
X129191898Y-109076204D01*
X129173797Y-109027671D01*
X129173793Y-109027664D01*
X129087547Y-108912455D01*
X129087544Y-108912452D01*
X128972335Y-108826206D01*
X128972328Y-108826202D01*
X128837482Y-108775908D01*
X128837483Y-108775908D01*
X128777883Y-108769501D01*
X128777881Y-108769500D01*
X128777873Y-108769500D01*
X128777864Y-108769500D01*
X126682129Y-108769500D01*
X126682123Y-108769501D01*
X126622516Y-108775908D01*
X126487671Y-108826202D01*
X126487664Y-108826206D01*
X126372455Y-108912452D01*
X126372452Y-108912455D01*
X126286206Y-109027664D01*
X126286202Y-109027671D01*
X126235908Y-109162517D01*
X126231076Y-109207466D01*
X126229501Y-109222123D01*
X126229500Y-109222135D01*
X118372224Y-109222135D01*
X118327547Y-109162455D01*
X118327544Y-109162452D01*
X118212335Y-109076206D01*
X118212328Y-109076202D01*
X118077482Y-109025908D01*
X118077483Y-109025908D01*
X118017883Y-109019501D01*
X118017881Y-109019500D01*
X118017873Y-109019500D01*
X118017865Y-109019500D01*
X117907962Y-109019500D01*
X117845962Y-109002887D01*
X117734754Y-108938681D01*
X117734745Y-108938677D01*
X117520328Y-108849862D01*
X117378203Y-108811780D01*
X117296149Y-108789794D01*
X117267386Y-108786007D01*
X117066052Y-108759500D01*
X117066045Y-108759500D01*
X116833955Y-108759500D01*
X116833947Y-108759500D01*
X116603851Y-108789794D01*
X116379671Y-108849862D01*
X116165254Y-108938677D01*
X116165242Y-108938683D01*
X116054032Y-109002888D01*
X115992036Y-109019500D01*
X115922130Y-109019500D01*
X115922123Y-109019501D01*
X115862516Y-109025908D01*
X115727671Y-109076202D01*
X115727664Y-109076206D01*
X115612455Y-109162452D01*
X115612452Y-109162455D01*
X115526206Y-109277664D01*
X115526202Y-109277671D01*
X115475908Y-109412517D01*
X115469501Y-109472116D01*
X115469501Y-109472123D01*
X115469500Y-109472135D01*
X115469500Y-109520075D01*
X115452887Y-109582075D01*
X115358681Y-109745244D01*
X115358677Y-109745254D01*
X115269862Y-109959671D01*
X115209794Y-110183851D01*
X115179500Y-110413947D01*
X115179500Y-118695272D01*
X115159815Y-118762311D01*
X115143181Y-118782953D01*
X111361015Y-122565118D01*
X111361009Y-122565125D01*
X111219723Y-122749253D01*
X111103681Y-122950244D01*
X111103677Y-122950254D01*
X111014863Y-123164669D01*
X110954792Y-123388854D01*
X110924499Y-123618947D01*
X108925211Y-123618947D01*
X109012798Y-123609999D01*
X109179335Y-123554814D01*
X109328656Y-123462712D01*
X109452712Y-123338656D01*
X109544814Y-123189335D01*
X109599999Y-123022798D01*
X109610500Y-122920010D01*
X109610500Y-121239990D01*
X109599999Y-121137202D01*
X109544814Y-120970665D01*
X109452712Y-120821344D01*
X109328656Y-120697288D01*
X109179335Y-120605186D01*
X109012798Y-120550001D01*
X109012796Y-120550000D01*
X108910017Y-120539500D01*
X108910010Y-120539500D01*
X105709990Y-120539500D01*
X105709982Y-120539500D01*
X105607203Y-120550000D01*
X105607202Y-120550001D01*
X105524669Y-120577349D01*
X105440667Y-120605185D01*
X105440662Y-120605187D01*
X105291342Y-120697289D01*
X105167289Y-120821342D01*
X105075187Y-120970662D01*
X105075186Y-120970665D01*
X105020001Y-121137202D01*
X105020001Y-121137203D01*
X105020000Y-121137203D01*
X105009500Y-121239982D01*
X101929331Y-121239982D01*
X101934513Y-116878754D01*
X105009500Y-116878754D01*
X105009500Y-117121245D01*
X105047432Y-117360736D01*
X105122360Y-117591344D01*
X105232448Y-117807401D01*
X105374966Y-118003562D01*
X105374970Y-118003567D01*
X105546432Y-118175029D01*
X105546437Y-118175033D01*
X105717539Y-118299345D01*
X105742602Y-118317554D01*
X105958653Y-118427638D01*
X105958655Y-118427639D01*
X106073959Y-118465103D01*
X106189265Y-118502568D01*
X106300186Y-118520136D01*
X106428755Y-118540500D01*
X106428760Y-118540500D01*
X108191245Y-118540500D01*
X108307347Y-118522110D01*
X108430735Y-118502568D01*
X108661347Y-118427638D01*
X108877398Y-118317554D01*
X109073569Y-118175028D01*
X109245028Y-118003569D01*
X109387554Y-117807398D01*
X109497638Y-117591347D01*
X109572568Y-117360735D01*
X109592110Y-117237347D01*
X109610500Y-117121245D01*
X109610500Y-116878754D01*
X109579864Y-116685330D01*
X109572568Y-116639265D01*
X109505758Y-116433643D01*
X109497639Y-116408655D01*
X109494815Y-116403113D01*
X109387554Y-116192602D01*
X109261180Y-116018662D01*
X109245033Y-115996437D01*
X109245029Y-115996432D01*
X109073567Y-115824970D01*
X109073562Y-115824966D01*
X108877401Y-115682448D01*
X108877400Y-115682447D01*
X108877398Y-115682446D01*
X108725524Y-115605062D01*
X108661344Y-115572360D01*
X108430736Y-115497432D01*
X108191245Y-115459500D01*
X108191240Y-115459500D01*
X106428760Y-115459500D01*
X106428755Y-115459500D01*
X106189263Y-115497432D01*
X105958655Y-115572360D01*
X105742598Y-115682448D01*
X105546437Y-115824966D01*
X105546432Y-115824970D01*
X105374970Y-115996432D01*
X105374966Y-115996437D01*
X105232448Y-116192598D01*
X105122360Y-116408655D01*
X105047432Y-116639263D01*
X105009500Y-116878754D01*
X101934513Y-116878754D01*
X101940549Y-111798754D01*
X105009500Y-111798754D01*
X105009500Y-112041245D01*
X105047432Y-112280736D01*
X105122360Y-112511344D01*
X105232448Y-112727401D01*
X105374966Y-112923562D01*
X105374970Y-112923567D01*
X105546432Y-113095029D01*
X105546437Y-113095033D01*
X105717539Y-113219345D01*
X105742602Y-113237554D01*
X105958653Y-113347638D01*
X105958655Y-113347639D01*
X106073959Y-113385103D01*
X106189265Y-113422568D01*
X106300186Y-113440136D01*
X106428755Y-113460500D01*
X106428760Y-113460500D01*
X108191245Y-113460500D01*
X108307347Y-113442110D01*
X108430735Y-113422568D01*
X108661347Y-113347638D01*
X108877398Y-113237554D01*
X109073569Y-113095028D01*
X109245028Y-112923569D01*
X109387554Y-112727398D01*
X109497638Y-112511347D01*
X109572568Y-112280735D01*
X109592110Y-112157347D01*
X109610500Y-112041245D01*
X109610500Y-111798754D01*
X109583383Y-111627547D01*
X109572568Y-111559265D01*
X109513504Y-111377483D01*
X109497639Y-111328655D01*
X109492141Y-111317864D01*
X109387554Y-111112602D01*
X109261180Y-110938662D01*
X109245033Y-110916437D01*
X109245029Y-110916432D01*
X109073567Y-110744970D01*
X109073562Y-110744966D01*
X108877401Y-110602448D01*
X108877400Y-110602447D01*
X108877398Y-110602446D01*
X108725524Y-110525062D01*
X108661344Y-110492360D01*
X108430736Y-110417432D01*
X108191245Y-110379500D01*
X108191240Y-110379500D01*
X106428760Y-110379500D01*
X106428755Y-110379500D01*
X106189263Y-110417432D01*
X105958655Y-110492360D01*
X105742598Y-110602448D01*
X105546437Y-110744966D01*
X105546432Y-110744970D01*
X105374970Y-110916432D01*
X105374966Y-110916437D01*
X105232448Y-111112598D01*
X105122360Y-111328655D01*
X105047432Y-111559263D01*
X105009500Y-111798754D01*
X101940549Y-111798754D01*
X101946585Y-106718754D01*
X105009500Y-106718754D01*
X105009500Y-106961245D01*
X105047432Y-107200736D01*
X105122360Y-107431344D01*
X105232448Y-107647401D01*
X105374966Y-107843562D01*
X105374970Y-107843567D01*
X105546432Y-108015029D01*
X105546437Y-108015033D01*
X105717539Y-108139345D01*
X105742602Y-108157554D01*
X105958653Y-108267638D01*
X105958655Y-108267639D01*
X106073959Y-108305103D01*
X106189265Y-108342568D01*
X106300186Y-108360136D01*
X106428755Y-108380500D01*
X106428760Y-108380500D01*
X108191245Y-108380500D01*
X108307347Y-108362110D01*
X108430735Y-108342568D01*
X108661347Y-108267638D01*
X108877398Y-108157554D01*
X109073569Y-108015028D01*
X109245028Y-107843569D01*
X109387554Y-107647398D01*
X109497638Y-107431347D01*
X109572568Y-107200735D01*
X109592110Y-107077347D01*
X109610500Y-106961245D01*
X109610500Y-106718754D01*
X109585547Y-106561210D01*
X109572568Y-106479265D01*
X109497638Y-106248653D01*
X109387554Y-106032602D01*
X109261180Y-105858662D01*
X109245033Y-105836437D01*
X109245029Y-105836432D01*
X109073567Y-105664970D01*
X109073562Y-105664966D01*
X108877401Y-105522448D01*
X108877400Y-105522447D01*
X108877398Y-105522446D01*
X108872586Y-105519994D01*
X115464357Y-105519994D01*
X115464357Y-105520005D01*
X115484890Y-105767812D01*
X115484892Y-105767824D01*
X115545936Y-106008881D01*
X115645826Y-106236606D01*
X115781833Y-106444782D01*
X115781836Y-106444785D01*
X115950256Y-106627738D01*
X116146491Y-106780474D01*
X116365190Y-106898828D01*
X116600386Y-106979571D01*
X116845665Y-107020500D01*
X117094335Y-107020500D01*
X117339614Y-106979571D01*
X117574810Y-106898828D01*
X117793509Y-106780474D01*
X117989744Y-106627738D01*
X118158164Y-106444785D01*
X118294173Y-106236607D01*
X118394063Y-106008881D01*
X118455108Y-105767821D01*
X118455849Y-105758881D01*
X118475643Y-105520005D01*
X118475643Y-105519994D01*
X118455109Y-105272187D01*
X118455107Y-105272175D01*
X118454555Y-105269994D01*
X126224357Y-105269994D01*
X126224357Y-105270005D01*
X126244890Y-105517812D01*
X126244892Y-105517824D01*
X126305936Y-105758881D01*
X126405826Y-105986606D01*
X126541833Y-106194782D01*
X126541836Y-106194785D01*
X126710256Y-106377738D01*
X126906491Y-106530474D01*
X126906493Y-106530475D01*
X127048604Y-106607382D01*
X127125190Y-106648828D01*
X127360386Y-106729571D01*
X127605665Y-106770500D01*
X127854335Y-106770500D01*
X128099614Y-106729571D01*
X128334810Y-106648828D01*
X128553509Y-106530474D01*
X128749744Y-106377738D01*
X128918164Y-106194785D01*
X129054173Y-105986607D01*
X129154063Y-105758881D01*
X129215108Y-105517821D01*
X129215109Y-105517812D01*
X129235643Y-105270005D01*
X129235643Y-105269994D01*
X129215109Y-105022187D01*
X129215107Y-105022175D01*
X129154063Y-104781118D01*
X129054173Y-104553393D01*
X128918166Y-104345217D01*
X128847525Y-104268481D01*
X128749744Y-104162262D01*
X128553509Y-104009526D01*
X128553507Y-104009525D01*
X128553506Y-104009524D01*
X128334811Y-103891172D01*
X128334802Y-103891169D01*
X128099616Y-103810429D01*
X127854335Y-103769500D01*
X127605665Y-103769500D01*
X127360383Y-103810429D01*
X127125197Y-103891169D01*
X127125188Y-103891172D01*
X126906493Y-104009524D01*
X126710257Y-104162261D01*
X126541833Y-104345217D01*
X126405826Y-104553393D01*
X126305936Y-104781118D01*
X126244892Y-105022175D01*
X126244890Y-105022187D01*
X126224357Y-105269994D01*
X118454555Y-105269994D01*
X118394063Y-105031118D01*
X118294173Y-104803393D01*
X118158166Y-104595217D01*
X118119664Y-104553393D01*
X117989744Y-104412262D01*
X117793509Y-104259526D01*
X117793507Y-104259525D01*
X117793506Y-104259524D01*
X117574811Y-104141172D01*
X117574802Y-104141169D01*
X117339616Y-104060429D01*
X117094335Y-104019500D01*
X116845665Y-104019500D01*
X116600383Y-104060429D01*
X116365197Y-104141169D01*
X116365188Y-104141172D01*
X116146493Y-104259524D01*
X115950257Y-104412261D01*
X115781833Y-104595217D01*
X115645826Y-104803393D01*
X115545936Y-105031118D01*
X115484892Y-105272175D01*
X115484890Y-105272187D01*
X115464357Y-105519994D01*
X108872586Y-105519994D01*
X108725524Y-105445062D01*
X108661344Y-105412360D01*
X108430736Y-105337432D01*
X108191245Y-105299500D01*
X108191240Y-105299500D01*
X106428760Y-105299500D01*
X106428755Y-105299500D01*
X106189263Y-105337432D01*
X105958655Y-105412360D01*
X105742598Y-105522448D01*
X105546437Y-105664966D01*
X105546432Y-105664970D01*
X105374970Y-105836432D01*
X105374966Y-105836437D01*
X105232448Y-106032598D01*
X105122360Y-106248655D01*
X105047432Y-106479263D01*
X105009500Y-106718754D01*
X101946585Y-106718754D01*
X101956826Y-98099999D01*
X115024341Y-98099999D01*
X115024341Y-98100000D01*
X115044936Y-98335403D01*
X115044938Y-98335413D01*
X115106094Y-98563655D01*
X115106096Y-98563659D01*
X115106097Y-98563663D01*
X115170854Y-98702534D01*
X115205965Y-98777830D01*
X115205967Y-98777834D01*
X115291364Y-98899792D01*
X115341501Y-98971396D01*
X115341506Y-98971402D01*
X115508597Y-99138493D01*
X115508603Y-99138498D01*
X115694158Y-99268425D01*
X115737783Y-99323002D01*
X115744977Y-99392500D01*
X115713454Y-99454855D01*
X115694158Y-99471575D01*
X115508597Y-99601505D01*
X115341505Y-99768597D01*
X115205965Y-99962169D01*
X115205964Y-99962171D01*
X115106098Y-100176335D01*
X115106094Y-100176344D01*
X115044938Y-100404586D01*
X115044936Y-100404596D01*
X115024341Y-100639999D01*
X115024341Y-100640000D01*
X115044936Y-100875403D01*
X115044938Y-100875413D01*
X115106094Y-101103655D01*
X115106096Y-101103659D01*
X115106097Y-101103663D01*
X115110000Y-101112032D01*
X115205965Y-101317830D01*
X115205967Y-101317834D01*
X115314281Y-101472521D01*
X115341505Y-101511401D01*
X115508599Y-101678495D01*
X115605384Y-101746265D01*
X115702165Y-101814032D01*
X115702167Y-101814033D01*
X115702170Y-101814035D01*
X115916337Y-101913903D01*
X116144592Y-101975063D01*
X116332918Y-101991539D01*
X116379999Y-101995659D01*
X116380000Y-101995659D01*
X116380001Y-101995659D01*
X116419234Y-101992226D01*
X116615408Y-101975063D01*
X116843663Y-101913903D01*
X117057830Y-101814035D01*
X117251401Y-101678495D01*
X117418495Y-101511401D01*
X117548425Y-101325842D01*
X117603002Y-101282217D01*
X117672500Y-101275023D01*
X117734855Y-101306546D01*
X117751575Y-101325842D01*
X117881500Y-101511395D01*
X117881505Y-101511401D01*
X118048599Y-101678495D01*
X118145384Y-101746265D01*
X118242165Y-101814032D01*
X118242167Y-101814033D01*
X118242170Y-101814035D01*
X118456337Y-101913903D01*
X118684592Y-101975063D01*
X118872918Y-101991539D01*
X118919999Y-101995659D01*
X118920000Y-101995659D01*
X118920001Y-101995659D01*
X118959234Y-101992226D01*
X119155408Y-101975063D01*
X119383663Y-101913903D01*
X119597830Y-101814035D01*
X119791401Y-101678495D01*
X119823708Y-101646187D01*
X119885029Y-101612702D01*
X119954721Y-101617686D01*
X120009765Y-101658382D01*
X120126009Y-101809875D01*
X120126015Y-101809882D01*
X120290117Y-101973984D01*
X120290124Y-101973990D01*
X120474254Y-102115278D01*
X120474256Y-102115279D01*
X120675237Y-102231314D01*
X120675240Y-102231315D01*
X120675248Y-102231320D01*
X120889670Y-102320137D01*
X121113851Y-102380206D01*
X121343955Y-102410500D01*
X123883955Y-102410500D01*
X127985273Y-102410500D01*
X128052312Y-102430185D01*
X128072954Y-102446819D01*
X131208181Y-105582046D01*
X131241666Y-105643369D01*
X131244500Y-105669727D01*
X131244500Y-116231052D01*
X131260928Y-116355826D01*
X131274794Y-116461149D01*
X131283410Y-116493303D01*
X131334862Y-116685328D01*
X131423677Y-116899745D01*
X131423685Y-116899762D01*
X131539720Y-117100743D01*
X131539721Y-117100745D01*
X131681009Y-117284875D01*
X131681015Y-117284882D01*
X131845117Y-117448984D01*
X131845124Y-117448990D01*
X132029254Y-117590278D01*
X132029256Y-117590279D01*
X132230237Y-117706314D01*
X132230240Y-117706315D01*
X132230248Y-117706320D01*
X132444670Y-117795137D01*
X132668851Y-117855206D01*
X132898955Y-117885500D01*
X132898962Y-117885500D01*
X133131038Y-117885500D01*
X133131045Y-117885500D01*
X133361149Y-117855206D01*
X133585330Y-117795137D01*
X133799752Y-117706320D01*
X134000748Y-117590276D01*
X134184877Y-117448989D01*
X134254658Y-117379207D01*
X134315979Y-117345724D01*
X134385671Y-117350708D01*
X134441605Y-117392579D01*
X134466022Y-117458043D01*
X134462113Y-117498983D01*
X134406931Y-117704926D01*
X134406929Y-117704937D01*
X134387677Y-117924997D01*
X134387677Y-117925002D01*
X134406929Y-118145062D01*
X134406930Y-118145070D01*
X134464104Y-118358445D01*
X134464105Y-118358447D01*
X134464106Y-118358450D01*
X134531309Y-118502567D01*
X134557466Y-118558662D01*
X134557468Y-118558666D01*
X134684170Y-118739615D01*
X134684175Y-118739621D01*
X134840378Y-118895824D01*
X134840384Y-118895829D01*
X135021333Y-119022531D01*
X135021335Y-119022532D01*
X135021338Y-119022534D01*
X135221550Y-119115894D01*
X135434932Y-119173070D01*
X135592123Y-119186822D01*
X135654998Y-119192323D01*
X135655000Y-119192323D01*
X135655002Y-119192323D01*
X135710017Y-119187509D01*
X135875068Y-119173070D01*
X136088450Y-119115894D01*
X136288662Y-119022534D01*
X136469620Y-118895826D01*
X136625826Y-118739620D01*
X136752534Y-118558662D01*
X136845894Y-118358450D01*
X136903070Y-118145068D01*
X136922323Y-117925000D01*
X136903070Y-117704932D01*
X136845894Y-117491550D01*
X136752534Y-117291339D01*
X136625826Y-117110380D01*
X136469620Y-116954174D01*
X136469616Y-116954171D01*
X136469615Y-116954170D01*
X136288666Y-116827468D01*
X136288658Y-116827464D01*
X136159811Y-116767382D01*
X136107371Y-116721210D01*
X136088219Y-116654017D01*
X136108435Y-116587135D01*
X136159811Y-116542618D01*
X136165802Y-116539824D01*
X136288662Y-116482534D01*
X136469620Y-116355826D01*
X136625826Y-116199620D01*
X136752534Y-116018662D01*
X136845894Y-115818450D01*
X136903070Y-115605068D01*
X136922323Y-115385000D01*
X136903070Y-115164932D01*
X136845894Y-114951550D01*
X136752534Y-114751339D01*
X136625826Y-114570380D01*
X136469620Y-114414174D01*
X136469616Y-114414171D01*
X136469615Y-114414170D01*
X136288666Y-114287468D01*
X136288658Y-114287464D01*
X136159811Y-114227382D01*
X136107371Y-114181210D01*
X136088219Y-114114017D01*
X136108435Y-114047135D01*
X136159811Y-114002618D01*
X136165802Y-113999824D01*
X136288662Y-113942534D01*
X136469620Y-113815826D01*
X136625826Y-113659620D01*
X136752534Y-113478662D01*
X136845894Y-113278450D01*
X136903070Y-113065068D01*
X136922323Y-112845000D01*
X136903070Y-112624932D01*
X136845894Y-112411550D01*
X136752534Y-112211339D01*
X136625826Y-112030380D01*
X136469620Y-111874174D01*
X136469616Y-111874171D01*
X136469615Y-111874170D01*
X136288666Y-111747468D01*
X136288658Y-111747464D01*
X136159811Y-111687382D01*
X136107371Y-111641210D01*
X136088219Y-111574017D01*
X136108435Y-111507135D01*
X136159811Y-111462618D01*
X136165802Y-111459824D01*
X136288662Y-111402534D01*
X136469620Y-111275826D01*
X136625826Y-111119620D01*
X136752534Y-110938662D01*
X136845894Y-110738450D01*
X136903070Y-110525068D01*
X136922323Y-110305000D01*
X136903070Y-110084932D01*
X136845894Y-109871550D01*
X136752534Y-109671339D01*
X136625826Y-109490380D01*
X136469620Y-109334174D01*
X136469616Y-109334171D01*
X136469615Y-109334170D01*
X136288666Y-109207468D01*
X136288658Y-109207464D01*
X136159811Y-109147382D01*
X136107371Y-109101210D01*
X136088219Y-109034017D01*
X136108435Y-108967135D01*
X136159811Y-108922618D01*
X136165802Y-108919824D01*
X136288662Y-108862534D01*
X136469620Y-108735826D01*
X136625826Y-108579620D01*
X136752534Y-108398662D01*
X136845894Y-108198450D01*
X136903070Y-107985068D01*
X136922323Y-107765000D01*
X136903070Y-107544932D01*
X136845894Y-107331550D01*
X136752534Y-107131339D01*
X136625826Y-106950380D01*
X136469620Y-106794174D01*
X136469616Y-106794171D01*
X136469615Y-106794170D01*
X136288666Y-106667468D01*
X136288658Y-106667464D01*
X136159811Y-106607382D01*
X136107371Y-106561210D01*
X136088219Y-106494017D01*
X136108435Y-106427135D01*
X136159811Y-106382618D01*
X136170276Y-106377738D01*
X136288662Y-106322534D01*
X136469620Y-106195826D01*
X136625826Y-106039620D01*
X136752534Y-105858662D01*
X136845894Y-105658450D01*
X136903070Y-105445068D01*
X136922323Y-105225000D01*
X136903070Y-105004932D01*
X136845894Y-104791550D01*
X136752534Y-104591339D01*
X136625826Y-104410380D01*
X136469620Y-104254174D01*
X136469616Y-104254171D01*
X136469615Y-104254170D01*
X136288666Y-104127468D01*
X136288662Y-104127466D01*
X136288660Y-104127465D01*
X136088450Y-104034106D01*
X136088447Y-104034105D01*
X136088445Y-104034104D01*
X135875070Y-103976930D01*
X135875062Y-103976929D01*
X135655002Y-103957677D01*
X135654998Y-103957677D01*
X135434937Y-103976929D01*
X135434929Y-103976930D01*
X135221554Y-104034104D01*
X135221548Y-104034107D01*
X135021340Y-104127465D01*
X135021338Y-104127466D01*
X134835945Y-104257279D01*
X134834639Y-104255414D01*
X134779535Y-104279526D01*
X134710544Y-104268481D01*
X134658476Y-104221890D01*
X134649286Y-104203974D01*
X134606325Y-104100256D01*
X134606320Y-104100247D01*
X134568134Y-104034107D01*
X134524007Y-103957677D01*
X134490276Y-103899252D01*
X134348989Y-103715123D01*
X134348984Y-103715117D01*
X134182470Y-103548603D01*
X134182431Y-103548566D01*
X130107114Y-99473249D01*
X130107086Y-99473219D01*
X129939882Y-99306015D01*
X129939875Y-99306009D01*
X129755745Y-99164721D01*
X129755743Y-99164720D01*
X129554762Y-99048685D01*
X129554754Y-99048681D01*
X129554752Y-99048680D01*
X129340330Y-98959863D01*
X129116149Y-98899793D01*
X129116148Y-98899792D01*
X129116145Y-98899792D01*
X128886052Y-98869499D01*
X128886045Y-98869499D01*
X128653955Y-98869499D01*
X128650115Y-98869499D01*
X128650083Y-98869500D01*
X125894500Y-98869500D01*
X125827461Y-98849815D01*
X125781706Y-98797011D01*
X125770500Y-98745500D01*
X125770500Y-97983961D01*
X125770499Y-97983947D01*
X125768968Y-97972318D01*
X125740206Y-97753851D01*
X125700321Y-97604997D01*
X147087677Y-97604997D01*
X147087677Y-97605002D01*
X147106929Y-97825062D01*
X147106930Y-97825070D01*
X147164104Y-98038445D01*
X147164105Y-98038447D01*
X147164106Y-98038450D01*
X147192807Y-98099999D01*
X147257466Y-98238662D01*
X147257468Y-98238666D01*
X147384170Y-98419615D01*
X147384175Y-98419621D01*
X147540378Y-98575824D01*
X147540384Y-98575829D01*
X147721333Y-98702531D01*
X147721335Y-98702532D01*
X147721338Y-98702534D01*
X147921550Y-98795894D01*
X148134932Y-98853070D01*
X148292123Y-98866822D01*
X148354998Y-98872323D01*
X148355000Y-98872323D01*
X148355002Y-98872323D01*
X148410017Y-98867509D01*
X148575068Y-98853070D01*
X148788450Y-98795894D01*
X148988662Y-98702534D01*
X149169620Y-98575826D01*
X149325826Y-98419620D01*
X149452534Y-98238662D01*
X149512618Y-98109811D01*
X149558790Y-98057371D01*
X149625983Y-98038219D01*
X149692865Y-98058435D01*
X149737382Y-98109811D01*
X149797464Y-98238658D01*
X149797468Y-98238666D01*
X149924170Y-98419615D01*
X149924175Y-98419621D01*
X150080378Y-98575824D01*
X150080384Y-98575829D01*
X150261333Y-98702531D01*
X150261335Y-98702532D01*
X150261338Y-98702534D01*
X150461550Y-98795894D01*
X150674932Y-98853070D01*
X150832123Y-98866822D01*
X150894998Y-98872323D01*
X150895000Y-98872323D01*
X150895002Y-98872323D01*
X150950017Y-98867509D01*
X151115068Y-98853070D01*
X151328450Y-98795894D01*
X151528662Y-98702534D01*
X151709620Y-98575826D01*
X151865826Y-98419620D01*
X151992534Y-98238662D01*
X152052618Y-98109811D01*
X152098790Y-98057371D01*
X152165983Y-98038219D01*
X152232865Y-98058435D01*
X152277382Y-98109811D01*
X152337464Y-98238658D01*
X152337468Y-98238666D01*
X152464170Y-98419615D01*
X152464175Y-98419621D01*
X152620378Y-98575824D01*
X152620384Y-98575829D01*
X152801333Y-98702531D01*
X152801335Y-98702532D01*
X152801338Y-98702534D01*
X153001550Y-98795894D01*
X153214932Y-98853070D01*
X153372123Y-98866822D01*
X153434998Y-98872323D01*
X153435000Y-98872323D01*
X153435002Y-98872323D01*
X153490017Y-98867509D01*
X153655068Y-98853070D01*
X153868450Y-98795894D01*
X154068662Y-98702534D01*
X154249620Y-98575826D01*
X154405826Y-98419620D01*
X154532534Y-98238662D01*
X154592618Y-98109811D01*
X154638790Y-98057371D01*
X154705983Y-98038219D01*
X154772865Y-98058435D01*
X154817382Y-98109811D01*
X154877464Y-98238658D01*
X154877468Y-98238666D01*
X155004170Y-98419615D01*
X155004175Y-98419621D01*
X155160378Y-98575824D01*
X155160384Y-98575829D01*
X155341333Y-98702531D01*
X155341335Y-98702532D01*
X155341338Y-98702534D01*
X155541550Y-98795894D01*
X155754932Y-98853070D01*
X155912123Y-98866822D01*
X155974998Y-98872323D01*
X155975000Y-98872323D01*
X155975002Y-98872323D01*
X156030017Y-98867509D01*
X156195068Y-98853070D01*
X156408450Y-98795894D01*
X156608662Y-98702534D01*
X156789620Y-98575826D01*
X156945826Y-98419620D01*
X157072534Y-98238662D01*
X157132618Y-98109811D01*
X157178790Y-98057371D01*
X157245983Y-98038219D01*
X157312865Y-98058435D01*
X157357382Y-98109811D01*
X157417464Y-98238658D01*
X157417468Y-98238666D01*
X157544170Y-98419615D01*
X157544175Y-98419621D01*
X157700378Y-98575824D01*
X157700384Y-98575829D01*
X157881333Y-98702531D01*
X157881335Y-98702532D01*
X157881338Y-98702534D01*
X158081550Y-98795894D01*
X158294932Y-98853070D01*
X158452123Y-98866822D01*
X158514998Y-98872323D01*
X158515000Y-98872323D01*
X158515002Y-98872323D01*
X158570017Y-98867509D01*
X158735068Y-98853070D01*
X158948450Y-98795894D01*
X159148662Y-98702534D01*
X159329620Y-98575826D01*
X159485826Y-98419620D01*
X159612534Y-98238662D01*
X159672618Y-98109811D01*
X159718790Y-98057371D01*
X159785983Y-98038219D01*
X159852865Y-98058435D01*
X159897382Y-98109811D01*
X159957464Y-98238658D01*
X159957468Y-98238666D01*
X160084170Y-98419615D01*
X160084175Y-98419621D01*
X160240378Y-98575824D01*
X160240384Y-98575829D01*
X160421333Y-98702531D01*
X160421335Y-98702532D01*
X160421338Y-98702534D01*
X160621550Y-98795894D01*
X160834932Y-98853070D01*
X160992123Y-98866822D01*
X161054998Y-98872323D01*
X161055000Y-98872323D01*
X161055002Y-98872323D01*
X161110017Y-98867509D01*
X161275068Y-98853070D01*
X161488450Y-98795894D01*
X161688662Y-98702534D01*
X161869620Y-98575826D01*
X162025826Y-98419620D01*
X162152534Y-98238662D01*
X162212618Y-98109811D01*
X162258790Y-98057371D01*
X162325983Y-98038219D01*
X162392865Y-98058435D01*
X162437382Y-98109811D01*
X162497464Y-98238658D01*
X162497468Y-98238666D01*
X162624170Y-98419615D01*
X162624175Y-98419621D01*
X162780378Y-98575824D01*
X162780384Y-98575829D01*
X162961333Y-98702531D01*
X162961335Y-98702532D01*
X162961338Y-98702534D01*
X163161550Y-98795894D01*
X163374932Y-98853070D01*
X163532123Y-98866822D01*
X163594998Y-98872323D01*
X163595000Y-98872323D01*
X163595002Y-98872323D01*
X163650017Y-98867509D01*
X163815068Y-98853070D01*
X164028450Y-98795894D01*
X164228662Y-98702534D01*
X164409620Y-98575826D01*
X164565826Y-98419620D01*
X164692534Y-98238662D01*
X164752618Y-98109811D01*
X164798790Y-98057371D01*
X164865983Y-98038219D01*
X164932865Y-98058435D01*
X164977382Y-98109811D01*
X165037464Y-98238658D01*
X165037468Y-98238666D01*
X165164170Y-98419615D01*
X165164175Y-98419621D01*
X165320378Y-98575824D01*
X165320384Y-98575829D01*
X165501333Y-98702531D01*
X165501335Y-98702532D01*
X165501338Y-98702534D01*
X165701550Y-98795894D01*
X165914932Y-98853070D01*
X166072123Y-98866822D01*
X166134998Y-98872323D01*
X166135000Y-98872323D01*
X166135002Y-98872323D01*
X166190017Y-98867509D01*
X166355068Y-98853070D01*
X166568450Y-98795894D01*
X166768662Y-98702534D01*
X166949620Y-98575826D01*
X167105826Y-98419620D01*
X167232534Y-98238662D01*
X167292618Y-98109811D01*
X167338790Y-98057371D01*
X167405983Y-98038219D01*
X167472865Y-98058435D01*
X167517382Y-98109811D01*
X167577464Y-98238658D01*
X167577468Y-98238666D01*
X167704170Y-98419615D01*
X167704175Y-98419621D01*
X167860378Y-98575824D01*
X167860384Y-98575829D01*
X168041333Y-98702531D01*
X168041335Y-98702532D01*
X168041338Y-98702534D01*
X168241550Y-98795894D01*
X168454932Y-98853070D01*
X168612123Y-98866822D01*
X168674998Y-98872323D01*
X168675000Y-98872323D01*
X168675002Y-98872323D01*
X168730017Y-98867509D01*
X168895068Y-98853070D01*
X169108450Y-98795894D01*
X169308662Y-98702534D01*
X169489620Y-98575826D01*
X169645826Y-98419620D01*
X169772534Y-98238662D01*
X169865894Y-98038450D01*
X169923070Y-97825068D01*
X169939581Y-97636344D01*
X169942323Y-97605002D01*
X169942323Y-97604997D01*
X169926328Y-97422171D01*
X169923070Y-97384932D01*
X169865894Y-97171550D01*
X169772534Y-96971339D01*
X169680077Y-96839296D01*
X169645827Y-96790381D01*
X169599787Y-96744341D01*
X169489620Y-96634174D01*
X169489616Y-96634171D01*
X169489615Y-96634170D01*
X169308666Y-96507468D01*
X169308662Y-96507466D01*
X169165187Y-96440563D01*
X169108450Y-96414106D01*
X169108447Y-96414105D01*
X169108445Y-96414104D01*
X168895070Y-96356930D01*
X168895062Y-96356929D01*
X168675002Y-96337677D01*
X168674998Y-96337677D01*
X168454937Y-96356929D01*
X168454929Y-96356930D01*
X168241554Y-96414104D01*
X168241548Y-96414107D01*
X168041340Y-96507465D01*
X168041338Y-96507466D01*
X167860377Y-96634175D01*
X167704175Y-96790377D01*
X167577466Y-96971338D01*
X167577465Y-96971340D01*
X167517382Y-97100189D01*
X167471209Y-97152628D01*
X167404016Y-97171780D01*
X167337135Y-97151564D01*
X167292618Y-97100189D01*
X167233205Y-96972779D01*
X167232534Y-96971339D01*
X167140077Y-96839296D01*
X167105827Y-96790381D01*
X167059787Y-96744341D01*
X166949620Y-96634174D01*
X166949616Y-96634171D01*
X166949615Y-96634170D01*
X166768666Y-96507468D01*
X166768662Y-96507466D01*
X166625187Y-96440563D01*
X166568450Y-96414106D01*
X166568447Y-96414105D01*
X166568445Y-96414104D01*
X166355070Y-96356930D01*
X166355062Y-96356929D01*
X166135002Y-96337677D01*
X166134998Y-96337677D01*
X165914937Y-96356929D01*
X165914929Y-96356930D01*
X165701554Y-96414104D01*
X165701548Y-96414107D01*
X165501340Y-96507465D01*
X165501338Y-96507466D01*
X165320377Y-96634175D01*
X165164175Y-96790377D01*
X165037466Y-96971338D01*
X165037465Y-96971340D01*
X164977382Y-97100189D01*
X164931209Y-97152628D01*
X164864016Y-97171780D01*
X164797135Y-97151564D01*
X164752618Y-97100189D01*
X164693205Y-96972779D01*
X164692534Y-96971339D01*
X164600077Y-96839296D01*
X164565827Y-96790381D01*
X164519787Y-96744341D01*
X164409620Y-96634174D01*
X164409616Y-96634171D01*
X164409615Y-96634170D01*
X164228666Y-96507468D01*
X164228662Y-96507466D01*
X164085187Y-96440563D01*
X164028450Y-96414106D01*
X164028447Y-96414105D01*
X164028445Y-96414104D01*
X163815070Y-96356930D01*
X163815062Y-96356929D01*
X163595002Y-96337677D01*
X163594998Y-96337677D01*
X163374937Y-96356929D01*
X163374929Y-96356930D01*
X163161554Y-96414104D01*
X163161548Y-96414107D01*
X162961340Y-96507465D01*
X162961338Y-96507466D01*
X162780377Y-96634175D01*
X162624175Y-96790377D01*
X162497466Y-96971338D01*
X162497465Y-96971340D01*
X162437382Y-97100189D01*
X162391209Y-97152628D01*
X162324016Y-97171780D01*
X162257135Y-97151564D01*
X162212618Y-97100189D01*
X162153205Y-96972779D01*
X162152534Y-96971339D01*
X162060077Y-96839296D01*
X162025827Y-96790381D01*
X161979787Y-96744341D01*
X161869620Y-96634174D01*
X161869616Y-96634171D01*
X161869615Y-96634170D01*
X161688666Y-96507468D01*
X161688662Y-96507466D01*
X161545187Y-96440563D01*
X161488450Y-96414106D01*
X161488447Y-96414105D01*
X161488445Y-96414104D01*
X161275070Y-96356930D01*
X161275062Y-96356929D01*
X161055002Y-96337677D01*
X161054998Y-96337677D01*
X160834937Y-96356929D01*
X160834929Y-96356930D01*
X160621554Y-96414104D01*
X160621548Y-96414107D01*
X160421340Y-96507465D01*
X160421338Y-96507466D01*
X160240377Y-96634175D01*
X160084175Y-96790377D01*
X159957466Y-96971338D01*
X159957465Y-96971340D01*
X159897382Y-97100189D01*
X159851209Y-97152628D01*
X159784016Y-97171780D01*
X159717135Y-97151564D01*
X159672618Y-97100189D01*
X159613205Y-96972779D01*
X159612534Y-96971339D01*
X159520077Y-96839296D01*
X159485827Y-96790381D01*
X159439787Y-96744341D01*
X159329620Y-96634174D01*
X159329616Y-96634171D01*
X159329615Y-96634170D01*
X159148666Y-96507468D01*
X159148662Y-96507466D01*
X159005187Y-96440563D01*
X158948450Y-96414106D01*
X158948447Y-96414105D01*
X158948445Y-96414104D01*
X158735070Y-96356930D01*
X158735062Y-96356929D01*
X158515002Y-96337677D01*
X158514998Y-96337677D01*
X158294937Y-96356929D01*
X158294929Y-96356930D01*
X158081554Y-96414104D01*
X158081548Y-96414107D01*
X157881340Y-96507465D01*
X157881338Y-96507466D01*
X157700377Y-96634175D01*
X157544175Y-96790377D01*
X157417466Y-96971338D01*
X157417465Y-96971340D01*
X157357382Y-97100189D01*
X157311209Y-97152628D01*
X157244016Y-97171780D01*
X157177135Y-97151564D01*
X157132618Y-97100189D01*
X157073205Y-96972779D01*
X157072534Y-96971339D01*
X156980077Y-96839296D01*
X156945827Y-96790381D01*
X156899787Y-96744341D01*
X156789620Y-96634174D01*
X156789616Y-96634171D01*
X156789615Y-96634170D01*
X156608666Y-96507468D01*
X156608662Y-96507466D01*
X156465187Y-96440563D01*
X156408450Y-96414106D01*
X156408447Y-96414105D01*
X156408445Y-96414104D01*
X156195070Y-96356930D01*
X156195062Y-96356929D01*
X155975002Y-96337677D01*
X155974998Y-96337677D01*
X155754937Y-96356929D01*
X155754929Y-96356930D01*
X155541554Y-96414104D01*
X155541548Y-96414107D01*
X155341340Y-96507465D01*
X155341338Y-96507466D01*
X155160377Y-96634175D01*
X155004175Y-96790377D01*
X154877466Y-96971338D01*
X154877465Y-96971340D01*
X154817382Y-97100189D01*
X154771209Y-97152628D01*
X154704016Y-97171780D01*
X154637135Y-97151564D01*
X154592618Y-97100189D01*
X154533205Y-96972779D01*
X154532534Y-96971339D01*
X154440077Y-96839296D01*
X154405827Y-96790381D01*
X154359787Y-96744341D01*
X154249620Y-96634174D01*
X154249616Y-96634171D01*
X154249615Y-96634170D01*
X154068666Y-96507468D01*
X154068662Y-96507466D01*
X153925187Y-96440563D01*
X153868450Y-96414106D01*
X153868447Y-96414105D01*
X153868445Y-96414104D01*
X153655070Y-96356930D01*
X153655062Y-96356929D01*
X153435002Y-96337677D01*
X153434998Y-96337677D01*
X153214937Y-96356929D01*
X153214929Y-96356930D01*
X153001554Y-96414104D01*
X153001548Y-96414107D01*
X152801340Y-96507465D01*
X152801338Y-96507466D01*
X152620377Y-96634175D01*
X152464175Y-96790377D01*
X152337466Y-96971338D01*
X152337465Y-96971340D01*
X152277382Y-97100189D01*
X152231209Y-97152628D01*
X152164016Y-97171780D01*
X152097135Y-97151564D01*
X152052618Y-97100189D01*
X151993205Y-96972779D01*
X151992534Y-96971339D01*
X151900077Y-96839296D01*
X151865827Y-96790381D01*
X151819787Y-96744341D01*
X151709620Y-96634174D01*
X151709616Y-96634171D01*
X151709615Y-96634170D01*
X151528666Y-96507468D01*
X151528662Y-96507466D01*
X151385187Y-96440563D01*
X151328450Y-96414106D01*
X151328447Y-96414105D01*
X151328445Y-96414104D01*
X151115070Y-96356930D01*
X151115062Y-96356929D01*
X150895002Y-96337677D01*
X150894998Y-96337677D01*
X150674937Y-96356929D01*
X150674929Y-96356930D01*
X150461554Y-96414104D01*
X150461548Y-96414107D01*
X150261340Y-96507465D01*
X150261338Y-96507466D01*
X150080377Y-96634175D01*
X149924175Y-96790377D01*
X149797466Y-96971338D01*
X149797465Y-96971340D01*
X149737382Y-97100189D01*
X149691209Y-97152628D01*
X149624016Y-97171780D01*
X149557135Y-97151564D01*
X149512618Y-97100189D01*
X149453205Y-96972779D01*
X149452534Y-96971339D01*
X149360077Y-96839296D01*
X149325827Y-96790381D01*
X149279787Y-96744341D01*
X149169620Y-96634174D01*
X149169616Y-96634171D01*
X149169615Y-96634170D01*
X148988666Y-96507468D01*
X148988662Y-96507466D01*
X148845187Y-96440563D01*
X148788450Y-96414106D01*
X148788447Y-96414105D01*
X148788445Y-96414104D01*
X148575070Y-96356930D01*
X148575062Y-96356929D01*
X148355002Y-96337677D01*
X148354998Y-96337677D01*
X148134937Y-96356929D01*
X148134929Y-96356930D01*
X147921554Y-96414104D01*
X147921548Y-96414107D01*
X147721340Y-96507465D01*
X147721338Y-96507466D01*
X147540377Y-96634175D01*
X147384175Y-96790377D01*
X147257466Y-96971338D01*
X147257465Y-96971340D01*
X147164107Y-97171548D01*
X147164104Y-97171554D01*
X147106930Y-97384929D01*
X147106929Y-97384937D01*
X147087677Y-97604997D01*
X125700321Y-97604997D01*
X125680137Y-97529670D01*
X125591320Y-97315248D01*
X125591314Y-97315237D01*
X125475279Y-97114256D01*
X125475278Y-97114254D01*
X125333990Y-96930124D01*
X125333984Y-96930117D01*
X125169882Y-96766015D01*
X125169875Y-96766009D01*
X124985745Y-96624721D01*
X124985743Y-96624720D01*
X124784762Y-96508685D01*
X124784754Y-96508681D01*
X124784752Y-96508680D01*
X124570330Y-96419863D01*
X124570331Y-96419863D01*
X124570328Y-96419862D01*
X124428203Y-96381780D01*
X124346149Y-96359794D01*
X124317386Y-96356007D01*
X124116052Y-96329500D01*
X124116045Y-96329500D01*
X121576045Y-96329500D01*
X121343955Y-96329500D01*
X121343947Y-96329500D01*
X121113851Y-96359794D01*
X120889671Y-96419862D01*
X120675254Y-96508677D01*
X120675237Y-96508685D01*
X120474256Y-96624720D01*
X120474254Y-96624721D01*
X120290124Y-96766009D01*
X120290117Y-96766015D01*
X120126015Y-96930117D01*
X120126009Y-96930124D01*
X120009765Y-97081617D01*
X119953337Y-97122820D01*
X119883591Y-97126975D01*
X119823708Y-97093812D01*
X119791402Y-97061506D01*
X119791395Y-97061501D01*
X119597834Y-96925967D01*
X119597830Y-96925965D01*
X119591019Y-96922789D01*
X119383663Y-96826097D01*
X119383659Y-96826096D01*
X119383655Y-96826094D01*
X119155413Y-96764938D01*
X119155403Y-96764936D01*
X118920001Y-96744341D01*
X118919999Y-96744341D01*
X118684596Y-96764936D01*
X118684586Y-96764938D01*
X118456344Y-96826094D01*
X118456335Y-96826098D01*
X118242171Y-96925964D01*
X118242169Y-96925965D01*
X118048597Y-97061505D01*
X117881505Y-97228597D01*
X117751575Y-97414158D01*
X117696998Y-97457783D01*
X117627500Y-97464977D01*
X117565145Y-97433454D01*
X117548425Y-97414158D01*
X117418494Y-97228597D01*
X117251402Y-97061506D01*
X117251395Y-97061501D01*
X117057834Y-96925967D01*
X117057830Y-96925965D01*
X117051019Y-96922789D01*
X116843663Y-96826097D01*
X116843659Y-96826096D01*
X116843655Y-96826094D01*
X116615413Y-96764938D01*
X116615403Y-96764936D01*
X116380001Y-96744341D01*
X116379999Y-96744341D01*
X116144596Y-96764936D01*
X116144586Y-96764938D01*
X115916344Y-96826094D01*
X115916335Y-96826098D01*
X115702171Y-96925964D01*
X115702169Y-96925965D01*
X115508597Y-97061505D01*
X115341505Y-97228597D01*
X115205965Y-97422169D01*
X115205964Y-97422171D01*
X115106098Y-97636335D01*
X115106094Y-97636344D01*
X115044938Y-97864586D01*
X115044936Y-97864596D01*
X115024341Y-98099999D01*
X101956826Y-98099999D01*
X101963504Y-92480000D01*
X113444473Y-92480000D01*
X113464563Y-92812136D01*
X113464563Y-92812141D01*
X113464564Y-92812142D01*
X113524544Y-93139441D01*
X113524545Y-93139445D01*
X113524546Y-93139449D01*
X113623530Y-93457104D01*
X113623534Y-93457116D01*
X113623537Y-93457123D01*
X113760102Y-93760557D01*
X113856625Y-93920225D01*
X113932251Y-94045326D01*
X114137460Y-94307255D01*
X114372744Y-94542539D01*
X114634673Y-94747748D01*
X114634678Y-94747751D01*
X114634682Y-94747754D01*
X114919443Y-94919898D01*
X115222877Y-95056463D01*
X115222890Y-95056467D01*
X115222895Y-95056469D01*
X115434665Y-95122458D01*
X115540559Y-95155456D01*
X115867858Y-95215436D01*
X116200000Y-95235527D01*
X116532142Y-95215436D01*
X116859441Y-95155456D01*
X117177123Y-95056463D01*
X117480557Y-94919898D01*
X117765318Y-94747754D01*
X118027252Y-94542542D01*
X118262542Y-94307252D01*
X118467754Y-94045318D01*
X118639898Y-93760557D01*
X118776463Y-93457123D01*
X118875456Y-93139441D01*
X118935436Y-92812142D01*
X118955527Y-92480000D01*
X118935436Y-92147858D01*
X118875456Y-91820559D01*
X118842458Y-91714665D01*
X118776469Y-91502895D01*
X118776467Y-91502890D01*
X118776463Y-91502877D01*
X118639898Y-91199443D01*
X118467754Y-90914682D01*
X118467751Y-90914678D01*
X118467748Y-90914673D01*
X118262539Y-90652744D01*
X118027255Y-90417460D01*
X117765326Y-90212251D01*
X117709250Y-90178352D01*
X117480557Y-90040102D01*
X117177123Y-89903537D01*
X117177116Y-89903534D01*
X117177104Y-89903530D01*
X116859449Y-89804546D01*
X116859445Y-89804545D01*
X116859441Y-89804544D01*
X116532142Y-89744564D01*
X116532141Y-89744563D01*
X116532136Y-89744563D01*
X116200000Y-89724473D01*
X115867863Y-89744563D01*
X115867858Y-89744564D01*
X115540559Y-89804544D01*
X115540556Y-89804544D01*
X115540550Y-89804546D01*
X115222895Y-89903530D01*
X115222879Y-89903536D01*
X115222877Y-89903537D01*
X115029656Y-89990498D01*
X114919447Y-90040100D01*
X114919445Y-90040101D01*
X114634673Y-90212251D01*
X114372744Y-90417460D01*
X114137460Y-90652744D01*
X113932251Y-90914673D01*
X113912717Y-90946987D01*
X113760102Y-91199443D01*
X113636991Y-91472985D01*
X113623536Y-91502880D01*
X113623530Y-91502895D01*
X113524546Y-91820550D01*
X113464563Y-92147863D01*
X113444473Y-92480000D01*
X101963504Y-92480000D01*
X101998062Y-63396228D01*
X117299500Y-63396228D01*
X117299500Y-63563771D01*
X117332182Y-63728074D01*
X117332184Y-63728082D01*
X117396295Y-63882860D01*
X117489373Y-64022162D01*
X117607837Y-64140626D01*
X117665053Y-64178856D01*
X117747137Y-64233703D01*
X117901918Y-64297816D01*
X118027598Y-64322815D01*
X118066228Y-64330499D01*
X118066232Y-64330500D01*
X118066233Y-64330500D01*
X118233768Y-64330500D01*
X118233769Y-64330499D01*
X118398082Y-64297816D01*
X118552863Y-64233703D01*
X118692162Y-64140626D01*
X118810626Y-64022162D01*
X118903703Y-63882863D01*
X118967816Y-63728082D01*
X119000500Y-63563767D01*
X119000500Y-63396233D01*
X118967816Y-63231918D01*
X118921916Y-63121108D01*
X118914448Y-63051641D01*
X118945723Y-62989162D01*
X119005811Y-62953509D01*
X119049081Y-62950299D01*
X119052300Y-62950627D01*
X119099991Y-62955500D01*
X120400008Y-62955499D01*
X120502797Y-62944999D01*
X120669334Y-62889814D01*
X120818656Y-62797712D01*
X120942712Y-62673656D01*
X121034814Y-62524334D01*
X121034814Y-62524331D01*
X121038178Y-62518879D01*
X121090126Y-62472154D01*
X121159088Y-62460931D01*
X121223170Y-62488774D01*
X121231398Y-62496294D01*
X121370213Y-62635109D01*
X121542179Y-62760048D01*
X121542181Y-62760049D01*
X121542184Y-62760051D01*
X121731588Y-62856557D01*
X121933757Y-62922246D01*
X122143713Y-62955500D01*
X122143714Y-62955500D01*
X122356286Y-62955500D01*
X122356287Y-62955500D01*
X122566243Y-62922246D01*
X122768412Y-62856557D01*
X122957816Y-62760051D01*
X123004275Y-62726297D01*
X123129786Y-62635109D01*
X123129788Y-62635106D01*
X123129792Y-62635104D01*
X123280104Y-62484792D01*
X123399683Y-62320204D01*
X123455011Y-62277540D01*
X123524624Y-62271561D01*
X123586420Y-62304166D01*
X123600313Y-62320199D01*
X123674387Y-62422154D01*
X123719896Y-62484792D01*
X123870213Y-62635109D01*
X124042179Y-62760048D01*
X124042181Y-62760049D01*
X124042184Y-62760051D01*
X124231588Y-62856557D01*
X124433757Y-62922246D01*
X124643713Y-62955500D01*
X124643714Y-62955500D01*
X124856286Y-62955500D01*
X124856287Y-62955500D01*
X125066243Y-62922246D01*
X125176186Y-62886522D01*
X125246024Y-62884528D01*
X125302183Y-62916773D01*
X127276263Y-64890855D01*
X127276267Y-64890858D01*
X127378710Y-64959309D01*
X127378711Y-64959309D01*
X127378715Y-64959312D01*
X127432804Y-64981716D01*
X127492548Y-65006463D01*
X127512597Y-65010451D01*
X127546196Y-65017134D01*
X127613392Y-65030501D01*
X127613394Y-65030501D01*
X127742721Y-65030501D01*
X127742741Y-65030500D01*
X132165405Y-65030500D01*
X132232444Y-65050185D01*
X132278199Y-65102989D01*
X132288725Y-65167458D01*
X132269540Y-65350000D01*
X132289326Y-65538256D01*
X132289327Y-65538259D01*
X132347818Y-65718277D01*
X132347821Y-65718284D01*
X132442467Y-65882216D01*
X132467034Y-65909500D01*
X132517650Y-65965715D01*
X132547880Y-66028706D01*
X132549500Y-66048687D01*
X132549500Y-87394200D01*
X132573535Y-87515033D01*
X132573540Y-87515050D01*
X132620685Y-87628870D01*
X132620690Y-87628879D01*
X132644003Y-87663768D01*
X132644004Y-87663769D01*
X132689141Y-87731321D01*
X132689144Y-87731325D01*
X132780586Y-87822767D01*
X132780608Y-87822787D01*
X135769895Y-90812074D01*
X135803380Y-90873397D01*
X135803831Y-90875564D01*
X135818036Y-90946981D01*
X135818041Y-90946997D01*
X135865186Y-91060817D01*
X135865191Y-91060826D01*
X135881836Y-91085736D01*
X135881837Y-91085737D01*
X135933641Y-91163267D01*
X135933642Y-91163268D01*
X135933643Y-91163269D01*
X136020768Y-91250394D01*
X136020769Y-91250394D01*
X136027836Y-91257461D01*
X136027835Y-91257461D01*
X136027838Y-91257463D01*
X139000436Y-94230062D01*
X141609669Y-96839295D01*
X141693163Y-96922789D01*
X141712866Y-96948465D01*
X141726904Y-96972779D01*
X141835883Y-97093812D01*
X141853566Y-97113451D01*
X142006702Y-97224711D01*
X142006707Y-97224714D01*
X142179629Y-97301705D01*
X142179634Y-97301707D01*
X142364791Y-97341063D01*
X142364792Y-97341063D01*
X142554081Y-97341063D01*
X142554083Y-97341063D01*
X142739240Y-97301707D01*
X142912167Y-97224714D01*
X143065308Y-97113451D01*
X143191970Y-96972779D01*
X143286616Y-96808847D01*
X143345111Y-96628819D01*
X143364897Y-96440563D01*
X143345111Y-96252307D01*
X143286616Y-96072279D01*
X143191970Y-95908347D01*
X143065308Y-95767675D01*
X143065307Y-95767674D01*
X142912171Y-95656414D01*
X142912166Y-95656411D01*
X142739244Y-95579420D01*
X142739239Y-95579418D01*
X142593438Y-95548428D01*
X142554083Y-95540063D01*
X142364791Y-95540063D01*
X142364790Y-95540063D01*
X142195462Y-95576054D01*
X142125795Y-95570738D01*
X142082001Y-95542445D01*
X141836657Y-95297101D01*
X141803172Y-95235778D01*
X141808156Y-95166086D01*
X141850028Y-95110153D01*
X141853215Y-95107844D01*
X141853649Y-95107539D01*
X141853662Y-95107534D01*
X142034620Y-94980826D01*
X142190826Y-94824620D01*
X142317534Y-94643662D01*
X142377618Y-94514811D01*
X142423790Y-94462371D01*
X142490983Y-94443219D01*
X142557865Y-94463435D01*
X142602382Y-94514811D01*
X142662464Y-94643658D01*
X142662468Y-94643666D01*
X142789170Y-94824615D01*
X142789175Y-94824621D01*
X142945378Y-94980824D01*
X142945384Y-94980829D01*
X143126333Y-95107531D01*
X143126335Y-95107532D01*
X143126338Y-95107534D01*
X143326550Y-95200894D01*
X143539932Y-95258070D01*
X143697123Y-95271822D01*
X143759998Y-95277323D01*
X143760000Y-95277323D01*
X143760002Y-95277323D01*
X143815017Y-95272509D01*
X143980068Y-95258070D01*
X144193450Y-95200894D01*
X144393662Y-95107534D01*
X144574620Y-94980826D01*
X144730826Y-94824620D01*
X144857534Y-94643662D01*
X144917618Y-94514811D01*
X144963790Y-94462371D01*
X145030983Y-94443219D01*
X145097865Y-94463435D01*
X145142382Y-94514811D01*
X145202464Y-94643658D01*
X145202468Y-94643666D01*
X145329170Y-94824615D01*
X145329175Y-94824621D01*
X145485378Y-94980824D01*
X145485384Y-94980829D01*
X145666333Y-95107531D01*
X145666335Y-95107532D01*
X145666338Y-95107534D01*
X145866550Y-95200894D01*
X146079932Y-95258070D01*
X146237123Y-95271822D01*
X146299998Y-95277323D01*
X146300000Y-95277323D01*
X146300002Y-95277323D01*
X146355017Y-95272509D01*
X146520068Y-95258070D01*
X146733450Y-95200894D01*
X146933662Y-95107534D01*
X147114620Y-94980826D01*
X147270826Y-94824620D01*
X147397534Y-94643662D01*
X147457618Y-94514811D01*
X147503790Y-94462371D01*
X147570983Y-94443219D01*
X147637865Y-94463435D01*
X147682382Y-94514811D01*
X147742464Y-94643658D01*
X147742468Y-94643666D01*
X147869170Y-94824615D01*
X147869175Y-94824621D01*
X148025378Y-94980824D01*
X148025384Y-94980829D01*
X148206333Y-95107531D01*
X148206335Y-95107532D01*
X148206338Y-95107534D01*
X148406550Y-95200894D01*
X148619932Y-95258070D01*
X148777123Y-95271822D01*
X148839998Y-95277323D01*
X148840000Y-95277323D01*
X148840002Y-95277323D01*
X148895017Y-95272509D01*
X149060068Y-95258070D01*
X149273450Y-95200894D01*
X149473662Y-95107534D01*
X149654620Y-94980826D01*
X149810826Y-94824620D01*
X149937534Y-94643662D01*
X149997618Y-94514811D01*
X150043790Y-94462371D01*
X150110983Y-94443219D01*
X150177865Y-94463435D01*
X150222382Y-94514811D01*
X150282464Y-94643658D01*
X150282468Y-94643666D01*
X150409170Y-94824615D01*
X150409175Y-94824621D01*
X150565378Y-94980824D01*
X150565384Y-94980829D01*
X150746333Y-95107531D01*
X150746335Y-95107532D01*
X150746338Y-95107534D01*
X150946550Y-95200894D01*
X151159932Y-95258070D01*
X151317123Y-95271822D01*
X151379998Y-95277323D01*
X151380000Y-95277323D01*
X151380002Y-95277323D01*
X151435017Y-95272509D01*
X151600068Y-95258070D01*
X151813450Y-95200894D01*
X152013662Y-95107534D01*
X152194620Y-94980826D01*
X152350826Y-94824620D01*
X152477534Y-94643662D01*
X152537618Y-94514811D01*
X152583790Y-94462371D01*
X152650983Y-94443219D01*
X152717865Y-94463435D01*
X152762382Y-94514811D01*
X152822464Y-94643658D01*
X152822468Y-94643666D01*
X152949170Y-94824615D01*
X152949175Y-94824621D01*
X153105378Y-94980824D01*
X153105384Y-94980829D01*
X153286333Y-95107531D01*
X153286335Y-95107532D01*
X153286338Y-95107534D01*
X153486550Y-95200894D01*
X153699932Y-95258070D01*
X153857123Y-95271822D01*
X153919998Y-95277323D01*
X153920000Y-95277323D01*
X153920002Y-95277323D01*
X153975017Y-95272509D01*
X154140068Y-95258070D01*
X154353450Y-95200894D01*
X154553662Y-95107534D01*
X154734620Y-94980826D01*
X154890826Y-94824620D01*
X155017534Y-94643662D01*
X155110894Y-94443450D01*
X155168070Y-94230068D01*
X155182509Y-94065017D01*
X155187323Y-94010002D01*
X155187323Y-94009997D01*
X155173849Y-93855987D01*
X155168070Y-93789932D01*
X155110894Y-93576550D01*
X155017534Y-93376339D01*
X154890826Y-93195380D01*
X154734620Y-93039174D01*
X154734616Y-93039171D01*
X154734615Y-93039170D01*
X154553666Y-92912468D01*
X154553662Y-92912466D01*
X154553660Y-92912465D01*
X154353450Y-92819106D01*
X154353447Y-92819105D01*
X154353445Y-92819104D01*
X154140070Y-92761930D01*
X154140062Y-92761929D01*
X153920002Y-92742677D01*
X153919998Y-92742677D01*
X153699937Y-92761929D01*
X153699929Y-92761930D01*
X153486554Y-92819104D01*
X153486548Y-92819107D01*
X153286340Y-92912465D01*
X153286338Y-92912466D01*
X153105377Y-93039175D01*
X152949175Y-93195377D01*
X152822466Y-93376338D01*
X152822465Y-93376340D01*
X152762382Y-93505189D01*
X152716209Y-93557628D01*
X152649016Y-93576780D01*
X152582135Y-93556564D01*
X152537618Y-93505189D01*
X152486739Y-93396080D01*
X152477534Y-93376339D01*
X152350826Y-93195380D01*
X152194620Y-93039174D01*
X152194616Y-93039171D01*
X152194615Y-93039170D01*
X152013666Y-92912468D01*
X152013662Y-92912466D01*
X152013660Y-92912465D01*
X151813450Y-92819106D01*
X151813447Y-92819105D01*
X151813445Y-92819104D01*
X151600070Y-92761930D01*
X151600062Y-92761929D01*
X151380002Y-92742677D01*
X151379998Y-92742677D01*
X151159937Y-92761929D01*
X151159929Y-92761930D01*
X150946554Y-92819104D01*
X150946548Y-92819107D01*
X150746340Y-92912465D01*
X150746338Y-92912466D01*
X150565377Y-93039175D01*
X150409175Y-93195377D01*
X150282466Y-93376338D01*
X150282465Y-93376340D01*
X150222382Y-93505189D01*
X150176209Y-93557628D01*
X150109016Y-93576780D01*
X150042135Y-93556564D01*
X149997618Y-93505189D01*
X149946739Y-93396080D01*
X149937534Y-93376339D01*
X149810826Y-93195380D01*
X149654620Y-93039174D01*
X149654616Y-93039171D01*
X149654615Y-93039170D01*
X149473666Y-92912468D01*
X149473662Y-92912466D01*
X149473660Y-92912465D01*
X149273450Y-92819106D01*
X149273447Y-92819105D01*
X149273445Y-92819104D01*
X149060070Y-92761930D01*
X149060062Y-92761929D01*
X148840002Y-92742677D01*
X148839998Y-92742677D01*
X148619937Y-92761929D01*
X148619929Y-92761930D01*
X148406554Y-92819104D01*
X148406548Y-92819107D01*
X148206340Y-92912465D01*
X148206338Y-92912466D01*
X148025377Y-93039175D01*
X147869175Y-93195377D01*
X147742466Y-93376338D01*
X147742465Y-93376340D01*
X147682382Y-93505189D01*
X147636209Y-93557628D01*
X147569016Y-93576780D01*
X147502135Y-93556564D01*
X147457618Y-93505189D01*
X147406739Y-93396080D01*
X147397534Y-93376339D01*
X147270826Y-93195380D01*
X147114620Y-93039174D01*
X147114616Y-93039171D01*
X147114615Y-93039170D01*
X146933666Y-92912468D01*
X146933662Y-92912466D01*
X146933660Y-92912465D01*
X146733450Y-92819106D01*
X146733447Y-92819105D01*
X146733445Y-92819104D01*
X146520070Y-92761930D01*
X146520062Y-92761929D01*
X146300002Y-92742677D01*
X146299998Y-92742677D01*
X146079937Y-92761929D01*
X146079929Y-92761930D01*
X145866554Y-92819104D01*
X145866548Y-92819107D01*
X145666340Y-92912465D01*
X145666338Y-92912466D01*
X145485377Y-93039175D01*
X145329175Y-93195377D01*
X145202466Y-93376338D01*
X145202465Y-93376340D01*
X145142382Y-93505189D01*
X145096209Y-93557628D01*
X145029016Y-93576780D01*
X144962135Y-93556564D01*
X144917618Y-93505189D01*
X144866739Y-93396080D01*
X144857534Y-93376339D01*
X144730826Y-93195380D01*
X144574620Y-93039174D01*
X144574616Y-93039171D01*
X144574615Y-93039170D01*
X144393666Y-92912468D01*
X144393662Y-92912466D01*
X144393660Y-92912465D01*
X144193450Y-92819106D01*
X144193447Y-92819105D01*
X144193445Y-92819104D01*
X143980070Y-92761930D01*
X143980062Y-92761929D01*
X143760002Y-92742677D01*
X143759998Y-92742677D01*
X143539937Y-92761929D01*
X143539929Y-92761930D01*
X143326554Y-92819104D01*
X143326548Y-92819107D01*
X143126340Y-92912465D01*
X143126338Y-92912466D01*
X142945377Y-93039175D01*
X142789175Y-93195377D01*
X142662466Y-93376338D01*
X142662465Y-93376340D01*
X142602382Y-93505189D01*
X142556209Y-93557628D01*
X142489016Y-93576780D01*
X142422135Y-93556564D01*
X142377618Y-93505189D01*
X142326739Y-93396080D01*
X142317534Y-93376339D01*
X142190826Y-93195380D01*
X142034620Y-93039174D01*
X142034616Y-93039171D01*
X142034615Y-93039170D01*
X141853666Y-92912468D01*
X141853662Y-92912466D01*
X141853660Y-92912465D01*
X141653450Y-92819106D01*
X141653447Y-92819105D01*
X141653445Y-92819104D01*
X141440070Y-92761930D01*
X141440062Y-92761929D01*
X141220002Y-92742677D01*
X141219998Y-92742677D01*
X140999937Y-92761929D01*
X140999929Y-92761930D01*
X140786554Y-92819104D01*
X140786548Y-92819107D01*
X140586340Y-92912465D01*
X140586338Y-92912466D01*
X140405377Y-93039175D01*
X140249175Y-93195377D01*
X140122154Y-93376784D01*
X140067577Y-93420409D01*
X139998079Y-93427603D01*
X139935724Y-93396080D01*
X139932898Y-93393342D01*
X137069106Y-90529551D01*
X137035621Y-90468228D01*
X137035196Y-90466192D01*
X137020964Y-90394638D01*
X136973813Y-90280804D01*
X136905359Y-90178356D01*
X136905356Y-90178352D01*
X133836819Y-87109816D01*
X133803334Y-87048493D01*
X133800500Y-87022135D01*
X133800500Y-78373713D01*
X170124500Y-78373713D01*
X170124500Y-78586286D01*
X170157753Y-78796239D01*
X170223444Y-78998414D01*
X170319951Y-79187820D01*
X170444890Y-79359786D01*
X170595209Y-79510105D01*
X170595214Y-79510109D01*
X170759793Y-79629682D01*
X170802459Y-79685011D01*
X170808438Y-79754625D01*
X170775833Y-79816420D01*
X170759793Y-79830318D01*
X170595214Y-79949890D01*
X170595209Y-79949894D01*
X170444890Y-80100213D01*
X170319951Y-80272179D01*
X170223444Y-80461585D01*
X170157753Y-80663760D01*
X170124500Y-80873713D01*
X170124500Y-81086286D01*
X170157753Y-81296239D01*
X170223444Y-81498414D01*
X170319951Y-81687820D01*
X170444890Y-81859786D01*
X170595209Y-82010105D01*
X170595214Y-82010109D01*
X170759793Y-82129682D01*
X170802459Y-82185011D01*
X170808438Y-82254625D01*
X170775833Y-82316420D01*
X170759793Y-82330318D01*
X170595214Y-82449890D01*
X170595209Y-82449894D01*
X170444890Y-82600213D01*
X170319951Y-82772179D01*
X170223444Y-82961585D01*
X170157753Y-83163760D01*
X170124500Y-83373713D01*
X170124500Y-83586286D01*
X170157753Y-83796239D01*
X170223444Y-83998414D01*
X170319951Y-84187820D01*
X170444890Y-84359786D01*
X170583705Y-84498601D01*
X170617190Y-84559924D01*
X170612206Y-84629616D01*
X170570334Y-84685549D01*
X170561121Y-84691821D01*
X170406342Y-84787289D01*
X170282289Y-84911342D01*
X170190187Y-85060663D01*
X170190186Y-85060666D01*
X170135001Y-85227203D01*
X170135001Y-85227204D01*
X170135000Y-85227204D01*
X170124500Y-85329983D01*
X170124500Y-86630001D01*
X170124501Y-86630018D01*
X170135000Y-86732796D01*
X170135001Y-86732799D01*
X170144739Y-86762185D01*
X170190186Y-86899334D01*
X170282288Y-87048656D01*
X170406344Y-87172712D01*
X170555666Y-87264814D01*
X170722203Y-87319999D01*
X170824991Y-87330500D01*
X172375008Y-87330499D01*
X172477797Y-87319999D01*
X172604031Y-87278168D01*
X172673855Y-87275767D01*
X172733897Y-87311498D01*
X172765091Y-87374018D01*
X172764650Y-87420065D01*
X172749500Y-87496234D01*
X172749500Y-87663768D01*
X172782182Y-87828074D01*
X172782184Y-87828082D01*
X172846295Y-87982860D01*
X172939373Y-88122162D01*
X173057837Y-88240626D01*
X173150494Y-88302537D01*
X173197137Y-88333703D01*
X173351918Y-88397816D01*
X173516228Y-88430499D01*
X173516232Y-88430500D01*
X173516233Y-88430500D01*
X173683768Y-88430500D01*
X173683769Y-88430499D01*
X173848082Y-88397816D01*
X174002863Y-88333703D01*
X174142162Y-88240626D01*
X174260626Y-88122162D01*
X174353703Y-87982863D01*
X174417816Y-87828082D01*
X174450500Y-87663767D01*
X174450500Y-87496233D01*
X174417816Y-87331918D01*
X174353703Y-87177137D01*
X174322537Y-87130494D01*
X174260626Y-87037837D01*
X174142162Y-86919373D01*
X174002860Y-86826295D01*
X173848082Y-86762184D01*
X173848074Y-86762182D01*
X173683771Y-86729500D01*
X173683767Y-86729500D01*
X173516233Y-86729500D01*
X173516228Y-86729500D01*
X173351925Y-86762182D01*
X173351913Y-86762185D01*
X173241109Y-86808082D01*
X173171640Y-86815551D01*
X173109161Y-86784276D01*
X173073509Y-86724187D01*
X173070299Y-86680918D01*
X173075499Y-86630016D01*
X173075500Y-86630009D01*
X173075499Y-85329992D01*
X173064999Y-85227203D01*
X173009814Y-85060666D01*
X172917712Y-84911344D01*
X172793656Y-84787288D01*
X172644334Y-84695186D01*
X172644333Y-84695185D01*
X172638878Y-84691821D01*
X172592154Y-84639873D01*
X172580931Y-84570910D01*
X172608775Y-84506828D01*
X172616272Y-84498623D01*
X172755104Y-84359792D01*
X172880051Y-84187816D01*
X172976557Y-83998412D01*
X173042246Y-83796243D01*
X173075500Y-83586287D01*
X173075500Y-83373713D01*
X173042246Y-83163757D01*
X172976557Y-82961588D01*
X172880051Y-82772184D01*
X172880049Y-82772181D01*
X172880048Y-82772179D01*
X172755109Y-82600213D01*
X172604792Y-82449896D01*
X172604784Y-82449890D01*
X172440204Y-82330316D01*
X172397540Y-82274989D01*
X172391561Y-82205376D01*
X172424166Y-82143580D01*
X172440199Y-82129686D01*
X172604792Y-82010104D01*
X172755104Y-81859792D01*
X172755106Y-81859788D01*
X172755109Y-81859786D01*
X172880048Y-81687820D01*
X172880047Y-81687820D01*
X172880051Y-81687816D01*
X172976557Y-81498412D01*
X173042246Y-81296243D01*
X173075500Y-81086287D01*
X173075500Y-80873713D01*
X173042246Y-80663757D01*
X172976557Y-80461588D01*
X172880051Y-80272184D01*
X172880049Y-80272181D01*
X172880048Y-80272179D01*
X172755109Y-80100213D01*
X172604792Y-79949896D01*
X172604784Y-79949890D01*
X172440204Y-79830316D01*
X172397540Y-79774989D01*
X172391561Y-79705376D01*
X172424166Y-79643580D01*
X172440199Y-79629686D01*
X172604792Y-79510104D01*
X172755104Y-79359792D01*
X172755106Y-79359788D01*
X172755109Y-79359786D01*
X172880048Y-79187820D01*
X172880047Y-79187820D01*
X172880051Y-79187816D01*
X172976557Y-78998412D01*
X173042246Y-78796243D01*
X173075500Y-78586287D01*
X173075500Y-78373713D01*
X173042246Y-78163757D01*
X172976557Y-77961588D01*
X172880051Y-77772184D01*
X172880049Y-77772181D01*
X172880048Y-77772179D01*
X172755109Y-77600213D01*
X172604790Y-77449894D01*
X172604785Y-77449890D01*
X172439781Y-77330008D01*
X172397115Y-77274678D01*
X172391136Y-77205065D01*
X172423741Y-77143270D01*
X172439781Y-77129371D01*
X172604466Y-77009721D01*
X172754723Y-76859464D01*
X172754727Y-76859459D01*
X172879620Y-76687557D01*
X172976095Y-76498217D01*
X173041757Y-76296129D01*
X173041757Y-76296126D01*
X173052231Y-76230000D01*
X172004146Y-76230000D01*
X172042630Y-76163343D01*
X172075000Y-76042535D01*
X172075000Y-75917465D01*
X172042630Y-75796657D01*
X172004146Y-75730000D01*
X173052231Y-75730000D01*
X173041757Y-75663873D01*
X173041757Y-75663870D01*
X172976095Y-75461782D01*
X172879620Y-75272442D01*
X172754727Y-75100540D01*
X172754723Y-75100535D01*
X172604464Y-74950276D01*
X172604459Y-74950272D01*
X172432557Y-74825379D01*
X172243217Y-74728904D01*
X172041128Y-74663242D01*
X171850000Y-74632969D01*
X171850000Y-75575854D01*
X171783343Y-75537370D01*
X171662535Y-75505000D01*
X171537465Y-75505000D01*
X171416657Y-75537370D01*
X171350000Y-75575854D01*
X171350000Y-74632969D01*
X171158872Y-74663242D01*
X171158869Y-74663242D01*
X170956782Y-74728904D01*
X170767442Y-74825379D01*
X170595540Y-74950272D01*
X170595535Y-74950276D01*
X170445276Y-75100535D01*
X170445272Y-75100540D01*
X170320379Y-75272442D01*
X170223904Y-75461782D01*
X170158242Y-75663870D01*
X170158242Y-75663873D01*
X170147769Y-75730000D01*
X171195854Y-75730000D01*
X171157370Y-75796657D01*
X171125000Y-75917465D01*
X171125000Y-76042535D01*
X171157370Y-76163343D01*
X171195854Y-76230000D01*
X170147769Y-76230000D01*
X170158242Y-76296126D01*
X170158242Y-76296129D01*
X170223904Y-76498217D01*
X170320379Y-76687557D01*
X170445272Y-76859459D01*
X170445276Y-76859464D01*
X170595535Y-77009723D01*
X170595540Y-77009727D01*
X170760218Y-77129372D01*
X170802884Y-77184701D01*
X170808863Y-77254315D01*
X170776258Y-77316110D01*
X170760218Y-77330008D01*
X170595214Y-77449890D01*
X170595209Y-77449894D01*
X170444890Y-77600213D01*
X170319951Y-77772179D01*
X170223444Y-77961585D01*
X170157753Y-78163760D01*
X170124500Y-78373713D01*
X133800500Y-78373713D01*
X133800500Y-76229997D01*
X142492677Y-76229997D01*
X142492677Y-76230000D01*
X142511929Y-76450062D01*
X142511930Y-76450070D01*
X142569104Y-76663445D01*
X142569105Y-76663447D01*
X142569106Y-76663450D01*
X142602382Y-76734811D01*
X142662466Y-76863662D01*
X142662468Y-76863666D01*
X142789170Y-77044615D01*
X142789175Y-77044621D01*
X142945378Y-77200824D01*
X142945384Y-77200829D01*
X143126333Y-77327531D01*
X143126335Y-77327532D01*
X143126338Y-77327534D01*
X143326550Y-77420894D01*
X143539932Y-77478070D01*
X143697123Y-77491822D01*
X143759998Y-77497323D01*
X143760000Y-77497323D01*
X143760002Y-77497323D01*
X143815017Y-77492509D01*
X143980068Y-77478070D01*
X144193450Y-77420894D01*
X144393662Y-77327534D01*
X144574620Y-77200826D01*
X144730826Y-77044620D01*
X144857534Y-76863662D01*
X144917618Y-76734811D01*
X144963790Y-76682371D01*
X145030983Y-76663219D01*
X145097865Y-76683435D01*
X145142382Y-76734811D01*
X145202464Y-76863658D01*
X145202468Y-76863666D01*
X145329170Y-77044615D01*
X145329175Y-77044621D01*
X145485378Y-77200824D01*
X145485384Y-77200829D01*
X145666333Y-77327531D01*
X145666335Y-77327532D01*
X145666338Y-77327534D01*
X145866550Y-77420894D01*
X146079932Y-77478070D01*
X146237123Y-77491822D01*
X146299998Y-77497323D01*
X146300000Y-77497323D01*
X146300002Y-77497323D01*
X146355017Y-77492509D01*
X146520068Y-77478070D01*
X146733450Y-77420894D01*
X146933662Y-77327534D01*
X147114620Y-77200826D01*
X147270826Y-77044620D01*
X147397534Y-76863662D01*
X147457618Y-76734811D01*
X147503790Y-76682371D01*
X147570983Y-76663219D01*
X147637865Y-76683435D01*
X147682382Y-76734811D01*
X147742464Y-76863658D01*
X147742468Y-76863666D01*
X147869170Y-77044615D01*
X147869175Y-77044621D01*
X148025378Y-77200824D01*
X148025384Y-77200829D01*
X148206333Y-77327531D01*
X148206335Y-77327532D01*
X148206338Y-77327534D01*
X148406550Y-77420894D01*
X148619932Y-77478070D01*
X148777123Y-77491822D01*
X148839998Y-77497323D01*
X148840000Y-77497323D01*
X148840002Y-77497323D01*
X148895017Y-77492509D01*
X149060068Y-77478070D01*
X149273450Y-77420894D01*
X149473662Y-77327534D01*
X149654620Y-77200826D01*
X149810826Y-77044620D01*
X149937534Y-76863662D01*
X149997618Y-76734811D01*
X150043790Y-76682371D01*
X150110983Y-76663219D01*
X150177865Y-76683435D01*
X150222382Y-76734811D01*
X150282464Y-76863658D01*
X150282468Y-76863666D01*
X150409170Y-77044615D01*
X150409175Y-77044621D01*
X150565378Y-77200824D01*
X150565384Y-77200829D01*
X150746333Y-77327531D01*
X150746335Y-77327532D01*
X150746338Y-77327534D01*
X150946550Y-77420894D01*
X151159932Y-77478070D01*
X151317123Y-77491822D01*
X151379998Y-77497323D01*
X151380000Y-77497323D01*
X151380002Y-77497323D01*
X151435017Y-77492509D01*
X151600068Y-77478070D01*
X151813450Y-77420894D01*
X152013662Y-77327534D01*
X152194620Y-77200826D01*
X152350826Y-77044620D01*
X152477534Y-76863662D01*
X152570894Y-76663450D01*
X152628070Y-76450068D01*
X152647323Y-76230000D01*
X152628070Y-76009932D01*
X152570894Y-75796550D01*
X152477534Y-75596339D01*
X152350826Y-75415380D01*
X152194620Y-75259174D01*
X152194616Y-75259171D01*
X152194615Y-75259170D01*
X152013666Y-75132468D01*
X152013662Y-75132466D01*
X151945185Y-75100535D01*
X151813450Y-75039106D01*
X151813447Y-75039105D01*
X151813445Y-75039104D01*
X151600070Y-74981930D01*
X151600062Y-74981929D01*
X151380002Y-74962677D01*
X151379998Y-74962677D01*
X151159937Y-74981929D01*
X151159929Y-74981930D01*
X150946554Y-75039104D01*
X150946548Y-75039107D01*
X150746340Y-75132465D01*
X150746338Y-75132466D01*
X150565377Y-75259175D01*
X150409175Y-75415377D01*
X150282466Y-75596338D01*
X150282465Y-75596340D01*
X150222382Y-75725189D01*
X150176209Y-75777628D01*
X150109016Y-75796780D01*
X150042135Y-75776564D01*
X149997618Y-75725189D01*
X149969024Y-75663870D01*
X149937534Y-75596339D01*
X149810826Y-75415380D01*
X149654620Y-75259174D01*
X149654616Y-75259171D01*
X149654615Y-75259170D01*
X149473666Y-75132468D01*
X149473662Y-75132466D01*
X149405185Y-75100535D01*
X149273450Y-75039106D01*
X149273447Y-75039105D01*
X149273445Y-75039104D01*
X149060070Y-74981930D01*
X149060062Y-74981929D01*
X148840002Y-74962677D01*
X148839998Y-74962677D01*
X148619937Y-74981929D01*
X148619929Y-74981930D01*
X148406554Y-75039104D01*
X148406548Y-75039107D01*
X148206340Y-75132465D01*
X148206338Y-75132466D01*
X148025377Y-75259175D01*
X147869175Y-75415377D01*
X147742466Y-75596338D01*
X147742465Y-75596340D01*
X147682382Y-75725189D01*
X147636209Y-75777628D01*
X147569016Y-75796780D01*
X147502135Y-75776564D01*
X147457618Y-75725189D01*
X147429024Y-75663870D01*
X147397534Y-75596339D01*
X147270826Y-75415380D01*
X147114620Y-75259174D01*
X147114616Y-75259171D01*
X147114615Y-75259170D01*
X146933666Y-75132468D01*
X146933662Y-75132466D01*
X146865185Y-75100535D01*
X146733450Y-75039106D01*
X146733447Y-75039105D01*
X146733445Y-75039104D01*
X146520070Y-74981930D01*
X146520062Y-74981929D01*
X146300002Y-74962677D01*
X146299998Y-74962677D01*
X146079937Y-74981929D01*
X146079929Y-74981930D01*
X145866554Y-75039104D01*
X145866548Y-75039107D01*
X145666340Y-75132465D01*
X145666338Y-75132466D01*
X145485377Y-75259175D01*
X145329175Y-75415377D01*
X145202466Y-75596338D01*
X145202465Y-75596340D01*
X145142382Y-75725189D01*
X145096209Y-75777628D01*
X145029016Y-75796780D01*
X144962135Y-75776564D01*
X144917618Y-75725189D01*
X144889024Y-75663870D01*
X144857534Y-75596339D01*
X144730826Y-75415380D01*
X144574620Y-75259174D01*
X144574616Y-75259171D01*
X144574615Y-75259170D01*
X144393666Y-75132468D01*
X144393662Y-75132466D01*
X144325185Y-75100535D01*
X144193450Y-75039106D01*
X144193447Y-75039105D01*
X144193445Y-75039104D01*
X143980070Y-74981930D01*
X143980062Y-74981929D01*
X143760002Y-74962677D01*
X143759998Y-74962677D01*
X143539937Y-74981929D01*
X143539929Y-74981930D01*
X143326554Y-75039104D01*
X143326548Y-75039107D01*
X143126340Y-75132465D01*
X143126338Y-75132466D01*
X142945377Y-75259175D01*
X142789175Y-75415377D01*
X142662466Y-75596338D01*
X142662465Y-75596340D01*
X142569107Y-75796548D01*
X142569104Y-75796554D01*
X142511930Y-76009929D01*
X142511929Y-76009937D01*
X142492677Y-76229997D01*
X133800500Y-76229997D01*
X133800500Y-73780000D01*
X161214540Y-73780000D01*
X161234326Y-73968256D01*
X161234327Y-73968259D01*
X161292818Y-74148277D01*
X161292821Y-74148284D01*
X161387467Y-74312216D01*
X161514129Y-74452888D01*
X161667265Y-74564148D01*
X161667270Y-74564151D01*
X161840192Y-74641142D01*
X161840197Y-74641144D01*
X162025354Y-74680500D01*
X162025355Y-74680500D01*
X162214644Y-74680500D01*
X162214646Y-74680500D01*
X162399803Y-74641144D01*
X162572730Y-74564151D01*
X162725871Y-74452888D01*
X162852533Y-74312216D01*
X162947179Y-74148284D01*
X163005674Y-73968256D01*
X163025460Y-73780000D01*
X163005674Y-73591744D01*
X162947179Y-73411716D01*
X162852533Y-73247784D01*
X162725871Y-73107112D01*
X162725870Y-73107111D01*
X162572734Y-72995851D01*
X162572729Y-72995848D01*
X162399807Y-72918857D01*
X162399802Y-72918855D01*
X162254001Y-72887865D01*
X162214646Y-72879500D01*
X162025354Y-72879500D01*
X161992897Y-72886398D01*
X161840197Y-72918855D01*
X161840192Y-72918857D01*
X161667270Y-72995848D01*
X161667265Y-72995851D01*
X161514129Y-73107111D01*
X161387466Y-73247785D01*
X161292821Y-73411715D01*
X161292818Y-73411722D01*
X161234327Y-73591740D01*
X161234326Y-73591744D01*
X161214540Y-73780000D01*
X133800500Y-73780000D01*
X133800500Y-66110571D01*
X139734540Y-66110571D01*
X139754326Y-66298827D01*
X139754327Y-66298830D01*
X139812818Y-66478848D01*
X139812821Y-66478855D01*
X139907467Y-66642787D01*
X139950772Y-66690881D01*
X139982650Y-66726286D01*
X140012880Y-66789277D01*
X140014500Y-66809258D01*
X140014500Y-71268461D01*
X140008430Y-71306779D01*
X139974326Y-71411744D01*
X139954540Y-71600000D01*
X139974326Y-71788256D01*
X139974327Y-71788259D01*
X140032818Y-71968277D01*
X140032821Y-71968284D01*
X140127467Y-72132216D01*
X140253522Y-72272214D01*
X140254129Y-72272888D01*
X140407265Y-72384148D01*
X140407270Y-72384151D01*
X140580192Y-72461142D01*
X140580197Y-72461144D01*
X140765354Y-72500500D01*
X140765355Y-72500500D01*
X140954644Y-72500500D01*
X140954646Y-72500500D01*
X141139803Y-72461144D01*
X141312730Y-72384151D01*
X141465871Y-72272888D01*
X141592533Y-72132216D01*
X141687179Y-71968284D01*
X141745674Y-71788256D01*
X141750746Y-71740000D01*
X142024540Y-71740000D01*
X142044326Y-71928256D01*
X142044327Y-71928259D01*
X142102818Y-72108277D01*
X142102821Y-72108284D01*
X142197467Y-72272216D01*
X142298251Y-72384148D01*
X142324129Y-72412888D01*
X142477265Y-72524148D01*
X142477270Y-72524151D01*
X142650192Y-72601142D01*
X142650197Y-72601144D01*
X142835354Y-72640500D01*
X142835355Y-72640500D01*
X143024644Y-72640500D01*
X143024646Y-72640500D01*
X143209803Y-72601144D01*
X143382730Y-72524151D01*
X143535871Y-72412888D01*
X143662533Y-72272216D01*
X143757179Y-72108284D01*
X143815674Y-71928256D01*
X143835460Y-71740000D01*
X143815674Y-71551744D01*
X143757179Y-71371716D01*
X143662533Y-71207784D01*
X143535871Y-71067112D01*
X143535870Y-71067111D01*
X143382734Y-70955851D01*
X143382729Y-70955848D01*
X143209807Y-70878857D01*
X143209802Y-70878855D01*
X143064001Y-70847865D01*
X143024646Y-70839500D01*
X142835354Y-70839500D01*
X142802897Y-70846398D01*
X142650197Y-70878855D01*
X142650192Y-70878857D01*
X142477270Y-70955848D01*
X142477265Y-70955851D01*
X142324129Y-71067111D01*
X142197466Y-71207785D01*
X142102821Y-71371715D01*
X142102818Y-71371722D01*
X142044327Y-71551740D01*
X142044326Y-71551744D01*
X142024540Y-71740000D01*
X141750746Y-71740000D01*
X141765460Y-71600000D01*
X141745674Y-71411744D01*
X141687179Y-71231716D01*
X141592533Y-71067784D01*
X141465871Y-70927112D01*
X141465870Y-70927111D01*
X141316615Y-70818671D01*
X141273949Y-70763341D01*
X141265500Y-70718353D01*
X141265500Y-69360000D01*
X171874540Y-69360000D01*
X171894326Y-69548256D01*
X171894327Y-69548259D01*
X171952818Y-69728277D01*
X171952821Y-69728284D01*
X172047467Y-69892216D01*
X172174129Y-70032888D01*
X172327265Y-70144148D01*
X172327270Y-70144151D01*
X172500192Y-70221142D01*
X172500197Y-70221144D01*
X172685354Y-70260500D01*
X172685355Y-70260500D01*
X172874644Y-70260500D01*
X172874646Y-70260500D01*
X173059803Y-70221144D01*
X173232730Y-70144151D01*
X173385871Y-70032888D01*
X173512533Y-69892216D01*
X173607179Y-69728284D01*
X173665674Y-69548256D01*
X173685460Y-69360000D01*
X173665674Y-69171744D01*
X173607179Y-68991716D01*
X173512533Y-68827784D01*
X173385871Y-68687112D01*
X173385870Y-68687111D01*
X173232734Y-68575851D01*
X173232729Y-68575848D01*
X173059807Y-68498857D01*
X173059802Y-68498855D01*
X172914001Y-68467865D01*
X172874646Y-68459500D01*
X172685354Y-68459500D01*
X172652897Y-68466398D01*
X172500197Y-68498855D01*
X172500192Y-68498857D01*
X172327270Y-68575848D01*
X172327265Y-68575851D01*
X172174129Y-68687111D01*
X172047466Y-68827785D01*
X171952821Y-68991715D01*
X171952818Y-68991722D01*
X171894327Y-69171740D01*
X171894326Y-69171744D01*
X171874540Y-69360000D01*
X141265500Y-69360000D01*
X141265500Y-66809258D01*
X141285185Y-66742219D01*
X141297350Y-66726286D01*
X141315891Y-66705693D01*
X141372533Y-66642787D01*
X141467179Y-66478855D01*
X141525674Y-66298827D01*
X141545460Y-66110571D01*
X141525674Y-65922315D01*
X141467179Y-65742287D01*
X141372533Y-65578355D01*
X141245871Y-65437683D01*
X141205407Y-65408284D01*
X141092734Y-65326422D01*
X141092729Y-65326419D01*
X140919807Y-65249428D01*
X140919802Y-65249426D01*
X140774001Y-65218436D01*
X140734646Y-65210071D01*
X140545354Y-65210071D01*
X140512897Y-65216969D01*
X140360197Y-65249426D01*
X140360192Y-65249428D01*
X140187270Y-65326419D01*
X140187265Y-65326422D01*
X140034129Y-65437682D01*
X139907466Y-65578356D01*
X139812821Y-65742286D01*
X139812818Y-65742293D01*
X139761205Y-65901144D01*
X139754326Y-65922315D01*
X139734540Y-66110571D01*
X133800500Y-66110571D01*
X133800500Y-66048687D01*
X133820185Y-65981648D01*
X133832350Y-65965715D01*
X133871427Y-65922315D01*
X133907533Y-65882216D01*
X134002179Y-65718284D01*
X134060674Y-65538256D01*
X134080460Y-65350000D01*
X134061274Y-65167458D01*
X134073843Y-65098732D01*
X134121575Y-65047708D01*
X134184595Y-65030500D01*
X138936607Y-65030500D01*
X138997029Y-65018481D01*
X139057452Y-65006463D01*
X139057455Y-65006461D01*
X139057458Y-65006461D01*
X139090787Y-64992654D01*
X139090786Y-64992654D01*
X139090792Y-64992652D01*
X139171286Y-64959312D01*
X139230119Y-64920000D01*
X139230120Y-64920000D01*
X139258995Y-64900705D01*
X139273733Y-64890858D01*
X139360858Y-64803733D01*
X139360858Y-64803731D01*
X139371066Y-64793524D01*
X139371067Y-64793521D01*
X141297818Y-62866771D01*
X141359139Y-62833288D01*
X141423814Y-62836522D01*
X141533757Y-62872246D01*
X141743713Y-62905500D01*
X141743714Y-62905500D01*
X141956286Y-62905500D01*
X141956287Y-62905500D01*
X142166243Y-62872246D01*
X142368412Y-62806557D01*
X142557816Y-62710051D01*
X142599866Y-62679500D01*
X142729786Y-62585109D01*
X142729788Y-62585106D01*
X142729792Y-62585104D01*
X142880104Y-62434792D01*
X142999683Y-62270204D01*
X143055011Y-62227540D01*
X143124624Y-62221561D01*
X143186420Y-62254166D01*
X143200313Y-62270199D01*
X143263958Y-62357799D01*
X143319896Y-62434792D01*
X143470213Y-62585109D01*
X143642179Y-62710048D01*
X143642181Y-62710049D01*
X143642184Y-62710051D01*
X143831588Y-62806557D01*
X144033757Y-62872246D01*
X144243713Y-62905500D01*
X144243714Y-62905500D01*
X144456286Y-62905500D01*
X144456287Y-62905500D01*
X144666243Y-62872246D01*
X144868412Y-62806557D01*
X145057816Y-62710051D01*
X145099866Y-62679500D01*
X145229786Y-62585109D01*
X145229788Y-62585106D01*
X145229792Y-62585104D01*
X145380104Y-62434792D01*
X145499991Y-62269779D01*
X145555320Y-62227115D01*
X145624933Y-62221136D01*
X145686729Y-62253741D01*
X145700627Y-62269781D01*
X145820272Y-62434459D01*
X145820276Y-62434464D01*
X145970535Y-62584723D01*
X145970540Y-62584727D01*
X146142442Y-62709620D01*
X146331782Y-62806095D01*
X146533871Y-62871757D01*
X146600000Y-62882231D01*
X146600000Y-61834145D01*
X146666657Y-61872630D01*
X146787465Y-61905000D01*
X146912535Y-61905000D01*
X147033343Y-61872630D01*
X147100000Y-61834145D01*
X147100000Y-62882230D01*
X147166126Y-62871757D01*
X147166129Y-62871757D01*
X147368217Y-62806095D01*
X147557557Y-62709620D01*
X147729459Y-62584727D01*
X147729464Y-62584723D01*
X147879723Y-62434464D01*
X147879727Y-62434459D01*
X148004620Y-62262557D01*
X148101095Y-62073217D01*
X148166757Y-61871130D01*
X148166757Y-61871127D01*
X148197030Y-61680000D01*
X147254146Y-61680000D01*
X147292630Y-61613343D01*
X147325000Y-61492535D01*
X147325000Y-61367465D01*
X147292630Y-61246657D01*
X147254146Y-61180000D01*
X148197030Y-61180000D01*
X148166757Y-60988872D01*
X148166757Y-60988869D01*
X148101095Y-60786782D01*
X148004620Y-60597442D01*
X147879727Y-60425540D01*
X147879723Y-60425535D01*
X147729464Y-60275276D01*
X147729459Y-60275272D01*
X147557557Y-60150379D01*
X147368215Y-60053903D01*
X147166124Y-59988241D01*
X147100000Y-59977768D01*
X147100000Y-61025854D01*
X147033343Y-60987370D01*
X146912535Y-60955000D01*
X146787465Y-60955000D01*
X146666657Y-60987370D01*
X146600000Y-61025854D01*
X146600000Y-59977768D01*
X146599999Y-59977768D01*
X146533875Y-59988241D01*
X146331784Y-60053903D01*
X146142442Y-60150379D01*
X145970540Y-60275272D01*
X145970535Y-60275276D01*
X145820276Y-60425535D01*
X145820272Y-60425540D01*
X145700627Y-60590218D01*
X145645297Y-60632884D01*
X145575684Y-60638863D01*
X145513889Y-60606257D01*
X145499991Y-60590218D01*
X145380109Y-60425214D01*
X145380105Y-60425209D01*
X145229786Y-60274890D01*
X145057820Y-60149951D01*
X144868414Y-60053444D01*
X144868413Y-60053443D01*
X144868412Y-60053443D01*
X144666243Y-59987754D01*
X144666241Y-59987753D01*
X144666240Y-59987753D01*
X144504957Y-59962208D01*
X144456287Y-59954500D01*
X144243713Y-59954500D01*
X144195042Y-59962208D01*
X144033760Y-59987753D01*
X144033757Y-59987754D01*
X143833666Y-60052768D01*
X143831585Y-60053444D01*
X143642179Y-60149951D01*
X143470213Y-60274890D01*
X143319894Y-60425209D01*
X143319890Y-60425214D01*
X143200318Y-60589793D01*
X143144989Y-60632459D01*
X143075375Y-60638438D01*
X143013580Y-60605833D01*
X142999682Y-60589793D01*
X142880109Y-60425214D01*
X142880105Y-60425209D01*
X142729786Y-60274890D01*
X142557820Y-60149951D01*
X142368414Y-60053444D01*
X142368413Y-60053443D01*
X142368412Y-60053443D01*
X142166243Y-59987754D01*
X142166241Y-59987753D01*
X142166240Y-59987753D01*
X142004957Y-59962208D01*
X141956287Y-59954500D01*
X141743713Y-59954500D01*
X141695042Y-59962208D01*
X141533760Y-59987753D01*
X141533757Y-59987754D01*
X141333666Y-60052768D01*
X141331585Y-60053444D01*
X141142179Y-60149951D01*
X140970213Y-60274890D01*
X140819894Y-60425209D01*
X140819890Y-60425214D01*
X140700318Y-60589793D01*
X140644989Y-60632459D01*
X140575375Y-60638438D01*
X140513580Y-60605833D01*
X140499682Y-60589793D01*
X140380109Y-60425214D01*
X140380105Y-60425209D01*
X140229786Y-60274890D01*
X140057820Y-60149951D01*
X139868414Y-60053444D01*
X139868413Y-60053443D01*
X139868412Y-60053443D01*
X139666243Y-59987754D01*
X139666241Y-59987753D01*
X139666240Y-59987753D01*
X139504957Y-59962208D01*
X139456287Y-59954500D01*
X139243713Y-59954500D01*
X139195042Y-59962208D01*
X139033760Y-59987753D01*
X139033757Y-59987754D01*
X138833666Y-60052768D01*
X138831585Y-60053444D01*
X138642179Y-60149951D01*
X138470215Y-60274889D01*
X138331398Y-60413706D01*
X138270075Y-60447190D01*
X138200383Y-60442206D01*
X138144450Y-60400334D01*
X138138178Y-60391120D01*
X138042712Y-60236344D01*
X137918657Y-60112289D01*
X137918656Y-60112288D01*
X137822158Y-60052768D01*
X137769336Y-60020187D01*
X137769331Y-60020185D01*
X137753684Y-60015000D01*
X137602797Y-59965001D01*
X137602795Y-59965000D01*
X137500010Y-59954500D01*
X136199998Y-59954500D01*
X136199981Y-59954501D01*
X136097203Y-59965000D01*
X136097200Y-59965001D01*
X135930668Y-60020185D01*
X135930663Y-60020187D01*
X135781342Y-60112289D01*
X135657289Y-60236342D01*
X135565187Y-60385663D01*
X135565185Y-60385668D01*
X135548617Y-60435668D01*
X135510001Y-60552203D01*
X135510001Y-60552204D01*
X135510000Y-60552204D01*
X135499500Y-60654983D01*
X135499500Y-62205001D01*
X135499501Y-62205018D01*
X135510000Y-62307796D01*
X135510001Y-62307799D01*
X135551830Y-62434028D01*
X135554232Y-62503856D01*
X135518500Y-62563898D01*
X135455980Y-62595091D01*
X135409934Y-62594650D01*
X135358015Y-62584323D01*
X135333767Y-62579500D01*
X135166233Y-62579500D01*
X135166228Y-62579500D01*
X135001925Y-62612182D01*
X135001917Y-62612184D01*
X134847139Y-62676295D01*
X134707837Y-62769373D01*
X134589373Y-62887837D01*
X134496295Y-63027139D01*
X134432184Y-63181917D01*
X134432182Y-63181925D01*
X134399500Y-63346228D01*
X134399500Y-63513771D01*
X134422880Y-63631309D01*
X134416653Y-63700900D01*
X134373790Y-63756078D01*
X134307900Y-63779322D01*
X134301263Y-63779500D01*
X134169206Y-63779500D01*
X134102167Y-63759815D01*
X134056412Y-63707011D01*
X134046468Y-63637853D01*
X134051273Y-63617187D01*
X134060674Y-63588256D01*
X134080460Y-63400000D01*
X134060674Y-63211744D01*
X134002179Y-63031716D01*
X133907533Y-62867784D01*
X133780871Y-62727112D01*
X133780870Y-62727111D01*
X133627734Y-62615851D01*
X133627729Y-62615848D01*
X133454807Y-62538857D01*
X133454802Y-62538855D01*
X133309001Y-62507865D01*
X133269646Y-62499500D01*
X133080354Y-62499500D01*
X133047897Y-62506398D01*
X132895197Y-62538855D01*
X132895192Y-62538857D01*
X132722270Y-62615848D01*
X132722265Y-62615851D01*
X132569129Y-62727111D01*
X132442466Y-62867785D01*
X132347821Y-63031715D01*
X132347818Y-63031722D01*
X132294047Y-63197214D01*
X132289326Y-63211744D01*
X132281951Y-63281917D01*
X132269540Y-63400000D01*
X132286752Y-63563771D01*
X132289326Y-63588256D01*
X132298725Y-63617183D01*
X132300721Y-63687022D01*
X132264641Y-63746855D01*
X132201940Y-63777684D01*
X132180794Y-63779500D01*
X127985453Y-63779500D01*
X127918414Y-63759815D01*
X127897772Y-63743181D01*
X127315836Y-63161245D01*
X127282351Y-63099922D01*
X127287335Y-63030230D01*
X127329207Y-62974297D01*
X127384117Y-62951092D01*
X127522308Y-62929204D01*
X127566238Y-62922247D01*
X127566238Y-62922246D01*
X127566243Y-62922246D01*
X127768412Y-62856557D01*
X127957816Y-62760051D01*
X128004275Y-62726297D01*
X128129786Y-62635109D01*
X128129788Y-62635106D01*
X128129792Y-62635104D01*
X128280104Y-62484792D01*
X128399991Y-62319779D01*
X128455320Y-62277115D01*
X128524933Y-62271136D01*
X128586729Y-62303741D01*
X128600627Y-62319781D01*
X128720272Y-62484459D01*
X128720276Y-62484464D01*
X128870535Y-62634723D01*
X128870540Y-62634727D01*
X129042442Y-62759620D01*
X129231782Y-62856095D01*
X129433871Y-62921757D01*
X129500000Y-62932231D01*
X129500000Y-61884145D01*
X129566657Y-61922630D01*
X129687465Y-61955000D01*
X129812535Y-61955000D01*
X129933343Y-61922630D01*
X130000000Y-61884145D01*
X130000000Y-62932230D01*
X130066126Y-62921757D01*
X130066129Y-62921757D01*
X130268217Y-62856095D01*
X130457557Y-62759620D01*
X130629459Y-62634727D01*
X130629464Y-62634723D01*
X130779723Y-62484464D01*
X130779727Y-62484459D01*
X130904620Y-62312557D01*
X131001095Y-62123217D01*
X131066757Y-61921130D01*
X131066757Y-61921127D01*
X131097030Y-61730000D01*
X130154146Y-61730000D01*
X130192630Y-61663343D01*
X130225000Y-61542535D01*
X130225000Y-61417465D01*
X130192630Y-61296657D01*
X130154146Y-61230000D01*
X131097030Y-61230000D01*
X131066757Y-61038872D01*
X131066757Y-61038869D01*
X131001095Y-60836782D01*
X130904620Y-60647442D01*
X130779727Y-60475540D01*
X130779723Y-60475535D01*
X130629464Y-60325276D01*
X130629459Y-60325272D01*
X130457557Y-60200379D01*
X130268215Y-60103903D01*
X130066124Y-60038241D01*
X130000000Y-60027768D01*
X130000000Y-61075854D01*
X129933343Y-61037370D01*
X129812535Y-61005000D01*
X129687465Y-61005000D01*
X129566657Y-61037370D01*
X129500000Y-61075854D01*
X129500000Y-60027768D01*
X129499999Y-60027768D01*
X129433875Y-60038241D01*
X129231784Y-60103903D01*
X129042442Y-60200379D01*
X128870540Y-60325272D01*
X128870535Y-60325276D01*
X128720276Y-60475535D01*
X128720272Y-60475540D01*
X128600627Y-60640218D01*
X128545297Y-60682884D01*
X128475684Y-60688863D01*
X128413889Y-60656257D01*
X128399991Y-60640218D01*
X128280109Y-60475214D01*
X128280105Y-60475209D01*
X128129786Y-60324890D01*
X127957820Y-60199951D01*
X127768414Y-60103444D01*
X127768413Y-60103443D01*
X127768412Y-60103443D01*
X127566243Y-60037754D01*
X127566241Y-60037753D01*
X127566240Y-60037753D01*
X127404957Y-60012208D01*
X127356287Y-60004500D01*
X127143713Y-60004500D01*
X127095042Y-60012208D01*
X126933760Y-60037753D01*
X126731585Y-60103444D01*
X126542179Y-60199951D01*
X126370213Y-60324890D01*
X126219894Y-60475209D01*
X126219890Y-60475214D01*
X126100318Y-60639793D01*
X126044989Y-60682459D01*
X125975375Y-60688438D01*
X125913580Y-60655833D01*
X125899682Y-60639793D01*
X125780109Y-60475214D01*
X125780105Y-60475209D01*
X125629786Y-60324890D01*
X125457820Y-60199951D01*
X125268414Y-60103444D01*
X125268413Y-60103443D01*
X125268412Y-60103443D01*
X125066243Y-60037754D01*
X125066241Y-60037753D01*
X125066240Y-60037753D01*
X124904957Y-60012208D01*
X124856287Y-60004500D01*
X124643713Y-60004500D01*
X124595042Y-60012208D01*
X124433760Y-60037753D01*
X124231585Y-60103444D01*
X124042179Y-60199951D01*
X123870213Y-60324890D01*
X123719894Y-60475209D01*
X123719890Y-60475214D01*
X123600318Y-60639793D01*
X123544989Y-60682459D01*
X123475375Y-60688438D01*
X123413580Y-60655833D01*
X123399682Y-60639793D01*
X123280109Y-60475214D01*
X123280105Y-60475209D01*
X123129786Y-60324890D01*
X122957820Y-60199951D01*
X122768414Y-60103444D01*
X122768413Y-60103443D01*
X122768412Y-60103443D01*
X122566243Y-60037754D01*
X122566241Y-60037753D01*
X122566240Y-60037753D01*
X122404957Y-60012208D01*
X122356287Y-60004500D01*
X122143713Y-60004500D01*
X122095042Y-60012208D01*
X121933760Y-60037753D01*
X121731585Y-60103444D01*
X121542179Y-60199951D01*
X121370215Y-60324889D01*
X121231398Y-60463706D01*
X121170075Y-60497190D01*
X121100383Y-60492206D01*
X121044450Y-60450334D01*
X121038178Y-60441120D01*
X120998965Y-60377546D01*
X120942712Y-60286344D01*
X120818656Y-60162288D01*
X120709864Y-60095185D01*
X120669336Y-60070187D01*
X120669331Y-60070185D01*
X120648375Y-60063241D01*
X120502797Y-60015001D01*
X120502795Y-60015000D01*
X120400010Y-60004500D01*
X119099998Y-60004500D01*
X119099981Y-60004501D01*
X118997203Y-60015000D01*
X118997200Y-60015001D01*
X118830668Y-60070185D01*
X118830663Y-60070187D01*
X118681342Y-60162289D01*
X118557289Y-60286342D01*
X118465187Y-60435663D01*
X118465185Y-60435668D01*
X118443689Y-60500540D01*
X118410001Y-60602203D01*
X118410001Y-60602204D01*
X118410000Y-60602204D01*
X118399500Y-60704983D01*
X118399500Y-62255001D01*
X118399501Y-62255018D01*
X118410000Y-62357796D01*
X118410001Y-62357799D01*
X118451830Y-62484028D01*
X118454232Y-62553856D01*
X118418500Y-62613898D01*
X118355980Y-62645091D01*
X118309934Y-62644650D01*
X118258015Y-62634323D01*
X118233767Y-62629500D01*
X118066233Y-62629500D01*
X118066228Y-62629500D01*
X117901925Y-62662182D01*
X117901917Y-62662184D01*
X117747139Y-62726295D01*
X117607837Y-62819373D01*
X117489373Y-62937837D01*
X117396295Y-63077139D01*
X117332184Y-63231917D01*
X117332182Y-63231925D01*
X117299500Y-63396228D01*
X101998062Y-63396228D01*
X102001099Y-60839999D01*
X102779678Y-60839999D01*
X102779678Y-60840000D01*
X102798923Y-61047691D01*
X102798923Y-61047693D01*
X102798924Y-61047696D01*
X102850794Y-61230000D01*
X102856007Y-61248322D01*
X102940231Y-61417465D01*
X102948981Y-61435038D01*
X103074682Y-61601493D01*
X103228829Y-61742016D01*
X103406172Y-61851823D01*
X103600673Y-61927173D01*
X103805707Y-61965500D01*
X103805710Y-61965500D01*
X104014290Y-61965500D01*
X104014293Y-61965500D01*
X104219327Y-61927173D01*
X104413828Y-61851823D01*
X104591171Y-61742016D01*
X104745318Y-61601493D01*
X104871019Y-61435038D01*
X104963994Y-61248319D01*
X105021076Y-61047696D01*
X105040322Y-60840000D01*
X105021076Y-60632304D01*
X104963994Y-60431681D01*
X104871019Y-60244962D01*
X104745318Y-60078507D01*
X104736191Y-60070187D01*
X104591172Y-59937985D01*
X104591171Y-59937984D01*
X104413828Y-59828177D01*
X104413827Y-59828176D01*
X104241735Y-59761508D01*
X104219327Y-59752827D01*
X104014293Y-59714500D01*
X103805707Y-59714500D01*
X103600673Y-59752827D01*
X103600670Y-59752827D01*
X103600670Y-59752828D01*
X103406172Y-59828176D01*
X103406171Y-59828177D01*
X103228827Y-59937985D01*
X103074683Y-60078505D01*
X102948981Y-60244961D01*
X102856007Y-60431677D01*
X102843621Y-60475209D01*
X102807489Y-60602203D01*
X102798923Y-60632308D01*
X102779678Y-60839999D01*
X102001099Y-60839999D01*
X102011503Y-52083961D01*
X102031267Y-52016946D01*
X102084126Y-51971254D01*
X102153296Y-51961392D01*
X102216817Y-51990493D01*
X102254522Y-52049316D01*
X102257120Y-52059918D01*
X102273535Y-52142444D01*
X102273539Y-52142458D01*
X102284423Y-52168734D01*
X102320685Y-52256281D01*
X102320687Y-52256284D01*
X102320688Y-52256286D01*
X102327080Y-52265851D01*
X102354914Y-52307507D01*
X102354915Y-52307509D01*
X102389141Y-52358733D01*
X102480586Y-52450178D01*
X102480608Y-52450198D01*
X102709762Y-52679352D01*
X102743247Y-52740675D01*
X102741856Y-52799126D01*
X102714938Y-52899586D01*
X102714936Y-52899596D01*
X102694341Y-53134999D01*
X102694341Y-53135000D01*
X102714936Y-53370403D01*
X102714938Y-53370413D01*
X102776094Y-53598655D01*
X102776096Y-53598659D01*
X102776097Y-53598663D01*
X102853087Y-53763768D01*
X102875965Y-53812830D01*
X102875967Y-53812834D01*
X102929417Y-53889168D01*
X103011501Y-54006396D01*
X103011506Y-54006402D01*
X103178597Y-54173493D01*
X103178603Y-54173498D01*
X103364158Y-54303425D01*
X103407783Y-54358002D01*
X103414977Y-54427500D01*
X103383454Y-54489855D01*
X103364158Y-54506575D01*
X103178597Y-54636505D01*
X103011505Y-54803597D01*
X102875965Y-54997169D01*
X102875964Y-54997171D01*
X102776098Y-55211335D01*
X102776094Y-55211344D01*
X102714938Y-55439586D01*
X102714936Y-55439596D01*
X102694341Y-55674999D01*
X102694341Y-55675000D01*
X102714936Y-55910403D01*
X102714938Y-55910413D01*
X102776094Y-56138655D01*
X102776096Y-56138659D01*
X102776097Y-56138663D01*
X102785014Y-56157785D01*
X102875965Y-56352830D01*
X102875967Y-56352834D01*
X102980233Y-56501740D01*
X103011505Y-56546401D01*
X103178599Y-56713495D01*
X103275384Y-56781265D01*
X103372165Y-56849032D01*
X103372167Y-56849033D01*
X103372170Y-56849035D01*
X103586337Y-56948903D01*
X103814592Y-57010063D01*
X104002918Y-57026539D01*
X104049999Y-57030659D01*
X104050000Y-57030659D01*
X104050001Y-57030659D01*
X104089234Y-57027226D01*
X104285408Y-57010063D01*
X104513663Y-56948903D01*
X104727830Y-56849035D01*
X104921401Y-56713495D01*
X105088495Y-56546401D01*
X105218425Y-56360842D01*
X105273002Y-56317217D01*
X105342500Y-56310023D01*
X105404855Y-56341546D01*
X105421575Y-56360842D01*
X105551500Y-56546395D01*
X105551505Y-56546401D01*
X105718599Y-56713495D01*
X105815384Y-56781265D01*
X105912165Y-56849032D01*
X105912167Y-56849033D01*
X105912170Y-56849035D01*
X106126337Y-56948903D01*
X106354592Y-57010063D01*
X106542918Y-57026539D01*
X106589999Y-57030659D01*
X106590000Y-57030659D01*
X106590001Y-57030659D01*
X106629234Y-57027226D01*
X106825408Y-57010063D01*
X107053663Y-56948903D01*
X107267830Y-56849035D01*
X107461401Y-56713495D01*
X107628495Y-56546401D01*
X107764035Y-56352830D01*
X107863903Y-56138663D01*
X107925063Y-55910408D01*
X107945659Y-55675000D01*
X107925063Y-55439592D01*
X107863903Y-55211337D01*
X107764035Y-54997171D01*
X107758425Y-54989158D01*
X107628494Y-54803597D01*
X107461402Y-54636506D01*
X107461396Y-54636501D01*
X107275842Y-54506575D01*
X107232217Y-54451998D01*
X107225023Y-54382500D01*
X107256546Y-54320145D01*
X107275842Y-54303425D01*
X107298026Y-54287891D01*
X107461401Y-54173495D01*
X107628495Y-54006401D01*
X107764035Y-53812830D01*
X107863903Y-53598663D01*
X107897107Y-53474739D01*
X107933471Y-53415081D01*
X107996318Y-53384551D01*
X108065694Y-53392845D01*
X108104563Y-53419153D01*
X113529688Y-58844279D01*
X113563173Y-58905602D01*
X113565328Y-58944919D01*
X113559540Y-58999998D01*
X113559540Y-59000000D01*
X113579326Y-59188256D01*
X113579327Y-59188259D01*
X113637818Y-59368277D01*
X113637821Y-59368284D01*
X113732467Y-59532216D01*
X113859129Y-59672888D01*
X113981105Y-59761508D01*
X114023771Y-59816837D01*
X114029750Y-59886451D01*
X113997145Y-59948246D01*
X113995902Y-59949507D01*
X113871269Y-60074140D01*
X113784144Y-60161264D01*
X113784138Y-60161272D01*
X113715690Y-60263708D01*
X113715688Y-60263713D01*
X113668540Y-60377538D01*
X113668537Y-60377546D01*
X113664005Y-60400334D01*
X113645732Y-60492206D01*
X113645349Y-60494130D01*
X113645345Y-60494146D01*
X113644500Y-60498386D01*
X113644500Y-61041611D01*
X113655874Y-61098791D01*
X113657578Y-61135942D01*
X113647693Y-61230000D01*
X113644540Y-61260000D01*
X113664326Y-61448256D01*
X113664327Y-61448259D01*
X113722818Y-61628277D01*
X113722821Y-61628284D01*
X113817467Y-61792216D01*
X113933539Y-61921127D01*
X113944129Y-61932888D01*
X114097265Y-62044148D01*
X114097270Y-62044151D01*
X114270192Y-62121142D01*
X114270197Y-62121144D01*
X114455354Y-62160500D01*
X114455355Y-62160500D01*
X114644644Y-62160500D01*
X114644646Y-62160500D01*
X114829803Y-62121144D01*
X115002730Y-62044151D01*
X115155871Y-61932888D01*
X115282533Y-61792216D01*
X115377179Y-61628284D01*
X115435674Y-61448256D01*
X115455460Y-61260000D01*
X115435674Y-61071744D01*
X115377179Y-60891716D01*
X115282533Y-60727784D01*
X115226198Y-60665218D01*
X115221156Y-60659618D01*
X115190926Y-60596627D01*
X115199551Y-60527291D01*
X115225625Y-60488965D01*
X115426118Y-60288473D01*
X115675857Y-60038734D01*
X115682027Y-60029501D01*
X115744311Y-59936286D01*
X115791463Y-59822452D01*
X115815500Y-59701606D01*
X115815500Y-57931313D01*
X115791463Y-57810467D01*
X115744311Y-57696633D01*
X115744310Y-57696632D01*
X115744307Y-57696626D01*
X115675859Y-57594187D01*
X115632814Y-57551142D01*
X115588733Y-57507061D01*
X115588732Y-57507060D01*
X114771672Y-56690000D01*
X115774540Y-56690000D01*
X115794326Y-56878256D01*
X115794327Y-56878259D01*
X115852818Y-57058277D01*
X115852821Y-57058284D01*
X115947467Y-57222216D01*
X116012228Y-57294140D01*
X116074129Y-57362888D01*
X116227265Y-57474148D01*
X116227270Y-57474151D01*
X116400192Y-57551142D01*
X116400197Y-57551144D01*
X116585354Y-57590500D01*
X116585355Y-57590500D01*
X116774644Y-57590500D01*
X116774646Y-57590500D01*
X116959803Y-57551144D01*
X117132730Y-57474151D01*
X117285871Y-57362888D01*
X117412533Y-57222216D01*
X117507179Y-57058284D01*
X117565674Y-56878256D01*
X117585460Y-56690000D01*
X117565674Y-56501744D01*
X117507179Y-56321716D01*
X117412533Y-56157784D01*
X117285871Y-56017112D01*
X117285870Y-56017111D01*
X117132734Y-55905851D01*
X117132729Y-55905848D01*
X116959807Y-55828857D01*
X116959802Y-55828855D01*
X116814001Y-55797865D01*
X116774646Y-55789500D01*
X116585354Y-55789500D01*
X116552897Y-55796398D01*
X116400197Y-55828855D01*
X116400192Y-55828857D01*
X116227270Y-55905848D01*
X116227265Y-55905851D01*
X116074129Y-56017111D01*
X115947466Y-56157785D01*
X115852821Y-56321715D01*
X115852818Y-56321722D01*
X115794327Y-56501740D01*
X115794326Y-56501744D01*
X115774540Y-56690000D01*
X114771672Y-56690000D01*
X112243853Y-54162181D01*
X112210368Y-54100858D01*
X112215352Y-54031166D01*
X112257224Y-53975233D01*
X112322688Y-53950816D01*
X112331534Y-53950500D01*
X112394644Y-53950500D01*
X112394646Y-53950500D01*
X112579803Y-53911144D01*
X112752730Y-53834151D01*
X112905871Y-53722888D01*
X113032533Y-53582216D01*
X113127179Y-53418284D01*
X113185674Y-53238256D01*
X113205460Y-53050000D01*
X113185674Y-52861744D01*
X113127179Y-52681716D01*
X113032533Y-52517784D01*
X112905871Y-52377112D01*
X112905870Y-52377111D01*
X112752734Y-52265851D01*
X112752729Y-52265848D01*
X112579807Y-52188857D01*
X112579802Y-52188855D01*
X112434001Y-52157865D01*
X112394646Y-52149500D01*
X112205354Y-52149500D01*
X112172897Y-52156398D01*
X112020197Y-52188855D01*
X112020192Y-52188857D01*
X111847270Y-52265848D01*
X111847265Y-52265851D01*
X111694129Y-52377111D01*
X111567466Y-52517785D01*
X111472821Y-52681715D01*
X111472818Y-52681722D01*
X111414981Y-52859727D01*
X111414326Y-52861744D01*
X111404914Y-52951295D01*
X111396713Y-53029321D01*
X111370128Y-53093936D01*
X111312831Y-53133920D01*
X111243012Y-53136580D01*
X111185711Y-53104040D01*
X108285009Y-50203338D01*
X108285006Y-50203334D01*
X108285006Y-50203335D01*
X108277939Y-50196268D01*
X108277939Y-50196267D01*
X108190814Y-50109142D01*
X108136047Y-50072548D01*
X108136048Y-50072548D01*
X108136046Y-50072546D01*
X108088371Y-50040690D01*
X108088367Y-50040688D01*
X108007873Y-50007347D01*
X108001649Y-50004769D01*
X107974534Y-49993537D01*
X107964508Y-49991543D01*
X107914110Y-49981518D01*
X107853692Y-49969500D01*
X107853475Y-49969479D01*
X107853368Y-49969435D01*
X107847713Y-49968311D01*
X107847926Y-49967238D01*
X107788688Y-49943317D01*
X107764055Y-49917199D01*
X107628494Y-49723597D01*
X107461402Y-49556506D01*
X107461396Y-49556501D01*
X107275842Y-49426575D01*
X107232217Y-49371998D01*
X107225023Y-49302500D01*
X107256546Y-49240145D01*
X107275842Y-49223425D01*
X107298026Y-49207891D01*
X107461401Y-49093495D01*
X107628495Y-48926401D01*
X107763652Y-48733377D01*
X107818229Y-48689752D01*
X107865227Y-48680500D01*
X115329894Y-48680500D01*
X115396933Y-48700185D01*
X115442688Y-48752989D01*
X115453214Y-48817460D01*
X115444540Y-48900000D01*
X115464326Y-49088256D01*
X115464327Y-49088259D01*
X115522818Y-49268277D01*
X115522821Y-49268284D01*
X115617467Y-49432216D01*
X115701461Y-49525500D01*
X115744129Y-49572888D01*
X115897265Y-49684148D01*
X115897270Y-49684151D01*
X115959192Y-49711721D01*
X116012429Y-49756971D01*
X116032750Y-49823821D01*
X116013704Y-49891044D01*
X115961338Y-49937299D01*
X115959192Y-49938279D01*
X115897270Y-49965848D01*
X115897265Y-49965851D01*
X115744129Y-50077111D01*
X115617466Y-50217785D01*
X115522821Y-50381715D01*
X115522818Y-50381722D01*
X115468074Y-50550208D01*
X115464326Y-50561744D01*
X115444540Y-50750000D01*
X115464326Y-50938256D01*
X115464327Y-50938259D01*
X115522818Y-51118277D01*
X115522821Y-51118284D01*
X115617467Y-51282216D01*
X115735535Y-51413343D01*
X115744129Y-51422888D01*
X115897265Y-51534148D01*
X115897270Y-51534151D01*
X116070192Y-51611142D01*
X116070197Y-51611144D01*
X116255354Y-51650500D01*
X116255355Y-51650500D01*
X116444644Y-51650500D01*
X116444646Y-51650500D01*
X116629803Y-51611144D01*
X116802730Y-51534151D01*
X116955871Y-51422888D01*
X117082533Y-51282216D01*
X117177179Y-51118284D01*
X117226600Y-50966181D01*
X117266037Y-50908507D01*
X117330396Y-50881308D01*
X117344531Y-50880500D01*
X118275500Y-50880500D01*
X118342539Y-50900185D01*
X118388294Y-50952989D01*
X118399500Y-51004500D01*
X118399500Y-52480001D01*
X118399501Y-52480018D01*
X118410000Y-52582796D01*
X118410001Y-52582799D01*
X118443690Y-52684464D01*
X118450329Y-52704500D01*
X118451830Y-52709028D01*
X118454232Y-52778856D01*
X118418500Y-52838898D01*
X118355980Y-52870091D01*
X118309934Y-52869650D01*
X118258015Y-52859323D01*
X118233767Y-52854500D01*
X118066233Y-52854500D01*
X118066228Y-52854500D01*
X117901925Y-52887182D01*
X117901917Y-52887184D01*
X117747139Y-52951295D01*
X117607837Y-53044373D01*
X117489373Y-53162837D01*
X117396295Y-53302139D01*
X117332184Y-53456917D01*
X117332182Y-53456925D01*
X117299500Y-53621228D01*
X117299500Y-53788771D01*
X117332182Y-53953074D01*
X117332184Y-53953082D01*
X117396295Y-54107860D01*
X117489373Y-54247162D01*
X117607837Y-54365626D01*
X117666765Y-54405000D01*
X117747137Y-54458703D01*
X117901918Y-54522816D01*
X118066228Y-54555499D01*
X118066232Y-54555500D01*
X118066233Y-54555500D01*
X118233768Y-54555500D01*
X118233769Y-54555499D01*
X118398082Y-54522816D01*
X118552863Y-54458703D01*
X118692162Y-54365626D01*
X118810626Y-54247162D01*
X118903703Y-54107863D01*
X118967816Y-53953082D01*
X119000500Y-53788767D01*
X119000500Y-53621233D01*
X118967816Y-53456918D01*
X118921916Y-53346108D01*
X118914448Y-53276641D01*
X118945723Y-53214162D01*
X119005811Y-53178509D01*
X119049081Y-53175299D01*
X119052300Y-53175627D01*
X119099991Y-53180500D01*
X120400008Y-53180499D01*
X120502797Y-53169999D01*
X120669334Y-53114814D01*
X120818656Y-53022712D01*
X120942712Y-52898656D01*
X121034814Y-52749334D01*
X121034814Y-52749331D01*
X121038178Y-52743879D01*
X121090126Y-52697154D01*
X121159088Y-52685931D01*
X121223170Y-52713774D01*
X121231398Y-52721294D01*
X121370213Y-52860109D01*
X121542179Y-52985048D01*
X121542181Y-52985049D01*
X121542184Y-52985051D01*
X121731588Y-53081557D01*
X121933757Y-53147246D01*
X122143713Y-53180500D01*
X122143714Y-53180500D01*
X122356286Y-53180500D01*
X122356287Y-53180500D01*
X122566243Y-53147246D01*
X122768412Y-53081557D01*
X122957816Y-52985051D01*
X123004275Y-52951297D01*
X123129786Y-52860109D01*
X123129788Y-52860106D01*
X123129792Y-52860104D01*
X123280104Y-52709792D01*
X123399683Y-52545204D01*
X123455011Y-52502540D01*
X123524624Y-52496561D01*
X123586420Y-52529166D01*
X123600313Y-52545199D01*
X123701491Y-52684459D01*
X123719896Y-52709792D01*
X123870213Y-52860109D01*
X124042179Y-52985048D01*
X124042181Y-52985049D01*
X124042184Y-52985051D01*
X124231588Y-53081557D01*
X124433757Y-53147246D01*
X124643713Y-53180500D01*
X124643714Y-53180500D01*
X124856286Y-53180500D01*
X124856287Y-53180500D01*
X125066243Y-53147246D01*
X125268412Y-53081557D01*
X125457816Y-52985051D01*
X125504275Y-52951297D01*
X125629786Y-52860109D01*
X125629788Y-52860106D01*
X125629792Y-52860104D01*
X125780104Y-52709792D01*
X125899683Y-52545204D01*
X125955011Y-52502540D01*
X126024624Y-52496561D01*
X126086420Y-52529166D01*
X126100313Y-52545199D01*
X126201491Y-52684459D01*
X126219896Y-52709792D01*
X126370213Y-52860109D01*
X126542179Y-52985048D01*
X126542181Y-52985049D01*
X126542184Y-52985051D01*
X126731588Y-53081557D01*
X126933757Y-53147246D01*
X127143713Y-53180500D01*
X127143714Y-53180500D01*
X127356286Y-53180500D01*
X127356287Y-53180500D01*
X127566243Y-53147246D01*
X127768412Y-53081557D01*
X127957816Y-52985051D01*
X128004275Y-52951297D01*
X128129786Y-52860109D01*
X128129788Y-52860106D01*
X128129792Y-52860104D01*
X128280104Y-52709792D01*
X128399683Y-52545204D01*
X128455011Y-52502540D01*
X128524624Y-52496561D01*
X128586420Y-52529166D01*
X128600313Y-52545199D01*
X128701491Y-52684459D01*
X128719896Y-52709792D01*
X128870213Y-52860109D01*
X129042179Y-52985048D01*
X129042181Y-52985049D01*
X129042184Y-52985051D01*
X129231588Y-53081557D01*
X129433757Y-53147246D01*
X129643713Y-53180500D01*
X129643714Y-53180500D01*
X129856286Y-53180500D01*
X129856287Y-53180500D01*
X130066243Y-53147246D01*
X130268412Y-53081557D01*
X130457816Y-52985051D01*
X130504275Y-52951297D01*
X130629786Y-52860109D01*
X130629788Y-52860106D01*
X130629792Y-52860104D01*
X130780104Y-52709792D01*
X130899991Y-52544779D01*
X130955320Y-52502115D01*
X131024933Y-52496136D01*
X131086729Y-52528741D01*
X131100627Y-52544781D01*
X131220272Y-52709459D01*
X131220276Y-52709464D01*
X131370535Y-52859723D01*
X131370540Y-52859727D01*
X131542442Y-52984620D01*
X131731782Y-53081095D01*
X131933871Y-53146757D01*
X132000000Y-53157231D01*
X132000000Y-52109145D01*
X132066657Y-52147630D01*
X132187465Y-52180000D01*
X132312535Y-52180000D01*
X132433343Y-52147630D01*
X132500000Y-52109145D01*
X132500000Y-53157230D01*
X132566126Y-53146757D01*
X132566129Y-53146757D01*
X132768217Y-53081095D01*
X132957557Y-52984620D01*
X133129459Y-52859727D01*
X133129464Y-52859723D01*
X133279723Y-52709464D01*
X133279727Y-52709459D01*
X133404620Y-52537557D01*
X133501095Y-52348217D01*
X133566757Y-52146130D01*
X133566757Y-52146127D01*
X133597030Y-51955000D01*
X132654146Y-51955000D01*
X132692630Y-51888343D01*
X132725000Y-51767535D01*
X132725000Y-51642465D01*
X132692630Y-51521657D01*
X132654146Y-51455000D01*
X133597030Y-51455000D01*
X133566757Y-51263872D01*
X133566757Y-51263869D01*
X133501096Y-51061784D01*
X133500594Y-51060799D01*
X133500515Y-51060382D01*
X133499231Y-51057281D01*
X133499882Y-51057011D01*
X133487695Y-50992131D01*
X133513969Y-50927389D01*
X133571074Y-50887130D01*
X133611077Y-50880500D01*
X137400500Y-50880500D01*
X137467539Y-50900185D01*
X137513294Y-50952989D01*
X137524500Y-51004500D01*
X137524500Y-52455001D01*
X137524501Y-52455018D01*
X137535000Y-52557796D01*
X137535001Y-52557799D01*
X137569176Y-52660931D01*
X137576063Y-52681715D01*
X137576830Y-52684028D01*
X137579232Y-52753856D01*
X137543500Y-52813898D01*
X137480980Y-52845091D01*
X137434934Y-52844650D01*
X137383015Y-52834323D01*
X137358767Y-52829500D01*
X137191233Y-52829500D01*
X137191228Y-52829500D01*
X137026925Y-52862182D01*
X137026917Y-52862184D01*
X136872139Y-52926295D01*
X136732837Y-53019373D01*
X136614373Y-53137837D01*
X136521295Y-53277139D01*
X136457184Y-53431917D01*
X136457182Y-53431925D01*
X136424500Y-53596228D01*
X136424500Y-53763771D01*
X136457182Y-53928074D01*
X136457184Y-53928082D01*
X136521295Y-54082860D01*
X136614373Y-54222162D01*
X136732837Y-54340626D01*
X136825494Y-54402537D01*
X136872137Y-54433703D01*
X137026918Y-54497816D01*
X137152598Y-54522815D01*
X137191228Y-54530499D01*
X137191232Y-54530500D01*
X137191233Y-54530500D01*
X137358768Y-54530500D01*
X137358769Y-54530499D01*
X137523082Y-54497816D01*
X137677863Y-54433703D01*
X137817162Y-54340626D01*
X137935626Y-54222162D01*
X138028703Y-54082863D01*
X138092816Y-53928082D01*
X138125500Y-53763767D01*
X138125500Y-53596233D01*
X138092816Y-53431918D01*
X138046916Y-53321108D01*
X138039448Y-53251641D01*
X138070723Y-53189162D01*
X138130811Y-53153509D01*
X138174081Y-53150299D01*
X138177300Y-53150627D01*
X138224991Y-53155500D01*
X139525008Y-53155499D01*
X139627797Y-53144999D01*
X139794334Y-53089814D01*
X139943656Y-52997712D01*
X140067712Y-52873656D01*
X140159814Y-52724334D01*
X140159814Y-52724331D01*
X140163178Y-52718879D01*
X140215126Y-52672154D01*
X140284088Y-52660931D01*
X140348170Y-52688774D01*
X140356398Y-52696294D01*
X140495213Y-52835109D01*
X140667179Y-52960048D01*
X140667181Y-52960049D01*
X140667184Y-52960051D01*
X140856588Y-53056557D01*
X141058757Y-53122246D01*
X141268713Y-53155500D01*
X141268714Y-53155500D01*
X141481286Y-53155500D01*
X141481287Y-53155500D01*
X141691243Y-53122246D01*
X141893412Y-53056557D01*
X142082816Y-52960051D01*
X142129275Y-52926297D01*
X142254786Y-52835109D01*
X142254788Y-52835106D01*
X142254792Y-52835104D01*
X142405104Y-52684792D01*
X142524683Y-52520204D01*
X142580011Y-52477540D01*
X142649624Y-52471561D01*
X142711420Y-52504166D01*
X142725313Y-52520199D01*
X142827560Y-52660931D01*
X142844896Y-52684792D01*
X142995213Y-52835109D01*
X143167179Y-52960048D01*
X143167181Y-52960049D01*
X143167184Y-52960051D01*
X143356588Y-53056557D01*
X143558757Y-53122246D01*
X143768713Y-53155500D01*
X143768714Y-53155500D01*
X143981286Y-53155500D01*
X143981287Y-53155500D01*
X144191243Y-53122246D01*
X144393412Y-53056557D01*
X144582816Y-52960051D01*
X144629275Y-52926297D01*
X144754786Y-52835109D01*
X144754788Y-52835106D01*
X144754792Y-52835104D01*
X144905104Y-52684792D01*
X145024683Y-52520204D01*
X145080011Y-52477540D01*
X145149624Y-52471561D01*
X145211420Y-52504166D01*
X145225313Y-52520199D01*
X145327560Y-52660931D01*
X145344896Y-52684792D01*
X145495213Y-52835109D01*
X145667179Y-52960048D01*
X145667181Y-52960049D01*
X145667184Y-52960051D01*
X145856588Y-53056557D01*
X146058757Y-53122246D01*
X146268713Y-53155500D01*
X146268714Y-53155500D01*
X146481286Y-53155500D01*
X146481287Y-53155500D01*
X146691243Y-53122246D01*
X146893412Y-53056557D01*
X147082816Y-52960051D01*
X147129275Y-52926297D01*
X147254786Y-52835109D01*
X147254788Y-52835106D01*
X147254792Y-52835104D01*
X147405104Y-52684792D01*
X147524683Y-52520204D01*
X147580011Y-52477540D01*
X147649624Y-52471561D01*
X147711420Y-52504166D01*
X147725313Y-52520199D01*
X147827560Y-52660931D01*
X147844896Y-52684792D01*
X147995213Y-52835109D01*
X148167179Y-52960048D01*
X148167181Y-52960049D01*
X148167184Y-52960051D01*
X148356588Y-53056557D01*
X148558757Y-53122246D01*
X148768713Y-53155500D01*
X148768714Y-53155500D01*
X148981286Y-53155500D01*
X148981287Y-53155500D01*
X149191243Y-53122246D01*
X149393412Y-53056557D01*
X149582816Y-52960051D01*
X149629275Y-52926297D01*
X149754786Y-52835109D01*
X149754788Y-52835106D01*
X149754792Y-52835104D01*
X149905104Y-52684792D01*
X150024683Y-52520204D01*
X150080011Y-52477540D01*
X150149624Y-52471561D01*
X150211420Y-52504166D01*
X150225313Y-52520199D01*
X150327560Y-52660931D01*
X150344896Y-52684792D01*
X150495213Y-52835109D01*
X150667179Y-52960048D01*
X150667181Y-52960049D01*
X150667184Y-52960051D01*
X150856588Y-53056557D01*
X151058757Y-53122246D01*
X151268713Y-53155500D01*
X151268714Y-53155500D01*
X151481286Y-53155500D01*
X151481287Y-53155500D01*
X151691243Y-53122246D01*
X151893412Y-53056557D01*
X152082816Y-52960051D01*
X152129275Y-52926297D01*
X152254786Y-52835109D01*
X152254788Y-52835106D01*
X152254792Y-52835104D01*
X152405104Y-52684792D01*
X152524991Y-52519779D01*
X152580320Y-52477115D01*
X152649933Y-52471136D01*
X152711729Y-52503741D01*
X152725627Y-52519781D01*
X152845272Y-52684459D01*
X152845276Y-52684464D01*
X152995535Y-52834723D01*
X152995540Y-52834727D01*
X153167442Y-52959620D01*
X153356782Y-53056095D01*
X153558871Y-53121757D01*
X153625000Y-53132231D01*
X153625000Y-52084145D01*
X153691657Y-52122630D01*
X153812465Y-52155000D01*
X153937535Y-52155000D01*
X154058343Y-52122630D01*
X154125000Y-52084145D01*
X154125000Y-53132230D01*
X154191126Y-53121757D01*
X154191129Y-53121757D01*
X154393217Y-53056095D01*
X154582557Y-52959620D01*
X154754459Y-52834727D01*
X154754464Y-52834723D01*
X154904723Y-52684464D01*
X154904727Y-52684459D01*
X155029620Y-52512557D01*
X155126095Y-52323217D01*
X155191757Y-52121130D01*
X155191757Y-52121127D01*
X155222030Y-51930000D01*
X154279146Y-51930000D01*
X154317630Y-51863343D01*
X154350000Y-51742535D01*
X154350000Y-51617465D01*
X154317630Y-51496657D01*
X154279146Y-51430000D01*
X155222030Y-51430000D01*
X155191757Y-51238872D01*
X155191757Y-51238869D01*
X155128057Y-51042818D01*
X155126062Y-50972976D01*
X155162143Y-50913144D01*
X155224844Y-50882316D01*
X155245988Y-50880500D01*
X159175500Y-50880500D01*
X159242539Y-50900185D01*
X159288294Y-50952989D01*
X159299500Y-51004500D01*
X159299500Y-52330001D01*
X159299501Y-52330018D01*
X159310000Y-52432796D01*
X159310001Y-52432799D01*
X159351830Y-52559028D01*
X159354232Y-52628856D01*
X159318500Y-52688898D01*
X159255980Y-52720091D01*
X159209934Y-52719650D01*
X159156531Y-52709028D01*
X159133767Y-52704500D01*
X158966233Y-52704500D01*
X158966228Y-52704500D01*
X158801925Y-52737182D01*
X158801917Y-52737184D01*
X158647139Y-52801295D01*
X158507837Y-52894373D01*
X158389373Y-53012837D01*
X158296295Y-53152139D01*
X158232184Y-53306917D01*
X158232182Y-53306925D01*
X158199500Y-53471228D01*
X158199500Y-53638771D01*
X158232182Y-53803074D01*
X158232184Y-53803082D01*
X158296295Y-53957860D01*
X158389373Y-54097162D01*
X158507837Y-54215626D01*
X158600494Y-54277537D01*
X158647137Y-54308703D01*
X158647138Y-54308703D01*
X158647139Y-54308704D01*
X158674760Y-54320145D01*
X158801918Y-54372816D01*
X158963719Y-54405000D01*
X158966228Y-54405499D01*
X158966232Y-54405500D01*
X159115546Y-54405500D01*
X159182585Y-54425185D01*
X159228340Y-54477989D01*
X159238284Y-54547147D01*
X159209259Y-54610703D01*
X159203227Y-54617181D01*
X156526269Y-57294140D01*
X156439144Y-57381264D01*
X156439138Y-57381272D01*
X156404914Y-57432489D01*
X156404915Y-57432490D01*
X156370688Y-57483713D01*
X156370684Y-57483721D01*
X156361019Y-57507057D01*
X156361018Y-57507061D01*
X156323538Y-57597545D01*
X156323535Y-57597555D01*
X156299500Y-57718389D01*
X156299500Y-60107019D01*
X156279815Y-60174058D01*
X156231797Y-60217503D01*
X156217180Y-60224950D01*
X156045215Y-60349889D01*
X155906398Y-60488706D01*
X155845075Y-60522190D01*
X155775383Y-60517206D01*
X155719450Y-60475334D01*
X155713178Y-60466120D01*
X155617712Y-60311344D01*
X155493657Y-60187289D01*
X155493656Y-60187288D01*
X155372061Y-60112288D01*
X155344336Y-60095187D01*
X155344331Y-60095185D01*
X155293994Y-60078505D01*
X155177797Y-60040001D01*
X155177795Y-60040000D01*
X155075010Y-60029500D01*
X153774998Y-60029500D01*
X153774981Y-60029501D01*
X153672203Y-60040000D01*
X153672200Y-60040001D01*
X153505668Y-60095185D01*
X153505663Y-60095187D01*
X153356342Y-60187289D01*
X153232289Y-60311342D01*
X153140187Y-60460663D01*
X153140185Y-60460668D01*
X153129097Y-60494130D01*
X153085001Y-60627203D01*
X153085001Y-60627204D01*
X153085000Y-60627204D01*
X153074500Y-60729983D01*
X153074500Y-62280001D01*
X153074501Y-62280018D01*
X153085000Y-62382796D01*
X153085001Y-62382799D01*
X153126830Y-62509028D01*
X153129232Y-62578856D01*
X153093500Y-62638898D01*
X153030980Y-62670091D01*
X152984934Y-62669650D01*
X152933015Y-62659323D01*
X152908767Y-62654500D01*
X152741233Y-62654500D01*
X152741228Y-62654500D01*
X152576925Y-62687182D01*
X152576917Y-62687184D01*
X152422139Y-62751295D01*
X152282837Y-62844373D01*
X152164373Y-62962837D01*
X152071295Y-63102139D01*
X152007184Y-63256917D01*
X152007182Y-63256925D01*
X151974500Y-63421228D01*
X151974500Y-63588771D01*
X152007182Y-63753074D01*
X152007184Y-63753082D01*
X152071295Y-63907860D01*
X152164373Y-64047162D01*
X152282837Y-64165626D01*
X152375494Y-64227537D01*
X152422137Y-64258703D01*
X152576918Y-64322816D01*
X152702598Y-64347815D01*
X152741228Y-64355499D01*
X152741232Y-64355500D01*
X152741233Y-64355500D01*
X152908768Y-64355500D01*
X152908769Y-64355499D01*
X153073082Y-64322816D01*
X153227863Y-64258703D01*
X153367162Y-64165626D01*
X153485626Y-64047162D01*
X153578703Y-63907863D01*
X153642816Y-63753082D01*
X153675500Y-63588767D01*
X153675500Y-63421233D01*
X153642816Y-63256918D01*
X153596916Y-63146108D01*
X153589448Y-63076641D01*
X153620723Y-63014162D01*
X153680811Y-62978509D01*
X153724081Y-62975299D01*
X153727300Y-62975627D01*
X153774991Y-62980500D01*
X155075008Y-62980499D01*
X155177797Y-62969999D01*
X155344334Y-62914814D01*
X155493656Y-62822712D01*
X155617712Y-62698656D01*
X155709814Y-62549334D01*
X155709814Y-62549331D01*
X155713178Y-62543879D01*
X155765126Y-62497154D01*
X155834088Y-62485931D01*
X155898170Y-62513774D01*
X155906398Y-62521294D01*
X156045213Y-62660109D01*
X156217179Y-62785048D01*
X156217181Y-62785049D01*
X156217184Y-62785051D01*
X156406588Y-62881557D01*
X156608757Y-62947246D01*
X156818713Y-62980500D01*
X156818714Y-62980500D01*
X157031286Y-62980500D01*
X157031287Y-62980500D01*
X157241243Y-62947246D01*
X157443412Y-62881557D01*
X157632816Y-62785051D01*
X157679275Y-62751297D01*
X157804786Y-62660109D01*
X157804788Y-62660106D01*
X157804792Y-62660104D01*
X157955104Y-62509792D01*
X158074683Y-62345204D01*
X158130011Y-62302540D01*
X158199624Y-62296561D01*
X158261420Y-62329166D01*
X158275313Y-62345199D01*
X158390583Y-62503856D01*
X158394896Y-62509792D01*
X158545213Y-62660109D01*
X158717182Y-62785050D01*
X158717184Y-62785051D01*
X158783644Y-62818914D01*
X158834439Y-62866886D01*
X158851235Y-62934707D01*
X158828698Y-63000842D01*
X158815030Y-63017079D01*
X154343930Y-67488181D01*
X154282607Y-67521666D01*
X154256249Y-67524500D01*
X147453748Y-67524500D01*
X147386709Y-67504815D01*
X147361600Y-67483474D01*
X147355873Y-67477114D01*
X147355869Y-67477110D01*
X147202734Y-67365851D01*
X147202729Y-67365848D01*
X147029807Y-67288857D01*
X147029802Y-67288855D01*
X146884001Y-67257865D01*
X146844646Y-67249500D01*
X146655354Y-67249500D01*
X146622897Y-67256398D01*
X146470197Y-67288855D01*
X146470192Y-67288857D01*
X146297270Y-67365848D01*
X146297265Y-67365851D01*
X146144129Y-67477111D01*
X146017466Y-67617785D01*
X145922821Y-67781715D01*
X145922818Y-67781722D01*
X145864327Y-67961740D01*
X145864326Y-67961744D01*
X145844540Y-68150000D01*
X145864326Y-68338256D01*
X145864327Y-68338259D01*
X145922818Y-68518277D01*
X145922821Y-68518284D01*
X146017467Y-68682216D01*
X146138401Y-68816526D01*
X146144129Y-68822888D01*
X146297265Y-68934148D01*
X146297270Y-68934151D01*
X146470192Y-69011142D01*
X146470197Y-69011144D01*
X146655354Y-69050500D01*
X146655355Y-69050500D01*
X146844644Y-69050500D01*
X146844646Y-69050500D01*
X147029803Y-69011144D01*
X147202730Y-68934151D01*
X147355871Y-68822888D01*
X147358788Y-68819647D01*
X147361600Y-68816526D01*
X147421087Y-68779879D01*
X147453748Y-68775500D01*
X154628308Y-68775500D01*
X154688730Y-68763481D01*
X154749153Y-68751463D01*
X154799197Y-68730734D01*
X154862987Y-68704312D01*
X154930051Y-68659500D01*
X154965434Y-68635858D01*
X155052559Y-68548733D01*
X155052560Y-68548731D01*
X155059626Y-68541665D01*
X155059629Y-68541661D01*
X156791290Y-66810000D01*
X166354540Y-66810000D01*
X166374326Y-66998256D01*
X166374327Y-66998259D01*
X166432818Y-67178277D01*
X166432821Y-67178284D01*
X166527467Y-67342216D01*
X166648926Y-67477110D01*
X166654129Y-67482888D01*
X166807265Y-67594148D01*
X166807270Y-67594151D01*
X166980192Y-67671142D01*
X166980197Y-67671144D01*
X167165354Y-67710500D01*
X167165355Y-67710500D01*
X167354644Y-67710500D01*
X167354646Y-67710500D01*
X167539803Y-67671144D01*
X167712730Y-67594151D01*
X167865871Y-67482888D01*
X167992533Y-67342216D01*
X168087179Y-67178284D01*
X168145674Y-66998256D01*
X168165460Y-66810000D01*
X168145674Y-66621744D01*
X168087179Y-66441716D01*
X167992533Y-66277784D01*
X167865871Y-66137112D01*
X167865870Y-66137111D01*
X167712734Y-66025851D01*
X167712729Y-66025848D01*
X167539807Y-65948857D01*
X167539802Y-65948855D01*
X167394001Y-65917865D01*
X167354646Y-65909500D01*
X167165354Y-65909500D01*
X167132897Y-65916398D01*
X166980197Y-65948855D01*
X166980192Y-65948857D01*
X166807270Y-66025848D01*
X166807265Y-66025851D01*
X166654129Y-66137111D01*
X166527466Y-66277785D01*
X166432821Y-66441715D01*
X166432818Y-66441722D01*
X166374327Y-66621740D01*
X166374326Y-66621744D01*
X166354540Y-66810000D01*
X156791290Y-66810000D01*
X158681289Y-64920000D01*
X160094540Y-64920000D01*
X160114326Y-65108256D01*
X160114327Y-65108259D01*
X160172818Y-65288277D01*
X160172821Y-65288284D01*
X160267467Y-65452216D01*
X160344938Y-65538256D01*
X160394129Y-65592888D01*
X160547265Y-65704148D01*
X160547270Y-65704151D01*
X160720192Y-65781142D01*
X160720197Y-65781144D01*
X160905354Y-65820500D01*
X160905355Y-65820500D01*
X161094644Y-65820500D01*
X161094646Y-65820500D01*
X161279803Y-65781144D01*
X161452730Y-65704151D01*
X161605871Y-65592888D01*
X161732533Y-65452216D01*
X161827179Y-65288284D01*
X161885674Y-65108256D01*
X161892848Y-65040000D01*
X162224540Y-65040000D01*
X162244326Y-65228256D01*
X162244327Y-65228259D01*
X162302818Y-65408277D01*
X162302821Y-65408284D01*
X162397467Y-65572216D01*
X162516259Y-65704148D01*
X162524129Y-65712888D01*
X162677265Y-65824148D01*
X162677270Y-65824151D01*
X162850192Y-65901142D01*
X162850197Y-65901144D01*
X163035354Y-65940500D01*
X163035355Y-65940500D01*
X163224644Y-65940500D01*
X163224646Y-65940500D01*
X163409803Y-65901144D01*
X163582730Y-65824151D01*
X163735871Y-65712888D01*
X163862533Y-65572216D01*
X163957179Y-65408284D01*
X164015674Y-65228256D01*
X164035460Y-65040000D01*
X164015674Y-64851744D01*
X163957179Y-64671716D01*
X163862533Y-64507784D01*
X163735871Y-64367112D01*
X163735870Y-64367111D01*
X163582734Y-64255851D01*
X163582729Y-64255848D01*
X163409807Y-64178857D01*
X163409802Y-64178855D01*
X163229943Y-64140626D01*
X163224646Y-64139500D01*
X163035354Y-64139500D01*
X163030057Y-64140626D01*
X162850197Y-64178855D01*
X162850192Y-64178857D01*
X162677270Y-64255848D01*
X162677265Y-64255851D01*
X162524129Y-64367111D01*
X162397466Y-64507785D01*
X162302821Y-64671715D01*
X162302818Y-64671722D01*
X162244327Y-64851740D01*
X162244326Y-64851744D01*
X162224540Y-65040000D01*
X161892848Y-65040000D01*
X161905460Y-64920000D01*
X161885674Y-64731744D01*
X161827179Y-64551716D01*
X161732533Y-64387784D01*
X161605871Y-64247112D01*
X161605870Y-64247111D01*
X161452734Y-64135851D01*
X161452729Y-64135848D01*
X161279807Y-64058857D01*
X161279802Y-64058855D01*
X161134001Y-64027865D01*
X161094646Y-64019500D01*
X160905354Y-64019500D01*
X160872897Y-64026398D01*
X160720197Y-64058855D01*
X160720192Y-64058857D01*
X160547270Y-64135848D01*
X160547265Y-64135851D01*
X160394129Y-64247111D01*
X160267466Y-64387785D01*
X160172821Y-64551715D01*
X160172818Y-64551722D01*
X160133830Y-64671716D01*
X160114326Y-64731744D01*
X160094540Y-64920000D01*
X158681289Y-64920000D01*
X160155061Y-63446228D01*
X168339500Y-63446228D01*
X168339500Y-63613771D01*
X168372182Y-63778074D01*
X168372184Y-63778082D01*
X168436295Y-63932860D01*
X168529373Y-64072162D01*
X168647837Y-64190626D01*
X168732373Y-64247111D01*
X168787137Y-64283703D01*
X168941918Y-64347816D01*
X169106228Y-64380499D01*
X169106232Y-64380500D01*
X169106233Y-64380500D01*
X169273768Y-64380500D01*
X169273769Y-64380499D01*
X169438082Y-64347816D01*
X169592863Y-64283703D01*
X169732162Y-64190626D01*
X169850626Y-64072162D01*
X169943703Y-63932863D01*
X170007816Y-63778082D01*
X170040500Y-63613767D01*
X170040500Y-63446233D01*
X170007816Y-63281918D01*
X169972729Y-63197213D01*
X169965261Y-63127745D01*
X169996536Y-63065265D01*
X170056625Y-63029613D01*
X170099891Y-63026403D01*
X170139991Y-63030500D01*
X171440008Y-63030499D01*
X171442642Y-63030230D01*
X171480105Y-63026403D01*
X171542797Y-63019999D01*
X171709334Y-62964814D01*
X171858656Y-62872712D01*
X171982712Y-62748656D01*
X172074814Y-62599334D01*
X172074814Y-62599331D01*
X172078178Y-62593879D01*
X172130126Y-62547154D01*
X172199088Y-62535931D01*
X172263170Y-62563774D01*
X172271398Y-62571294D01*
X172410213Y-62710109D01*
X172582179Y-62835048D01*
X172582181Y-62835049D01*
X172582184Y-62835051D01*
X172771588Y-62931557D01*
X172973757Y-62997246D01*
X173183713Y-63030500D01*
X173183714Y-63030500D01*
X173396286Y-63030500D01*
X173396287Y-63030500D01*
X173606243Y-62997246D01*
X173808412Y-62931557D01*
X173997816Y-62835051D01*
X174078685Y-62776297D01*
X174169786Y-62710109D01*
X174169788Y-62710106D01*
X174169792Y-62710104D01*
X174320104Y-62559792D01*
X174320106Y-62559788D01*
X174320109Y-62559786D01*
X174445048Y-62387820D01*
X174445047Y-62387820D01*
X174445051Y-62387816D01*
X174541557Y-62198412D01*
X174607246Y-61996243D01*
X174640500Y-61786287D01*
X174640500Y-61273713D01*
X174607246Y-61063757D01*
X174541557Y-60861588D01*
X174445051Y-60672184D01*
X174445049Y-60672181D01*
X174445048Y-60672179D01*
X174320109Y-60500213D01*
X174169786Y-60349890D01*
X173997820Y-60224951D01*
X173808414Y-60128444D01*
X173808413Y-60128443D01*
X173808412Y-60128443D01*
X173606243Y-60062754D01*
X173606241Y-60062753D01*
X173606240Y-60062753D01*
X173444957Y-60037208D01*
X173396287Y-60029500D01*
X173183713Y-60029500D01*
X173135042Y-60037208D01*
X172973760Y-60062753D01*
X172771585Y-60128444D01*
X172582179Y-60224951D01*
X172410215Y-60349889D01*
X172271398Y-60488706D01*
X172210075Y-60522190D01*
X172140383Y-60517206D01*
X172084450Y-60475334D01*
X172078178Y-60466120D01*
X171982712Y-60311344D01*
X171858657Y-60187289D01*
X171858656Y-60187288D01*
X171737061Y-60112288D01*
X171709336Y-60095187D01*
X171709331Y-60095185D01*
X171658994Y-60078505D01*
X171542797Y-60040001D01*
X171542795Y-60040000D01*
X171440010Y-60029500D01*
X170139998Y-60029500D01*
X170139981Y-60029501D01*
X170037203Y-60040000D01*
X170037200Y-60040001D01*
X169870668Y-60095185D01*
X169870663Y-60095187D01*
X169721342Y-60187289D01*
X169597289Y-60311342D01*
X169505187Y-60460663D01*
X169505185Y-60460668D01*
X169494097Y-60494130D01*
X169450001Y-60627203D01*
X169450001Y-60627204D01*
X169450000Y-60627204D01*
X169439500Y-60729983D01*
X169439500Y-62330001D01*
X169439501Y-62330018D01*
X169450000Y-62432796D01*
X169450001Y-62432799D01*
X169482961Y-62532264D01*
X169485363Y-62602092D01*
X169449631Y-62662134D01*
X169387111Y-62693327D01*
X169341065Y-62692886D01*
X169301286Y-62684973D01*
X169273767Y-62679500D01*
X169106233Y-62679500D01*
X169106228Y-62679500D01*
X168941925Y-62712182D01*
X168941917Y-62712184D01*
X168787139Y-62776295D01*
X168647837Y-62869373D01*
X168529373Y-62987837D01*
X168436295Y-63127139D01*
X168372184Y-63281917D01*
X168372182Y-63281925D01*
X168339500Y-63446228D01*
X160155061Y-63446228D01*
X160910074Y-62691215D01*
X160971395Y-62657732D01*
X161041087Y-62662716D01*
X161070638Y-62678580D01*
X161114034Y-62710109D01*
X161217184Y-62785051D01*
X161406588Y-62881557D01*
X161608757Y-62947246D01*
X161818713Y-62980500D01*
X161818714Y-62980500D01*
X162031286Y-62980500D01*
X162031287Y-62980500D01*
X162241243Y-62947246D01*
X162443412Y-62881557D01*
X162632816Y-62785051D01*
X162679275Y-62751297D01*
X162804786Y-62660109D01*
X162804788Y-62660106D01*
X162804792Y-62660104D01*
X162955104Y-62509792D01*
X163074991Y-62344779D01*
X163130320Y-62302115D01*
X163199933Y-62296136D01*
X163261729Y-62328741D01*
X163275627Y-62344781D01*
X163395272Y-62509459D01*
X163395276Y-62509464D01*
X163545535Y-62659723D01*
X163545540Y-62659727D01*
X163717442Y-62784620D01*
X163906782Y-62881095D01*
X164108871Y-62946757D01*
X164175000Y-62957231D01*
X164175000Y-61909145D01*
X164241657Y-61947630D01*
X164362465Y-61980000D01*
X164487535Y-61980000D01*
X164608343Y-61947630D01*
X164675000Y-61909145D01*
X164675000Y-62957230D01*
X164741126Y-62946757D01*
X164741129Y-62946757D01*
X164943217Y-62881095D01*
X165132557Y-62784620D01*
X165304459Y-62659727D01*
X165304464Y-62659723D01*
X165454723Y-62509464D01*
X165454727Y-62509459D01*
X165579620Y-62337557D01*
X165676095Y-62148217D01*
X165741757Y-61946130D01*
X165741757Y-61946127D01*
X165772030Y-61755000D01*
X164829146Y-61755000D01*
X164867630Y-61688343D01*
X164900000Y-61567535D01*
X164900000Y-61442465D01*
X164867630Y-61321657D01*
X164829146Y-61255000D01*
X165772030Y-61255000D01*
X165741757Y-61063872D01*
X165741757Y-61063869D01*
X165676095Y-60861782D01*
X165579620Y-60672442D01*
X165454727Y-60500540D01*
X165454723Y-60500535D01*
X165304464Y-60350276D01*
X165304459Y-60350272D01*
X165132557Y-60225379D01*
X164943215Y-60128903D01*
X164741124Y-60063241D01*
X164675000Y-60052768D01*
X164675000Y-61100854D01*
X164608343Y-61062370D01*
X164487535Y-61030000D01*
X164362465Y-61030000D01*
X164241657Y-61062370D01*
X164175000Y-61100854D01*
X164175000Y-60052768D01*
X164174999Y-60052768D01*
X164108875Y-60063241D01*
X163906784Y-60128903D01*
X163717442Y-60225379D01*
X163545540Y-60350272D01*
X163545535Y-60350276D01*
X163395276Y-60500535D01*
X163395272Y-60500540D01*
X163275627Y-60665218D01*
X163220297Y-60707884D01*
X163150684Y-60713863D01*
X163088889Y-60681257D01*
X163074991Y-60665218D01*
X162955109Y-60500214D01*
X162955105Y-60500209D01*
X162804786Y-60349890D01*
X162632819Y-60224951D01*
X162632818Y-60224950D01*
X162632816Y-60224949D01*
X162558902Y-60187288D01*
X162465927Y-60139914D01*
X162415131Y-60091939D01*
X162398336Y-60024118D01*
X162420874Y-59957983D01*
X162434535Y-59941754D01*
X169635436Y-52740855D01*
X169696753Y-52707374D01*
X169766445Y-52712358D01*
X169795996Y-52728222D01*
X169942442Y-52834620D01*
X170131782Y-52931095D01*
X170333871Y-52996757D01*
X170400000Y-53007231D01*
X170400000Y-51959145D01*
X170466657Y-51997630D01*
X170587465Y-52030000D01*
X170712535Y-52030000D01*
X170833343Y-51997630D01*
X170900000Y-51959145D01*
X170900000Y-53007230D01*
X170966126Y-52996757D01*
X170966129Y-52996757D01*
X171168217Y-52931095D01*
X171357557Y-52834620D01*
X171529459Y-52709727D01*
X171529464Y-52709723D01*
X171679723Y-52559464D01*
X171679727Y-52559459D01*
X171804620Y-52387557D01*
X171901095Y-52198217D01*
X171966757Y-51996130D01*
X171966757Y-51996127D01*
X171997030Y-51805000D01*
X171054146Y-51805000D01*
X171092630Y-51738343D01*
X171125000Y-51617535D01*
X171125000Y-51492465D01*
X171092630Y-51371657D01*
X171054146Y-51305000D01*
X171997030Y-51305000D01*
X171966757Y-51113872D01*
X171966757Y-51113869D01*
X171901095Y-50911782D01*
X171804620Y-50722442D01*
X171679727Y-50550540D01*
X171679723Y-50550535D01*
X171529464Y-50400276D01*
X171529459Y-50400272D01*
X171357557Y-50275379D01*
X171168215Y-50178903D01*
X170966124Y-50113241D01*
X170900000Y-50102768D01*
X170900000Y-51150854D01*
X170833343Y-51112370D01*
X170712535Y-51080000D01*
X170587465Y-51080000D01*
X170466657Y-51112370D01*
X170400000Y-51150854D01*
X170400000Y-50102768D01*
X170399999Y-50102768D01*
X170333875Y-50113241D01*
X170131783Y-50178903D01*
X170131778Y-50178906D01*
X170130783Y-50179413D01*
X170130365Y-50179491D01*
X170127281Y-50180769D01*
X170127012Y-50180120D01*
X170062112Y-50192302D01*
X169997375Y-50166018D01*
X169957124Y-50108907D01*
X169950500Y-50068922D01*
X169950500Y-47222741D01*
X169950501Y-47222720D01*
X169950501Y-47093391D01*
X169926464Y-46972555D01*
X169926463Y-46972549D01*
X169879312Y-46858715D01*
X169810858Y-46756267D01*
X169810855Y-46756263D01*
X169371931Y-46317340D01*
X169338446Y-46256017D01*
X169343430Y-46186326D01*
X169385301Y-46130392D01*
X169450766Y-46105975D01*
X169459612Y-46105659D01*
X169460001Y-46105659D01*
X169502393Y-46101950D01*
X169695408Y-46085063D01*
X169923663Y-46023903D01*
X170137830Y-45924035D01*
X170331401Y-45788495D01*
X170498495Y-45621401D01*
X170634035Y-45427830D01*
X170733903Y-45213663D01*
X170795063Y-44985408D01*
X170815659Y-44750000D01*
X170795063Y-44514592D01*
X170733903Y-44286337D01*
X170634035Y-44072171D01*
X170630480Y-44067093D01*
X170498494Y-43878597D01*
X170331402Y-43711506D01*
X170331396Y-43711501D01*
X170145842Y-43581575D01*
X170102217Y-43526998D01*
X170095023Y-43457500D01*
X170126546Y-43395145D01*
X170145842Y-43378425D01*
X170222248Y-43324925D01*
X170331401Y-43248495D01*
X170498495Y-43081401D01*
X170634035Y-42887830D01*
X170733903Y-42673663D01*
X170795063Y-42445408D01*
X170815659Y-42210000D01*
X170795063Y-41974592D01*
X170733903Y-41746337D01*
X170634035Y-41532171D01*
X170628731Y-41524595D01*
X170498494Y-41338597D01*
X170462903Y-41303006D01*
X170429418Y-41241683D01*
X170434402Y-41171991D01*
X170476274Y-41116058D01*
X170541738Y-41091641D01*
X170551218Y-41091327D01*
X172417614Y-41101305D01*
G37*
%TD.AperFunction*%
%TA.AperFunction,Conductor*%
G36*
X114889782Y-40793772D02*
G01*
X114956713Y-40813814D01*
X115002185Y-40866862D01*
X115011759Y-40936073D01*
X114982395Y-40999473D01*
X114940010Y-41030845D01*
X114919450Y-41040098D01*
X114919444Y-41040101D01*
X114919443Y-41040102D01*
X114828510Y-41095073D01*
X114634673Y-41212251D01*
X114372744Y-41417460D01*
X114137460Y-41652744D01*
X113932251Y-41914673D01*
X113852884Y-42045963D01*
X113780814Y-42165182D01*
X113760101Y-42199445D01*
X113760100Y-42199447D01*
X113755350Y-42210001D01*
X113636084Y-42475000D01*
X113623536Y-42502880D01*
X113623530Y-42502895D01*
X113524546Y-42820550D01*
X113524544Y-42820556D01*
X113524544Y-42820559D01*
X113496906Y-42971373D01*
X113464563Y-43147863D01*
X113444473Y-43480000D01*
X113464563Y-43812136D01*
X113464563Y-43812141D01*
X113464564Y-43812142D01*
X113524544Y-44139441D01*
X113524545Y-44139445D01*
X113524546Y-44139449D01*
X113623530Y-44457104D01*
X113623534Y-44457116D01*
X113623537Y-44457123D01*
X113760102Y-44760557D01*
X113896026Y-44985403D01*
X113932251Y-45045326D01*
X114137460Y-45307255D01*
X114301375Y-45471170D01*
X114334860Y-45532493D01*
X114329876Y-45602185D01*
X114288004Y-45658118D01*
X114222540Y-45682535D01*
X114213694Y-45682851D01*
X109355505Y-45682851D01*
X109288466Y-45663166D01*
X109267824Y-45646532D01*
X108458463Y-44837171D01*
X107635114Y-44013823D01*
X107601630Y-43952501D01*
X107606614Y-43882809D01*
X107625310Y-43850726D01*
X107625004Y-43850512D01*
X107627579Y-43846833D01*
X107627819Y-43846423D01*
X107628109Y-43846076D01*
X107763600Y-43652578D01*
X107863429Y-43438492D01*
X107863432Y-43438486D01*
X107920636Y-43225000D01*
X107023012Y-43225000D01*
X107055925Y-43167993D01*
X107090000Y-43040826D01*
X107090000Y-42909174D01*
X107055925Y-42782007D01*
X107023012Y-42725000D01*
X107920636Y-42725000D01*
X107920635Y-42724999D01*
X107863432Y-42511513D01*
X107863429Y-42511507D01*
X107763600Y-42297422D01*
X107763599Y-42297420D01*
X107628113Y-42103926D01*
X107628108Y-42103920D01*
X107461082Y-41936894D01*
X107267578Y-41801399D01*
X107053492Y-41701570D01*
X107053486Y-41701567D01*
X106840000Y-41644364D01*
X106840000Y-42541988D01*
X106782993Y-42509075D01*
X106655826Y-42475000D01*
X106524174Y-42475000D01*
X106397007Y-42509075D01*
X106340000Y-42541988D01*
X106340000Y-41644364D01*
X106339999Y-41644364D01*
X106126513Y-41701567D01*
X106126507Y-41701570D01*
X105912422Y-41801399D01*
X105912420Y-41801400D01*
X105718926Y-41936886D01*
X105596477Y-42059335D01*
X105535154Y-42092819D01*
X105465462Y-42087835D01*
X105409529Y-42045963D01*
X105392614Y-42014986D01*
X105343354Y-41882913D01*
X105343350Y-41882906D01*
X105257190Y-41767812D01*
X105257187Y-41767809D01*
X105142093Y-41681649D01*
X105142086Y-41681645D01*
X105007379Y-41631403D01*
X105007372Y-41631401D01*
X104947844Y-41625000D01*
X104300000Y-41625000D01*
X104300000Y-42541988D01*
X104242993Y-42509075D01*
X104115826Y-42475000D01*
X103984174Y-42475000D01*
X103857007Y-42509075D01*
X103800000Y-42541988D01*
X103800000Y-41625000D01*
X103152155Y-41625000D01*
X103092627Y-41631401D01*
X103092620Y-41631403D01*
X102957913Y-41681645D01*
X102957906Y-41681649D01*
X102842812Y-41767809D01*
X102842809Y-41767812D01*
X102756649Y-41882906D01*
X102756645Y-41882913D01*
X102706403Y-42017620D01*
X102706401Y-42017627D01*
X102700000Y-42077155D01*
X102700000Y-42725000D01*
X103616988Y-42725000D01*
X103584075Y-42782007D01*
X103550000Y-42909174D01*
X103550000Y-43040826D01*
X103584075Y-43167993D01*
X103616988Y-43225000D01*
X102700000Y-43225000D01*
X102700000Y-43872844D01*
X102706401Y-43932372D01*
X102706403Y-43932379D01*
X102756645Y-44067086D01*
X102756649Y-44067093D01*
X102842809Y-44182187D01*
X102842812Y-44182190D01*
X102957906Y-44268350D01*
X102957913Y-44268354D01*
X103089986Y-44317614D01*
X103145920Y-44359485D01*
X103170337Y-44424949D01*
X103155486Y-44493222D01*
X103134335Y-44521477D01*
X103011886Y-44643926D01*
X102876400Y-44837420D01*
X102876399Y-44837422D01*
X102776570Y-45051507D01*
X102776567Y-45051513D01*
X102719364Y-45264999D01*
X102719364Y-45265000D01*
X103616988Y-45265000D01*
X103584075Y-45322007D01*
X103550000Y-45449174D01*
X103550000Y-45580826D01*
X103584075Y-45707993D01*
X103616988Y-45765000D01*
X102719364Y-45765000D01*
X102776567Y-45978486D01*
X102776570Y-45978492D01*
X102876399Y-46192578D01*
X103011899Y-46386089D01*
X103012200Y-46386448D01*
X103012282Y-46386637D01*
X103014996Y-46390512D01*
X103014216Y-46391057D01*
X103040206Y-46450459D01*
X103029159Y-46519450D01*
X103004883Y-46553824D01*
X102735783Y-46822925D01*
X102476270Y-47082438D01*
X102476267Y-47082441D01*
X102432705Y-47126003D01*
X102389143Y-47169564D01*
X102376252Y-47188857D01*
X102320689Y-47272011D01*
X102320685Y-47272018D01*
X102273540Y-47385837D01*
X102273535Y-47385852D01*
X102262666Y-47440498D01*
X102230281Y-47502409D01*
X102169565Y-47536983D01*
X102099795Y-47533242D01*
X102043124Y-47492376D01*
X102017542Y-47427358D01*
X102017049Y-47416159D01*
X102017086Y-47385837D01*
X102024852Y-40849515D01*
X102044616Y-40782500D01*
X102097475Y-40736808D01*
X102149512Y-40725665D01*
X114889782Y-40793772D01*
G37*
%TD.AperFunction*%
%TA.AperFunction,Conductor*%
G36*
X120433992Y-40823410D02*
G01*
X120500922Y-40843452D01*
X120546394Y-40896500D01*
X120555968Y-40965711D01*
X120526604Y-41029111D01*
X120504449Y-41048983D01*
X120438626Y-41095072D01*
X120438625Y-41095072D01*
X121070590Y-41727037D01*
X121007007Y-41744075D01*
X120892993Y-41809901D01*
X120799901Y-41902993D01*
X120734075Y-42017007D01*
X120717037Y-42080590D01*
X120085072Y-41448625D01*
X120026401Y-41532419D01*
X119926570Y-41746507D01*
X119926566Y-41746516D01*
X119865432Y-41974673D01*
X119865430Y-41974684D01*
X119844843Y-42209998D01*
X119844843Y-42210001D01*
X119865430Y-42445315D01*
X119865432Y-42445326D01*
X119926566Y-42673483D01*
X119926570Y-42673492D01*
X120026400Y-42887579D01*
X120026402Y-42887583D01*
X120085072Y-42971373D01*
X120085073Y-42971373D01*
X120717037Y-42339409D01*
X120734075Y-42402993D01*
X120799901Y-42517007D01*
X120892993Y-42610099D01*
X121007007Y-42675925D01*
X121070590Y-42692962D01*
X120400369Y-43363181D01*
X120339046Y-43396666D01*
X120312697Y-43399500D01*
X120302134Y-43399500D01*
X120302123Y-43399501D01*
X120242516Y-43405908D01*
X120107671Y-43456202D01*
X120107664Y-43456206D01*
X119992455Y-43542452D01*
X119992452Y-43542455D01*
X119906206Y-43657664D01*
X119906202Y-43657671D01*
X119855908Y-43792517D01*
X119849501Y-43852116D01*
X119849500Y-43852127D01*
X119849500Y-44749999D01*
X119849501Y-45558851D01*
X119829816Y-45625890D01*
X119777013Y-45671645D01*
X119725501Y-45682851D01*
X118186306Y-45682851D01*
X118119267Y-45663166D01*
X118073512Y-45610362D01*
X118063568Y-45541204D01*
X118092593Y-45477648D01*
X118098625Y-45471170D01*
X118262539Y-45307255D01*
X118262542Y-45307252D01*
X118467754Y-45045318D01*
X118639898Y-44760557D01*
X118776463Y-44457123D01*
X118875456Y-44139441D01*
X118935436Y-43812142D01*
X118955527Y-43480000D01*
X118935436Y-43147858D01*
X118875456Y-42820559D01*
X118827915Y-42667993D01*
X118776469Y-42502895D01*
X118776467Y-42502890D01*
X118776463Y-42502877D01*
X118639898Y-42199443D01*
X118467754Y-41914682D01*
X118467751Y-41914678D01*
X118467748Y-41914673D01*
X118262539Y-41652744D01*
X118027255Y-41417460D01*
X117765326Y-41212251D01*
X117752326Y-41204392D01*
X117480557Y-41040102D01*
X117480552Y-41040099D01*
X117477350Y-41038164D01*
X117478334Y-41036536D01*
X117433522Y-40993247D01*
X117417493Y-40925241D01*
X117440774Y-40859364D01*
X117495976Y-40816533D01*
X117541970Y-40807950D01*
X120433992Y-40823410D01*
G37*
%TD.AperFunction*%
%TA.AperFunction,Conductor*%
G36*
X104300000Y-45081988D02*
G01*
X104242993Y-45049075D01*
X104115826Y-45015000D01*
X103984174Y-45015000D01*
X103857007Y-45049075D01*
X103800000Y-45081988D01*
X103800000Y-43408012D01*
X103857007Y-43440925D01*
X103984174Y-43475000D01*
X104115826Y-43475000D01*
X104242993Y-43440925D01*
X104300000Y-43408012D01*
X104300000Y-45081988D01*
G37*
%TD.AperFunction*%
%TA.AperFunction,Conductor*%
G36*
X123274075Y-42402993D02*
G01*
X123339901Y-42517007D01*
X123432993Y-42610099D01*
X123547007Y-42675925D01*
X123610590Y-42692962D01*
X122978625Y-43324925D01*
X123054594Y-43378119D01*
X123098219Y-43432696D01*
X123105413Y-43502194D01*
X123073890Y-43564549D01*
X123054595Y-43581269D01*
X122868598Y-43711505D01*
X122746673Y-43833430D01*
X122685350Y-43866914D01*
X122615658Y-43861930D01*
X122559725Y-43820058D01*
X122542810Y-43789081D01*
X122493797Y-43657671D01*
X122493793Y-43657664D01*
X122407547Y-43542455D01*
X122407544Y-43542452D01*
X122292335Y-43456206D01*
X122292328Y-43456202D01*
X122157482Y-43405908D01*
X122157483Y-43405908D01*
X122097883Y-43399501D01*
X122097881Y-43399500D01*
X122097873Y-43399500D01*
X122097865Y-43399500D01*
X122087310Y-43399500D01*
X122020271Y-43379815D01*
X121999629Y-43363181D01*
X121329409Y-42692962D01*
X121392993Y-42675925D01*
X121507007Y-42610099D01*
X121600099Y-42517007D01*
X121665925Y-42402993D01*
X121682962Y-42339410D01*
X122314925Y-42971373D01*
X122368425Y-42894968D01*
X122423002Y-42851344D01*
X122492501Y-42844151D01*
X122554855Y-42875673D01*
X122571576Y-42894969D01*
X122625073Y-42971372D01*
X123257037Y-42339409D01*
X123274075Y-42402993D01*
G37*
%TD.AperFunction*%
%TA.AperFunction,Conductor*%
G36*
X124854925Y-42971373D02*
G01*
X124908119Y-42895405D01*
X124962696Y-42851781D01*
X125032195Y-42844588D01*
X125094549Y-42876110D01*
X125111269Y-42895406D01*
X125169800Y-42978997D01*
X125192127Y-43045203D01*
X125175117Y-43112970D01*
X125155907Y-43137800D01*
X125117442Y-43176266D01*
X125117438Y-43176270D01*
X124667801Y-43625906D01*
X124606478Y-43659391D01*
X124536786Y-43654407D01*
X124508997Y-43639800D01*
X124425406Y-43581269D01*
X124381781Y-43526692D01*
X124374587Y-43457194D01*
X124406110Y-43394839D01*
X124425405Y-43378119D01*
X124501373Y-43324925D01*
X123869409Y-42692962D01*
X123932993Y-42675925D01*
X124047007Y-42610099D01*
X124140099Y-42517007D01*
X124205925Y-42402993D01*
X124222962Y-42339410D01*
X124854925Y-42971373D01*
G37*
%TD.AperFunction*%
%TA.AperFunction,Conductor*%
G36*
X106124075Y-42782007D02*
G01*
X106090000Y-42909174D01*
X106090000Y-43040826D01*
X106124075Y-43167993D01*
X106156988Y-43225000D01*
X104483012Y-43225000D01*
X104515925Y-43167993D01*
X104550000Y-43040826D01*
X104550000Y-42909174D01*
X104515925Y-42782007D01*
X104483012Y-42725000D01*
X106156988Y-42725000D01*
X106124075Y-42782007D01*
G37*
%TD.AperFunction*%
%TA.AperFunction,Conductor*%
G36*
X122954744Y-40836886D02*
G01*
X123021676Y-40856928D01*
X123067148Y-40909976D01*
X123076722Y-40979187D01*
X123047357Y-41042587D01*
X123025203Y-41062459D01*
X122978626Y-41095072D01*
X122978625Y-41095072D01*
X123610590Y-41727037D01*
X123547007Y-41744075D01*
X123432993Y-41809901D01*
X123339901Y-41902993D01*
X123274075Y-42017007D01*
X123257037Y-42080590D01*
X122625072Y-41448625D01*
X122625072Y-41448626D01*
X122571574Y-41525030D01*
X122516998Y-41568655D01*
X122447499Y-41575849D01*
X122385144Y-41544326D01*
X122368424Y-41525030D01*
X122314925Y-41448626D01*
X122314925Y-41448625D01*
X121682962Y-42080589D01*
X121665925Y-42017007D01*
X121600099Y-41902993D01*
X121507007Y-41809901D01*
X121392993Y-41744075D01*
X121329410Y-41727037D01*
X121961373Y-41095073D01*
X121961373Y-41095072D01*
X121907347Y-41057243D01*
X121863722Y-41002666D01*
X121856528Y-40933168D01*
X121888051Y-40870813D01*
X121948280Y-40835399D01*
X121979125Y-40831670D01*
X122954744Y-40836886D01*
G37*
%TD.AperFunction*%
%TA.AperFunction,Conductor*%
G36*
X125039610Y-40848031D02*
G01*
X125474633Y-40850357D01*
X125541566Y-40870399D01*
X125587038Y-40923447D01*
X125596612Y-40992658D01*
X125567248Y-41056057D01*
X125545094Y-41075930D01*
X125408594Y-41171508D01*
X125241505Y-41338597D01*
X125111269Y-41524595D01*
X125056692Y-41568220D01*
X124987194Y-41575414D01*
X124924839Y-41543891D01*
X124908119Y-41524595D01*
X124854925Y-41448626D01*
X124854925Y-41448625D01*
X124222962Y-42080589D01*
X124205925Y-42017007D01*
X124140099Y-41902993D01*
X124047007Y-41809901D01*
X123932993Y-41744075D01*
X123869410Y-41727037D01*
X124501373Y-41095073D01*
X124501373Y-41095072D01*
X124466889Y-41070927D01*
X124423264Y-41016351D01*
X124416070Y-40946853D01*
X124447592Y-40884498D01*
X124507822Y-40849083D01*
X124538675Y-40845354D01*
X125039610Y-40848031D01*
G37*
%TD.AperFunction*%
%TD*%
M02*
