%TF.GenerationSoftware,KiCad,Pcbnew,8.0.6*%
%TF.CreationDate,2025-02-12T15:18:31-05:00*%
%TF.ProjectId,HydroBall,48796472-6f42-4616-9c6c-2e6b69636164,rev?*%
%TF.SameCoordinates,Original*%
%TF.FileFunction,Drillmap*%
%TF.FilePolarity,Positive*%
%FSLAX45Y45*%
G04 Gerber Fmt 4.5, Leading zero omitted, Abs format (unit mm)*
G04 Created by KiCad (PCBNEW 8.0.6) date 2025-02-12 15:18:31*
%MOMM*%
%LPD*%
G01*
G04 APERTURE LIST*
%ADD10C,0.200000*%
%ADD11C,0.100000*%
%ADD12C,0.140000*%
%ADD13C,0.150000*%
%ADD14C,0.270000*%
G04 APERTURE END LIST*
D10*
X10157500Y-4040000D02*
X17750000Y-4040000D01*
X17750000Y-14627500D01*
X10157500Y-14627500D01*
X10157500Y-4040000D01*
D11*
X11210000Y-5285000D02*
X11250000Y-5325000D01*
X11250000Y-5285000D02*
X11210000Y-5325000D01*
X11426500Y-5880000D02*
X11466500Y-5920000D01*
X11466500Y-5880000D02*
X11426500Y-5920000D01*
X11435000Y-6106000D02*
X11475000Y-6146000D01*
X11475000Y-6106000D02*
X11435000Y-6146000D01*
X11615000Y-4870000D02*
X11655000Y-4910000D01*
X11655000Y-4870000D02*
X11615000Y-4910000D01*
X11615000Y-5055000D02*
X11655000Y-5095000D01*
X11655000Y-5055000D02*
X11615000Y-5095000D01*
X11648000Y-5649000D02*
X11688000Y-5689000D01*
X11688000Y-5649000D02*
X11648000Y-5689000D01*
X12200000Y-12972500D02*
X12240000Y-13012500D01*
X12240000Y-12972500D02*
X12200000Y-13012500D01*
X12310000Y-13790000D02*
X12350000Y-13830000D01*
X12350000Y-13790000D02*
X12310000Y-13830000D01*
X12572500Y-12215000D02*
X12612500Y-12255000D01*
X12612500Y-12215000D02*
X12572500Y-12255000D01*
X13297500Y-6320000D02*
X13337500Y-6360000D01*
X13337500Y-6320000D02*
X13297500Y-6360000D01*
X13297500Y-6515000D02*
X13337500Y-6555000D01*
X13337500Y-6515000D02*
X13297500Y-6555000D01*
X14044000Y-6591057D02*
X14084000Y-6631057D01*
X14084000Y-6591057D02*
X14044000Y-6631057D01*
X14066000Y-7140000D02*
X14106000Y-7180000D01*
X14106000Y-7140000D02*
X14066000Y-7180000D01*
X14132500Y-14395000D02*
X14172500Y-14435000D01*
X14172500Y-14395000D02*
X14132500Y-14435000D01*
X14225944Y-9624056D02*
X14265944Y-9664056D01*
X14265944Y-9624056D02*
X14225944Y-9664056D01*
X14273000Y-7154000D02*
X14313000Y-7194000D01*
X14313000Y-7154000D02*
X14273000Y-7194000D01*
X14512500Y-14392500D02*
X14552500Y-14432500D01*
X14552500Y-14392500D02*
X14512500Y-14432500D01*
X14655000Y-6795000D02*
X14695000Y-6835000D01*
X14695000Y-6795000D02*
X14655000Y-6835000D01*
X15785000Y-4785000D02*
X15825000Y-4825000D01*
X15825000Y-4785000D02*
X15785000Y-4825000D01*
X16080000Y-6472000D02*
X16120000Y-6512000D01*
X16120000Y-6472000D02*
X16080000Y-6512000D01*
X16192000Y-7358000D02*
X16232000Y-7398000D01*
X16232000Y-7358000D02*
X16192000Y-7398000D01*
X16293000Y-6484000D02*
X16333000Y-6524000D01*
X16333000Y-6484000D02*
X16293000Y-6524000D01*
X16665000Y-4742500D02*
X16705000Y-4782500D01*
X16705000Y-4742500D02*
X16665000Y-4782500D01*
X16706000Y-6661000D02*
X16746000Y-6701000D01*
X16746000Y-6661000D02*
X16706000Y-6701000D01*
X17258000Y-6916000D02*
X17298000Y-6956000D01*
X17298000Y-6916000D02*
X17258000Y-6956000D01*
X13603600Y-10522500D02*
G75*
G02*
X13527400Y-10522500I-38100J0D01*
G01*
X13527400Y-10522500D02*
G75*
G02*
X13603600Y-10522500I38100J0D01*
G01*
X13603600Y-10776500D02*
G75*
G02*
X13527400Y-10776500I-38100J0D01*
G01*
X13527400Y-10776500D02*
G75*
G02*
X13603600Y-10776500I38100J0D01*
G01*
X13603600Y-11030500D02*
G75*
G02*
X13527400Y-11030500I-38100J0D01*
G01*
X13527400Y-11030500D02*
G75*
G02*
X13603600Y-11030500I38100J0D01*
G01*
X13603600Y-11284500D02*
G75*
G02*
X13527400Y-11284500I-38100J0D01*
G01*
X13527400Y-11284500D02*
G75*
G02*
X13603600Y-11284500I38100J0D01*
G01*
X13603600Y-11538500D02*
G75*
G02*
X13527400Y-11538500I-38100J0D01*
G01*
X13527400Y-11538500D02*
G75*
G02*
X13603600Y-11538500I38100J0D01*
G01*
X13603600Y-11792500D02*
G75*
G02*
X13527400Y-11792500I-38100J0D01*
G01*
X13527400Y-11792500D02*
G75*
G02*
X13603600Y-11792500I38100J0D01*
G01*
X14160100Y-9401000D02*
G75*
G02*
X14083900Y-9401000I-38100J0D01*
G01*
X14083900Y-9401000D02*
G75*
G02*
X14160100Y-9401000I38100J0D01*
G01*
X14414100Y-7623000D02*
G75*
G02*
X14337900Y-7623000I-38100J0D01*
G01*
X14337900Y-7623000D02*
G75*
G02*
X14414100Y-7623000I38100J0D01*
G01*
X14414100Y-9401000D02*
G75*
G02*
X14337900Y-9401000I-38100J0D01*
G01*
X14337900Y-9401000D02*
G75*
G02*
X14414100Y-9401000I38100J0D01*
G01*
X14668100Y-7623000D02*
G75*
G02*
X14591900Y-7623000I-38100J0D01*
G01*
X14591900Y-7623000D02*
G75*
G02*
X14668100Y-7623000I38100J0D01*
G01*
X14668100Y-9401000D02*
G75*
G02*
X14591900Y-9401000I-38100J0D01*
G01*
X14591900Y-9401000D02*
G75*
G02*
X14668100Y-9401000I38100J0D01*
G01*
X14873600Y-9760500D02*
G75*
G02*
X14797400Y-9760500I-38100J0D01*
G01*
X14797400Y-9760500D02*
G75*
G02*
X14873600Y-9760500I38100J0D01*
G01*
X14873600Y-13824500D02*
G75*
G02*
X14797400Y-13824500I-38100J0D01*
G01*
X14797400Y-13824500D02*
G75*
G02*
X14873600Y-13824500I38100J0D01*
G01*
X14922100Y-7623000D02*
G75*
G02*
X14845900Y-7623000I-38100J0D01*
G01*
X14845900Y-7623000D02*
G75*
G02*
X14922100Y-7623000I38100J0D01*
G01*
X14922100Y-9401000D02*
G75*
G02*
X14845900Y-9401000I-38100J0D01*
G01*
X14845900Y-9401000D02*
G75*
G02*
X14922100Y-9401000I38100J0D01*
G01*
X15127600Y-9760500D02*
G75*
G02*
X15051400Y-9760500I-38100J0D01*
G01*
X15051400Y-9760500D02*
G75*
G02*
X15127600Y-9760500I38100J0D01*
G01*
X15127600Y-13824500D02*
G75*
G02*
X15051400Y-13824500I-38100J0D01*
G01*
X15051400Y-13824500D02*
G75*
G02*
X15127600Y-13824500I38100J0D01*
G01*
X15176100Y-7623000D02*
G75*
G02*
X15099900Y-7623000I-38100J0D01*
G01*
X15099900Y-7623000D02*
G75*
G02*
X15176100Y-7623000I38100J0D01*
G01*
X15176100Y-9401000D02*
G75*
G02*
X15099900Y-9401000I-38100J0D01*
G01*
X15099900Y-9401000D02*
G75*
G02*
X15176100Y-9401000I38100J0D01*
G01*
X15381600Y-9760500D02*
G75*
G02*
X15305400Y-9760500I-38100J0D01*
G01*
X15305400Y-9760500D02*
G75*
G02*
X15381600Y-9760500I38100J0D01*
G01*
X15381600Y-13824500D02*
G75*
G02*
X15305400Y-13824500I-38100J0D01*
G01*
X15305400Y-13824500D02*
G75*
G02*
X15381600Y-13824500I38100J0D01*
G01*
X15430100Y-9401000D02*
G75*
G02*
X15353900Y-9401000I-38100J0D01*
G01*
X15353900Y-9401000D02*
G75*
G02*
X15430100Y-9401000I38100J0D01*
G01*
X15635600Y-9760500D02*
G75*
G02*
X15559400Y-9760500I-38100J0D01*
G01*
X15559400Y-9760500D02*
G75*
G02*
X15635600Y-9760500I38100J0D01*
G01*
X15635600Y-13824500D02*
G75*
G02*
X15559400Y-13824500I-38100J0D01*
G01*
X15559400Y-13824500D02*
G75*
G02*
X15635600Y-13824500I38100J0D01*
G01*
X15889600Y-9760500D02*
G75*
G02*
X15813400Y-9760500I-38100J0D01*
G01*
X15813400Y-9760500D02*
G75*
G02*
X15889600Y-9760500I38100J0D01*
G01*
X15889600Y-13824500D02*
G75*
G02*
X15813400Y-13824500I-38100J0D01*
G01*
X15813400Y-13824500D02*
G75*
G02*
X15889600Y-13824500I38100J0D01*
G01*
X16143600Y-9760500D02*
G75*
G02*
X16067400Y-9760500I-38100J0D01*
G01*
X16067400Y-9760500D02*
G75*
G02*
X16143600Y-9760500I38100J0D01*
G01*
X16143600Y-13824500D02*
G75*
G02*
X16067400Y-13824500I-38100J0D01*
G01*
X16067400Y-13824500D02*
G75*
G02*
X16143600Y-13824500I38100J0D01*
G01*
X16397600Y-9760500D02*
G75*
G02*
X16321400Y-9760500I-38100J0D01*
G01*
X16321400Y-9760500D02*
G75*
G02*
X16397600Y-9760500I38100J0D01*
G01*
X16397600Y-13824500D02*
G75*
G02*
X16321400Y-13824500I-38100J0D01*
G01*
X16321400Y-13824500D02*
G75*
G02*
X16397600Y-13824500I38100J0D01*
G01*
X16651600Y-9760500D02*
G75*
G02*
X16575400Y-9760500I-38100J0D01*
G01*
X16575400Y-9760500D02*
G75*
G02*
X16651600Y-9760500I38100J0D01*
G01*
X16651600Y-13824500D02*
G75*
G02*
X16575400Y-13824500I-38100J0D01*
G01*
X16575400Y-13824500D02*
G75*
G02*
X16651600Y-13824500I38100J0D01*
G01*
X16905600Y-9760500D02*
G75*
G02*
X16829400Y-9760500I-38100J0D01*
G01*
X16829400Y-9760500D02*
G75*
G02*
X16905600Y-9760500I38100J0D01*
G01*
X16905600Y-13824500D02*
G75*
G02*
X16829400Y-13824500I-38100J0D01*
G01*
X16829400Y-13824500D02*
G75*
G02*
X16905600Y-13824500I38100J0D01*
G01*
X17159600Y-13824500D02*
G75*
G02*
X17083400Y-13824500I-38100J0D01*
G01*
X17083400Y-13824500D02*
G75*
G02*
X17159600Y-13824500I38100J0D01*
G01*
X11975000Y-5123000D02*
X11975000Y-5218000D01*
X11927500Y-5170500D02*
X12022500Y-5170500D01*
X11975000Y-6100500D02*
X11975000Y-6195500D01*
X11927500Y-6148000D02*
X12022500Y-6148000D01*
X12225000Y-5123000D02*
X12225000Y-5218000D01*
X12177500Y-5170500D02*
X12272500Y-5170500D01*
X12225000Y-6100500D02*
X12225000Y-6195500D01*
X12177500Y-6148000D02*
X12272500Y-6148000D01*
X12475000Y-5123000D02*
X12475000Y-5218000D01*
X12427500Y-5170500D02*
X12522500Y-5170500D01*
X12475000Y-6100500D02*
X12475000Y-6195500D01*
X12427500Y-6148000D02*
X12522500Y-6148000D01*
X12725000Y-5123000D02*
X12725000Y-5218000D01*
X12677500Y-5170500D02*
X12772500Y-5170500D01*
X12725000Y-6100500D02*
X12725000Y-6195500D01*
X12677500Y-6148000D02*
X12772500Y-6148000D01*
X12975000Y-5123000D02*
X12975000Y-5218000D01*
X12927500Y-5170500D02*
X13022500Y-5170500D01*
X12975000Y-6100500D02*
X12975000Y-6195500D01*
X12927500Y-6148000D02*
X13022500Y-6148000D01*
X13225000Y-5123000D02*
X13225000Y-5218000D01*
X13177500Y-5170500D02*
X13272500Y-5170500D01*
X13685000Y-6095500D02*
X13685000Y-6190500D01*
X13637500Y-6143000D02*
X13732500Y-6143000D01*
X13887500Y-5120500D02*
X13887500Y-5215500D01*
X13840000Y-5168000D02*
X13935000Y-5168000D01*
X13935000Y-6095500D02*
X13935000Y-6190500D01*
X13887500Y-6143000D02*
X13982500Y-6143000D01*
X14137500Y-5120500D02*
X14137500Y-5215500D01*
X14090000Y-5168000D02*
X14185000Y-5168000D01*
X14185000Y-6095500D02*
X14185000Y-6190500D01*
X14137500Y-6143000D02*
X14232500Y-6143000D01*
X14387500Y-5120500D02*
X14387500Y-5215500D01*
X14340000Y-5168000D02*
X14435000Y-5168000D01*
X14435000Y-6095500D02*
X14435000Y-6190500D01*
X14387500Y-6143000D02*
X14482500Y-6143000D01*
X14637500Y-5120500D02*
X14637500Y-5215500D01*
X14590000Y-5168000D02*
X14685000Y-5168000D01*
X14685000Y-6095500D02*
X14685000Y-6190500D01*
X14637500Y-6143000D02*
X14732500Y-6143000D01*
X14887500Y-5120500D02*
X14887500Y-5215500D01*
X14840000Y-5168000D02*
X14935000Y-5168000D01*
X15137500Y-5120500D02*
X15137500Y-5215500D01*
X15090000Y-5168000D02*
X15185000Y-5168000D01*
X15387500Y-5120500D02*
X15387500Y-5215500D01*
X15340000Y-5168000D02*
X15435000Y-5168000D01*
X15442500Y-6103000D02*
X15442500Y-6198000D01*
X15395000Y-6150500D02*
X15490000Y-6150500D01*
X15692500Y-6103000D02*
X15692500Y-6198000D01*
X15645000Y-6150500D02*
X15740000Y-6150500D01*
X15942500Y-6103000D02*
X15942500Y-6198000D01*
X15895000Y-6150500D02*
X15990000Y-6150500D01*
X16065000Y-5108000D02*
X16065000Y-5203000D01*
X16017500Y-5155500D02*
X16112500Y-5155500D01*
X16192500Y-6103000D02*
X16192500Y-6198000D01*
X16145000Y-6150500D02*
X16240000Y-6150500D01*
X16315000Y-5108000D02*
X16315000Y-5203000D01*
X16267500Y-5155500D02*
X16362500Y-5155500D01*
X16442500Y-6103000D02*
X16442500Y-6198000D01*
X16395000Y-6150500D02*
X16490000Y-6150500D01*
X16565000Y-5108000D02*
X16565000Y-5203000D01*
X16517500Y-5155500D02*
X16612500Y-5155500D01*
X16815000Y-5108000D02*
X16815000Y-5203000D01*
X16767500Y-5155500D02*
X16862500Y-5155500D01*
X17065000Y-5108000D02*
X17065000Y-5203000D01*
X17017500Y-5155500D02*
X17112500Y-5155500D01*
X17160000Y-7550500D02*
X17160000Y-7645500D01*
X17112500Y-7598000D02*
X17207500Y-7598000D01*
X17160000Y-7800500D02*
X17160000Y-7895500D01*
X17112500Y-7848000D02*
X17207500Y-7848000D01*
X17160000Y-8050500D02*
X17160000Y-8145500D01*
X17112500Y-8098000D02*
X17207500Y-8098000D01*
X17160000Y-8300500D02*
X17160000Y-8395500D01*
X17112500Y-8348000D02*
X17207500Y-8348000D01*
X17160000Y-8550500D02*
X17160000Y-8645500D01*
X17112500Y-8598000D02*
X17207500Y-8598000D01*
X10440356Y-4332856D02*
X10440356Y-4262144D01*
X10369644Y-4262144D01*
X10369644Y-4332856D01*
X10440356Y-4332856D01*
X10440356Y-4586856D02*
X10440356Y-4516144D01*
X10369644Y-4516144D01*
X10369644Y-4586856D01*
X10440356Y-4586856D01*
X10440356Y-4840856D02*
X10440356Y-4770144D01*
X10369644Y-4770144D01*
X10369644Y-4840856D01*
X10440356Y-4840856D01*
X10440356Y-5094856D02*
X10440356Y-5024144D01*
X10369644Y-5024144D01*
X10369644Y-5094856D01*
X10440356Y-5094856D01*
X10440356Y-5348856D02*
X10440356Y-5278144D01*
X10369644Y-5278144D01*
X10369644Y-5348856D01*
X10440356Y-5348856D01*
X10440356Y-5602856D02*
X10440356Y-5532144D01*
X10369644Y-5532144D01*
X10369644Y-5602856D01*
X10440356Y-5602856D01*
X10694356Y-4332856D02*
X10694356Y-4262144D01*
X10623644Y-4262144D01*
X10623644Y-4332856D01*
X10694356Y-4332856D01*
X10694356Y-4586856D02*
X10694356Y-4516144D01*
X10623644Y-4516144D01*
X10623644Y-4586856D01*
X10694356Y-4586856D01*
X10694356Y-4840856D02*
X10694356Y-4770144D01*
X10623644Y-4770144D01*
X10623644Y-4840856D01*
X10694356Y-4840856D01*
X10694356Y-5094856D02*
X10694356Y-5024144D01*
X10623644Y-5024144D01*
X10623644Y-5094856D01*
X10694356Y-5094856D01*
X10694356Y-5348856D02*
X10694356Y-5278144D01*
X10623644Y-5278144D01*
X10623644Y-5348856D01*
X10694356Y-5348856D01*
X10694356Y-5602856D02*
X10694356Y-5532144D01*
X10623644Y-5532144D01*
X10623644Y-5602856D01*
X10694356Y-5602856D01*
X11673356Y-9845356D02*
X11673356Y-9774644D01*
X11602644Y-9774644D01*
X11602644Y-9845356D01*
X11673356Y-9845356D01*
X11673356Y-10099356D02*
X11673356Y-10028644D01*
X11602644Y-10028644D01*
X11602644Y-10099356D01*
X11673356Y-10099356D01*
X11732356Y-10587356D02*
X11732356Y-10516644D01*
X11661644Y-10516644D01*
X11661644Y-10587356D01*
X11732356Y-10587356D01*
X11732356Y-11087356D02*
X11732356Y-11016644D01*
X11661644Y-11016644D01*
X11661644Y-11087356D01*
X11732356Y-11087356D01*
X11927356Y-9845356D02*
X11927356Y-9774644D01*
X11856644Y-9774644D01*
X11856644Y-9845356D01*
X11927356Y-9845356D01*
X11927356Y-10099356D02*
X11927356Y-10028644D01*
X11856644Y-10028644D01*
X11856644Y-10099356D01*
X11927356Y-10099356D01*
X12155356Y-4256356D02*
X12155356Y-4185644D01*
X12084644Y-4185644D01*
X12084644Y-4256356D01*
X12155356Y-4256356D01*
X12155356Y-4510356D02*
X12155356Y-4439644D01*
X12084644Y-4439644D01*
X12084644Y-4510356D01*
X12155356Y-4510356D01*
X12181356Y-9845356D02*
X12181356Y-9774644D01*
X12110644Y-9774644D01*
X12110644Y-9845356D01*
X12181356Y-9845356D01*
X12181356Y-10099356D02*
X12181356Y-10028644D01*
X12110644Y-10028644D01*
X12110644Y-10099356D01*
X12181356Y-10099356D01*
X12409356Y-4256356D02*
X12409356Y-4185644D01*
X12338644Y-4185644D01*
X12338644Y-4256356D01*
X12409356Y-4256356D01*
X12409356Y-4510356D02*
X12409356Y-4439644D01*
X12338644Y-4439644D01*
X12338644Y-4510356D01*
X12409356Y-4510356D01*
X12435356Y-9845356D02*
X12435356Y-9774644D01*
X12364644Y-9774644D01*
X12364644Y-9845356D01*
X12435356Y-9845356D01*
X12435356Y-10099356D02*
X12435356Y-10028644D01*
X12364644Y-10028644D01*
X12364644Y-10099356D01*
X12435356Y-10099356D01*
X12663356Y-4256356D02*
X12663356Y-4185644D01*
X12592644Y-4185644D01*
X12592644Y-4256356D01*
X12663356Y-4256356D01*
X12663356Y-4510356D02*
X12663356Y-4439644D01*
X12592644Y-4439644D01*
X12592644Y-4510356D01*
X12663356Y-4510356D01*
X12808356Y-10562356D02*
X12808356Y-10491644D01*
X12737644Y-10491644D01*
X12737644Y-10562356D01*
X12808356Y-10562356D01*
X12808356Y-11062356D02*
X12808356Y-10991644D01*
X12737644Y-10991644D01*
X12737644Y-11062356D01*
X12808356Y-11062356D01*
X12917356Y-4256356D02*
X12917356Y-4185644D01*
X12846644Y-4185644D01*
X12846644Y-4256356D01*
X12917356Y-4256356D01*
X12917356Y-4510356D02*
X12917356Y-4439644D01*
X12846644Y-4439644D01*
X12846644Y-4510356D01*
X12917356Y-4510356D01*
X13171356Y-4256356D02*
X13171356Y-4185644D01*
X13100644Y-4185644D01*
X13100644Y-4256356D01*
X13171356Y-4256356D01*
X13171356Y-4510356D02*
X13171356Y-4439644D01*
X13100644Y-4439644D01*
X13100644Y-4510356D01*
X13171356Y-4510356D01*
X13425356Y-4256356D02*
X13425356Y-4185644D01*
X13354644Y-4185644D01*
X13354644Y-4256356D01*
X13425356Y-4256356D01*
X13425356Y-4510356D02*
X13425356Y-4439644D01*
X13354644Y-4439644D01*
X13354644Y-4510356D01*
X13425356Y-4510356D01*
X13679356Y-4256356D02*
X13679356Y-4185644D01*
X13608644Y-4185644D01*
X13608644Y-4256356D01*
X13679356Y-4256356D01*
X13679356Y-4510356D02*
X13679356Y-4439644D01*
X13608644Y-4439644D01*
X13608644Y-4510356D01*
X13679356Y-4510356D01*
X13933356Y-4256356D02*
X13933356Y-4185644D01*
X13862644Y-4185644D01*
X13862644Y-4256356D01*
X13933356Y-4256356D01*
X13933356Y-4510356D02*
X13933356Y-4439644D01*
X13862644Y-4439644D01*
X13862644Y-4510356D01*
X13933356Y-4510356D01*
X14187356Y-4256356D02*
X14187356Y-4185644D01*
X14116644Y-4185644D01*
X14116644Y-4256356D01*
X14187356Y-4256356D01*
X14187356Y-4510356D02*
X14187356Y-4439644D01*
X14116644Y-4439644D01*
X14116644Y-4510356D01*
X14187356Y-4510356D01*
X14441356Y-4256356D02*
X14441356Y-4185644D01*
X14370644Y-4185644D01*
X14370644Y-4256356D01*
X14441356Y-4256356D01*
X14441356Y-4510356D02*
X14441356Y-4439644D01*
X14370644Y-4439644D01*
X14370644Y-4510356D01*
X14441356Y-4510356D01*
X14695356Y-4256356D02*
X14695356Y-4185644D01*
X14624644Y-4185644D01*
X14624644Y-4256356D01*
X14695356Y-4256356D01*
X14695356Y-4510356D02*
X14695356Y-4439644D01*
X14624644Y-4439644D01*
X14624644Y-4510356D01*
X14695356Y-4510356D01*
X14949356Y-4256356D02*
X14949356Y-4185644D01*
X14878644Y-4185644D01*
X14878644Y-4256356D01*
X14949356Y-4256356D01*
X14949356Y-4510356D02*
X14949356Y-4439644D01*
X14878644Y-4439644D01*
X14878644Y-4510356D01*
X14949356Y-4510356D01*
X15203356Y-4256356D02*
X15203356Y-4185644D01*
X15132644Y-4185644D01*
X15132644Y-4256356D01*
X15203356Y-4256356D01*
X15203356Y-4510356D02*
X15203356Y-4439644D01*
X15132644Y-4439644D01*
X15132644Y-4510356D01*
X15203356Y-4510356D01*
X15457356Y-4256356D02*
X15457356Y-4185644D01*
X15386644Y-4185644D01*
X15386644Y-4256356D01*
X15457356Y-4256356D01*
X15457356Y-4510356D02*
X15457356Y-4439644D01*
X15386644Y-4439644D01*
X15386644Y-4510356D01*
X15457356Y-4510356D01*
X15711356Y-4256356D02*
X15711356Y-4185644D01*
X15640644Y-4185644D01*
X15640644Y-4256356D01*
X15711356Y-4256356D01*
X15711356Y-4510356D02*
X15711356Y-4439644D01*
X15640644Y-4439644D01*
X15640644Y-4510356D01*
X15711356Y-4510356D01*
X15965356Y-4256356D02*
X15965356Y-4185644D01*
X15894644Y-4185644D01*
X15894644Y-4256356D01*
X15965356Y-4256356D01*
X15965356Y-4510356D02*
X15965356Y-4439644D01*
X15894644Y-4439644D01*
X15894644Y-4510356D01*
X15965356Y-4510356D01*
X16219356Y-4256356D02*
X16219356Y-4185644D01*
X16148644Y-4185644D01*
X16148644Y-4256356D01*
X16219356Y-4256356D01*
X16219356Y-4510356D02*
X16219356Y-4439644D01*
X16148644Y-4439644D01*
X16148644Y-4510356D01*
X16219356Y-4510356D01*
X16473356Y-4256356D02*
X16473356Y-4185644D01*
X16402644Y-4185644D01*
X16402644Y-4256356D01*
X16473356Y-4256356D01*
X16473356Y-4510356D02*
X16473356Y-4439644D01*
X16402644Y-4439644D01*
X16402644Y-4510356D01*
X16473356Y-4510356D01*
X16727356Y-4256356D02*
X16727356Y-4185644D01*
X16656644Y-4185644D01*
X16656644Y-4256356D01*
X16727356Y-4256356D01*
X16727356Y-4510356D02*
X16727356Y-4439644D01*
X16656644Y-4439644D01*
X16656644Y-4510356D01*
X16727356Y-4510356D01*
X16981356Y-4256356D02*
X16981356Y-4185644D01*
X16910644Y-4185644D01*
X16910644Y-4256356D01*
X16981356Y-4256356D01*
X16981356Y-4510356D02*
X16981356Y-4439644D01*
X16910644Y-4439644D01*
X16910644Y-4510356D01*
X16981356Y-4510356D01*
X17114356Y-6188356D02*
X17114356Y-6117644D01*
X17043644Y-6117644D01*
X17043644Y-6188356D01*
X17114356Y-6188356D01*
X17364356Y-6188356D02*
X17364356Y-6117644D01*
X17293644Y-6117644D01*
X17293644Y-6188356D01*
X17364356Y-6188356D01*
D12*
X10731000Y-10754000D02*
X10801000Y-10684000D01*
X10731000Y-10614000D01*
X10661000Y-10684000D01*
X10731000Y-10754000D01*
X10731000Y-11262000D02*
X10801000Y-11192000D01*
X10731000Y-11122000D01*
X10661000Y-11192000D01*
X10731000Y-11262000D01*
X10731000Y-11770000D02*
X10801000Y-11700000D01*
X10731000Y-11630000D01*
X10661000Y-11700000D01*
X10731000Y-11770000D01*
X10731000Y-12278000D02*
X10801000Y-12208000D01*
X10731000Y-12138000D01*
X10661000Y-12208000D01*
X10731000Y-12278000D01*
D13*
X11194500Y-12298500D02*
X11344500Y-12448500D01*
X11344500Y-12298500D02*
X11194500Y-12448500D01*
X11344500Y-12373500D02*
G75*
G02*
X11194500Y-12373500I-75000J0D01*
G01*
X11194500Y-12373500D02*
G75*
G02*
X11344500Y-12373500I75000J0D01*
G01*
X11194500Y-12806500D02*
X11344500Y-12956500D01*
X11344500Y-12806500D02*
X11194500Y-12956500D01*
X11344500Y-12881500D02*
G75*
G02*
X11194500Y-12881500I-75000J0D01*
G01*
X11194500Y-12881500D02*
G75*
G02*
X11344500Y-12881500I75000J0D01*
G01*
X11194500Y-13568500D02*
X11344500Y-13718500D01*
X11344500Y-13568500D02*
X11194500Y-13718500D01*
X11344500Y-13643500D02*
G75*
G02*
X11194500Y-13643500I-75000J0D01*
G01*
X11194500Y-13643500D02*
G75*
G02*
X11344500Y-13643500I75000J0D01*
G01*
X13226500Y-11536500D02*
X13376500Y-11686500D01*
X13376500Y-11536500D02*
X13226500Y-11686500D01*
X13376500Y-11611500D02*
G75*
G02*
X13226500Y-11611500I-75000J0D01*
G01*
X13226500Y-11611500D02*
G75*
G02*
X13376500Y-11611500I75000J0D01*
G01*
X13226500Y-12552500D02*
X13376500Y-12702500D01*
X13376500Y-12552500D02*
X13226500Y-12702500D01*
X13376500Y-12627500D02*
G75*
G02*
X13226500Y-12627500I-75000J0D01*
G01*
X13226500Y-12627500D02*
G75*
G02*
X13376500Y-12627500I75000J0D01*
G01*
X13226500Y-13568500D02*
X13376500Y-13718500D01*
X13376500Y-13568500D02*
X13226500Y-13718500D01*
X13376500Y-13643500D02*
G75*
G02*
X13226500Y-13643500I-75000J0D01*
G01*
X13226500Y-13643500D02*
G75*
G02*
X13376500Y-13643500I75000J0D01*
G01*
D14*
X11485000Y-4213000D02*
X11755000Y-4483000D01*
X11755000Y-4213000D02*
X11485000Y-4483000D01*
X11620000Y-4213000D02*
X11620000Y-4483000D01*
X11485000Y-4348000D02*
X11755000Y-4348000D01*
X11485000Y-9113000D02*
X11755000Y-9383000D01*
X11755000Y-9113000D02*
X11485000Y-9383000D01*
X11620000Y-9113000D02*
X11620000Y-9383000D01*
X11485000Y-9248000D02*
X11755000Y-9248000D01*
X11485000Y-14203000D02*
X11755000Y-14473000D01*
X11755000Y-14203000D02*
X11485000Y-14473000D01*
X11620000Y-14203000D02*
X11620000Y-14473000D01*
X11485000Y-14338000D02*
X11755000Y-14338000D01*
X17285000Y-4213000D02*
X17555000Y-4483000D01*
X17555000Y-4213000D02*
X17285000Y-4483000D01*
X17420000Y-4213000D02*
X17420000Y-4483000D01*
X17285000Y-4348000D02*
X17555000Y-4348000D01*
X17285000Y-9113000D02*
X17555000Y-9383000D01*
X17555000Y-9113000D02*
X17285000Y-9383000D01*
X17420000Y-9113000D02*
X17420000Y-9383000D01*
X17285000Y-9248000D02*
X17555000Y-9248000D01*
X17285000Y-14203000D02*
X17555000Y-14473000D01*
X17555000Y-14203000D02*
X17285000Y-14473000D01*
X17420000Y-14203000D02*
X17420000Y-14473000D01*
X17285000Y-14338000D02*
X17555000Y-14338000D01*
D10*
X10408277Y-14948984D02*
X10408277Y-14748984D01*
X10408277Y-14748984D02*
X10455896Y-14748984D01*
X10455896Y-14748984D02*
X10484467Y-14758508D01*
X10484467Y-14758508D02*
X10503515Y-14777555D01*
X10503515Y-14777555D02*
X10513039Y-14796603D01*
X10513039Y-14796603D02*
X10522563Y-14834698D01*
X10522563Y-14834698D02*
X10522563Y-14863269D01*
X10522563Y-14863269D02*
X10513039Y-14901365D01*
X10513039Y-14901365D02*
X10503515Y-14920412D01*
X10503515Y-14920412D02*
X10484467Y-14939460D01*
X10484467Y-14939460D02*
X10455896Y-14948984D01*
X10455896Y-14948984D02*
X10408277Y-14948984D01*
X10608277Y-14948984D02*
X10608277Y-14815650D01*
X10608277Y-14853746D02*
X10617801Y-14834698D01*
X10617801Y-14834698D02*
X10627324Y-14825174D01*
X10627324Y-14825174D02*
X10646372Y-14815650D01*
X10646372Y-14815650D02*
X10665420Y-14815650D01*
X10732086Y-14948984D02*
X10732086Y-14815650D01*
X10732086Y-14748984D02*
X10722563Y-14758508D01*
X10722563Y-14758508D02*
X10732086Y-14768031D01*
X10732086Y-14768031D02*
X10741610Y-14758508D01*
X10741610Y-14758508D02*
X10732086Y-14748984D01*
X10732086Y-14748984D02*
X10732086Y-14768031D01*
X10855896Y-14948984D02*
X10836848Y-14939460D01*
X10836848Y-14939460D02*
X10827324Y-14920412D01*
X10827324Y-14920412D02*
X10827324Y-14748984D01*
X10960658Y-14948984D02*
X10941610Y-14939460D01*
X10941610Y-14939460D02*
X10932086Y-14920412D01*
X10932086Y-14920412D02*
X10932086Y-14748984D01*
X11189229Y-14948984D02*
X11189229Y-14748984D01*
X11189229Y-14748984D02*
X11255896Y-14891841D01*
X11255896Y-14891841D02*
X11322562Y-14748984D01*
X11322562Y-14748984D02*
X11322562Y-14948984D01*
X11503515Y-14948984D02*
X11503515Y-14844222D01*
X11503515Y-14844222D02*
X11493991Y-14825174D01*
X11493991Y-14825174D02*
X11474943Y-14815650D01*
X11474943Y-14815650D02*
X11436848Y-14815650D01*
X11436848Y-14815650D02*
X11417801Y-14825174D01*
X11503515Y-14939460D02*
X11484467Y-14948984D01*
X11484467Y-14948984D02*
X11436848Y-14948984D01*
X11436848Y-14948984D02*
X11417801Y-14939460D01*
X11417801Y-14939460D02*
X11408277Y-14920412D01*
X11408277Y-14920412D02*
X11408277Y-14901365D01*
X11408277Y-14901365D02*
X11417801Y-14882317D01*
X11417801Y-14882317D02*
X11436848Y-14872793D01*
X11436848Y-14872793D02*
X11484467Y-14872793D01*
X11484467Y-14872793D02*
X11503515Y-14863269D01*
X11598753Y-14815650D02*
X11598753Y-15015650D01*
X11598753Y-14825174D02*
X11617801Y-14815650D01*
X11617801Y-14815650D02*
X11655896Y-14815650D01*
X11655896Y-14815650D02*
X11674943Y-14825174D01*
X11674943Y-14825174D02*
X11684467Y-14834698D01*
X11684467Y-14834698D02*
X11693991Y-14853746D01*
X11693991Y-14853746D02*
X11693991Y-14910888D01*
X11693991Y-14910888D02*
X11684467Y-14929936D01*
X11684467Y-14929936D02*
X11674943Y-14939460D01*
X11674943Y-14939460D02*
X11655896Y-14948984D01*
X11655896Y-14948984D02*
X11617801Y-14948984D01*
X11617801Y-14948984D02*
X11598753Y-14939460D01*
X11779705Y-14929936D02*
X11789229Y-14939460D01*
X11789229Y-14939460D02*
X11779705Y-14948984D01*
X11779705Y-14948984D02*
X11770182Y-14939460D01*
X11770182Y-14939460D02*
X11779705Y-14929936D01*
X11779705Y-14929936D02*
X11779705Y-14948984D01*
X11779705Y-14825174D02*
X11789229Y-14834698D01*
X11789229Y-14834698D02*
X11779705Y-14844222D01*
X11779705Y-14844222D02*
X11770182Y-14834698D01*
X11770182Y-14834698D02*
X11779705Y-14825174D01*
X11779705Y-14825174D02*
X11779705Y-14844222D01*
D11*
X10107500Y-15257500D02*
X10147500Y-15297500D01*
X10147500Y-15257500D02*
X10107500Y-15297500D01*
D10*
X10446372Y-15168984D02*
X10465420Y-15168984D01*
X10465420Y-15168984D02*
X10484467Y-15178508D01*
X10484467Y-15178508D02*
X10493991Y-15188031D01*
X10493991Y-15188031D02*
X10503515Y-15207079D01*
X10503515Y-15207079D02*
X10513039Y-15245174D01*
X10513039Y-15245174D02*
X10513039Y-15292793D01*
X10513039Y-15292793D02*
X10503515Y-15330888D01*
X10503515Y-15330888D02*
X10493991Y-15349936D01*
X10493991Y-15349936D02*
X10484467Y-15359460D01*
X10484467Y-15359460D02*
X10465420Y-15368984D01*
X10465420Y-15368984D02*
X10446372Y-15368984D01*
X10446372Y-15368984D02*
X10427324Y-15359460D01*
X10427324Y-15359460D02*
X10417801Y-15349936D01*
X10417801Y-15349936D02*
X10408277Y-15330888D01*
X10408277Y-15330888D02*
X10398753Y-15292793D01*
X10398753Y-15292793D02*
X10398753Y-15245174D01*
X10398753Y-15245174D02*
X10408277Y-15207079D01*
X10408277Y-15207079D02*
X10417801Y-15188031D01*
X10417801Y-15188031D02*
X10427324Y-15178508D01*
X10427324Y-15178508D02*
X10446372Y-15168984D01*
X10598753Y-15349936D02*
X10608277Y-15359460D01*
X10608277Y-15359460D02*
X10598753Y-15368984D01*
X10598753Y-15368984D02*
X10589229Y-15359460D01*
X10589229Y-15359460D02*
X10598753Y-15349936D01*
X10598753Y-15349936D02*
X10598753Y-15368984D01*
X10779705Y-15235650D02*
X10779705Y-15368984D01*
X10732086Y-15159460D02*
X10684467Y-15302317D01*
X10684467Y-15302317D02*
X10808277Y-15302317D01*
X10922563Y-15168984D02*
X10941610Y-15168984D01*
X10941610Y-15168984D02*
X10960658Y-15178508D01*
X10960658Y-15178508D02*
X10970182Y-15188031D01*
X10970182Y-15188031D02*
X10979705Y-15207079D01*
X10979705Y-15207079D02*
X10989229Y-15245174D01*
X10989229Y-15245174D02*
X10989229Y-15292793D01*
X10989229Y-15292793D02*
X10979705Y-15330888D01*
X10979705Y-15330888D02*
X10970182Y-15349936D01*
X10970182Y-15349936D02*
X10960658Y-15359460D01*
X10960658Y-15359460D02*
X10941610Y-15368984D01*
X10941610Y-15368984D02*
X10922563Y-15368984D01*
X10922563Y-15368984D02*
X10903515Y-15359460D01*
X10903515Y-15359460D02*
X10893991Y-15349936D01*
X10893991Y-15349936D02*
X10884467Y-15330888D01*
X10884467Y-15330888D02*
X10874944Y-15292793D01*
X10874944Y-15292793D02*
X10874944Y-15245174D01*
X10874944Y-15245174D02*
X10884467Y-15207079D01*
X10884467Y-15207079D02*
X10893991Y-15188031D01*
X10893991Y-15188031D02*
X10903515Y-15178508D01*
X10903515Y-15178508D02*
X10922563Y-15168984D01*
X11113039Y-15168984D02*
X11132086Y-15168984D01*
X11132086Y-15168984D02*
X11151134Y-15178508D01*
X11151134Y-15178508D02*
X11160658Y-15188031D01*
X11160658Y-15188031D02*
X11170182Y-15207079D01*
X11170182Y-15207079D02*
X11179705Y-15245174D01*
X11179705Y-15245174D02*
X11179705Y-15292793D01*
X11179705Y-15292793D02*
X11170182Y-15330888D01*
X11170182Y-15330888D02*
X11160658Y-15349936D01*
X11160658Y-15349936D02*
X11151134Y-15359460D01*
X11151134Y-15359460D02*
X11132086Y-15368984D01*
X11132086Y-15368984D02*
X11113039Y-15368984D01*
X11113039Y-15368984D02*
X11093991Y-15359460D01*
X11093991Y-15359460D02*
X11084467Y-15349936D01*
X11084467Y-15349936D02*
X11074944Y-15330888D01*
X11074944Y-15330888D02*
X11065420Y-15292793D01*
X11065420Y-15292793D02*
X11065420Y-15245174D01*
X11065420Y-15245174D02*
X11074944Y-15207079D01*
X11074944Y-15207079D02*
X11084467Y-15188031D01*
X11084467Y-15188031D02*
X11093991Y-15178508D01*
X11093991Y-15178508D02*
X11113039Y-15168984D01*
X11265420Y-15368984D02*
X11265420Y-15235650D01*
X11265420Y-15254698D02*
X11274943Y-15245174D01*
X11274943Y-15245174D02*
X11293991Y-15235650D01*
X11293991Y-15235650D02*
X11322563Y-15235650D01*
X11322563Y-15235650D02*
X11341610Y-15245174D01*
X11341610Y-15245174D02*
X11351134Y-15264222D01*
X11351134Y-15264222D02*
X11351134Y-15368984D01*
X11351134Y-15264222D02*
X11360658Y-15245174D01*
X11360658Y-15245174D02*
X11379705Y-15235650D01*
X11379705Y-15235650D02*
X11408277Y-15235650D01*
X11408277Y-15235650D02*
X11427324Y-15245174D01*
X11427324Y-15245174D02*
X11436848Y-15264222D01*
X11436848Y-15264222D02*
X11436848Y-15368984D01*
X11532086Y-15368984D02*
X11532086Y-15235650D01*
X11532086Y-15254698D02*
X11541610Y-15245174D01*
X11541610Y-15245174D02*
X11560658Y-15235650D01*
X11560658Y-15235650D02*
X11589229Y-15235650D01*
X11589229Y-15235650D02*
X11608277Y-15245174D01*
X11608277Y-15245174D02*
X11617801Y-15264222D01*
X11617801Y-15264222D02*
X11617801Y-15368984D01*
X11617801Y-15264222D02*
X11627324Y-15245174D01*
X11627324Y-15245174D02*
X11646372Y-15235650D01*
X11646372Y-15235650D02*
X11674943Y-15235650D01*
X11674943Y-15235650D02*
X11693991Y-15245174D01*
X11693991Y-15245174D02*
X11703515Y-15264222D01*
X11703515Y-15264222D02*
X11703515Y-15368984D01*
X12093991Y-15159460D02*
X11922563Y-15416603D01*
X12351134Y-15168984D02*
X12370182Y-15168984D01*
X12370182Y-15168984D02*
X12389229Y-15178508D01*
X12389229Y-15178508D02*
X12398753Y-15188031D01*
X12398753Y-15188031D02*
X12408277Y-15207079D01*
X12408277Y-15207079D02*
X12417801Y-15245174D01*
X12417801Y-15245174D02*
X12417801Y-15292793D01*
X12417801Y-15292793D02*
X12408277Y-15330888D01*
X12408277Y-15330888D02*
X12398753Y-15349936D01*
X12398753Y-15349936D02*
X12389229Y-15359460D01*
X12389229Y-15359460D02*
X12370182Y-15368984D01*
X12370182Y-15368984D02*
X12351134Y-15368984D01*
X12351134Y-15368984D02*
X12332086Y-15359460D01*
X12332086Y-15359460D02*
X12322563Y-15349936D01*
X12322563Y-15349936D02*
X12313039Y-15330888D01*
X12313039Y-15330888D02*
X12303515Y-15292793D01*
X12303515Y-15292793D02*
X12303515Y-15245174D01*
X12303515Y-15245174D02*
X12313039Y-15207079D01*
X12313039Y-15207079D02*
X12322563Y-15188031D01*
X12322563Y-15188031D02*
X12332086Y-15178508D01*
X12332086Y-15178508D02*
X12351134Y-15168984D01*
X12503515Y-15349936D02*
X12513039Y-15359460D01*
X12513039Y-15359460D02*
X12503515Y-15368984D01*
X12503515Y-15368984D02*
X12493991Y-15359460D01*
X12493991Y-15359460D02*
X12503515Y-15349936D01*
X12503515Y-15349936D02*
X12503515Y-15368984D01*
X12636848Y-15168984D02*
X12655896Y-15168984D01*
X12655896Y-15168984D02*
X12674944Y-15178508D01*
X12674944Y-15178508D02*
X12684467Y-15188031D01*
X12684467Y-15188031D02*
X12693991Y-15207079D01*
X12693991Y-15207079D02*
X12703515Y-15245174D01*
X12703515Y-15245174D02*
X12703515Y-15292793D01*
X12703515Y-15292793D02*
X12693991Y-15330888D01*
X12693991Y-15330888D02*
X12684467Y-15349936D01*
X12684467Y-15349936D02*
X12674944Y-15359460D01*
X12674944Y-15359460D02*
X12655896Y-15368984D01*
X12655896Y-15368984D02*
X12636848Y-15368984D01*
X12636848Y-15368984D02*
X12617801Y-15359460D01*
X12617801Y-15359460D02*
X12608277Y-15349936D01*
X12608277Y-15349936D02*
X12598753Y-15330888D01*
X12598753Y-15330888D02*
X12589229Y-15292793D01*
X12589229Y-15292793D02*
X12589229Y-15245174D01*
X12589229Y-15245174D02*
X12598753Y-15207079D01*
X12598753Y-15207079D02*
X12608277Y-15188031D01*
X12608277Y-15188031D02*
X12617801Y-15178508D01*
X12617801Y-15178508D02*
X12636848Y-15168984D01*
X12893991Y-15368984D02*
X12779706Y-15368984D01*
X12836848Y-15368984D02*
X12836848Y-15168984D01*
X12836848Y-15168984D02*
X12817801Y-15197555D01*
X12817801Y-15197555D02*
X12798753Y-15216603D01*
X12798753Y-15216603D02*
X12779706Y-15226127D01*
X13074944Y-15168984D02*
X12979706Y-15168984D01*
X12979706Y-15168984D02*
X12970182Y-15264222D01*
X12970182Y-15264222D02*
X12979706Y-15254698D01*
X12979706Y-15254698D02*
X12998753Y-15245174D01*
X12998753Y-15245174D02*
X13046372Y-15245174D01*
X13046372Y-15245174D02*
X13065420Y-15254698D01*
X13065420Y-15254698D02*
X13074944Y-15264222D01*
X13074944Y-15264222D02*
X13084467Y-15283269D01*
X13084467Y-15283269D02*
X13084467Y-15330888D01*
X13084467Y-15330888D02*
X13074944Y-15349936D01*
X13074944Y-15349936D02*
X13065420Y-15359460D01*
X13065420Y-15359460D02*
X13046372Y-15368984D01*
X13046372Y-15368984D02*
X12998753Y-15368984D01*
X12998753Y-15368984D02*
X12979706Y-15359460D01*
X12979706Y-15359460D02*
X12970182Y-15349936D01*
X13151134Y-15168984D02*
X13284467Y-15168984D01*
X13284467Y-15168984D02*
X13198753Y-15368984D01*
X13351134Y-15168984D02*
X13351134Y-15207079D01*
X13427325Y-15168984D02*
X13427325Y-15207079D01*
X13722563Y-15445174D02*
X13713039Y-15435650D01*
X13713039Y-15435650D02*
X13693991Y-15407079D01*
X13693991Y-15407079D02*
X13684468Y-15388031D01*
X13684468Y-15388031D02*
X13674944Y-15359460D01*
X13674944Y-15359460D02*
X13665420Y-15311841D01*
X13665420Y-15311841D02*
X13665420Y-15273746D01*
X13665420Y-15273746D02*
X13674944Y-15226127D01*
X13674944Y-15226127D02*
X13684468Y-15197555D01*
X13684468Y-15197555D02*
X13693991Y-15178508D01*
X13693991Y-15178508D02*
X13713039Y-15149936D01*
X13713039Y-15149936D02*
X13722563Y-15140412D01*
X13789229Y-15188031D02*
X13798753Y-15178508D01*
X13798753Y-15178508D02*
X13817801Y-15168984D01*
X13817801Y-15168984D02*
X13865420Y-15168984D01*
X13865420Y-15168984D02*
X13884468Y-15178508D01*
X13884468Y-15178508D02*
X13893991Y-15188031D01*
X13893991Y-15188031D02*
X13903515Y-15207079D01*
X13903515Y-15207079D02*
X13903515Y-15226127D01*
X13903515Y-15226127D02*
X13893991Y-15254698D01*
X13893991Y-15254698D02*
X13779706Y-15368984D01*
X13779706Y-15368984D02*
X13903515Y-15368984D01*
X14084468Y-15168984D02*
X13989229Y-15168984D01*
X13989229Y-15168984D02*
X13979706Y-15264222D01*
X13979706Y-15264222D02*
X13989229Y-15254698D01*
X13989229Y-15254698D02*
X14008277Y-15245174D01*
X14008277Y-15245174D02*
X14055896Y-15245174D01*
X14055896Y-15245174D02*
X14074944Y-15254698D01*
X14074944Y-15254698D02*
X14084468Y-15264222D01*
X14084468Y-15264222D02*
X14093991Y-15283269D01*
X14093991Y-15283269D02*
X14093991Y-15330888D01*
X14093991Y-15330888D02*
X14084468Y-15349936D01*
X14084468Y-15349936D02*
X14074944Y-15359460D01*
X14074944Y-15359460D02*
X14055896Y-15368984D01*
X14055896Y-15368984D02*
X14008277Y-15368984D01*
X14008277Y-15368984D02*
X13989229Y-15359460D01*
X13989229Y-15359460D02*
X13979706Y-15349936D01*
X14332087Y-15368984D02*
X14332087Y-15168984D01*
X14417801Y-15368984D02*
X14417801Y-15264222D01*
X14417801Y-15264222D02*
X14408277Y-15245174D01*
X14408277Y-15245174D02*
X14389230Y-15235650D01*
X14389230Y-15235650D02*
X14360658Y-15235650D01*
X14360658Y-15235650D02*
X14341610Y-15245174D01*
X14341610Y-15245174D02*
X14332087Y-15254698D01*
X14541610Y-15368984D02*
X14522563Y-15359460D01*
X14522563Y-15359460D02*
X14513039Y-15349936D01*
X14513039Y-15349936D02*
X14503515Y-15330888D01*
X14503515Y-15330888D02*
X14503515Y-15273746D01*
X14503515Y-15273746D02*
X14513039Y-15254698D01*
X14513039Y-15254698D02*
X14522563Y-15245174D01*
X14522563Y-15245174D02*
X14541610Y-15235650D01*
X14541610Y-15235650D02*
X14570182Y-15235650D01*
X14570182Y-15235650D02*
X14589230Y-15245174D01*
X14589230Y-15245174D02*
X14598753Y-15254698D01*
X14598753Y-15254698D02*
X14608277Y-15273746D01*
X14608277Y-15273746D02*
X14608277Y-15330888D01*
X14608277Y-15330888D02*
X14598753Y-15349936D01*
X14598753Y-15349936D02*
X14589230Y-15359460D01*
X14589230Y-15359460D02*
X14570182Y-15368984D01*
X14570182Y-15368984D02*
X14541610Y-15368984D01*
X14722563Y-15368984D02*
X14703515Y-15359460D01*
X14703515Y-15359460D02*
X14693991Y-15340412D01*
X14693991Y-15340412D02*
X14693991Y-15168984D01*
X14874944Y-15359460D02*
X14855896Y-15368984D01*
X14855896Y-15368984D02*
X14817801Y-15368984D01*
X14817801Y-15368984D02*
X14798753Y-15359460D01*
X14798753Y-15359460D02*
X14789230Y-15340412D01*
X14789230Y-15340412D02*
X14789230Y-15264222D01*
X14789230Y-15264222D02*
X14798753Y-15245174D01*
X14798753Y-15245174D02*
X14817801Y-15235650D01*
X14817801Y-15235650D02*
X14855896Y-15235650D01*
X14855896Y-15235650D02*
X14874944Y-15245174D01*
X14874944Y-15245174D02*
X14884468Y-15264222D01*
X14884468Y-15264222D02*
X14884468Y-15283269D01*
X14884468Y-15283269D02*
X14789230Y-15302317D01*
X14960658Y-15359460D02*
X14979706Y-15368984D01*
X14979706Y-15368984D02*
X15017801Y-15368984D01*
X15017801Y-15368984D02*
X15036849Y-15359460D01*
X15036849Y-15359460D02*
X15046372Y-15340412D01*
X15046372Y-15340412D02*
X15046372Y-15330888D01*
X15046372Y-15330888D02*
X15036849Y-15311841D01*
X15036849Y-15311841D02*
X15017801Y-15302317D01*
X15017801Y-15302317D02*
X14989230Y-15302317D01*
X14989230Y-15302317D02*
X14970182Y-15292793D01*
X14970182Y-15292793D02*
X14960658Y-15273746D01*
X14960658Y-15273746D02*
X14960658Y-15264222D01*
X14960658Y-15264222D02*
X14970182Y-15245174D01*
X14970182Y-15245174D02*
X14989230Y-15235650D01*
X14989230Y-15235650D02*
X15017801Y-15235650D01*
X15017801Y-15235650D02*
X15036849Y-15245174D01*
X15113039Y-15445174D02*
X15122563Y-15435650D01*
X15122563Y-15435650D02*
X15141611Y-15407079D01*
X15141611Y-15407079D02*
X15151134Y-15388031D01*
X15151134Y-15388031D02*
X15160658Y-15359460D01*
X15160658Y-15359460D02*
X15170182Y-15311841D01*
X15170182Y-15311841D02*
X15170182Y-15273746D01*
X15170182Y-15273746D02*
X15160658Y-15226127D01*
X15160658Y-15226127D02*
X15151134Y-15197555D01*
X15151134Y-15197555D02*
X15141611Y-15178508D01*
X15141611Y-15178508D02*
X15122563Y-15149936D01*
X15122563Y-15149936D02*
X15113039Y-15140412D01*
D11*
X10147500Y-15541500D02*
G75*
G02*
X10071300Y-15541500I-38100J0D01*
G01*
X10071300Y-15541500D02*
G75*
G02*
X10147500Y-15541500I38100J0D01*
G01*
D10*
X10446372Y-15432984D02*
X10465420Y-15432984D01*
X10465420Y-15432984D02*
X10484467Y-15442508D01*
X10484467Y-15442508D02*
X10493991Y-15452031D01*
X10493991Y-15452031D02*
X10503515Y-15471079D01*
X10503515Y-15471079D02*
X10513039Y-15509174D01*
X10513039Y-15509174D02*
X10513039Y-15556793D01*
X10513039Y-15556793D02*
X10503515Y-15594888D01*
X10503515Y-15594888D02*
X10493991Y-15613936D01*
X10493991Y-15613936D02*
X10484467Y-15623460D01*
X10484467Y-15623460D02*
X10465420Y-15632984D01*
X10465420Y-15632984D02*
X10446372Y-15632984D01*
X10446372Y-15632984D02*
X10427324Y-15623460D01*
X10427324Y-15623460D02*
X10417801Y-15613936D01*
X10417801Y-15613936D02*
X10408277Y-15594888D01*
X10408277Y-15594888D02*
X10398753Y-15556793D01*
X10398753Y-15556793D02*
X10398753Y-15509174D01*
X10398753Y-15509174D02*
X10408277Y-15471079D01*
X10408277Y-15471079D02*
X10417801Y-15452031D01*
X10417801Y-15452031D02*
X10427324Y-15442508D01*
X10427324Y-15442508D02*
X10446372Y-15432984D01*
X10598753Y-15613936D02*
X10608277Y-15623460D01*
X10608277Y-15623460D02*
X10598753Y-15632984D01*
X10598753Y-15632984D02*
X10589229Y-15623460D01*
X10589229Y-15623460D02*
X10598753Y-15613936D01*
X10598753Y-15613936D02*
X10598753Y-15632984D01*
X10674944Y-15432984D02*
X10808277Y-15432984D01*
X10808277Y-15432984D02*
X10722563Y-15632984D01*
X10970182Y-15432984D02*
X10932086Y-15432984D01*
X10932086Y-15432984D02*
X10913039Y-15442508D01*
X10913039Y-15442508D02*
X10903515Y-15452031D01*
X10903515Y-15452031D02*
X10884467Y-15480603D01*
X10884467Y-15480603D02*
X10874944Y-15518698D01*
X10874944Y-15518698D02*
X10874944Y-15594888D01*
X10874944Y-15594888D02*
X10884467Y-15613936D01*
X10884467Y-15613936D02*
X10893991Y-15623460D01*
X10893991Y-15623460D02*
X10913039Y-15632984D01*
X10913039Y-15632984D02*
X10951134Y-15632984D01*
X10951134Y-15632984D02*
X10970182Y-15623460D01*
X10970182Y-15623460D02*
X10979705Y-15613936D01*
X10979705Y-15613936D02*
X10989229Y-15594888D01*
X10989229Y-15594888D02*
X10989229Y-15547269D01*
X10989229Y-15547269D02*
X10979705Y-15528222D01*
X10979705Y-15528222D02*
X10970182Y-15518698D01*
X10970182Y-15518698D02*
X10951134Y-15509174D01*
X10951134Y-15509174D02*
X10913039Y-15509174D01*
X10913039Y-15509174D02*
X10893991Y-15518698D01*
X10893991Y-15518698D02*
X10884467Y-15528222D01*
X10884467Y-15528222D02*
X10874944Y-15547269D01*
X11065420Y-15452031D02*
X11074944Y-15442508D01*
X11074944Y-15442508D02*
X11093991Y-15432984D01*
X11093991Y-15432984D02*
X11141610Y-15432984D01*
X11141610Y-15432984D02*
X11160658Y-15442508D01*
X11160658Y-15442508D02*
X11170182Y-15452031D01*
X11170182Y-15452031D02*
X11179705Y-15471079D01*
X11179705Y-15471079D02*
X11179705Y-15490127D01*
X11179705Y-15490127D02*
X11170182Y-15518698D01*
X11170182Y-15518698D02*
X11055896Y-15632984D01*
X11055896Y-15632984D02*
X11179705Y-15632984D01*
X11265420Y-15632984D02*
X11265420Y-15499650D01*
X11265420Y-15518698D02*
X11274943Y-15509174D01*
X11274943Y-15509174D02*
X11293991Y-15499650D01*
X11293991Y-15499650D02*
X11322563Y-15499650D01*
X11322563Y-15499650D02*
X11341610Y-15509174D01*
X11341610Y-15509174D02*
X11351134Y-15528222D01*
X11351134Y-15528222D02*
X11351134Y-15632984D01*
X11351134Y-15528222D02*
X11360658Y-15509174D01*
X11360658Y-15509174D02*
X11379705Y-15499650D01*
X11379705Y-15499650D02*
X11408277Y-15499650D01*
X11408277Y-15499650D02*
X11427324Y-15509174D01*
X11427324Y-15509174D02*
X11436848Y-15528222D01*
X11436848Y-15528222D02*
X11436848Y-15632984D01*
X11532086Y-15632984D02*
X11532086Y-15499650D01*
X11532086Y-15518698D02*
X11541610Y-15509174D01*
X11541610Y-15509174D02*
X11560658Y-15499650D01*
X11560658Y-15499650D02*
X11589229Y-15499650D01*
X11589229Y-15499650D02*
X11608277Y-15509174D01*
X11608277Y-15509174D02*
X11617801Y-15528222D01*
X11617801Y-15528222D02*
X11617801Y-15632984D01*
X11617801Y-15528222D02*
X11627324Y-15509174D01*
X11627324Y-15509174D02*
X11646372Y-15499650D01*
X11646372Y-15499650D02*
X11674943Y-15499650D01*
X11674943Y-15499650D02*
X11693991Y-15509174D01*
X11693991Y-15509174D02*
X11703515Y-15528222D01*
X11703515Y-15528222D02*
X11703515Y-15632984D01*
X12093991Y-15423460D02*
X11922563Y-15680603D01*
X12351134Y-15432984D02*
X12370182Y-15432984D01*
X12370182Y-15432984D02*
X12389229Y-15442508D01*
X12389229Y-15442508D02*
X12398753Y-15452031D01*
X12398753Y-15452031D02*
X12408277Y-15471079D01*
X12408277Y-15471079D02*
X12417801Y-15509174D01*
X12417801Y-15509174D02*
X12417801Y-15556793D01*
X12417801Y-15556793D02*
X12408277Y-15594888D01*
X12408277Y-15594888D02*
X12398753Y-15613936D01*
X12398753Y-15613936D02*
X12389229Y-15623460D01*
X12389229Y-15623460D02*
X12370182Y-15632984D01*
X12370182Y-15632984D02*
X12351134Y-15632984D01*
X12351134Y-15632984D02*
X12332086Y-15623460D01*
X12332086Y-15623460D02*
X12322563Y-15613936D01*
X12322563Y-15613936D02*
X12313039Y-15594888D01*
X12313039Y-15594888D02*
X12303515Y-15556793D01*
X12303515Y-15556793D02*
X12303515Y-15509174D01*
X12303515Y-15509174D02*
X12313039Y-15471079D01*
X12313039Y-15471079D02*
X12322563Y-15452031D01*
X12322563Y-15452031D02*
X12332086Y-15442508D01*
X12332086Y-15442508D02*
X12351134Y-15432984D01*
X12503515Y-15613936D02*
X12513039Y-15623460D01*
X12513039Y-15623460D02*
X12503515Y-15632984D01*
X12503515Y-15632984D02*
X12493991Y-15623460D01*
X12493991Y-15623460D02*
X12503515Y-15613936D01*
X12503515Y-15613936D02*
X12503515Y-15632984D01*
X12636848Y-15432984D02*
X12655896Y-15432984D01*
X12655896Y-15432984D02*
X12674944Y-15442508D01*
X12674944Y-15442508D02*
X12684467Y-15452031D01*
X12684467Y-15452031D02*
X12693991Y-15471079D01*
X12693991Y-15471079D02*
X12703515Y-15509174D01*
X12703515Y-15509174D02*
X12703515Y-15556793D01*
X12703515Y-15556793D02*
X12693991Y-15594888D01*
X12693991Y-15594888D02*
X12684467Y-15613936D01*
X12684467Y-15613936D02*
X12674944Y-15623460D01*
X12674944Y-15623460D02*
X12655896Y-15632984D01*
X12655896Y-15632984D02*
X12636848Y-15632984D01*
X12636848Y-15632984D02*
X12617801Y-15623460D01*
X12617801Y-15623460D02*
X12608277Y-15613936D01*
X12608277Y-15613936D02*
X12598753Y-15594888D01*
X12598753Y-15594888D02*
X12589229Y-15556793D01*
X12589229Y-15556793D02*
X12589229Y-15509174D01*
X12589229Y-15509174D02*
X12598753Y-15471079D01*
X12598753Y-15471079D02*
X12608277Y-15452031D01*
X12608277Y-15452031D02*
X12617801Y-15442508D01*
X12617801Y-15442508D02*
X12636848Y-15432984D01*
X12770182Y-15432984D02*
X12893991Y-15432984D01*
X12893991Y-15432984D02*
X12827325Y-15509174D01*
X12827325Y-15509174D02*
X12855896Y-15509174D01*
X12855896Y-15509174D02*
X12874944Y-15518698D01*
X12874944Y-15518698D02*
X12884467Y-15528222D01*
X12884467Y-15528222D02*
X12893991Y-15547269D01*
X12893991Y-15547269D02*
X12893991Y-15594888D01*
X12893991Y-15594888D02*
X12884467Y-15613936D01*
X12884467Y-15613936D02*
X12874944Y-15623460D01*
X12874944Y-15623460D02*
X12855896Y-15632984D01*
X12855896Y-15632984D02*
X12798753Y-15632984D01*
X12798753Y-15632984D02*
X12779706Y-15623460D01*
X12779706Y-15623460D02*
X12770182Y-15613936D01*
X13017801Y-15432984D02*
X13036848Y-15432984D01*
X13036848Y-15432984D02*
X13055896Y-15442508D01*
X13055896Y-15442508D02*
X13065420Y-15452031D01*
X13065420Y-15452031D02*
X13074944Y-15471079D01*
X13074944Y-15471079D02*
X13084467Y-15509174D01*
X13084467Y-15509174D02*
X13084467Y-15556793D01*
X13084467Y-15556793D02*
X13074944Y-15594888D01*
X13074944Y-15594888D02*
X13065420Y-15613936D01*
X13065420Y-15613936D02*
X13055896Y-15623460D01*
X13055896Y-15623460D02*
X13036848Y-15632984D01*
X13036848Y-15632984D02*
X13017801Y-15632984D01*
X13017801Y-15632984D02*
X12998753Y-15623460D01*
X12998753Y-15623460D02*
X12989229Y-15613936D01*
X12989229Y-15613936D02*
X12979706Y-15594888D01*
X12979706Y-15594888D02*
X12970182Y-15556793D01*
X12970182Y-15556793D02*
X12970182Y-15509174D01*
X12970182Y-15509174D02*
X12979706Y-15471079D01*
X12979706Y-15471079D02*
X12989229Y-15452031D01*
X12989229Y-15452031D02*
X12998753Y-15442508D01*
X12998753Y-15442508D02*
X13017801Y-15432984D01*
X13208277Y-15432984D02*
X13227325Y-15432984D01*
X13227325Y-15432984D02*
X13246372Y-15442508D01*
X13246372Y-15442508D02*
X13255896Y-15452031D01*
X13255896Y-15452031D02*
X13265420Y-15471079D01*
X13265420Y-15471079D02*
X13274944Y-15509174D01*
X13274944Y-15509174D02*
X13274944Y-15556793D01*
X13274944Y-15556793D02*
X13265420Y-15594888D01*
X13265420Y-15594888D02*
X13255896Y-15613936D01*
X13255896Y-15613936D02*
X13246372Y-15623460D01*
X13246372Y-15623460D02*
X13227325Y-15632984D01*
X13227325Y-15632984D02*
X13208277Y-15632984D01*
X13208277Y-15632984D02*
X13189229Y-15623460D01*
X13189229Y-15623460D02*
X13179706Y-15613936D01*
X13179706Y-15613936D02*
X13170182Y-15594888D01*
X13170182Y-15594888D02*
X13160658Y-15556793D01*
X13160658Y-15556793D02*
X13160658Y-15509174D01*
X13160658Y-15509174D02*
X13170182Y-15471079D01*
X13170182Y-15471079D02*
X13179706Y-15452031D01*
X13179706Y-15452031D02*
X13189229Y-15442508D01*
X13189229Y-15442508D02*
X13208277Y-15432984D01*
X13351134Y-15432984D02*
X13351134Y-15471079D01*
X13427325Y-15432984D02*
X13427325Y-15471079D01*
X13722563Y-15709174D02*
X13713039Y-15699650D01*
X13713039Y-15699650D02*
X13693991Y-15671079D01*
X13693991Y-15671079D02*
X13684468Y-15652031D01*
X13684468Y-15652031D02*
X13674944Y-15623460D01*
X13674944Y-15623460D02*
X13665420Y-15575841D01*
X13665420Y-15575841D02*
X13665420Y-15537746D01*
X13665420Y-15537746D02*
X13674944Y-15490127D01*
X13674944Y-15490127D02*
X13684468Y-15461555D01*
X13684468Y-15461555D02*
X13693991Y-15442508D01*
X13693991Y-15442508D02*
X13713039Y-15413936D01*
X13713039Y-15413936D02*
X13722563Y-15404412D01*
X13779706Y-15432984D02*
X13903515Y-15432984D01*
X13903515Y-15432984D02*
X13836848Y-15509174D01*
X13836848Y-15509174D02*
X13865420Y-15509174D01*
X13865420Y-15509174D02*
X13884468Y-15518698D01*
X13884468Y-15518698D02*
X13893991Y-15528222D01*
X13893991Y-15528222D02*
X13903515Y-15547269D01*
X13903515Y-15547269D02*
X13903515Y-15594888D01*
X13903515Y-15594888D02*
X13893991Y-15613936D01*
X13893991Y-15613936D02*
X13884468Y-15623460D01*
X13884468Y-15623460D02*
X13865420Y-15632984D01*
X13865420Y-15632984D02*
X13808277Y-15632984D01*
X13808277Y-15632984D02*
X13789229Y-15623460D01*
X13789229Y-15623460D02*
X13779706Y-15613936D01*
X14084468Y-15432984D02*
X13989229Y-15432984D01*
X13989229Y-15432984D02*
X13979706Y-15528222D01*
X13979706Y-15528222D02*
X13989229Y-15518698D01*
X13989229Y-15518698D02*
X14008277Y-15509174D01*
X14008277Y-15509174D02*
X14055896Y-15509174D01*
X14055896Y-15509174D02*
X14074944Y-15518698D01*
X14074944Y-15518698D02*
X14084468Y-15528222D01*
X14084468Y-15528222D02*
X14093991Y-15547269D01*
X14093991Y-15547269D02*
X14093991Y-15594888D01*
X14093991Y-15594888D02*
X14084468Y-15613936D01*
X14084468Y-15613936D02*
X14074944Y-15623460D01*
X14074944Y-15623460D02*
X14055896Y-15632984D01*
X14055896Y-15632984D02*
X14008277Y-15632984D01*
X14008277Y-15632984D02*
X13989229Y-15623460D01*
X13989229Y-15623460D02*
X13979706Y-15613936D01*
X14332087Y-15632984D02*
X14332087Y-15432984D01*
X14417801Y-15632984D02*
X14417801Y-15528222D01*
X14417801Y-15528222D02*
X14408277Y-15509174D01*
X14408277Y-15509174D02*
X14389230Y-15499650D01*
X14389230Y-15499650D02*
X14360658Y-15499650D01*
X14360658Y-15499650D02*
X14341610Y-15509174D01*
X14341610Y-15509174D02*
X14332087Y-15518698D01*
X14541610Y-15632984D02*
X14522563Y-15623460D01*
X14522563Y-15623460D02*
X14513039Y-15613936D01*
X14513039Y-15613936D02*
X14503515Y-15594888D01*
X14503515Y-15594888D02*
X14503515Y-15537746D01*
X14503515Y-15537746D02*
X14513039Y-15518698D01*
X14513039Y-15518698D02*
X14522563Y-15509174D01*
X14522563Y-15509174D02*
X14541610Y-15499650D01*
X14541610Y-15499650D02*
X14570182Y-15499650D01*
X14570182Y-15499650D02*
X14589230Y-15509174D01*
X14589230Y-15509174D02*
X14598753Y-15518698D01*
X14598753Y-15518698D02*
X14608277Y-15537746D01*
X14608277Y-15537746D02*
X14608277Y-15594888D01*
X14608277Y-15594888D02*
X14598753Y-15613936D01*
X14598753Y-15613936D02*
X14589230Y-15623460D01*
X14589230Y-15623460D02*
X14570182Y-15632984D01*
X14570182Y-15632984D02*
X14541610Y-15632984D01*
X14722563Y-15632984D02*
X14703515Y-15623460D01*
X14703515Y-15623460D02*
X14693991Y-15604412D01*
X14693991Y-15604412D02*
X14693991Y-15432984D01*
X14874944Y-15623460D02*
X14855896Y-15632984D01*
X14855896Y-15632984D02*
X14817801Y-15632984D01*
X14817801Y-15632984D02*
X14798753Y-15623460D01*
X14798753Y-15623460D02*
X14789230Y-15604412D01*
X14789230Y-15604412D02*
X14789230Y-15528222D01*
X14789230Y-15528222D02*
X14798753Y-15509174D01*
X14798753Y-15509174D02*
X14817801Y-15499650D01*
X14817801Y-15499650D02*
X14855896Y-15499650D01*
X14855896Y-15499650D02*
X14874944Y-15509174D01*
X14874944Y-15509174D02*
X14884468Y-15528222D01*
X14884468Y-15528222D02*
X14884468Y-15547269D01*
X14884468Y-15547269D02*
X14789230Y-15566317D01*
X14960658Y-15623460D02*
X14979706Y-15632984D01*
X14979706Y-15632984D02*
X15017801Y-15632984D01*
X15017801Y-15632984D02*
X15036849Y-15623460D01*
X15036849Y-15623460D02*
X15046372Y-15604412D01*
X15046372Y-15604412D02*
X15046372Y-15594888D01*
X15046372Y-15594888D02*
X15036849Y-15575841D01*
X15036849Y-15575841D02*
X15017801Y-15566317D01*
X15017801Y-15566317D02*
X14989230Y-15566317D01*
X14989230Y-15566317D02*
X14970182Y-15556793D01*
X14970182Y-15556793D02*
X14960658Y-15537746D01*
X14960658Y-15537746D02*
X14960658Y-15528222D01*
X14960658Y-15528222D02*
X14970182Y-15509174D01*
X14970182Y-15509174D02*
X14989230Y-15499650D01*
X14989230Y-15499650D02*
X15017801Y-15499650D01*
X15017801Y-15499650D02*
X15036849Y-15509174D01*
X15113039Y-15709174D02*
X15122563Y-15699650D01*
X15122563Y-15699650D02*
X15141611Y-15671079D01*
X15141611Y-15671079D02*
X15151134Y-15652031D01*
X15151134Y-15652031D02*
X15160658Y-15623460D01*
X15160658Y-15623460D02*
X15170182Y-15575841D01*
X15170182Y-15575841D02*
X15170182Y-15537746D01*
X15170182Y-15537746D02*
X15160658Y-15490127D01*
X15160658Y-15490127D02*
X15151134Y-15461555D01*
X15151134Y-15461555D02*
X15141611Y-15442508D01*
X15141611Y-15442508D02*
X15122563Y-15413936D01*
X15122563Y-15413936D02*
X15113039Y-15404412D01*
D11*
X10100000Y-15758000D02*
X10100000Y-15853000D01*
X10052500Y-15805500D02*
X10147500Y-15805500D01*
D10*
X10446372Y-15696984D02*
X10465420Y-15696984D01*
X10465420Y-15696984D02*
X10484467Y-15706508D01*
X10484467Y-15706508D02*
X10493991Y-15716031D01*
X10493991Y-15716031D02*
X10503515Y-15735079D01*
X10503515Y-15735079D02*
X10513039Y-15773174D01*
X10513039Y-15773174D02*
X10513039Y-15820793D01*
X10513039Y-15820793D02*
X10503515Y-15858888D01*
X10503515Y-15858888D02*
X10493991Y-15877936D01*
X10493991Y-15877936D02*
X10484467Y-15887460D01*
X10484467Y-15887460D02*
X10465420Y-15896984D01*
X10465420Y-15896984D02*
X10446372Y-15896984D01*
X10446372Y-15896984D02*
X10427324Y-15887460D01*
X10427324Y-15887460D02*
X10417801Y-15877936D01*
X10417801Y-15877936D02*
X10408277Y-15858888D01*
X10408277Y-15858888D02*
X10398753Y-15820793D01*
X10398753Y-15820793D02*
X10398753Y-15773174D01*
X10398753Y-15773174D02*
X10408277Y-15735079D01*
X10408277Y-15735079D02*
X10417801Y-15716031D01*
X10417801Y-15716031D02*
X10427324Y-15706508D01*
X10427324Y-15706508D02*
X10446372Y-15696984D01*
X10598753Y-15877936D02*
X10608277Y-15887460D01*
X10608277Y-15887460D02*
X10598753Y-15896984D01*
X10598753Y-15896984D02*
X10589229Y-15887460D01*
X10589229Y-15887460D02*
X10598753Y-15877936D01*
X10598753Y-15877936D02*
X10598753Y-15896984D01*
X10703515Y-15896984D02*
X10741610Y-15896984D01*
X10741610Y-15896984D02*
X10760658Y-15887460D01*
X10760658Y-15887460D02*
X10770182Y-15877936D01*
X10770182Y-15877936D02*
X10789229Y-15849365D01*
X10789229Y-15849365D02*
X10798753Y-15811269D01*
X10798753Y-15811269D02*
X10798753Y-15735079D01*
X10798753Y-15735079D02*
X10789229Y-15716031D01*
X10789229Y-15716031D02*
X10779705Y-15706508D01*
X10779705Y-15706508D02*
X10760658Y-15696984D01*
X10760658Y-15696984D02*
X10722563Y-15696984D01*
X10722563Y-15696984D02*
X10703515Y-15706508D01*
X10703515Y-15706508D02*
X10693991Y-15716031D01*
X10693991Y-15716031D02*
X10684467Y-15735079D01*
X10684467Y-15735079D02*
X10684467Y-15782698D01*
X10684467Y-15782698D02*
X10693991Y-15801746D01*
X10693991Y-15801746D02*
X10703515Y-15811269D01*
X10703515Y-15811269D02*
X10722563Y-15820793D01*
X10722563Y-15820793D02*
X10760658Y-15820793D01*
X10760658Y-15820793D02*
X10779705Y-15811269D01*
X10779705Y-15811269D02*
X10789229Y-15801746D01*
X10789229Y-15801746D02*
X10798753Y-15782698D01*
X10979705Y-15696984D02*
X10884467Y-15696984D01*
X10884467Y-15696984D02*
X10874944Y-15792222D01*
X10874944Y-15792222D02*
X10884467Y-15782698D01*
X10884467Y-15782698D02*
X10903515Y-15773174D01*
X10903515Y-15773174D02*
X10951134Y-15773174D01*
X10951134Y-15773174D02*
X10970182Y-15782698D01*
X10970182Y-15782698D02*
X10979705Y-15792222D01*
X10979705Y-15792222D02*
X10989229Y-15811269D01*
X10989229Y-15811269D02*
X10989229Y-15858888D01*
X10989229Y-15858888D02*
X10979705Y-15877936D01*
X10979705Y-15877936D02*
X10970182Y-15887460D01*
X10970182Y-15887460D02*
X10951134Y-15896984D01*
X10951134Y-15896984D02*
X10903515Y-15896984D01*
X10903515Y-15896984D02*
X10884467Y-15887460D01*
X10884467Y-15887460D02*
X10874944Y-15877936D01*
X11113039Y-15696984D02*
X11132086Y-15696984D01*
X11132086Y-15696984D02*
X11151134Y-15706508D01*
X11151134Y-15706508D02*
X11160658Y-15716031D01*
X11160658Y-15716031D02*
X11170182Y-15735079D01*
X11170182Y-15735079D02*
X11179705Y-15773174D01*
X11179705Y-15773174D02*
X11179705Y-15820793D01*
X11179705Y-15820793D02*
X11170182Y-15858888D01*
X11170182Y-15858888D02*
X11160658Y-15877936D01*
X11160658Y-15877936D02*
X11151134Y-15887460D01*
X11151134Y-15887460D02*
X11132086Y-15896984D01*
X11132086Y-15896984D02*
X11113039Y-15896984D01*
X11113039Y-15896984D02*
X11093991Y-15887460D01*
X11093991Y-15887460D02*
X11084467Y-15877936D01*
X11084467Y-15877936D02*
X11074944Y-15858888D01*
X11074944Y-15858888D02*
X11065420Y-15820793D01*
X11065420Y-15820793D02*
X11065420Y-15773174D01*
X11065420Y-15773174D02*
X11074944Y-15735079D01*
X11074944Y-15735079D02*
X11084467Y-15716031D01*
X11084467Y-15716031D02*
X11093991Y-15706508D01*
X11093991Y-15706508D02*
X11113039Y-15696984D01*
X11265420Y-15896984D02*
X11265420Y-15763650D01*
X11265420Y-15782698D02*
X11274943Y-15773174D01*
X11274943Y-15773174D02*
X11293991Y-15763650D01*
X11293991Y-15763650D02*
X11322563Y-15763650D01*
X11322563Y-15763650D02*
X11341610Y-15773174D01*
X11341610Y-15773174D02*
X11351134Y-15792222D01*
X11351134Y-15792222D02*
X11351134Y-15896984D01*
X11351134Y-15792222D02*
X11360658Y-15773174D01*
X11360658Y-15773174D02*
X11379705Y-15763650D01*
X11379705Y-15763650D02*
X11408277Y-15763650D01*
X11408277Y-15763650D02*
X11427324Y-15773174D01*
X11427324Y-15773174D02*
X11436848Y-15792222D01*
X11436848Y-15792222D02*
X11436848Y-15896984D01*
X11532086Y-15896984D02*
X11532086Y-15763650D01*
X11532086Y-15782698D02*
X11541610Y-15773174D01*
X11541610Y-15773174D02*
X11560658Y-15763650D01*
X11560658Y-15763650D02*
X11589229Y-15763650D01*
X11589229Y-15763650D02*
X11608277Y-15773174D01*
X11608277Y-15773174D02*
X11617801Y-15792222D01*
X11617801Y-15792222D02*
X11617801Y-15896984D01*
X11617801Y-15792222D02*
X11627324Y-15773174D01*
X11627324Y-15773174D02*
X11646372Y-15763650D01*
X11646372Y-15763650D02*
X11674943Y-15763650D01*
X11674943Y-15763650D02*
X11693991Y-15773174D01*
X11693991Y-15773174D02*
X11703515Y-15792222D01*
X11703515Y-15792222D02*
X11703515Y-15896984D01*
X12093991Y-15687460D02*
X11922563Y-15944603D01*
X12351134Y-15696984D02*
X12370182Y-15696984D01*
X12370182Y-15696984D02*
X12389229Y-15706508D01*
X12389229Y-15706508D02*
X12398753Y-15716031D01*
X12398753Y-15716031D02*
X12408277Y-15735079D01*
X12408277Y-15735079D02*
X12417801Y-15773174D01*
X12417801Y-15773174D02*
X12417801Y-15820793D01*
X12417801Y-15820793D02*
X12408277Y-15858888D01*
X12408277Y-15858888D02*
X12398753Y-15877936D01*
X12398753Y-15877936D02*
X12389229Y-15887460D01*
X12389229Y-15887460D02*
X12370182Y-15896984D01*
X12370182Y-15896984D02*
X12351134Y-15896984D01*
X12351134Y-15896984D02*
X12332086Y-15887460D01*
X12332086Y-15887460D02*
X12322563Y-15877936D01*
X12322563Y-15877936D02*
X12313039Y-15858888D01*
X12313039Y-15858888D02*
X12303515Y-15820793D01*
X12303515Y-15820793D02*
X12303515Y-15773174D01*
X12303515Y-15773174D02*
X12313039Y-15735079D01*
X12313039Y-15735079D02*
X12322563Y-15716031D01*
X12322563Y-15716031D02*
X12332086Y-15706508D01*
X12332086Y-15706508D02*
X12351134Y-15696984D01*
X12503515Y-15877936D02*
X12513039Y-15887460D01*
X12513039Y-15887460D02*
X12503515Y-15896984D01*
X12503515Y-15896984D02*
X12493991Y-15887460D01*
X12493991Y-15887460D02*
X12503515Y-15877936D01*
X12503515Y-15877936D02*
X12503515Y-15896984D01*
X12636848Y-15696984D02*
X12655896Y-15696984D01*
X12655896Y-15696984D02*
X12674944Y-15706508D01*
X12674944Y-15706508D02*
X12684467Y-15716031D01*
X12684467Y-15716031D02*
X12693991Y-15735079D01*
X12693991Y-15735079D02*
X12703515Y-15773174D01*
X12703515Y-15773174D02*
X12703515Y-15820793D01*
X12703515Y-15820793D02*
X12693991Y-15858888D01*
X12693991Y-15858888D02*
X12684467Y-15877936D01*
X12684467Y-15877936D02*
X12674944Y-15887460D01*
X12674944Y-15887460D02*
X12655896Y-15896984D01*
X12655896Y-15896984D02*
X12636848Y-15896984D01*
X12636848Y-15896984D02*
X12617801Y-15887460D01*
X12617801Y-15887460D02*
X12608277Y-15877936D01*
X12608277Y-15877936D02*
X12598753Y-15858888D01*
X12598753Y-15858888D02*
X12589229Y-15820793D01*
X12589229Y-15820793D02*
X12589229Y-15773174D01*
X12589229Y-15773174D02*
X12598753Y-15735079D01*
X12598753Y-15735079D02*
X12608277Y-15716031D01*
X12608277Y-15716031D02*
X12617801Y-15706508D01*
X12617801Y-15706508D02*
X12636848Y-15696984D01*
X12770182Y-15696984D02*
X12893991Y-15696984D01*
X12893991Y-15696984D02*
X12827325Y-15773174D01*
X12827325Y-15773174D02*
X12855896Y-15773174D01*
X12855896Y-15773174D02*
X12874944Y-15782698D01*
X12874944Y-15782698D02*
X12884467Y-15792222D01*
X12884467Y-15792222D02*
X12893991Y-15811269D01*
X12893991Y-15811269D02*
X12893991Y-15858888D01*
X12893991Y-15858888D02*
X12884467Y-15877936D01*
X12884467Y-15877936D02*
X12874944Y-15887460D01*
X12874944Y-15887460D02*
X12855896Y-15896984D01*
X12855896Y-15896984D02*
X12798753Y-15896984D01*
X12798753Y-15896984D02*
X12779706Y-15887460D01*
X12779706Y-15887460D02*
X12770182Y-15877936D01*
X12960658Y-15696984D02*
X13093991Y-15696984D01*
X13093991Y-15696984D02*
X13008277Y-15896984D01*
X13255896Y-15763650D02*
X13255896Y-15896984D01*
X13208277Y-15687460D02*
X13160658Y-15830317D01*
X13160658Y-15830317D02*
X13284467Y-15830317D01*
X13351134Y-15696984D02*
X13351134Y-15735079D01*
X13427325Y-15696984D02*
X13427325Y-15735079D01*
X13722563Y-15973174D02*
X13713039Y-15963650D01*
X13713039Y-15963650D02*
X13693991Y-15935079D01*
X13693991Y-15935079D02*
X13684468Y-15916031D01*
X13684468Y-15916031D02*
X13674944Y-15887460D01*
X13674944Y-15887460D02*
X13665420Y-15839841D01*
X13665420Y-15839841D02*
X13665420Y-15801746D01*
X13665420Y-15801746D02*
X13674944Y-15754127D01*
X13674944Y-15754127D02*
X13684468Y-15725555D01*
X13684468Y-15725555D02*
X13693991Y-15706508D01*
X13693991Y-15706508D02*
X13713039Y-15677936D01*
X13713039Y-15677936D02*
X13722563Y-15668412D01*
X13779706Y-15696984D02*
X13903515Y-15696984D01*
X13903515Y-15696984D02*
X13836848Y-15773174D01*
X13836848Y-15773174D02*
X13865420Y-15773174D01*
X13865420Y-15773174D02*
X13884468Y-15782698D01*
X13884468Y-15782698D02*
X13893991Y-15792222D01*
X13893991Y-15792222D02*
X13903515Y-15811269D01*
X13903515Y-15811269D02*
X13903515Y-15858888D01*
X13903515Y-15858888D02*
X13893991Y-15877936D01*
X13893991Y-15877936D02*
X13884468Y-15887460D01*
X13884468Y-15887460D02*
X13865420Y-15896984D01*
X13865420Y-15896984D02*
X13808277Y-15896984D01*
X13808277Y-15896984D02*
X13789229Y-15887460D01*
X13789229Y-15887460D02*
X13779706Y-15877936D01*
X14017801Y-15782698D02*
X13998753Y-15773174D01*
X13998753Y-15773174D02*
X13989229Y-15763650D01*
X13989229Y-15763650D02*
X13979706Y-15744603D01*
X13979706Y-15744603D02*
X13979706Y-15735079D01*
X13979706Y-15735079D02*
X13989229Y-15716031D01*
X13989229Y-15716031D02*
X13998753Y-15706508D01*
X13998753Y-15706508D02*
X14017801Y-15696984D01*
X14017801Y-15696984D02*
X14055896Y-15696984D01*
X14055896Y-15696984D02*
X14074944Y-15706508D01*
X14074944Y-15706508D02*
X14084468Y-15716031D01*
X14084468Y-15716031D02*
X14093991Y-15735079D01*
X14093991Y-15735079D02*
X14093991Y-15744603D01*
X14093991Y-15744603D02*
X14084468Y-15763650D01*
X14084468Y-15763650D02*
X14074944Y-15773174D01*
X14074944Y-15773174D02*
X14055896Y-15782698D01*
X14055896Y-15782698D02*
X14017801Y-15782698D01*
X14017801Y-15782698D02*
X13998753Y-15792222D01*
X13998753Y-15792222D02*
X13989229Y-15801746D01*
X13989229Y-15801746D02*
X13979706Y-15820793D01*
X13979706Y-15820793D02*
X13979706Y-15858888D01*
X13979706Y-15858888D02*
X13989229Y-15877936D01*
X13989229Y-15877936D02*
X13998753Y-15887460D01*
X13998753Y-15887460D02*
X14017801Y-15896984D01*
X14017801Y-15896984D02*
X14055896Y-15896984D01*
X14055896Y-15896984D02*
X14074944Y-15887460D01*
X14074944Y-15887460D02*
X14084468Y-15877936D01*
X14084468Y-15877936D02*
X14093991Y-15858888D01*
X14093991Y-15858888D02*
X14093991Y-15820793D01*
X14093991Y-15820793D02*
X14084468Y-15801746D01*
X14084468Y-15801746D02*
X14074944Y-15792222D01*
X14074944Y-15792222D02*
X14055896Y-15782698D01*
X14332087Y-15896984D02*
X14332087Y-15696984D01*
X14417801Y-15896984D02*
X14417801Y-15792222D01*
X14417801Y-15792222D02*
X14408277Y-15773174D01*
X14408277Y-15773174D02*
X14389230Y-15763650D01*
X14389230Y-15763650D02*
X14360658Y-15763650D01*
X14360658Y-15763650D02*
X14341610Y-15773174D01*
X14341610Y-15773174D02*
X14332087Y-15782698D01*
X14541610Y-15896984D02*
X14522563Y-15887460D01*
X14522563Y-15887460D02*
X14513039Y-15877936D01*
X14513039Y-15877936D02*
X14503515Y-15858888D01*
X14503515Y-15858888D02*
X14503515Y-15801746D01*
X14503515Y-15801746D02*
X14513039Y-15782698D01*
X14513039Y-15782698D02*
X14522563Y-15773174D01*
X14522563Y-15773174D02*
X14541610Y-15763650D01*
X14541610Y-15763650D02*
X14570182Y-15763650D01*
X14570182Y-15763650D02*
X14589230Y-15773174D01*
X14589230Y-15773174D02*
X14598753Y-15782698D01*
X14598753Y-15782698D02*
X14608277Y-15801746D01*
X14608277Y-15801746D02*
X14608277Y-15858888D01*
X14608277Y-15858888D02*
X14598753Y-15877936D01*
X14598753Y-15877936D02*
X14589230Y-15887460D01*
X14589230Y-15887460D02*
X14570182Y-15896984D01*
X14570182Y-15896984D02*
X14541610Y-15896984D01*
X14722563Y-15896984D02*
X14703515Y-15887460D01*
X14703515Y-15887460D02*
X14693991Y-15868412D01*
X14693991Y-15868412D02*
X14693991Y-15696984D01*
X14874944Y-15887460D02*
X14855896Y-15896984D01*
X14855896Y-15896984D02*
X14817801Y-15896984D01*
X14817801Y-15896984D02*
X14798753Y-15887460D01*
X14798753Y-15887460D02*
X14789230Y-15868412D01*
X14789230Y-15868412D02*
X14789230Y-15792222D01*
X14789230Y-15792222D02*
X14798753Y-15773174D01*
X14798753Y-15773174D02*
X14817801Y-15763650D01*
X14817801Y-15763650D02*
X14855896Y-15763650D01*
X14855896Y-15763650D02*
X14874944Y-15773174D01*
X14874944Y-15773174D02*
X14884468Y-15792222D01*
X14884468Y-15792222D02*
X14884468Y-15811269D01*
X14884468Y-15811269D02*
X14789230Y-15830317D01*
X14960658Y-15887460D02*
X14979706Y-15896984D01*
X14979706Y-15896984D02*
X15017801Y-15896984D01*
X15017801Y-15896984D02*
X15036849Y-15887460D01*
X15036849Y-15887460D02*
X15046372Y-15868412D01*
X15046372Y-15868412D02*
X15046372Y-15858888D01*
X15046372Y-15858888D02*
X15036849Y-15839841D01*
X15036849Y-15839841D02*
X15017801Y-15830317D01*
X15017801Y-15830317D02*
X14989230Y-15830317D01*
X14989230Y-15830317D02*
X14970182Y-15820793D01*
X14970182Y-15820793D02*
X14960658Y-15801746D01*
X14960658Y-15801746D02*
X14960658Y-15792222D01*
X14960658Y-15792222D02*
X14970182Y-15773174D01*
X14970182Y-15773174D02*
X14989230Y-15763650D01*
X14989230Y-15763650D02*
X15017801Y-15763650D01*
X15017801Y-15763650D02*
X15036849Y-15773174D01*
X15113039Y-15973174D02*
X15122563Y-15963650D01*
X15122563Y-15963650D02*
X15141611Y-15935079D01*
X15141611Y-15935079D02*
X15151134Y-15916031D01*
X15151134Y-15916031D02*
X15160658Y-15887460D01*
X15160658Y-15887460D02*
X15170182Y-15839841D01*
X15170182Y-15839841D02*
X15170182Y-15801746D01*
X15170182Y-15801746D02*
X15160658Y-15754127D01*
X15160658Y-15754127D02*
X15151134Y-15725555D01*
X15151134Y-15725555D02*
X15141611Y-15706508D01*
X15141611Y-15706508D02*
X15122563Y-15677936D01*
X15122563Y-15677936D02*
X15113039Y-15668412D01*
D11*
X10132856Y-16104856D02*
X10132856Y-16034144D01*
X10062144Y-16034144D01*
X10062144Y-16104856D01*
X10132856Y-16104856D01*
D10*
X10513039Y-16160984D02*
X10398753Y-16160984D01*
X10455896Y-16160984D02*
X10455896Y-15960984D01*
X10455896Y-15960984D02*
X10436848Y-15989555D01*
X10436848Y-15989555D02*
X10417801Y-16008603D01*
X10417801Y-16008603D02*
X10398753Y-16018127D01*
X10598753Y-16141936D02*
X10608277Y-16151460D01*
X10608277Y-16151460D02*
X10598753Y-16160984D01*
X10598753Y-16160984D02*
X10589229Y-16151460D01*
X10589229Y-16151460D02*
X10598753Y-16141936D01*
X10598753Y-16141936D02*
X10598753Y-16160984D01*
X10732086Y-15960984D02*
X10751134Y-15960984D01*
X10751134Y-15960984D02*
X10770182Y-15970508D01*
X10770182Y-15970508D02*
X10779705Y-15980031D01*
X10779705Y-15980031D02*
X10789229Y-15999079D01*
X10789229Y-15999079D02*
X10798753Y-16037174D01*
X10798753Y-16037174D02*
X10798753Y-16084793D01*
X10798753Y-16084793D02*
X10789229Y-16122888D01*
X10789229Y-16122888D02*
X10779705Y-16141936D01*
X10779705Y-16141936D02*
X10770182Y-16151460D01*
X10770182Y-16151460D02*
X10751134Y-16160984D01*
X10751134Y-16160984D02*
X10732086Y-16160984D01*
X10732086Y-16160984D02*
X10713039Y-16151460D01*
X10713039Y-16151460D02*
X10703515Y-16141936D01*
X10703515Y-16141936D02*
X10693991Y-16122888D01*
X10693991Y-16122888D02*
X10684467Y-16084793D01*
X10684467Y-16084793D02*
X10684467Y-16037174D01*
X10684467Y-16037174D02*
X10693991Y-15999079D01*
X10693991Y-15999079D02*
X10703515Y-15980031D01*
X10703515Y-15980031D02*
X10713039Y-15970508D01*
X10713039Y-15970508D02*
X10732086Y-15960984D01*
X10922563Y-15960984D02*
X10941610Y-15960984D01*
X10941610Y-15960984D02*
X10960658Y-15970508D01*
X10960658Y-15970508D02*
X10970182Y-15980031D01*
X10970182Y-15980031D02*
X10979705Y-15999079D01*
X10979705Y-15999079D02*
X10989229Y-16037174D01*
X10989229Y-16037174D02*
X10989229Y-16084793D01*
X10989229Y-16084793D02*
X10979705Y-16122888D01*
X10979705Y-16122888D02*
X10970182Y-16141936D01*
X10970182Y-16141936D02*
X10960658Y-16151460D01*
X10960658Y-16151460D02*
X10941610Y-16160984D01*
X10941610Y-16160984D02*
X10922563Y-16160984D01*
X10922563Y-16160984D02*
X10903515Y-16151460D01*
X10903515Y-16151460D02*
X10893991Y-16141936D01*
X10893991Y-16141936D02*
X10884467Y-16122888D01*
X10884467Y-16122888D02*
X10874944Y-16084793D01*
X10874944Y-16084793D02*
X10874944Y-16037174D01*
X10874944Y-16037174D02*
X10884467Y-15999079D01*
X10884467Y-15999079D02*
X10893991Y-15980031D01*
X10893991Y-15980031D02*
X10903515Y-15970508D01*
X10903515Y-15970508D02*
X10922563Y-15960984D01*
X11113039Y-15960984D02*
X11132086Y-15960984D01*
X11132086Y-15960984D02*
X11151134Y-15970508D01*
X11151134Y-15970508D02*
X11160658Y-15980031D01*
X11160658Y-15980031D02*
X11170182Y-15999079D01*
X11170182Y-15999079D02*
X11179705Y-16037174D01*
X11179705Y-16037174D02*
X11179705Y-16084793D01*
X11179705Y-16084793D02*
X11170182Y-16122888D01*
X11170182Y-16122888D02*
X11160658Y-16141936D01*
X11160658Y-16141936D02*
X11151134Y-16151460D01*
X11151134Y-16151460D02*
X11132086Y-16160984D01*
X11132086Y-16160984D02*
X11113039Y-16160984D01*
X11113039Y-16160984D02*
X11093991Y-16151460D01*
X11093991Y-16151460D02*
X11084467Y-16141936D01*
X11084467Y-16141936D02*
X11074944Y-16122888D01*
X11074944Y-16122888D02*
X11065420Y-16084793D01*
X11065420Y-16084793D02*
X11065420Y-16037174D01*
X11065420Y-16037174D02*
X11074944Y-15999079D01*
X11074944Y-15999079D02*
X11084467Y-15980031D01*
X11084467Y-15980031D02*
X11093991Y-15970508D01*
X11093991Y-15970508D02*
X11113039Y-15960984D01*
X11265420Y-16160984D02*
X11265420Y-16027650D01*
X11265420Y-16046698D02*
X11274943Y-16037174D01*
X11274943Y-16037174D02*
X11293991Y-16027650D01*
X11293991Y-16027650D02*
X11322563Y-16027650D01*
X11322563Y-16027650D02*
X11341610Y-16037174D01*
X11341610Y-16037174D02*
X11351134Y-16056222D01*
X11351134Y-16056222D02*
X11351134Y-16160984D01*
X11351134Y-16056222D02*
X11360658Y-16037174D01*
X11360658Y-16037174D02*
X11379705Y-16027650D01*
X11379705Y-16027650D02*
X11408277Y-16027650D01*
X11408277Y-16027650D02*
X11427324Y-16037174D01*
X11427324Y-16037174D02*
X11436848Y-16056222D01*
X11436848Y-16056222D02*
X11436848Y-16160984D01*
X11532086Y-16160984D02*
X11532086Y-16027650D01*
X11532086Y-16046698D02*
X11541610Y-16037174D01*
X11541610Y-16037174D02*
X11560658Y-16027650D01*
X11560658Y-16027650D02*
X11589229Y-16027650D01*
X11589229Y-16027650D02*
X11608277Y-16037174D01*
X11608277Y-16037174D02*
X11617801Y-16056222D01*
X11617801Y-16056222D02*
X11617801Y-16160984D01*
X11617801Y-16056222D02*
X11627324Y-16037174D01*
X11627324Y-16037174D02*
X11646372Y-16027650D01*
X11646372Y-16027650D02*
X11674943Y-16027650D01*
X11674943Y-16027650D02*
X11693991Y-16037174D01*
X11693991Y-16037174D02*
X11703515Y-16056222D01*
X11703515Y-16056222D02*
X11703515Y-16160984D01*
X12093991Y-15951460D02*
X11922563Y-16208603D01*
X12351134Y-15960984D02*
X12370182Y-15960984D01*
X12370182Y-15960984D02*
X12389229Y-15970508D01*
X12389229Y-15970508D02*
X12398753Y-15980031D01*
X12398753Y-15980031D02*
X12408277Y-15999079D01*
X12408277Y-15999079D02*
X12417801Y-16037174D01*
X12417801Y-16037174D02*
X12417801Y-16084793D01*
X12417801Y-16084793D02*
X12408277Y-16122888D01*
X12408277Y-16122888D02*
X12398753Y-16141936D01*
X12398753Y-16141936D02*
X12389229Y-16151460D01*
X12389229Y-16151460D02*
X12370182Y-16160984D01*
X12370182Y-16160984D02*
X12351134Y-16160984D01*
X12351134Y-16160984D02*
X12332086Y-16151460D01*
X12332086Y-16151460D02*
X12322563Y-16141936D01*
X12322563Y-16141936D02*
X12313039Y-16122888D01*
X12313039Y-16122888D02*
X12303515Y-16084793D01*
X12303515Y-16084793D02*
X12303515Y-16037174D01*
X12303515Y-16037174D02*
X12313039Y-15999079D01*
X12313039Y-15999079D02*
X12322563Y-15980031D01*
X12322563Y-15980031D02*
X12332086Y-15970508D01*
X12332086Y-15970508D02*
X12351134Y-15960984D01*
X12503515Y-16141936D02*
X12513039Y-16151460D01*
X12513039Y-16151460D02*
X12503515Y-16160984D01*
X12503515Y-16160984D02*
X12493991Y-16151460D01*
X12493991Y-16151460D02*
X12503515Y-16141936D01*
X12503515Y-16141936D02*
X12503515Y-16160984D01*
X12636848Y-15960984D02*
X12655896Y-15960984D01*
X12655896Y-15960984D02*
X12674944Y-15970508D01*
X12674944Y-15970508D02*
X12684467Y-15980031D01*
X12684467Y-15980031D02*
X12693991Y-15999079D01*
X12693991Y-15999079D02*
X12703515Y-16037174D01*
X12703515Y-16037174D02*
X12703515Y-16084793D01*
X12703515Y-16084793D02*
X12693991Y-16122888D01*
X12693991Y-16122888D02*
X12684467Y-16141936D01*
X12684467Y-16141936D02*
X12674944Y-16151460D01*
X12674944Y-16151460D02*
X12655896Y-16160984D01*
X12655896Y-16160984D02*
X12636848Y-16160984D01*
X12636848Y-16160984D02*
X12617801Y-16151460D01*
X12617801Y-16151460D02*
X12608277Y-16141936D01*
X12608277Y-16141936D02*
X12598753Y-16122888D01*
X12598753Y-16122888D02*
X12589229Y-16084793D01*
X12589229Y-16084793D02*
X12589229Y-16037174D01*
X12589229Y-16037174D02*
X12598753Y-15999079D01*
X12598753Y-15999079D02*
X12608277Y-15980031D01*
X12608277Y-15980031D02*
X12617801Y-15970508D01*
X12617801Y-15970508D02*
X12636848Y-15960984D01*
X12770182Y-15960984D02*
X12893991Y-15960984D01*
X12893991Y-15960984D02*
X12827325Y-16037174D01*
X12827325Y-16037174D02*
X12855896Y-16037174D01*
X12855896Y-16037174D02*
X12874944Y-16046698D01*
X12874944Y-16046698D02*
X12884467Y-16056222D01*
X12884467Y-16056222D02*
X12893991Y-16075269D01*
X12893991Y-16075269D02*
X12893991Y-16122888D01*
X12893991Y-16122888D02*
X12884467Y-16141936D01*
X12884467Y-16141936D02*
X12874944Y-16151460D01*
X12874944Y-16151460D02*
X12855896Y-16160984D01*
X12855896Y-16160984D02*
X12798753Y-16160984D01*
X12798753Y-16160984D02*
X12779706Y-16151460D01*
X12779706Y-16151460D02*
X12770182Y-16141936D01*
X12989229Y-16160984D02*
X13027325Y-16160984D01*
X13027325Y-16160984D02*
X13046372Y-16151460D01*
X13046372Y-16151460D02*
X13055896Y-16141936D01*
X13055896Y-16141936D02*
X13074944Y-16113365D01*
X13074944Y-16113365D02*
X13084467Y-16075269D01*
X13084467Y-16075269D02*
X13084467Y-15999079D01*
X13084467Y-15999079D02*
X13074944Y-15980031D01*
X13074944Y-15980031D02*
X13065420Y-15970508D01*
X13065420Y-15970508D02*
X13046372Y-15960984D01*
X13046372Y-15960984D02*
X13008277Y-15960984D01*
X13008277Y-15960984D02*
X12989229Y-15970508D01*
X12989229Y-15970508D02*
X12979706Y-15980031D01*
X12979706Y-15980031D02*
X12970182Y-15999079D01*
X12970182Y-15999079D02*
X12970182Y-16046698D01*
X12970182Y-16046698D02*
X12979706Y-16065746D01*
X12979706Y-16065746D02*
X12989229Y-16075269D01*
X12989229Y-16075269D02*
X13008277Y-16084793D01*
X13008277Y-16084793D02*
X13046372Y-16084793D01*
X13046372Y-16084793D02*
X13065420Y-16075269D01*
X13065420Y-16075269D02*
X13074944Y-16065746D01*
X13074944Y-16065746D02*
X13084467Y-16046698D01*
X13255896Y-16027650D02*
X13255896Y-16160984D01*
X13208277Y-15951460D02*
X13160658Y-16094317D01*
X13160658Y-16094317D02*
X13284467Y-16094317D01*
X13351134Y-15960984D02*
X13351134Y-15999079D01*
X13427325Y-15960984D02*
X13427325Y-15999079D01*
X13722563Y-16237174D02*
X13713039Y-16227650D01*
X13713039Y-16227650D02*
X13693991Y-16199079D01*
X13693991Y-16199079D02*
X13684468Y-16180031D01*
X13684468Y-16180031D02*
X13674944Y-16151460D01*
X13674944Y-16151460D02*
X13665420Y-16103841D01*
X13665420Y-16103841D02*
X13665420Y-16065746D01*
X13665420Y-16065746D02*
X13674944Y-16018127D01*
X13674944Y-16018127D02*
X13684468Y-15989555D01*
X13684468Y-15989555D02*
X13693991Y-15970508D01*
X13693991Y-15970508D02*
X13713039Y-15941936D01*
X13713039Y-15941936D02*
X13722563Y-15932412D01*
X13884468Y-15960984D02*
X13846372Y-15960984D01*
X13846372Y-15960984D02*
X13827325Y-15970508D01*
X13827325Y-15970508D02*
X13817801Y-15980031D01*
X13817801Y-15980031D02*
X13798753Y-16008603D01*
X13798753Y-16008603D02*
X13789229Y-16046698D01*
X13789229Y-16046698D02*
X13789229Y-16122888D01*
X13789229Y-16122888D02*
X13798753Y-16141936D01*
X13798753Y-16141936D02*
X13808277Y-16151460D01*
X13808277Y-16151460D02*
X13827325Y-16160984D01*
X13827325Y-16160984D02*
X13865420Y-16160984D01*
X13865420Y-16160984D02*
X13884468Y-16151460D01*
X13884468Y-16151460D02*
X13893991Y-16141936D01*
X13893991Y-16141936D02*
X13903515Y-16122888D01*
X13903515Y-16122888D02*
X13903515Y-16075269D01*
X13903515Y-16075269D02*
X13893991Y-16056222D01*
X13893991Y-16056222D02*
X13884468Y-16046698D01*
X13884468Y-16046698D02*
X13865420Y-16037174D01*
X13865420Y-16037174D02*
X13827325Y-16037174D01*
X13827325Y-16037174D02*
X13808277Y-16046698D01*
X13808277Y-16046698D02*
X13798753Y-16056222D01*
X13798753Y-16056222D02*
X13789229Y-16075269D01*
X14074944Y-15960984D02*
X14036848Y-15960984D01*
X14036848Y-15960984D02*
X14017801Y-15970508D01*
X14017801Y-15970508D02*
X14008277Y-15980031D01*
X14008277Y-15980031D02*
X13989229Y-16008603D01*
X13989229Y-16008603D02*
X13979706Y-16046698D01*
X13979706Y-16046698D02*
X13979706Y-16122888D01*
X13979706Y-16122888D02*
X13989229Y-16141936D01*
X13989229Y-16141936D02*
X13998753Y-16151460D01*
X13998753Y-16151460D02*
X14017801Y-16160984D01*
X14017801Y-16160984D02*
X14055896Y-16160984D01*
X14055896Y-16160984D02*
X14074944Y-16151460D01*
X14074944Y-16151460D02*
X14084468Y-16141936D01*
X14084468Y-16141936D02*
X14093991Y-16122888D01*
X14093991Y-16122888D02*
X14093991Y-16075269D01*
X14093991Y-16075269D02*
X14084468Y-16056222D01*
X14084468Y-16056222D02*
X14074944Y-16046698D01*
X14074944Y-16046698D02*
X14055896Y-16037174D01*
X14055896Y-16037174D02*
X14017801Y-16037174D01*
X14017801Y-16037174D02*
X13998753Y-16046698D01*
X13998753Y-16046698D02*
X13989229Y-16056222D01*
X13989229Y-16056222D02*
X13979706Y-16075269D01*
X14332087Y-16160984D02*
X14332087Y-15960984D01*
X14417801Y-16160984D02*
X14417801Y-16056222D01*
X14417801Y-16056222D02*
X14408277Y-16037174D01*
X14408277Y-16037174D02*
X14389230Y-16027650D01*
X14389230Y-16027650D02*
X14360658Y-16027650D01*
X14360658Y-16027650D02*
X14341610Y-16037174D01*
X14341610Y-16037174D02*
X14332087Y-16046698D01*
X14541610Y-16160984D02*
X14522563Y-16151460D01*
X14522563Y-16151460D02*
X14513039Y-16141936D01*
X14513039Y-16141936D02*
X14503515Y-16122888D01*
X14503515Y-16122888D02*
X14503515Y-16065746D01*
X14503515Y-16065746D02*
X14513039Y-16046698D01*
X14513039Y-16046698D02*
X14522563Y-16037174D01*
X14522563Y-16037174D02*
X14541610Y-16027650D01*
X14541610Y-16027650D02*
X14570182Y-16027650D01*
X14570182Y-16027650D02*
X14589230Y-16037174D01*
X14589230Y-16037174D02*
X14598753Y-16046698D01*
X14598753Y-16046698D02*
X14608277Y-16065746D01*
X14608277Y-16065746D02*
X14608277Y-16122888D01*
X14608277Y-16122888D02*
X14598753Y-16141936D01*
X14598753Y-16141936D02*
X14589230Y-16151460D01*
X14589230Y-16151460D02*
X14570182Y-16160984D01*
X14570182Y-16160984D02*
X14541610Y-16160984D01*
X14722563Y-16160984D02*
X14703515Y-16151460D01*
X14703515Y-16151460D02*
X14693991Y-16132412D01*
X14693991Y-16132412D02*
X14693991Y-15960984D01*
X14874944Y-16151460D02*
X14855896Y-16160984D01*
X14855896Y-16160984D02*
X14817801Y-16160984D01*
X14817801Y-16160984D02*
X14798753Y-16151460D01*
X14798753Y-16151460D02*
X14789230Y-16132412D01*
X14789230Y-16132412D02*
X14789230Y-16056222D01*
X14789230Y-16056222D02*
X14798753Y-16037174D01*
X14798753Y-16037174D02*
X14817801Y-16027650D01*
X14817801Y-16027650D02*
X14855896Y-16027650D01*
X14855896Y-16027650D02*
X14874944Y-16037174D01*
X14874944Y-16037174D02*
X14884468Y-16056222D01*
X14884468Y-16056222D02*
X14884468Y-16075269D01*
X14884468Y-16075269D02*
X14789230Y-16094317D01*
X14960658Y-16151460D02*
X14979706Y-16160984D01*
X14979706Y-16160984D02*
X15017801Y-16160984D01*
X15017801Y-16160984D02*
X15036849Y-16151460D01*
X15036849Y-16151460D02*
X15046372Y-16132412D01*
X15046372Y-16132412D02*
X15046372Y-16122888D01*
X15046372Y-16122888D02*
X15036849Y-16103841D01*
X15036849Y-16103841D02*
X15017801Y-16094317D01*
X15017801Y-16094317D02*
X14989230Y-16094317D01*
X14989230Y-16094317D02*
X14970182Y-16084793D01*
X14970182Y-16084793D02*
X14960658Y-16065746D01*
X14960658Y-16065746D02*
X14960658Y-16056222D01*
X14960658Y-16056222D02*
X14970182Y-16037174D01*
X14970182Y-16037174D02*
X14989230Y-16027650D01*
X14989230Y-16027650D02*
X15017801Y-16027650D01*
X15017801Y-16027650D02*
X15036849Y-16037174D01*
X15113039Y-16237174D02*
X15122563Y-16227650D01*
X15122563Y-16227650D02*
X15141611Y-16199079D01*
X15141611Y-16199079D02*
X15151134Y-16180031D01*
X15151134Y-16180031D02*
X15160658Y-16151460D01*
X15160658Y-16151460D02*
X15170182Y-16103841D01*
X15170182Y-16103841D02*
X15170182Y-16065746D01*
X15170182Y-16065746D02*
X15160658Y-16018127D01*
X15160658Y-16018127D02*
X15151134Y-15989555D01*
X15151134Y-15989555D02*
X15141611Y-15970508D01*
X15141611Y-15970508D02*
X15122563Y-15941936D01*
X15122563Y-15941936D02*
X15113039Y-15932412D01*
D12*
X10077500Y-16403500D02*
X10147500Y-16333500D01*
X10077500Y-16263500D01*
X10007500Y-16333500D01*
X10077500Y-16403500D01*
D10*
X10513039Y-16424984D02*
X10398753Y-16424984D01*
X10455896Y-16424984D02*
X10455896Y-16224984D01*
X10455896Y-16224984D02*
X10436848Y-16253555D01*
X10436848Y-16253555D02*
X10417801Y-16272603D01*
X10417801Y-16272603D02*
X10398753Y-16282127D01*
X10598753Y-16405936D02*
X10608277Y-16415460D01*
X10608277Y-16415460D02*
X10598753Y-16424984D01*
X10598753Y-16424984D02*
X10589229Y-16415460D01*
X10589229Y-16415460D02*
X10598753Y-16405936D01*
X10598753Y-16405936D02*
X10598753Y-16424984D01*
X10779705Y-16291650D02*
X10779705Y-16424984D01*
X10732086Y-16215460D02*
X10684467Y-16358317D01*
X10684467Y-16358317D02*
X10808277Y-16358317D01*
X10922563Y-16224984D02*
X10941610Y-16224984D01*
X10941610Y-16224984D02*
X10960658Y-16234508D01*
X10960658Y-16234508D02*
X10970182Y-16244031D01*
X10970182Y-16244031D02*
X10979705Y-16263079D01*
X10979705Y-16263079D02*
X10989229Y-16301174D01*
X10989229Y-16301174D02*
X10989229Y-16348793D01*
X10989229Y-16348793D02*
X10979705Y-16386888D01*
X10979705Y-16386888D02*
X10970182Y-16405936D01*
X10970182Y-16405936D02*
X10960658Y-16415460D01*
X10960658Y-16415460D02*
X10941610Y-16424984D01*
X10941610Y-16424984D02*
X10922563Y-16424984D01*
X10922563Y-16424984D02*
X10903515Y-16415460D01*
X10903515Y-16415460D02*
X10893991Y-16405936D01*
X10893991Y-16405936D02*
X10884467Y-16386888D01*
X10884467Y-16386888D02*
X10874944Y-16348793D01*
X10874944Y-16348793D02*
X10874944Y-16301174D01*
X10874944Y-16301174D02*
X10884467Y-16263079D01*
X10884467Y-16263079D02*
X10893991Y-16244031D01*
X10893991Y-16244031D02*
X10903515Y-16234508D01*
X10903515Y-16234508D02*
X10922563Y-16224984D01*
X11113039Y-16224984D02*
X11132086Y-16224984D01*
X11132086Y-16224984D02*
X11151134Y-16234508D01*
X11151134Y-16234508D02*
X11160658Y-16244031D01*
X11160658Y-16244031D02*
X11170182Y-16263079D01*
X11170182Y-16263079D02*
X11179705Y-16301174D01*
X11179705Y-16301174D02*
X11179705Y-16348793D01*
X11179705Y-16348793D02*
X11170182Y-16386888D01*
X11170182Y-16386888D02*
X11160658Y-16405936D01*
X11160658Y-16405936D02*
X11151134Y-16415460D01*
X11151134Y-16415460D02*
X11132086Y-16424984D01*
X11132086Y-16424984D02*
X11113039Y-16424984D01*
X11113039Y-16424984D02*
X11093991Y-16415460D01*
X11093991Y-16415460D02*
X11084467Y-16405936D01*
X11084467Y-16405936D02*
X11074944Y-16386888D01*
X11074944Y-16386888D02*
X11065420Y-16348793D01*
X11065420Y-16348793D02*
X11065420Y-16301174D01*
X11065420Y-16301174D02*
X11074944Y-16263079D01*
X11074944Y-16263079D02*
X11084467Y-16244031D01*
X11084467Y-16244031D02*
X11093991Y-16234508D01*
X11093991Y-16234508D02*
X11113039Y-16224984D01*
X11265420Y-16424984D02*
X11265420Y-16291650D01*
X11265420Y-16310698D02*
X11274943Y-16301174D01*
X11274943Y-16301174D02*
X11293991Y-16291650D01*
X11293991Y-16291650D02*
X11322563Y-16291650D01*
X11322563Y-16291650D02*
X11341610Y-16301174D01*
X11341610Y-16301174D02*
X11351134Y-16320222D01*
X11351134Y-16320222D02*
X11351134Y-16424984D01*
X11351134Y-16320222D02*
X11360658Y-16301174D01*
X11360658Y-16301174D02*
X11379705Y-16291650D01*
X11379705Y-16291650D02*
X11408277Y-16291650D01*
X11408277Y-16291650D02*
X11427324Y-16301174D01*
X11427324Y-16301174D02*
X11436848Y-16320222D01*
X11436848Y-16320222D02*
X11436848Y-16424984D01*
X11532086Y-16424984D02*
X11532086Y-16291650D01*
X11532086Y-16310698D02*
X11541610Y-16301174D01*
X11541610Y-16301174D02*
X11560658Y-16291650D01*
X11560658Y-16291650D02*
X11589229Y-16291650D01*
X11589229Y-16291650D02*
X11608277Y-16301174D01*
X11608277Y-16301174D02*
X11617801Y-16320222D01*
X11617801Y-16320222D02*
X11617801Y-16424984D01*
X11617801Y-16320222D02*
X11627324Y-16301174D01*
X11627324Y-16301174D02*
X11646372Y-16291650D01*
X11646372Y-16291650D02*
X11674943Y-16291650D01*
X11674943Y-16291650D02*
X11693991Y-16301174D01*
X11693991Y-16301174D02*
X11703515Y-16320222D01*
X11703515Y-16320222D02*
X11703515Y-16424984D01*
X12093991Y-16215460D02*
X11922563Y-16472603D01*
X12351134Y-16224984D02*
X12370182Y-16224984D01*
X12370182Y-16224984D02*
X12389229Y-16234508D01*
X12389229Y-16234508D02*
X12398753Y-16244031D01*
X12398753Y-16244031D02*
X12408277Y-16263079D01*
X12408277Y-16263079D02*
X12417801Y-16301174D01*
X12417801Y-16301174D02*
X12417801Y-16348793D01*
X12417801Y-16348793D02*
X12408277Y-16386888D01*
X12408277Y-16386888D02*
X12398753Y-16405936D01*
X12398753Y-16405936D02*
X12389229Y-16415460D01*
X12389229Y-16415460D02*
X12370182Y-16424984D01*
X12370182Y-16424984D02*
X12351134Y-16424984D01*
X12351134Y-16424984D02*
X12332086Y-16415460D01*
X12332086Y-16415460D02*
X12322563Y-16405936D01*
X12322563Y-16405936D02*
X12313039Y-16386888D01*
X12313039Y-16386888D02*
X12303515Y-16348793D01*
X12303515Y-16348793D02*
X12303515Y-16301174D01*
X12303515Y-16301174D02*
X12313039Y-16263079D01*
X12313039Y-16263079D02*
X12322563Y-16244031D01*
X12322563Y-16244031D02*
X12332086Y-16234508D01*
X12332086Y-16234508D02*
X12351134Y-16224984D01*
X12503515Y-16405936D02*
X12513039Y-16415460D01*
X12513039Y-16415460D02*
X12503515Y-16424984D01*
X12503515Y-16424984D02*
X12493991Y-16415460D01*
X12493991Y-16415460D02*
X12503515Y-16405936D01*
X12503515Y-16405936D02*
X12503515Y-16424984D01*
X12636848Y-16224984D02*
X12655896Y-16224984D01*
X12655896Y-16224984D02*
X12674944Y-16234508D01*
X12674944Y-16234508D02*
X12684467Y-16244031D01*
X12684467Y-16244031D02*
X12693991Y-16263079D01*
X12693991Y-16263079D02*
X12703515Y-16301174D01*
X12703515Y-16301174D02*
X12703515Y-16348793D01*
X12703515Y-16348793D02*
X12693991Y-16386888D01*
X12693991Y-16386888D02*
X12684467Y-16405936D01*
X12684467Y-16405936D02*
X12674944Y-16415460D01*
X12674944Y-16415460D02*
X12655896Y-16424984D01*
X12655896Y-16424984D02*
X12636848Y-16424984D01*
X12636848Y-16424984D02*
X12617801Y-16415460D01*
X12617801Y-16415460D02*
X12608277Y-16405936D01*
X12608277Y-16405936D02*
X12598753Y-16386888D01*
X12598753Y-16386888D02*
X12589229Y-16348793D01*
X12589229Y-16348793D02*
X12589229Y-16301174D01*
X12589229Y-16301174D02*
X12598753Y-16263079D01*
X12598753Y-16263079D02*
X12608277Y-16244031D01*
X12608277Y-16244031D02*
X12617801Y-16234508D01*
X12617801Y-16234508D02*
X12636848Y-16224984D01*
X12884467Y-16224984D02*
X12789229Y-16224984D01*
X12789229Y-16224984D02*
X12779706Y-16320222D01*
X12779706Y-16320222D02*
X12789229Y-16310698D01*
X12789229Y-16310698D02*
X12808277Y-16301174D01*
X12808277Y-16301174D02*
X12855896Y-16301174D01*
X12855896Y-16301174D02*
X12874944Y-16310698D01*
X12874944Y-16310698D02*
X12884467Y-16320222D01*
X12884467Y-16320222D02*
X12893991Y-16339269D01*
X12893991Y-16339269D02*
X12893991Y-16386888D01*
X12893991Y-16386888D02*
X12884467Y-16405936D01*
X12884467Y-16405936D02*
X12874944Y-16415460D01*
X12874944Y-16415460D02*
X12855896Y-16424984D01*
X12855896Y-16424984D02*
X12808277Y-16424984D01*
X12808277Y-16424984D02*
X12789229Y-16415460D01*
X12789229Y-16415460D02*
X12779706Y-16405936D01*
X13074944Y-16224984D02*
X12979706Y-16224984D01*
X12979706Y-16224984D02*
X12970182Y-16320222D01*
X12970182Y-16320222D02*
X12979706Y-16310698D01*
X12979706Y-16310698D02*
X12998753Y-16301174D01*
X12998753Y-16301174D02*
X13046372Y-16301174D01*
X13046372Y-16301174D02*
X13065420Y-16310698D01*
X13065420Y-16310698D02*
X13074944Y-16320222D01*
X13074944Y-16320222D02*
X13084467Y-16339269D01*
X13084467Y-16339269D02*
X13084467Y-16386888D01*
X13084467Y-16386888D02*
X13074944Y-16405936D01*
X13074944Y-16405936D02*
X13065420Y-16415460D01*
X13065420Y-16415460D02*
X13046372Y-16424984D01*
X13046372Y-16424984D02*
X12998753Y-16424984D01*
X12998753Y-16424984D02*
X12979706Y-16415460D01*
X12979706Y-16415460D02*
X12970182Y-16405936D01*
X13274944Y-16424984D02*
X13160658Y-16424984D01*
X13217801Y-16424984D02*
X13217801Y-16224984D01*
X13217801Y-16224984D02*
X13198753Y-16253555D01*
X13198753Y-16253555D02*
X13179706Y-16272603D01*
X13179706Y-16272603D02*
X13160658Y-16282127D01*
X13351134Y-16224984D02*
X13351134Y-16263079D01*
X13427325Y-16224984D02*
X13427325Y-16263079D01*
X13722563Y-16501174D02*
X13713039Y-16491650D01*
X13713039Y-16491650D02*
X13693991Y-16463079D01*
X13693991Y-16463079D02*
X13684468Y-16444031D01*
X13684468Y-16444031D02*
X13674944Y-16415460D01*
X13674944Y-16415460D02*
X13665420Y-16367841D01*
X13665420Y-16367841D02*
X13665420Y-16329746D01*
X13665420Y-16329746D02*
X13674944Y-16282127D01*
X13674944Y-16282127D02*
X13684468Y-16253555D01*
X13684468Y-16253555D02*
X13693991Y-16234508D01*
X13693991Y-16234508D02*
X13713039Y-16205936D01*
X13713039Y-16205936D02*
X13722563Y-16196412D01*
X13884468Y-16291650D02*
X13884468Y-16424984D01*
X13836848Y-16215460D02*
X13789229Y-16358317D01*
X13789229Y-16358317D02*
X13913039Y-16358317D01*
X14141610Y-16424984D02*
X14141610Y-16224984D01*
X14227325Y-16424984D02*
X14227325Y-16320222D01*
X14227325Y-16320222D02*
X14217801Y-16301174D01*
X14217801Y-16301174D02*
X14198753Y-16291650D01*
X14198753Y-16291650D02*
X14170182Y-16291650D01*
X14170182Y-16291650D02*
X14151134Y-16301174D01*
X14151134Y-16301174D02*
X14141610Y-16310698D01*
X14351134Y-16424984D02*
X14332087Y-16415460D01*
X14332087Y-16415460D02*
X14322563Y-16405936D01*
X14322563Y-16405936D02*
X14313039Y-16386888D01*
X14313039Y-16386888D02*
X14313039Y-16329746D01*
X14313039Y-16329746D02*
X14322563Y-16310698D01*
X14322563Y-16310698D02*
X14332087Y-16301174D01*
X14332087Y-16301174D02*
X14351134Y-16291650D01*
X14351134Y-16291650D02*
X14379706Y-16291650D01*
X14379706Y-16291650D02*
X14398753Y-16301174D01*
X14398753Y-16301174D02*
X14408277Y-16310698D01*
X14408277Y-16310698D02*
X14417801Y-16329746D01*
X14417801Y-16329746D02*
X14417801Y-16386888D01*
X14417801Y-16386888D02*
X14408277Y-16405936D01*
X14408277Y-16405936D02*
X14398753Y-16415460D01*
X14398753Y-16415460D02*
X14379706Y-16424984D01*
X14379706Y-16424984D02*
X14351134Y-16424984D01*
X14532087Y-16424984D02*
X14513039Y-16415460D01*
X14513039Y-16415460D02*
X14503515Y-16396412D01*
X14503515Y-16396412D02*
X14503515Y-16224984D01*
X14684468Y-16415460D02*
X14665420Y-16424984D01*
X14665420Y-16424984D02*
X14627325Y-16424984D01*
X14627325Y-16424984D02*
X14608277Y-16415460D01*
X14608277Y-16415460D02*
X14598753Y-16396412D01*
X14598753Y-16396412D02*
X14598753Y-16320222D01*
X14598753Y-16320222D02*
X14608277Y-16301174D01*
X14608277Y-16301174D02*
X14627325Y-16291650D01*
X14627325Y-16291650D02*
X14665420Y-16291650D01*
X14665420Y-16291650D02*
X14684468Y-16301174D01*
X14684468Y-16301174D02*
X14693991Y-16320222D01*
X14693991Y-16320222D02*
X14693991Y-16339269D01*
X14693991Y-16339269D02*
X14598753Y-16358317D01*
X14770182Y-16415460D02*
X14789230Y-16424984D01*
X14789230Y-16424984D02*
X14827325Y-16424984D01*
X14827325Y-16424984D02*
X14846372Y-16415460D01*
X14846372Y-16415460D02*
X14855896Y-16396412D01*
X14855896Y-16396412D02*
X14855896Y-16386888D01*
X14855896Y-16386888D02*
X14846372Y-16367841D01*
X14846372Y-16367841D02*
X14827325Y-16358317D01*
X14827325Y-16358317D02*
X14798753Y-16358317D01*
X14798753Y-16358317D02*
X14779706Y-16348793D01*
X14779706Y-16348793D02*
X14770182Y-16329746D01*
X14770182Y-16329746D02*
X14770182Y-16320222D01*
X14770182Y-16320222D02*
X14779706Y-16301174D01*
X14779706Y-16301174D02*
X14798753Y-16291650D01*
X14798753Y-16291650D02*
X14827325Y-16291650D01*
X14827325Y-16291650D02*
X14846372Y-16301174D01*
X14922563Y-16501174D02*
X14932087Y-16491650D01*
X14932087Y-16491650D02*
X14951134Y-16463079D01*
X14951134Y-16463079D02*
X14960658Y-16444031D01*
X14960658Y-16444031D02*
X14970182Y-16415460D01*
X14970182Y-16415460D02*
X14979706Y-16367841D01*
X14979706Y-16367841D02*
X14979706Y-16329746D01*
X14979706Y-16329746D02*
X14970182Y-16282127D01*
X14970182Y-16282127D02*
X14960658Y-16253555D01*
X14960658Y-16253555D02*
X14951134Y-16234508D01*
X14951134Y-16234508D02*
X14932087Y-16205936D01*
X14932087Y-16205936D02*
X14922563Y-16196412D01*
D13*
X9997500Y-16522500D02*
X10147500Y-16672500D01*
X10147500Y-16522500D02*
X9997500Y-16672500D01*
X10147500Y-16597500D02*
G75*
G02*
X9997500Y-16597500I-75000J0D01*
G01*
X9997500Y-16597500D02*
G75*
G02*
X10147500Y-16597500I75000J0D01*
G01*
D10*
X10513039Y-16688984D02*
X10398753Y-16688984D01*
X10455896Y-16688984D02*
X10455896Y-16488984D01*
X10455896Y-16488984D02*
X10436848Y-16517555D01*
X10436848Y-16517555D02*
X10417801Y-16536603D01*
X10417801Y-16536603D02*
X10398753Y-16546127D01*
X10598753Y-16669936D02*
X10608277Y-16679460D01*
X10608277Y-16679460D02*
X10598753Y-16688984D01*
X10598753Y-16688984D02*
X10589229Y-16679460D01*
X10589229Y-16679460D02*
X10598753Y-16669936D01*
X10598753Y-16669936D02*
X10598753Y-16688984D01*
X10789229Y-16488984D02*
X10693991Y-16488984D01*
X10693991Y-16488984D02*
X10684467Y-16584222D01*
X10684467Y-16584222D02*
X10693991Y-16574698D01*
X10693991Y-16574698D02*
X10713039Y-16565174D01*
X10713039Y-16565174D02*
X10760658Y-16565174D01*
X10760658Y-16565174D02*
X10779705Y-16574698D01*
X10779705Y-16574698D02*
X10789229Y-16584222D01*
X10789229Y-16584222D02*
X10798753Y-16603269D01*
X10798753Y-16603269D02*
X10798753Y-16650888D01*
X10798753Y-16650888D02*
X10789229Y-16669936D01*
X10789229Y-16669936D02*
X10779705Y-16679460D01*
X10779705Y-16679460D02*
X10760658Y-16688984D01*
X10760658Y-16688984D02*
X10713039Y-16688984D01*
X10713039Y-16688984D02*
X10693991Y-16679460D01*
X10693991Y-16679460D02*
X10684467Y-16669936D01*
X10922563Y-16488984D02*
X10941610Y-16488984D01*
X10941610Y-16488984D02*
X10960658Y-16498508D01*
X10960658Y-16498508D02*
X10970182Y-16508031D01*
X10970182Y-16508031D02*
X10979705Y-16527079D01*
X10979705Y-16527079D02*
X10989229Y-16565174D01*
X10989229Y-16565174D02*
X10989229Y-16612793D01*
X10989229Y-16612793D02*
X10979705Y-16650888D01*
X10979705Y-16650888D02*
X10970182Y-16669936D01*
X10970182Y-16669936D02*
X10960658Y-16679460D01*
X10960658Y-16679460D02*
X10941610Y-16688984D01*
X10941610Y-16688984D02*
X10922563Y-16688984D01*
X10922563Y-16688984D02*
X10903515Y-16679460D01*
X10903515Y-16679460D02*
X10893991Y-16669936D01*
X10893991Y-16669936D02*
X10884467Y-16650888D01*
X10884467Y-16650888D02*
X10874944Y-16612793D01*
X10874944Y-16612793D02*
X10874944Y-16565174D01*
X10874944Y-16565174D02*
X10884467Y-16527079D01*
X10884467Y-16527079D02*
X10893991Y-16508031D01*
X10893991Y-16508031D02*
X10903515Y-16498508D01*
X10903515Y-16498508D02*
X10922563Y-16488984D01*
X11113039Y-16488984D02*
X11132086Y-16488984D01*
X11132086Y-16488984D02*
X11151134Y-16498508D01*
X11151134Y-16498508D02*
X11160658Y-16508031D01*
X11160658Y-16508031D02*
X11170182Y-16527079D01*
X11170182Y-16527079D02*
X11179705Y-16565174D01*
X11179705Y-16565174D02*
X11179705Y-16612793D01*
X11179705Y-16612793D02*
X11170182Y-16650888D01*
X11170182Y-16650888D02*
X11160658Y-16669936D01*
X11160658Y-16669936D02*
X11151134Y-16679460D01*
X11151134Y-16679460D02*
X11132086Y-16688984D01*
X11132086Y-16688984D02*
X11113039Y-16688984D01*
X11113039Y-16688984D02*
X11093991Y-16679460D01*
X11093991Y-16679460D02*
X11084467Y-16669936D01*
X11084467Y-16669936D02*
X11074944Y-16650888D01*
X11074944Y-16650888D02*
X11065420Y-16612793D01*
X11065420Y-16612793D02*
X11065420Y-16565174D01*
X11065420Y-16565174D02*
X11074944Y-16527079D01*
X11074944Y-16527079D02*
X11084467Y-16508031D01*
X11084467Y-16508031D02*
X11093991Y-16498508D01*
X11093991Y-16498508D02*
X11113039Y-16488984D01*
X11265420Y-16688984D02*
X11265420Y-16555650D01*
X11265420Y-16574698D02*
X11274943Y-16565174D01*
X11274943Y-16565174D02*
X11293991Y-16555650D01*
X11293991Y-16555650D02*
X11322563Y-16555650D01*
X11322563Y-16555650D02*
X11341610Y-16565174D01*
X11341610Y-16565174D02*
X11351134Y-16584222D01*
X11351134Y-16584222D02*
X11351134Y-16688984D01*
X11351134Y-16584222D02*
X11360658Y-16565174D01*
X11360658Y-16565174D02*
X11379705Y-16555650D01*
X11379705Y-16555650D02*
X11408277Y-16555650D01*
X11408277Y-16555650D02*
X11427324Y-16565174D01*
X11427324Y-16565174D02*
X11436848Y-16584222D01*
X11436848Y-16584222D02*
X11436848Y-16688984D01*
X11532086Y-16688984D02*
X11532086Y-16555650D01*
X11532086Y-16574698D02*
X11541610Y-16565174D01*
X11541610Y-16565174D02*
X11560658Y-16555650D01*
X11560658Y-16555650D02*
X11589229Y-16555650D01*
X11589229Y-16555650D02*
X11608277Y-16565174D01*
X11608277Y-16565174D02*
X11617801Y-16584222D01*
X11617801Y-16584222D02*
X11617801Y-16688984D01*
X11617801Y-16584222D02*
X11627324Y-16565174D01*
X11627324Y-16565174D02*
X11646372Y-16555650D01*
X11646372Y-16555650D02*
X11674943Y-16555650D01*
X11674943Y-16555650D02*
X11693991Y-16565174D01*
X11693991Y-16565174D02*
X11703515Y-16584222D01*
X11703515Y-16584222D02*
X11703515Y-16688984D01*
X12093991Y-16479460D02*
X11922563Y-16736603D01*
X12351134Y-16488984D02*
X12370182Y-16488984D01*
X12370182Y-16488984D02*
X12389229Y-16498508D01*
X12389229Y-16498508D02*
X12398753Y-16508031D01*
X12398753Y-16508031D02*
X12408277Y-16527079D01*
X12408277Y-16527079D02*
X12417801Y-16565174D01*
X12417801Y-16565174D02*
X12417801Y-16612793D01*
X12417801Y-16612793D02*
X12408277Y-16650888D01*
X12408277Y-16650888D02*
X12398753Y-16669936D01*
X12398753Y-16669936D02*
X12389229Y-16679460D01*
X12389229Y-16679460D02*
X12370182Y-16688984D01*
X12370182Y-16688984D02*
X12351134Y-16688984D01*
X12351134Y-16688984D02*
X12332086Y-16679460D01*
X12332086Y-16679460D02*
X12322563Y-16669936D01*
X12322563Y-16669936D02*
X12313039Y-16650888D01*
X12313039Y-16650888D02*
X12303515Y-16612793D01*
X12303515Y-16612793D02*
X12303515Y-16565174D01*
X12303515Y-16565174D02*
X12313039Y-16527079D01*
X12313039Y-16527079D02*
X12322563Y-16508031D01*
X12322563Y-16508031D02*
X12332086Y-16498508D01*
X12332086Y-16498508D02*
X12351134Y-16488984D01*
X12503515Y-16669936D02*
X12513039Y-16679460D01*
X12513039Y-16679460D02*
X12503515Y-16688984D01*
X12503515Y-16688984D02*
X12493991Y-16679460D01*
X12493991Y-16679460D02*
X12503515Y-16669936D01*
X12503515Y-16669936D02*
X12503515Y-16688984D01*
X12636848Y-16488984D02*
X12655896Y-16488984D01*
X12655896Y-16488984D02*
X12674944Y-16498508D01*
X12674944Y-16498508D02*
X12684467Y-16508031D01*
X12684467Y-16508031D02*
X12693991Y-16527079D01*
X12693991Y-16527079D02*
X12703515Y-16565174D01*
X12703515Y-16565174D02*
X12703515Y-16612793D01*
X12703515Y-16612793D02*
X12693991Y-16650888D01*
X12693991Y-16650888D02*
X12684467Y-16669936D01*
X12684467Y-16669936D02*
X12674944Y-16679460D01*
X12674944Y-16679460D02*
X12655896Y-16688984D01*
X12655896Y-16688984D02*
X12636848Y-16688984D01*
X12636848Y-16688984D02*
X12617801Y-16679460D01*
X12617801Y-16679460D02*
X12608277Y-16669936D01*
X12608277Y-16669936D02*
X12598753Y-16650888D01*
X12598753Y-16650888D02*
X12589229Y-16612793D01*
X12589229Y-16612793D02*
X12589229Y-16565174D01*
X12589229Y-16565174D02*
X12598753Y-16527079D01*
X12598753Y-16527079D02*
X12608277Y-16508031D01*
X12608277Y-16508031D02*
X12617801Y-16498508D01*
X12617801Y-16498508D02*
X12636848Y-16488984D01*
X12884467Y-16488984D02*
X12789229Y-16488984D01*
X12789229Y-16488984D02*
X12779706Y-16584222D01*
X12779706Y-16584222D02*
X12789229Y-16574698D01*
X12789229Y-16574698D02*
X12808277Y-16565174D01*
X12808277Y-16565174D02*
X12855896Y-16565174D01*
X12855896Y-16565174D02*
X12874944Y-16574698D01*
X12874944Y-16574698D02*
X12884467Y-16584222D01*
X12884467Y-16584222D02*
X12893991Y-16603269D01*
X12893991Y-16603269D02*
X12893991Y-16650888D01*
X12893991Y-16650888D02*
X12884467Y-16669936D01*
X12884467Y-16669936D02*
X12874944Y-16679460D01*
X12874944Y-16679460D02*
X12855896Y-16688984D01*
X12855896Y-16688984D02*
X12808277Y-16688984D01*
X12808277Y-16688984D02*
X12789229Y-16679460D01*
X12789229Y-16679460D02*
X12779706Y-16669936D01*
X12989229Y-16688984D02*
X13027325Y-16688984D01*
X13027325Y-16688984D02*
X13046372Y-16679460D01*
X13046372Y-16679460D02*
X13055896Y-16669936D01*
X13055896Y-16669936D02*
X13074944Y-16641365D01*
X13074944Y-16641365D02*
X13084467Y-16603269D01*
X13084467Y-16603269D02*
X13084467Y-16527079D01*
X13084467Y-16527079D02*
X13074944Y-16508031D01*
X13074944Y-16508031D02*
X13065420Y-16498508D01*
X13065420Y-16498508D02*
X13046372Y-16488984D01*
X13046372Y-16488984D02*
X13008277Y-16488984D01*
X13008277Y-16488984D02*
X12989229Y-16498508D01*
X12989229Y-16498508D02*
X12979706Y-16508031D01*
X12979706Y-16508031D02*
X12970182Y-16527079D01*
X12970182Y-16527079D02*
X12970182Y-16574698D01*
X12970182Y-16574698D02*
X12979706Y-16593746D01*
X12979706Y-16593746D02*
X12989229Y-16603269D01*
X12989229Y-16603269D02*
X13008277Y-16612793D01*
X13008277Y-16612793D02*
X13046372Y-16612793D01*
X13046372Y-16612793D02*
X13065420Y-16603269D01*
X13065420Y-16603269D02*
X13074944Y-16593746D01*
X13074944Y-16593746D02*
X13084467Y-16574698D01*
X13274944Y-16688984D02*
X13160658Y-16688984D01*
X13217801Y-16688984D02*
X13217801Y-16488984D01*
X13217801Y-16488984D02*
X13198753Y-16517555D01*
X13198753Y-16517555D02*
X13179706Y-16536603D01*
X13179706Y-16536603D02*
X13160658Y-16546127D01*
X13351134Y-16488984D02*
X13351134Y-16527079D01*
X13427325Y-16488984D02*
X13427325Y-16527079D01*
X13722563Y-16765174D02*
X13713039Y-16755650D01*
X13713039Y-16755650D02*
X13693991Y-16727079D01*
X13693991Y-16727079D02*
X13684468Y-16708031D01*
X13684468Y-16708031D02*
X13674944Y-16679460D01*
X13674944Y-16679460D02*
X13665420Y-16631841D01*
X13665420Y-16631841D02*
X13665420Y-16593746D01*
X13665420Y-16593746D02*
X13674944Y-16546127D01*
X13674944Y-16546127D02*
X13684468Y-16517555D01*
X13684468Y-16517555D02*
X13693991Y-16498508D01*
X13693991Y-16498508D02*
X13713039Y-16469936D01*
X13713039Y-16469936D02*
X13722563Y-16460412D01*
X13884468Y-16488984D02*
X13846372Y-16488984D01*
X13846372Y-16488984D02*
X13827325Y-16498508D01*
X13827325Y-16498508D02*
X13817801Y-16508031D01*
X13817801Y-16508031D02*
X13798753Y-16536603D01*
X13798753Y-16536603D02*
X13789229Y-16574698D01*
X13789229Y-16574698D02*
X13789229Y-16650888D01*
X13789229Y-16650888D02*
X13798753Y-16669936D01*
X13798753Y-16669936D02*
X13808277Y-16679460D01*
X13808277Y-16679460D02*
X13827325Y-16688984D01*
X13827325Y-16688984D02*
X13865420Y-16688984D01*
X13865420Y-16688984D02*
X13884468Y-16679460D01*
X13884468Y-16679460D02*
X13893991Y-16669936D01*
X13893991Y-16669936D02*
X13903515Y-16650888D01*
X13903515Y-16650888D02*
X13903515Y-16603269D01*
X13903515Y-16603269D02*
X13893991Y-16584222D01*
X13893991Y-16584222D02*
X13884468Y-16574698D01*
X13884468Y-16574698D02*
X13865420Y-16565174D01*
X13865420Y-16565174D02*
X13827325Y-16565174D01*
X13827325Y-16565174D02*
X13808277Y-16574698D01*
X13808277Y-16574698D02*
X13798753Y-16584222D01*
X13798753Y-16584222D02*
X13789229Y-16603269D01*
X14141610Y-16688984D02*
X14141610Y-16488984D01*
X14227325Y-16688984D02*
X14227325Y-16584222D01*
X14227325Y-16584222D02*
X14217801Y-16565174D01*
X14217801Y-16565174D02*
X14198753Y-16555650D01*
X14198753Y-16555650D02*
X14170182Y-16555650D01*
X14170182Y-16555650D02*
X14151134Y-16565174D01*
X14151134Y-16565174D02*
X14141610Y-16574698D01*
X14351134Y-16688984D02*
X14332087Y-16679460D01*
X14332087Y-16679460D02*
X14322563Y-16669936D01*
X14322563Y-16669936D02*
X14313039Y-16650888D01*
X14313039Y-16650888D02*
X14313039Y-16593746D01*
X14313039Y-16593746D02*
X14322563Y-16574698D01*
X14322563Y-16574698D02*
X14332087Y-16565174D01*
X14332087Y-16565174D02*
X14351134Y-16555650D01*
X14351134Y-16555650D02*
X14379706Y-16555650D01*
X14379706Y-16555650D02*
X14398753Y-16565174D01*
X14398753Y-16565174D02*
X14408277Y-16574698D01*
X14408277Y-16574698D02*
X14417801Y-16593746D01*
X14417801Y-16593746D02*
X14417801Y-16650888D01*
X14417801Y-16650888D02*
X14408277Y-16669936D01*
X14408277Y-16669936D02*
X14398753Y-16679460D01*
X14398753Y-16679460D02*
X14379706Y-16688984D01*
X14379706Y-16688984D02*
X14351134Y-16688984D01*
X14532087Y-16688984D02*
X14513039Y-16679460D01*
X14513039Y-16679460D02*
X14503515Y-16660412D01*
X14503515Y-16660412D02*
X14503515Y-16488984D01*
X14684468Y-16679460D02*
X14665420Y-16688984D01*
X14665420Y-16688984D02*
X14627325Y-16688984D01*
X14627325Y-16688984D02*
X14608277Y-16679460D01*
X14608277Y-16679460D02*
X14598753Y-16660412D01*
X14598753Y-16660412D02*
X14598753Y-16584222D01*
X14598753Y-16584222D02*
X14608277Y-16565174D01*
X14608277Y-16565174D02*
X14627325Y-16555650D01*
X14627325Y-16555650D02*
X14665420Y-16555650D01*
X14665420Y-16555650D02*
X14684468Y-16565174D01*
X14684468Y-16565174D02*
X14693991Y-16584222D01*
X14693991Y-16584222D02*
X14693991Y-16603269D01*
X14693991Y-16603269D02*
X14598753Y-16622317D01*
X14770182Y-16679460D02*
X14789230Y-16688984D01*
X14789230Y-16688984D02*
X14827325Y-16688984D01*
X14827325Y-16688984D02*
X14846372Y-16679460D01*
X14846372Y-16679460D02*
X14855896Y-16660412D01*
X14855896Y-16660412D02*
X14855896Y-16650888D01*
X14855896Y-16650888D02*
X14846372Y-16631841D01*
X14846372Y-16631841D02*
X14827325Y-16622317D01*
X14827325Y-16622317D02*
X14798753Y-16622317D01*
X14798753Y-16622317D02*
X14779706Y-16612793D01*
X14779706Y-16612793D02*
X14770182Y-16593746D01*
X14770182Y-16593746D02*
X14770182Y-16584222D01*
X14770182Y-16584222D02*
X14779706Y-16565174D01*
X14779706Y-16565174D02*
X14798753Y-16555650D01*
X14798753Y-16555650D02*
X14827325Y-16555650D01*
X14827325Y-16555650D02*
X14846372Y-16565174D01*
X14922563Y-16765174D02*
X14932087Y-16755650D01*
X14932087Y-16755650D02*
X14951134Y-16727079D01*
X14951134Y-16727079D02*
X14960658Y-16708031D01*
X14960658Y-16708031D02*
X14970182Y-16679460D01*
X14970182Y-16679460D02*
X14979706Y-16631841D01*
X14979706Y-16631841D02*
X14979706Y-16593746D01*
X14979706Y-16593746D02*
X14970182Y-16546127D01*
X14970182Y-16546127D02*
X14960658Y-16517555D01*
X14960658Y-16517555D02*
X14951134Y-16498508D01*
X14951134Y-16498508D02*
X14932087Y-16469936D01*
X14932087Y-16469936D02*
X14922563Y-16460412D01*
X9947500Y-16767500D02*
X10147500Y-16967500D01*
X10147500Y-16767500D02*
X9947500Y-16967500D01*
X10047500Y-16767500D02*
X10047500Y-16967500D01*
X9947500Y-16867500D02*
X10147500Y-16867500D01*
X10398753Y-16778031D02*
X10408277Y-16768508D01*
X10408277Y-16768508D02*
X10427324Y-16758984D01*
X10427324Y-16758984D02*
X10474944Y-16758984D01*
X10474944Y-16758984D02*
X10493991Y-16768508D01*
X10493991Y-16768508D02*
X10503515Y-16778031D01*
X10503515Y-16778031D02*
X10513039Y-16797079D01*
X10513039Y-16797079D02*
X10513039Y-16816127D01*
X10513039Y-16816127D02*
X10503515Y-16844698D01*
X10503515Y-16844698D02*
X10389229Y-16958984D01*
X10389229Y-16958984D02*
X10513039Y-16958984D01*
X10598753Y-16939936D02*
X10608277Y-16949460D01*
X10608277Y-16949460D02*
X10598753Y-16958984D01*
X10598753Y-16958984D02*
X10589229Y-16949460D01*
X10589229Y-16949460D02*
X10598753Y-16939936D01*
X10598753Y-16939936D02*
X10598753Y-16958984D01*
X10674944Y-16758984D02*
X10808277Y-16758984D01*
X10808277Y-16758984D02*
X10722563Y-16958984D01*
X10922563Y-16758984D02*
X10941610Y-16758984D01*
X10941610Y-16758984D02*
X10960658Y-16768508D01*
X10960658Y-16768508D02*
X10970182Y-16778031D01*
X10970182Y-16778031D02*
X10979705Y-16797079D01*
X10979705Y-16797079D02*
X10989229Y-16835174D01*
X10989229Y-16835174D02*
X10989229Y-16882793D01*
X10989229Y-16882793D02*
X10979705Y-16920889D01*
X10979705Y-16920889D02*
X10970182Y-16939936D01*
X10970182Y-16939936D02*
X10960658Y-16949460D01*
X10960658Y-16949460D02*
X10941610Y-16958984D01*
X10941610Y-16958984D02*
X10922563Y-16958984D01*
X10922563Y-16958984D02*
X10903515Y-16949460D01*
X10903515Y-16949460D02*
X10893991Y-16939936D01*
X10893991Y-16939936D02*
X10884467Y-16920889D01*
X10884467Y-16920889D02*
X10874944Y-16882793D01*
X10874944Y-16882793D02*
X10874944Y-16835174D01*
X10874944Y-16835174D02*
X10884467Y-16797079D01*
X10884467Y-16797079D02*
X10893991Y-16778031D01*
X10893991Y-16778031D02*
X10903515Y-16768508D01*
X10903515Y-16768508D02*
X10922563Y-16758984D01*
X11113039Y-16758984D02*
X11132086Y-16758984D01*
X11132086Y-16758984D02*
X11151134Y-16768508D01*
X11151134Y-16768508D02*
X11160658Y-16778031D01*
X11160658Y-16778031D02*
X11170182Y-16797079D01*
X11170182Y-16797079D02*
X11179705Y-16835174D01*
X11179705Y-16835174D02*
X11179705Y-16882793D01*
X11179705Y-16882793D02*
X11170182Y-16920889D01*
X11170182Y-16920889D02*
X11160658Y-16939936D01*
X11160658Y-16939936D02*
X11151134Y-16949460D01*
X11151134Y-16949460D02*
X11132086Y-16958984D01*
X11132086Y-16958984D02*
X11113039Y-16958984D01*
X11113039Y-16958984D02*
X11093991Y-16949460D01*
X11093991Y-16949460D02*
X11084467Y-16939936D01*
X11084467Y-16939936D02*
X11074944Y-16920889D01*
X11074944Y-16920889D02*
X11065420Y-16882793D01*
X11065420Y-16882793D02*
X11065420Y-16835174D01*
X11065420Y-16835174D02*
X11074944Y-16797079D01*
X11074944Y-16797079D02*
X11084467Y-16778031D01*
X11084467Y-16778031D02*
X11093991Y-16768508D01*
X11093991Y-16768508D02*
X11113039Y-16758984D01*
X11265420Y-16958984D02*
X11265420Y-16825650D01*
X11265420Y-16844698D02*
X11274943Y-16835174D01*
X11274943Y-16835174D02*
X11293991Y-16825650D01*
X11293991Y-16825650D02*
X11322563Y-16825650D01*
X11322563Y-16825650D02*
X11341610Y-16835174D01*
X11341610Y-16835174D02*
X11351134Y-16854222D01*
X11351134Y-16854222D02*
X11351134Y-16958984D01*
X11351134Y-16854222D02*
X11360658Y-16835174D01*
X11360658Y-16835174D02*
X11379705Y-16825650D01*
X11379705Y-16825650D02*
X11408277Y-16825650D01*
X11408277Y-16825650D02*
X11427324Y-16835174D01*
X11427324Y-16835174D02*
X11436848Y-16854222D01*
X11436848Y-16854222D02*
X11436848Y-16958984D01*
X11532086Y-16958984D02*
X11532086Y-16825650D01*
X11532086Y-16844698D02*
X11541610Y-16835174D01*
X11541610Y-16835174D02*
X11560658Y-16825650D01*
X11560658Y-16825650D02*
X11589229Y-16825650D01*
X11589229Y-16825650D02*
X11608277Y-16835174D01*
X11608277Y-16835174D02*
X11617801Y-16854222D01*
X11617801Y-16854222D02*
X11617801Y-16958984D01*
X11617801Y-16854222D02*
X11627324Y-16835174D01*
X11627324Y-16835174D02*
X11646372Y-16825650D01*
X11646372Y-16825650D02*
X11674943Y-16825650D01*
X11674943Y-16825650D02*
X11693991Y-16835174D01*
X11693991Y-16835174D02*
X11703515Y-16854222D01*
X11703515Y-16854222D02*
X11703515Y-16958984D01*
X12093991Y-16749460D02*
X11922563Y-17006603D01*
X12351134Y-16758984D02*
X12370182Y-16758984D01*
X12370182Y-16758984D02*
X12389229Y-16768508D01*
X12389229Y-16768508D02*
X12398753Y-16778031D01*
X12398753Y-16778031D02*
X12408277Y-16797079D01*
X12408277Y-16797079D02*
X12417801Y-16835174D01*
X12417801Y-16835174D02*
X12417801Y-16882793D01*
X12417801Y-16882793D02*
X12408277Y-16920889D01*
X12408277Y-16920889D02*
X12398753Y-16939936D01*
X12398753Y-16939936D02*
X12389229Y-16949460D01*
X12389229Y-16949460D02*
X12370182Y-16958984D01*
X12370182Y-16958984D02*
X12351134Y-16958984D01*
X12351134Y-16958984D02*
X12332086Y-16949460D01*
X12332086Y-16949460D02*
X12322563Y-16939936D01*
X12322563Y-16939936D02*
X12313039Y-16920889D01*
X12313039Y-16920889D02*
X12303515Y-16882793D01*
X12303515Y-16882793D02*
X12303515Y-16835174D01*
X12303515Y-16835174D02*
X12313039Y-16797079D01*
X12313039Y-16797079D02*
X12322563Y-16778031D01*
X12322563Y-16778031D02*
X12332086Y-16768508D01*
X12332086Y-16768508D02*
X12351134Y-16758984D01*
X12503515Y-16939936D02*
X12513039Y-16949460D01*
X12513039Y-16949460D02*
X12503515Y-16958984D01*
X12503515Y-16958984D02*
X12493991Y-16949460D01*
X12493991Y-16949460D02*
X12503515Y-16939936D01*
X12503515Y-16939936D02*
X12503515Y-16958984D01*
X12703515Y-16958984D02*
X12589229Y-16958984D01*
X12646372Y-16958984D02*
X12646372Y-16758984D01*
X12646372Y-16758984D02*
X12627325Y-16787555D01*
X12627325Y-16787555D02*
X12608277Y-16806603D01*
X12608277Y-16806603D02*
X12589229Y-16816127D01*
X12827325Y-16758984D02*
X12846372Y-16758984D01*
X12846372Y-16758984D02*
X12865420Y-16768508D01*
X12865420Y-16768508D02*
X12874944Y-16778031D01*
X12874944Y-16778031D02*
X12884467Y-16797079D01*
X12884467Y-16797079D02*
X12893991Y-16835174D01*
X12893991Y-16835174D02*
X12893991Y-16882793D01*
X12893991Y-16882793D02*
X12884467Y-16920889D01*
X12884467Y-16920889D02*
X12874944Y-16939936D01*
X12874944Y-16939936D02*
X12865420Y-16949460D01*
X12865420Y-16949460D02*
X12846372Y-16958984D01*
X12846372Y-16958984D02*
X12827325Y-16958984D01*
X12827325Y-16958984D02*
X12808277Y-16949460D01*
X12808277Y-16949460D02*
X12798753Y-16939936D01*
X12798753Y-16939936D02*
X12789229Y-16920889D01*
X12789229Y-16920889D02*
X12779706Y-16882793D01*
X12779706Y-16882793D02*
X12779706Y-16835174D01*
X12779706Y-16835174D02*
X12789229Y-16797079D01*
X12789229Y-16797079D02*
X12798753Y-16778031D01*
X12798753Y-16778031D02*
X12808277Y-16768508D01*
X12808277Y-16768508D02*
X12827325Y-16758984D01*
X13065420Y-16758984D02*
X13027325Y-16758984D01*
X13027325Y-16758984D02*
X13008277Y-16768508D01*
X13008277Y-16768508D02*
X12998753Y-16778031D01*
X12998753Y-16778031D02*
X12979706Y-16806603D01*
X12979706Y-16806603D02*
X12970182Y-16844698D01*
X12970182Y-16844698D02*
X12970182Y-16920889D01*
X12970182Y-16920889D02*
X12979706Y-16939936D01*
X12979706Y-16939936D02*
X12989229Y-16949460D01*
X12989229Y-16949460D02*
X13008277Y-16958984D01*
X13008277Y-16958984D02*
X13046372Y-16958984D01*
X13046372Y-16958984D02*
X13065420Y-16949460D01*
X13065420Y-16949460D02*
X13074944Y-16939936D01*
X13074944Y-16939936D02*
X13084467Y-16920889D01*
X13084467Y-16920889D02*
X13084467Y-16873270D01*
X13084467Y-16873270D02*
X13074944Y-16854222D01*
X13074944Y-16854222D02*
X13065420Y-16844698D01*
X13065420Y-16844698D02*
X13046372Y-16835174D01*
X13046372Y-16835174D02*
X13008277Y-16835174D01*
X13008277Y-16835174D02*
X12989229Y-16844698D01*
X12989229Y-16844698D02*
X12979706Y-16854222D01*
X12979706Y-16854222D02*
X12970182Y-16873270D01*
X13151134Y-16758984D02*
X13274944Y-16758984D01*
X13274944Y-16758984D02*
X13208277Y-16835174D01*
X13208277Y-16835174D02*
X13236848Y-16835174D01*
X13236848Y-16835174D02*
X13255896Y-16844698D01*
X13255896Y-16844698D02*
X13265420Y-16854222D01*
X13265420Y-16854222D02*
X13274944Y-16873270D01*
X13274944Y-16873270D02*
X13274944Y-16920889D01*
X13274944Y-16920889D02*
X13265420Y-16939936D01*
X13265420Y-16939936D02*
X13255896Y-16949460D01*
X13255896Y-16949460D02*
X13236848Y-16958984D01*
X13236848Y-16958984D02*
X13179706Y-16958984D01*
X13179706Y-16958984D02*
X13160658Y-16949460D01*
X13160658Y-16949460D02*
X13151134Y-16939936D01*
X13351134Y-16758984D02*
X13351134Y-16797079D01*
X13427325Y-16758984D02*
X13427325Y-16797079D01*
X13722563Y-17035174D02*
X13713039Y-17025650D01*
X13713039Y-17025650D02*
X13693991Y-16997079D01*
X13693991Y-16997079D02*
X13684468Y-16978031D01*
X13684468Y-16978031D02*
X13674944Y-16949460D01*
X13674944Y-16949460D02*
X13665420Y-16901841D01*
X13665420Y-16901841D02*
X13665420Y-16863746D01*
X13665420Y-16863746D02*
X13674944Y-16816127D01*
X13674944Y-16816127D02*
X13684468Y-16787555D01*
X13684468Y-16787555D02*
X13693991Y-16768508D01*
X13693991Y-16768508D02*
X13713039Y-16739936D01*
X13713039Y-16739936D02*
X13722563Y-16730412D01*
X13884468Y-16758984D02*
X13846372Y-16758984D01*
X13846372Y-16758984D02*
X13827325Y-16768508D01*
X13827325Y-16768508D02*
X13817801Y-16778031D01*
X13817801Y-16778031D02*
X13798753Y-16806603D01*
X13798753Y-16806603D02*
X13789229Y-16844698D01*
X13789229Y-16844698D02*
X13789229Y-16920889D01*
X13789229Y-16920889D02*
X13798753Y-16939936D01*
X13798753Y-16939936D02*
X13808277Y-16949460D01*
X13808277Y-16949460D02*
X13827325Y-16958984D01*
X13827325Y-16958984D02*
X13865420Y-16958984D01*
X13865420Y-16958984D02*
X13884468Y-16949460D01*
X13884468Y-16949460D02*
X13893991Y-16939936D01*
X13893991Y-16939936D02*
X13903515Y-16920889D01*
X13903515Y-16920889D02*
X13903515Y-16873270D01*
X13903515Y-16873270D02*
X13893991Y-16854222D01*
X13893991Y-16854222D02*
X13884468Y-16844698D01*
X13884468Y-16844698D02*
X13865420Y-16835174D01*
X13865420Y-16835174D02*
X13827325Y-16835174D01*
X13827325Y-16835174D02*
X13808277Y-16844698D01*
X13808277Y-16844698D02*
X13798753Y-16854222D01*
X13798753Y-16854222D02*
X13789229Y-16873270D01*
X14141610Y-16958984D02*
X14141610Y-16758984D01*
X14227325Y-16958984D02*
X14227325Y-16854222D01*
X14227325Y-16854222D02*
X14217801Y-16835174D01*
X14217801Y-16835174D02*
X14198753Y-16825650D01*
X14198753Y-16825650D02*
X14170182Y-16825650D01*
X14170182Y-16825650D02*
X14151134Y-16835174D01*
X14151134Y-16835174D02*
X14141610Y-16844698D01*
X14351134Y-16958984D02*
X14332087Y-16949460D01*
X14332087Y-16949460D02*
X14322563Y-16939936D01*
X14322563Y-16939936D02*
X14313039Y-16920889D01*
X14313039Y-16920889D02*
X14313039Y-16863746D01*
X14313039Y-16863746D02*
X14322563Y-16844698D01*
X14322563Y-16844698D02*
X14332087Y-16835174D01*
X14332087Y-16835174D02*
X14351134Y-16825650D01*
X14351134Y-16825650D02*
X14379706Y-16825650D01*
X14379706Y-16825650D02*
X14398753Y-16835174D01*
X14398753Y-16835174D02*
X14408277Y-16844698D01*
X14408277Y-16844698D02*
X14417801Y-16863746D01*
X14417801Y-16863746D02*
X14417801Y-16920889D01*
X14417801Y-16920889D02*
X14408277Y-16939936D01*
X14408277Y-16939936D02*
X14398753Y-16949460D01*
X14398753Y-16949460D02*
X14379706Y-16958984D01*
X14379706Y-16958984D02*
X14351134Y-16958984D01*
X14532087Y-16958984D02*
X14513039Y-16949460D01*
X14513039Y-16949460D02*
X14503515Y-16930412D01*
X14503515Y-16930412D02*
X14503515Y-16758984D01*
X14684468Y-16949460D02*
X14665420Y-16958984D01*
X14665420Y-16958984D02*
X14627325Y-16958984D01*
X14627325Y-16958984D02*
X14608277Y-16949460D01*
X14608277Y-16949460D02*
X14598753Y-16930412D01*
X14598753Y-16930412D02*
X14598753Y-16854222D01*
X14598753Y-16854222D02*
X14608277Y-16835174D01*
X14608277Y-16835174D02*
X14627325Y-16825650D01*
X14627325Y-16825650D02*
X14665420Y-16825650D01*
X14665420Y-16825650D02*
X14684468Y-16835174D01*
X14684468Y-16835174D02*
X14693991Y-16854222D01*
X14693991Y-16854222D02*
X14693991Y-16873270D01*
X14693991Y-16873270D02*
X14598753Y-16892317D01*
X14770182Y-16949460D02*
X14789230Y-16958984D01*
X14789230Y-16958984D02*
X14827325Y-16958984D01*
X14827325Y-16958984D02*
X14846372Y-16949460D01*
X14846372Y-16949460D02*
X14855896Y-16930412D01*
X14855896Y-16930412D02*
X14855896Y-16920889D01*
X14855896Y-16920889D02*
X14846372Y-16901841D01*
X14846372Y-16901841D02*
X14827325Y-16892317D01*
X14827325Y-16892317D02*
X14798753Y-16892317D01*
X14798753Y-16892317D02*
X14779706Y-16882793D01*
X14779706Y-16882793D02*
X14770182Y-16863746D01*
X14770182Y-16863746D02*
X14770182Y-16854222D01*
X14770182Y-16854222D02*
X14779706Y-16835174D01*
X14779706Y-16835174D02*
X14798753Y-16825650D01*
X14798753Y-16825650D02*
X14827325Y-16825650D01*
X14827325Y-16825650D02*
X14846372Y-16835174D01*
X14922563Y-17035174D02*
X14932087Y-17025650D01*
X14932087Y-17025650D02*
X14951134Y-16997079D01*
X14951134Y-16997079D02*
X14960658Y-16978031D01*
X14960658Y-16978031D02*
X14970182Y-16949460D01*
X14970182Y-16949460D02*
X14979706Y-16901841D01*
X14979706Y-16901841D02*
X14979706Y-16863746D01*
X14979706Y-16863746D02*
X14970182Y-16816127D01*
X14970182Y-16816127D02*
X14960658Y-16787555D01*
X14960658Y-16787555D02*
X14951134Y-16768508D01*
X14951134Y-16768508D02*
X14932087Y-16739936D01*
X14932087Y-16739936D02*
X14922563Y-16730412D01*
M02*
