%TF.GenerationSoftware,KiCad,Pcbnew,8.0.6*%
%TF.CreationDate,2025-02-12T15:18:34-05:00*%
%TF.ProjectId,HydroBall,48796472-6f42-4616-9c6c-2e6b69636164,rev?*%
%TF.SameCoordinates,Original*%
%TF.FileFunction,Soldermask,Top*%
%TF.FilePolarity,Negative*%
%FSLAX46Y46*%
G04 Gerber Fmt 4.6, Leading zero omitted, Abs format (unit mm)*
G04 Created by KiCad (PCBNEW 8.0.6) date 2025-02-12 15:18:34*
%MOMM*%
%LPD*%
G01*
G04 APERTURE LIST*
G04 Aperture macros list*
%AMRoundRect*
0 Rectangle with rounded corners*
0 $1 Rounding radius*
0 $2 $3 $4 $5 $6 $7 $8 $9 X,Y pos of 4 corners*
0 Add a 4 corners polygon primitive as box body*
4,1,4,$2,$3,$4,$5,$6,$7,$8,$9,$2,$3,0*
0 Add four circle primitives for the rounded corners*
1,1,$1+$1,$2,$3*
1,1,$1+$1,$4,$5*
1,1,$1+$1,$6,$7*
1,1,$1+$1,$8,$9*
0 Add four rect primitives between the rounded corners*
20,1,$1+$1,$2,$3,$4,$5,0*
20,1,$1+$1,$4,$5,$6,$7,0*
20,1,$1+$1,$6,$7,$8,$9,0*
20,1,$1+$1,$8,$9,$2,$3,0*%
%AMHorizOval*
0 Thick line with rounded ends*
0 $1 width*
0 $2 $3 position (X,Y) of the first rounded end (center of the circle)*
0 $4 $5 position (X,Y) of the second rounded end (center of the circle)*
0 Add line between two ends*
20,1,$1,$2,$3,$4,$5,0*
0 Add two circle primitives to create the rounded ends*
1,1,$1,$2,$3*
1,1,$1,$4,$5*%
%AMFreePoly0*
4,1,19,0.500000,-0.750000,0.000000,-0.750000,0.000000,-0.744911,-0.071157,-0.744911,-0.207708,-0.704816,-0.327430,-0.627875,-0.420627,-0.520320,-0.479746,-0.390866,-0.500000,-0.250000,-0.500000,0.250000,-0.479746,0.390866,-0.420627,0.520320,-0.327430,0.627875,-0.207708,0.704816,-0.071157,0.744911,0.000000,0.744911,0.000000,0.750000,0.500000,0.750000,0.500000,-0.750000,0.500000,-0.750000,
$1*%
%AMFreePoly1*
4,1,19,0.000000,0.744911,0.071157,0.744911,0.207708,0.704816,0.327430,0.627875,0.420627,0.520320,0.479746,0.390866,0.500000,0.250000,0.500000,-0.250000,0.479746,-0.390866,0.420627,-0.520320,0.327430,-0.627875,0.207708,-0.704816,0.071157,-0.744911,0.000000,-0.744911,0.000000,-0.750000,-0.500000,-0.750000,-0.500000,0.750000,0.000000,0.750000,0.000000,0.744911,0.000000,0.744911,
$1*%
G04 Aperture macros list end*
%ADD10RoundRect,0.250000X1.400000X1.000000X-1.400000X1.000000X-1.400000X-1.000000X1.400000X-1.000000X0*%
%ADD11C,2.250000*%
%ADD12RoundRect,0.250000X-0.325000X-0.650000X0.325000X-0.650000X0.325000X0.650000X-0.325000X0.650000X0*%
%ADD13C,1.524000*%
%ADD14C,4.500000*%
%ADD15RoundRect,0.250000X0.312500X0.625000X-0.312500X0.625000X-0.312500X-0.625000X0.312500X-0.625000X0*%
%ADD16RoundRect,0.250000X-0.312500X-0.625000X0.312500X-0.625000X0.312500X0.625000X-0.312500X0.625000X0*%
%ADD17R,3.510000X2.540000*%
%ADD18RoundRect,0.250000X-1.425000X0.362500X-1.425000X-0.362500X1.425000X-0.362500X1.425000X0.362500X0*%
%ADD19RoundRect,0.250000X-0.650000X0.325000X-0.650000X-0.325000X0.650000X-0.325000X0.650000X0.325000X0*%
%ADD20RoundRect,0.250000X0.550000X-1.500000X0.550000X1.500000X-0.550000X1.500000X-0.550000X-1.500000X0*%
%ADD21RoundRect,0.250000X0.650000X-0.325000X0.650000X0.325000X-0.650000X0.325000X-0.650000X-0.325000X0*%
%ADD22R,1.700000X1.700000*%
%ADD23O,1.700000X1.700000*%
%ADD24C,1.200000*%
%ADD25RoundRect,0.250000X-0.600000X-0.725000X0.600000X-0.725000X0.600000X0.725000X-0.600000X0.725000X0*%
%ADD26O,1.700000X1.950000*%
%ADD27RoundRect,0.249999X1.550001X-0.790001X1.550001X0.790001X-1.550001X0.790001X-1.550001X-0.790001X0*%
%ADD28O,3.600000X2.080000*%
%ADD29RoundRect,0.250000X-0.375000X-0.625000X0.375000X-0.625000X0.375000X0.625000X-0.375000X0.625000X0*%
%ADD30RoundRect,0.150000X0.587500X0.150000X-0.587500X0.150000X-0.587500X-0.150000X0.587500X-0.150000X0*%
%ADD31RoundRect,0.250000X-0.625000X0.312500X-0.625000X-0.312500X0.625000X-0.312500X0.625000X0.312500X0*%
%ADD32RoundRect,0.250000X0.625000X-0.312500X0.625000X0.312500X-0.625000X0.312500X-0.625000X-0.312500X0*%
%ADD33RoundRect,0.011200X0.128800X-0.723800X0.128800X0.723800X-0.128800X0.723800X-0.128800X-0.723800X0*%
%ADD34R,0.700000X1.950000*%
%ADD35FreePoly0,270.000000*%
%ADD36FreePoly1,270.000000*%
%ADD37RoundRect,0.250000X0.725000X-0.600000X0.725000X0.600000X-0.725000X0.600000X-0.725000X-0.600000X0*%
%ADD38O,1.950000X1.700000*%
%ADD39RoundRect,0.150000X0.150000X-0.587500X0.150000X0.587500X-0.150000X0.587500X-0.150000X-0.587500X0*%
%ADD40RoundRect,0.250000X-0.600000X-0.750000X0.600000X-0.750000X0.600000X0.750000X-0.600000X0.750000X0*%
%ADD41O,1.700000X2.000000*%
%ADD42RoundRect,0.150000X-0.825000X-0.150000X0.825000X-0.150000X0.825000X0.150000X-0.825000X0.150000X0*%
%ADD43RoundRect,0.250000X-1.075000X0.375000X-1.075000X-0.375000X1.075000X-0.375000X1.075000X0.375000X0*%
%ADD44RoundRect,0.150000X-0.150000X0.587500X-0.150000X-0.587500X0.150000X-0.587500X0.150000X0.587500X0*%
%ADD45R,2.000000X2.000000*%
%ADD46C,2.000000*%
%ADD47R,2.250000X2.250000*%
%ADD48HorizOval,1.700000X0.000000X0.000000X0.000000X0.000000X0*%
G04 APERTURE END LIST*
D10*
%TO.C,D2*%
X123010000Y-111180000D03*
X123010000Y-104380000D03*
%TD*%
D11*
%TO.C,FID1*%
X103910000Y-60840000D03*
%TD*%
D12*
%TO.C,C6*%
X117675000Y-128400000D03*
X120625000Y-128400000D03*
%TD*%
D13*
%TO.C,U1*%
X148355000Y-138245000D03*
X150895000Y-138245000D03*
X153435000Y-138245000D03*
X155975000Y-138245000D03*
X158515000Y-138245000D03*
X161055000Y-138245000D03*
X163595000Y-138245000D03*
X166135000Y-138245000D03*
X168675000Y-138245000D03*
X171215000Y-138245000D03*
X148355000Y-97605000D03*
X150895000Y-97605000D03*
X153435000Y-97605000D03*
X155975000Y-97605000D03*
X158515000Y-97605000D03*
X161055000Y-97605000D03*
X163595000Y-97605000D03*
X166135000Y-97605000D03*
X168675000Y-97605000D03*
X135655000Y-105225000D03*
X135655000Y-107765000D03*
X135655000Y-110305000D03*
X135655000Y-112845000D03*
X135655000Y-115385000D03*
X135655000Y-117925000D03*
%TD*%
D14*
%TO.C,H4*%
X116200000Y-143380000D03*
%TD*%
D15*
%TO.C,R20*%
X171272500Y-66690000D03*
X168347500Y-66690000D03*
%TD*%
D16*
%TO.C,R3*%
X109415000Y-45750000D03*
X112340000Y-45750000D03*
%TD*%
D15*
%TO.C,R15*%
X130512500Y-126250000D03*
X127587500Y-126250000D03*
%TD*%
D17*
%TO.C,BT1*%
X109760000Y-60280000D03*
X109760000Y-89640000D03*
%TD*%
D18*
%TO.C,R10*%
X119225000Y-115062500D03*
X119225000Y-120987500D03*
%TD*%
D19*
%TO.C,C10*%
X127775000Y-119325000D03*
X127775000Y-122275000D03*
%TD*%
D20*
%TO.C,C13*%
X129460000Y-97120000D03*
X129460000Y-91520000D03*
%TD*%
D21*
%TO.C,C7*%
X130920000Y-109070000D03*
X130920000Y-106120000D03*
%TD*%
D22*
%TO.C,J14*%
X124000000Y-98100000D03*
D23*
X124000000Y-100640000D03*
X121460000Y-98100000D03*
X121460000Y-100640000D03*
X118920000Y-98100000D03*
X118920000Y-100640000D03*
X116380000Y-98100000D03*
X116380000Y-100640000D03*
%TD*%
D24*
%TO.C,J1*%
X118150000Y-53705000D03*
D25*
X119750000Y-51705000D03*
D26*
X122250000Y-51705000D03*
X124750000Y-51705000D03*
X127250000Y-51705000D03*
X129750000Y-51705000D03*
X132250000Y-51705000D03*
%TD*%
D22*
%TO.C,J11*%
X104050000Y-42975000D03*
D23*
X106590000Y-42975000D03*
X104050000Y-45515000D03*
X106590000Y-45515000D03*
X104050000Y-48055000D03*
X106590000Y-48055000D03*
X104050000Y-50595000D03*
X106590000Y-50595000D03*
X104050000Y-53135000D03*
X106590000Y-53135000D03*
X104050000Y-55675000D03*
X106590000Y-55675000D03*
%TD*%
D27*
%TO.C,J9*%
X107310000Y-122080000D03*
D28*
X107310000Y-117000000D03*
X107310000Y-111920000D03*
X107310000Y-106840000D03*
%TD*%
D29*
%TO.C,F1*%
X105840000Y-98680000D03*
X108640000Y-98680000D03*
%TD*%
D30*
%TO.C,Q2*%
X171087500Y-71292500D03*
X171087500Y-69392500D03*
X169212500Y-70342500D03*
%TD*%
D24*
%TO.C,J3*%
X159050000Y-53555000D03*
D25*
X160650000Y-51555000D03*
D26*
X163150000Y-51555000D03*
X165650000Y-51555000D03*
X168150000Y-51555000D03*
X170650000Y-51555000D03*
%TD*%
D14*
%TO.C,H5*%
X116200000Y-92480000D03*
%TD*%
D31*
%TO.C,R16*%
X132925000Y-119737500D03*
X132925000Y-122662500D03*
%TD*%
D32*
%TO.C,R12*%
X121175000Y-126212500D03*
X121175000Y-123287500D03*
%TD*%
D33*
%TO.C,U4*%
X118750000Y-135275000D03*
X119250000Y-135275000D03*
X119750000Y-135275000D03*
X120250000Y-135275000D03*
X120750000Y-135275000D03*
X120750000Y-130975000D03*
X120250000Y-130975000D03*
X119750000Y-130975000D03*
X119250000Y-130975000D03*
X118750000Y-130975000D03*
%TD*%
D31*
%TO.C,R11*%
X117475000Y-123200000D03*
X117475000Y-126125000D03*
%TD*%
D14*
%TO.C,H3*%
X174200000Y-43480000D03*
%TD*%
D16*
%TO.C,R1*%
X163587500Y-92525000D03*
X166512500Y-92525000D03*
%TD*%
D34*
%TO.C,IC1*%
X161015000Y-66995000D03*
X159745000Y-66995000D03*
X158475000Y-66995000D03*
X157205000Y-66995000D03*
X157205000Y-71945000D03*
X158475000Y-71945000D03*
X159745000Y-71945000D03*
X161015000Y-71945000D03*
%TD*%
D11*
%TO.C,FID3*%
X108625000Y-140975000D03*
%TD*%
D35*
%TO.C,JP3*%
X145325000Y-141825000D03*
D36*
X145325000Y-143125000D03*
%TD*%
D24*
%TO.C,J5*%
X173600000Y-87580000D03*
D37*
X171600000Y-85980000D03*
D38*
X171600000Y-83480000D03*
X171600000Y-80980000D03*
X171600000Y-78480000D03*
X171600000Y-75980000D03*
%TD*%
D15*
%TO.C,R21*%
X166085000Y-72070000D03*
X163160000Y-72070000D03*
%TD*%
D16*
%TO.C,R2*%
X163537500Y-90125000D03*
X166462500Y-90125000D03*
%TD*%
D39*
%TO.C,Q3*%
X140120000Y-69925000D03*
X142020000Y-69925000D03*
X141070000Y-68050000D03*
%TD*%
D12*
%TO.C,C12*%
X118250000Y-138150000D03*
X121200000Y-138150000D03*
%TD*%
D24*
%TO.C,J13*%
X169190000Y-63530000D03*
D40*
X170790000Y-61530000D03*
D41*
X173290000Y-61530000D03*
%TD*%
D21*
%TO.C,C8*%
X114820000Y-109330000D03*
X114820000Y-106380000D03*
%TD*%
D35*
%TO.C,JP1*%
X141525000Y-141850000D03*
D36*
X141525000Y-143150000D03*
%TD*%
D42*
%TO.C,U8*%
X109900000Y-52960000D03*
X109900000Y-54230000D03*
X109900000Y-55500000D03*
X109900000Y-56770000D03*
X114850000Y-56770000D03*
X114850000Y-55500000D03*
X114850000Y-54230000D03*
X114850000Y-52960000D03*
%TD*%
D24*
%TO.C,J6*%
X118150000Y-63480000D03*
D25*
X119750000Y-61480000D03*
D26*
X122250000Y-61480000D03*
X124750000Y-61480000D03*
X127250000Y-61480000D03*
X129750000Y-61480000D03*
%TD*%
D43*
%TO.C,L1*%
X113750000Y-117900000D03*
X113750000Y-120700000D03*
%TD*%
D11*
%TO.C,FID2*%
X170100000Y-92375000D03*
%TD*%
D32*
%TO.C,R23*%
X112550000Y-50750000D03*
X112550000Y-47825000D03*
%TD*%
D12*
%TO.C,C19*%
X163145000Y-66880000D03*
X166095000Y-66880000D03*
%TD*%
D14*
%TO.C,H2*%
X174200000Y-143380000D03*
%TD*%
D31*
%TO.C,R17*%
X133100000Y-130362500D03*
X133100000Y-133287500D03*
%TD*%
D24*
%TO.C,J4*%
X152825000Y-63505000D03*
D25*
X154425000Y-61505000D03*
D26*
X156925000Y-61505000D03*
X159425000Y-61505000D03*
X161925000Y-61505000D03*
X164425000Y-61505000D03*
%TD*%
D24*
%TO.C,J2*%
X137275000Y-53680000D03*
D25*
X138875000Y-51680000D03*
D26*
X141375000Y-51680000D03*
X143875000Y-51680000D03*
X146375000Y-51680000D03*
X148875000Y-51680000D03*
X151375000Y-51680000D03*
X153875000Y-51680000D03*
%TD*%
D13*
%TO.C,U2*%
X141220000Y-94010000D03*
X143760000Y-94010000D03*
X146300000Y-94010000D03*
X148840000Y-94010000D03*
X151380000Y-94010000D03*
X153920000Y-94010000D03*
X151380000Y-76230000D03*
X148840000Y-76230000D03*
X146300000Y-76230000D03*
X143760000Y-76230000D03*
%TD*%
D14*
%TO.C,H6*%
X174200000Y-92480000D03*
%TD*%
D24*
%TO.C,J7*%
X135250000Y-63430000D03*
D25*
X136850000Y-61430000D03*
D26*
X139350000Y-61430000D03*
X141850000Y-61430000D03*
X144350000Y-61430000D03*
X146850000Y-61430000D03*
%TD*%
D14*
%TO.C,H1*%
X116200000Y-43480000D03*
%TD*%
D32*
%TO.C,R22*%
X114875000Y-50737500D03*
X114875000Y-47812500D03*
%TD*%
D44*
%TO.C,Q1*%
X145452500Y-68232500D03*
X143552500Y-68232500D03*
X144502500Y-70107500D03*
%TD*%
D12*
%TO.C,C17*%
X163095000Y-69570000D03*
X166045000Y-69570000D03*
%TD*%
D32*
%TO.C,R4*%
X109950000Y-50725000D03*
X109950000Y-47800000D03*
%TD*%
D45*
%TO.C,C5*%
X127730000Y-110270000D03*
D46*
X127730000Y-105270000D03*
%TD*%
D47*
%TO.C,PS1*%
X112695000Y-136435000D03*
D11*
X112695000Y-128815000D03*
X112695000Y-123735000D03*
X133015000Y-116115000D03*
X133015000Y-126275000D03*
X133015000Y-136435000D03*
%TD*%
D22*
%TO.C,J8*%
X121200000Y-44750000D03*
D48*
X121200000Y-42210000D03*
D23*
X123740000Y-44750000D03*
D48*
X123740000Y-42210000D03*
D23*
X126280000Y-44750000D03*
X126280000Y-42210000D03*
X128820000Y-44750000D03*
X128820000Y-42210000D03*
D48*
X131360000Y-44750000D03*
D23*
X131360000Y-42210000D03*
X133900000Y-44750000D03*
X133900000Y-42210000D03*
X136440000Y-44750000D03*
X136440000Y-42210000D03*
X138980000Y-44750000D03*
X138980000Y-42210000D03*
D48*
X141520000Y-44750000D03*
D23*
X141520000Y-42210000D03*
X144060000Y-44750000D03*
X144060000Y-42210000D03*
X146600000Y-44750000D03*
X146600000Y-42210000D03*
X149140000Y-44750000D03*
X149140000Y-42210000D03*
D48*
X151680000Y-44750000D03*
D23*
X151680000Y-42210000D03*
X154220000Y-44750000D03*
X154220000Y-42210000D03*
X156760000Y-44750000D03*
X156760000Y-42210000D03*
X159300000Y-44750000D03*
X159300000Y-42210000D03*
X161840000Y-44750000D03*
X161840000Y-42210000D03*
X164380000Y-44750000D03*
X164380000Y-42210000D03*
X166920000Y-44750000D03*
X166920000Y-42210000D03*
X169460000Y-44750000D03*
X169460000Y-42210000D03*
%TD*%
D45*
%TO.C,C9*%
X116970000Y-110520000D03*
D46*
X116970000Y-105520000D03*
%TD*%
M02*
