%TF.GenerationSoftware,KiCad,Pcbnew,8.0.6*%
%TF.CreationDate,2025-02-12T15:18:34-05:00*%
%TF.ProjectId,HydroBall,48796472-6f42-4616-9c6c-2e6b69636164,rev?*%
%TF.SameCoordinates,Original*%
%TF.FileFunction,Paste,Top*%
%TF.FilePolarity,Positive*%
%FSLAX46Y46*%
G04 Gerber Fmt 4.6, Leading zero omitted, Abs format (unit mm)*
G04 Created by KiCad (PCBNEW 8.0.6) date 2025-02-12 15:18:34*
%MOMM*%
%LPD*%
G01*
G04 APERTURE LIST*
G04 Aperture macros list*
%AMRoundRect*
0 Rectangle with rounded corners*
0 $1 Rounding radius*
0 $2 $3 $4 $5 $6 $7 $8 $9 X,Y pos of 4 corners*
0 Add a 4 corners polygon primitive as box body*
4,1,4,$2,$3,$4,$5,$6,$7,$8,$9,$2,$3,0*
0 Add four circle primitives for the rounded corners*
1,1,$1+$1,$2,$3*
1,1,$1+$1,$4,$5*
1,1,$1+$1,$6,$7*
1,1,$1+$1,$8,$9*
0 Add four rect primitives between the rounded corners*
20,1,$1+$1,$2,$3,$4,$5,0*
20,1,$1+$1,$4,$5,$6,$7,0*
20,1,$1+$1,$6,$7,$8,$9,0*
20,1,$1+$1,$8,$9,$2,$3,0*%
G04 Aperture macros list end*
%ADD10RoundRect,0.250000X1.400000X1.000000X-1.400000X1.000000X-1.400000X-1.000000X1.400000X-1.000000X0*%
%ADD11RoundRect,0.250000X-0.325000X-0.650000X0.325000X-0.650000X0.325000X0.650000X-0.325000X0.650000X0*%
%ADD12RoundRect,0.250000X0.312500X0.625000X-0.312500X0.625000X-0.312500X-0.625000X0.312500X-0.625000X0*%
%ADD13RoundRect,0.250000X-0.312500X-0.625000X0.312500X-0.625000X0.312500X0.625000X-0.312500X0.625000X0*%
%ADD14R,3.510000X2.540000*%
%ADD15RoundRect,0.250000X-1.425000X0.362500X-1.425000X-0.362500X1.425000X-0.362500X1.425000X0.362500X0*%
%ADD16RoundRect,0.250000X-0.650000X0.325000X-0.650000X-0.325000X0.650000X-0.325000X0.650000X0.325000X0*%
%ADD17RoundRect,0.250000X0.550000X-1.500000X0.550000X1.500000X-0.550000X1.500000X-0.550000X-1.500000X0*%
%ADD18RoundRect,0.250000X0.650000X-0.325000X0.650000X0.325000X-0.650000X0.325000X-0.650000X-0.325000X0*%
%ADD19RoundRect,0.250000X-0.375000X-0.625000X0.375000X-0.625000X0.375000X0.625000X-0.375000X0.625000X0*%
%ADD20RoundRect,0.150000X0.587500X0.150000X-0.587500X0.150000X-0.587500X-0.150000X0.587500X-0.150000X0*%
%ADD21RoundRect,0.250000X-0.625000X0.312500X-0.625000X-0.312500X0.625000X-0.312500X0.625000X0.312500X0*%
%ADD22RoundRect,0.250000X0.625000X-0.312500X0.625000X0.312500X-0.625000X0.312500X-0.625000X-0.312500X0*%
%ADD23RoundRect,0.011200X0.128800X-0.723800X0.128800X0.723800X-0.128800X0.723800X-0.128800X-0.723800X0*%
%ADD24R,0.700000X1.950000*%
%ADD25RoundRect,0.150000X0.150000X-0.587500X0.150000X0.587500X-0.150000X0.587500X-0.150000X-0.587500X0*%
%ADD26RoundRect,0.150000X-0.825000X-0.150000X0.825000X-0.150000X0.825000X0.150000X-0.825000X0.150000X0*%
%ADD27RoundRect,0.250000X-1.075000X0.375000X-1.075000X-0.375000X1.075000X-0.375000X1.075000X0.375000X0*%
%ADD28RoundRect,0.150000X-0.150000X0.587500X-0.150000X-0.587500X0.150000X-0.587500X0.150000X0.587500X0*%
G04 APERTURE END LIST*
D10*
%TO.C,D2*%
X123010000Y-111180000D03*
X123010000Y-104380000D03*
%TD*%
D11*
%TO.C,C6*%
X117675000Y-128400000D03*
X120625000Y-128400000D03*
%TD*%
D12*
%TO.C,R20*%
X171272500Y-66690000D03*
X168347500Y-66690000D03*
%TD*%
D13*
%TO.C,R3*%
X109415000Y-45750000D03*
X112340000Y-45750000D03*
%TD*%
D12*
%TO.C,R15*%
X130512500Y-126250000D03*
X127587500Y-126250000D03*
%TD*%
D14*
%TO.C,BT1*%
X109760000Y-60280000D03*
X109760000Y-89640000D03*
%TD*%
D15*
%TO.C,R10*%
X119225000Y-115062500D03*
X119225000Y-120987500D03*
%TD*%
D16*
%TO.C,C10*%
X127775000Y-119325000D03*
X127775000Y-122275000D03*
%TD*%
D17*
%TO.C,C13*%
X129460000Y-97120000D03*
X129460000Y-91520000D03*
%TD*%
D18*
%TO.C,C7*%
X130920000Y-109070000D03*
X130920000Y-106120000D03*
%TD*%
D19*
%TO.C,F1*%
X105840000Y-98680000D03*
X108640000Y-98680000D03*
%TD*%
D20*
%TO.C,Q2*%
X171087500Y-71292500D03*
X171087500Y-69392500D03*
X169212500Y-70342500D03*
%TD*%
D21*
%TO.C,R16*%
X132925000Y-119737500D03*
X132925000Y-122662500D03*
%TD*%
D22*
%TO.C,R12*%
X121175000Y-126212500D03*
X121175000Y-123287500D03*
%TD*%
D23*
%TO.C,U4*%
X118750000Y-135275000D03*
X119250000Y-135275000D03*
X119750000Y-135275000D03*
X120250000Y-135275000D03*
X120750000Y-135275000D03*
X120750000Y-130975000D03*
X120250000Y-130975000D03*
X119750000Y-130975000D03*
X119250000Y-130975000D03*
X118750000Y-130975000D03*
%TD*%
D21*
%TO.C,R11*%
X117475000Y-123200000D03*
X117475000Y-126125000D03*
%TD*%
D13*
%TO.C,R1*%
X163587500Y-92525000D03*
X166512500Y-92525000D03*
%TD*%
D24*
%TO.C,IC1*%
X161015000Y-66995000D03*
X159745000Y-66995000D03*
X158475000Y-66995000D03*
X157205000Y-66995000D03*
X157205000Y-71945000D03*
X158475000Y-71945000D03*
X159745000Y-71945000D03*
X161015000Y-71945000D03*
%TD*%
D12*
%TO.C,R21*%
X166085000Y-72070000D03*
X163160000Y-72070000D03*
%TD*%
D13*
%TO.C,R2*%
X163537500Y-90125000D03*
X166462500Y-90125000D03*
%TD*%
D25*
%TO.C,Q3*%
X140120000Y-69925000D03*
X142020000Y-69925000D03*
X141070000Y-68050000D03*
%TD*%
D11*
%TO.C,C12*%
X118250000Y-138150000D03*
X121200000Y-138150000D03*
%TD*%
D18*
%TO.C,C8*%
X114820000Y-109330000D03*
X114820000Y-106380000D03*
%TD*%
D26*
%TO.C,U8*%
X109900000Y-52960000D03*
X109900000Y-54230000D03*
X109900000Y-55500000D03*
X109900000Y-56770000D03*
X114850000Y-56770000D03*
X114850000Y-55500000D03*
X114850000Y-54230000D03*
X114850000Y-52960000D03*
%TD*%
D27*
%TO.C,L1*%
X113750000Y-117900000D03*
X113750000Y-120700000D03*
%TD*%
D22*
%TO.C,R23*%
X112550000Y-50750000D03*
X112550000Y-47825000D03*
%TD*%
D11*
%TO.C,C19*%
X163145000Y-66880000D03*
X166095000Y-66880000D03*
%TD*%
D21*
%TO.C,R17*%
X133100000Y-130362500D03*
X133100000Y-133287500D03*
%TD*%
D22*
%TO.C,R22*%
X114875000Y-50737500D03*
X114875000Y-47812500D03*
%TD*%
D28*
%TO.C,Q1*%
X145452500Y-68232500D03*
X143552500Y-68232500D03*
X144502500Y-70107500D03*
%TD*%
D11*
%TO.C,C17*%
X163095000Y-69570000D03*
X166045000Y-69570000D03*
%TD*%
D22*
%TO.C,R4*%
X109950000Y-50725000D03*
X109950000Y-47800000D03*
%TD*%
M02*
