M48
; DRILL file {KiCad 8.0.6} date 2025-02-12T15:18:32-0500
; FORMAT={-:-/ absolute / inch / decimal}
; #@! TF.CreationDate,2025-02-12T15:18:32-05:00
; #@! TF.GenerationSoftware,Kicad,Pcbnew,8.0.6
; #@! TF.FileFunction,Plated,1,4,PTH
FMAT,2
INCH
; #@! TA.AperFunction,Plated,PTH,ViaDrill
T1C0.0157
; #@! TA.AperFunction,Plated,PTH,ComponentDrill
T2C0.0300
; #@! TA.AperFunction,Plated,PTH,ComponentDrill
T3C0.0374
; #@! TA.AperFunction,Plated,PTH,ComponentDrill
T4C0.0394
; #@! TA.AperFunction,Plated,PTH,ComponentDrill
T5C0.0551
; #@! TA.AperFunction,Plated,PTH,ComponentDrill
T6C0.0591
; #@! TA.AperFunction,Plated,PTH,ComponentDrill
T7C0.1063
%
G90
G05
T1
X4.4213Y-2.0886
X4.5065Y-2.3228
X4.5098Y-2.4118
X4.5807Y-1.9252
X4.5807Y-1.998
X4.5937Y-2.2319
X4.811Y-5.1152
X4.8543Y-5.437
X4.9577Y-4.8169
X5.2431Y-2.4961
X5.2431Y-2.5728
X5.537Y-2.6028
X5.5457Y-2.8189
X5.5719Y-5.6752
X5.6086Y-3.7969
X5.6272Y-2.8244
X5.7215Y-5.6742
X5.7776Y-2.6831
X6.2224Y-1.8917
X6.3386Y-2.5559
X6.3827Y-2.9047
X6.4224Y-2.5606
X6.5689Y-1.875
X6.585Y-2.6303
X6.8024Y-2.7307
T2
X5.3407Y-4.1427
X5.3407Y-4.2427
X5.3407Y-4.3427
X5.3407Y-4.4427
X5.3407Y-4.5427
X5.3407Y-4.6427
X5.5598Y-3.7012
X5.6598Y-3.0012
X5.6598Y-3.7012
X5.7598Y-3.0012
X5.7598Y-3.7012
X5.8407Y-3.8427
X5.8407Y-5.4427
X5.8598Y-3.0012
X5.8598Y-3.7012
X5.9407Y-3.8427
X5.9407Y-5.4427
X5.9598Y-3.0012
X5.9598Y-3.7012
X6.0407Y-3.8427
X6.0407Y-5.4427
X6.0598Y-3.7012
X6.1407Y-3.8427
X6.1407Y-5.4427
X6.2407Y-3.8427
X6.2407Y-5.4427
X6.3407Y-3.8427
X6.3407Y-5.4427
X6.4407Y-3.8427
X6.4407Y-5.4427
X6.5407Y-3.8427
X6.5407Y-5.4427
X6.6407Y-3.8427
X6.6407Y-5.4427
X6.7407Y-5.4427
T3
X4.7146Y-2.0356
X4.7146Y-2.4205
X4.813Y-2.0356
X4.813Y-2.4205
X4.9114Y-2.0356
X4.9114Y-2.4205
X5.0098Y-2.0356
X5.0098Y-2.4205
X5.1083Y-2.0356
X5.1083Y-2.4205
X5.2067Y-2.0356
X5.3878Y-2.4185
X5.4675Y-2.0346
X5.4862Y-2.4185
X5.5659Y-2.0346
X5.5846Y-2.4185
X5.6644Y-2.0346
X5.6831Y-2.4185
X5.7628Y-2.0346
X5.7815Y-2.4185
X5.8612Y-2.0346
X5.9596Y-2.0346
X6.0581Y-2.0346
X6.0797Y-2.4215
X6.1781Y-2.4215
X6.2766Y-2.4215
X6.3248Y-2.0297
X6.375Y-2.4215
X6.4232Y-2.0297
X6.4734Y-2.4215
X6.5217Y-2.0297
X6.6201Y-2.0297
X6.7185Y-2.0297
X6.7559Y-2.9913
X6.7559Y-3.0898
X6.7559Y-3.1882
X6.7559Y-3.2866
X6.7559Y-3.385
T4
X4.0965Y-1.6919
X4.0965Y-1.7919
X4.0965Y-1.8919
X4.0965Y-1.9919
X4.0965Y-2.0919
X4.0965Y-2.1919
X4.1965Y-1.6919
X4.1965Y-1.7919
X4.1965Y-1.8919
X4.1965Y-1.9919
X4.1965Y-2.0919
X4.1965Y-2.1919
X4.5819Y-3.8622
X4.5819Y-3.9622
X4.6051Y-4.1543
X4.6051Y-4.3512
X4.6819Y-3.8622
X4.6819Y-3.9622
X4.7717Y-1.6618
X4.7717Y-1.7618
X4.7819Y-3.8622
X4.7819Y-3.9622
X4.8717Y-1.6618
X4.8717Y-1.7618
X4.8819Y-3.8622
X4.8819Y-3.9622
X4.9717Y-1.6618
X4.9717Y-1.7618
X5.0287Y-4.1445
X5.0287Y-4.3413
X5.0717Y-1.6618
X5.0717Y-1.7618
X5.1717Y-1.6618
X5.1717Y-1.7618
X5.2717Y-1.6618
X5.2717Y-1.7618
X5.3717Y-1.6618
X5.3717Y-1.7618
X5.4717Y-1.6618
X5.4717Y-1.7618
X5.5717Y-1.6618
X5.5717Y-1.7618
X5.6717Y-1.6618
X5.6717Y-1.7618
X5.7717Y-1.6618
X5.7717Y-1.7618
X5.8717Y-1.6618
X5.8717Y-1.7618
X5.9717Y-1.6618
X5.9717Y-1.7618
X6.0717Y-1.6618
X6.0717Y-1.7618
X6.1717Y-1.6618
X6.1717Y-1.7618
X6.2717Y-1.6618
X6.2717Y-1.7618
X6.3717Y-1.6618
X6.3717Y-1.7618
X6.4717Y-1.6618
X6.4717Y-1.7618
X6.5717Y-1.6618
X6.5717Y-1.7618
X6.6717Y-1.6618
X6.6717Y-1.7618
X6.724Y-2.4224
X6.8224Y-2.4224
T5
X4.2248Y-4.2063
X4.2248Y-4.4063
X4.2248Y-4.6063
X4.2248Y-4.8063
T6
X4.4368Y-4.8715
X4.4368Y-5.0715
X4.4368Y-5.3715
X5.2368Y-4.5715
X5.2368Y-4.9715
X5.2368Y-5.3715
T7
X4.5748Y-1.7118
X4.5748Y-3.6409
X4.5748Y-5.6449
X6.8583Y-1.7118
X6.8583Y-3.6409
X6.8583Y-5.6449
M30
