%TF.GenerationSoftware,KiCad,Pcbnew,8.0.6*%
%TF.CreationDate,2025-02-12T15:18:31-05:00*%
%TF.ProjectId,HydroBall,48796472-6f42-4616-9c6c-2e6b69636164,rev?*%
%TF.SameCoordinates,Original*%
%TF.FileFunction,Drillmap*%
%TF.FilePolarity,Positive*%
%FSLAX45Y45*%
G04 Gerber Fmt 4.5, Leading zero omitted, Abs format (unit mm)*
G04 Created by KiCad (PCBNEW 8.0.6) date 2025-02-12 15:18:31*
%MOMM*%
%LPD*%
G01*
G04 APERTURE LIST*
%ADD10C,0.200000*%
%ADD11C,0.120000*%
G04 APERTURE END LIST*
D10*
X10157500Y-4040000D02*
X17750000Y-4040000D01*
X17750000Y-14627500D01*
X10157500Y-14627500D01*
X10157500Y-4040000D01*
D11*
X11755000Y-5310500D02*
X11875000Y-5430500D01*
X11875000Y-5310500D02*
X11755000Y-5430500D01*
X11755000Y-6288000D02*
X11875000Y-6408000D01*
X11875000Y-6288000D02*
X11755000Y-6408000D01*
X13465000Y-6283000D02*
X13585000Y-6403000D01*
X13585000Y-6283000D02*
X13465000Y-6403000D01*
X13667500Y-5308000D02*
X13787500Y-5428000D01*
X13787500Y-5308000D02*
X13667500Y-5428000D01*
X15222500Y-6290500D02*
X15342500Y-6410500D01*
X15342500Y-6290500D02*
X15222500Y-6410500D01*
X15845000Y-5295500D02*
X15965000Y-5415500D01*
X15965000Y-5295500D02*
X15845000Y-5415500D01*
X16859000Y-6293000D02*
X16979000Y-6413000D01*
X16979000Y-6293000D02*
X16859000Y-6413000D01*
X17300000Y-8698000D02*
X17420000Y-8818000D01*
X17420000Y-8698000D02*
X17300000Y-8818000D01*
D10*
X10408277Y-14948984D02*
X10408277Y-14748984D01*
X10408277Y-14748984D02*
X10455896Y-14748984D01*
X10455896Y-14748984D02*
X10484467Y-14758508D01*
X10484467Y-14758508D02*
X10503515Y-14777555D01*
X10503515Y-14777555D02*
X10513039Y-14796603D01*
X10513039Y-14796603D02*
X10522563Y-14834698D01*
X10522563Y-14834698D02*
X10522563Y-14863269D01*
X10522563Y-14863269D02*
X10513039Y-14901365D01*
X10513039Y-14901365D02*
X10503515Y-14920412D01*
X10503515Y-14920412D02*
X10484467Y-14939460D01*
X10484467Y-14939460D02*
X10455896Y-14948984D01*
X10455896Y-14948984D02*
X10408277Y-14948984D01*
X10608277Y-14948984D02*
X10608277Y-14815650D01*
X10608277Y-14853746D02*
X10617801Y-14834698D01*
X10617801Y-14834698D02*
X10627324Y-14825174D01*
X10627324Y-14825174D02*
X10646372Y-14815650D01*
X10646372Y-14815650D02*
X10665420Y-14815650D01*
X10732086Y-14948984D02*
X10732086Y-14815650D01*
X10732086Y-14748984D02*
X10722563Y-14758508D01*
X10722563Y-14758508D02*
X10732086Y-14768031D01*
X10732086Y-14768031D02*
X10741610Y-14758508D01*
X10741610Y-14758508D02*
X10732086Y-14748984D01*
X10732086Y-14748984D02*
X10732086Y-14768031D01*
X10855896Y-14948984D02*
X10836848Y-14939460D01*
X10836848Y-14939460D02*
X10827324Y-14920412D01*
X10827324Y-14920412D02*
X10827324Y-14748984D01*
X10960658Y-14948984D02*
X10941610Y-14939460D01*
X10941610Y-14939460D02*
X10932086Y-14920412D01*
X10932086Y-14920412D02*
X10932086Y-14748984D01*
X11189229Y-14948984D02*
X11189229Y-14748984D01*
X11189229Y-14748984D02*
X11255896Y-14891841D01*
X11255896Y-14891841D02*
X11322562Y-14748984D01*
X11322562Y-14748984D02*
X11322562Y-14948984D01*
X11503515Y-14948984D02*
X11503515Y-14844222D01*
X11503515Y-14844222D02*
X11493991Y-14825174D01*
X11493991Y-14825174D02*
X11474943Y-14815650D01*
X11474943Y-14815650D02*
X11436848Y-14815650D01*
X11436848Y-14815650D02*
X11417801Y-14825174D01*
X11503515Y-14939460D02*
X11484467Y-14948984D01*
X11484467Y-14948984D02*
X11436848Y-14948984D01*
X11436848Y-14948984D02*
X11417801Y-14939460D01*
X11417801Y-14939460D02*
X11408277Y-14920412D01*
X11408277Y-14920412D02*
X11408277Y-14901365D01*
X11408277Y-14901365D02*
X11417801Y-14882317D01*
X11417801Y-14882317D02*
X11436848Y-14872793D01*
X11436848Y-14872793D02*
X11484467Y-14872793D01*
X11484467Y-14872793D02*
X11503515Y-14863269D01*
X11598753Y-14815650D02*
X11598753Y-15015650D01*
X11598753Y-14825174D02*
X11617801Y-14815650D01*
X11617801Y-14815650D02*
X11655896Y-14815650D01*
X11655896Y-14815650D02*
X11674943Y-14825174D01*
X11674943Y-14825174D02*
X11684467Y-14834698D01*
X11684467Y-14834698D02*
X11693991Y-14853746D01*
X11693991Y-14853746D02*
X11693991Y-14910888D01*
X11693991Y-14910888D02*
X11684467Y-14929936D01*
X11684467Y-14929936D02*
X11674943Y-14939460D01*
X11674943Y-14939460D02*
X11655896Y-14948984D01*
X11655896Y-14948984D02*
X11617801Y-14948984D01*
X11617801Y-14948984D02*
X11598753Y-14939460D01*
X11779705Y-14929936D02*
X11789229Y-14939460D01*
X11789229Y-14939460D02*
X11779705Y-14948984D01*
X11779705Y-14948984D02*
X11770182Y-14939460D01*
X11770182Y-14939460D02*
X11779705Y-14929936D01*
X11779705Y-14929936D02*
X11779705Y-14948984D01*
X11779705Y-14825174D02*
X11789229Y-14834698D01*
X11789229Y-14834698D02*
X11779705Y-14844222D01*
X11779705Y-14844222D02*
X11770182Y-14834698D01*
X11770182Y-14834698D02*
X11779705Y-14825174D01*
X11779705Y-14825174D02*
X11779705Y-14844222D01*
D11*
X10027500Y-15217500D02*
X10147500Y-15337500D01*
X10147500Y-15217500D02*
X10027500Y-15337500D01*
D10*
X10513039Y-15368984D02*
X10398753Y-15368984D01*
X10455896Y-15368984D02*
X10455896Y-15168984D01*
X10455896Y-15168984D02*
X10436848Y-15197555D01*
X10436848Y-15197555D02*
X10417801Y-15216603D01*
X10417801Y-15216603D02*
X10398753Y-15226127D01*
X10598753Y-15349936D02*
X10608277Y-15359460D01*
X10608277Y-15359460D02*
X10598753Y-15368984D01*
X10598753Y-15368984D02*
X10589229Y-15359460D01*
X10589229Y-15359460D02*
X10598753Y-15349936D01*
X10598753Y-15349936D02*
X10598753Y-15368984D01*
X10684467Y-15188031D02*
X10693991Y-15178508D01*
X10693991Y-15178508D02*
X10713039Y-15168984D01*
X10713039Y-15168984D02*
X10760658Y-15168984D01*
X10760658Y-15168984D02*
X10779705Y-15178508D01*
X10779705Y-15178508D02*
X10789229Y-15188031D01*
X10789229Y-15188031D02*
X10798753Y-15207079D01*
X10798753Y-15207079D02*
X10798753Y-15226127D01*
X10798753Y-15226127D02*
X10789229Y-15254698D01*
X10789229Y-15254698D02*
X10674944Y-15368984D01*
X10674944Y-15368984D02*
X10798753Y-15368984D01*
X10922563Y-15168984D02*
X10941610Y-15168984D01*
X10941610Y-15168984D02*
X10960658Y-15178508D01*
X10960658Y-15178508D02*
X10970182Y-15188031D01*
X10970182Y-15188031D02*
X10979705Y-15207079D01*
X10979705Y-15207079D02*
X10989229Y-15245174D01*
X10989229Y-15245174D02*
X10989229Y-15292793D01*
X10989229Y-15292793D02*
X10979705Y-15330888D01*
X10979705Y-15330888D02*
X10970182Y-15349936D01*
X10970182Y-15349936D02*
X10960658Y-15359460D01*
X10960658Y-15359460D02*
X10941610Y-15368984D01*
X10941610Y-15368984D02*
X10922563Y-15368984D01*
X10922563Y-15368984D02*
X10903515Y-15359460D01*
X10903515Y-15359460D02*
X10893991Y-15349936D01*
X10893991Y-15349936D02*
X10884467Y-15330888D01*
X10884467Y-15330888D02*
X10874944Y-15292793D01*
X10874944Y-15292793D02*
X10874944Y-15245174D01*
X10874944Y-15245174D02*
X10884467Y-15207079D01*
X10884467Y-15207079D02*
X10893991Y-15188031D01*
X10893991Y-15188031D02*
X10903515Y-15178508D01*
X10903515Y-15178508D02*
X10922563Y-15168984D01*
X11113039Y-15168984D02*
X11132086Y-15168984D01*
X11132086Y-15168984D02*
X11151134Y-15178508D01*
X11151134Y-15178508D02*
X11160658Y-15188031D01*
X11160658Y-15188031D02*
X11170182Y-15207079D01*
X11170182Y-15207079D02*
X11179705Y-15245174D01*
X11179705Y-15245174D02*
X11179705Y-15292793D01*
X11179705Y-15292793D02*
X11170182Y-15330888D01*
X11170182Y-15330888D02*
X11160658Y-15349936D01*
X11160658Y-15349936D02*
X11151134Y-15359460D01*
X11151134Y-15359460D02*
X11132086Y-15368984D01*
X11132086Y-15368984D02*
X11113039Y-15368984D01*
X11113039Y-15368984D02*
X11093991Y-15359460D01*
X11093991Y-15359460D02*
X11084467Y-15349936D01*
X11084467Y-15349936D02*
X11074944Y-15330888D01*
X11074944Y-15330888D02*
X11065420Y-15292793D01*
X11065420Y-15292793D02*
X11065420Y-15245174D01*
X11065420Y-15245174D02*
X11074944Y-15207079D01*
X11074944Y-15207079D02*
X11084467Y-15188031D01*
X11084467Y-15188031D02*
X11093991Y-15178508D01*
X11093991Y-15178508D02*
X11113039Y-15168984D01*
X11265420Y-15368984D02*
X11265420Y-15235650D01*
X11265420Y-15254698D02*
X11274943Y-15245174D01*
X11274943Y-15245174D02*
X11293991Y-15235650D01*
X11293991Y-15235650D02*
X11322563Y-15235650D01*
X11322563Y-15235650D02*
X11341610Y-15245174D01*
X11341610Y-15245174D02*
X11351134Y-15264222D01*
X11351134Y-15264222D02*
X11351134Y-15368984D01*
X11351134Y-15264222D02*
X11360658Y-15245174D01*
X11360658Y-15245174D02*
X11379705Y-15235650D01*
X11379705Y-15235650D02*
X11408277Y-15235650D01*
X11408277Y-15235650D02*
X11427324Y-15245174D01*
X11427324Y-15245174D02*
X11436848Y-15264222D01*
X11436848Y-15264222D02*
X11436848Y-15368984D01*
X11532086Y-15368984D02*
X11532086Y-15235650D01*
X11532086Y-15254698D02*
X11541610Y-15245174D01*
X11541610Y-15245174D02*
X11560658Y-15235650D01*
X11560658Y-15235650D02*
X11589229Y-15235650D01*
X11589229Y-15235650D02*
X11608277Y-15245174D01*
X11608277Y-15245174D02*
X11617801Y-15264222D01*
X11617801Y-15264222D02*
X11617801Y-15368984D01*
X11617801Y-15264222D02*
X11627324Y-15245174D01*
X11627324Y-15245174D02*
X11646372Y-15235650D01*
X11646372Y-15235650D02*
X11674943Y-15235650D01*
X11674943Y-15235650D02*
X11693991Y-15245174D01*
X11693991Y-15245174D02*
X11703515Y-15264222D01*
X11703515Y-15264222D02*
X11703515Y-15368984D01*
X12093991Y-15159460D02*
X11922563Y-15416603D01*
X12351134Y-15168984D02*
X12370182Y-15168984D01*
X12370182Y-15168984D02*
X12389229Y-15178508D01*
X12389229Y-15178508D02*
X12398753Y-15188031D01*
X12398753Y-15188031D02*
X12408277Y-15207079D01*
X12408277Y-15207079D02*
X12417801Y-15245174D01*
X12417801Y-15245174D02*
X12417801Y-15292793D01*
X12417801Y-15292793D02*
X12408277Y-15330888D01*
X12408277Y-15330888D02*
X12398753Y-15349936D01*
X12398753Y-15349936D02*
X12389229Y-15359460D01*
X12389229Y-15359460D02*
X12370182Y-15368984D01*
X12370182Y-15368984D02*
X12351134Y-15368984D01*
X12351134Y-15368984D02*
X12332086Y-15359460D01*
X12332086Y-15359460D02*
X12322563Y-15349936D01*
X12322563Y-15349936D02*
X12313039Y-15330888D01*
X12313039Y-15330888D02*
X12303515Y-15292793D01*
X12303515Y-15292793D02*
X12303515Y-15245174D01*
X12303515Y-15245174D02*
X12313039Y-15207079D01*
X12313039Y-15207079D02*
X12322563Y-15188031D01*
X12322563Y-15188031D02*
X12332086Y-15178508D01*
X12332086Y-15178508D02*
X12351134Y-15168984D01*
X12503515Y-15349936D02*
X12513039Y-15359460D01*
X12513039Y-15359460D02*
X12503515Y-15368984D01*
X12503515Y-15368984D02*
X12493991Y-15359460D01*
X12493991Y-15359460D02*
X12503515Y-15349936D01*
X12503515Y-15349936D02*
X12503515Y-15368984D01*
X12636848Y-15168984D02*
X12655896Y-15168984D01*
X12655896Y-15168984D02*
X12674944Y-15178508D01*
X12674944Y-15178508D02*
X12684467Y-15188031D01*
X12684467Y-15188031D02*
X12693991Y-15207079D01*
X12693991Y-15207079D02*
X12703515Y-15245174D01*
X12703515Y-15245174D02*
X12703515Y-15292793D01*
X12703515Y-15292793D02*
X12693991Y-15330888D01*
X12693991Y-15330888D02*
X12684467Y-15349936D01*
X12684467Y-15349936D02*
X12674944Y-15359460D01*
X12674944Y-15359460D02*
X12655896Y-15368984D01*
X12655896Y-15368984D02*
X12636848Y-15368984D01*
X12636848Y-15368984D02*
X12617801Y-15359460D01*
X12617801Y-15359460D02*
X12608277Y-15349936D01*
X12608277Y-15349936D02*
X12598753Y-15330888D01*
X12598753Y-15330888D02*
X12589229Y-15292793D01*
X12589229Y-15292793D02*
X12589229Y-15245174D01*
X12589229Y-15245174D02*
X12598753Y-15207079D01*
X12598753Y-15207079D02*
X12608277Y-15188031D01*
X12608277Y-15188031D02*
X12617801Y-15178508D01*
X12617801Y-15178508D02*
X12636848Y-15168984D01*
X12874944Y-15235650D02*
X12874944Y-15368984D01*
X12827325Y-15159460D02*
X12779706Y-15302317D01*
X12779706Y-15302317D02*
X12903515Y-15302317D01*
X12960658Y-15168984D02*
X13093991Y-15168984D01*
X13093991Y-15168984D02*
X13008277Y-15368984D01*
X13160658Y-15188031D02*
X13170182Y-15178508D01*
X13170182Y-15178508D02*
X13189229Y-15168984D01*
X13189229Y-15168984D02*
X13236848Y-15168984D01*
X13236848Y-15168984D02*
X13255896Y-15178508D01*
X13255896Y-15178508D02*
X13265420Y-15188031D01*
X13265420Y-15188031D02*
X13274944Y-15207079D01*
X13274944Y-15207079D02*
X13274944Y-15226127D01*
X13274944Y-15226127D02*
X13265420Y-15254698D01*
X13265420Y-15254698D02*
X13151134Y-15368984D01*
X13151134Y-15368984D02*
X13274944Y-15368984D01*
X13351134Y-15168984D02*
X13351134Y-15207079D01*
X13427325Y-15168984D02*
X13427325Y-15207079D01*
X13722563Y-15445174D02*
X13713039Y-15435650D01*
X13713039Y-15435650D02*
X13693991Y-15407079D01*
X13693991Y-15407079D02*
X13684468Y-15388031D01*
X13684468Y-15388031D02*
X13674944Y-15359460D01*
X13674944Y-15359460D02*
X13665420Y-15311841D01*
X13665420Y-15311841D02*
X13665420Y-15273746D01*
X13665420Y-15273746D02*
X13674944Y-15226127D01*
X13674944Y-15226127D02*
X13684468Y-15197555D01*
X13684468Y-15197555D02*
X13693991Y-15178508D01*
X13693991Y-15178508D02*
X13713039Y-15149936D01*
X13713039Y-15149936D02*
X13722563Y-15140412D01*
X13827325Y-15254698D02*
X13808277Y-15245174D01*
X13808277Y-15245174D02*
X13798753Y-15235650D01*
X13798753Y-15235650D02*
X13789229Y-15216603D01*
X13789229Y-15216603D02*
X13789229Y-15207079D01*
X13789229Y-15207079D02*
X13798753Y-15188031D01*
X13798753Y-15188031D02*
X13808277Y-15178508D01*
X13808277Y-15178508D02*
X13827325Y-15168984D01*
X13827325Y-15168984D02*
X13865420Y-15168984D01*
X13865420Y-15168984D02*
X13884468Y-15178508D01*
X13884468Y-15178508D02*
X13893991Y-15188031D01*
X13893991Y-15188031D02*
X13903515Y-15207079D01*
X13903515Y-15207079D02*
X13903515Y-15216603D01*
X13903515Y-15216603D02*
X13893991Y-15235650D01*
X13893991Y-15235650D02*
X13884468Y-15245174D01*
X13884468Y-15245174D02*
X13865420Y-15254698D01*
X13865420Y-15254698D02*
X13827325Y-15254698D01*
X13827325Y-15254698D02*
X13808277Y-15264222D01*
X13808277Y-15264222D02*
X13798753Y-15273746D01*
X13798753Y-15273746D02*
X13789229Y-15292793D01*
X13789229Y-15292793D02*
X13789229Y-15330888D01*
X13789229Y-15330888D02*
X13798753Y-15349936D01*
X13798753Y-15349936D02*
X13808277Y-15359460D01*
X13808277Y-15359460D02*
X13827325Y-15368984D01*
X13827325Y-15368984D02*
X13865420Y-15368984D01*
X13865420Y-15368984D02*
X13884468Y-15359460D01*
X13884468Y-15359460D02*
X13893991Y-15349936D01*
X13893991Y-15349936D02*
X13903515Y-15330888D01*
X13903515Y-15330888D02*
X13903515Y-15292793D01*
X13903515Y-15292793D02*
X13893991Y-15273746D01*
X13893991Y-15273746D02*
X13884468Y-15264222D01*
X13884468Y-15264222D02*
X13865420Y-15254698D01*
X14141610Y-15368984D02*
X14141610Y-15168984D01*
X14227325Y-15368984D02*
X14227325Y-15264222D01*
X14227325Y-15264222D02*
X14217801Y-15245174D01*
X14217801Y-15245174D02*
X14198753Y-15235650D01*
X14198753Y-15235650D02*
X14170182Y-15235650D01*
X14170182Y-15235650D02*
X14151134Y-15245174D01*
X14151134Y-15245174D02*
X14141610Y-15254698D01*
X14351134Y-15368984D02*
X14332087Y-15359460D01*
X14332087Y-15359460D02*
X14322563Y-15349936D01*
X14322563Y-15349936D02*
X14313039Y-15330888D01*
X14313039Y-15330888D02*
X14313039Y-15273746D01*
X14313039Y-15273746D02*
X14322563Y-15254698D01*
X14322563Y-15254698D02*
X14332087Y-15245174D01*
X14332087Y-15245174D02*
X14351134Y-15235650D01*
X14351134Y-15235650D02*
X14379706Y-15235650D01*
X14379706Y-15235650D02*
X14398753Y-15245174D01*
X14398753Y-15245174D02*
X14408277Y-15254698D01*
X14408277Y-15254698D02*
X14417801Y-15273746D01*
X14417801Y-15273746D02*
X14417801Y-15330888D01*
X14417801Y-15330888D02*
X14408277Y-15349936D01*
X14408277Y-15349936D02*
X14398753Y-15359460D01*
X14398753Y-15359460D02*
X14379706Y-15368984D01*
X14379706Y-15368984D02*
X14351134Y-15368984D01*
X14532087Y-15368984D02*
X14513039Y-15359460D01*
X14513039Y-15359460D02*
X14503515Y-15340412D01*
X14503515Y-15340412D02*
X14503515Y-15168984D01*
X14684468Y-15359460D02*
X14665420Y-15368984D01*
X14665420Y-15368984D02*
X14627325Y-15368984D01*
X14627325Y-15368984D02*
X14608277Y-15359460D01*
X14608277Y-15359460D02*
X14598753Y-15340412D01*
X14598753Y-15340412D02*
X14598753Y-15264222D01*
X14598753Y-15264222D02*
X14608277Y-15245174D01*
X14608277Y-15245174D02*
X14627325Y-15235650D01*
X14627325Y-15235650D02*
X14665420Y-15235650D01*
X14665420Y-15235650D02*
X14684468Y-15245174D01*
X14684468Y-15245174D02*
X14693991Y-15264222D01*
X14693991Y-15264222D02*
X14693991Y-15283269D01*
X14693991Y-15283269D02*
X14598753Y-15302317D01*
X14770182Y-15359460D02*
X14789230Y-15368984D01*
X14789230Y-15368984D02*
X14827325Y-15368984D01*
X14827325Y-15368984D02*
X14846372Y-15359460D01*
X14846372Y-15359460D02*
X14855896Y-15340412D01*
X14855896Y-15340412D02*
X14855896Y-15330888D01*
X14855896Y-15330888D02*
X14846372Y-15311841D01*
X14846372Y-15311841D02*
X14827325Y-15302317D01*
X14827325Y-15302317D02*
X14798753Y-15302317D01*
X14798753Y-15302317D02*
X14779706Y-15292793D01*
X14779706Y-15292793D02*
X14770182Y-15273746D01*
X14770182Y-15273746D02*
X14770182Y-15264222D01*
X14770182Y-15264222D02*
X14779706Y-15245174D01*
X14779706Y-15245174D02*
X14798753Y-15235650D01*
X14798753Y-15235650D02*
X14827325Y-15235650D01*
X14827325Y-15235650D02*
X14846372Y-15245174D01*
X14922563Y-15445174D02*
X14932087Y-15435650D01*
X14932087Y-15435650D02*
X14951134Y-15407079D01*
X14951134Y-15407079D02*
X14960658Y-15388031D01*
X14960658Y-15388031D02*
X14970182Y-15359460D01*
X14970182Y-15359460D02*
X14979706Y-15311841D01*
X14979706Y-15311841D02*
X14979706Y-15273746D01*
X14979706Y-15273746D02*
X14970182Y-15226127D01*
X14970182Y-15226127D02*
X14960658Y-15197555D01*
X14960658Y-15197555D02*
X14951134Y-15178508D01*
X14951134Y-15178508D02*
X14932087Y-15149936D01*
X14932087Y-15149936D02*
X14922563Y-15140412D01*
X15284468Y-15445174D02*
X15274944Y-15435650D01*
X15274944Y-15435650D02*
X15255896Y-15407079D01*
X15255896Y-15407079D02*
X15246372Y-15388031D01*
X15246372Y-15388031D02*
X15236849Y-15359460D01*
X15236849Y-15359460D02*
X15227325Y-15311841D01*
X15227325Y-15311841D02*
X15227325Y-15273746D01*
X15227325Y-15273746D02*
X15236849Y-15226127D01*
X15236849Y-15226127D02*
X15246372Y-15197555D01*
X15246372Y-15197555D02*
X15255896Y-15178508D01*
X15255896Y-15178508D02*
X15274944Y-15149936D01*
X15274944Y-15149936D02*
X15284468Y-15140412D01*
X15360658Y-15235650D02*
X15360658Y-15368984D01*
X15360658Y-15254698D02*
X15370182Y-15245174D01*
X15370182Y-15245174D02*
X15389230Y-15235650D01*
X15389230Y-15235650D02*
X15417801Y-15235650D01*
X15417801Y-15235650D02*
X15436849Y-15245174D01*
X15436849Y-15245174D02*
X15446372Y-15264222D01*
X15446372Y-15264222D02*
X15446372Y-15368984D01*
X15570182Y-15368984D02*
X15551134Y-15359460D01*
X15551134Y-15359460D02*
X15541611Y-15349936D01*
X15541611Y-15349936D02*
X15532087Y-15330888D01*
X15532087Y-15330888D02*
X15532087Y-15273746D01*
X15532087Y-15273746D02*
X15541611Y-15254698D01*
X15541611Y-15254698D02*
X15551134Y-15245174D01*
X15551134Y-15245174D02*
X15570182Y-15235650D01*
X15570182Y-15235650D02*
X15598753Y-15235650D01*
X15598753Y-15235650D02*
X15617801Y-15245174D01*
X15617801Y-15245174D02*
X15627325Y-15254698D01*
X15627325Y-15254698D02*
X15636849Y-15273746D01*
X15636849Y-15273746D02*
X15636849Y-15330888D01*
X15636849Y-15330888D02*
X15627325Y-15349936D01*
X15627325Y-15349936D02*
X15617801Y-15359460D01*
X15617801Y-15359460D02*
X15598753Y-15368984D01*
X15598753Y-15368984D02*
X15570182Y-15368984D01*
X15693992Y-15235650D02*
X15770182Y-15235650D01*
X15722563Y-15168984D02*
X15722563Y-15340412D01*
X15722563Y-15340412D02*
X15732087Y-15359460D01*
X15732087Y-15359460D02*
X15751134Y-15368984D01*
X15751134Y-15368984D02*
X15770182Y-15368984D01*
X15989230Y-15235650D02*
X15989230Y-15435650D01*
X15989230Y-15245174D02*
X16008277Y-15235650D01*
X16008277Y-15235650D02*
X16046373Y-15235650D01*
X16046373Y-15235650D02*
X16065420Y-15245174D01*
X16065420Y-15245174D02*
X16074944Y-15254698D01*
X16074944Y-15254698D02*
X16084468Y-15273746D01*
X16084468Y-15273746D02*
X16084468Y-15330888D01*
X16084468Y-15330888D02*
X16074944Y-15349936D01*
X16074944Y-15349936D02*
X16065420Y-15359460D01*
X16065420Y-15359460D02*
X16046373Y-15368984D01*
X16046373Y-15368984D02*
X16008277Y-15368984D01*
X16008277Y-15368984D02*
X15989230Y-15359460D01*
X16198753Y-15368984D02*
X16179706Y-15359460D01*
X16179706Y-15359460D02*
X16170182Y-15340412D01*
X16170182Y-15340412D02*
X16170182Y-15168984D01*
X16360658Y-15368984D02*
X16360658Y-15264222D01*
X16360658Y-15264222D02*
X16351134Y-15245174D01*
X16351134Y-15245174D02*
X16332087Y-15235650D01*
X16332087Y-15235650D02*
X16293992Y-15235650D01*
X16293992Y-15235650D02*
X16274944Y-15245174D01*
X16360658Y-15359460D02*
X16341611Y-15368984D01*
X16341611Y-15368984D02*
X16293992Y-15368984D01*
X16293992Y-15368984D02*
X16274944Y-15359460D01*
X16274944Y-15359460D02*
X16265420Y-15340412D01*
X16265420Y-15340412D02*
X16265420Y-15321365D01*
X16265420Y-15321365D02*
X16274944Y-15302317D01*
X16274944Y-15302317D02*
X16293992Y-15292793D01*
X16293992Y-15292793D02*
X16341611Y-15292793D01*
X16341611Y-15292793D02*
X16360658Y-15283269D01*
X16427325Y-15235650D02*
X16503515Y-15235650D01*
X16455896Y-15168984D02*
X16455896Y-15340412D01*
X16455896Y-15340412D02*
X16465420Y-15359460D01*
X16465420Y-15359460D02*
X16484468Y-15368984D01*
X16484468Y-15368984D02*
X16503515Y-15368984D01*
X16646373Y-15359460D02*
X16627325Y-15368984D01*
X16627325Y-15368984D02*
X16589230Y-15368984D01*
X16589230Y-15368984D02*
X16570182Y-15359460D01*
X16570182Y-15359460D02*
X16560658Y-15340412D01*
X16560658Y-15340412D02*
X16560658Y-15264222D01*
X16560658Y-15264222D02*
X16570182Y-15245174D01*
X16570182Y-15245174D02*
X16589230Y-15235650D01*
X16589230Y-15235650D02*
X16627325Y-15235650D01*
X16627325Y-15235650D02*
X16646373Y-15245174D01*
X16646373Y-15245174D02*
X16655896Y-15264222D01*
X16655896Y-15264222D02*
X16655896Y-15283269D01*
X16655896Y-15283269D02*
X16560658Y-15302317D01*
X16827325Y-15368984D02*
X16827325Y-15168984D01*
X16827325Y-15359460D02*
X16808277Y-15368984D01*
X16808277Y-15368984D02*
X16770182Y-15368984D01*
X16770182Y-15368984D02*
X16751134Y-15359460D01*
X16751134Y-15359460D02*
X16741611Y-15349936D01*
X16741611Y-15349936D02*
X16732087Y-15330888D01*
X16732087Y-15330888D02*
X16732087Y-15273746D01*
X16732087Y-15273746D02*
X16741611Y-15254698D01*
X16741611Y-15254698D02*
X16751134Y-15245174D01*
X16751134Y-15245174D02*
X16770182Y-15235650D01*
X16770182Y-15235650D02*
X16808277Y-15235650D01*
X16808277Y-15235650D02*
X16827325Y-15245174D01*
X16903516Y-15445174D02*
X16913039Y-15435650D01*
X16913039Y-15435650D02*
X16932087Y-15407079D01*
X16932087Y-15407079D02*
X16941611Y-15388031D01*
X16941611Y-15388031D02*
X16951135Y-15359460D01*
X16951135Y-15359460D02*
X16960658Y-15311841D01*
X16960658Y-15311841D02*
X16960658Y-15273746D01*
X16960658Y-15273746D02*
X16951135Y-15226127D01*
X16951135Y-15226127D02*
X16941611Y-15197555D01*
X16941611Y-15197555D02*
X16932087Y-15178508D01*
X16932087Y-15178508D02*
X16913039Y-15149936D01*
X16913039Y-15149936D02*
X16903516Y-15140412D01*
M02*
