%TF.GenerationSoftware,KiCad,Pcbnew,8.0.6*%
%TF.CreationDate,2025-02-12T12:21:41-05:00*%
%TF.ProjectId,prog,70726f67-2e6b-4696-9361-645f70636258,rev?*%
%TF.SameCoordinates,Original*%
%TF.FileFunction,Legend,Top*%
%TF.FilePolarity,Positive*%
%FSLAX46Y46*%
G04 Gerber Fmt 4.6, Leading zero omitted, Abs format (unit mm)*
G04 Created by KiCad (PCBNEW 8.0.6) date 2025-02-12 12:21:41*
%MOMM*%
%LPD*%
G01*
G04 APERTURE LIST*
%ADD10C,0.150000*%
%ADD11C,0.300000*%
%ADD12C,0.010000*%
%ADD13C,0.120000*%
G04 APERTURE END LIST*
D10*
X102836779Y-61149931D02*
X102836779Y-60149931D01*
X102836779Y-60149931D02*
X103217731Y-60149931D01*
X103217731Y-60149931D02*
X103312969Y-60197550D01*
X103312969Y-60197550D02*
X103360588Y-60245169D01*
X103360588Y-60245169D02*
X103408207Y-60340407D01*
X103408207Y-60340407D02*
X103408207Y-60483264D01*
X103408207Y-60483264D02*
X103360588Y-60578502D01*
X103360588Y-60578502D02*
X103312969Y-60626121D01*
X103312969Y-60626121D02*
X103217731Y-60673740D01*
X103217731Y-60673740D02*
X102836779Y-60673740D01*
X103836779Y-61149931D02*
X103836779Y-60149931D01*
X103836779Y-60149931D02*
X104408207Y-61149931D01*
X104408207Y-61149931D02*
X104408207Y-60149931D01*
X104884398Y-61054692D02*
X104932017Y-61102312D01*
X104932017Y-61102312D02*
X104884398Y-61149931D01*
X104884398Y-61149931D02*
X104836779Y-61102312D01*
X104836779Y-61102312D02*
X104884398Y-61054692D01*
X104884398Y-61054692D02*
X104884398Y-61149931D01*
X104884398Y-60530883D02*
X104932017Y-60578502D01*
X104932017Y-60578502D02*
X104884398Y-60626121D01*
X104884398Y-60626121D02*
X104836779Y-60578502D01*
X104836779Y-60578502D02*
X104884398Y-60530883D01*
X104884398Y-60530883D02*
X104884398Y-60626121D01*
X106122493Y-61149931D02*
X106122493Y-60149931D01*
X106122493Y-60626121D02*
X106693921Y-60626121D01*
X106693921Y-61149931D02*
X106693921Y-60149931D01*
X107503445Y-60626121D02*
X107646302Y-60673740D01*
X107646302Y-60673740D02*
X107693921Y-60721359D01*
X107693921Y-60721359D02*
X107741540Y-60816597D01*
X107741540Y-60816597D02*
X107741540Y-60959454D01*
X107741540Y-60959454D02*
X107693921Y-61054692D01*
X107693921Y-61054692D02*
X107646302Y-61102312D01*
X107646302Y-61102312D02*
X107551064Y-61149931D01*
X107551064Y-61149931D02*
X107170112Y-61149931D01*
X107170112Y-61149931D02*
X107170112Y-60149931D01*
X107170112Y-60149931D02*
X107503445Y-60149931D01*
X107503445Y-60149931D02*
X107598683Y-60197550D01*
X107598683Y-60197550D02*
X107646302Y-60245169D01*
X107646302Y-60245169D02*
X107693921Y-60340407D01*
X107693921Y-60340407D02*
X107693921Y-60435645D01*
X107693921Y-60435645D02*
X107646302Y-60530883D01*
X107646302Y-60530883D02*
X107598683Y-60578502D01*
X107598683Y-60578502D02*
X107503445Y-60626121D01*
X107503445Y-60626121D02*
X107170112Y-60626121D01*
X108170112Y-60768978D02*
X108932017Y-60768978D01*
X109408207Y-61149931D02*
X109408207Y-60149931D01*
X109408207Y-60149931D02*
X109789159Y-60149931D01*
X109789159Y-60149931D02*
X109884397Y-60197550D01*
X109884397Y-60197550D02*
X109932016Y-60245169D01*
X109932016Y-60245169D02*
X109979635Y-60340407D01*
X109979635Y-60340407D02*
X109979635Y-60483264D01*
X109979635Y-60483264D02*
X109932016Y-60578502D01*
X109932016Y-60578502D02*
X109884397Y-60626121D01*
X109884397Y-60626121D02*
X109789159Y-60673740D01*
X109789159Y-60673740D02*
X109408207Y-60673740D01*
X110408207Y-61149931D02*
X110408207Y-60149931D01*
X110408207Y-60149931D02*
X110741540Y-60864216D01*
X110741540Y-60864216D02*
X111074873Y-60149931D01*
X111074873Y-60149931D02*
X111074873Y-61149931D01*
X111551064Y-60768978D02*
X112312969Y-60768978D01*
X112789159Y-61149931D02*
X112789159Y-60149931D01*
X112789159Y-60149931D02*
X113170111Y-60149931D01*
X113170111Y-60149931D02*
X113265349Y-60197550D01*
X113265349Y-60197550D02*
X113312968Y-60245169D01*
X113312968Y-60245169D02*
X113360587Y-60340407D01*
X113360587Y-60340407D02*
X113360587Y-60483264D01*
X113360587Y-60483264D02*
X113312968Y-60578502D01*
X113312968Y-60578502D02*
X113265349Y-60626121D01*
X113265349Y-60626121D02*
X113170111Y-60673740D01*
X113170111Y-60673740D02*
X112789159Y-60673740D01*
X113789159Y-61149931D02*
X113789159Y-60483264D01*
X113789159Y-60673740D02*
X113836778Y-60578502D01*
X113836778Y-60578502D02*
X113884397Y-60530883D01*
X113884397Y-60530883D02*
X113979635Y-60483264D01*
X113979635Y-60483264D02*
X114074873Y-60483264D01*
X114551064Y-61149931D02*
X114455826Y-61102312D01*
X114455826Y-61102312D02*
X114408207Y-61054692D01*
X114408207Y-61054692D02*
X114360588Y-60959454D01*
X114360588Y-60959454D02*
X114360588Y-60673740D01*
X114360588Y-60673740D02*
X114408207Y-60578502D01*
X114408207Y-60578502D02*
X114455826Y-60530883D01*
X114455826Y-60530883D02*
X114551064Y-60483264D01*
X114551064Y-60483264D02*
X114693921Y-60483264D01*
X114693921Y-60483264D02*
X114789159Y-60530883D01*
X114789159Y-60530883D02*
X114836778Y-60578502D01*
X114836778Y-60578502D02*
X114884397Y-60673740D01*
X114884397Y-60673740D02*
X114884397Y-60959454D01*
X114884397Y-60959454D02*
X114836778Y-61054692D01*
X114836778Y-61054692D02*
X114789159Y-61102312D01*
X114789159Y-61102312D02*
X114693921Y-61149931D01*
X114693921Y-61149931D02*
X114551064Y-61149931D01*
X115741540Y-60483264D02*
X115741540Y-61292788D01*
X115741540Y-61292788D02*
X115693921Y-61388026D01*
X115693921Y-61388026D02*
X115646302Y-61435645D01*
X115646302Y-61435645D02*
X115551064Y-61483264D01*
X115551064Y-61483264D02*
X115408207Y-61483264D01*
X115408207Y-61483264D02*
X115312969Y-61435645D01*
X115741540Y-61102312D02*
X115646302Y-61149931D01*
X115646302Y-61149931D02*
X115455826Y-61149931D01*
X115455826Y-61149931D02*
X115360588Y-61102312D01*
X115360588Y-61102312D02*
X115312969Y-61054692D01*
X115312969Y-61054692D02*
X115265350Y-60959454D01*
X115265350Y-60959454D02*
X115265350Y-60673740D01*
X115265350Y-60673740D02*
X115312969Y-60578502D01*
X115312969Y-60578502D02*
X115360588Y-60530883D01*
X115360588Y-60530883D02*
X115455826Y-60483264D01*
X115455826Y-60483264D02*
X115646302Y-60483264D01*
X115646302Y-60483264D02*
X115741540Y-60530883D01*
X103408207Y-62759875D02*
X103074874Y-62283684D01*
X102836779Y-62759875D02*
X102836779Y-61759875D01*
X102836779Y-61759875D02*
X103217731Y-61759875D01*
X103217731Y-61759875D02*
X103312969Y-61807494D01*
X103312969Y-61807494D02*
X103360588Y-61855113D01*
X103360588Y-61855113D02*
X103408207Y-61950351D01*
X103408207Y-61950351D02*
X103408207Y-62093208D01*
X103408207Y-62093208D02*
X103360588Y-62188446D01*
X103360588Y-62188446D02*
X103312969Y-62236065D01*
X103312969Y-62236065D02*
X103217731Y-62283684D01*
X103217731Y-62283684D02*
X102836779Y-62283684D01*
X104217731Y-62712256D02*
X104122493Y-62759875D01*
X104122493Y-62759875D02*
X103932017Y-62759875D01*
X103932017Y-62759875D02*
X103836779Y-62712256D01*
X103836779Y-62712256D02*
X103789160Y-62617017D01*
X103789160Y-62617017D02*
X103789160Y-62236065D01*
X103789160Y-62236065D02*
X103836779Y-62140827D01*
X103836779Y-62140827D02*
X103932017Y-62093208D01*
X103932017Y-62093208D02*
X104122493Y-62093208D01*
X104122493Y-62093208D02*
X104217731Y-62140827D01*
X104217731Y-62140827D02*
X104265350Y-62236065D01*
X104265350Y-62236065D02*
X104265350Y-62331303D01*
X104265350Y-62331303D02*
X103789160Y-62426541D01*
X104598684Y-62093208D02*
X104836779Y-62759875D01*
X104836779Y-62759875D02*
X105074874Y-62093208D01*
X105455827Y-62664636D02*
X105503446Y-62712256D01*
X105503446Y-62712256D02*
X105455827Y-62759875D01*
X105455827Y-62759875D02*
X105408208Y-62712256D01*
X105408208Y-62712256D02*
X105455827Y-62664636D01*
X105455827Y-62664636D02*
X105455827Y-62759875D01*
X106455826Y-62759875D02*
X105884398Y-62759875D01*
X106170112Y-62759875D02*
X106170112Y-61759875D01*
X106170112Y-61759875D02*
X106074874Y-61902732D01*
X106074874Y-61902732D02*
X105979636Y-61997970D01*
X105979636Y-61997970D02*
X105884398Y-62045589D01*
X106884398Y-62664636D02*
X106932017Y-62712256D01*
X106932017Y-62712256D02*
X106884398Y-62759875D01*
X106884398Y-62759875D02*
X106836779Y-62712256D01*
X106836779Y-62712256D02*
X106884398Y-62664636D01*
X106884398Y-62664636D02*
X106884398Y-62759875D01*
X107551064Y-61759875D02*
X107646302Y-61759875D01*
X107646302Y-61759875D02*
X107741540Y-61807494D01*
X107741540Y-61807494D02*
X107789159Y-61855113D01*
X107789159Y-61855113D02*
X107836778Y-61950351D01*
X107836778Y-61950351D02*
X107884397Y-62140827D01*
X107884397Y-62140827D02*
X107884397Y-62378922D01*
X107884397Y-62378922D02*
X107836778Y-62569398D01*
X107836778Y-62569398D02*
X107789159Y-62664636D01*
X107789159Y-62664636D02*
X107741540Y-62712256D01*
X107741540Y-62712256D02*
X107646302Y-62759875D01*
X107646302Y-62759875D02*
X107551064Y-62759875D01*
X107551064Y-62759875D02*
X107455826Y-62712256D01*
X107455826Y-62712256D02*
X107408207Y-62664636D01*
X107408207Y-62664636D02*
X107360588Y-62569398D01*
X107360588Y-62569398D02*
X107312969Y-62378922D01*
X107312969Y-62378922D02*
X107312969Y-62140827D01*
X107312969Y-62140827D02*
X107360588Y-61950351D01*
X107360588Y-61950351D02*
X107408207Y-61855113D01*
X107408207Y-61855113D02*
X107455826Y-61807494D01*
X107455826Y-61807494D02*
X107551064Y-61759875D01*
X103360588Y-64369819D02*
X102789160Y-64369819D01*
X103074874Y-64369819D02*
X103074874Y-63369819D01*
X103074874Y-63369819D02*
X102979636Y-63512676D01*
X102979636Y-63512676D02*
X102884398Y-63607914D01*
X102884398Y-63607914D02*
X102789160Y-63655533D01*
X104312969Y-64369819D02*
X103741541Y-64369819D01*
X104027255Y-64369819D02*
X104027255Y-63369819D01*
X104027255Y-63369819D02*
X103932017Y-63512676D01*
X103932017Y-63512676D02*
X103836779Y-63607914D01*
X103836779Y-63607914D02*
X103741541Y-63655533D01*
X104932017Y-63369819D02*
X105027255Y-63369819D01*
X105027255Y-63369819D02*
X105122493Y-63417438D01*
X105122493Y-63417438D02*
X105170112Y-63465057D01*
X105170112Y-63465057D02*
X105217731Y-63560295D01*
X105217731Y-63560295D02*
X105265350Y-63750771D01*
X105265350Y-63750771D02*
X105265350Y-63988866D01*
X105265350Y-63988866D02*
X105217731Y-64179342D01*
X105217731Y-64179342D02*
X105170112Y-64274580D01*
X105170112Y-64274580D02*
X105122493Y-64322200D01*
X105122493Y-64322200D02*
X105027255Y-64369819D01*
X105027255Y-64369819D02*
X104932017Y-64369819D01*
X104932017Y-64369819D02*
X104836779Y-64322200D01*
X104836779Y-64322200D02*
X104789160Y-64274580D01*
X104789160Y-64274580D02*
X104741541Y-64179342D01*
X104741541Y-64179342D02*
X104693922Y-63988866D01*
X104693922Y-63988866D02*
X104693922Y-63750771D01*
X104693922Y-63750771D02*
X104741541Y-63560295D01*
X104741541Y-63560295D02*
X104789160Y-63465057D01*
X104789160Y-63465057D02*
X104836779Y-63417438D01*
X104836779Y-63417438D02*
X104932017Y-63369819D01*
X105646303Y-63465057D02*
X105693922Y-63417438D01*
X105693922Y-63417438D02*
X105789160Y-63369819D01*
X105789160Y-63369819D02*
X106027255Y-63369819D01*
X106027255Y-63369819D02*
X106122493Y-63417438D01*
X106122493Y-63417438D02*
X106170112Y-63465057D01*
X106170112Y-63465057D02*
X106217731Y-63560295D01*
X106217731Y-63560295D02*
X106217731Y-63655533D01*
X106217731Y-63655533D02*
X106170112Y-63798390D01*
X106170112Y-63798390D02*
X105598684Y-64369819D01*
X105598684Y-64369819D02*
X106217731Y-64369819D01*
X106598684Y-63465057D02*
X106646303Y-63417438D01*
X106646303Y-63417438D02*
X106741541Y-63369819D01*
X106741541Y-63369819D02*
X106979636Y-63369819D01*
X106979636Y-63369819D02*
X107074874Y-63417438D01*
X107074874Y-63417438D02*
X107122493Y-63465057D01*
X107122493Y-63465057D02*
X107170112Y-63560295D01*
X107170112Y-63560295D02*
X107170112Y-63655533D01*
X107170112Y-63655533D02*
X107122493Y-63798390D01*
X107122493Y-63798390D02*
X106551065Y-64369819D01*
X106551065Y-64369819D02*
X107170112Y-64369819D01*
X107789160Y-63369819D02*
X107884398Y-63369819D01*
X107884398Y-63369819D02*
X107979636Y-63417438D01*
X107979636Y-63417438D02*
X108027255Y-63465057D01*
X108027255Y-63465057D02*
X108074874Y-63560295D01*
X108074874Y-63560295D02*
X108122493Y-63750771D01*
X108122493Y-63750771D02*
X108122493Y-63988866D01*
X108122493Y-63988866D02*
X108074874Y-64179342D01*
X108074874Y-64179342D02*
X108027255Y-64274580D01*
X108027255Y-64274580D02*
X107979636Y-64322200D01*
X107979636Y-64322200D02*
X107884398Y-64369819D01*
X107884398Y-64369819D02*
X107789160Y-64369819D01*
X107789160Y-64369819D02*
X107693922Y-64322200D01*
X107693922Y-64322200D02*
X107646303Y-64274580D01*
X107646303Y-64274580D02*
X107598684Y-64179342D01*
X107598684Y-64179342D02*
X107551065Y-63988866D01*
X107551065Y-63988866D02*
X107551065Y-63750771D01*
X107551065Y-63750771D02*
X107598684Y-63560295D01*
X107598684Y-63560295D02*
X107646303Y-63465057D01*
X107646303Y-63465057D02*
X107693922Y-63417438D01*
X107693922Y-63417438D02*
X107789160Y-63369819D01*
X108503446Y-63465057D02*
X108551065Y-63417438D01*
X108551065Y-63417438D02*
X108646303Y-63369819D01*
X108646303Y-63369819D02*
X108884398Y-63369819D01*
X108884398Y-63369819D02*
X108979636Y-63417438D01*
X108979636Y-63417438D02*
X109027255Y-63465057D01*
X109027255Y-63465057D02*
X109074874Y-63560295D01*
X109074874Y-63560295D02*
X109074874Y-63655533D01*
X109074874Y-63655533D02*
X109027255Y-63798390D01*
X109027255Y-63798390D02*
X108455827Y-64369819D01*
X108455827Y-64369819D02*
X109074874Y-64369819D01*
X109979636Y-63369819D02*
X109503446Y-63369819D01*
X109503446Y-63369819D02*
X109455827Y-63846009D01*
X109455827Y-63846009D02*
X109503446Y-63798390D01*
X109503446Y-63798390D02*
X109598684Y-63750771D01*
X109598684Y-63750771D02*
X109836779Y-63750771D01*
X109836779Y-63750771D02*
X109932017Y-63798390D01*
X109932017Y-63798390D02*
X109979636Y-63846009D01*
X109979636Y-63846009D02*
X110027255Y-63941247D01*
X110027255Y-63941247D02*
X110027255Y-64179342D01*
X110027255Y-64179342D02*
X109979636Y-64274580D01*
X109979636Y-64274580D02*
X109932017Y-64322200D01*
X109932017Y-64322200D02*
X109836779Y-64369819D01*
X109836779Y-64369819D02*
X109598684Y-64369819D01*
X109598684Y-64369819D02*
X109503446Y-64322200D01*
X109503446Y-64322200D02*
X109455827Y-64274580D01*
X110455827Y-64369819D02*
X110455827Y-63369819D01*
X110455827Y-63369819D02*
X110693922Y-63369819D01*
X110693922Y-63369819D02*
X110836779Y-63417438D01*
X110836779Y-63417438D02*
X110932017Y-63512676D01*
X110932017Y-63512676D02*
X110979636Y-63607914D01*
X110979636Y-63607914D02*
X111027255Y-63798390D01*
X111027255Y-63798390D02*
X111027255Y-63941247D01*
X111027255Y-63941247D02*
X110979636Y-64131723D01*
X110979636Y-64131723D02*
X110932017Y-64226961D01*
X110932017Y-64226961D02*
X110836779Y-64322200D01*
X110836779Y-64322200D02*
X110693922Y-64369819D01*
X110693922Y-64369819D02*
X110455827Y-64369819D01*
X111455827Y-64369819D02*
X111455827Y-63369819D01*
X111455827Y-63369819D02*
X111693922Y-63369819D01*
X111693922Y-63369819D02*
X111836779Y-63417438D01*
X111836779Y-63417438D02*
X111932017Y-63512676D01*
X111932017Y-63512676D02*
X111979636Y-63607914D01*
X111979636Y-63607914D02*
X112027255Y-63798390D01*
X112027255Y-63798390D02*
X112027255Y-63941247D01*
X112027255Y-63941247D02*
X111979636Y-64131723D01*
X111979636Y-64131723D02*
X111932017Y-64226961D01*
X111932017Y-64226961D02*
X111836779Y-64322200D01*
X111836779Y-64322200D02*
X111693922Y-64369819D01*
X111693922Y-64369819D02*
X111455827Y-64369819D01*
D11*
X122304510Y-82937971D02*
X122375939Y-83009400D01*
X122375939Y-83009400D02*
X122304510Y-83080828D01*
X122304510Y-83080828D02*
X122233082Y-83009400D01*
X122233082Y-83009400D02*
X122304510Y-82937971D01*
X122304510Y-82937971D02*
X122304510Y-83080828D01*
X123875939Y-82937971D02*
X123804511Y-83009400D01*
X123804511Y-83009400D02*
X123590225Y-83080828D01*
X123590225Y-83080828D02*
X123447368Y-83080828D01*
X123447368Y-83080828D02*
X123233082Y-83009400D01*
X123233082Y-83009400D02*
X123090225Y-82866542D01*
X123090225Y-82866542D02*
X123018796Y-82723685D01*
X123018796Y-82723685D02*
X122947368Y-82437971D01*
X122947368Y-82437971D02*
X122947368Y-82223685D01*
X122947368Y-82223685D02*
X123018796Y-81937971D01*
X123018796Y-81937971D02*
X123090225Y-81795114D01*
X123090225Y-81795114D02*
X123233082Y-81652257D01*
X123233082Y-81652257D02*
X123447368Y-81580828D01*
X123447368Y-81580828D02*
X123590225Y-81580828D01*
X123590225Y-81580828D02*
X123804511Y-81652257D01*
X123804511Y-81652257D02*
X123875939Y-81723685D01*
X124447368Y-82652257D02*
X125161654Y-82652257D01*
X124304511Y-83080828D02*
X124804511Y-81580828D01*
X124804511Y-81580828D02*
X125304511Y-83080828D01*
D10*
X125784819Y-100179523D02*
X126499104Y-100179523D01*
X126499104Y-100179523D02*
X126641961Y-100227142D01*
X126641961Y-100227142D02*
X126737200Y-100322380D01*
X126737200Y-100322380D02*
X126784819Y-100465237D01*
X126784819Y-100465237D02*
X126784819Y-100560475D01*
X126784819Y-99179523D02*
X126784819Y-99750951D01*
X126784819Y-99465237D02*
X125784819Y-99465237D01*
X125784819Y-99465237D02*
X125927676Y-99560475D01*
X125927676Y-99560475D02*
X126022914Y-99655713D01*
X126022914Y-99655713D02*
X126070533Y-99750951D01*
X126118152Y-98322380D02*
X126784819Y-98322380D01*
X125737200Y-98560475D02*
X126451485Y-98798570D01*
X126451485Y-98798570D02*
X126451485Y-98179523D01*
X132801666Y-63754819D02*
X132801666Y-64469104D01*
X132801666Y-64469104D02*
X132754047Y-64611961D01*
X132754047Y-64611961D02*
X132658809Y-64707200D01*
X132658809Y-64707200D02*
X132515952Y-64754819D01*
X132515952Y-64754819D02*
X132420714Y-64754819D01*
X133801666Y-64754819D02*
X133230238Y-64754819D01*
X133515952Y-64754819D02*
X133515952Y-63754819D01*
X133515952Y-63754819D02*
X133420714Y-63897676D01*
X133420714Y-63897676D02*
X133325476Y-63992914D01*
X133325476Y-63992914D02*
X133230238Y-64040533D01*
X128356666Y-40534819D02*
X128356666Y-41249104D01*
X128356666Y-41249104D02*
X128309047Y-41391961D01*
X128309047Y-41391961D02*
X128213809Y-41487200D01*
X128213809Y-41487200D02*
X128070952Y-41534819D01*
X128070952Y-41534819D02*
X127975714Y-41534819D01*
X128785238Y-40630057D02*
X128832857Y-40582438D01*
X128832857Y-40582438D02*
X128928095Y-40534819D01*
X128928095Y-40534819D02*
X129166190Y-40534819D01*
X129166190Y-40534819D02*
X129261428Y-40582438D01*
X129261428Y-40582438D02*
X129309047Y-40630057D01*
X129309047Y-40630057D02*
X129356666Y-40725295D01*
X129356666Y-40725295D02*
X129356666Y-40820533D01*
X129356666Y-40820533D02*
X129309047Y-40963390D01*
X129309047Y-40963390D02*
X128737619Y-41534819D01*
X128737619Y-41534819D02*
X129356666Y-41534819D01*
X108965476Y-41304819D02*
X108965476Y-42019104D01*
X108965476Y-42019104D02*
X108917857Y-42161961D01*
X108917857Y-42161961D02*
X108822619Y-42257200D01*
X108822619Y-42257200D02*
X108679762Y-42304819D01*
X108679762Y-42304819D02*
X108584524Y-42304819D01*
X109965476Y-42304819D02*
X109394048Y-42304819D01*
X109679762Y-42304819D02*
X109679762Y-41304819D01*
X109679762Y-41304819D02*
X109584524Y-41447676D01*
X109584524Y-41447676D02*
X109489286Y-41542914D01*
X109489286Y-41542914D02*
X109394048Y-41590533D01*
X110917857Y-42304819D02*
X110346429Y-42304819D01*
X110632143Y-42304819D02*
X110632143Y-41304819D01*
X110632143Y-41304819D02*
X110536905Y-41447676D01*
X110536905Y-41447676D02*
X110441667Y-41542914D01*
X110441667Y-41542914D02*
X110346429Y-41590533D01*
X127724819Y-93666666D02*
X127248628Y-93999999D01*
X127724819Y-94238094D02*
X126724819Y-94238094D01*
X126724819Y-94238094D02*
X126724819Y-93857142D01*
X126724819Y-93857142D02*
X126772438Y-93761904D01*
X126772438Y-93761904D02*
X126820057Y-93714285D01*
X126820057Y-93714285D02*
X126915295Y-93666666D01*
X126915295Y-93666666D02*
X127058152Y-93666666D01*
X127058152Y-93666666D02*
X127153390Y-93714285D01*
X127153390Y-93714285D02*
X127201009Y-93761904D01*
X127201009Y-93761904D02*
X127248628Y-93857142D01*
X127248628Y-93857142D02*
X127248628Y-94238094D01*
X127724819Y-92714285D02*
X127724819Y-93285713D01*
X127724819Y-92999999D02*
X126724819Y-92999999D01*
X126724819Y-92999999D02*
X126867676Y-93095237D01*
X126867676Y-93095237D02*
X126962914Y-93190475D01*
X126962914Y-93190475D02*
X127010533Y-93285713D01*
X115438095Y-89684819D02*
X115438095Y-88684819D01*
X115438095Y-89161009D02*
X116009523Y-89161009D01*
X116009523Y-89684819D02*
X116009523Y-88684819D01*
X116961904Y-88684819D02*
X116485714Y-88684819D01*
X116485714Y-88684819D02*
X116438095Y-89161009D01*
X116438095Y-89161009D02*
X116485714Y-89113390D01*
X116485714Y-89113390D02*
X116580952Y-89065771D01*
X116580952Y-89065771D02*
X116819047Y-89065771D01*
X116819047Y-89065771D02*
X116914285Y-89113390D01*
X116914285Y-89113390D02*
X116961904Y-89161009D01*
X116961904Y-89161009D02*
X117009523Y-89256247D01*
X117009523Y-89256247D02*
X117009523Y-89494342D01*
X117009523Y-89494342D02*
X116961904Y-89589580D01*
X116961904Y-89589580D02*
X116914285Y-89637200D01*
X116914285Y-89637200D02*
X116819047Y-89684819D01*
X116819047Y-89684819D02*
X116580952Y-89684819D01*
X116580952Y-89684819D02*
X116485714Y-89637200D01*
X116485714Y-89637200D02*
X116438095Y-89589580D01*
X132876666Y-86784819D02*
X132876666Y-87499104D01*
X132876666Y-87499104D02*
X132829047Y-87641961D01*
X132829047Y-87641961D02*
X132733809Y-87737200D01*
X132733809Y-87737200D02*
X132590952Y-87784819D01*
X132590952Y-87784819D02*
X132495714Y-87784819D01*
X133257619Y-86784819D02*
X133876666Y-86784819D01*
X133876666Y-86784819D02*
X133543333Y-87165771D01*
X133543333Y-87165771D02*
X133686190Y-87165771D01*
X133686190Y-87165771D02*
X133781428Y-87213390D01*
X133781428Y-87213390D02*
X133829047Y-87261009D01*
X133829047Y-87261009D02*
X133876666Y-87356247D01*
X133876666Y-87356247D02*
X133876666Y-87594342D01*
X133876666Y-87594342D02*
X133829047Y-87689580D01*
X133829047Y-87689580D02*
X133781428Y-87737200D01*
X133781428Y-87737200D02*
X133686190Y-87784819D01*
X133686190Y-87784819D02*
X133400476Y-87784819D01*
X133400476Y-87784819D02*
X133305238Y-87737200D01*
X133305238Y-87737200D02*
X133257619Y-87689580D01*
D12*
%TO.C,logo1*%
X110092400Y-82873200D02*
X109076400Y-82873200D01*
X109076400Y-76370800D01*
X110092400Y-76370800D01*
X110092400Y-82873200D01*
G36*
X110092400Y-82873200D02*
G01*
X109076400Y-82873200D01*
X109076400Y-76370800D01*
X110092400Y-76370800D01*
X110092400Y-82873200D01*
G37*
X111160234Y-72036364D02*
X111229798Y-72091867D01*
X111618862Y-72368741D01*
X112065716Y-72576353D01*
X112552257Y-72712986D01*
X113060380Y-72776927D01*
X113571983Y-72766458D01*
X114068962Y-72679866D01*
X114533212Y-72515435D01*
X114715200Y-72422116D01*
X114899694Y-72306757D01*
X115092833Y-72170395D01*
X115156314Y-72121149D01*
X115304696Y-72019280D01*
X115392620Y-71991492D01*
X115415176Y-72026799D01*
X115367456Y-72114213D01*
X115244553Y-72242747D01*
X115220197Y-72264147D01*
X114851817Y-72520274D01*
X114416550Y-72720155D01*
X113935582Y-72858197D01*
X113430099Y-72928811D01*
X112921284Y-72926406D01*
X112770733Y-72910555D01*
X112365833Y-72829700D01*
X111965570Y-72698473D01*
X111595528Y-72528243D01*
X111281294Y-72330378D01*
X111091534Y-72164327D01*
X111004410Y-72049706D01*
X110995756Y-71985489D01*
X111052166Y-71978700D01*
X111160234Y-72036364D01*
G36*
X111160234Y-72036364D02*
G01*
X111229798Y-72091867D01*
X111618862Y-72368741D01*
X112065716Y-72576353D01*
X112552257Y-72712986D01*
X113060380Y-72776927D01*
X113571983Y-72766458D01*
X114068962Y-72679866D01*
X114533212Y-72515435D01*
X114715200Y-72422116D01*
X114899694Y-72306757D01*
X115092833Y-72170395D01*
X115156314Y-72121149D01*
X115304696Y-72019280D01*
X115392620Y-71991492D01*
X115415176Y-72026799D01*
X115367456Y-72114213D01*
X115244553Y-72242747D01*
X115220197Y-72264147D01*
X114851817Y-72520274D01*
X114416550Y-72720155D01*
X113935582Y-72858197D01*
X113430099Y-72928811D01*
X112921284Y-72926406D01*
X112770733Y-72910555D01*
X112365833Y-72829700D01*
X111965570Y-72698473D01*
X111595528Y-72528243D01*
X111281294Y-72330378D01*
X111091534Y-72164327D01*
X111004410Y-72049706D01*
X110995756Y-71985489D01*
X111052166Y-71978700D01*
X111160234Y-72036364D01*
G37*
X111586006Y-71544050D02*
X111705319Y-71627829D01*
X112060449Y-71875131D01*
X112412669Y-72043675D01*
X112797749Y-72148648D01*
X113009065Y-72181456D01*
X113382585Y-72184862D01*
X113782269Y-72113941D01*
X114176854Y-71978177D01*
X114535076Y-71787055D01*
X114695565Y-71669794D01*
X114824396Y-71577024D01*
X114914947Y-71536809D01*
X114943412Y-71544173D01*
X114959236Y-71594412D01*
X114933447Y-71649792D01*
X114853001Y-71723997D01*
X114704851Y-71830711D01*
X114607834Y-71896180D01*
X114181789Y-72126018D01*
X113730884Y-72260042D01*
X113242778Y-72301869D01*
X113223948Y-72301697D01*
X112999497Y-72293517D01*
X112788517Y-72276628D01*
X112632198Y-72254461D01*
X112617082Y-72251147D01*
X112307278Y-72146377D01*
X111987724Y-71985061D01*
X111708061Y-71793085D01*
X111659589Y-71751783D01*
X111533701Y-71624148D01*
X111481922Y-71540348D01*
X111500581Y-71510332D01*
X111586006Y-71544050D01*
G36*
X111586006Y-71544050D02*
G01*
X111705319Y-71627829D01*
X112060449Y-71875131D01*
X112412669Y-72043675D01*
X112797749Y-72148648D01*
X113009065Y-72181456D01*
X113382585Y-72184862D01*
X113782269Y-72113941D01*
X114176854Y-71978177D01*
X114535076Y-71787055D01*
X114695565Y-71669794D01*
X114824396Y-71577024D01*
X114914947Y-71536809D01*
X114943412Y-71544173D01*
X114959236Y-71594412D01*
X114933447Y-71649792D01*
X114853001Y-71723997D01*
X114704851Y-71830711D01*
X114607834Y-71896180D01*
X114181789Y-72126018D01*
X113730884Y-72260042D01*
X113242778Y-72301869D01*
X113223948Y-72301697D01*
X112999497Y-72293517D01*
X112788517Y-72276628D01*
X112632198Y-72254461D01*
X112617082Y-72251147D01*
X112307278Y-72146377D01*
X111987724Y-71985061D01*
X111708061Y-71793085D01*
X111659589Y-71751783D01*
X111533701Y-71624148D01*
X111481922Y-71540348D01*
X111500581Y-71510332D01*
X111586006Y-71544050D01*
G37*
X110672338Y-72491758D02*
X110784364Y-72576920D01*
X110913301Y-72690462D01*
X111159452Y-72880625D01*
X111474263Y-73064579D01*
X111825249Y-73226534D01*
X112179925Y-73350699D01*
X112369021Y-73398042D01*
X112813002Y-73459092D01*
X113288547Y-73470930D01*
X113751775Y-73434186D01*
X114071066Y-73373536D01*
X114420861Y-73261601D01*
X114780527Y-73105258D01*
X115116810Y-72921389D01*
X115396455Y-72726872D01*
X115470920Y-72662967D01*
X115625331Y-72529883D01*
X115722310Y-72469386D01*
X115771210Y-72477499D01*
X115782000Y-72530692D01*
X115740699Y-72616893D01*
X115629057Y-72737670D01*
X115465461Y-72878107D01*
X115268300Y-73023286D01*
X115055960Y-73158290D01*
X114910861Y-73237386D01*
X114463353Y-73429236D01*
X114008633Y-73552770D01*
X113516512Y-73614611D01*
X113144973Y-73624802D01*
X112731597Y-73610288D01*
X112389824Y-73569202D01*
X112182393Y-73524099D01*
X111764597Y-73387668D01*
X111365375Y-73206963D01*
X111015245Y-72997268D01*
X110810848Y-72837069D01*
X110654581Y-72681780D01*
X110566658Y-72561320D01*
X110551704Y-72484299D01*
X110607831Y-72459200D01*
X110672338Y-72491758D01*
G36*
X110672338Y-72491758D02*
G01*
X110784364Y-72576920D01*
X110913301Y-72690462D01*
X111159452Y-72880625D01*
X111474263Y-73064579D01*
X111825249Y-73226534D01*
X112179925Y-73350699D01*
X112369021Y-73398042D01*
X112813002Y-73459092D01*
X113288547Y-73470930D01*
X113751775Y-73434186D01*
X114071066Y-73373536D01*
X114420861Y-73261601D01*
X114780527Y-73105258D01*
X115116810Y-72921389D01*
X115396455Y-72726872D01*
X115470920Y-72662967D01*
X115625331Y-72529883D01*
X115722310Y-72469386D01*
X115771210Y-72477499D01*
X115782000Y-72530692D01*
X115740699Y-72616893D01*
X115629057Y-72737670D01*
X115465461Y-72878107D01*
X115268300Y-73023286D01*
X115055960Y-73158290D01*
X114910861Y-73237386D01*
X114463353Y-73429236D01*
X114008633Y-73552770D01*
X113516512Y-73614611D01*
X113144973Y-73624802D01*
X112731597Y-73610288D01*
X112389824Y-73569202D01*
X112182393Y-73524099D01*
X111764597Y-73387668D01*
X111365375Y-73206963D01*
X111015245Y-72997268D01*
X110810848Y-72837069D01*
X110654581Y-72681780D01*
X110566658Y-72561320D01*
X110551704Y-72484299D01*
X110607831Y-72459200D01*
X110672338Y-72491758D01*
G37*
X107241566Y-70353776D02*
X107561769Y-70412190D01*
X107860937Y-70503551D01*
X108116603Y-70625540D01*
X108231851Y-70705919D01*
X108538833Y-70949695D01*
X108792665Y-71131587D01*
X109013281Y-71260287D01*
X109220617Y-71344490D01*
X109434607Y-71392888D01*
X109675184Y-71414175D01*
X109863800Y-71417600D01*
X110087003Y-71413394D01*
X110286408Y-71402005D01*
X110429136Y-71385576D01*
X110460700Y-71378732D01*
X110569208Y-71365458D01*
X110596330Y-71400646D01*
X110541876Y-71471687D01*
X110462982Y-71530897D01*
X110324232Y-71583727D01*
X110112151Y-71619936D01*
X109853710Y-71639098D01*
X109575879Y-71640784D01*
X109305630Y-71624568D01*
X109069932Y-71590022D01*
X108940788Y-71555007D01*
X108759657Y-71472312D01*
X108551724Y-71350838D01*
X108388372Y-71236490D01*
X108154897Y-71056999D01*
X107978990Y-70928381D01*
X107839189Y-70837663D01*
X107714029Y-70771872D01*
X107582045Y-70718034D01*
X107461666Y-70676363D01*
X107285549Y-70624596D01*
X107118004Y-70594569D01*
X106925066Y-70582794D01*
X106672770Y-70585778D01*
X106603474Y-70588159D01*
X106069710Y-70607917D01*
X106199797Y-70496021D01*
X106379446Y-70399433D01*
X106627936Y-70345077D01*
X106922799Y-70330631D01*
X107241566Y-70353776D01*
G36*
X107241566Y-70353776D02*
G01*
X107561769Y-70412190D01*
X107860937Y-70503551D01*
X108116603Y-70625540D01*
X108231851Y-70705919D01*
X108538833Y-70949695D01*
X108792665Y-71131587D01*
X109013281Y-71260287D01*
X109220617Y-71344490D01*
X109434607Y-71392888D01*
X109675184Y-71414175D01*
X109863800Y-71417600D01*
X110087003Y-71413394D01*
X110286408Y-71402005D01*
X110429136Y-71385576D01*
X110460700Y-71378732D01*
X110569208Y-71365458D01*
X110596330Y-71400646D01*
X110541876Y-71471687D01*
X110462982Y-71530897D01*
X110324232Y-71583727D01*
X110112151Y-71619936D01*
X109853710Y-71639098D01*
X109575879Y-71640784D01*
X109305630Y-71624568D01*
X109069932Y-71590022D01*
X108940788Y-71555007D01*
X108759657Y-71472312D01*
X108551724Y-71350838D01*
X108388372Y-71236490D01*
X108154897Y-71056999D01*
X107978990Y-70928381D01*
X107839189Y-70837663D01*
X107714029Y-70771872D01*
X107582045Y-70718034D01*
X107461666Y-70676363D01*
X107285549Y-70624596D01*
X107118004Y-70594569D01*
X106925066Y-70582794D01*
X106672770Y-70585778D01*
X106603474Y-70588159D01*
X106069710Y-70607917D01*
X106199797Y-70496021D01*
X106379446Y-70399433D01*
X106627936Y-70345077D01*
X106922799Y-70330631D01*
X107241566Y-70353776D01*
G37*
X119742108Y-70356541D02*
X119965430Y-70381629D01*
X120118557Y-70425644D01*
X120121648Y-70427200D01*
X120234935Y-70492980D01*
X120276114Y-70540976D01*
X120239021Y-70573672D01*
X120117493Y-70593556D01*
X119905368Y-70603113D01*
X119680846Y-70605000D01*
X119414540Y-70606436D01*
X119223179Y-70613710D01*
X119080114Y-70631270D01*
X118958699Y-70663563D01*
X118832288Y-70715038D01*
X118728400Y-70763977D01*
X118506731Y-70887674D01*
X118272649Y-71044321D01*
X118118919Y-71164875D01*
X117889972Y-71348593D01*
X117680733Y-71476194D01*
X117462205Y-71558037D01*
X117205393Y-71604478D01*
X116881301Y-71625872D01*
X116823400Y-71627607D01*
X116578145Y-71629425D01*
X116355481Y-71622634D01*
X116184262Y-71608573D01*
X116108068Y-71594404D01*
X115962216Y-71523834D01*
X115854068Y-71435992D01*
X115789780Y-71358883D01*
X115799719Y-71340095D01*
X115883600Y-71359921D01*
X116179619Y-71412430D01*
X116519116Y-71430300D01*
X116849480Y-71411893D01*
X116968941Y-71393694D01*
X117169301Y-71344431D01*
X117364139Y-71268638D01*
X117573233Y-71155592D01*
X117816361Y-70994573D01*
X118113301Y-70774861D01*
X118119969Y-70769760D01*
X118335562Y-70624653D01*
X118563630Y-70502844D01*
X118721749Y-70440141D01*
X118938412Y-70392180D01*
X119199855Y-70362082D01*
X119477335Y-70350114D01*
X119742108Y-70356541D01*
G36*
X119742108Y-70356541D02*
G01*
X119965430Y-70381629D01*
X120118557Y-70425644D01*
X120121648Y-70427200D01*
X120234935Y-70492980D01*
X120276114Y-70540976D01*
X120239021Y-70573672D01*
X120117493Y-70593556D01*
X119905368Y-70603113D01*
X119680846Y-70605000D01*
X119414540Y-70606436D01*
X119223179Y-70613710D01*
X119080114Y-70631270D01*
X118958699Y-70663563D01*
X118832288Y-70715038D01*
X118728400Y-70763977D01*
X118506731Y-70887674D01*
X118272649Y-71044321D01*
X118118919Y-71164875D01*
X117889972Y-71348593D01*
X117680733Y-71476194D01*
X117462205Y-71558037D01*
X117205393Y-71604478D01*
X116881301Y-71625872D01*
X116823400Y-71627607D01*
X116578145Y-71629425D01*
X116355481Y-71622634D01*
X116184262Y-71608573D01*
X116108068Y-71594404D01*
X115962216Y-71523834D01*
X115854068Y-71435992D01*
X115789780Y-71358883D01*
X115799719Y-71340095D01*
X115883600Y-71359921D01*
X116179619Y-71412430D01*
X116519116Y-71430300D01*
X116849480Y-71411893D01*
X116968941Y-71393694D01*
X117169301Y-71344431D01*
X117364139Y-71268638D01*
X117573233Y-71155592D01*
X117816361Y-70994573D01*
X118113301Y-70774861D01*
X118119969Y-70769760D01*
X118335562Y-70624653D01*
X118563630Y-70502844D01*
X118721749Y-70440141D01*
X118938412Y-70392180D01*
X119199855Y-70362082D01*
X119477335Y-70350114D01*
X119742108Y-70356541D01*
G37*
X109678548Y-73334801D02*
X109766832Y-73394664D01*
X109902482Y-73511542D01*
X110015502Y-73615345D01*
X110399955Y-73939658D01*
X110789507Y-74195117D01*
X111225067Y-74407949D01*
X111301137Y-74439545D01*
X111645251Y-74567467D01*
X111971628Y-74659531D01*
X112307709Y-74720294D01*
X112680934Y-74754312D01*
X113118743Y-74766141D01*
X113267400Y-74766040D01*
X113598478Y-74762107D01*
X113854793Y-74752675D01*
X114063145Y-74734949D01*
X114250336Y-74706133D01*
X114443166Y-74663431D01*
X114573466Y-74629782D01*
X115099212Y-74454218D01*
X115597456Y-74220090D01*
X116042617Y-73940951D01*
X116348722Y-73689274D01*
X116542186Y-73518138D01*
X116678205Y-73425514D01*
X116761365Y-73409450D01*
X116796255Y-73467995D01*
X116798000Y-73498126D01*
X116759397Y-73573375D01*
X116655545Y-73691124D01*
X116504375Y-73835534D01*
X116323817Y-73990768D01*
X116131803Y-74140985D01*
X115946265Y-74270348D01*
X115871643Y-74316378D01*
X115305472Y-74594206D01*
X114682898Y-74803191D01*
X114025156Y-74940023D01*
X113353483Y-75001394D01*
X112689114Y-74983994D01*
X112124400Y-74900265D01*
X111457316Y-74715614D01*
X110851635Y-74459579D01*
X110313916Y-74135459D01*
X109872106Y-73767579D01*
X109708577Y-73603903D01*
X109610835Y-73492616D01*
X109568585Y-73418768D01*
X109571533Y-73367413D01*
X109583797Y-73348925D01*
X109622559Y-73322655D01*
X109678548Y-73334801D01*
G36*
X109678548Y-73334801D02*
G01*
X109766832Y-73394664D01*
X109902482Y-73511542D01*
X110015502Y-73615345D01*
X110399955Y-73939658D01*
X110789507Y-74195117D01*
X111225067Y-74407949D01*
X111301137Y-74439545D01*
X111645251Y-74567467D01*
X111971628Y-74659531D01*
X112307709Y-74720294D01*
X112680934Y-74754312D01*
X113118743Y-74766141D01*
X113267400Y-74766040D01*
X113598478Y-74762107D01*
X113854793Y-74752675D01*
X114063145Y-74734949D01*
X114250336Y-74706133D01*
X114443166Y-74663431D01*
X114573466Y-74629782D01*
X115099212Y-74454218D01*
X115597456Y-74220090D01*
X116042617Y-73940951D01*
X116348722Y-73689274D01*
X116542186Y-73518138D01*
X116678205Y-73425514D01*
X116761365Y-73409450D01*
X116796255Y-73467995D01*
X116798000Y-73498126D01*
X116759397Y-73573375D01*
X116655545Y-73691124D01*
X116504375Y-73835534D01*
X116323817Y-73990768D01*
X116131803Y-74140985D01*
X115946265Y-74270348D01*
X115871643Y-74316378D01*
X115305472Y-74594206D01*
X114682898Y-74803191D01*
X114025156Y-74940023D01*
X113353483Y-75001394D01*
X112689114Y-74983994D01*
X112124400Y-74900265D01*
X111457316Y-74715614D01*
X110851635Y-74459579D01*
X110313916Y-74135459D01*
X109872106Y-73767579D01*
X109708577Y-73603903D01*
X109610835Y-73492616D01*
X109568585Y-73418768D01*
X109571533Y-73367413D01*
X109583797Y-73348925D01*
X109622559Y-73322655D01*
X109678548Y-73334801D01*
G37*
X110126294Y-72882820D02*
X110242067Y-72960024D01*
X110415594Y-73109463D01*
X110480976Y-73169923D01*
X110832834Y-73449585D01*
X111254425Y-73690366D01*
X111274849Y-73700282D01*
X111585560Y-73844065D01*
X111853518Y-73950210D01*
X112104771Y-74024094D01*
X112365368Y-74071090D01*
X112661357Y-74096574D01*
X113018785Y-74105919D01*
X113242000Y-74106167D01*
X113557351Y-74103929D01*
X113794579Y-74098292D01*
X113977159Y-74086296D01*
X114128564Y-74064982D01*
X114272271Y-74031391D01*
X114431755Y-73982563D01*
X114557870Y-73940276D01*
X115070268Y-73733017D01*
X115511137Y-73479765D01*
X115905614Y-73165796D01*
X115948342Y-73125890D01*
X116111133Y-72980167D01*
X116219580Y-72905478D01*
X116284529Y-72894932D01*
X116297779Y-72903859D01*
X116310354Y-72981682D01*
X116246725Y-73098155D01*
X116119296Y-73242220D01*
X115940474Y-73402821D01*
X115722665Y-73568902D01*
X115478275Y-73729404D01*
X115219709Y-73873273D01*
X115197800Y-73884219D01*
X114763271Y-74072918D01*
X114329900Y-74202628D01*
X113865626Y-74280794D01*
X113343600Y-74314723D01*
X113088059Y-74319275D01*
X112859569Y-74319475D01*
X112682818Y-74315555D01*
X112582495Y-74307747D01*
X112581600Y-74307583D01*
X112055489Y-74194008D01*
X111609692Y-74062256D01*
X111223487Y-73904840D01*
X110876153Y-73714273D01*
X110795431Y-73662213D01*
X110618907Y-73533493D01*
X110438729Y-73382976D01*
X110273139Y-73228361D01*
X110140377Y-73087349D01*
X110058683Y-72977638D01*
X110041600Y-72930741D01*
X110061673Y-72874257D01*
X110126294Y-72882820D01*
G36*
X110126294Y-72882820D02*
G01*
X110242067Y-72960024D01*
X110415594Y-73109463D01*
X110480976Y-73169923D01*
X110832834Y-73449585D01*
X111254425Y-73690366D01*
X111274849Y-73700282D01*
X111585560Y-73844065D01*
X111853518Y-73950210D01*
X112104771Y-74024094D01*
X112365368Y-74071090D01*
X112661357Y-74096574D01*
X113018785Y-74105919D01*
X113242000Y-74106167D01*
X113557351Y-74103929D01*
X113794579Y-74098292D01*
X113977159Y-74086296D01*
X114128564Y-74064982D01*
X114272271Y-74031391D01*
X114431755Y-73982563D01*
X114557870Y-73940276D01*
X115070268Y-73733017D01*
X115511137Y-73479765D01*
X115905614Y-73165796D01*
X115948342Y-73125890D01*
X116111133Y-72980167D01*
X116219580Y-72905478D01*
X116284529Y-72894932D01*
X116297779Y-72903859D01*
X116310354Y-72981682D01*
X116246725Y-73098155D01*
X116119296Y-73242220D01*
X115940474Y-73402821D01*
X115722665Y-73568902D01*
X115478275Y-73729404D01*
X115219709Y-73873273D01*
X115197800Y-73884219D01*
X114763271Y-74072918D01*
X114329900Y-74202628D01*
X113865626Y-74280794D01*
X113343600Y-74314723D01*
X113088059Y-74319275D01*
X112859569Y-74319475D01*
X112682818Y-74315555D01*
X112582495Y-74307747D01*
X112581600Y-74307583D01*
X112055489Y-74194008D01*
X111609692Y-74062256D01*
X111223487Y-73904840D01*
X110876153Y-73714273D01*
X110795431Y-73662213D01*
X110618907Y-73533493D01*
X110438729Y-73382976D01*
X110273139Y-73228361D01*
X110140377Y-73087349D01*
X110058683Y-72977638D01*
X110041600Y-72930741D01*
X110061673Y-72874257D01*
X110126294Y-72882820D01*
G37*
X113204415Y-76534342D02*
X113487315Y-76728152D01*
X113731351Y-76977519D01*
X113911009Y-77254175D01*
X113961721Y-77373374D01*
X113979717Y-77448032D01*
X113994485Y-77566284D01*
X114006277Y-77736491D01*
X114015345Y-77967012D01*
X114021938Y-78266205D01*
X114026311Y-78642429D01*
X114028713Y-79104045D01*
X114029400Y-79622000D01*
X114029400Y-81679400D01*
X113889081Y-81965126D01*
X113769982Y-82161955D01*
X113612182Y-82365658D01*
X113501653Y-82481996D01*
X113353755Y-82608706D01*
X113204890Y-82705331D01*
X113038509Y-82775756D01*
X112838064Y-82823868D01*
X112587009Y-82853553D01*
X112268794Y-82868696D01*
X111866872Y-82873184D01*
X111835779Y-82873200D01*
X110956000Y-82873200D01*
X110956000Y-80472699D01*
X111930258Y-80472699D01*
X111930603Y-80867277D01*
X111932123Y-81210081D01*
X111934755Y-81490366D01*
X111938439Y-81697386D01*
X111943110Y-81820397D01*
X111946571Y-81850025D01*
X111988656Y-81886408D01*
X112090621Y-81903521D01*
X112269800Y-81903486D01*
X112353536Y-81899838D01*
X112555126Y-81885992D01*
X112687462Y-81862117D01*
X112782890Y-81817291D01*
X112873751Y-81740591D01*
X112899110Y-81715587D01*
X113064200Y-81550551D01*
X113078658Y-79681996D01*
X113093116Y-77813442D01*
X112975200Y-77638221D01*
X112802298Y-77470389D01*
X112559191Y-77371573D01*
X112252468Y-77344258D01*
X112202352Y-77346424D01*
X111946600Y-77361400D01*
X111933345Y-79571200D01*
X111931151Y-80037091D01*
X111930258Y-80472699D01*
X110956000Y-80472699D01*
X110956000Y-76370800D01*
X112897578Y-76370800D01*
X113204415Y-76534342D01*
G36*
X113204415Y-76534342D02*
G01*
X113487315Y-76728152D01*
X113731351Y-76977519D01*
X113911009Y-77254175D01*
X113961721Y-77373374D01*
X113979717Y-77448032D01*
X113994485Y-77566284D01*
X114006277Y-77736491D01*
X114015345Y-77967012D01*
X114021938Y-78266205D01*
X114026311Y-78642429D01*
X114028713Y-79104045D01*
X114029400Y-79622000D01*
X114029400Y-81679400D01*
X113889081Y-81965126D01*
X113769982Y-82161955D01*
X113612182Y-82365658D01*
X113501653Y-82481996D01*
X113353755Y-82608706D01*
X113204890Y-82705331D01*
X113038509Y-82775756D01*
X112838064Y-82823868D01*
X112587009Y-82853553D01*
X112268794Y-82868696D01*
X111866872Y-82873184D01*
X111835779Y-82873200D01*
X110956000Y-82873200D01*
X110956000Y-80472699D01*
X111930258Y-80472699D01*
X111930603Y-80867277D01*
X111932123Y-81210081D01*
X111934755Y-81490366D01*
X111938439Y-81697386D01*
X111943110Y-81820397D01*
X111946571Y-81850025D01*
X111988656Y-81886408D01*
X112090621Y-81903521D01*
X112269800Y-81903486D01*
X112353536Y-81899838D01*
X112555126Y-81885992D01*
X112687462Y-81862117D01*
X112782890Y-81817291D01*
X112873751Y-81740591D01*
X112899110Y-81715587D01*
X113064200Y-81550551D01*
X113078658Y-79681996D01*
X113093116Y-77813442D01*
X112975200Y-77638221D01*
X112802298Y-77470389D01*
X112559191Y-77371573D01*
X112252468Y-77344258D01*
X112202352Y-77346424D01*
X111946600Y-77361400D01*
X111933345Y-79571200D01*
X111931151Y-80037091D01*
X111930258Y-80472699D01*
X110956000Y-80472699D01*
X110956000Y-76370800D01*
X112897578Y-76370800D01*
X113204415Y-76534342D01*
G37*
X116864694Y-76345734D02*
X117208793Y-76486545D01*
X117509500Y-76706293D01*
X117586579Y-76785194D01*
X117754168Y-76992971D01*
X117869690Y-77198833D01*
X117941659Y-77428947D01*
X117978588Y-77709482D01*
X117988876Y-78021800D01*
X117991800Y-78580600D01*
X117502636Y-78595065D01*
X117013473Y-78609531D01*
X116992315Y-78125782D01*
X116968251Y-77827518D01*
X116920389Y-77612229D01*
X116839887Y-77462392D01*
X116717897Y-77360489D01*
X116574574Y-77298335D01*
X116350056Y-77272415D01*
X116141145Y-77339343D01*
X115971550Y-77490688D01*
X115951051Y-77520022D01*
X115927393Y-77562197D01*
X115908111Y-77616097D01*
X115892762Y-77691805D01*
X115880902Y-77799403D01*
X115872090Y-77948974D01*
X115865879Y-78150600D01*
X115861829Y-78414363D01*
X115859495Y-78750346D01*
X115858433Y-79168630D01*
X115858200Y-79631488D01*
X115858200Y-81601246D01*
X116024276Y-81767323D01*
X116154996Y-81877637D01*
X116284197Y-81925208D01*
X116413884Y-81933400D01*
X116624607Y-81902318D01*
X116784634Y-81804616D01*
X116897780Y-81633607D01*
X116967861Y-81382608D01*
X116998692Y-81044931D01*
X117000916Y-80904700D01*
X117001200Y-80485600D01*
X118030685Y-80485600D01*
X118006436Y-81133300D01*
X117981677Y-81518332D01*
X117935139Y-81822832D01*
X117859915Y-82066775D01*
X117749098Y-82270133D01*
X117595781Y-82452881D01*
X117527306Y-82518899D01*
X117205339Y-82749779D01*
X116840799Y-82896592D01*
X116453569Y-82953741D01*
X116094255Y-82922291D01*
X115756401Y-82802908D01*
X115447600Y-82597589D01*
X115185976Y-82321408D01*
X114999967Y-82012180D01*
X114973929Y-81952608D01*
X114952496Y-81890368D01*
X114935222Y-81815463D01*
X114921657Y-81717891D01*
X114911355Y-81587654D01*
X114903868Y-81414751D01*
X114898749Y-81189184D01*
X114895551Y-80900952D01*
X114893825Y-80540055D01*
X114893124Y-80096495D01*
X114893000Y-79622000D01*
X114893152Y-79096342D01*
X114893911Y-78662272D01*
X114895732Y-78309778D01*
X114899069Y-78028848D01*
X114904375Y-77809469D01*
X114912105Y-77641629D01*
X114922712Y-77515316D01*
X114936652Y-77420519D01*
X114954378Y-77347224D01*
X114976344Y-77285420D01*
X115001576Y-77228181D01*
X115209462Y-76893923D01*
X115491120Y-76614454D01*
X115773844Y-76435812D01*
X116127039Y-76316478D01*
X116497383Y-76287748D01*
X116864694Y-76345734D01*
G36*
X116864694Y-76345734D02*
G01*
X117208793Y-76486545D01*
X117509500Y-76706293D01*
X117586579Y-76785194D01*
X117754168Y-76992971D01*
X117869690Y-77198833D01*
X117941659Y-77428947D01*
X117978588Y-77709482D01*
X117988876Y-78021800D01*
X117991800Y-78580600D01*
X117502636Y-78595065D01*
X117013473Y-78609531D01*
X116992315Y-78125782D01*
X116968251Y-77827518D01*
X116920389Y-77612229D01*
X116839887Y-77462392D01*
X116717897Y-77360489D01*
X116574574Y-77298335D01*
X116350056Y-77272415D01*
X116141145Y-77339343D01*
X115971550Y-77490688D01*
X115951051Y-77520022D01*
X115927393Y-77562197D01*
X115908111Y-77616097D01*
X115892762Y-77691805D01*
X115880902Y-77799403D01*
X115872090Y-77948974D01*
X115865879Y-78150600D01*
X115861829Y-78414363D01*
X115859495Y-78750346D01*
X115858433Y-79168630D01*
X115858200Y-79631488D01*
X115858200Y-81601246D01*
X116024276Y-81767323D01*
X116154996Y-81877637D01*
X116284197Y-81925208D01*
X116413884Y-81933400D01*
X116624607Y-81902318D01*
X116784634Y-81804616D01*
X116897780Y-81633607D01*
X116967861Y-81382608D01*
X116998692Y-81044931D01*
X117000916Y-80904700D01*
X117001200Y-80485600D01*
X118030685Y-80485600D01*
X118006436Y-81133300D01*
X117981677Y-81518332D01*
X117935139Y-81822832D01*
X117859915Y-82066775D01*
X117749098Y-82270133D01*
X117595781Y-82452881D01*
X117527306Y-82518899D01*
X117205339Y-82749779D01*
X116840799Y-82896592D01*
X116453569Y-82953741D01*
X116094255Y-82922291D01*
X115756401Y-82802908D01*
X115447600Y-82597589D01*
X115185976Y-82321408D01*
X114999967Y-82012180D01*
X114973929Y-81952608D01*
X114952496Y-81890368D01*
X114935222Y-81815463D01*
X114921657Y-81717891D01*
X114911355Y-81587654D01*
X114903868Y-81414751D01*
X114898749Y-81189184D01*
X114895551Y-80900952D01*
X114893825Y-80540055D01*
X114893124Y-80096495D01*
X114893000Y-79622000D01*
X114893152Y-79096342D01*
X114893911Y-78662272D01*
X114895732Y-78309778D01*
X114899069Y-78028848D01*
X114904375Y-77809469D01*
X114912105Y-77641629D01*
X114922712Y-77515316D01*
X114936652Y-77420519D01*
X114954378Y-77347224D01*
X114976344Y-77285420D01*
X115001576Y-77228181D01*
X115209462Y-76893923D01*
X115491120Y-76614454D01*
X115773844Y-76435812D01*
X116127039Y-76316478D01*
X116497383Y-76287748D01*
X116864694Y-76345734D01*
G37*
X106927730Y-76306856D02*
X107129860Y-76332596D01*
X107261025Y-76363703D01*
X107549039Y-76510773D01*
X107815737Y-76734901D01*
X108034488Y-77011683D01*
X108105622Y-77137686D01*
X108174903Y-77282796D01*
X108220310Y-77405248D01*
X108246855Y-77533348D01*
X108259551Y-77695404D01*
X108263408Y-77919721D01*
X108263600Y-78029913D01*
X108263600Y-78606000D01*
X107247600Y-78606000D01*
X107247600Y-78125167D01*
X107245960Y-77898928D01*
X107236800Y-77747633D01*
X107213756Y-77644631D01*
X107170467Y-77563274D01*
X107100571Y-77476910D01*
X107089937Y-77464767D01*
X106975894Y-77350900D01*
X106867569Y-77298683D01*
X106714495Y-77285284D01*
X106693041Y-77285200D01*
X106525431Y-77297678D01*
X106407313Y-77348599D01*
X106304604Y-77440884D01*
X106155400Y-77596569D01*
X106141922Y-79561784D01*
X106138702Y-80061632D01*
X106136849Y-80470120D01*
X106136780Y-80797484D01*
X106138909Y-81053961D01*
X106143654Y-81249786D01*
X106151430Y-81395195D01*
X106162653Y-81500424D01*
X106177740Y-81575709D01*
X106197106Y-81631286D01*
X106221167Y-81677392D01*
X106228392Y-81689332D01*
X106378639Y-81847130D01*
X106571579Y-81928592D01*
X106782018Y-81932977D01*
X106984762Y-81859539D01*
X107147721Y-81716472D01*
X107193159Y-81644810D01*
X107222585Y-81553681D01*
X107239262Y-81420892D01*
X107246457Y-81224248D01*
X107247600Y-81037549D01*
X107247600Y-80485600D01*
X108263600Y-80485600D01*
X108263103Y-81133300D01*
X108260866Y-81413197D01*
X108252493Y-81615909D01*
X108234745Y-81765810D01*
X108204382Y-81887275D01*
X108158162Y-82004675D01*
X108142785Y-82038322D01*
X107945882Y-82371030D01*
X107698263Y-82623055D01*
X107439722Y-82783309D01*
X107155925Y-82886311D01*
X106840666Y-82943088D01*
X106536835Y-82948073D01*
X106370510Y-82922094D01*
X106024013Y-82792338D01*
X105720504Y-82581321D01*
X105560819Y-82421975D01*
X105468495Y-82317040D01*
X105391553Y-82219028D01*
X105328665Y-82117930D01*
X105278504Y-82003737D01*
X105239742Y-81866438D01*
X105211050Y-81696026D01*
X105191103Y-81482490D01*
X105178571Y-81215821D01*
X105172127Y-80886011D01*
X105170444Y-80483049D01*
X105172195Y-79996927D01*
X105175354Y-79515910D01*
X105179155Y-78997905D01*
X105182923Y-78571361D01*
X105187213Y-78226142D01*
X105192579Y-77952111D01*
X105199576Y-77739132D01*
X105208759Y-77577067D01*
X105220682Y-77455781D01*
X105235899Y-77365136D01*
X105254966Y-77294995D01*
X105278437Y-77235223D01*
X105302952Y-77183600D01*
X105520728Y-76849449D01*
X105803261Y-76587023D01*
X106137959Y-76404233D01*
X106512231Y-76308994D01*
X106714200Y-76296682D01*
X106927730Y-76306856D01*
G36*
X106927730Y-76306856D02*
G01*
X107129860Y-76332596D01*
X107261025Y-76363703D01*
X107549039Y-76510773D01*
X107815737Y-76734901D01*
X108034488Y-77011683D01*
X108105622Y-77137686D01*
X108174903Y-77282796D01*
X108220310Y-77405248D01*
X108246855Y-77533348D01*
X108259551Y-77695404D01*
X108263408Y-77919721D01*
X108263600Y-78029913D01*
X108263600Y-78606000D01*
X107247600Y-78606000D01*
X107247600Y-78125167D01*
X107245960Y-77898928D01*
X107236800Y-77747633D01*
X107213756Y-77644631D01*
X107170467Y-77563274D01*
X107100571Y-77476910D01*
X107089937Y-77464767D01*
X106975894Y-77350900D01*
X106867569Y-77298683D01*
X106714495Y-77285284D01*
X106693041Y-77285200D01*
X106525431Y-77297678D01*
X106407313Y-77348599D01*
X106304604Y-77440884D01*
X106155400Y-77596569D01*
X106141922Y-79561784D01*
X106138702Y-80061632D01*
X106136849Y-80470120D01*
X106136780Y-80797484D01*
X106138909Y-81053961D01*
X106143654Y-81249786D01*
X106151430Y-81395195D01*
X106162653Y-81500424D01*
X106177740Y-81575709D01*
X106197106Y-81631286D01*
X106221167Y-81677392D01*
X106228392Y-81689332D01*
X106378639Y-81847130D01*
X106571579Y-81928592D01*
X106782018Y-81932977D01*
X106984762Y-81859539D01*
X107147721Y-81716472D01*
X107193159Y-81644810D01*
X107222585Y-81553681D01*
X107239262Y-81420892D01*
X107246457Y-81224248D01*
X107247600Y-81037549D01*
X107247600Y-80485600D01*
X108263600Y-80485600D01*
X108263103Y-81133300D01*
X108260866Y-81413197D01*
X108252493Y-81615909D01*
X108234745Y-81765810D01*
X108204382Y-81887275D01*
X108158162Y-82004675D01*
X108142785Y-82038322D01*
X107945882Y-82371030D01*
X107698263Y-82623055D01*
X107439722Y-82783309D01*
X107155925Y-82886311D01*
X106840666Y-82943088D01*
X106536835Y-82948073D01*
X106370510Y-82922094D01*
X106024013Y-82792338D01*
X105720504Y-82581321D01*
X105560819Y-82421975D01*
X105468495Y-82317040D01*
X105391553Y-82219028D01*
X105328665Y-82117930D01*
X105278504Y-82003737D01*
X105239742Y-81866438D01*
X105211050Y-81696026D01*
X105191103Y-81482490D01*
X105178571Y-81215821D01*
X105172127Y-80886011D01*
X105170444Y-80483049D01*
X105172195Y-79996927D01*
X105175354Y-79515910D01*
X105179155Y-78997905D01*
X105182923Y-78571361D01*
X105187213Y-78226142D01*
X105192579Y-77952111D01*
X105199576Y-77739132D01*
X105208759Y-77577067D01*
X105220682Y-77455781D01*
X105235899Y-77365136D01*
X105254966Y-77294995D01*
X105278437Y-77235223D01*
X105302952Y-77183600D01*
X105520728Y-76849449D01*
X105803261Y-76587023D01*
X106137959Y-76404233D01*
X106512231Y-76308994D01*
X106714200Y-76296682D01*
X106927730Y-76306856D01*
G37*
X120586893Y-76300919D02*
X120755153Y-76320397D01*
X120895475Y-76361650D01*
X121043023Y-76431066D01*
X121341002Y-76637483D01*
X121601442Y-76913464D01*
X121794396Y-77227258D01*
X121794823Y-77228181D01*
X121821533Y-77289062D01*
X121843463Y-77351928D01*
X121861083Y-77426938D01*
X121874865Y-77524251D01*
X121885279Y-77654023D01*
X121892795Y-77826415D01*
X121897886Y-78051583D01*
X121901020Y-78339687D01*
X121902670Y-78700884D01*
X121903305Y-79145332D01*
X121903400Y-79571200D01*
X121903136Y-80114825D01*
X121901662Y-80567158D01*
X121897949Y-80938508D01*
X121890973Y-81239182D01*
X121879706Y-81479489D01*
X121863122Y-81669736D01*
X121840195Y-81820231D01*
X121809897Y-81941284D01*
X121771203Y-82043200D01*
X121723086Y-82136290D01*
X121664520Y-82230860D01*
X121633903Y-82277522D01*
X121403471Y-82538885D01*
X121106013Y-82743541D01*
X120764232Y-82882441D01*
X120400831Y-82946535D01*
X120038512Y-82926777D01*
X120015862Y-82922439D01*
X119661863Y-82800980D01*
X119344074Y-82590829D01*
X119075415Y-82302190D01*
X118924286Y-82060400D01*
X118804600Y-81831800D01*
X118804600Y-81611534D01*
X119769800Y-81611534D01*
X119935701Y-81759767D01*
X120126529Y-81871725D01*
X120347654Y-81913259D01*
X120559957Y-81878809D01*
X120610813Y-81855694D01*
X120671915Y-81819243D01*
X120722225Y-81775066D01*
X120762788Y-81713598D01*
X120794652Y-81625276D01*
X120818863Y-81500537D01*
X120836466Y-81329817D01*
X120848508Y-81103553D01*
X120856035Y-80812180D01*
X120860094Y-80446135D01*
X120861731Y-79995854D01*
X120862000Y-79559626D01*
X120861909Y-79041409D01*
X120860696Y-78615128D01*
X120856942Y-78271122D01*
X120849234Y-77999727D01*
X120836155Y-77791281D01*
X120816289Y-77636120D01*
X120788222Y-77524582D01*
X120750537Y-77447005D01*
X120701819Y-77393724D01*
X120640651Y-77355078D01*
X120565620Y-77321404D01*
X120532044Y-77307428D01*
X120316845Y-77269239D01*
X120098471Y-77320575D01*
X119905237Y-77454365D01*
X119893027Y-77467015D01*
X119769800Y-77598185D01*
X119769800Y-81611534D01*
X118804600Y-81611534D01*
X118804600Y-79622000D01*
X118804882Y-79085531D01*
X118805974Y-78641004D01*
X118808240Y-78278760D01*
X118812046Y-77989144D01*
X118817759Y-77762497D01*
X118825327Y-77598185D01*
X118825743Y-77589161D01*
X118836364Y-77459479D01*
X118849989Y-77363794D01*
X118866982Y-77292448D01*
X118887709Y-77235784D01*
X118895614Y-77218271D01*
X119047589Y-76975197D01*
X119263241Y-76733715D01*
X119509791Y-76527338D01*
X119666160Y-76430466D01*
X119814595Y-76360814D01*
X119955081Y-76319964D01*
X120124251Y-76300754D01*
X120354000Y-76296025D01*
X120586893Y-76300919D01*
G36*
X120586893Y-76300919D02*
G01*
X120755153Y-76320397D01*
X120895475Y-76361650D01*
X121043023Y-76431066D01*
X121341002Y-76637483D01*
X121601442Y-76913464D01*
X121794396Y-77227258D01*
X121794823Y-77228181D01*
X121821533Y-77289062D01*
X121843463Y-77351928D01*
X121861083Y-77426938D01*
X121874865Y-77524251D01*
X121885279Y-77654023D01*
X121892795Y-77826415D01*
X121897886Y-78051583D01*
X121901020Y-78339687D01*
X121902670Y-78700884D01*
X121903305Y-79145332D01*
X121903400Y-79571200D01*
X121903136Y-80114825D01*
X121901662Y-80567158D01*
X121897949Y-80938508D01*
X121890973Y-81239182D01*
X121879706Y-81479489D01*
X121863122Y-81669736D01*
X121840195Y-81820231D01*
X121809897Y-81941284D01*
X121771203Y-82043200D01*
X121723086Y-82136290D01*
X121664520Y-82230860D01*
X121633903Y-82277522D01*
X121403471Y-82538885D01*
X121106013Y-82743541D01*
X120764232Y-82882441D01*
X120400831Y-82946535D01*
X120038512Y-82926777D01*
X120015862Y-82922439D01*
X119661863Y-82800980D01*
X119344074Y-82590829D01*
X119075415Y-82302190D01*
X118924286Y-82060400D01*
X118804600Y-81831800D01*
X118804600Y-81611534D01*
X119769800Y-81611534D01*
X119935701Y-81759767D01*
X120126529Y-81871725D01*
X120347654Y-81913259D01*
X120559957Y-81878809D01*
X120610813Y-81855694D01*
X120671915Y-81819243D01*
X120722225Y-81775066D01*
X120762788Y-81713598D01*
X120794652Y-81625276D01*
X120818863Y-81500537D01*
X120836466Y-81329817D01*
X120848508Y-81103553D01*
X120856035Y-80812180D01*
X120860094Y-80446135D01*
X120861731Y-79995854D01*
X120862000Y-79559626D01*
X120861909Y-79041409D01*
X120860696Y-78615128D01*
X120856942Y-78271122D01*
X120849234Y-77999727D01*
X120836155Y-77791281D01*
X120816289Y-77636120D01*
X120788222Y-77524582D01*
X120750537Y-77447005D01*
X120701819Y-77393724D01*
X120640651Y-77355078D01*
X120565620Y-77321404D01*
X120532044Y-77307428D01*
X120316845Y-77269239D01*
X120098471Y-77320575D01*
X119905237Y-77454365D01*
X119893027Y-77467015D01*
X119769800Y-77598185D01*
X119769800Y-81611534D01*
X118804600Y-81611534D01*
X118804600Y-79622000D01*
X118804882Y-79085531D01*
X118805974Y-78641004D01*
X118808240Y-78278760D01*
X118812046Y-77989144D01*
X118817759Y-77762497D01*
X118825327Y-77598185D01*
X118825743Y-77589161D01*
X118836364Y-77459479D01*
X118849989Y-77363794D01*
X118866982Y-77292448D01*
X118887709Y-77235784D01*
X118895614Y-77218271D01*
X119047589Y-76975197D01*
X119263241Y-76733715D01*
X119509791Y-76527338D01*
X119666160Y-76430466D01*
X119814595Y-76360814D01*
X119955081Y-76319964D01*
X120124251Y-76300754D01*
X120354000Y-76296025D01*
X120586893Y-76300919D01*
G37*
X113551086Y-65345052D02*
X113555221Y-65482660D01*
X113558151Y-65696535D01*
X113559951Y-65974016D01*
X113560691Y-66302439D01*
X113560446Y-66669144D01*
X113559289Y-67061469D01*
X113557291Y-67466751D01*
X113554526Y-67872328D01*
X113551067Y-68265539D01*
X113546986Y-68633721D01*
X113542357Y-68964213D01*
X113537251Y-69244353D01*
X113531743Y-69461479D01*
X113525905Y-69602928D01*
X113520604Y-69654604D01*
X113453194Y-69699269D01*
X113303100Y-69708689D01*
X113293586Y-69708172D01*
X113089600Y-69696136D01*
X113089600Y-67953468D01*
X113089067Y-67544164D01*
X113087553Y-67169049D01*
X113085184Y-66839737D01*
X113082088Y-66567838D01*
X113078390Y-66364964D01*
X113074217Y-66242728D01*
X113070598Y-66210800D01*
X113019256Y-66233433D01*
X112908847Y-66291297D01*
X112826738Y-66336475D01*
X112521415Y-66488379D01*
X112203547Y-66605361D01*
X111853096Y-66691954D01*
X111450025Y-66752687D01*
X110974296Y-66792094D01*
X110765500Y-66802628D01*
X109990800Y-66836147D01*
X109990800Y-67097000D01*
X110026667Y-67452725D01*
X110127535Y-67848241D01*
X110283303Y-68254914D01*
X110483869Y-68644108D01*
X110601699Y-68828888D01*
X110899137Y-69192548D01*
X111278567Y-69547203D01*
X111720536Y-69878266D01*
X112205590Y-70171147D01*
X112709095Y-70409153D01*
X112904582Y-70486163D01*
X113061580Y-70534543D01*
X113201620Y-70551731D01*
X113346232Y-70535164D01*
X113516946Y-70482280D01*
X113735294Y-70390517D01*
X114022806Y-70257312D01*
X114035628Y-70251284D01*
X114649269Y-69918355D01*
X115175282Y-69538414D01*
X115612597Y-69112807D01*
X115960140Y-68642877D01*
X116216838Y-68129972D01*
X116381619Y-67575436D01*
X116433783Y-67243262D01*
X116452191Y-67022704D01*
X116459745Y-66814601D01*
X116455000Y-66661280D01*
X116454000Y-66652275D01*
X116430578Y-66458750D01*
X116925000Y-66490200D01*
X116917267Y-66935291D01*
X116857299Y-67558515D01*
X116701202Y-68152336D01*
X116451534Y-68711509D01*
X116110853Y-69230791D01*
X115681717Y-69704938D01*
X115477110Y-69888186D01*
X115352657Y-69997412D01*
X115269809Y-70078516D01*
X115246949Y-70112282D01*
X115323264Y-70140463D01*
X115472686Y-70163283D01*
X115666785Y-70179017D01*
X115877133Y-70185939D01*
X116075303Y-70182323D01*
X116206886Y-70170554D01*
X116578101Y-70089614D01*
X116896546Y-69951182D01*
X117201376Y-69737375D01*
X117255319Y-69691675D01*
X117457649Y-69536478D01*
X117694071Y-69383643D01*
X117864800Y-69290777D01*
X118010306Y-69223440D01*
X118132433Y-69178392D01*
X118257877Y-69151170D01*
X118413339Y-69137313D01*
X118625515Y-69132359D01*
X118816077Y-69131800D01*
X119076835Y-69132591D01*
X119256659Y-69137547D01*
X119376214Y-69150540D01*
X119456165Y-69175444D01*
X119517177Y-69216133D01*
X119578077Y-69274613D01*
X119719000Y-69417427D01*
X119566600Y-69376213D01*
X119444483Y-69357692D01*
X119256480Y-69345333D01*
X119038222Y-69341240D01*
X118982400Y-69341765D01*
X118532655Y-69383086D01*
X118139573Y-69497764D01*
X117781293Y-69694681D01*
X117458400Y-69961092D01*
X117347285Y-70045341D01*
X117180153Y-70147744D01*
X117001200Y-70242092D01*
X116852028Y-70311253D01*
X116727065Y-70356927D01*
X116598311Y-70383962D01*
X116437766Y-70397203D01*
X116217429Y-70401495D01*
X116078356Y-70401800D01*
X115818296Y-70400009D01*
X115637558Y-70392368D01*
X115513895Y-70375475D01*
X115425060Y-70345925D01*
X115348802Y-70300316D01*
X115331113Y-70287500D01*
X115216487Y-70208134D01*
X115133587Y-70182588D01*
X115044349Y-70212125D01*
X114910710Y-70298010D01*
X114905373Y-70301636D01*
X114713767Y-70418652D01*
X114460342Y-70555452D01*
X114178248Y-70695721D01*
X113900639Y-70823147D01*
X113660666Y-70921415D01*
X113605904Y-70941081D01*
X113316575Y-71015848D01*
X113057176Y-71020084D01*
X112784859Y-70952512D01*
X112683200Y-70913560D01*
X112134861Y-70662343D01*
X111581849Y-70358942D01*
X111554501Y-70342561D01*
X111264003Y-70167789D01*
X111113603Y-70278985D01*
X111018091Y-70335542D01*
X110897673Y-70373450D01*
X110726705Y-70398249D01*
X110482545Y-70415322D01*
X110065308Y-70413832D01*
X109709748Y-70355757D01*
X109387970Y-70232455D01*
X109072076Y-70035289D01*
X108949400Y-69940513D01*
X108521487Y-69641676D01*
X108096887Y-69441500D01*
X107668184Y-69337615D01*
X107227965Y-69327650D01*
X107083303Y-69343932D01*
X106907525Y-69367550D01*
X106813862Y-69372290D01*
X106784080Y-69355137D01*
X106799940Y-69313079D01*
X106808749Y-69298562D01*
X106924476Y-69204213D01*
X107130527Y-69142510D01*
X107420605Y-69114680D01*
X107730200Y-69118662D01*
X108099643Y-69156592D01*
X108415504Y-69237653D01*
X108710253Y-69374581D01*
X109016364Y-69580113D01*
X109127152Y-69666563D01*
X109331188Y-69817177D01*
X109545267Y-69954082D01*
X109732952Y-70054593D01*
X109787552Y-70077693D01*
X110042570Y-70144971D01*
X110352952Y-70184094D01*
X110675684Y-70192296D01*
X110967753Y-70166813D01*
X111020877Y-70156983D01*
X111212755Y-70117279D01*
X110912169Y-69866115D01*
X110565857Y-69529176D01*
X110244178Y-69126347D01*
X109966618Y-68686901D01*
X109752663Y-68240109D01*
X109667516Y-67996336D01*
X109600536Y-67722207D01*
X109546932Y-67410053D01*
X109510708Y-67094247D01*
X109495866Y-66809162D01*
X109504939Y-66600301D01*
X109537737Y-66337800D01*
X110411968Y-66334124D01*
X110871051Y-66326329D01*
X111249286Y-66305324D01*
X111566891Y-66268296D01*
X111844084Y-66212431D01*
X112101084Y-66134915D01*
X112250457Y-66078280D01*
X112557301Y-65935524D01*
X112884504Y-65752864D01*
X113187110Y-65556587D01*
X113342474Y-65439735D01*
X113454401Y-65353304D01*
X113530938Y-65302251D01*
X113545674Y-65296373D01*
X113551086Y-65345052D01*
G36*
X113551086Y-65345052D02*
G01*
X113555221Y-65482660D01*
X113558151Y-65696535D01*
X113559951Y-65974016D01*
X113560691Y-66302439D01*
X113560446Y-66669144D01*
X113559289Y-67061469D01*
X113557291Y-67466751D01*
X113554526Y-67872328D01*
X113551067Y-68265539D01*
X113546986Y-68633721D01*
X113542357Y-68964213D01*
X113537251Y-69244353D01*
X113531743Y-69461479D01*
X113525905Y-69602928D01*
X113520604Y-69654604D01*
X113453194Y-69699269D01*
X113303100Y-69708689D01*
X113293586Y-69708172D01*
X113089600Y-69696136D01*
X113089600Y-67953468D01*
X113089067Y-67544164D01*
X113087553Y-67169049D01*
X113085184Y-66839737D01*
X113082088Y-66567838D01*
X113078390Y-66364964D01*
X113074217Y-66242728D01*
X113070598Y-66210800D01*
X113019256Y-66233433D01*
X112908847Y-66291297D01*
X112826738Y-66336475D01*
X112521415Y-66488379D01*
X112203547Y-66605361D01*
X111853096Y-66691954D01*
X111450025Y-66752687D01*
X110974296Y-66792094D01*
X110765500Y-66802628D01*
X109990800Y-66836147D01*
X109990800Y-67097000D01*
X110026667Y-67452725D01*
X110127535Y-67848241D01*
X110283303Y-68254914D01*
X110483869Y-68644108D01*
X110601699Y-68828888D01*
X110899137Y-69192548D01*
X111278567Y-69547203D01*
X111720536Y-69878266D01*
X112205590Y-70171147D01*
X112709095Y-70409153D01*
X112904582Y-70486163D01*
X113061580Y-70534543D01*
X113201620Y-70551731D01*
X113346232Y-70535164D01*
X113516946Y-70482280D01*
X113735294Y-70390517D01*
X114022806Y-70257312D01*
X114035628Y-70251284D01*
X114649269Y-69918355D01*
X115175282Y-69538414D01*
X115612597Y-69112807D01*
X115960140Y-68642877D01*
X116216838Y-68129972D01*
X116381619Y-67575436D01*
X116433783Y-67243262D01*
X116452191Y-67022704D01*
X116459745Y-66814601D01*
X116455000Y-66661280D01*
X116454000Y-66652275D01*
X116430578Y-66458750D01*
X116925000Y-66490200D01*
X116917267Y-66935291D01*
X116857299Y-67558515D01*
X116701202Y-68152336D01*
X116451534Y-68711509D01*
X116110853Y-69230791D01*
X115681717Y-69704938D01*
X115477110Y-69888186D01*
X115352657Y-69997412D01*
X115269809Y-70078516D01*
X115246949Y-70112282D01*
X115323264Y-70140463D01*
X115472686Y-70163283D01*
X115666785Y-70179017D01*
X115877133Y-70185939D01*
X116075303Y-70182323D01*
X116206886Y-70170554D01*
X116578101Y-70089614D01*
X116896546Y-69951182D01*
X117201376Y-69737375D01*
X117255319Y-69691675D01*
X117457649Y-69536478D01*
X117694071Y-69383643D01*
X117864800Y-69290777D01*
X118010306Y-69223440D01*
X118132433Y-69178392D01*
X118257877Y-69151170D01*
X118413339Y-69137313D01*
X118625515Y-69132359D01*
X118816077Y-69131800D01*
X119076835Y-69132591D01*
X119256659Y-69137547D01*
X119376214Y-69150540D01*
X119456165Y-69175444D01*
X119517177Y-69216133D01*
X119578077Y-69274613D01*
X119719000Y-69417427D01*
X119566600Y-69376213D01*
X119444483Y-69357692D01*
X119256480Y-69345333D01*
X119038222Y-69341240D01*
X118982400Y-69341765D01*
X118532655Y-69383086D01*
X118139573Y-69497764D01*
X117781293Y-69694681D01*
X117458400Y-69961092D01*
X117347285Y-70045341D01*
X117180153Y-70147744D01*
X117001200Y-70242092D01*
X116852028Y-70311253D01*
X116727065Y-70356927D01*
X116598311Y-70383962D01*
X116437766Y-70397203D01*
X116217429Y-70401495D01*
X116078356Y-70401800D01*
X115818296Y-70400009D01*
X115637558Y-70392368D01*
X115513895Y-70375475D01*
X115425060Y-70345925D01*
X115348802Y-70300316D01*
X115331113Y-70287500D01*
X115216487Y-70208134D01*
X115133587Y-70182588D01*
X115044349Y-70212125D01*
X114910710Y-70298010D01*
X114905373Y-70301636D01*
X114713767Y-70418652D01*
X114460342Y-70555452D01*
X114178248Y-70695721D01*
X113900639Y-70823147D01*
X113660666Y-70921415D01*
X113605904Y-70941081D01*
X113316575Y-71015848D01*
X113057176Y-71020084D01*
X112784859Y-70952512D01*
X112683200Y-70913560D01*
X112134861Y-70662343D01*
X111581849Y-70358942D01*
X111554501Y-70342561D01*
X111264003Y-70167789D01*
X111113603Y-70278985D01*
X111018091Y-70335542D01*
X110897673Y-70373450D01*
X110726705Y-70398249D01*
X110482545Y-70415322D01*
X110065308Y-70413832D01*
X109709748Y-70355757D01*
X109387970Y-70232455D01*
X109072076Y-70035289D01*
X108949400Y-69940513D01*
X108521487Y-69641676D01*
X108096887Y-69441500D01*
X107668184Y-69337615D01*
X107227965Y-69327650D01*
X107083303Y-69343932D01*
X106907525Y-69367550D01*
X106813862Y-69372290D01*
X106784080Y-69355137D01*
X106799940Y-69313079D01*
X106808749Y-69298562D01*
X106924476Y-69204213D01*
X107130527Y-69142510D01*
X107420605Y-69114680D01*
X107730200Y-69118662D01*
X108099643Y-69156592D01*
X108415504Y-69237653D01*
X108710253Y-69374581D01*
X109016364Y-69580113D01*
X109127152Y-69666563D01*
X109331188Y-69817177D01*
X109545267Y-69954082D01*
X109732952Y-70054593D01*
X109787552Y-70077693D01*
X110042570Y-70144971D01*
X110352952Y-70184094D01*
X110675684Y-70192296D01*
X110967753Y-70166813D01*
X111020877Y-70156983D01*
X111212755Y-70117279D01*
X110912169Y-69866115D01*
X110565857Y-69529176D01*
X110244178Y-69126347D01*
X109966618Y-68686901D01*
X109752663Y-68240109D01*
X109667516Y-67996336D01*
X109600536Y-67722207D01*
X109546932Y-67410053D01*
X109510708Y-67094247D01*
X109495866Y-66809162D01*
X109504939Y-66600301D01*
X109537737Y-66337800D01*
X110411968Y-66334124D01*
X110871051Y-66326329D01*
X111249286Y-66305324D01*
X111566891Y-66268296D01*
X111844084Y-66212431D01*
X112101084Y-66134915D01*
X112250457Y-66078280D01*
X112557301Y-65935524D01*
X112884504Y-65752864D01*
X113187110Y-65556587D01*
X113342474Y-65439735D01*
X113454401Y-65353304D01*
X113530938Y-65302251D01*
X113545674Y-65296373D01*
X113551086Y-65345052D01*
G37*
D13*
%TO.C,J14*%
X115050000Y-96770000D02*
X115050000Y-101970000D01*
X122730000Y-96770000D02*
X115050000Y-96770000D01*
X122730000Y-96770000D02*
X122730000Y-99370000D01*
X122730000Y-99370000D02*
X125330000Y-99370000D01*
X124000000Y-96770000D02*
X125330000Y-96770000D01*
X125330000Y-96770000D02*
X125330000Y-98100000D01*
X125330000Y-99370000D02*
X125330000Y-101970000D01*
X125330000Y-101970000D02*
X115050000Y-101970000D01*
%TO.C,J1*%
X127480000Y-65300000D02*
X128750000Y-65300000D01*
X127480000Y-66570000D02*
X127480000Y-65300000D01*
X129792929Y-68730000D02*
X130190000Y-68730000D01*
X129792929Y-69490000D02*
X130190000Y-69490000D01*
X129792929Y-71270000D02*
X130190000Y-71270000D01*
X129792929Y-72030000D02*
X130190000Y-72030000D01*
X129792929Y-73810000D02*
X130190000Y-73810000D01*
X129792929Y-74570000D02*
X130190000Y-74570000D01*
X129792929Y-76350000D02*
X130190000Y-76350000D01*
X129792929Y-77110000D02*
X130190000Y-77110000D01*
X129792929Y-78890000D02*
X130190000Y-78890000D01*
X129792929Y-79650000D02*
X130190000Y-79650000D01*
X129792929Y-81430000D02*
X130190000Y-81430000D01*
X129792929Y-82190000D02*
X130190000Y-82190000D01*
X129792929Y-83970000D02*
X130190000Y-83970000D01*
X129792929Y-84730000D02*
X130190000Y-84730000D01*
X129860000Y-66190000D02*
X130190000Y-66190000D01*
X129860000Y-66950000D02*
X130190000Y-66950000D01*
X130190000Y-65240000D02*
X130190000Y-85680000D01*
X130190000Y-67840000D02*
X132850000Y-67840000D01*
X130190000Y-70380000D02*
X132850000Y-70380000D01*
X130190000Y-72920000D02*
X132850000Y-72920000D01*
X130190000Y-75460000D02*
X132850000Y-75460000D01*
X130190000Y-78000000D02*
X132850000Y-78000000D01*
X130190000Y-80540000D02*
X132850000Y-80540000D01*
X130190000Y-83080000D02*
X132850000Y-83080000D01*
X130190000Y-85680000D02*
X132850000Y-85680000D01*
X132850000Y-65240000D02*
X130190000Y-65240000D01*
X132850000Y-66190000D02*
X138850000Y-66190000D01*
X132850000Y-66250000D02*
X138850000Y-66250000D01*
X132850000Y-66370000D02*
X138850000Y-66370000D01*
X132850000Y-66490000D02*
X138850000Y-66490000D01*
X132850000Y-66610000D02*
X138850000Y-66610000D01*
X132850000Y-66730000D02*
X138850000Y-66730000D01*
X132850000Y-66850000D02*
X138850000Y-66850000D01*
X132850000Y-68730000D02*
X138850000Y-68730000D01*
X132850000Y-71270000D02*
X138850000Y-71270000D01*
X132850000Y-73810000D02*
X138850000Y-73810000D01*
X132850000Y-76350000D02*
X138850000Y-76350000D01*
X132850000Y-78890000D02*
X138850000Y-78890000D01*
X132850000Y-81430000D02*
X138850000Y-81430000D01*
X132850000Y-83970000D02*
X138850000Y-83970000D01*
X132850000Y-85680000D02*
X132850000Y-65240000D01*
X138850000Y-66190000D02*
X138850000Y-66950000D01*
X138850000Y-66950000D02*
X132850000Y-66950000D01*
X138850000Y-68730000D02*
X138850000Y-69490000D01*
X138850000Y-69490000D02*
X132850000Y-69490000D01*
X138850000Y-71270000D02*
X138850000Y-72030000D01*
X138850000Y-72030000D02*
X132850000Y-72030000D01*
X138850000Y-73810000D02*
X138850000Y-74570000D01*
X138850000Y-74570000D02*
X132850000Y-74570000D01*
X138850000Y-76350000D02*
X138850000Y-77110000D01*
X138850000Y-77110000D02*
X132850000Y-77110000D01*
X138850000Y-78890000D02*
X138850000Y-79650000D01*
X138850000Y-79650000D02*
X132850000Y-79650000D01*
X138850000Y-81430000D02*
X138850000Y-82190000D01*
X138850000Y-82190000D02*
X132850000Y-82190000D01*
X138850000Y-83970000D02*
X138850000Y-84730000D01*
X138850000Y-84730000D02*
X132850000Y-84730000D01*
%TO.C,J2*%
X128770000Y-45490000D02*
X128770000Y-46490000D01*
X128770000Y-46490000D02*
X129770000Y-45990000D01*
X129770000Y-45990000D02*
X128770000Y-45490000D01*
X130160000Y-40780000D02*
X139280000Y-40780000D01*
X130160000Y-49020000D02*
X131470000Y-49020000D01*
X130160000Y-61360000D02*
X130160000Y-40780000D01*
X131470000Y-42080000D02*
X137970000Y-42080000D01*
X131470000Y-49020000D02*
X131470000Y-42080000D01*
X131470000Y-53120000D02*
X130160000Y-53120000D01*
X131470000Y-53120000D02*
X131470000Y-53120000D01*
X131470000Y-60060000D02*
X131470000Y-53120000D01*
X137970000Y-42080000D02*
X137970000Y-60060000D01*
X137970000Y-60060000D02*
X131470000Y-60060000D01*
X139280000Y-40780000D02*
X139280000Y-61360000D01*
X139280000Y-61360000D02*
X130160000Y-61360000D01*
%TO.C,J11*%
X102720000Y-41645000D02*
X104050000Y-41645000D01*
X102720000Y-42975000D02*
X102720000Y-41645000D01*
X102720000Y-44245000D02*
X102720000Y-57005000D01*
X102720000Y-44245000D02*
X105320000Y-44245000D01*
X102720000Y-57005000D02*
X107920000Y-57005000D01*
X105320000Y-41645000D02*
X107920000Y-41645000D01*
X105320000Y-44245000D02*
X105320000Y-41645000D01*
X107920000Y-41645000D02*
X107920000Y-57005000D01*
%TO.C,R1*%
X124540000Y-92772936D02*
X124540000Y-94227064D01*
X126360000Y-92772936D02*
X126360000Y-94227064D01*
%TO.C,J3*%
X127555000Y-88330000D02*
X128825000Y-88330000D01*
X127555000Y-89600000D02*
X127555000Y-88330000D01*
X129867929Y-91760000D02*
X130265000Y-91760000D01*
X129867929Y-92520000D02*
X130265000Y-92520000D01*
X129867929Y-94300000D02*
X130265000Y-94300000D01*
X129867929Y-95060000D02*
X130265000Y-95060000D01*
X129867929Y-96840000D02*
X130265000Y-96840000D01*
X129867929Y-97600000D02*
X130265000Y-97600000D01*
X129935000Y-89220000D02*
X130265000Y-89220000D01*
X129935000Y-89980000D02*
X130265000Y-89980000D01*
X130265000Y-88270000D02*
X130265000Y-98550000D01*
X130265000Y-90870000D02*
X132925000Y-90870000D01*
X130265000Y-93410000D02*
X132925000Y-93410000D01*
X130265000Y-95950000D02*
X132925000Y-95950000D01*
X130265000Y-98550000D02*
X132925000Y-98550000D01*
X132925000Y-88270000D02*
X130265000Y-88270000D01*
X132925000Y-89220000D02*
X138925000Y-89220000D01*
X132925000Y-89280000D02*
X138925000Y-89280000D01*
X132925000Y-89400000D02*
X138925000Y-89400000D01*
X132925000Y-89520000D02*
X138925000Y-89520000D01*
X132925000Y-89640000D02*
X138925000Y-89640000D01*
X132925000Y-89760000D02*
X138925000Y-89760000D01*
X132925000Y-89880000D02*
X138925000Y-89880000D01*
X132925000Y-91760000D02*
X138925000Y-91760000D01*
X132925000Y-94300000D02*
X138925000Y-94300000D01*
X132925000Y-96840000D02*
X138925000Y-96840000D01*
X132925000Y-98550000D02*
X132925000Y-88270000D01*
X138925000Y-89220000D02*
X138925000Y-89980000D01*
X138925000Y-89980000D02*
X132925000Y-89980000D01*
X138925000Y-91760000D02*
X138925000Y-92520000D01*
X138925000Y-92520000D02*
X132925000Y-92520000D01*
X138925000Y-94300000D02*
X138925000Y-95060000D01*
X138925000Y-95060000D02*
X132925000Y-95060000D01*
X138925000Y-96840000D02*
X138925000Y-97600000D01*
X138925000Y-97600000D02*
X132925000Y-97600000D01*
%TD*%
M02*
