M48
; DRILL file {KiCad 8.0.6} date 2025-02-12T12:21:37-0500
; FORMAT={-:-/ absolute / inch / decimal}
; #@! TF.CreationDate,2025-02-12T12:21:37-05:00
; #@! TF.GenerationSoftware,Kicad,Pcbnew,8.0.6
; #@! TF.FileFunction,Plated,1,2,PTH
FMAT,2
INCH
; #@! TA.AperFunction,Plated,PTH,ComponentDrill
T1C0.0394
; #@! TA.AperFunction,Plated,PTH,ComponentDrill
T2C0.1063
%
G90
G05
T1
X4.0965Y-1.6919
X4.0965Y-1.7919
X4.0965Y-1.8919
X4.0965Y-1.9919
X4.0965Y-2.0919
X4.0965Y-2.1919
X4.1965Y-1.6919
X4.1965Y-1.7919
X4.1965Y-1.8919
X4.1965Y-1.9919
X4.1965Y-2.0919
X4.1965Y-2.1919
X4.5819Y-3.8622
X4.5819Y-3.9622
X4.6819Y-3.8622
X4.6819Y-3.9622
X4.7819Y-3.8622
X4.7819Y-3.9622
X4.8819Y-3.8622
X4.8819Y-3.9622
X5.0689Y-2.6209
X5.0689Y-2.7209
X5.0689Y-2.8209
X5.0689Y-2.9209
X5.0689Y-3.0209
X5.0689Y-3.1209
X5.0689Y-3.2209
X5.0689Y-3.3209
X5.0719Y-3.5276
X5.0719Y-3.6276
X5.0719Y-3.7276
X5.0719Y-3.8276
X5.2539Y-1.8106
X5.2539Y-1.9106
X5.2539Y-2.0106
X5.2539Y-2.1106
X5.2539Y-2.2106
X5.3539Y-1.8106
X5.3539Y-1.9106
X5.3539Y-2.0106
X5.3539Y-2.1106
X5.3539Y-2.2106
T2
X4.5748Y-1.7118
X4.5748Y-3.6409
M30
