%TF.GenerationSoftware,KiCad,Pcbnew,8.0.6*%
%TF.CreationDate,2025-02-12T12:21:41-05:00*%
%TF.ProjectId,prog,70726f67-2e6b-4696-9361-645f70636258,rev?*%
%TF.SameCoordinates,Original*%
%TF.FileFunction,Soldermask,Bot*%
%TF.FilePolarity,Negative*%
%FSLAX46Y46*%
G04 Gerber Fmt 4.6, Leading zero omitted, Abs format (unit mm)*
G04 Created by KiCad (PCBNEW 8.0.6) date 2025-02-12 12:21:41*
%MOMM*%
%LPD*%
G01*
G04 APERTURE LIST*
G04 Aperture macros list*
%AMRoundRect*
0 Rectangle with rounded corners*
0 $1 Rounding radius*
0 $2 $3 $4 $5 $6 $7 $8 $9 X,Y pos of 4 corners*
0 Add a 4 corners polygon primitive as box body*
4,1,4,$2,$3,$4,$5,$6,$7,$8,$9,$2,$3,0*
0 Add four circle primitives for the rounded corners*
1,1,$1+$1,$2,$3*
1,1,$1+$1,$4,$5*
1,1,$1+$1,$6,$7*
1,1,$1+$1,$8,$9*
0 Add four rect primitives between the rounded corners*
20,1,$1+$1,$2,$3,$4,$5,0*
20,1,$1+$1,$4,$5,$6,$7,0*
20,1,$1+$1,$6,$7,$8,$9,0*
20,1,$1+$1,$8,$9,$2,$3,0*%
G04 Aperture macros list end*
%ADD10R,1.700000X1.700000*%
%ADD11O,1.700000X1.700000*%
%ADD12RoundRect,0.250000X-0.600000X-0.600000X0.600000X-0.600000X0.600000X0.600000X-0.600000X0.600000X0*%
%ADD13C,1.700000*%
%ADD14C,4.500000*%
G04 APERTURE END LIST*
D10*
%TO.C,J14*%
X124000000Y-98100000D03*
D11*
X124000000Y-100640000D03*
X121460000Y-98100000D03*
X121460000Y-100640000D03*
X118920000Y-98100000D03*
X118920000Y-100640000D03*
X116380000Y-98100000D03*
X116380000Y-100640000D03*
%TD*%
D10*
%TO.C,J1*%
X128750000Y-66570000D03*
D11*
X128750000Y-69110000D03*
X128750000Y-71650000D03*
X128750000Y-74190000D03*
X128750000Y-76730000D03*
X128750000Y-79270000D03*
X128750000Y-81810000D03*
X128750000Y-84350000D03*
%TD*%
D12*
%TO.C,J2*%
X133450000Y-45990000D03*
D13*
X135990000Y-45990000D03*
X133450000Y-48530000D03*
X135990000Y-48530000D03*
X133450000Y-51070000D03*
X135990000Y-51070000D03*
X133450000Y-53610000D03*
X135990000Y-53610000D03*
X133450000Y-56150000D03*
X135990000Y-56150000D03*
%TD*%
D10*
%TO.C,J11*%
X104050000Y-42975000D03*
D11*
X106590000Y-42975000D03*
X104050000Y-45515000D03*
X106590000Y-45515000D03*
X104050000Y-48055000D03*
X106590000Y-48055000D03*
X104050000Y-50595000D03*
X106590000Y-50595000D03*
X104050000Y-53135000D03*
X106590000Y-53135000D03*
X104050000Y-55675000D03*
X106590000Y-55675000D03*
%TD*%
D14*
%TO.C,H5*%
X116200000Y-92480000D03*
%TD*%
D10*
%TO.C,J3*%
X128825000Y-89600000D03*
D11*
X128825000Y-92140000D03*
X128825000Y-94680000D03*
X128825000Y-97220000D03*
%TD*%
D14*
%TO.C,H1*%
X116200000Y-43480000D03*
%TD*%
M02*
