%TF.GenerationSoftware,KiCad,Pcbnew,8.0.6*%
%TF.CreationDate,2025-02-12T12:21:39-05:00*%
%TF.ProjectId,prog,70726f67-2e6b-4696-9361-645f70636258,rev?*%
%TF.SameCoordinates,Original*%
%TF.FileFunction,Drillmap*%
%TF.FilePolarity,Positive*%
%FSLAX45Y45*%
G04 Gerber Fmt 4.5, Leading zero omitted, Abs format (unit mm)*
G04 Created by KiCad (PCBNEW 8.0.6) date 2025-02-12 12:21:39*
%MOMM*%
%LPD*%
G01*
G04 APERTURE LIST*
%ADD10C,0.150000*%
%ADD11C,0.200000*%
G04 APERTURE END LIST*
D10*
X10165000Y-4005000D02*
X13995000Y-4005000D01*
X13995000Y-10265000D01*
X10165000Y-10265000D01*
X10165000Y-4005000D01*
D11*
X10418277Y-10583984D02*
X10418277Y-10383984D01*
X10418277Y-10383984D02*
X10465896Y-10383984D01*
X10465896Y-10383984D02*
X10494467Y-10393508D01*
X10494467Y-10393508D02*
X10513515Y-10412555D01*
X10513515Y-10412555D02*
X10523039Y-10431603D01*
X10523039Y-10431603D02*
X10532563Y-10469698D01*
X10532563Y-10469698D02*
X10532563Y-10498270D01*
X10532563Y-10498270D02*
X10523039Y-10536365D01*
X10523039Y-10536365D02*
X10513515Y-10555412D01*
X10513515Y-10555412D02*
X10494467Y-10574460D01*
X10494467Y-10574460D02*
X10465896Y-10583984D01*
X10465896Y-10583984D02*
X10418277Y-10583984D01*
X10618277Y-10583984D02*
X10618277Y-10450650D01*
X10618277Y-10488746D02*
X10627801Y-10469698D01*
X10627801Y-10469698D02*
X10637324Y-10460174D01*
X10637324Y-10460174D02*
X10656372Y-10450650D01*
X10656372Y-10450650D02*
X10675420Y-10450650D01*
X10742086Y-10583984D02*
X10742086Y-10450650D01*
X10742086Y-10383984D02*
X10732563Y-10393508D01*
X10732563Y-10393508D02*
X10742086Y-10403031D01*
X10742086Y-10403031D02*
X10751610Y-10393508D01*
X10751610Y-10393508D02*
X10742086Y-10383984D01*
X10742086Y-10383984D02*
X10742086Y-10403031D01*
X10865896Y-10583984D02*
X10846848Y-10574460D01*
X10846848Y-10574460D02*
X10837324Y-10555412D01*
X10837324Y-10555412D02*
X10837324Y-10383984D01*
X10970658Y-10583984D02*
X10951610Y-10574460D01*
X10951610Y-10574460D02*
X10942086Y-10555412D01*
X10942086Y-10555412D02*
X10942086Y-10383984D01*
X11199229Y-10583984D02*
X11199229Y-10383984D01*
X11199229Y-10383984D02*
X11265896Y-10526841D01*
X11265896Y-10526841D02*
X11332562Y-10383984D01*
X11332562Y-10383984D02*
X11332562Y-10583984D01*
X11513515Y-10583984D02*
X11513515Y-10479222D01*
X11513515Y-10479222D02*
X11503991Y-10460174D01*
X11503991Y-10460174D02*
X11484943Y-10450650D01*
X11484943Y-10450650D02*
X11446848Y-10450650D01*
X11446848Y-10450650D02*
X11427801Y-10460174D01*
X11513515Y-10574460D02*
X11494467Y-10583984D01*
X11494467Y-10583984D02*
X11446848Y-10583984D01*
X11446848Y-10583984D02*
X11427801Y-10574460D01*
X11427801Y-10574460D02*
X11418277Y-10555412D01*
X11418277Y-10555412D02*
X11418277Y-10536365D01*
X11418277Y-10536365D02*
X11427801Y-10517317D01*
X11427801Y-10517317D02*
X11446848Y-10507793D01*
X11446848Y-10507793D02*
X11494467Y-10507793D01*
X11494467Y-10507793D02*
X11513515Y-10498270D01*
X11608753Y-10450650D02*
X11608753Y-10650650D01*
X11608753Y-10460174D02*
X11627801Y-10450650D01*
X11627801Y-10450650D02*
X11665896Y-10450650D01*
X11665896Y-10450650D02*
X11684943Y-10460174D01*
X11684943Y-10460174D02*
X11694467Y-10469698D01*
X11694467Y-10469698D02*
X11703991Y-10488746D01*
X11703991Y-10488746D02*
X11703991Y-10545889D01*
X11703991Y-10545889D02*
X11694467Y-10564936D01*
X11694467Y-10564936D02*
X11684943Y-10574460D01*
X11684943Y-10574460D02*
X11665896Y-10583984D01*
X11665896Y-10583984D02*
X11627801Y-10583984D01*
X11627801Y-10583984D02*
X11608753Y-10574460D01*
X11789705Y-10564936D02*
X11799229Y-10574460D01*
X11799229Y-10574460D02*
X11789705Y-10583984D01*
X11789705Y-10583984D02*
X11780182Y-10574460D01*
X11780182Y-10574460D02*
X11789705Y-10564936D01*
X11789705Y-10564936D02*
X11789705Y-10583984D01*
X11789705Y-10460174D02*
X11799229Y-10469698D01*
X11799229Y-10469698D02*
X11789705Y-10479222D01*
X11789705Y-10479222D02*
X11780182Y-10469698D01*
X11780182Y-10469698D02*
X11789705Y-10460174D01*
X11789705Y-10460174D02*
X11789705Y-10479222D01*
M02*
