M48
; DRILL file {KiCad (5.1.5)-3} date 30/01/2020 14:02:28
; FORMAT={2:4/ absolute / inch / suppress leading zeros}
; #@! TF.CreationDate,2020-01-30T14:02:28-05:00
; #@! TF.GenerationSoftware,Kicad,Pcbnew,(5.1.5)-3
FMAT,2
INCH,TZ
T1C0.0157
T2C0.0295
T3C0.0315
T4C0.0358
T5C0.0374
T6C0.0400
T7C0.1059
T8C0.1063
%
G90
G05
T1
X45370Y-35210
X51500Y-39516
X52500Y-35900
X52500Y-37250
X56200Y-30500
X57300Y-30500
X59000Y-30500
T2
X42180Y-44370
X42180Y-44870
X42180Y-45370
X47200Y-44320
X47200Y-44820
X47200Y-45320
X44700Y-44400
X44700Y-44900
X44700Y-45400
T3
X44710Y-42070
X44710Y-43070
X42190Y-42070
X42190Y-43070
X47210Y-42050
X47210Y-43050
T4
X60750Y-35500
X60750Y-36500
X60750Y-37500
X60750Y-38500
X60750Y-39500
X60750Y-40500
X60750Y-41500
X61750Y-35500
X61750Y-36500
X61750Y-37500
X61750Y-38500
X61750Y-39500
X61750Y-40500
X61750Y-41500
T5
X48844Y-34750
X49829Y-34750
X50813Y-34750
X51797Y-34750
X52781Y-34750
X53766Y-34750
X54750Y-34750
X54500Y-39531
X54500Y-40516
X54500Y-41500
X54500Y-42484
X54500Y-43469
X42750Y-47500
X43734Y-47500
X44719Y-47500
X45703Y-47500
X41563Y-32750
X42547Y-32750
X43531Y-32750
X44516Y-32750
X45500Y-32750
X51500Y-39516
X51500Y-40500
X51500Y-41484
X51500Y-42469
X51500Y-43453
X57500Y-39547
X57500Y-40531
X57500Y-41516
X57500Y-42500
X57500Y-43484
X48844Y-31750
X49829Y-31750
X50813Y-31750
X51797Y-31750
X52781Y-31750
X53766Y-31750
X54750Y-31750
T6
X40795Y-28075
X40795Y-29075
X41795Y-28075
X41795Y-29075
X42795Y-28075
X42795Y-29075
X43795Y-28075
X43795Y-29075
X44795Y-28075
X44795Y-29075
X45795Y-28075
X45795Y-29075
X46795Y-28075
X46795Y-29075
X47795Y-28075
X47795Y-29075
X48795Y-28075
X48795Y-29075
X49795Y-28075
X49795Y-29075
X50795Y-28075
X50795Y-29075
X51795Y-28075
X51795Y-29075
X52795Y-28075
X52795Y-29075
X53795Y-28075
X53795Y-29075
X54795Y-28075
X54795Y-29075
X55795Y-28075
X55795Y-29075
X56795Y-28075
X56795Y-29075
X57795Y-28075
X57795Y-29075
X58795Y-28075
X58795Y-29075
X59795Y-28075
X59795Y-29075
T7
X61250Y-32000
X61250Y-45000
T8
X61713Y-47866
X61713Y-28575
X38878Y-47866
X38878Y-28575
T0
M30
