M48
; DRILL file {KiCad 8.0.6} date 2025-02-19T13:51:34-0500
; FORMAT={-:-/ absolute / inch / decimal}
; #@! TF.CreationDate,2025-02-19T13:51:34-05:00
; #@! TF.GenerationSoftware,Kicad,Pcbnew,8.0.6
; #@! TF.FileFunction,Plated,1,2,PTH
FMAT,2
INCH
; #@! TA.AperFunction,Plated,PTH,ComponentDrill
T1C0.0350
; #@! TA.AperFunction,Plated,PTH,ComponentDrill
T2C0.0394
; #@! TA.AperFunction,Plated,PTH,ComponentDrill
T3C0.0551
; #@! TA.AperFunction,Plated,PTH,ComponentDrill
T4C0.0630
%
G90
G05
T1
X2.9415Y-3.4565
X2.9415Y-3.5565
X2.9415Y-3.6565
X2.9415Y-3.7565
X3.0415Y-3.5065
X3.0415Y-3.6065
X3.0415Y-3.7065
X3.0415Y-3.8065
T3
X3.7016Y-2.1484
X3.7421Y-4.363
X3.9016Y-2.1484
X3.9421Y-4.363
X4.6323Y-2.5252
X4.6323Y-2.7252
X4.6323Y-2.9252
X4.6323Y-3.1252
X4.6323Y-3.3252
X4.6323Y-3.5252
X4.6323Y-3.7252
X4.6323Y-3.9252
T4
X2.8116Y-3.3266
X2.8116Y-3.9364
T2
G00X2.5567Y-2.761
M15
G01X2.5567Y-2.8398
M16
G05
G00X2.6354Y-2.9854
M15
G01X2.7142Y-2.9854
M16
G05
G00X2.8008Y-2.7512
M15
G01X2.8008Y-2.8496
M16
G05
M30
