%TF.GenerationSoftware,KiCad,Pcbnew,8.0.6*%
%TF.CreationDate,2025-02-19T13:51:35-05:00*%
%TF.ProjectId,HB-IC,48422d49-432e-46b6-9963-61645f706362,rev?*%
%TF.SameCoordinates,Original*%
%TF.FileFunction,Drillmap*%
%TF.FilePolarity,Positive*%
%FSLAX45Y45*%
G04 Gerber Fmt 4.5, Leading zero omitted, Abs format (unit mm)*
G04 Created by KiCad (PCBNEW 8.0.6) date 2025-02-19 13:51:35*
%MOMM*%
%LPD*%
G01*
G04 APERTURE LIST*
%ADD10C,0.050000*%
%ADD11C,0.200000*%
%ADD12C,0.325000*%
G04 APERTURE END LIST*
D10*
X15752127Y-4413027D02*
X15752127Y-12203207D01*
D11*
X7772590Y-11152917D02*
G75*
G02*
X7422070Y-11152917I-175260J0D01*
G01*
X7422070Y-11152917D02*
G75*
G02*
X7772590Y-11152917I175260J0D01*
G01*
X6422456Y-11403234D02*
X5973000Y-11403234D01*
X6422456Y-11403234D02*
G75*
G02*
X6772972Y-11753754I0J-350516D01*
G01*
X6772973Y-4413027D02*
X15752127Y-4413027D01*
X6772973Y-4862470D02*
X6772973Y-4413027D01*
X6772973Y-4862470D02*
G75*
G02*
X6424565Y-5213000I-350537J0D01*
G01*
X15752127Y-12203207D02*
X6772973Y-12203207D01*
X7772590Y-5463317D02*
G75*
G02*
X7422070Y-5463317I-175260J0D01*
G01*
X7422070Y-5463317D02*
G75*
G02*
X7772590Y-5463317I175260J0D01*
G01*
X5973000Y-5213000D02*
X6424565Y-5213000D01*
X15103030Y-11152917D02*
G75*
G02*
X14752510Y-11152917I-175260J0D01*
G01*
X14752510Y-11152917D02*
G75*
G02*
X15103030Y-11152917I175260J0D01*
G01*
X6772973Y-12203207D02*
X6772973Y-11753754D01*
X15103030Y-5463317D02*
G75*
G02*
X14752510Y-5463317I-175260J0D01*
G01*
X14752510Y-5463317D02*
G75*
G02*
X15103030Y-5463317I175260J0D01*
G01*
X5973000Y-11403234D02*
X5973000Y-5213000D01*
D12*
X6674000Y-8490000D02*
X6999000Y-8815000D01*
X6999000Y-8490000D02*
X6674000Y-8815000D01*
X6674000Y-9633000D02*
X6999000Y-9958000D01*
X6999000Y-9633000D02*
X6674000Y-9958000D01*
D11*
X6223777Y-12524691D02*
X6223777Y-12324691D01*
X6223777Y-12324691D02*
X6271396Y-12324691D01*
X6271396Y-12324691D02*
X6299967Y-12334215D01*
X6299967Y-12334215D02*
X6319015Y-12353262D01*
X6319015Y-12353262D02*
X6328539Y-12372310D01*
X6328539Y-12372310D02*
X6338062Y-12410405D01*
X6338062Y-12410405D02*
X6338062Y-12438976D01*
X6338062Y-12438976D02*
X6328539Y-12477072D01*
X6328539Y-12477072D02*
X6319015Y-12496119D01*
X6319015Y-12496119D02*
X6299967Y-12515167D01*
X6299967Y-12515167D02*
X6271396Y-12524691D01*
X6271396Y-12524691D02*
X6223777Y-12524691D01*
X6423777Y-12524691D02*
X6423777Y-12391357D01*
X6423777Y-12429453D02*
X6433301Y-12410405D01*
X6433301Y-12410405D02*
X6442824Y-12400881D01*
X6442824Y-12400881D02*
X6461872Y-12391357D01*
X6461872Y-12391357D02*
X6480920Y-12391357D01*
X6547586Y-12524691D02*
X6547586Y-12391357D01*
X6547586Y-12324691D02*
X6538062Y-12334215D01*
X6538062Y-12334215D02*
X6547586Y-12343738D01*
X6547586Y-12343738D02*
X6557110Y-12334215D01*
X6557110Y-12334215D02*
X6547586Y-12324691D01*
X6547586Y-12324691D02*
X6547586Y-12343738D01*
X6671396Y-12524691D02*
X6652348Y-12515167D01*
X6652348Y-12515167D02*
X6642824Y-12496119D01*
X6642824Y-12496119D02*
X6642824Y-12324691D01*
X6776158Y-12524691D02*
X6757110Y-12515167D01*
X6757110Y-12515167D02*
X6747586Y-12496119D01*
X6747586Y-12496119D02*
X6747586Y-12324691D01*
X7004729Y-12524691D02*
X7004729Y-12324691D01*
X7004729Y-12324691D02*
X7071396Y-12467548D01*
X7071396Y-12467548D02*
X7138062Y-12324691D01*
X7138062Y-12324691D02*
X7138062Y-12524691D01*
X7319015Y-12524691D02*
X7319015Y-12419929D01*
X7319015Y-12419929D02*
X7309491Y-12400881D01*
X7309491Y-12400881D02*
X7290443Y-12391357D01*
X7290443Y-12391357D02*
X7252348Y-12391357D01*
X7252348Y-12391357D02*
X7233301Y-12400881D01*
X7319015Y-12515167D02*
X7299967Y-12524691D01*
X7299967Y-12524691D02*
X7252348Y-12524691D01*
X7252348Y-12524691D02*
X7233301Y-12515167D01*
X7233301Y-12515167D02*
X7223777Y-12496119D01*
X7223777Y-12496119D02*
X7223777Y-12477072D01*
X7223777Y-12477072D02*
X7233301Y-12458024D01*
X7233301Y-12458024D02*
X7252348Y-12448500D01*
X7252348Y-12448500D02*
X7299967Y-12448500D01*
X7299967Y-12448500D02*
X7319015Y-12438976D01*
X7414253Y-12391357D02*
X7414253Y-12591357D01*
X7414253Y-12400881D02*
X7433301Y-12391357D01*
X7433301Y-12391357D02*
X7471396Y-12391357D01*
X7471396Y-12391357D02*
X7490443Y-12400881D01*
X7490443Y-12400881D02*
X7499967Y-12410405D01*
X7499967Y-12410405D02*
X7509491Y-12429453D01*
X7509491Y-12429453D02*
X7509491Y-12486595D01*
X7509491Y-12486595D02*
X7499967Y-12505643D01*
X7499967Y-12505643D02*
X7490443Y-12515167D01*
X7490443Y-12515167D02*
X7471396Y-12524691D01*
X7471396Y-12524691D02*
X7433301Y-12524691D01*
X7433301Y-12524691D02*
X7414253Y-12515167D01*
X7595205Y-12505643D02*
X7604729Y-12515167D01*
X7604729Y-12515167D02*
X7595205Y-12524691D01*
X7595205Y-12524691D02*
X7585682Y-12515167D01*
X7585682Y-12515167D02*
X7595205Y-12505643D01*
X7595205Y-12505643D02*
X7595205Y-12524691D01*
X7595205Y-12400881D02*
X7604729Y-12410405D01*
X7604729Y-12410405D02*
X7595205Y-12419929D01*
X7595205Y-12419929D02*
X7585682Y-12410405D01*
X7585682Y-12410405D02*
X7595205Y-12400881D01*
X7595205Y-12400881D02*
X7595205Y-12419929D01*
X5763000Y-12753207D02*
X5963000Y-12953207D01*
X5963000Y-12753207D02*
X5763000Y-12953207D01*
X6204729Y-12744691D02*
X6328539Y-12744691D01*
X6328539Y-12744691D02*
X6261872Y-12820881D01*
X6261872Y-12820881D02*
X6290443Y-12820881D01*
X6290443Y-12820881D02*
X6309491Y-12830405D01*
X6309491Y-12830405D02*
X6319015Y-12839929D01*
X6319015Y-12839929D02*
X6328539Y-12858976D01*
X6328539Y-12858976D02*
X6328539Y-12906595D01*
X6328539Y-12906595D02*
X6319015Y-12925643D01*
X6319015Y-12925643D02*
X6309491Y-12935167D01*
X6309491Y-12935167D02*
X6290443Y-12944691D01*
X6290443Y-12944691D02*
X6233301Y-12944691D01*
X6233301Y-12944691D02*
X6214253Y-12935167D01*
X6214253Y-12935167D02*
X6204729Y-12925643D01*
X6414253Y-12925643D02*
X6423777Y-12935167D01*
X6423777Y-12935167D02*
X6414253Y-12944691D01*
X6414253Y-12944691D02*
X6404729Y-12935167D01*
X6404729Y-12935167D02*
X6414253Y-12925643D01*
X6414253Y-12925643D02*
X6414253Y-12944691D01*
X6499967Y-12763738D02*
X6509491Y-12754215D01*
X6509491Y-12754215D02*
X6528539Y-12744691D01*
X6528539Y-12744691D02*
X6576158Y-12744691D01*
X6576158Y-12744691D02*
X6595205Y-12754215D01*
X6595205Y-12754215D02*
X6604729Y-12763738D01*
X6604729Y-12763738D02*
X6614253Y-12782786D01*
X6614253Y-12782786D02*
X6614253Y-12801834D01*
X6614253Y-12801834D02*
X6604729Y-12830405D01*
X6604729Y-12830405D02*
X6490443Y-12944691D01*
X6490443Y-12944691D02*
X6614253Y-12944691D01*
X6795205Y-12744691D02*
X6699967Y-12744691D01*
X6699967Y-12744691D02*
X6690443Y-12839929D01*
X6690443Y-12839929D02*
X6699967Y-12830405D01*
X6699967Y-12830405D02*
X6719015Y-12820881D01*
X6719015Y-12820881D02*
X6766634Y-12820881D01*
X6766634Y-12820881D02*
X6785682Y-12830405D01*
X6785682Y-12830405D02*
X6795205Y-12839929D01*
X6795205Y-12839929D02*
X6804729Y-12858976D01*
X6804729Y-12858976D02*
X6804729Y-12906595D01*
X6804729Y-12906595D02*
X6795205Y-12925643D01*
X6795205Y-12925643D02*
X6785682Y-12935167D01*
X6785682Y-12935167D02*
X6766634Y-12944691D01*
X6766634Y-12944691D02*
X6719015Y-12944691D01*
X6719015Y-12944691D02*
X6699967Y-12935167D01*
X6699967Y-12935167D02*
X6690443Y-12925643D01*
X6928539Y-12744691D02*
X6947586Y-12744691D01*
X6947586Y-12744691D02*
X6966634Y-12754215D01*
X6966634Y-12754215D02*
X6976158Y-12763738D01*
X6976158Y-12763738D02*
X6985682Y-12782786D01*
X6985682Y-12782786D02*
X6995205Y-12820881D01*
X6995205Y-12820881D02*
X6995205Y-12868500D01*
X6995205Y-12868500D02*
X6985682Y-12906595D01*
X6985682Y-12906595D02*
X6976158Y-12925643D01*
X6976158Y-12925643D02*
X6966634Y-12935167D01*
X6966634Y-12935167D02*
X6947586Y-12944691D01*
X6947586Y-12944691D02*
X6928539Y-12944691D01*
X6928539Y-12944691D02*
X6909491Y-12935167D01*
X6909491Y-12935167D02*
X6899967Y-12925643D01*
X6899967Y-12925643D02*
X6890443Y-12906595D01*
X6890443Y-12906595D02*
X6880920Y-12868500D01*
X6880920Y-12868500D02*
X6880920Y-12820881D01*
X6880920Y-12820881D02*
X6890443Y-12782786D01*
X6890443Y-12782786D02*
X6899967Y-12763738D01*
X6899967Y-12763738D02*
X6909491Y-12754215D01*
X6909491Y-12754215D02*
X6928539Y-12744691D01*
X7080920Y-12944691D02*
X7080920Y-12811357D01*
X7080920Y-12830405D02*
X7090443Y-12820881D01*
X7090443Y-12820881D02*
X7109491Y-12811357D01*
X7109491Y-12811357D02*
X7138063Y-12811357D01*
X7138063Y-12811357D02*
X7157110Y-12820881D01*
X7157110Y-12820881D02*
X7166634Y-12839929D01*
X7166634Y-12839929D02*
X7166634Y-12944691D01*
X7166634Y-12839929D02*
X7176158Y-12820881D01*
X7176158Y-12820881D02*
X7195205Y-12811357D01*
X7195205Y-12811357D02*
X7223777Y-12811357D01*
X7223777Y-12811357D02*
X7242824Y-12820881D01*
X7242824Y-12820881D02*
X7252348Y-12839929D01*
X7252348Y-12839929D02*
X7252348Y-12944691D01*
X7347586Y-12944691D02*
X7347586Y-12811357D01*
X7347586Y-12830405D02*
X7357110Y-12820881D01*
X7357110Y-12820881D02*
X7376158Y-12811357D01*
X7376158Y-12811357D02*
X7404729Y-12811357D01*
X7404729Y-12811357D02*
X7423777Y-12820881D01*
X7423777Y-12820881D02*
X7433301Y-12839929D01*
X7433301Y-12839929D02*
X7433301Y-12944691D01*
X7433301Y-12839929D02*
X7442824Y-12820881D01*
X7442824Y-12820881D02*
X7461872Y-12811357D01*
X7461872Y-12811357D02*
X7490443Y-12811357D01*
X7490443Y-12811357D02*
X7509491Y-12820881D01*
X7509491Y-12820881D02*
X7519015Y-12839929D01*
X7519015Y-12839929D02*
X7519015Y-12944691D01*
X7909491Y-12735167D02*
X7738063Y-12992310D01*
X8166634Y-12744691D02*
X8185682Y-12744691D01*
X8185682Y-12744691D02*
X8204729Y-12754215D01*
X8204729Y-12754215D02*
X8214253Y-12763738D01*
X8214253Y-12763738D02*
X8223777Y-12782786D01*
X8223777Y-12782786D02*
X8233301Y-12820881D01*
X8233301Y-12820881D02*
X8233301Y-12868500D01*
X8233301Y-12868500D02*
X8223777Y-12906595D01*
X8223777Y-12906595D02*
X8214253Y-12925643D01*
X8214253Y-12925643D02*
X8204729Y-12935167D01*
X8204729Y-12935167D02*
X8185682Y-12944691D01*
X8185682Y-12944691D02*
X8166634Y-12944691D01*
X8166634Y-12944691D02*
X8147586Y-12935167D01*
X8147586Y-12935167D02*
X8138063Y-12925643D01*
X8138063Y-12925643D02*
X8128539Y-12906595D01*
X8128539Y-12906595D02*
X8119015Y-12868500D01*
X8119015Y-12868500D02*
X8119015Y-12820881D01*
X8119015Y-12820881D02*
X8128539Y-12782786D01*
X8128539Y-12782786D02*
X8138063Y-12763738D01*
X8138063Y-12763738D02*
X8147586Y-12754215D01*
X8147586Y-12754215D02*
X8166634Y-12744691D01*
X8319015Y-12925643D02*
X8328539Y-12935167D01*
X8328539Y-12935167D02*
X8319015Y-12944691D01*
X8319015Y-12944691D02*
X8309491Y-12935167D01*
X8309491Y-12935167D02*
X8319015Y-12925643D01*
X8319015Y-12925643D02*
X8319015Y-12944691D01*
X8519015Y-12944691D02*
X8404729Y-12944691D01*
X8461872Y-12944691D02*
X8461872Y-12744691D01*
X8461872Y-12744691D02*
X8442825Y-12773262D01*
X8442825Y-12773262D02*
X8423777Y-12792310D01*
X8423777Y-12792310D02*
X8404729Y-12801834D01*
X8595206Y-12763738D02*
X8604729Y-12754215D01*
X8604729Y-12754215D02*
X8623777Y-12744691D01*
X8623777Y-12744691D02*
X8671396Y-12744691D01*
X8671396Y-12744691D02*
X8690444Y-12754215D01*
X8690444Y-12754215D02*
X8699968Y-12763738D01*
X8699968Y-12763738D02*
X8709491Y-12782786D01*
X8709491Y-12782786D02*
X8709491Y-12801834D01*
X8709491Y-12801834D02*
X8699968Y-12830405D01*
X8699968Y-12830405D02*
X8585682Y-12944691D01*
X8585682Y-12944691D02*
X8709491Y-12944691D01*
X8823777Y-12830405D02*
X8804729Y-12820881D01*
X8804729Y-12820881D02*
X8795206Y-12811357D01*
X8795206Y-12811357D02*
X8785682Y-12792310D01*
X8785682Y-12792310D02*
X8785682Y-12782786D01*
X8785682Y-12782786D02*
X8795206Y-12763738D01*
X8795206Y-12763738D02*
X8804729Y-12754215D01*
X8804729Y-12754215D02*
X8823777Y-12744691D01*
X8823777Y-12744691D02*
X8861872Y-12744691D01*
X8861872Y-12744691D02*
X8880920Y-12754215D01*
X8880920Y-12754215D02*
X8890444Y-12763738D01*
X8890444Y-12763738D02*
X8899968Y-12782786D01*
X8899968Y-12782786D02*
X8899968Y-12792310D01*
X8899968Y-12792310D02*
X8890444Y-12811357D01*
X8890444Y-12811357D02*
X8880920Y-12820881D01*
X8880920Y-12820881D02*
X8861872Y-12830405D01*
X8861872Y-12830405D02*
X8823777Y-12830405D01*
X8823777Y-12830405D02*
X8804729Y-12839929D01*
X8804729Y-12839929D02*
X8795206Y-12849453D01*
X8795206Y-12849453D02*
X8785682Y-12868500D01*
X8785682Y-12868500D02*
X8785682Y-12906595D01*
X8785682Y-12906595D02*
X8795206Y-12925643D01*
X8795206Y-12925643D02*
X8804729Y-12935167D01*
X8804729Y-12935167D02*
X8823777Y-12944691D01*
X8823777Y-12944691D02*
X8861872Y-12944691D01*
X8861872Y-12944691D02*
X8880920Y-12935167D01*
X8880920Y-12935167D02*
X8890444Y-12925643D01*
X8890444Y-12925643D02*
X8899968Y-12906595D01*
X8899968Y-12906595D02*
X8899968Y-12868500D01*
X8899968Y-12868500D02*
X8890444Y-12849453D01*
X8890444Y-12849453D02*
X8880920Y-12839929D01*
X8880920Y-12839929D02*
X8861872Y-12830405D01*
X9023777Y-12744691D02*
X9042825Y-12744691D01*
X9042825Y-12744691D02*
X9061872Y-12754215D01*
X9061872Y-12754215D02*
X9071396Y-12763738D01*
X9071396Y-12763738D02*
X9080920Y-12782786D01*
X9080920Y-12782786D02*
X9090444Y-12820881D01*
X9090444Y-12820881D02*
X9090444Y-12868500D01*
X9090444Y-12868500D02*
X9080920Y-12906595D01*
X9080920Y-12906595D02*
X9071396Y-12925643D01*
X9071396Y-12925643D02*
X9061872Y-12935167D01*
X9061872Y-12935167D02*
X9042825Y-12944691D01*
X9042825Y-12944691D02*
X9023777Y-12944691D01*
X9023777Y-12944691D02*
X9004729Y-12935167D01*
X9004729Y-12935167D02*
X8995206Y-12925643D01*
X8995206Y-12925643D02*
X8985682Y-12906595D01*
X8985682Y-12906595D02*
X8976158Y-12868500D01*
X8976158Y-12868500D02*
X8976158Y-12820881D01*
X8976158Y-12820881D02*
X8985682Y-12782786D01*
X8985682Y-12782786D02*
X8995206Y-12763738D01*
X8995206Y-12763738D02*
X9004729Y-12754215D01*
X9004729Y-12754215D02*
X9023777Y-12744691D01*
X9166634Y-12744691D02*
X9166634Y-12782786D01*
X9242825Y-12744691D02*
X9242825Y-12782786D01*
X9538063Y-13020881D02*
X9528539Y-13011357D01*
X9528539Y-13011357D02*
X9509491Y-12982786D01*
X9509491Y-12982786D02*
X9499968Y-12963738D01*
X9499968Y-12963738D02*
X9490444Y-12935167D01*
X9490444Y-12935167D02*
X9480920Y-12887548D01*
X9480920Y-12887548D02*
X9480920Y-12849453D01*
X9480920Y-12849453D02*
X9490444Y-12801834D01*
X9490444Y-12801834D02*
X9499968Y-12773262D01*
X9499968Y-12773262D02*
X9509491Y-12754215D01*
X9509491Y-12754215D02*
X9528539Y-12725643D01*
X9528539Y-12725643D02*
X9538063Y-12716119D01*
X9604730Y-12763738D02*
X9614253Y-12754215D01*
X9614253Y-12754215D02*
X9633301Y-12744691D01*
X9633301Y-12744691D02*
X9680920Y-12744691D01*
X9680920Y-12744691D02*
X9699968Y-12754215D01*
X9699968Y-12754215D02*
X9709491Y-12763738D01*
X9709491Y-12763738D02*
X9719015Y-12782786D01*
X9719015Y-12782786D02*
X9719015Y-12801834D01*
X9719015Y-12801834D02*
X9709491Y-12830405D01*
X9709491Y-12830405D02*
X9595206Y-12944691D01*
X9595206Y-12944691D02*
X9719015Y-12944691D01*
X9957111Y-12944691D02*
X9957111Y-12744691D01*
X10042825Y-12944691D02*
X10042825Y-12839929D01*
X10042825Y-12839929D02*
X10033301Y-12820881D01*
X10033301Y-12820881D02*
X10014253Y-12811357D01*
X10014253Y-12811357D02*
X9985682Y-12811357D01*
X9985682Y-12811357D02*
X9966634Y-12820881D01*
X9966634Y-12820881D02*
X9957111Y-12830405D01*
X10166634Y-12944691D02*
X10147587Y-12935167D01*
X10147587Y-12935167D02*
X10138063Y-12925643D01*
X10138063Y-12925643D02*
X10128539Y-12906595D01*
X10128539Y-12906595D02*
X10128539Y-12849453D01*
X10128539Y-12849453D02*
X10138063Y-12830405D01*
X10138063Y-12830405D02*
X10147587Y-12820881D01*
X10147587Y-12820881D02*
X10166634Y-12811357D01*
X10166634Y-12811357D02*
X10195206Y-12811357D01*
X10195206Y-12811357D02*
X10214253Y-12820881D01*
X10214253Y-12820881D02*
X10223777Y-12830405D01*
X10223777Y-12830405D02*
X10233301Y-12849453D01*
X10233301Y-12849453D02*
X10233301Y-12906595D01*
X10233301Y-12906595D02*
X10223777Y-12925643D01*
X10223777Y-12925643D02*
X10214253Y-12935167D01*
X10214253Y-12935167D02*
X10195206Y-12944691D01*
X10195206Y-12944691D02*
X10166634Y-12944691D01*
X10347587Y-12944691D02*
X10328539Y-12935167D01*
X10328539Y-12935167D02*
X10319015Y-12916119D01*
X10319015Y-12916119D02*
X10319015Y-12744691D01*
X10499968Y-12935167D02*
X10480920Y-12944691D01*
X10480920Y-12944691D02*
X10442825Y-12944691D01*
X10442825Y-12944691D02*
X10423777Y-12935167D01*
X10423777Y-12935167D02*
X10414253Y-12916119D01*
X10414253Y-12916119D02*
X10414253Y-12839929D01*
X10414253Y-12839929D02*
X10423777Y-12820881D01*
X10423777Y-12820881D02*
X10442825Y-12811357D01*
X10442825Y-12811357D02*
X10480920Y-12811357D01*
X10480920Y-12811357D02*
X10499968Y-12820881D01*
X10499968Y-12820881D02*
X10509492Y-12839929D01*
X10509492Y-12839929D02*
X10509492Y-12858976D01*
X10509492Y-12858976D02*
X10414253Y-12878024D01*
X10585682Y-12935167D02*
X10604730Y-12944691D01*
X10604730Y-12944691D02*
X10642825Y-12944691D01*
X10642825Y-12944691D02*
X10661873Y-12935167D01*
X10661873Y-12935167D02*
X10671396Y-12916119D01*
X10671396Y-12916119D02*
X10671396Y-12906595D01*
X10671396Y-12906595D02*
X10661873Y-12887548D01*
X10661873Y-12887548D02*
X10642825Y-12878024D01*
X10642825Y-12878024D02*
X10614253Y-12878024D01*
X10614253Y-12878024D02*
X10595206Y-12868500D01*
X10595206Y-12868500D02*
X10585682Y-12849453D01*
X10585682Y-12849453D02*
X10585682Y-12839929D01*
X10585682Y-12839929D02*
X10595206Y-12820881D01*
X10595206Y-12820881D02*
X10614253Y-12811357D01*
X10614253Y-12811357D02*
X10642825Y-12811357D01*
X10642825Y-12811357D02*
X10661873Y-12820881D01*
X10738063Y-13020881D02*
X10747587Y-13011357D01*
X10747587Y-13011357D02*
X10766634Y-12982786D01*
X10766634Y-12982786D02*
X10776158Y-12963738D01*
X10776158Y-12963738D02*
X10785682Y-12935167D01*
X10785682Y-12935167D02*
X10795206Y-12887548D01*
X10795206Y-12887548D02*
X10795206Y-12849453D01*
X10795206Y-12849453D02*
X10785682Y-12801834D01*
X10785682Y-12801834D02*
X10776158Y-12773262D01*
X10776158Y-12773262D02*
X10766634Y-12754215D01*
X10766634Y-12754215D02*
X10747587Y-12725643D01*
X10747587Y-12725643D02*
X10738063Y-12716119D01*
X11099968Y-13020881D02*
X11090444Y-13011357D01*
X11090444Y-13011357D02*
X11071396Y-12982786D01*
X11071396Y-12982786D02*
X11061873Y-12963738D01*
X11061873Y-12963738D02*
X11052349Y-12935167D01*
X11052349Y-12935167D02*
X11042825Y-12887548D01*
X11042825Y-12887548D02*
X11042825Y-12849453D01*
X11042825Y-12849453D02*
X11052349Y-12801834D01*
X11052349Y-12801834D02*
X11061873Y-12773262D01*
X11061873Y-12773262D02*
X11071396Y-12754215D01*
X11071396Y-12754215D02*
X11090444Y-12725643D01*
X11090444Y-12725643D02*
X11099968Y-12716119D01*
X11176158Y-12811357D02*
X11176158Y-12944691D01*
X11176158Y-12830405D02*
X11185682Y-12820881D01*
X11185682Y-12820881D02*
X11204730Y-12811357D01*
X11204730Y-12811357D02*
X11233301Y-12811357D01*
X11233301Y-12811357D02*
X11252349Y-12820881D01*
X11252349Y-12820881D02*
X11261872Y-12839929D01*
X11261872Y-12839929D02*
X11261872Y-12944691D01*
X11385682Y-12944691D02*
X11366634Y-12935167D01*
X11366634Y-12935167D02*
X11357111Y-12925643D01*
X11357111Y-12925643D02*
X11347587Y-12906595D01*
X11347587Y-12906595D02*
X11347587Y-12849453D01*
X11347587Y-12849453D02*
X11357111Y-12830405D01*
X11357111Y-12830405D02*
X11366634Y-12820881D01*
X11366634Y-12820881D02*
X11385682Y-12811357D01*
X11385682Y-12811357D02*
X11414253Y-12811357D01*
X11414253Y-12811357D02*
X11433301Y-12820881D01*
X11433301Y-12820881D02*
X11442825Y-12830405D01*
X11442825Y-12830405D02*
X11452349Y-12849453D01*
X11452349Y-12849453D02*
X11452349Y-12906595D01*
X11452349Y-12906595D02*
X11442825Y-12925643D01*
X11442825Y-12925643D02*
X11433301Y-12935167D01*
X11433301Y-12935167D02*
X11414253Y-12944691D01*
X11414253Y-12944691D02*
X11385682Y-12944691D01*
X11509492Y-12811357D02*
X11585682Y-12811357D01*
X11538063Y-12744691D02*
X11538063Y-12916119D01*
X11538063Y-12916119D02*
X11547587Y-12935167D01*
X11547587Y-12935167D02*
X11566634Y-12944691D01*
X11566634Y-12944691D02*
X11585682Y-12944691D01*
X11804730Y-12811357D02*
X11804730Y-13011357D01*
X11804730Y-12820881D02*
X11823777Y-12811357D01*
X11823777Y-12811357D02*
X11861873Y-12811357D01*
X11861873Y-12811357D02*
X11880920Y-12820881D01*
X11880920Y-12820881D02*
X11890444Y-12830405D01*
X11890444Y-12830405D02*
X11899968Y-12849453D01*
X11899968Y-12849453D02*
X11899968Y-12906595D01*
X11899968Y-12906595D02*
X11890444Y-12925643D01*
X11890444Y-12925643D02*
X11880920Y-12935167D01*
X11880920Y-12935167D02*
X11861873Y-12944691D01*
X11861873Y-12944691D02*
X11823777Y-12944691D01*
X11823777Y-12944691D02*
X11804730Y-12935167D01*
X12014253Y-12944691D02*
X11995206Y-12935167D01*
X11995206Y-12935167D02*
X11985682Y-12916119D01*
X11985682Y-12916119D02*
X11985682Y-12744691D01*
X12176158Y-12944691D02*
X12176158Y-12839929D01*
X12176158Y-12839929D02*
X12166634Y-12820881D01*
X12166634Y-12820881D02*
X12147587Y-12811357D01*
X12147587Y-12811357D02*
X12109492Y-12811357D01*
X12109492Y-12811357D02*
X12090444Y-12820881D01*
X12176158Y-12935167D02*
X12157111Y-12944691D01*
X12157111Y-12944691D02*
X12109492Y-12944691D01*
X12109492Y-12944691D02*
X12090444Y-12935167D01*
X12090444Y-12935167D02*
X12080920Y-12916119D01*
X12080920Y-12916119D02*
X12080920Y-12897072D01*
X12080920Y-12897072D02*
X12090444Y-12878024D01*
X12090444Y-12878024D02*
X12109492Y-12868500D01*
X12109492Y-12868500D02*
X12157111Y-12868500D01*
X12157111Y-12868500D02*
X12176158Y-12858976D01*
X12242825Y-12811357D02*
X12319015Y-12811357D01*
X12271396Y-12744691D02*
X12271396Y-12916119D01*
X12271396Y-12916119D02*
X12280920Y-12935167D01*
X12280920Y-12935167D02*
X12299968Y-12944691D01*
X12299968Y-12944691D02*
X12319015Y-12944691D01*
X12461873Y-12935167D02*
X12442825Y-12944691D01*
X12442825Y-12944691D02*
X12404730Y-12944691D01*
X12404730Y-12944691D02*
X12385682Y-12935167D01*
X12385682Y-12935167D02*
X12376158Y-12916119D01*
X12376158Y-12916119D02*
X12376158Y-12839929D01*
X12376158Y-12839929D02*
X12385682Y-12820881D01*
X12385682Y-12820881D02*
X12404730Y-12811357D01*
X12404730Y-12811357D02*
X12442825Y-12811357D01*
X12442825Y-12811357D02*
X12461873Y-12820881D01*
X12461873Y-12820881D02*
X12471396Y-12839929D01*
X12471396Y-12839929D02*
X12471396Y-12858976D01*
X12471396Y-12858976D02*
X12376158Y-12878024D01*
X12642825Y-12944691D02*
X12642825Y-12744691D01*
X12642825Y-12935167D02*
X12623777Y-12944691D01*
X12623777Y-12944691D02*
X12585682Y-12944691D01*
X12585682Y-12944691D02*
X12566634Y-12935167D01*
X12566634Y-12935167D02*
X12557111Y-12925643D01*
X12557111Y-12925643D02*
X12547587Y-12906595D01*
X12547587Y-12906595D02*
X12547587Y-12849453D01*
X12547587Y-12849453D02*
X12557111Y-12830405D01*
X12557111Y-12830405D02*
X12566634Y-12820881D01*
X12566634Y-12820881D02*
X12585682Y-12811357D01*
X12585682Y-12811357D02*
X12623777Y-12811357D01*
X12623777Y-12811357D02*
X12642825Y-12820881D01*
X12719015Y-13020881D02*
X12728539Y-13011357D01*
X12728539Y-13011357D02*
X12747587Y-12982786D01*
X12747587Y-12982786D02*
X12757111Y-12963738D01*
X12757111Y-12963738D02*
X12766634Y-12935167D01*
X12766634Y-12935167D02*
X12776158Y-12887548D01*
X12776158Y-12887548D02*
X12776158Y-12849453D01*
X12776158Y-12849453D02*
X12766634Y-12801834D01*
X12766634Y-12801834D02*
X12757111Y-12773262D01*
X12757111Y-12773262D02*
X12747587Y-12754215D01*
X12747587Y-12754215D02*
X12728539Y-12725643D01*
X12728539Y-12725643D02*
X12719015Y-12716119D01*
M02*
