%TF.GenerationSoftware,KiCad,Pcbnew,8.0.6*%
%TF.CreationDate,2025-02-19T13:51:36-05:00*%
%TF.ProjectId,HB-IC,48422d49-432e-46b6-9963-61645f706362,rev?*%
%TF.SameCoordinates,Original*%
%TF.FileFunction,Copper,L1,Top*%
%TF.FilePolarity,Positive*%
%FSLAX46Y46*%
G04 Gerber Fmt 4.6, Leading zero omitted, Abs format (unit mm)*
G04 Created by KiCad (PCBNEW 8.0.6) date 2025-02-19 13:51:36*
%MOMM*%
%LPD*%
G01*
G04 APERTURE LIST*
G04 Aperture macros list*
%AMRoundRect*
0 Rectangle with rounded corners*
0 $1 Rounding radius*
0 $2 $3 $4 $5 $6 $7 $8 $9 X,Y pos of 4 corners*
0 Add a 4 corners polygon primitive as box body*
4,1,4,$2,$3,$4,$5,$6,$7,$8,$9,$2,$3,0*
0 Add four circle primitives for the rounded corners*
1,1,$1+$1,$2,$3*
1,1,$1+$1,$4,$5*
1,1,$1+$1,$6,$7*
1,1,$1+$1,$8,$9*
0 Add four rect primitives between the rounded corners*
20,1,$1+$1,$2,$3,$4,$5,0*
20,1,$1+$1,$4,$5,$6,$7,0*
20,1,$1+$1,$6,$7,$8,$9,0*
20,1,$1+$1,$8,$9,$2,$3,0*%
G04 Aperture macros list end*
%TA.AperFunction,ComponentPad*%
%ADD10RoundRect,0.249999X-0.790001X-1.550001X0.790001X-1.550001X0.790001X1.550001X-0.790001X1.550001X0*%
%TD*%
%TA.AperFunction,ComponentPad*%
%ADD11O,2.080000X3.600000*%
%TD*%
%TA.AperFunction,ComponentPad*%
%ADD12RoundRect,0.249999X-1.550001X0.790001X-1.550001X-0.790001X1.550001X-0.790001X1.550001X0.790001X0*%
%TD*%
%TA.AperFunction,ComponentPad*%
%ADD13O,3.600000X2.080000*%
%TD*%
%TA.AperFunction,ComponentPad*%
%ADD14R,2.000000X4.500000*%
%TD*%
%TA.AperFunction,ComponentPad*%
%ADD15O,2.000000X4.000000*%
%TD*%
%TA.AperFunction,ComponentPad*%
%ADD16O,4.000000X2.000000*%
%TD*%
%TA.AperFunction,ComponentPad*%
%ADD17R,1.800000X1.800000*%
%TD*%
%TA.AperFunction,ComponentPad*%
%ADD18C,1.800000*%
%TD*%
%TA.AperFunction,ComponentPad*%
%ADD19C,3.000000*%
%TD*%
%TA.AperFunction,Conductor*%
%ADD20C,0.200000*%
%TD*%
G04 APERTURE END LIST*
D10*
%TO.P,J4,1,Pin_1*%
%TO.N,V-Bat*%
X94020000Y-54570000D03*
D11*
%TO.P,J4,2,Pin_2*%
%TO.N,GND*%
X99100000Y-54570000D03*
%TD*%
D12*
%TO.P,J5,1,Pin_1*%
%TO.N,GND*%
X117660000Y-64140000D03*
D13*
%TO.P,J5,2,Pin_2*%
%TO.N,V-Bat*%
X117660000Y-69220000D03*
%TO.P,J5,3,Pin_3*%
%TO.N,V+*%
X117660000Y-74300000D03*
%TO.P,J5,4,Pin_4*%
%TO.N,GND*%
X117660000Y-79380000D03*
%TO.P,J5,5,Pin_5*%
%TO.N,RX-*%
X117660000Y-84460000D03*
%TO.P,J5,6,Pin_6*%
%TO.N,RX+*%
X117660000Y-89540000D03*
%TO.P,J5,7,Pin_7*%
%TO.N,TX-*%
X117660000Y-94620000D03*
%TO.P,J5,8,Pin_8*%
%TO.N,TX+*%
X117660000Y-99700000D03*
%TD*%
D10*
%TO.P,J3,1,Pin_1*%
%TO.N,V+*%
X95050000Y-110820000D03*
D11*
%TO.P,J3,2,Pin_2*%
%TO.N,GND*%
X100130000Y-110820000D03*
%TD*%
D14*
%TO.P,J2,1*%
%TO.N,V-Bat*%
X71140000Y-71130000D03*
D15*
%TO.P,J2,2*%
%TO.N,GND*%
X64940000Y-71130000D03*
D16*
%TO.P,J2,3*%
%TO.N,unconnected-(J2-Pad3)*%
X67940000Y-75830000D03*
%TD*%
D17*
%TO.P,J1,1*%
%TO.N,TX+*%
X74715000Y-87795000D03*
D18*
%TO.P,J1,2*%
%TO.N,TX-*%
X77255000Y-89065000D03*
%TO.P,J1,3*%
%TO.N,RX+*%
X74715000Y-90335000D03*
%TO.P,J1,4*%
%TO.N,unconnected-(J1-Pad4)*%
X77255000Y-91605000D03*
%TO.P,J1,5*%
%TO.N,unconnected-(J1-Pad5)*%
X74715000Y-92875000D03*
%TO.P,J1,6*%
%TO.N,RX-*%
X77255000Y-94145000D03*
%TO.P,J1,7*%
%TO.N,unconnected-(J1-Pad7)*%
X74715000Y-95415000D03*
%TO.P,J1,8*%
%TO.N,unconnected-(J1-Pad8)*%
X77255000Y-96685000D03*
D19*
%TO.P,J1,SH*%
%TO.N,unconnected-(J1-PadSH)*%
X71415000Y-84495000D03*
X71415000Y-99985000D03*
%TD*%
D20*
%TO.N,TX-*%
X101386051Y-93620000D02*
G75*
G02*
X101626100Y-93860000I49J-240000D01*
G01*
X98626051Y-93860000D02*
G75*
G02*
X98866051Y-93620051I239949J0D01*
G01*
X101026051Y-93860000D02*
G75*
G02*
X101266051Y-93620051I239949J0D01*
G01*
X100426051Y-95280000D02*
G75*
G03*
X100666051Y-95519949I239949J0D01*
G01*
X98026051Y-95280000D02*
G75*
G03*
X98266051Y-95519949I239949J0D01*
G01*
X99826051Y-93860000D02*
G75*
G02*
X100066051Y-93620051I239949J0D01*
G01*
X98986051Y-93620000D02*
G75*
G02*
X99226100Y-93860000I49J-240000D01*
G01*
X99586051Y-95520000D02*
G75*
G03*
X99826100Y-95280000I49J240000D01*
G01*
X100786051Y-95520000D02*
G75*
G03*
X101026100Y-95280000I49J240000D01*
G01*
X100186051Y-93620000D02*
G75*
G02*
X100426100Y-93860000I49J-240000D01*
G01*
X101626051Y-94380000D02*
G75*
G03*
X101866051Y-94619949I239949J0D01*
G01*
X97786051Y-93620000D02*
G75*
G02*
X98026100Y-93860000I49J-240000D01*
G01*
X97426051Y-93860000D02*
G75*
G02*
X97666051Y-93620051I239949J0D01*
G01*
X99226051Y-95280000D02*
G75*
G03*
X99466051Y-95519949I239949J0D01*
G01*
X97186051Y-94620000D02*
G75*
G03*
X97426100Y-94380000I49J240000D01*
G01*
X98386051Y-95520000D02*
G75*
G03*
X98626100Y-95280000I49J240000D01*
G01*
X102583290Y-94620000D02*
X117660000Y-94620000D01*
X100666051Y-95520000D02*
X100786051Y-95520000D01*
X98266051Y-95520000D02*
X98386051Y-95520000D01*
X101026051Y-94620000D02*
X101026051Y-94380000D01*
X99226051Y-94620000D02*
X99226051Y-95280000D01*
X100426051Y-94620000D02*
X100426051Y-95280000D01*
X98626051Y-95280000D02*
X98626051Y-94620000D01*
X101866051Y-94620000D02*
X101986051Y-94620000D01*
X101026051Y-94380000D02*
X101026051Y-93860000D01*
X100066051Y-93620000D02*
X100186051Y-93620000D01*
X101626051Y-93860000D02*
X101626051Y-94380000D01*
X99466051Y-95520000D02*
X99586051Y-95520000D01*
X98626051Y-94620000D02*
X98626051Y-93860000D01*
X99226051Y-93860000D02*
X99226051Y-94620000D01*
X82810000Y-94620000D02*
X97186051Y-94620000D01*
X101026051Y-95280000D02*
X101026051Y-94620000D01*
X101266051Y-93620000D02*
X101386051Y-93620000D01*
X98026051Y-94380000D02*
X98026051Y-94620000D01*
X98026051Y-93860000D02*
X98026051Y-94380000D01*
X100426051Y-93860000D02*
X100426051Y-94620000D01*
X101986051Y-94620000D02*
X102583290Y-94620000D01*
X98026051Y-94620000D02*
X98026051Y-95280000D01*
X99826051Y-95280000D02*
X99826051Y-94620000D01*
X97666051Y-93620000D02*
X97786051Y-93620000D01*
X97426051Y-94380000D02*
X97426051Y-93860000D01*
X99826051Y-94620000D02*
X99826051Y-93860000D01*
X77255000Y-89065000D02*
X82810000Y-94620000D01*
X98866051Y-93620000D02*
X98986051Y-93620000D01*
%TO.N,RX+*%
X96511397Y-87860000D02*
G75*
G03*
X96751400Y-87620000I3J240000D01*
G01*
X99511397Y-86860000D02*
G75*
G02*
X99751400Y-87100000I3J-240000D01*
G01*
X100111397Y-88860000D02*
G75*
G03*
X100351400Y-88620000I3J240000D01*
G01*
X99751397Y-88620000D02*
G75*
G03*
X99991397Y-88860003I240003J0D01*
G01*
X100351397Y-88100000D02*
G75*
G02*
X100591397Y-87859997I240003J0D01*
G01*
X98311397Y-86860000D02*
G75*
G02*
X98551400Y-87100000I3J-240000D01*
G01*
X97351397Y-88620000D02*
G75*
G03*
X97591397Y-88860003I240003J0D01*
G01*
X96751397Y-87100000D02*
G75*
G02*
X96991397Y-86859997I240003J0D01*
G01*
X97111397Y-86860000D02*
G75*
G02*
X97351400Y-87100000I3J-240000D01*
G01*
X99151397Y-87100000D02*
G75*
G02*
X99391397Y-86859997I240003J0D01*
G01*
X98911397Y-88860000D02*
G75*
G03*
X99151400Y-88620000I3J240000D01*
G01*
X97951397Y-87100000D02*
G75*
G02*
X98191397Y-86859997I240003J0D01*
G01*
X98551397Y-88620000D02*
G75*
G03*
X98791397Y-88860003I240003J0D01*
G01*
X97711397Y-88860000D02*
G75*
G03*
X97951400Y-88620000I3J240000D01*
G01*
X97351397Y-87620000D02*
X97351397Y-87860000D01*
X115980000Y-87860000D02*
X117660000Y-89540000D01*
X99151397Y-87860000D02*
X99151397Y-87100000D01*
X76055000Y-88995000D02*
X76055000Y-88567943D01*
X97591397Y-88860000D02*
X97711397Y-88860000D01*
X100351397Y-88620000D02*
X100351397Y-88100000D01*
X100591397Y-87860000D02*
X100711397Y-87860000D01*
X98191397Y-86860000D02*
X98311397Y-86860000D01*
X97951397Y-88620000D02*
X97951397Y-87860000D01*
X99751397Y-87100000D02*
X99751397Y-87860000D01*
X74715000Y-90335000D02*
X76055000Y-88995000D01*
X76055000Y-88567943D02*
X76762943Y-87860000D01*
X97351397Y-87100000D02*
X97351397Y-87620000D01*
X97351397Y-87860000D02*
X97351397Y-88620000D01*
X98551397Y-87100000D02*
X98551397Y-87860000D01*
X99751397Y-87860000D02*
X99751397Y-88100000D01*
X99391397Y-86860000D02*
X99511397Y-86860000D01*
X101479309Y-87860000D02*
X115980000Y-87860000D01*
X98551397Y-87860000D02*
X98551397Y-88620000D01*
X99991397Y-88860000D02*
X100111397Y-88860000D01*
X96991397Y-86860000D02*
X97111397Y-86860000D01*
X76762943Y-87860000D02*
X96511397Y-87860000D01*
X98791397Y-88860000D02*
X98911397Y-88860000D01*
X96751397Y-87620000D02*
X96751397Y-87100000D01*
X97951397Y-87860000D02*
X97951397Y-87100000D01*
X99151397Y-88620000D02*
X99151397Y-87860000D01*
X100711397Y-87860000D02*
X101479309Y-87860000D01*
X99751397Y-88100000D02*
X99751397Y-88620000D01*
%TO.N,TX+*%
X73330000Y-89180000D02*
X73330000Y-95727057D01*
X73330000Y-95727057D02*
X77302943Y-99700000D01*
X74715000Y-87795000D02*
X73330000Y-89180000D01*
X77302943Y-99700000D02*
X117660000Y-99700000D01*
%TO.N,RX-*%
X77255000Y-94145000D02*
X79070000Y-95960000D01*
X119940000Y-94995046D02*
X119940000Y-86740000D01*
X79070000Y-95960000D02*
X118975046Y-95960000D01*
X118975046Y-95960000D02*
X119940000Y-94995046D01*
X119940000Y-86740000D02*
X117660000Y-84460000D01*
%TD*%
M02*
