M48
; DRILL file {KiCad (5.1.5)-3} date 19/02/2020 08:51:47
; FORMAT={2:4/ absolute / inch / suppress leading zeros}
; #@! TF.CreationDate,2020-02-19T08:51:47-05:00
; #@! TF.GenerationSoftware,Kicad,Pcbnew,(5.1.5)-3
FMAT,2
INCH,TZ
T1C0.0157
T2C0.0295
T3C0.0315
T4C0.0354
T5C0.0358
T6C0.0394
T7C0.0512
T8C0.0591
T9C0.0630
T10C0.1000
T11C0.1059
T12C0.1063
%
G90
G05
T1
X12140Y-31870
X12200Y-37550
X12700Y-38810
X12971Y-31400
X14850Y-19630
X15520Y-24960
X19060Y-30820
X19640Y-23580
T2
X32900Y-22600
X32900Y-23100
X32900Y-23600
X27000Y-17500
X27000Y-18000
X27000Y-18500
X34800Y-22600
X34800Y-23100
X34800Y-23600
X23400Y-34600
X23400Y-35100
X23400Y-35600
T3
X26200Y-8631
X26200Y-10600
X30700Y-37116
X30700Y-38100
X40800Y-42490
X40800Y-43490
X38540Y-14710
X40509Y-14710
X38400Y-28600
X40369Y-28600
X20430Y-17710
X21430Y-17710
X27180Y-14980
X27180Y-15980
X38476Y-42820
X39460Y-42820
X37800Y-33700
X38800Y-33700
X25000Y-35500
X26000Y-35500
X31200Y-23500
X31200Y-24500
X24640Y-15160
X24640Y-16160
X24800Y-24631
X24800Y-26600
X39250Y-10000
X40234Y-10000
X27160Y-12960
X27160Y-13960
X17900Y-13580
X17900Y-14580
X22400Y-15500
X22400Y-16500
X14880Y-38090
X14880Y-39090
X14880Y-40090
X14880Y-41090
X17880Y-38090
X17880Y-39090
X17880Y-40090
X17880Y-41090
X33500Y-20016
X33500Y-21000
X39300Y-25300
X39300Y-27269
X40400Y-12200
X40400Y-13200
X24600Y-12031
X24600Y-14000
X25920Y-14100
X25920Y-15100
X25300Y-32700
X25300Y-33684
X25300Y-17500
X25300Y-18500
X36300Y-22600
X36300Y-23600
X19170Y-18341
X19170Y-20310
X38400Y-29700
X40369Y-29700
X37500Y-22600
X37500Y-23600
X22020Y-30871
X22020Y-32840
X26000Y-21016
X26000Y-22984
X40400Y-30700
X40400Y-31700
X38700Y-22600
X38700Y-23600
X22100Y-26351
X22100Y-28320
T4
X40200Y-22500
X40200Y-23500
X38400Y-30900
X38400Y-31900
X38900Y-12100
X38900Y-13100
X39960Y-40950
X40960Y-40950
X23100Y-13400
X23100Y-14400
T5
X10000Y-33000
X10000Y-34000
X10000Y-35000
X10000Y-36000
X10000Y-37000
X10000Y-38000
X10000Y-39000
X11000Y-33000
X11000Y-34000
X11000Y-35000
X11000Y-36000
X11000Y-37000
X11000Y-38000
X11000Y-39000
T6
X42750Y-18750
X43734Y-18750
X42750Y-35500
X43734Y-35500
X42750Y-14250
X43734Y-14250
X42750Y-23250
X43734Y-23250
X42750Y-37750
X43734Y-37750
X42750Y-25750
X43734Y-25750
X42750Y-40000
X43734Y-40000
X42750Y-30250
X43734Y-30250
X38300Y-36800
X40300Y-36800
X42750Y-28000
X43734Y-28000
X19400Y-13700
X21400Y-13700
X36500Y-21000
X37500Y-21000
X38500Y-21000
X33800Y-37000
X34800Y-37000
X35800Y-37000
X17431Y-10000
X19400Y-10000
X15000Y-44500
X16000Y-44500
X17000Y-44500
X18000Y-44500
X19000Y-44500
X42750Y-16500
X43734Y-16500
X42750Y-12000
X43734Y-12000
X42750Y-21000
X43734Y-21000
T7
X27800Y-26500
X27800Y-34500
X30800Y-34500
X31800Y-26500
X32800Y-34500
X35800Y-26500
X28781Y-21000
X30750Y-21000
X12000Y-14250
X12000Y-16250
X24250Y-42500
X26250Y-42500
X29266Y-41000
X31234Y-41000
X21500Y-10100
X23469Y-10100
X24600Y-28700
X24600Y-30669
T8
X29000Y-9500
X29000Y-17500
X32000Y-17500
X33000Y-9500
X34000Y-17500
X37000Y-9500
T9
X15500Y-12100
X15500Y-18100
T10
X9000Y-9000
X9000Y-46000
X46000Y-9000
X46000Y-46000
T11
X10500Y-29500
X10500Y-42500
T12
X19745Y-16307
X19745Y-39142
X39036Y-16307
X39036Y-39142
T0
M30
