G04 EAGLE Gerber RS-274X export*
G75*
%MOMM*%
%FSLAX34Y34*%
%LPD*%
%INBottom Silkscreen*%
%IPPOS*%
%AMOC8*
5,1,8,0,0,1.08239X$1,22.5*%
G01*
%ADD10C,0.200000*%
%ADD11C,0.100000*%
%ADD12C,0.101600*%
%ADD13C,0.254000*%
%ADD14C,0.152400*%
%ADD15C,0.050800*%
%ADD16C,0.025400*%


D10*
X60600Y93750D02*
X60600Y313450D01*
X30100Y313450D01*
X30100Y93750D01*
X60600Y93750D01*
D11*
X60600Y313450D01*
X30100Y313450D01*
X30100Y93750D01*
X60600Y93750D01*
X70600Y83750D02*
X70600Y323450D01*
X20100Y323450D01*
X20100Y83750D01*
X70600Y83750D01*
D12*
X51192Y199665D02*
X42104Y199665D01*
X42005Y199663D01*
X41905Y199657D01*
X41806Y199648D01*
X41708Y199635D01*
X41610Y199618D01*
X41512Y199597D01*
X41416Y199572D01*
X41321Y199544D01*
X41227Y199512D01*
X41134Y199477D01*
X41042Y199438D01*
X40952Y199395D01*
X40864Y199350D01*
X40777Y199300D01*
X40693Y199248D01*
X40610Y199192D01*
X40530Y199134D01*
X40452Y199072D01*
X40377Y199007D01*
X40304Y198939D01*
X40234Y198869D01*
X40166Y198796D01*
X40101Y198721D01*
X40039Y198643D01*
X39981Y198563D01*
X39925Y198480D01*
X39873Y198396D01*
X39823Y198309D01*
X39778Y198221D01*
X39735Y198131D01*
X39696Y198039D01*
X39661Y197946D01*
X39629Y197852D01*
X39601Y197757D01*
X39576Y197661D01*
X39555Y197563D01*
X39538Y197465D01*
X39525Y197367D01*
X39516Y197268D01*
X39510Y197168D01*
X39508Y197069D01*
X39508Y195770D01*
X48596Y204939D02*
X51192Y208184D01*
X39508Y208184D01*
X39508Y204939D02*
X39508Y211430D01*
D13*
X71319Y404507D02*
X219319Y404507D01*
X219319Y261507D01*
X71319Y261507D01*
X71319Y404507D01*
D14*
X107219Y389807D02*
X94519Y331307D01*
X107219Y389807D02*
X119919Y389807D01*
X132619Y331307D01*
X158019Y331307D02*
X170719Y389807D01*
X183419Y389807D01*
X196119Y331307D01*
D15*
X120719Y303607D02*
X120859Y303605D01*
X120999Y303599D01*
X121139Y303589D01*
X121279Y303576D01*
X121418Y303558D01*
X121557Y303536D01*
X121694Y303511D01*
X121832Y303482D01*
X121968Y303449D01*
X122103Y303412D01*
X122237Y303371D01*
X122370Y303326D01*
X122502Y303278D01*
X122632Y303226D01*
X122761Y303171D01*
X122888Y303112D01*
X123014Y303049D01*
X123138Y302983D01*
X123259Y302914D01*
X123379Y302841D01*
X123497Y302764D01*
X123612Y302685D01*
X123726Y302602D01*
X123836Y302516D01*
X123945Y302427D01*
X124051Y302335D01*
X124154Y302240D01*
X124255Y302143D01*
X124352Y302042D01*
X124447Y301939D01*
X124539Y301833D01*
X124628Y301724D01*
X124714Y301614D01*
X124797Y301500D01*
X124876Y301385D01*
X124953Y301267D01*
X125026Y301147D01*
X125095Y301026D01*
X125161Y300902D01*
X125224Y300776D01*
X125283Y300649D01*
X125338Y300520D01*
X125390Y300390D01*
X125438Y300258D01*
X125483Y300125D01*
X125524Y299991D01*
X125561Y299856D01*
X125594Y299720D01*
X125623Y299582D01*
X125648Y299445D01*
X125670Y299306D01*
X125688Y299167D01*
X125701Y299027D01*
X125711Y298887D01*
X125717Y298747D01*
X125719Y298607D01*
X125717Y298467D01*
X125711Y298327D01*
X125701Y298187D01*
X125688Y298047D01*
X125670Y297908D01*
X125648Y297769D01*
X125623Y297632D01*
X125594Y297494D01*
X125561Y297358D01*
X125524Y297223D01*
X125483Y297089D01*
X125438Y296956D01*
X125390Y296824D01*
X125338Y296694D01*
X125283Y296565D01*
X125224Y296438D01*
X125161Y296312D01*
X125095Y296188D01*
X125026Y296067D01*
X124953Y295947D01*
X124876Y295829D01*
X124797Y295714D01*
X124714Y295600D01*
X124628Y295490D01*
X124539Y295381D01*
X124447Y295275D01*
X124352Y295172D01*
X124255Y295071D01*
X124154Y294974D01*
X124051Y294879D01*
X123945Y294787D01*
X123836Y294698D01*
X123726Y294612D01*
X123612Y294529D01*
X123497Y294450D01*
X123379Y294373D01*
X123259Y294300D01*
X123138Y294231D01*
X123014Y294165D01*
X122888Y294102D01*
X122761Y294043D01*
X122632Y293988D01*
X122502Y293936D01*
X122370Y293888D01*
X122237Y293843D01*
X122103Y293802D01*
X121968Y293765D01*
X121832Y293732D01*
X121694Y293703D01*
X121557Y293678D01*
X121418Y293656D01*
X121279Y293638D01*
X121139Y293625D01*
X120999Y293615D01*
X120859Y293609D01*
X120719Y293607D01*
X120719Y303607D02*
X120859Y303609D01*
X120999Y303615D01*
X121139Y303625D01*
X121279Y303638D01*
X121418Y303656D01*
X121557Y303678D01*
X121694Y303703D01*
X121832Y303732D01*
X121968Y303765D01*
X122103Y303802D01*
X122237Y303843D01*
X122370Y303888D01*
X122502Y303936D01*
X122632Y303988D01*
X122761Y304043D01*
X122888Y304102D01*
X123014Y304165D01*
X123138Y304231D01*
X123259Y304300D01*
X123379Y304373D01*
X123497Y304450D01*
X123612Y304529D01*
X123726Y304612D01*
X123836Y304698D01*
X123945Y304787D01*
X124051Y304879D01*
X124154Y304974D01*
X124255Y305071D01*
X124352Y305172D01*
X124447Y305275D01*
X124539Y305381D01*
X124628Y305490D01*
X124714Y305600D01*
X124797Y305714D01*
X124876Y305829D01*
X124953Y305947D01*
X125026Y306067D01*
X125095Y306188D01*
X125161Y306312D01*
X125224Y306438D01*
X125283Y306565D01*
X125338Y306694D01*
X125390Y306824D01*
X125438Y306956D01*
X125483Y307089D01*
X125524Y307223D01*
X125561Y307358D01*
X125594Y307494D01*
X125623Y307632D01*
X125648Y307769D01*
X125670Y307908D01*
X125688Y308047D01*
X125701Y308187D01*
X125711Y308327D01*
X125717Y308467D01*
X125719Y308607D01*
X125717Y308747D01*
X125711Y308887D01*
X125701Y309027D01*
X125688Y309167D01*
X125670Y309306D01*
X125648Y309445D01*
X125623Y309582D01*
X125594Y309720D01*
X125561Y309856D01*
X125524Y309991D01*
X125483Y310125D01*
X125438Y310258D01*
X125390Y310390D01*
X125338Y310520D01*
X125283Y310649D01*
X125224Y310776D01*
X125161Y310902D01*
X125095Y311026D01*
X125026Y311147D01*
X124953Y311267D01*
X124876Y311385D01*
X124797Y311500D01*
X124714Y311614D01*
X124628Y311724D01*
X124539Y311833D01*
X124447Y311939D01*
X124352Y312042D01*
X124255Y312143D01*
X124154Y312240D01*
X124051Y312335D01*
X123945Y312427D01*
X123836Y312516D01*
X123726Y312602D01*
X123612Y312685D01*
X123497Y312764D01*
X123379Y312841D01*
X123259Y312914D01*
X123138Y312983D01*
X123014Y313049D01*
X122888Y313112D01*
X122761Y313171D01*
X122632Y313226D01*
X122502Y313278D01*
X122370Y313326D01*
X122237Y313371D01*
X122103Y313412D01*
X121968Y313449D01*
X121832Y313482D01*
X121694Y313511D01*
X121557Y313536D01*
X121418Y313558D01*
X121279Y313576D01*
X121139Y313589D01*
X120999Y313599D01*
X120859Y313605D01*
X120719Y313607D01*
X181969Y308607D02*
X181829Y308605D01*
X181689Y308599D01*
X181549Y308589D01*
X181409Y308576D01*
X181270Y308558D01*
X181131Y308536D01*
X180994Y308511D01*
X180856Y308482D01*
X180720Y308449D01*
X180585Y308412D01*
X180451Y308371D01*
X180318Y308326D01*
X180186Y308278D01*
X180056Y308226D01*
X179927Y308171D01*
X179800Y308112D01*
X179674Y308049D01*
X179550Y307983D01*
X179429Y307914D01*
X179309Y307841D01*
X179191Y307764D01*
X179076Y307685D01*
X178962Y307602D01*
X178852Y307516D01*
X178743Y307427D01*
X178637Y307335D01*
X178534Y307240D01*
X178433Y307143D01*
X178336Y307042D01*
X178241Y306939D01*
X178149Y306833D01*
X178060Y306724D01*
X177974Y306614D01*
X177891Y306500D01*
X177812Y306385D01*
X177735Y306267D01*
X177662Y306147D01*
X177593Y306026D01*
X177527Y305902D01*
X177464Y305776D01*
X177405Y305649D01*
X177350Y305520D01*
X177298Y305390D01*
X177250Y305258D01*
X177205Y305125D01*
X177164Y304991D01*
X177127Y304856D01*
X177094Y304720D01*
X177065Y304582D01*
X177040Y304445D01*
X177018Y304306D01*
X177000Y304167D01*
X176987Y304027D01*
X176977Y303887D01*
X176971Y303747D01*
X176969Y303607D01*
X176971Y303467D01*
X176977Y303327D01*
X176987Y303187D01*
X177000Y303047D01*
X177018Y302908D01*
X177040Y302769D01*
X177065Y302632D01*
X177094Y302494D01*
X177127Y302358D01*
X177164Y302223D01*
X177205Y302089D01*
X177250Y301956D01*
X177298Y301824D01*
X177350Y301694D01*
X177405Y301565D01*
X177464Y301438D01*
X177527Y301312D01*
X177593Y301188D01*
X177662Y301067D01*
X177735Y300947D01*
X177812Y300829D01*
X177891Y300714D01*
X177974Y300600D01*
X178060Y300490D01*
X178149Y300381D01*
X178241Y300275D01*
X178336Y300172D01*
X178433Y300071D01*
X178534Y299974D01*
X178637Y299879D01*
X178743Y299787D01*
X178852Y299698D01*
X178962Y299612D01*
X179076Y299529D01*
X179191Y299450D01*
X179309Y299373D01*
X179429Y299300D01*
X179550Y299231D01*
X179674Y299165D01*
X179800Y299102D01*
X179927Y299043D01*
X180056Y298988D01*
X180186Y298936D01*
X180318Y298888D01*
X180451Y298843D01*
X180585Y298802D01*
X180720Y298765D01*
X180856Y298732D01*
X180994Y298703D01*
X181131Y298678D01*
X181270Y298656D01*
X181409Y298638D01*
X181549Y298625D01*
X181689Y298615D01*
X181829Y298609D01*
X181969Y298607D01*
X179469Y293607D02*
X179225Y293610D01*
X178982Y293619D01*
X178739Y293634D01*
X178496Y293654D01*
X178254Y293681D01*
X178013Y293714D01*
X177773Y293752D01*
X177533Y293796D01*
X177295Y293846D01*
X177058Y293902D01*
X176822Y293964D01*
X176588Y294031D01*
X176356Y294104D01*
X176125Y294183D01*
X175897Y294267D01*
X175670Y294357D01*
X175446Y294452D01*
X175224Y294553D01*
X175005Y294659D01*
X174789Y294770D01*
X174575Y294887D01*
X174364Y295008D01*
X174156Y295135D01*
X173951Y295267D01*
X173750Y295404D01*
X173552Y295546D01*
X173357Y295692D01*
X173166Y295843D01*
X172979Y295999D01*
X172796Y296159D01*
X172616Y296324D01*
X172441Y296493D01*
X172270Y296666D01*
X172103Y296844D01*
X171941Y297025D01*
X171783Y297210D01*
X171629Y297399D01*
X171480Y297592D01*
X171336Y297788D01*
X171197Y297988D01*
X171062Y298191D01*
X170933Y298398D01*
X170809Y298607D01*
X170690Y298819D01*
X170576Y299035D01*
X170467Y299252D01*
X170364Y299473D01*
X170266Y299696D01*
X170173Y299921D01*
X170086Y300149D01*
X170005Y300378D01*
X169929Y300610D01*
X169859Y300843D01*
X169794Y301078D01*
X169735Y301314D01*
X169682Y301552D01*
X169635Y301791D01*
X169594Y302031D01*
X169559Y302272D01*
X169529Y302513D01*
X169505Y302756D01*
X169488Y302999D01*
X169476Y303242D01*
X169470Y303485D01*
X169470Y303729D01*
X169476Y303972D01*
X169488Y304215D01*
X169505Y304458D01*
X169529Y304701D01*
X169559Y304942D01*
X169594Y305183D01*
X169635Y305423D01*
X169682Y305662D01*
X169735Y305900D01*
X169794Y306136D01*
X169859Y306371D01*
X169929Y306604D01*
X170005Y306836D01*
X170086Y307065D01*
X170173Y307293D01*
X170266Y307518D01*
X170364Y307741D01*
X170467Y307962D01*
X170576Y308179D01*
X170690Y308395D01*
X170809Y308607D01*
X170933Y308816D01*
X171062Y309023D01*
X171197Y309226D01*
X171336Y309426D01*
X171480Y309622D01*
X171629Y309815D01*
X171783Y310004D01*
X171941Y310189D01*
X172103Y310370D01*
X172270Y310548D01*
X172441Y310721D01*
X172616Y310890D01*
X172796Y311055D01*
X172979Y311215D01*
X173166Y311371D01*
X173357Y311522D01*
X173552Y311668D01*
X173750Y311810D01*
X173951Y311947D01*
X174156Y312079D01*
X174364Y312206D01*
X174575Y312327D01*
X174789Y312444D01*
X175005Y312555D01*
X175224Y312661D01*
X175446Y312762D01*
X175670Y312857D01*
X175897Y312947D01*
X176125Y313031D01*
X176356Y313110D01*
X176588Y313183D01*
X176822Y313250D01*
X177058Y313312D01*
X177295Y313368D01*
X177533Y313418D01*
X177773Y313462D01*
X178013Y313500D01*
X178254Y313533D01*
X178496Y313560D01*
X178739Y313580D01*
X178982Y313595D01*
X179225Y313604D01*
X179469Y313607D01*
X181969Y298607D02*
X182422Y298552D01*
X182875Y298508D01*
X183330Y298475D01*
X183785Y298453D01*
X184241Y298442D01*
X184697Y298442D01*
X185153Y298453D01*
X185608Y298475D01*
X186063Y298508D01*
X186516Y298552D01*
X186969Y298607D01*
X187070Y294157D02*
X186233Y294017D01*
X185393Y293896D01*
X184551Y293796D01*
X183707Y293715D01*
X182861Y293653D01*
X182014Y293612D01*
X181166Y293590D01*
X180318Y293589D01*
X179470Y293607D01*
X179469Y313607D02*
X180014Y313598D01*
X180559Y313577D01*
X181104Y313543D01*
X181647Y313497D01*
X182190Y313438D01*
X182730Y313367D01*
X183269Y313284D01*
X183806Y313188D01*
X184341Y313080D01*
X184873Y312959D01*
X185402Y312827D01*
X185928Y312682D01*
X186450Y312525D01*
X186969Y312357D01*
X161969Y306107D02*
X162126Y306105D01*
X162283Y306099D01*
X162440Y306089D01*
X162596Y306075D01*
X162752Y306058D01*
X162908Y306036D01*
X163063Y306011D01*
X163217Y305981D01*
X163371Y305948D01*
X163523Y305911D01*
X163675Y305870D01*
X163826Y305825D01*
X163975Y305776D01*
X164123Y305724D01*
X164270Y305668D01*
X164415Y305608D01*
X164559Y305545D01*
X164701Y305478D01*
X164841Y305408D01*
X164980Y305334D01*
X165117Y305257D01*
X165251Y305176D01*
X165384Y305092D01*
X165514Y305004D01*
X165643Y304913D01*
X165769Y304819D01*
X165892Y304722D01*
X166013Y304622D01*
X166132Y304519D01*
X166247Y304413D01*
X166361Y304304D01*
X166471Y304192D01*
X166578Y304078D01*
X166683Y303961D01*
X166785Y303841D01*
X166883Y303719D01*
X166979Y303594D01*
X167071Y303467D01*
X167160Y303337D01*
X167246Y303206D01*
X167329Y303072D01*
X167408Y302937D01*
X167483Y302799D01*
X167556Y302659D01*
X167624Y302518D01*
X167689Y302375D01*
X167751Y302231D01*
X167809Y302085D01*
X167863Y301937D01*
X167913Y301788D01*
X167960Y301638D01*
X168003Y301487D01*
X168042Y301335D01*
X168077Y301182D01*
X168108Y301028D01*
X168136Y300873D01*
X168159Y300718D01*
X168179Y300562D01*
X168195Y300406D01*
X168207Y300249D01*
X168215Y300093D01*
X168219Y299936D01*
X168219Y299778D01*
X168215Y299621D01*
X168207Y299465D01*
X168195Y299308D01*
X168179Y299152D01*
X168159Y298996D01*
X168136Y298841D01*
X168108Y298686D01*
X168077Y298532D01*
X168042Y298379D01*
X168003Y298227D01*
X167960Y298076D01*
X167913Y297926D01*
X167863Y297777D01*
X167809Y297629D01*
X167751Y297483D01*
X167689Y297339D01*
X167624Y297196D01*
X167556Y297055D01*
X167483Y296915D01*
X167408Y296777D01*
X167329Y296642D01*
X167246Y296508D01*
X167160Y296377D01*
X167071Y296247D01*
X166979Y296120D01*
X166883Y295995D01*
X166785Y295873D01*
X166683Y295753D01*
X166578Y295636D01*
X166471Y295522D01*
X166361Y295410D01*
X166247Y295301D01*
X166132Y295195D01*
X166013Y295092D01*
X165892Y294992D01*
X165769Y294895D01*
X165643Y294801D01*
X165514Y294710D01*
X165384Y294622D01*
X165251Y294538D01*
X165117Y294457D01*
X164980Y294380D01*
X164841Y294306D01*
X164701Y294236D01*
X164559Y294169D01*
X164415Y294106D01*
X164270Y294046D01*
X164123Y293990D01*
X163975Y293938D01*
X163826Y293889D01*
X163675Y293844D01*
X163523Y293803D01*
X163371Y293766D01*
X163217Y293733D01*
X163063Y293703D01*
X162908Y293678D01*
X162752Y293656D01*
X162596Y293639D01*
X162440Y293625D01*
X162283Y293615D01*
X162126Y293609D01*
X161969Y293607D01*
X158219Y298607D02*
X158304Y298609D01*
X158390Y298615D01*
X158474Y298624D01*
X158559Y298638D01*
X158642Y298655D01*
X158725Y298677D01*
X158807Y298701D01*
X158887Y298730D01*
X158966Y298762D01*
X159044Y298798D01*
X159119Y298837D01*
X159193Y298880D01*
X159265Y298926D01*
X159335Y298975D01*
X159402Y299028D01*
X159467Y299083D01*
X159530Y299141D01*
X159589Y299202D01*
X159646Y299266D01*
X159700Y299332D01*
X159751Y299401D01*
X159798Y299472D01*
X159843Y299545D01*
X159884Y299619D01*
X159921Y299696D01*
X159955Y299774D01*
X159986Y299854D01*
X160012Y299935D01*
X160036Y300017D01*
X160055Y300101D01*
X160070Y300184D01*
X160082Y300269D01*
X160090Y300354D01*
X160094Y300439D01*
X160094Y300525D01*
X160090Y300610D01*
X160082Y300695D01*
X160070Y300780D01*
X160055Y300863D01*
X160036Y300947D01*
X160012Y301029D01*
X159986Y301110D01*
X159955Y301190D01*
X159921Y301268D01*
X159884Y301345D01*
X159843Y301420D01*
X159798Y301492D01*
X159751Y301563D01*
X159700Y301632D01*
X159646Y301698D01*
X159589Y301762D01*
X159530Y301823D01*
X159467Y301881D01*
X159402Y301936D01*
X159335Y301989D01*
X159265Y302038D01*
X159193Y302084D01*
X159119Y302127D01*
X159044Y302166D01*
X158966Y302202D01*
X158887Y302234D01*
X158807Y302263D01*
X158725Y302287D01*
X158642Y302309D01*
X158559Y302326D01*
X158474Y302340D01*
X158390Y302349D01*
X158304Y302355D01*
X158219Y302357D01*
X106969Y293607D02*
X106969Y313607D01*
X113219Y313607D01*
X113219Y303607D01*
X113219Y293607D01*
X106969Y293607D01*
X113219Y293607D02*
X120719Y298607D01*
X113219Y303607D01*
X120719Y308607D01*
X113219Y313607D01*
X120719Y313607D01*
X120719Y293607D02*
X113219Y293607D01*
X128219Y293607D02*
X128219Y313607D01*
X145719Y313607D01*
X145719Y308607D01*
X134469Y308607D01*
X134469Y306107D01*
X145719Y306107D01*
X145719Y301107D01*
X134469Y301107D01*
X134469Y298607D01*
X145719Y298607D01*
X145719Y293607D01*
X128219Y293607D01*
X148219Y293607D02*
X148219Y313607D01*
X154469Y313607D01*
X154469Y306107D01*
X159469Y313607D01*
X166969Y313607D01*
X161969Y306107D01*
X154469Y302357D02*
X154469Y298607D01*
X148219Y293607D02*
X161969Y293607D01*
X158219Y298607D02*
X154469Y298607D01*
X154469Y302357D02*
X158219Y302357D01*
X181969Y303607D02*
X186969Y303607D01*
X181969Y303607D02*
X181969Y308607D01*
X186919Y298607D02*
X186919Y294157D01*
X186969Y303607D02*
X186969Y312357D01*
D16*
X161028Y319070D02*
X159335Y319070D01*
X161028Y319070D02*
X161028Y322880D01*
X159335Y322880D01*
X159758Y321187D02*
X161028Y321187D01*
X155908Y322880D02*
X155908Y319070D01*
X154214Y319070D01*
X150787Y319070D02*
X149094Y319070D01*
X150787Y319070D02*
X150787Y322880D01*
X149094Y322880D01*
X149517Y321187D02*
X150787Y321187D01*
X144958Y319070D02*
X144111Y319070D01*
X144958Y319070D02*
X145013Y319072D01*
X145069Y319077D01*
X145123Y319086D01*
X145177Y319099D01*
X145230Y319115D01*
X145282Y319134D01*
X145333Y319157D01*
X145382Y319183D01*
X145429Y319213D01*
X145474Y319245D01*
X145516Y319280D01*
X145557Y319318D01*
X145595Y319359D01*
X145630Y319401D01*
X145662Y319446D01*
X145692Y319494D01*
X145718Y319542D01*
X145741Y319593D01*
X145760Y319645D01*
X145776Y319698D01*
X145789Y319752D01*
X145798Y319806D01*
X145803Y319862D01*
X145805Y319917D01*
X145804Y319917D02*
X145804Y322034D01*
X145805Y322034D02*
X145803Y322092D01*
X145797Y322149D01*
X145787Y322206D01*
X145774Y322263D01*
X145756Y322318D01*
X145735Y322371D01*
X145710Y322424D01*
X145682Y322474D01*
X145650Y322522D01*
X145615Y322569D01*
X145577Y322612D01*
X145536Y322653D01*
X145493Y322691D01*
X145446Y322726D01*
X145398Y322758D01*
X145348Y322786D01*
X145295Y322811D01*
X145242Y322832D01*
X145187Y322850D01*
X145130Y322863D01*
X145073Y322873D01*
X145016Y322879D01*
X144958Y322881D01*
X144958Y322880D02*
X144111Y322880D01*
X139982Y322880D02*
X139982Y319070D01*
X141040Y322880D02*
X138923Y322880D01*
X135533Y322880D02*
X135533Y319070D01*
X135533Y322880D02*
X134474Y322880D01*
X134410Y322878D01*
X134346Y322872D01*
X134283Y322863D01*
X134221Y322849D01*
X134159Y322832D01*
X134099Y322811D01*
X134040Y322787D01*
X133982Y322759D01*
X133927Y322727D01*
X133873Y322693D01*
X133822Y322655D01*
X133772Y322614D01*
X133726Y322570D01*
X133682Y322524D01*
X133641Y322474D01*
X133603Y322423D01*
X133569Y322369D01*
X133537Y322314D01*
X133509Y322256D01*
X133485Y322197D01*
X133464Y322137D01*
X133447Y322075D01*
X133433Y322013D01*
X133424Y321950D01*
X133418Y321886D01*
X133416Y321822D01*
X133418Y321758D01*
X133424Y321694D01*
X133433Y321631D01*
X133447Y321569D01*
X133464Y321507D01*
X133485Y321447D01*
X133509Y321388D01*
X133537Y321330D01*
X133569Y321275D01*
X133603Y321221D01*
X133641Y321170D01*
X133682Y321120D01*
X133726Y321074D01*
X133772Y321030D01*
X133822Y320989D01*
X133873Y320951D01*
X133927Y320917D01*
X133982Y320885D01*
X134040Y320857D01*
X134099Y320833D01*
X134159Y320812D01*
X134221Y320795D01*
X134283Y320781D01*
X134346Y320772D01*
X134410Y320766D01*
X134474Y320764D01*
X135533Y320764D01*
X134263Y320764D02*
X133416Y319070D01*
X129945Y320129D02*
X129945Y321822D01*
X129943Y321886D01*
X129937Y321950D01*
X129928Y322013D01*
X129914Y322075D01*
X129897Y322137D01*
X129876Y322197D01*
X129852Y322256D01*
X129824Y322314D01*
X129792Y322369D01*
X129758Y322423D01*
X129720Y322474D01*
X129679Y322524D01*
X129635Y322570D01*
X129589Y322614D01*
X129539Y322655D01*
X129488Y322693D01*
X129434Y322727D01*
X129379Y322759D01*
X129321Y322787D01*
X129262Y322811D01*
X129202Y322832D01*
X129140Y322849D01*
X129078Y322863D01*
X129015Y322872D01*
X128951Y322878D01*
X128887Y322880D01*
X128823Y322878D01*
X128759Y322872D01*
X128696Y322863D01*
X128634Y322849D01*
X128572Y322832D01*
X128512Y322811D01*
X128453Y322787D01*
X128395Y322759D01*
X128340Y322727D01*
X128286Y322693D01*
X128235Y322655D01*
X128185Y322614D01*
X128139Y322570D01*
X128095Y322524D01*
X128054Y322474D01*
X128016Y322423D01*
X127982Y322369D01*
X127950Y322314D01*
X127922Y322256D01*
X127898Y322197D01*
X127877Y322137D01*
X127860Y322075D01*
X127846Y322013D01*
X127837Y321950D01*
X127831Y321886D01*
X127829Y321822D01*
X127829Y320129D01*
X127831Y320065D01*
X127837Y320001D01*
X127846Y319938D01*
X127860Y319876D01*
X127877Y319814D01*
X127898Y319754D01*
X127922Y319695D01*
X127950Y319637D01*
X127982Y319582D01*
X128016Y319528D01*
X128054Y319477D01*
X128095Y319427D01*
X128139Y319381D01*
X128185Y319337D01*
X128235Y319296D01*
X128286Y319258D01*
X128340Y319224D01*
X128395Y319192D01*
X128453Y319164D01*
X128512Y319140D01*
X128572Y319119D01*
X128634Y319102D01*
X128696Y319088D01*
X128759Y319079D01*
X128823Y319073D01*
X128887Y319071D01*
X128951Y319073D01*
X129015Y319079D01*
X129078Y319088D01*
X129140Y319102D01*
X129202Y319119D01*
X129262Y319140D01*
X129321Y319164D01*
X129379Y319192D01*
X129434Y319224D01*
X129488Y319258D01*
X129539Y319296D01*
X129589Y319337D01*
X129635Y319381D01*
X129679Y319427D01*
X129720Y319477D01*
X129758Y319528D01*
X129792Y319582D01*
X129824Y319637D01*
X129852Y319695D01*
X129876Y319754D01*
X129897Y319814D01*
X129914Y319876D01*
X129928Y319938D01*
X129937Y320001D01*
X129943Y320065D01*
X129945Y320129D01*
X124215Y319070D02*
X124215Y322880D01*
X122099Y319070D01*
X122099Y322880D01*
X118158Y322880D02*
X118158Y319070D01*
X117735Y319070D02*
X118582Y319070D01*
X118582Y322880D02*
X117735Y322880D01*
X113503Y319070D02*
X112656Y319070D01*
X113503Y319070D02*
X113558Y319072D01*
X113614Y319077D01*
X113668Y319086D01*
X113722Y319099D01*
X113775Y319115D01*
X113827Y319134D01*
X113878Y319157D01*
X113927Y319183D01*
X113974Y319213D01*
X114019Y319245D01*
X114061Y319280D01*
X114102Y319318D01*
X114140Y319359D01*
X114175Y319401D01*
X114207Y319446D01*
X114237Y319494D01*
X114263Y319542D01*
X114286Y319593D01*
X114305Y319645D01*
X114321Y319698D01*
X114334Y319752D01*
X114343Y319806D01*
X114348Y319862D01*
X114350Y319917D01*
X114349Y319917D02*
X114349Y322034D01*
X114350Y322034D02*
X114348Y322092D01*
X114342Y322149D01*
X114332Y322206D01*
X114319Y322263D01*
X114301Y322318D01*
X114280Y322371D01*
X114255Y322424D01*
X114227Y322474D01*
X114195Y322522D01*
X114160Y322569D01*
X114122Y322612D01*
X114081Y322653D01*
X114038Y322691D01*
X113991Y322726D01*
X113943Y322758D01*
X113893Y322786D01*
X113840Y322811D01*
X113787Y322832D01*
X113732Y322850D01*
X113675Y322863D01*
X113618Y322873D01*
X113561Y322879D01*
X113503Y322881D01*
X113503Y322880D02*
X112656Y322880D01*
X108193Y319070D02*
X108138Y319072D01*
X108082Y319077D01*
X108028Y319086D01*
X107974Y319099D01*
X107921Y319115D01*
X107869Y319134D01*
X107818Y319157D01*
X107770Y319183D01*
X107722Y319213D01*
X107677Y319245D01*
X107635Y319280D01*
X107594Y319318D01*
X107556Y319359D01*
X107521Y319401D01*
X107489Y319446D01*
X107459Y319494D01*
X107433Y319542D01*
X107410Y319593D01*
X107391Y319645D01*
X107375Y319698D01*
X107362Y319752D01*
X107353Y319806D01*
X107348Y319862D01*
X107346Y319917D01*
X108193Y319070D02*
X108276Y319072D01*
X108359Y319078D01*
X108441Y319087D01*
X108523Y319101D01*
X108605Y319118D01*
X108685Y319139D01*
X108764Y319164D01*
X108843Y319192D01*
X108919Y319224D01*
X108994Y319260D01*
X109068Y319298D01*
X109139Y319341D01*
X109209Y319386D01*
X109276Y319435D01*
X109341Y319487D01*
X109403Y319542D01*
X109463Y319599D01*
X109358Y322034D02*
X109356Y322089D01*
X109351Y322145D01*
X109342Y322199D01*
X109329Y322253D01*
X109313Y322306D01*
X109294Y322358D01*
X109271Y322409D01*
X109245Y322458D01*
X109215Y322505D01*
X109183Y322550D01*
X109148Y322592D01*
X109110Y322633D01*
X109069Y322671D01*
X109027Y322706D01*
X108982Y322738D01*
X108935Y322768D01*
X108886Y322794D01*
X108835Y322817D01*
X108783Y322836D01*
X108730Y322852D01*
X108676Y322865D01*
X108622Y322874D01*
X108566Y322879D01*
X108511Y322881D01*
X108432Y322879D01*
X108354Y322873D01*
X108276Y322864D01*
X108199Y322850D01*
X108122Y322833D01*
X108046Y322811D01*
X107972Y322787D01*
X107898Y322758D01*
X107827Y322726D01*
X107757Y322690D01*
X107688Y322651D01*
X107622Y322609D01*
X107558Y322563D01*
X108934Y321293D02*
X108981Y321323D01*
X109026Y321356D01*
X109069Y321392D01*
X109109Y321430D01*
X109147Y321471D01*
X109182Y321514D01*
X109214Y321560D01*
X109244Y321607D01*
X109270Y321657D01*
X109293Y321708D01*
X109312Y321760D01*
X109328Y321813D01*
X109341Y321868D01*
X109350Y321923D01*
X109355Y321978D01*
X109357Y322034D01*
X107769Y320658D02*
X107722Y320628D01*
X107677Y320595D01*
X107634Y320559D01*
X107594Y320521D01*
X107556Y320480D01*
X107521Y320437D01*
X107489Y320391D01*
X107459Y320344D01*
X107433Y320294D01*
X107410Y320243D01*
X107391Y320191D01*
X107375Y320138D01*
X107362Y320083D01*
X107353Y320028D01*
X107348Y319973D01*
X107346Y319917D01*
X107770Y320658D02*
X108934Y321293D01*
D12*
X211960Y254481D02*
X219749Y242797D01*
X211960Y242797D02*
X219749Y254481D01*
X204100Y254481D02*
X203993Y254479D01*
X203887Y254473D01*
X203781Y254463D01*
X203675Y254450D01*
X203569Y254432D01*
X203465Y254411D01*
X203361Y254386D01*
X203258Y254357D01*
X203157Y254325D01*
X203057Y254288D01*
X202958Y254248D01*
X202860Y254205D01*
X202764Y254158D01*
X202670Y254107D01*
X202578Y254053D01*
X202488Y253996D01*
X202400Y253936D01*
X202315Y253872D01*
X202232Y253805D01*
X202151Y253735D01*
X202073Y253663D01*
X201997Y253587D01*
X201925Y253509D01*
X201855Y253428D01*
X201788Y253345D01*
X201724Y253260D01*
X201664Y253172D01*
X201607Y253082D01*
X201553Y252990D01*
X201502Y252896D01*
X201455Y252800D01*
X201412Y252702D01*
X201372Y252603D01*
X201335Y252503D01*
X201303Y252402D01*
X201274Y252299D01*
X201249Y252195D01*
X201228Y252091D01*
X201210Y251985D01*
X201197Y251879D01*
X201187Y251773D01*
X201181Y251667D01*
X201179Y251560D01*
X204100Y254481D02*
X204221Y254479D01*
X204342Y254473D01*
X204462Y254463D01*
X204583Y254450D01*
X204702Y254432D01*
X204822Y254411D01*
X204940Y254386D01*
X205057Y254357D01*
X205174Y254324D01*
X205289Y254288D01*
X205403Y254247D01*
X205516Y254204D01*
X205628Y254156D01*
X205737Y254105D01*
X205845Y254050D01*
X205952Y253992D01*
X206056Y253931D01*
X206158Y253866D01*
X206258Y253798D01*
X206356Y253727D01*
X206452Y253653D01*
X206545Y253576D01*
X206635Y253495D01*
X206723Y253412D01*
X206808Y253326D01*
X206891Y253237D01*
X206970Y253146D01*
X207047Y253052D01*
X207120Y252956D01*
X207190Y252858D01*
X207257Y252757D01*
X207321Y252654D01*
X207382Y252549D01*
X207439Y252442D01*
X207492Y252334D01*
X207542Y252224D01*
X207588Y252112D01*
X207631Y251999D01*
X207670Y251884D01*
X202153Y249288D02*
X202074Y249366D01*
X201998Y249446D01*
X201925Y249529D01*
X201855Y249615D01*
X201788Y249702D01*
X201724Y249793D01*
X201664Y249885D01*
X201606Y249979D01*
X201552Y250076D01*
X201502Y250174D01*
X201455Y250274D01*
X201411Y250375D01*
X201371Y250478D01*
X201335Y250583D01*
X201303Y250688D01*
X201274Y250795D01*
X201249Y250902D01*
X201227Y251011D01*
X201210Y251120D01*
X201196Y251229D01*
X201187Y251339D01*
X201181Y251450D01*
X201179Y251560D01*
X202153Y249288D02*
X207670Y242797D01*
X201179Y242797D01*
M02*
