G04 EAGLE Gerber RS-274X export*
G75*
%MOMM*%
%FSLAX34Y34*%
%LPD*%
%INMechanical*%
%IPPOS*%
%AMOC8*
5,1,8,0,0,1.08239X$1,22.5*%
G01*
%ADD10C,0.000000*%
%ADD11C,0.254000*%


D10*
X0Y0D02*
X710000Y0D01*
X710000Y64000D01*
X610000Y64000D01*
X610000Y342000D01*
X710000Y342000D01*
X710000Y406000D01*
X0Y406000D01*
X0Y0D01*
X16000Y375000D02*
X16005Y375393D01*
X16019Y375785D01*
X16043Y376177D01*
X16077Y376568D01*
X16120Y376959D01*
X16173Y377348D01*
X16236Y377735D01*
X16307Y378121D01*
X16389Y378506D01*
X16479Y378888D01*
X16580Y379267D01*
X16689Y379645D01*
X16808Y380019D01*
X16935Y380390D01*
X17072Y380758D01*
X17218Y381123D01*
X17373Y381484D01*
X17536Y381841D01*
X17708Y382194D01*
X17889Y382542D01*
X18079Y382886D01*
X18276Y383226D01*
X18482Y383560D01*
X18696Y383889D01*
X18919Y384213D01*
X19149Y384531D01*
X19386Y384844D01*
X19632Y385150D01*
X19885Y385451D01*
X20145Y385745D01*
X20412Y386033D01*
X20686Y386314D01*
X20967Y386588D01*
X21255Y386855D01*
X21549Y387115D01*
X21850Y387368D01*
X22156Y387614D01*
X22469Y387851D01*
X22787Y388081D01*
X23111Y388304D01*
X23440Y388518D01*
X23774Y388724D01*
X24114Y388921D01*
X24458Y389111D01*
X24806Y389292D01*
X25159Y389464D01*
X25516Y389627D01*
X25877Y389782D01*
X26242Y389928D01*
X26610Y390065D01*
X26981Y390192D01*
X27355Y390311D01*
X27733Y390420D01*
X28112Y390521D01*
X28494Y390611D01*
X28879Y390693D01*
X29265Y390764D01*
X29652Y390827D01*
X30041Y390880D01*
X30432Y390923D01*
X30823Y390957D01*
X31215Y390981D01*
X31607Y390995D01*
X32000Y391000D01*
X32393Y390995D01*
X32785Y390981D01*
X33177Y390957D01*
X33568Y390923D01*
X33959Y390880D01*
X34348Y390827D01*
X34735Y390764D01*
X35121Y390693D01*
X35506Y390611D01*
X35888Y390521D01*
X36267Y390420D01*
X36645Y390311D01*
X37019Y390192D01*
X37390Y390065D01*
X37758Y389928D01*
X38123Y389782D01*
X38484Y389627D01*
X38841Y389464D01*
X39194Y389292D01*
X39542Y389111D01*
X39886Y388921D01*
X40226Y388724D01*
X40560Y388518D01*
X40889Y388304D01*
X41213Y388081D01*
X41531Y387851D01*
X41844Y387614D01*
X42150Y387368D01*
X42451Y387115D01*
X42745Y386855D01*
X43033Y386588D01*
X43314Y386314D01*
X43588Y386033D01*
X43855Y385745D01*
X44115Y385451D01*
X44368Y385150D01*
X44614Y384844D01*
X44851Y384531D01*
X45081Y384213D01*
X45304Y383889D01*
X45518Y383560D01*
X45724Y383226D01*
X45921Y382886D01*
X46111Y382542D01*
X46292Y382194D01*
X46464Y381841D01*
X46627Y381484D01*
X46782Y381123D01*
X46928Y380758D01*
X47065Y380390D01*
X47192Y380019D01*
X47311Y379645D01*
X47420Y379267D01*
X47521Y378888D01*
X47611Y378506D01*
X47693Y378121D01*
X47764Y377735D01*
X47827Y377348D01*
X47880Y376959D01*
X47923Y376568D01*
X47957Y376177D01*
X47981Y375785D01*
X47995Y375393D01*
X48000Y375000D01*
X47995Y374607D01*
X47981Y374215D01*
X47957Y373823D01*
X47923Y373432D01*
X47880Y373041D01*
X47827Y372652D01*
X47764Y372265D01*
X47693Y371879D01*
X47611Y371494D01*
X47521Y371112D01*
X47420Y370733D01*
X47311Y370355D01*
X47192Y369981D01*
X47065Y369610D01*
X46928Y369242D01*
X46782Y368877D01*
X46627Y368516D01*
X46464Y368159D01*
X46292Y367806D01*
X46111Y367458D01*
X45921Y367114D01*
X45724Y366774D01*
X45518Y366440D01*
X45304Y366111D01*
X45081Y365787D01*
X44851Y365469D01*
X44614Y365156D01*
X44368Y364850D01*
X44115Y364549D01*
X43855Y364255D01*
X43588Y363967D01*
X43314Y363686D01*
X43033Y363412D01*
X42745Y363145D01*
X42451Y362885D01*
X42150Y362632D01*
X41844Y362386D01*
X41531Y362149D01*
X41213Y361919D01*
X40889Y361696D01*
X40560Y361482D01*
X40226Y361276D01*
X39886Y361079D01*
X39542Y360889D01*
X39194Y360708D01*
X38841Y360536D01*
X38484Y360373D01*
X38123Y360218D01*
X37758Y360072D01*
X37390Y359935D01*
X37019Y359808D01*
X36645Y359689D01*
X36267Y359580D01*
X35888Y359479D01*
X35506Y359389D01*
X35121Y359307D01*
X34735Y359236D01*
X34348Y359173D01*
X33959Y359120D01*
X33568Y359077D01*
X33177Y359043D01*
X32785Y359019D01*
X32393Y359005D01*
X32000Y359000D01*
X31607Y359005D01*
X31215Y359019D01*
X30823Y359043D01*
X30432Y359077D01*
X30041Y359120D01*
X29652Y359173D01*
X29265Y359236D01*
X28879Y359307D01*
X28494Y359389D01*
X28112Y359479D01*
X27733Y359580D01*
X27355Y359689D01*
X26981Y359808D01*
X26610Y359935D01*
X26242Y360072D01*
X25877Y360218D01*
X25516Y360373D01*
X25159Y360536D01*
X24806Y360708D01*
X24458Y360889D01*
X24114Y361079D01*
X23774Y361276D01*
X23440Y361482D01*
X23111Y361696D01*
X22787Y361919D01*
X22469Y362149D01*
X22156Y362386D01*
X21850Y362632D01*
X21549Y362885D01*
X21255Y363145D01*
X20967Y363412D01*
X20686Y363686D01*
X20412Y363967D01*
X20145Y364255D01*
X19885Y364549D01*
X19632Y364850D01*
X19386Y365156D01*
X19149Y365469D01*
X18919Y365787D01*
X18696Y366111D01*
X18482Y366440D01*
X18276Y366774D01*
X18079Y367114D01*
X17889Y367458D01*
X17708Y367806D01*
X17536Y368159D01*
X17373Y368516D01*
X17218Y368877D01*
X17072Y369242D01*
X16935Y369610D01*
X16808Y369981D01*
X16689Y370355D01*
X16580Y370733D01*
X16479Y371112D01*
X16389Y371494D01*
X16307Y371879D01*
X16236Y372265D01*
X16173Y372652D01*
X16120Y373041D01*
X16077Y373432D01*
X16043Y373823D01*
X16019Y374215D01*
X16005Y374607D01*
X16000Y375000D01*
X16000Y32000D02*
X16005Y32393D01*
X16019Y32785D01*
X16043Y33177D01*
X16077Y33568D01*
X16120Y33959D01*
X16173Y34348D01*
X16236Y34735D01*
X16307Y35121D01*
X16389Y35506D01*
X16479Y35888D01*
X16580Y36267D01*
X16689Y36645D01*
X16808Y37019D01*
X16935Y37390D01*
X17072Y37758D01*
X17218Y38123D01*
X17373Y38484D01*
X17536Y38841D01*
X17708Y39194D01*
X17889Y39542D01*
X18079Y39886D01*
X18276Y40226D01*
X18482Y40560D01*
X18696Y40889D01*
X18919Y41213D01*
X19149Y41531D01*
X19386Y41844D01*
X19632Y42150D01*
X19885Y42451D01*
X20145Y42745D01*
X20412Y43033D01*
X20686Y43314D01*
X20967Y43588D01*
X21255Y43855D01*
X21549Y44115D01*
X21850Y44368D01*
X22156Y44614D01*
X22469Y44851D01*
X22787Y45081D01*
X23111Y45304D01*
X23440Y45518D01*
X23774Y45724D01*
X24114Y45921D01*
X24458Y46111D01*
X24806Y46292D01*
X25159Y46464D01*
X25516Y46627D01*
X25877Y46782D01*
X26242Y46928D01*
X26610Y47065D01*
X26981Y47192D01*
X27355Y47311D01*
X27733Y47420D01*
X28112Y47521D01*
X28494Y47611D01*
X28879Y47693D01*
X29265Y47764D01*
X29652Y47827D01*
X30041Y47880D01*
X30432Y47923D01*
X30823Y47957D01*
X31215Y47981D01*
X31607Y47995D01*
X32000Y48000D01*
X32393Y47995D01*
X32785Y47981D01*
X33177Y47957D01*
X33568Y47923D01*
X33959Y47880D01*
X34348Y47827D01*
X34735Y47764D01*
X35121Y47693D01*
X35506Y47611D01*
X35888Y47521D01*
X36267Y47420D01*
X36645Y47311D01*
X37019Y47192D01*
X37390Y47065D01*
X37758Y46928D01*
X38123Y46782D01*
X38484Y46627D01*
X38841Y46464D01*
X39194Y46292D01*
X39542Y46111D01*
X39886Y45921D01*
X40226Y45724D01*
X40560Y45518D01*
X40889Y45304D01*
X41213Y45081D01*
X41531Y44851D01*
X41844Y44614D01*
X42150Y44368D01*
X42451Y44115D01*
X42745Y43855D01*
X43033Y43588D01*
X43314Y43314D01*
X43588Y43033D01*
X43855Y42745D01*
X44115Y42451D01*
X44368Y42150D01*
X44614Y41844D01*
X44851Y41531D01*
X45081Y41213D01*
X45304Y40889D01*
X45518Y40560D01*
X45724Y40226D01*
X45921Y39886D01*
X46111Y39542D01*
X46292Y39194D01*
X46464Y38841D01*
X46627Y38484D01*
X46782Y38123D01*
X46928Y37758D01*
X47065Y37390D01*
X47192Y37019D01*
X47311Y36645D01*
X47420Y36267D01*
X47521Y35888D01*
X47611Y35506D01*
X47693Y35121D01*
X47764Y34735D01*
X47827Y34348D01*
X47880Y33959D01*
X47923Y33568D01*
X47957Y33177D01*
X47981Y32785D01*
X47995Y32393D01*
X48000Y32000D01*
X47995Y31607D01*
X47981Y31215D01*
X47957Y30823D01*
X47923Y30432D01*
X47880Y30041D01*
X47827Y29652D01*
X47764Y29265D01*
X47693Y28879D01*
X47611Y28494D01*
X47521Y28112D01*
X47420Y27733D01*
X47311Y27355D01*
X47192Y26981D01*
X47065Y26610D01*
X46928Y26242D01*
X46782Y25877D01*
X46627Y25516D01*
X46464Y25159D01*
X46292Y24806D01*
X46111Y24458D01*
X45921Y24114D01*
X45724Y23774D01*
X45518Y23440D01*
X45304Y23111D01*
X45081Y22787D01*
X44851Y22469D01*
X44614Y22156D01*
X44368Y21850D01*
X44115Y21549D01*
X43855Y21255D01*
X43588Y20967D01*
X43314Y20686D01*
X43033Y20412D01*
X42745Y20145D01*
X42451Y19885D01*
X42150Y19632D01*
X41844Y19386D01*
X41531Y19149D01*
X41213Y18919D01*
X40889Y18696D01*
X40560Y18482D01*
X40226Y18276D01*
X39886Y18079D01*
X39542Y17889D01*
X39194Y17708D01*
X38841Y17536D01*
X38484Y17373D01*
X38123Y17218D01*
X37758Y17072D01*
X37390Y16935D01*
X37019Y16808D01*
X36645Y16689D01*
X36267Y16580D01*
X35888Y16479D01*
X35506Y16389D01*
X35121Y16307D01*
X34735Y16236D01*
X34348Y16173D01*
X33959Y16120D01*
X33568Y16077D01*
X33177Y16043D01*
X32785Y16019D01*
X32393Y16005D01*
X32000Y16000D01*
X31607Y16005D01*
X31215Y16019D01*
X30823Y16043D01*
X30432Y16077D01*
X30041Y16120D01*
X29652Y16173D01*
X29265Y16236D01*
X28879Y16307D01*
X28494Y16389D01*
X28112Y16479D01*
X27733Y16580D01*
X27355Y16689D01*
X26981Y16808D01*
X26610Y16935D01*
X26242Y17072D01*
X25877Y17218D01*
X25516Y17373D01*
X25159Y17536D01*
X24806Y17708D01*
X24458Y17889D01*
X24114Y18079D01*
X23774Y18276D01*
X23440Y18482D01*
X23111Y18696D01*
X22787Y18919D01*
X22469Y19149D01*
X22156Y19386D01*
X21850Y19632D01*
X21549Y19885D01*
X21255Y20145D01*
X20967Y20412D01*
X20686Y20686D01*
X20412Y20967D01*
X20145Y21255D01*
X19885Y21549D01*
X19632Y21850D01*
X19386Y22156D01*
X19149Y22469D01*
X18919Y22787D01*
X18696Y23111D01*
X18482Y23440D01*
X18276Y23774D01*
X18079Y24114D01*
X17889Y24458D01*
X17708Y24806D01*
X17536Y25159D01*
X17373Y25516D01*
X17218Y25877D01*
X17072Y26242D01*
X16935Y26610D01*
X16808Y26981D01*
X16689Y27355D01*
X16580Y27733D01*
X16479Y28112D01*
X16389Y28494D01*
X16307Y28879D01*
X16236Y29265D01*
X16173Y29652D01*
X16120Y30041D01*
X16077Y30432D01*
X16043Y30823D01*
X16019Y31215D01*
X16005Y31607D01*
X16000Y32000D01*
X664000Y32000D02*
X664005Y32393D01*
X664019Y32785D01*
X664043Y33177D01*
X664077Y33568D01*
X664120Y33959D01*
X664173Y34348D01*
X664236Y34735D01*
X664307Y35121D01*
X664389Y35506D01*
X664479Y35888D01*
X664580Y36267D01*
X664689Y36645D01*
X664808Y37019D01*
X664935Y37390D01*
X665072Y37758D01*
X665218Y38123D01*
X665373Y38484D01*
X665536Y38841D01*
X665708Y39194D01*
X665889Y39542D01*
X666079Y39886D01*
X666276Y40226D01*
X666482Y40560D01*
X666696Y40889D01*
X666919Y41213D01*
X667149Y41531D01*
X667386Y41844D01*
X667632Y42150D01*
X667885Y42451D01*
X668145Y42745D01*
X668412Y43033D01*
X668686Y43314D01*
X668967Y43588D01*
X669255Y43855D01*
X669549Y44115D01*
X669850Y44368D01*
X670156Y44614D01*
X670469Y44851D01*
X670787Y45081D01*
X671111Y45304D01*
X671440Y45518D01*
X671774Y45724D01*
X672114Y45921D01*
X672458Y46111D01*
X672806Y46292D01*
X673159Y46464D01*
X673516Y46627D01*
X673877Y46782D01*
X674242Y46928D01*
X674610Y47065D01*
X674981Y47192D01*
X675355Y47311D01*
X675733Y47420D01*
X676112Y47521D01*
X676494Y47611D01*
X676879Y47693D01*
X677265Y47764D01*
X677652Y47827D01*
X678041Y47880D01*
X678432Y47923D01*
X678823Y47957D01*
X679215Y47981D01*
X679607Y47995D01*
X680000Y48000D01*
X680393Y47995D01*
X680785Y47981D01*
X681177Y47957D01*
X681568Y47923D01*
X681959Y47880D01*
X682348Y47827D01*
X682735Y47764D01*
X683121Y47693D01*
X683506Y47611D01*
X683888Y47521D01*
X684267Y47420D01*
X684645Y47311D01*
X685019Y47192D01*
X685390Y47065D01*
X685758Y46928D01*
X686123Y46782D01*
X686484Y46627D01*
X686841Y46464D01*
X687194Y46292D01*
X687542Y46111D01*
X687886Y45921D01*
X688226Y45724D01*
X688560Y45518D01*
X688889Y45304D01*
X689213Y45081D01*
X689531Y44851D01*
X689844Y44614D01*
X690150Y44368D01*
X690451Y44115D01*
X690745Y43855D01*
X691033Y43588D01*
X691314Y43314D01*
X691588Y43033D01*
X691855Y42745D01*
X692115Y42451D01*
X692368Y42150D01*
X692614Y41844D01*
X692851Y41531D01*
X693081Y41213D01*
X693304Y40889D01*
X693518Y40560D01*
X693724Y40226D01*
X693921Y39886D01*
X694111Y39542D01*
X694292Y39194D01*
X694464Y38841D01*
X694627Y38484D01*
X694782Y38123D01*
X694928Y37758D01*
X695065Y37390D01*
X695192Y37019D01*
X695311Y36645D01*
X695420Y36267D01*
X695521Y35888D01*
X695611Y35506D01*
X695693Y35121D01*
X695764Y34735D01*
X695827Y34348D01*
X695880Y33959D01*
X695923Y33568D01*
X695957Y33177D01*
X695981Y32785D01*
X695995Y32393D01*
X696000Y32000D01*
X695995Y31607D01*
X695981Y31215D01*
X695957Y30823D01*
X695923Y30432D01*
X695880Y30041D01*
X695827Y29652D01*
X695764Y29265D01*
X695693Y28879D01*
X695611Y28494D01*
X695521Y28112D01*
X695420Y27733D01*
X695311Y27355D01*
X695192Y26981D01*
X695065Y26610D01*
X694928Y26242D01*
X694782Y25877D01*
X694627Y25516D01*
X694464Y25159D01*
X694292Y24806D01*
X694111Y24458D01*
X693921Y24114D01*
X693724Y23774D01*
X693518Y23440D01*
X693304Y23111D01*
X693081Y22787D01*
X692851Y22469D01*
X692614Y22156D01*
X692368Y21850D01*
X692115Y21549D01*
X691855Y21255D01*
X691588Y20967D01*
X691314Y20686D01*
X691033Y20412D01*
X690745Y20145D01*
X690451Y19885D01*
X690150Y19632D01*
X689844Y19386D01*
X689531Y19149D01*
X689213Y18919D01*
X688889Y18696D01*
X688560Y18482D01*
X688226Y18276D01*
X687886Y18079D01*
X687542Y17889D01*
X687194Y17708D01*
X686841Y17536D01*
X686484Y17373D01*
X686123Y17218D01*
X685758Y17072D01*
X685390Y16935D01*
X685019Y16808D01*
X684645Y16689D01*
X684267Y16580D01*
X683888Y16479D01*
X683506Y16389D01*
X683121Y16307D01*
X682735Y16236D01*
X682348Y16173D01*
X681959Y16120D01*
X681568Y16077D01*
X681177Y16043D01*
X680785Y16019D01*
X680393Y16005D01*
X680000Y16000D01*
X679607Y16005D01*
X679215Y16019D01*
X678823Y16043D01*
X678432Y16077D01*
X678041Y16120D01*
X677652Y16173D01*
X677265Y16236D01*
X676879Y16307D01*
X676494Y16389D01*
X676112Y16479D01*
X675733Y16580D01*
X675355Y16689D01*
X674981Y16808D01*
X674610Y16935D01*
X674242Y17072D01*
X673877Y17218D01*
X673516Y17373D01*
X673159Y17536D01*
X672806Y17708D01*
X672458Y17889D01*
X672114Y18079D01*
X671774Y18276D01*
X671440Y18482D01*
X671111Y18696D01*
X670787Y18919D01*
X670469Y19149D01*
X670156Y19386D01*
X669850Y19632D01*
X669549Y19885D01*
X669255Y20145D01*
X668967Y20412D01*
X668686Y20686D01*
X668412Y20967D01*
X668145Y21255D01*
X667885Y21549D01*
X667632Y21850D01*
X667386Y22156D01*
X667149Y22469D01*
X666919Y22787D01*
X666696Y23111D01*
X666482Y23440D01*
X666276Y23774D01*
X666079Y24114D01*
X665889Y24458D01*
X665708Y24806D01*
X665536Y25159D01*
X665373Y25516D01*
X665218Y25877D01*
X665072Y26242D01*
X664935Y26610D01*
X664808Y26981D01*
X664689Y27355D01*
X664580Y27733D01*
X664479Y28112D01*
X664389Y28494D01*
X664307Y28879D01*
X664236Y29265D01*
X664173Y29652D01*
X664120Y30041D01*
X664077Y30432D01*
X664043Y30823D01*
X664019Y31215D01*
X664005Y31607D01*
X664000Y32000D01*
X664000Y375000D02*
X664005Y375393D01*
X664019Y375785D01*
X664043Y376177D01*
X664077Y376568D01*
X664120Y376959D01*
X664173Y377348D01*
X664236Y377735D01*
X664307Y378121D01*
X664389Y378506D01*
X664479Y378888D01*
X664580Y379267D01*
X664689Y379645D01*
X664808Y380019D01*
X664935Y380390D01*
X665072Y380758D01*
X665218Y381123D01*
X665373Y381484D01*
X665536Y381841D01*
X665708Y382194D01*
X665889Y382542D01*
X666079Y382886D01*
X666276Y383226D01*
X666482Y383560D01*
X666696Y383889D01*
X666919Y384213D01*
X667149Y384531D01*
X667386Y384844D01*
X667632Y385150D01*
X667885Y385451D01*
X668145Y385745D01*
X668412Y386033D01*
X668686Y386314D01*
X668967Y386588D01*
X669255Y386855D01*
X669549Y387115D01*
X669850Y387368D01*
X670156Y387614D01*
X670469Y387851D01*
X670787Y388081D01*
X671111Y388304D01*
X671440Y388518D01*
X671774Y388724D01*
X672114Y388921D01*
X672458Y389111D01*
X672806Y389292D01*
X673159Y389464D01*
X673516Y389627D01*
X673877Y389782D01*
X674242Y389928D01*
X674610Y390065D01*
X674981Y390192D01*
X675355Y390311D01*
X675733Y390420D01*
X676112Y390521D01*
X676494Y390611D01*
X676879Y390693D01*
X677265Y390764D01*
X677652Y390827D01*
X678041Y390880D01*
X678432Y390923D01*
X678823Y390957D01*
X679215Y390981D01*
X679607Y390995D01*
X680000Y391000D01*
X680393Y390995D01*
X680785Y390981D01*
X681177Y390957D01*
X681568Y390923D01*
X681959Y390880D01*
X682348Y390827D01*
X682735Y390764D01*
X683121Y390693D01*
X683506Y390611D01*
X683888Y390521D01*
X684267Y390420D01*
X684645Y390311D01*
X685019Y390192D01*
X685390Y390065D01*
X685758Y389928D01*
X686123Y389782D01*
X686484Y389627D01*
X686841Y389464D01*
X687194Y389292D01*
X687542Y389111D01*
X687886Y388921D01*
X688226Y388724D01*
X688560Y388518D01*
X688889Y388304D01*
X689213Y388081D01*
X689531Y387851D01*
X689844Y387614D01*
X690150Y387368D01*
X690451Y387115D01*
X690745Y386855D01*
X691033Y386588D01*
X691314Y386314D01*
X691588Y386033D01*
X691855Y385745D01*
X692115Y385451D01*
X692368Y385150D01*
X692614Y384844D01*
X692851Y384531D01*
X693081Y384213D01*
X693304Y383889D01*
X693518Y383560D01*
X693724Y383226D01*
X693921Y382886D01*
X694111Y382542D01*
X694292Y382194D01*
X694464Y381841D01*
X694627Y381484D01*
X694782Y381123D01*
X694928Y380758D01*
X695065Y380390D01*
X695192Y380019D01*
X695311Y379645D01*
X695420Y379267D01*
X695521Y378888D01*
X695611Y378506D01*
X695693Y378121D01*
X695764Y377735D01*
X695827Y377348D01*
X695880Y376959D01*
X695923Y376568D01*
X695957Y376177D01*
X695981Y375785D01*
X695995Y375393D01*
X696000Y375000D01*
X695995Y374607D01*
X695981Y374215D01*
X695957Y373823D01*
X695923Y373432D01*
X695880Y373041D01*
X695827Y372652D01*
X695764Y372265D01*
X695693Y371879D01*
X695611Y371494D01*
X695521Y371112D01*
X695420Y370733D01*
X695311Y370355D01*
X695192Y369981D01*
X695065Y369610D01*
X694928Y369242D01*
X694782Y368877D01*
X694627Y368516D01*
X694464Y368159D01*
X694292Y367806D01*
X694111Y367458D01*
X693921Y367114D01*
X693724Y366774D01*
X693518Y366440D01*
X693304Y366111D01*
X693081Y365787D01*
X692851Y365469D01*
X692614Y365156D01*
X692368Y364850D01*
X692115Y364549D01*
X691855Y364255D01*
X691588Y363967D01*
X691314Y363686D01*
X691033Y363412D01*
X690745Y363145D01*
X690451Y362885D01*
X690150Y362632D01*
X689844Y362386D01*
X689531Y362149D01*
X689213Y361919D01*
X688889Y361696D01*
X688560Y361482D01*
X688226Y361276D01*
X687886Y361079D01*
X687542Y360889D01*
X687194Y360708D01*
X686841Y360536D01*
X686484Y360373D01*
X686123Y360218D01*
X685758Y360072D01*
X685390Y359935D01*
X685019Y359808D01*
X684645Y359689D01*
X684267Y359580D01*
X683888Y359479D01*
X683506Y359389D01*
X683121Y359307D01*
X682735Y359236D01*
X682348Y359173D01*
X681959Y359120D01*
X681568Y359077D01*
X681177Y359043D01*
X680785Y359019D01*
X680393Y359005D01*
X680000Y359000D01*
X679607Y359005D01*
X679215Y359019D01*
X678823Y359043D01*
X678432Y359077D01*
X678041Y359120D01*
X677652Y359173D01*
X677265Y359236D01*
X676879Y359307D01*
X676494Y359389D01*
X676112Y359479D01*
X675733Y359580D01*
X675355Y359689D01*
X674981Y359808D01*
X674610Y359935D01*
X674242Y360072D01*
X673877Y360218D01*
X673516Y360373D01*
X673159Y360536D01*
X672806Y360708D01*
X672458Y360889D01*
X672114Y361079D01*
X671774Y361276D01*
X671440Y361482D01*
X671111Y361696D01*
X670787Y361919D01*
X670469Y362149D01*
X670156Y362386D01*
X669850Y362632D01*
X669549Y362885D01*
X669255Y363145D01*
X668967Y363412D01*
X668686Y363686D01*
X668412Y363967D01*
X668145Y364255D01*
X667885Y364549D01*
X667632Y364850D01*
X667386Y365156D01*
X667149Y365469D01*
X666919Y365787D01*
X666696Y366111D01*
X666482Y366440D01*
X666276Y366774D01*
X666079Y367114D01*
X665889Y367458D01*
X665708Y367806D01*
X665536Y368159D01*
X665373Y368516D01*
X665218Y368877D01*
X665072Y369242D01*
X664935Y369610D01*
X664808Y369981D01*
X664689Y370355D01*
X664580Y370733D01*
X664479Y371112D01*
X664389Y371494D01*
X664307Y371879D01*
X664236Y372265D01*
X664173Y372652D01*
X664120Y373041D01*
X664077Y373432D01*
X664043Y373823D01*
X664019Y374215D01*
X664005Y374607D01*
X664000Y375000D01*
X68119Y302607D02*
X68122Y302889D01*
X68133Y303171D01*
X68150Y303453D01*
X68174Y303734D01*
X68205Y304015D01*
X68243Y304294D01*
X68288Y304573D01*
X68340Y304851D01*
X68398Y305127D01*
X68464Y305401D01*
X68536Y305674D01*
X68614Y305945D01*
X68699Y306214D01*
X68791Y306481D01*
X68890Y306746D01*
X68994Y307008D01*
X69106Y307267D01*
X69223Y307524D01*
X69347Y307778D01*
X69477Y308028D01*
X69613Y308275D01*
X69755Y308519D01*
X69903Y308759D01*
X70057Y308996D01*
X70217Y309229D01*
X70382Y309458D01*
X70553Y309682D01*
X70729Y309903D01*
X70911Y310118D01*
X71098Y310330D01*
X71290Y310537D01*
X71487Y310739D01*
X71689Y310936D01*
X71896Y311128D01*
X72108Y311315D01*
X72323Y311497D01*
X72544Y311673D01*
X72768Y311844D01*
X72997Y312009D01*
X73230Y312169D01*
X73467Y312323D01*
X73707Y312471D01*
X73951Y312613D01*
X74198Y312749D01*
X74448Y312879D01*
X74702Y313003D01*
X74959Y313120D01*
X75218Y313232D01*
X75480Y313336D01*
X75745Y313435D01*
X76012Y313527D01*
X76281Y313612D01*
X76552Y313690D01*
X76825Y313762D01*
X77099Y313828D01*
X77375Y313886D01*
X77653Y313938D01*
X77932Y313983D01*
X78211Y314021D01*
X78492Y314052D01*
X78773Y314076D01*
X79055Y314093D01*
X79337Y314104D01*
X79619Y314107D01*
X79901Y314104D01*
X80183Y314093D01*
X80465Y314076D01*
X80746Y314052D01*
X81027Y314021D01*
X81306Y313983D01*
X81585Y313938D01*
X81863Y313886D01*
X82139Y313828D01*
X82413Y313762D01*
X82686Y313690D01*
X82957Y313612D01*
X83226Y313527D01*
X83493Y313435D01*
X83758Y313336D01*
X84020Y313232D01*
X84279Y313120D01*
X84536Y313003D01*
X84790Y312879D01*
X85040Y312749D01*
X85287Y312613D01*
X85531Y312471D01*
X85771Y312323D01*
X86008Y312169D01*
X86241Y312009D01*
X86470Y311844D01*
X86694Y311673D01*
X86915Y311497D01*
X87130Y311315D01*
X87342Y311128D01*
X87549Y310936D01*
X87751Y310739D01*
X87948Y310537D01*
X88140Y310330D01*
X88327Y310118D01*
X88509Y309903D01*
X88685Y309682D01*
X88856Y309458D01*
X89021Y309229D01*
X89181Y308996D01*
X89335Y308759D01*
X89483Y308519D01*
X89625Y308275D01*
X89761Y308028D01*
X89891Y307778D01*
X90015Y307524D01*
X90132Y307267D01*
X90244Y307008D01*
X90348Y306746D01*
X90447Y306481D01*
X90539Y306214D01*
X90624Y305945D01*
X90702Y305674D01*
X90774Y305401D01*
X90840Y305127D01*
X90898Y304851D01*
X90950Y304573D01*
X90995Y304294D01*
X91033Y304015D01*
X91064Y303734D01*
X91088Y303453D01*
X91105Y303171D01*
X91116Y302889D01*
X91119Y302607D01*
X91116Y302325D01*
X91105Y302043D01*
X91088Y301761D01*
X91064Y301480D01*
X91033Y301199D01*
X90995Y300920D01*
X90950Y300641D01*
X90898Y300363D01*
X90840Y300087D01*
X90774Y299813D01*
X90702Y299540D01*
X90624Y299269D01*
X90539Y299000D01*
X90447Y298733D01*
X90348Y298468D01*
X90244Y298206D01*
X90132Y297947D01*
X90015Y297690D01*
X89891Y297436D01*
X89761Y297186D01*
X89625Y296939D01*
X89483Y296695D01*
X89335Y296455D01*
X89181Y296218D01*
X89021Y295985D01*
X88856Y295756D01*
X88685Y295532D01*
X88509Y295311D01*
X88327Y295096D01*
X88140Y294884D01*
X87948Y294677D01*
X87751Y294475D01*
X87549Y294278D01*
X87342Y294086D01*
X87130Y293899D01*
X86915Y293717D01*
X86694Y293541D01*
X86470Y293370D01*
X86241Y293205D01*
X86008Y293045D01*
X85771Y292891D01*
X85531Y292743D01*
X85287Y292601D01*
X85040Y292465D01*
X84790Y292335D01*
X84536Y292211D01*
X84279Y292094D01*
X84020Y291982D01*
X83758Y291878D01*
X83493Y291779D01*
X83226Y291687D01*
X82957Y291602D01*
X82686Y291524D01*
X82413Y291452D01*
X82139Y291386D01*
X81863Y291328D01*
X81585Y291276D01*
X81306Y291231D01*
X81027Y291193D01*
X80746Y291162D01*
X80465Y291138D01*
X80183Y291121D01*
X79901Y291110D01*
X79619Y291107D01*
X79337Y291110D01*
X79055Y291121D01*
X78773Y291138D01*
X78492Y291162D01*
X78211Y291193D01*
X77932Y291231D01*
X77653Y291276D01*
X77375Y291328D01*
X77099Y291386D01*
X76825Y291452D01*
X76552Y291524D01*
X76281Y291602D01*
X76012Y291687D01*
X75745Y291779D01*
X75480Y291878D01*
X75218Y291982D01*
X74959Y292094D01*
X74702Y292211D01*
X74448Y292335D01*
X74198Y292465D01*
X73951Y292601D01*
X73707Y292743D01*
X73467Y292891D01*
X73230Y293045D01*
X72997Y293205D01*
X72768Y293370D01*
X72544Y293541D01*
X72323Y293717D01*
X72108Y293899D01*
X71896Y294086D01*
X71689Y294278D01*
X71487Y294475D01*
X71290Y294677D01*
X71098Y294884D01*
X70911Y295096D01*
X70729Y295311D01*
X70553Y295532D01*
X70382Y295756D01*
X70217Y295985D01*
X70057Y296218D01*
X69903Y296455D01*
X69755Y296695D01*
X69613Y296939D01*
X69477Y297186D01*
X69347Y297436D01*
X69223Y297690D01*
X69106Y297947D01*
X68994Y298206D01*
X68890Y298468D01*
X68791Y298733D01*
X68699Y299000D01*
X68614Y299269D01*
X68536Y299540D01*
X68464Y299813D01*
X68398Y300087D01*
X68340Y300363D01*
X68288Y300641D01*
X68243Y300920D01*
X68205Y301199D01*
X68174Y301480D01*
X68150Y301761D01*
X68133Y302043D01*
X68122Y302325D01*
X68119Y302607D01*
X199519Y302607D02*
X199522Y302889D01*
X199533Y303171D01*
X199550Y303453D01*
X199574Y303734D01*
X199605Y304015D01*
X199643Y304294D01*
X199688Y304573D01*
X199740Y304851D01*
X199798Y305127D01*
X199864Y305401D01*
X199936Y305674D01*
X200014Y305945D01*
X200099Y306214D01*
X200191Y306481D01*
X200290Y306746D01*
X200394Y307008D01*
X200506Y307267D01*
X200623Y307524D01*
X200747Y307778D01*
X200877Y308028D01*
X201013Y308275D01*
X201155Y308519D01*
X201303Y308759D01*
X201457Y308996D01*
X201617Y309229D01*
X201782Y309458D01*
X201953Y309682D01*
X202129Y309903D01*
X202311Y310118D01*
X202498Y310330D01*
X202690Y310537D01*
X202887Y310739D01*
X203089Y310936D01*
X203296Y311128D01*
X203508Y311315D01*
X203723Y311497D01*
X203944Y311673D01*
X204168Y311844D01*
X204397Y312009D01*
X204630Y312169D01*
X204867Y312323D01*
X205107Y312471D01*
X205351Y312613D01*
X205598Y312749D01*
X205848Y312879D01*
X206102Y313003D01*
X206359Y313120D01*
X206618Y313232D01*
X206880Y313336D01*
X207145Y313435D01*
X207412Y313527D01*
X207681Y313612D01*
X207952Y313690D01*
X208225Y313762D01*
X208499Y313828D01*
X208775Y313886D01*
X209053Y313938D01*
X209332Y313983D01*
X209611Y314021D01*
X209892Y314052D01*
X210173Y314076D01*
X210455Y314093D01*
X210737Y314104D01*
X211019Y314107D01*
X211301Y314104D01*
X211583Y314093D01*
X211865Y314076D01*
X212146Y314052D01*
X212427Y314021D01*
X212706Y313983D01*
X212985Y313938D01*
X213263Y313886D01*
X213539Y313828D01*
X213813Y313762D01*
X214086Y313690D01*
X214357Y313612D01*
X214626Y313527D01*
X214893Y313435D01*
X215158Y313336D01*
X215420Y313232D01*
X215679Y313120D01*
X215936Y313003D01*
X216190Y312879D01*
X216440Y312749D01*
X216687Y312613D01*
X216931Y312471D01*
X217171Y312323D01*
X217408Y312169D01*
X217641Y312009D01*
X217870Y311844D01*
X218094Y311673D01*
X218315Y311497D01*
X218530Y311315D01*
X218742Y311128D01*
X218949Y310936D01*
X219151Y310739D01*
X219348Y310537D01*
X219540Y310330D01*
X219727Y310118D01*
X219909Y309903D01*
X220085Y309682D01*
X220256Y309458D01*
X220421Y309229D01*
X220581Y308996D01*
X220735Y308759D01*
X220883Y308519D01*
X221025Y308275D01*
X221161Y308028D01*
X221291Y307778D01*
X221415Y307524D01*
X221532Y307267D01*
X221644Y307008D01*
X221748Y306746D01*
X221847Y306481D01*
X221939Y306214D01*
X222024Y305945D01*
X222102Y305674D01*
X222174Y305401D01*
X222240Y305127D01*
X222298Y304851D01*
X222350Y304573D01*
X222395Y304294D01*
X222433Y304015D01*
X222464Y303734D01*
X222488Y303453D01*
X222505Y303171D01*
X222516Y302889D01*
X222519Y302607D01*
X222516Y302325D01*
X222505Y302043D01*
X222488Y301761D01*
X222464Y301480D01*
X222433Y301199D01*
X222395Y300920D01*
X222350Y300641D01*
X222298Y300363D01*
X222240Y300087D01*
X222174Y299813D01*
X222102Y299540D01*
X222024Y299269D01*
X221939Y299000D01*
X221847Y298733D01*
X221748Y298468D01*
X221644Y298206D01*
X221532Y297947D01*
X221415Y297690D01*
X221291Y297436D01*
X221161Y297186D01*
X221025Y296939D01*
X220883Y296695D01*
X220735Y296455D01*
X220581Y296218D01*
X220421Y295985D01*
X220256Y295756D01*
X220085Y295532D01*
X219909Y295311D01*
X219727Y295096D01*
X219540Y294884D01*
X219348Y294677D01*
X219151Y294475D01*
X218949Y294278D01*
X218742Y294086D01*
X218530Y293899D01*
X218315Y293717D01*
X218094Y293541D01*
X217870Y293370D01*
X217641Y293205D01*
X217408Y293045D01*
X217171Y292891D01*
X216931Y292743D01*
X216687Y292601D01*
X216440Y292465D01*
X216190Y292335D01*
X215936Y292211D01*
X215679Y292094D01*
X215420Y291982D01*
X215158Y291878D01*
X214893Y291779D01*
X214626Y291687D01*
X214357Y291602D01*
X214086Y291524D01*
X213813Y291452D01*
X213539Y291386D01*
X213263Y291328D01*
X212985Y291276D01*
X212706Y291231D01*
X212427Y291193D01*
X212146Y291162D01*
X211865Y291138D01*
X211583Y291121D01*
X211301Y291110D01*
X211019Y291107D01*
X210737Y291110D01*
X210455Y291121D01*
X210173Y291138D01*
X209892Y291162D01*
X209611Y291193D01*
X209332Y291231D01*
X209053Y291276D01*
X208775Y291328D01*
X208499Y291386D01*
X208225Y291452D01*
X207952Y291524D01*
X207681Y291602D01*
X207412Y291687D01*
X207145Y291779D01*
X206880Y291878D01*
X206618Y291982D01*
X206359Y292094D01*
X206102Y292211D01*
X205848Y292335D01*
X205598Y292465D01*
X205351Y292601D01*
X205107Y292743D01*
X204867Y292891D01*
X204630Y293045D01*
X204397Y293205D01*
X204168Y293370D01*
X203944Y293541D01*
X203723Y293717D01*
X203508Y293899D01*
X203296Y294086D01*
X203089Y294278D01*
X202887Y294475D01*
X202690Y294677D01*
X202498Y294884D01*
X202311Y295096D01*
X202129Y295311D01*
X201953Y295532D01*
X201782Y295756D01*
X201617Y295985D01*
X201457Y296218D01*
X201303Y296455D01*
X201155Y296695D01*
X201013Y296939D01*
X200877Y297186D01*
X200747Y297436D01*
X200623Y297690D01*
X200506Y297947D01*
X200394Y298206D01*
X200290Y298468D01*
X200191Y298733D01*
X200099Y299000D01*
X200014Y299269D01*
X199936Y299540D01*
X199864Y299813D01*
X199798Y300087D01*
X199740Y300363D01*
X199688Y300641D01*
X199643Y300920D01*
X199605Y301199D01*
X199574Y301480D01*
X199550Y301761D01*
X199533Y302043D01*
X199522Y302325D01*
X199519Y302607D01*
D11*
X0Y0D02*
X710000Y0D01*
X710000Y64000D01*
X610000Y64000D01*
X610000Y342000D01*
X710000Y342000D01*
X710000Y406000D01*
X0Y406000D01*
X0Y0D01*
X48000Y374476D02*
X47932Y373431D01*
X47795Y372392D01*
X47590Y371365D01*
X47319Y370353D01*
X46983Y369361D01*
X46582Y368393D01*
X46118Y367454D01*
X45595Y366546D01*
X45013Y365675D01*
X44375Y364844D01*
X43684Y364057D01*
X42943Y363316D01*
X42156Y362625D01*
X41325Y361988D01*
X40454Y361406D01*
X39546Y360882D01*
X38607Y360418D01*
X37639Y360017D01*
X36647Y359681D01*
X35635Y359410D01*
X34608Y359205D01*
X33569Y359069D01*
X32524Y359000D01*
X31476Y359000D01*
X30431Y359069D01*
X29392Y359205D01*
X28365Y359410D01*
X27353Y359681D01*
X26361Y360017D01*
X25393Y360418D01*
X24454Y360882D01*
X23546Y361406D01*
X22675Y361988D01*
X21844Y362625D01*
X21057Y363316D01*
X20316Y364057D01*
X19625Y364844D01*
X18988Y365675D01*
X18406Y366546D01*
X17882Y367454D01*
X17418Y368393D01*
X17017Y369361D01*
X16681Y370353D01*
X16410Y371365D01*
X16205Y372392D01*
X16069Y373431D01*
X16000Y374476D01*
X16000Y375524D01*
X16069Y376569D01*
X16205Y377608D01*
X16410Y378635D01*
X16681Y379647D01*
X17017Y380639D01*
X17418Y381607D01*
X17882Y382546D01*
X18406Y383454D01*
X18988Y384325D01*
X19625Y385156D01*
X20316Y385943D01*
X21057Y386684D01*
X21844Y387375D01*
X22675Y388013D01*
X23546Y388595D01*
X24454Y389118D01*
X25393Y389582D01*
X26361Y389983D01*
X27353Y390319D01*
X28365Y390590D01*
X29392Y390795D01*
X30431Y390932D01*
X31476Y391000D01*
X32524Y391000D01*
X33569Y390932D01*
X34608Y390795D01*
X35635Y390590D01*
X36647Y390319D01*
X37639Y389983D01*
X38607Y389582D01*
X39546Y389118D01*
X40454Y388595D01*
X41325Y388013D01*
X42156Y387375D01*
X42943Y386684D01*
X43684Y385943D01*
X44375Y385156D01*
X45013Y384325D01*
X45595Y383454D01*
X46118Y382546D01*
X46582Y381607D01*
X46983Y380639D01*
X47319Y379647D01*
X47590Y378635D01*
X47795Y377608D01*
X47932Y376569D01*
X48000Y375524D01*
X48000Y374476D01*
X48000Y31476D02*
X47932Y30431D01*
X47795Y29392D01*
X47590Y28365D01*
X47319Y27353D01*
X46983Y26361D01*
X46582Y25393D01*
X46118Y24454D01*
X45595Y23546D01*
X45013Y22675D01*
X44375Y21844D01*
X43684Y21057D01*
X42943Y20316D01*
X42156Y19625D01*
X41325Y18988D01*
X40454Y18406D01*
X39546Y17882D01*
X38607Y17418D01*
X37639Y17017D01*
X36647Y16681D01*
X35635Y16410D01*
X34608Y16205D01*
X33569Y16069D01*
X32524Y16000D01*
X31476Y16000D01*
X30431Y16069D01*
X29392Y16205D01*
X28365Y16410D01*
X27353Y16681D01*
X26361Y17017D01*
X25393Y17418D01*
X24454Y17882D01*
X23546Y18406D01*
X22675Y18988D01*
X21844Y19625D01*
X21057Y20316D01*
X20316Y21057D01*
X19625Y21844D01*
X18988Y22675D01*
X18406Y23546D01*
X17882Y24454D01*
X17418Y25393D01*
X17017Y26361D01*
X16681Y27353D01*
X16410Y28365D01*
X16205Y29392D01*
X16069Y30431D01*
X16000Y31476D01*
X16000Y32524D01*
X16069Y33569D01*
X16205Y34608D01*
X16410Y35635D01*
X16681Y36647D01*
X17017Y37639D01*
X17418Y38607D01*
X17882Y39546D01*
X18406Y40454D01*
X18988Y41325D01*
X19625Y42156D01*
X20316Y42943D01*
X21057Y43684D01*
X21844Y44375D01*
X22675Y45013D01*
X23546Y45595D01*
X24454Y46118D01*
X25393Y46582D01*
X26361Y46983D01*
X27353Y47319D01*
X28365Y47590D01*
X29392Y47795D01*
X30431Y47932D01*
X31476Y48000D01*
X32524Y48000D01*
X33569Y47932D01*
X34608Y47795D01*
X35635Y47590D01*
X36647Y47319D01*
X37639Y46983D01*
X38607Y46582D01*
X39546Y46118D01*
X40454Y45595D01*
X41325Y45013D01*
X42156Y44375D01*
X42943Y43684D01*
X43684Y42943D01*
X44375Y42156D01*
X45013Y41325D01*
X45595Y40454D01*
X46118Y39546D01*
X46582Y38607D01*
X46983Y37639D01*
X47319Y36647D01*
X47590Y35635D01*
X47795Y34608D01*
X47932Y33569D01*
X48000Y32524D01*
X48000Y31476D01*
X696000Y31476D02*
X695932Y30431D01*
X695795Y29392D01*
X695590Y28365D01*
X695319Y27353D01*
X694983Y26361D01*
X694582Y25393D01*
X694118Y24454D01*
X693595Y23546D01*
X693013Y22675D01*
X692375Y21844D01*
X691684Y21057D01*
X690943Y20316D01*
X690156Y19625D01*
X689325Y18988D01*
X688454Y18406D01*
X687546Y17882D01*
X686607Y17418D01*
X685639Y17017D01*
X684647Y16681D01*
X683635Y16410D01*
X682608Y16205D01*
X681569Y16069D01*
X680524Y16000D01*
X679476Y16000D01*
X678431Y16069D01*
X677392Y16205D01*
X676365Y16410D01*
X675353Y16681D01*
X674361Y17017D01*
X673393Y17418D01*
X672454Y17882D01*
X671546Y18406D01*
X670675Y18988D01*
X669844Y19625D01*
X669057Y20316D01*
X668316Y21057D01*
X667625Y21844D01*
X666988Y22675D01*
X666406Y23546D01*
X665882Y24454D01*
X665418Y25393D01*
X665017Y26361D01*
X664681Y27353D01*
X664410Y28365D01*
X664205Y29392D01*
X664069Y30431D01*
X664000Y31476D01*
X664000Y32524D01*
X664069Y33569D01*
X664205Y34608D01*
X664410Y35635D01*
X664681Y36647D01*
X665017Y37639D01*
X665418Y38607D01*
X665882Y39546D01*
X666406Y40454D01*
X666988Y41325D01*
X667625Y42156D01*
X668316Y42943D01*
X669057Y43684D01*
X669844Y44375D01*
X670675Y45013D01*
X671546Y45595D01*
X672454Y46118D01*
X673393Y46582D01*
X674361Y46983D01*
X675353Y47319D01*
X676365Y47590D01*
X677392Y47795D01*
X678431Y47932D01*
X679476Y48000D01*
X680524Y48000D01*
X681569Y47932D01*
X682608Y47795D01*
X683635Y47590D01*
X684647Y47319D01*
X685639Y46983D01*
X686607Y46582D01*
X687546Y46118D01*
X688454Y45595D01*
X689325Y45013D01*
X690156Y44375D01*
X690943Y43684D01*
X691684Y42943D01*
X692375Y42156D01*
X693013Y41325D01*
X693595Y40454D01*
X694118Y39546D01*
X694582Y38607D01*
X694983Y37639D01*
X695319Y36647D01*
X695590Y35635D01*
X695795Y34608D01*
X695932Y33569D01*
X696000Y32524D01*
X696000Y31476D01*
X696000Y374476D02*
X695932Y373431D01*
X695795Y372392D01*
X695590Y371365D01*
X695319Y370353D01*
X694983Y369361D01*
X694582Y368393D01*
X694118Y367454D01*
X693595Y366546D01*
X693013Y365675D01*
X692375Y364844D01*
X691684Y364057D01*
X690943Y363316D01*
X690156Y362625D01*
X689325Y361988D01*
X688454Y361406D01*
X687546Y360882D01*
X686607Y360418D01*
X685639Y360017D01*
X684647Y359681D01*
X683635Y359410D01*
X682608Y359205D01*
X681569Y359069D01*
X680524Y359000D01*
X679476Y359000D01*
X678431Y359069D01*
X677392Y359205D01*
X676365Y359410D01*
X675353Y359681D01*
X674361Y360017D01*
X673393Y360418D01*
X672454Y360882D01*
X671546Y361406D01*
X670675Y361988D01*
X669844Y362625D01*
X669057Y363316D01*
X668316Y364057D01*
X667625Y364844D01*
X666988Y365675D01*
X666406Y366546D01*
X665882Y367454D01*
X665418Y368393D01*
X665017Y369361D01*
X664681Y370353D01*
X664410Y371365D01*
X664205Y372392D01*
X664069Y373431D01*
X664000Y374476D01*
X664000Y375524D01*
X664069Y376569D01*
X664205Y377608D01*
X664410Y378635D01*
X664681Y379647D01*
X665017Y380639D01*
X665418Y381607D01*
X665882Y382546D01*
X666406Y383454D01*
X666988Y384325D01*
X667625Y385156D01*
X668316Y385943D01*
X669057Y386684D01*
X669844Y387375D01*
X670675Y388013D01*
X671546Y388595D01*
X672454Y389118D01*
X673393Y389582D01*
X674361Y389983D01*
X675353Y390319D01*
X676365Y390590D01*
X677392Y390795D01*
X678431Y390932D01*
X679476Y391000D01*
X680524Y391000D01*
X681569Y390932D01*
X682608Y390795D01*
X683635Y390590D01*
X684647Y390319D01*
X685639Y389983D01*
X686607Y389582D01*
X687546Y389118D01*
X688454Y388595D01*
X689325Y388013D01*
X690156Y387375D01*
X690943Y386684D01*
X691684Y385943D01*
X692375Y385156D01*
X693013Y384325D01*
X693595Y383454D01*
X694118Y382546D01*
X694582Y381607D01*
X694983Y380639D01*
X695319Y379647D01*
X695590Y378635D01*
X695795Y377608D01*
X695932Y376569D01*
X696000Y375524D01*
X696000Y374476D01*
X91119Y303059D02*
X91049Y303960D01*
X90907Y304853D01*
X90696Y305731D01*
X90417Y306591D01*
X90071Y307426D01*
X89661Y308231D01*
X89189Y309001D01*
X88658Y309733D01*
X88071Y310420D01*
X87432Y311059D01*
X86745Y311646D01*
X86013Y312177D01*
X85243Y312649D01*
X84438Y313059D01*
X83603Y313405D01*
X82743Y313684D01*
X81865Y313895D01*
X80972Y314037D01*
X80071Y314107D01*
X79168Y314107D01*
X78267Y314037D01*
X77374Y313895D01*
X76495Y313684D01*
X75636Y313405D01*
X74801Y313059D01*
X73996Y312649D01*
X73225Y312177D01*
X72494Y311646D01*
X71807Y311059D01*
X71168Y310420D01*
X70581Y309733D01*
X70050Y309001D01*
X69578Y308231D01*
X69168Y307426D01*
X68822Y306591D01*
X68543Y305731D01*
X68332Y304853D01*
X68190Y303960D01*
X68119Y303059D01*
X68119Y302156D01*
X68190Y301255D01*
X68332Y300362D01*
X68543Y299483D01*
X68822Y298624D01*
X69168Y297789D01*
X69578Y296984D01*
X70050Y296213D01*
X70581Y295482D01*
X71168Y294795D01*
X71807Y294156D01*
X72494Y293569D01*
X73225Y293038D01*
X73996Y292566D01*
X74801Y292156D01*
X75636Y291810D01*
X76495Y291531D01*
X77374Y291320D01*
X78267Y291178D01*
X79168Y291107D01*
X80071Y291107D01*
X80972Y291178D01*
X81865Y291320D01*
X82743Y291531D01*
X83603Y291810D01*
X84438Y292156D01*
X85243Y292566D01*
X86013Y293038D01*
X86745Y293569D01*
X87432Y294156D01*
X88071Y294795D01*
X88658Y295482D01*
X89189Y296213D01*
X89661Y296984D01*
X90071Y297789D01*
X90417Y298624D01*
X90696Y299483D01*
X90907Y300362D01*
X91049Y301255D01*
X91119Y302156D01*
X91119Y303059D01*
X222519Y303059D02*
X222449Y303960D01*
X222307Y304853D01*
X222096Y305731D01*
X221817Y306591D01*
X221471Y307426D01*
X221061Y308231D01*
X220589Y309001D01*
X220058Y309733D01*
X219471Y310420D01*
X218832Y311059D01*
X218145Y311646D01*
X217413Y312177D01*
X216643Y312649D01*
X215838Y313059D01*
X215003Y313405D01*
X214143Y313684D01*
X213265Y313895D01*
X212372Y314037D01*
X211471Y314107D01*
X210568Y314107D01*
X209667Y314037D01*
X208774Y313895D01*
X207895Y313684D01*
X207036Y313405D01*
X206201Y313059D01*
X205396Y312649D01*
X204625Y312177D01*
X203894Y311646D01*
X203207Y311059D01*
X202568Y310420D01*
X201981Y309733D01*
X201450Y309001D01*
X200978Y308231D01*
X200568Y307426D01*
X200222Y306591D01*
X199943Y305731D01*
X199732Y304853D01*
X199590Y303960D01*
X199519Y303059D01*
X199519Y302156D01*
X199590Y301255D01*
X199732Y300362D01*
X199943Y299483D01*
X200222Y298624D01*
X200568Y297789D01*
X200978Y296984D01*
X201450Y296213D01*
X201981Y295482D01*
X202568Y294795D01*
X203207Y294156D01*
X203894Y293569D01*
X204625Y293038D01*
X205396Y292566D01*
X206201Y292156D01*
X207036Y291810D01*
X207895Y291531D01*
X208774Y291320D01*
X209667Y291178D01*
X210568Y291107D01*
X211471Y291107D01*
X212372Y291178D01*
X213265Y291320D01*
X214143Y291531D01*
X215003Y291810D01*
X215838Y292156D01*
X216643Y292566D01*
X217413Y293038D01*
X218145Y293569D01*
X218832Y294156D01*
X219471Y294795D01*
X220058Y295482D01*
X220589Y296213D01*
X221061Y296984D01*
X221471Y297789D01*
X221817Y298624D01*
X222096Y299483D01*
X222307Y300362D01*
X222449Y301255D01*
X222519Y302156D01*
X222519Y303059D01*
M02*
