G04 EAGLE Gerber RS-274X export*
G75*
%MOMM*%
%FSLAX34Y34*%
%LPD*%
%INTop Solder Mask*%
%IPPOS*%
%AMOC8*
5,1,8,0,0,1.08239X$1,22.5*%
G01*
%ADD10C,3.403200*%
%ADD11C,1.303200*%
%ADD12R,1.853200X1.853200*%
%ADD13C,1.853200*%
%ADD14P,1.762347X8X202.500000*%
%ADD15C,3.519200*%
%ADD16C,1.663191*%
%ADD17R,2.453200X2.453200*%
%ADD18C,2.453200*%
%ADD19C,1.903200*%
%ADD20C,1.422400*%
%ADD21C,1.653200*%
%ADD22C,2.153200*%
%ADD23R,2.153200X2.153200*%
%ADD24C,2.203200*%
%ADD25C,1.628200*%
%ADD26C,2.503200*%


D10*
X32000Y375000D03*
X32000Y32000D03*
X680000Y32000D03*
X680000Y375000D03*
D11*
X39000Y102000D03*
X51700Y102000D03*
X39000Y114700D03*
X51700Y114700D03*
X39000Y127400D03*
X51700Y127400D03*
X39000Y140100D03*
X51700Y140100D03*
X39000Y152800D03*
X51700Y152800D03*
X39000Y165500D03*
X51700Y165500D03*
X39000Y178200D03*
X51700Y178200D03*
X39000Y190900D03*
X51700Y190900D03*
X39000Y203600D03*
X51700Y203600D03*
X39000Y216300D03*
X51700Y216300D03*
X39000Y229000D03*
X51700Y229000D03*
X39000Y241700D03*
X51700Y241700D03*
X39000Y254400D03*
X51700Y254400D03*
X39000Y267100D03*
X51700Y267100D03*
X39000Y279800D03*
X51700Y279800D03*
X39000Y292500D03*
X51700Y292500D03*
X39000Y305200D03*
X51700Y305200D03*
D12*
X177800Y25400D03*
D13*
X177800Y50800D03*
X203200Y25400D03*
X203200Y50800D03*
X228600Y25400D03*
X228600Y50800D03*
X254000Y25400D03*
X254000Y50800D03*
X279400Y25400D03*
X279400Y50800D03*
X304800Y25400D03*
X304800Y50800D03*
X330200Y25400D03*
X330200Y50800D03*
X355600Y25400D03*
X355600Y50800D03*
X381000Y25400D03*
X381000Y50800D03*
X406400Y25400D03*
X406400Y50800D03*
X431800Y25400D03*
X431800Y50800D03*
X457200Y25400D03*
X457200Y50800D03*
X482600Y25400D03*
X482600Y50800D03*
X508000Y25400D03*
X508000Y50800D03*
X533400Y25400D03*
X533400Y50800D03*
X558800Y25400D03*
X558800Y50800D03*
X584200Y25400D03*
X584200Y50800D03*
D14*
X406600Y251350D03*
X431600Y251350D03*
X431600Y271350D03*
X406600Y271350D03*
D15*
X479300Y298450D03*
X358900Y298450D03*
D16*
X393700Y120650D03*
X419100Y120650D03*
X444500Y120650D03*
X393700Y203200D03*
X419100Y203200D03*
X444500Y203200D03*
D17*
X165100Y222250D03*
D18*
X115100Y222250D03*
D19*
X254000Y82550D03*
X177800Y82550D03*
D20*
X501904Y82550D02*
X514096Y82550D01*
X514096Y120650D02*
X501904Y120650D01*
X552450Y120396D02*
X552450Y108204D01*
X590550Y108204D02*
X590550Y120396D01*
D21*
X539750Y184150D03*
X539750Y234950D03*
X336550Y120650D03*
X285750Y120650D03*
D22*
X73050Y222250D03*
D23*
X273050Y222250D03*
D24*
X514139Y362200D03*
X564939Y362200D03*
X272839Y362200D03*
X323639Y362200D03*
X133561Y44200D03*
X82761Y44200D03*
D25*
X135319Y268382D02*
X135319Y282632D01*
X155319Y282632D02*
X155319Y268382D01*
X110319Y268382D02*
X110319Y282632D01*
X180319Y282632D02*
X180319Y268382D01*
D26*
X79619Y302607D03*
X211019Y302607D03*
M02*
