G04 #@! TF.GenerationSoftware,KiCad,Pcbnew,(5.1.5)-3*
G04 #@! TF.CreationDate,2020-01-30T14:03:48-05:00*
G04 #@! TF.ProjectId,RPi_Hat,5250695f-4861-4742-9e6b-696361645f70,1.0*
G04 #@! TF.SameCoordinates,Original*
G04 #@! TF.FileFunction,Copper,L1,Top*
G04 #@! TF.FilePolarity,Positive*
%FSLAX46Y46*%
G04 Gerber Fmt 4.6, Leading zero omitted, Abs format (unit mm)*
G04 Created by KiCad (PCBNEW (5.1.5)-3) date 2020-01-30 14:03:48*
%MOMM*%
%LPD*%
G04 APERTURE LIST*
%ADD10C,4.500000*%
%ADD11O,1.600000X1.600000*%
%ADD12C,1.600000*%
%ADD13R,1.500000X1.050000*%
%ADD14O,1.500000X1.050000*%
%ADD15O,1.727200X1.727200*%
%ADD16R,1.727200X1.727200*%
%ADD17O,1.700000X1.950000*%
%ADD18C,0.100000*%
%ADD19C,1.520000*%
%ADD20R,1.520000X1.520000*%
%ADD21C,5.460000*%
%ADD22O,1.950000X1.700000*%
%ADD23C,0.600000*%
%ADD24C,1.270000*%
%ADD25C,0.250000*%
%ADD26C,0.254000*%
G04 APERTURE END LIST*
D10*
X156750000Y-121580000D03*
X98750000Y-121580000D03*
X98750000Y-72580000D03*
X156750000Y-72580000D03*
D11*
X119913400Y-106807000D03*
D12*
X119913400Y-109347000D03*
D11*
X113563400Y-106857800D03*
D12*
X113563400Y-109397800D03*
D11*
X107162600Y-106857800D03*
D12*
X107162600Y-109397800D03*
D13*
X119888000Y-112572800D03*
D14*
X119888000Y-115112800D03*
X119888000Y-113842800D03*
D13*
X113538000Y-112776000D03*
D14*
X113538000Y-115316000D03*
X113538000Y-114046000D03*
D13*
X107137200Y-112699800D03*
D14*
X107137200Y-115239800D03*
X107137200Y-113969800D03*
D15*
X151880000Y-71310000D03*
X151880000Y-73850000D03*
X149340000Y-71310000D03*
X149340000Y-73850000D03*
X146800000Y-71310000D03*
X146800000Y-73850000D03*
X144260000Y-71310000D03*
X144260000Y-73850000D03*
X141720000Y-71310000D03*
X141720000Y-73850000D03*
X139180000Y-71310000D03*
X139180000Y-73850000D03*
X136640000Y-71310000D03*
X136640000Y-73850000D03*
X134100000Y-71310000D03*
X134100000Y-73850000D03*
X131560000Y-71310000D03*
X131560000Y-73850000D03*
X129020000Y-71310000D03*
X129020000Y-73850000D03*
X126480000Y-71310000D03*
X126480000Y-73850000D03*
X123940000Y-71310000D03*
X123940000Y-73850000D03*
X121400000Y-71310000D03*
X121400000Y-73850000D03*
X118860000Y-71310000D03*
X118860000Y-73850000D03*
X116320000Y-71310000D03*
X116320000Y-73850000D03*
X113780000Y-71310000D03*
X113780000Y-73850000D03*
X111240000Y-71310000D03*
X111240000Y-73850000D03*
X108700000Y-71310000D03*
X108700000Y-73850000D03*
X106160000Y-71310000D03*
X106160000Y-73850000D03*
X103620000Y-71310000D03*
D16*
X103620000Y-73850000D03*
D17*
X116085000Y-120650000D03*
X113585000Y-120650000D03*
X111085000Y-120650000D03*
G04 #@! TA.AperFunction,ComponentPad*
D18*
G36*
X109209504Y-119676204D02*
G01*
X109233773Y-119679804D01*
X109257571Y-119685765D01*
X109280671Y-119694030D01*
X109302849Y-119704520D01*
X109323893Y-119717133D01*
X109343598Y-119731747D01*
X109361777Y-119748223D01*
X109378253Y-119766402D01*
X109392867Y-119786107D01*
X109405480Y-119807151D01*
X109415970Y-119829329D01*
X109424235Y-119852429D01*
X109430196Y-119876227D01*
X109433796Y-119900496D01*
X109435000Y-119925000D01*
X109435000Y-121375000D01*
X109433796Y-121399504D01*
X109430196Y-121423773D01*
X109424235Y-121447571D01*
X109415970Y-121470671D01*
X109405480Y-121492849D01*
X109392867Y-121513893D01*
X109378253Y-121533598D01*
X109361777Y-121551777D01*
X109343598Y-121568253D01*
X109323893Y-121582867D01*
X109302849Y-121595480D01*
X109280671Y-121605970D01*
X109257571Y-121614235D01*
X109233773Y-121620196D01*
X109209504Y-121623796D01*
X109185000Y-121625000D01*
X107985000Y-121625000D01*
X107960496Y-121623796D01*
X107936227Y-121620196D01*
X107912429Y-121614235D01*
X107889329Y-121605970D01*
X107867151Y-121595480D01*
X107846107Y-121582867D01*
X107826402Y-121568253D01*
X107808223Y-121551777D01*
X107791747Y-121533598D01*
X107777133Y-121513893D01*
X107764520Y-121492849D01*
X107754030Y-121470671D01*
X107745765Y-121447571D01*
X107739804Y-121423773D01*
X107736204Y-121399504D01*
X107735000Y-121375000D01*
X107735000Y-119925000D01*
X107736204Y-119900496D01*
X107739804Y-119876227D01*
X107745765Y-119852429D01*
X107754030Y-119829329D01*
X107764520Y-119807151D01*
X107777133Y-119786107D01*
X107791747Y-119766402D01*
X107808223Y-119748223D01*
X107826402Y-119731747D01*
X107846107Y-119717133D01*
X107867151Y-119704520D01*
X107889329Y-119694030D01*
X107912429Y-119685765D01*
X107936227Y-119679804D01*
X107960496Y-119676204D01*
X107985000Y-119675000D01*
X109185000Y-119675000D01*
X109209504Y-119676204D01*
G37*
G04 #@! TD.AperFunction*
D19*
X156845000Y-105410000D03*
X154305000Y-105410000D03*
X156845000Y-102870000D03*
X154305000Y-102870000D03*
X156845000Y-100330000D03*
X154305000Y-100330000D03*
X156845000Y-97790000D03*
X154305000Y-97790000D03*
X156845000Y-95250000D03*
X154305000Y-95250000D03*
X156845000Y-92710000D03*
X154305000Y-92710000D03*
X156845000Y-90170000D03*
D20*
X154305000Y-90170000D03*
D21*
X155575000Y-114300000D03*
X155575000Y-81280000D03*
D17*
X105570000Y-83185000D03*
X108070000Y-83185000D03*
X110570000Y-83185000D03*
X113070000Y-83185000D03*
G04 #@! TA.AperFunction,ComponentPad*
D18*
G36*
X116194504Y-82211204D02*
G01*
X116218773Y-82214804D01*
X116242571Y-82220765D01*
X116265671Y-82229030D01*
X116287849Y-82239520D01*
X116308893Y-82252133D01*
X116328598Y-82266747D01*
X116346777Y-82283223D01*
X116363253Y-82301402D01*
X116377867Y-82321107D01*
X116390480Y-82342151D01*
X116400970Y-82364329D01*
X116409235Y-82387429D01*
X116415196Y-82411227D01*
X116418796Y-82435496D01*
X116420000Y-82460000D01*
X116420000Y-83910000D01*
X116418796Y-83934504D01*
X116415196Y-83958773D01*
X116409235Y-83982571D01*
X116400970Y-84005671D01*
X116390480Y-84027849D01*
X116377867Y-84048893D01*
X116363253Y-84068598D01*
X116346777Y-84086777D01*
X116328598Y-84103253D01*
X116308893Y-84117867D01*
X116287849Y-84130480D01*
X116265671Y-84140970D01*
X116242571Y-84149235D01*
X116218773Y-84155196D01*
X116194504Y-84158796D01*
X116170000Y-84160000D01*
X114970000Y-84160000D01*
X114945496Y-84158796D01*
X114921227Y-84155196D01*
X114897429Y-84149235D01*
X114874329Y-84140970D01*
X114852151Y-84130480D01*
X114831107Y-84117867D01*
X114811402Y-84103253D01*
X114793223Y-84086777D01*
X114776747Y-84068598D01*
X114762133Y-84048893D01*
X114749520Y-84027849D01*
X114739030Y-84005671D01*
X114730765Y-83982571D01*
X114724804Y-83958773D01*
X114721204Y-83934504D01*
X114720000Y-83910000D01*
X114720000Y-82460000D01*
X114721204Y-82435496D01*
X114724804Y-82411227D01*
X114730765Y-82387429D01*
X114739030Y-82364329D01*
X114749520Y-82342151D01*
X114762133Y-82321107D01*
X114776747Y-82301402D01*
X114793223Y-82283223D01*
X114811402Y-82266747D01*
X114831107Y-82252133D01*
X114852151Y-82239520D01*
X114874329Y-82229030D01*
X114897429Y-82220765D01*
X114921227Y-82214804D01*
X114945496Y-82211204D01*
X114970000Y-82210000D01*
X116170000Y-82210000D01*
X116194504Y-82211204D01*
G37*
G04 #@! TD.AperFunction*
D17*
X124065000Y-88265000D03*
X126565000Y-88265000D03*
X129065000Y-88265000D03*
X131565000Y-88265000D03*
X134065000Y-88265000D03*
X136565000Y-88265000D03*
G04 #@! TA.AperFunction,ComponentPad*
D18*
G36*
X139689504Y-87291204D02*
G01*
X139713773Y-87294804D01*
X139737571Y-87300765D01*
X139760671Y-87309030D01*
X139782849Y-87319520D01*
X139803893Y-87332133D01*
X139823598Y-87346747D01*
X139841777Y-87363223D01*
X139858253Y-87381402D01*
X139872867Y-87401107D01*
X139885480Y-87422151D01*
X139895970Y-87444329D01*
X139904235Y-87467429D01*
X139910196Y-87491227D01*
X139913796Y-87515496D01*
X139915000Y-87540000D01*
X139915000Y-88990000D01*
X139913796Y-89014504D01*
X139910196Y-89038773D01*
X139904235Y-89062571D01*
X139895970Y-89085671D01*
X139885480Y-89107849D01*
X139872867Y-89128893D01*
X139858253Y-89148598D01*
X139841777Y-89166777D01*
X139823598Y-89183253D01*
X139803893Y-89197867D01*
X139782849Y-89210480D01*
X139760671Y-89220970D01*
X139737571Y-89229235D01*
X139713773Y-89235196D01*
X139689504Y-89238796D01*
X139665000Y-89240000D01*
X138465000Y-89240000D01*
X138440496Y-89238796D01*
X138416227Y-89235196D01*
X138392429Y-89229235D01*
X138369329Y-89220970D01*
X138347151Y-89210480D01*
X138326107Y-89197867D01*
X138306402Y-89183253D01*
X138288223Y-89166777D01*
X138271747Y-89148598D01*
X138257133Y-89128893D01*
X138244520Y-89107849D01*
X138234030Y-89085671D01*
X138225765Y-89062571D01*
X138219804Y-89038773D01*
X138216204Y-89014504D01*
X138215000Y-88990000D01*
X138215000Y-87540000D01*
X138216204Y-87515496D01*
X138219804Y-87491227D01*
X138225765Y-87467429D01*
X138234030Y-87444329D01*
X138244520Y-87422151D01*
X138257133Y-87401107D01*
X138271747Y-87381402D01*
X138288223Y-87363223D01*
X138306402Y-87346747D01*
X138326107Y-87332133D01*
X138347151Y-87319520D01*
X138369329Y-87309030D01*
X138392429Y-87300765D01*
X138416227Y-87294804D01*
X138440496Y-87291204D01*
X138465000Y-87290000D01*
X139665000Y-87290000D01*
X139689504Y-87291204D01*
G37*
G04 #@! TD.AperFunction*
D17*
X124065000Y-80645000D03*
X126565000Y-80645000D03*
X129065000Y-80645000D03*
X131565000Y-80645000D03*
X134065000Y-80645000D03*
X136565000Y-80645000D03*
G04 #@! TA.AperFunction,ComponentPad*
D18*
G36*
X139689504Y-79671204D02*
G01*
X139713773Y-79674804D01*
X139737571Y-79680765D01*
X139760671Y-79689030D01*
X139782849Y-79699520D01*
X139803893Y-79712133D01*
X139823598Y-79726747D01*
X139841777Y-79743223D01*
X139858253Y-79761402D01*
X139872867Y-79781107D01*
X139885480Y-79802151D01*
X139895970Y-79824329D01*
X139904235Y-79847429D01*
X139910196Y-79871227D01*
X139913796Y-79895496D01*
X139915000Y-79920000D01*
X139915000Y-81370000D01*
X139913796Y-81394504D01*
X139910196Y-81418773D01*
X139904235Y-81442571D01*
X139895970Y-81465671D01*
X139885480Y-81487849D01*
X139872867Y-81508893D01*
X139858253Y-81528598D01*
X139841777Y-81546777D01*
X139823598Y-81563253D01*
X139803893Y-81577867D01*
X139782849Y-81590480D01*
X139760671Y-81600970D01*
X139737571Y-81609235D01*
X139713773Y-81615196D01*
X139689504Y-81618796D01*
X139665000Y-81620000D01*
X138465000Y-81620000D01*
X138440496Y-81618796D01*
X138416227Y-81615196D01*
X138392429Y-81609235D01*
X138369329Y-81600970D01*
X138347151Y-81590480D01*
X138326107Y-81577867D01*
X138306402Y-81563253D01*
X138288223Y-81546777D01*
X138271747Y-81528598D01*
X138257133Y-81508893D01*
X138244520Y-81487849D01*
X138234030Y-81465671D01*
X138225765Y-81442571D01*
X138219804Y-81418773D01*
X138216204Y-81394504D01*
X138215000Y-81370000D01*
X138215000Y-79920000D01*
X138216204Y-79895496D01*
X138219804Y-79871227D01*
X138225765Y-79847429D01*
X138234030Y-79824329D01*
X138244520Y-79802151D01*
X138257133Y-79781107D01*
X138271747Y-79761402D01*
X138288223Y-79743223D01*
X138306402Y-79726747D01*
X138326107Y-79712133D01*
X138347151Y-79699520D01*
X138369329Y-79689030D01*
X138392429Y-79680765D01*
X138416227Y-79674804D01*
X138440496Y-79671204D01*
X138465000Y-79670000D01*
X139665000Y-79670000D01*
X139689504Y-79671204D01*
G37*
G04 #@! TD.AperFunction*
D22*
X146050000Y-100450000D03*
X146050000Y-102950000D03*
X146050000Y-105450000D03*
X146050000Y-107950000D03*
G04 #@! TA.AperFunction,ComponentPad*
D18*
G36*
X146799504Y-109601204D02*
G01*
X146823773Y-109604804D01*
X146847571Y-109610765D01*
X146870671Y-109619030D01*
X146892849Y-109629520D01*
X146913893Y-109642133D01*
X146933598Y-109656747D01*
X146951777Y-109673223D01*
X146968253Y-109691402D01*
X146982867Y-109711107D01*
X146995480Y-109732151D01*
X147005970Y-109754329D01*
X147014235Y-109777429D01*
X147020196Y-109801227D01*
X147023796Y-109825496D01*
X147025000Y-109850000D01*
X147025000Y-111050000D01*
X147023796Y-111074504D01*
X147020196Y-111098773D01*
X147014235Y-111122571D01*
X147005970Y-111145671D01*
X146995480Y-111167849D01*
X146982867Y-111188893D01*
X146968253Y-111208598D01*
X146951777Y-111226777D01*
X146933598Y-111243253D01*
X146913893Y-111257867D01*
X146892849Y-111270480D01*
X146870671Y-111280970D01*
X146847571Y-111289235D01*
X146823773Y-111295196D01*
X146799504Y-111298796D01*
X146775000Y-111300000D01*
X145325000Y-111300000D01*
X145300496Y-111298796D01*
X145276227Y-111295196D01*
X145252429Y-111289235D01*
X145229329Y-111280970D01*
X145207151Y-111270480D01*
X145186107Y-111257867D01*
X145166402Y-111243253D01*
X145148223Y-111226777D01*
X145131747Y-111208598D01*
X145117133Y-111188893D01*
X145104520Y-111167849D01*
X145094030Y-111145671D01*
X145085765Y-111122571D01*
X145079804Y-111098773D01*
X145076204Y-111074504D01*
X145075000Y-111050000D01*
X145075000Y-109850000D01*
X145076204Y-109825496D01*
X145079804Y-109801227D01*
X145085765Y-109777429D01*
X145094030Y-109754329D01*
X145104520Y-109732151D01*
X145117133Y-109711107D01*
X145131747Y-109691402D01*
X145148223Y-109673223D01*
X145166402Y-109656747D01*
X145186107Y-109642133D01*
X145207151Y-109629520D01*
X145229329Y-109619030D01*
X145252429Y-109610765D01*
X145276227Y-109604804D01*
X145300496Y-109601204D01*
X145325000Y-109600000D01*
X146775000Y-109600000D01*
X146799504Y-109601204D01*
G37*
G04 #@! TD.AperFunction*
D22*
X138430000Y-100410000D03*
X138430000Y-102910000D03*
X138430000Y-105410000D03*
X138430000Y-107910000D03*
G04 #@! TA.AperFunction,ComponentPad*
D18*
G36*
X139179504Y-109561204D02*
G01*
X139203773Y-109564804D01*
X139227571Y-109570765D01*
X139250671Y-109579030D01*
X139272849Y-109589520D01*
X139293893Y-109602133D01*
X139313598Y-109616747D01*
X139331777Y-109633223D01*
X139348253Y-109651402D01*
X139362867Y-109671107D01*
X139375480Y-109692151D01*
X139385970Y-109714329D01*
X139394235Y-109737429D01*
X139400196Y-109761227D01*
X139403796Y-109785496D01*
X139405000Y-109810000D01*
X139405000Y-111010000D01*
X139403796Y-111034504D01*
X139400196Y-111058773D01*
X139394235Y-111082571D01*
X139385970Y-111105671D01*
X139375480Y-111127849D01*
X139362867Y-111148893D01*
X139348253Y-111168598D01*
X139331777Y-111186777D01*
X139313598Y-111203253D01*
X139293893Y-111217867D01*
X139272849Y-111230480D01*
X139250671Y-111240970D01*
X139227571Y-111249235D01*
X139203773Y-111255196D01*
X139179504Y-111258796D01*
X139155000Y-111260000D01*
X137705000Y-111260000D01*
X137680496Y-111258796D01*
X137656227Y-111255196D01*
X137632429Y-111249235D01*
X137609329Y-111240970D01*
X137587151Y-111230480D01*
X137566107Y-111217867D01*
X137546402Y-111203253D01*
X137528223Y-111186777D01*
X137511747Y-111168598D01*
X137497133Y-111148893D01*
X137484520Y-111127849D01*
X137474030Y-111105671D01*
X137465765Y-111082571D01*
X137459804Y-111058773D01*
X137456204Y-111034504D01*
X137455000Y-111010000D01*
X137455000Y-109810000D01*
X137456204Y-109785496D01*
X137459804Y-109761227D01*
X137465765Y-109737429D01*
X137474030Y-109714329D01*
X137484520Y-109692151D01*
X137497133Y-109671107D01*
X137511747Y-109651402D01*
X137528223Y-109633223D01*
X137546402Y-109616747D01*
X137566107Y-109602133D01*
X137587151Y-109589520D01*
X137609329Y-109579030D01*
X137632429Y-109570765D01*
X137656227Y-109564804D01*
X137680496Y-109561204D01*
X137705000Y-109560000D01*
X139155000Y-109560000D01*
X139179504Y-109561204D01*
G37*
G04 #@! TD.AperFunction*
D22*
X130810000Y-100370000D03*
X130810000Y-102870000D03*
X130810000Y-105370000D03*
X130810000Y-107870000D03*
G04 #@! TA.AperFunction,ComponentPad*
D18*
G36*
X131559504Y-109521204D02*
G01*
X131583773Y-109524804D01*
X131607571Y-109530765D01*
X131630671Y-109539030D01*
X131652849Y-109549520D01*
X131673893Y-109562133D01*
X131693598Y-109576747D01*
X131711777Y-109593223D01*
X131728253Y-109611402D01*
X131742867Y-109631107D01*
X131755480Y-109652151D01*
X131765970Y-109674329D01*
X131774235Y-109697429D01*
X131780196Y-109721227D01*
X131783796Y-109745496D01*
X131785000Y-109770000D01*
X131785000Y-110970000D01*
X131783796Y-110994504D01*
X131780196Y-111018773D01*
X131774235Y-111042571D01*
X131765970Y-111065671D01*
X131755480Y-111087849D01*
X131742867Y-111108893D01*
X131728253Y-111128598D01*
X131711777Y-111146777D01*
X131693598Y-111163253D01*
X131673893Y-111177867D01*
X131652849Y-111190480D01*
X131630671Y-111200970D01*
X131607571Y-111209235D01*
X131583773Y-111215196D01*
X131559504Y-111218796D01*
X131535000Y-111220000D01*
X130085000Y-111220000D01*
X130060496Y-111218796D01*
X130036227Y-111215196D01*
X130012429Y-111209235D01*
X129989329Y-111200970D01*
X129967151Y-111190480D01*
X129946107Y-111177867D01*
X129926402Y-111163253D01*
X129908223Y-111146777D01*
X129891747Y-111128598D01*
X129877133Y-111108893D01*
X129864520Y-111087849D01*
X129854030Y-111065671D01*
X129845765Y-111042571D01*
X129839804Y-111018773D01*
X129836204Y-110994504D01*
X129835000Y-110970000D01*
X129835000Y-109770000D01*
X129836204Y-109745496D01*
X129839804Y-109721227D01*
X129845765Y-109697429D01*
X129854030Y-109674329D01*
X129864520Y-109652151D01*
X129877133Y-109631107D01*
X129891747Y-109611402D01*
X129908223Y-109593223D01*
X129926402Y-109576747D01*
X129946107Y-109562133D01*
X129967151Y-109549520D01*
X129989329Y-109539030D01*
X130012429Y-109530765D01*
X130036227Y-109524804D01*
X130060496Y-109521204D01*
X130085000Y-109520000D01*
X131535000Y-109520000D01*
X131559504Y-109521204D01*
G37*
G04 #@! TD.AperFunction*
D23*
X115239800Y-89433400D03*
X130810000Y-100370000D03*
X133350000Y-91186000D03*
X133350000Y-94615000D03*
X149860000Y-77470000D03*
X145542000Y-77470000D03*
X142748000Y-77470000D03*
D24*
X115539799Y-89733399D02*
X115539799Y-89758799D01*
X115239800Y-89433400D02*
X115539799Y-89733399D01*
X115539799Y-89758799D02*
X126151000Y-100370000D01*
X126151000Y-100370000D02*
X130810000Y-100370000D01*
D25*
X154185000Y-102990000D02*
X154305000Y-102870000D01*
X146050000Y-102990000D02*
X154185000Y-102990000D01*
X129585000Y-102870000D02*
X130810000Y-102870000D01*
X126350998Y-102870000D02*
X129585000Y-102870000D01*
X109394990Y-85913992D02*
X126350998Y-102870000D01*
X109394990Y-77084990D02*
X109394990Y-85913992D01*
X106160000Y-73850000D02*
X109394990Y-77084990D01*
X154225000Y-105490000D02*
X154305000Y-105410000D01*
X146050000Y-105490000D02*
X154225000Y-105490000D01*
X132035000Y-105370000D02*
X130810000Y-105370000D01*
X132110010Y-105294990D02*
X132035000Y-105370000D01*
X132110010Y-99883295D02*
X132110010Y-105294990D01*
X131421705Y-99194990D02*
X132110010Y-99883295D01*
X127218580Y-99194990D02*
X131421705Y-99194990D01*
X111745010Y-76895010D02*
X111745010Y-83721420D01*
X111745010Y-83721420D02*
X127218580Y-99194990D01*
X108700000Y-73850000D02*
X111745010Y-76895010D01*
X117996401Y-72173599D02*
X118860000Y-71310000D01*
X117508601Y-72661399D02*
X117996401Y-72173599D01*
X114968601Y-72661399D02*
X117508601Y-72661399D01*
X113780000Y-73850000D02*
X114968601Y-72661399D01*
X137991399Y-72498601D02*
X137991399Y-75761399D01*
X139180000Y-71310000D02*
X137991399Y-72498601D01*
X139065000Y-76835000D02*
X139065000Y-80645000D01*
X137991399Y-75761399D02*
X139065000Y-76835000D01*
X138390000Y-107870000D02*
X138430000Y-107910000D01*
X130810000Y-107870000D02*
X138390000Y-107870000D01*
X146010000Y-107910000D02*
X146050000Y-107950000D01*
X138430000Y-107910000D02*
X146010000Y-107910000D01*
X136565000Y-80645000D02*
X136565000Y-88265000D01*
X136565000Y-88265000D02*
X136525000Y-92710000D01*
X136525000Y-92710000D02*
X136565000Y-107910000D01*
X113070000Y-75680000D02*
X111240000Y-73850000D01*
X113070000Y-83185000D02*
X113070000Y-75680000D01*
X121370000Y-92710000D02*
X136525000Y-92710000D01*
X113070000Y-84410000D02*
X121370000Y-92710000D01*
X113070000Y-83185000D02*
X113070000Y-84410000D01*
X132748601Y-72498601D02*
X132748601Y-77436399D01*
X131560000Y-71310000D02*
X132748601Y-72498601D01*
X134065000Y-78752798D02*
X134065000Y-80645000D01*
X132748601Y-77436399D02*
X134065000Y-78752798D01*
X135288601Y-72498601D02*
X135288601Y-85691399D01*
X134100000Y-71310000D02*
X135288601Y-72498601D01*
X134065000Y-86915000D02*
X134065000Y-88265000D01*
X135288601Y-85691399D02*
X134065000Y-86915000D01*
X157604999Y-94490001D02*
X156845000Y-95250000D01*
X157930001Y-94164999D02*
X157604999Y-94490001D01*
X157930001Y-89649199D02*
X157930001Y-94164999D01*
X146800000Y-78519198D02*
X157930001Y-89649199D01*
X146800000Y-73850000D02*
X146800000Y-78519198D01*
X144260000Y-75071314D02*
X144260000Y-73850000D01*
X154305000Y-94315802D02*
X144260000Y-84270802D01*
X144260000Y-84270802D02*
X144260000Y-75071314D01*
X154305000Y-95250000D02*
X154305000Y-94315802D01*
X141720000Y-85205000D02*
X154305000Y-97790000D01*
X141720000Y-73850000D02*
X141720000Y-85205000D01*
X153545001Y-99570001D02*
X154305000Y-100330000D01*
X141269990Y-75939990D02*
X141269990Y-87294990D01*
X141269990Y-87294990D02*
X153545001Y-99570001D01*
X139180000Y-73850000D02*
X141269990Y-75939990D01*
D26*
G36*
X157699016Y-69312312D02*
G01*
X158130930Y-69442714D01*
X158529285Y-69654524D01*
X158878914Y-69939675D01*
X159166497Y-70287303D01*
X159381086Y-70684177D01*
X159514498Y-71115161D01*
X159565000Y-71595654D01*
X159565000Y-71943939D01*
X159524131Y-71738477D01*
X159306654Y-71213440D01*
X158990926Y-70740920D01*
X158589080Y-70339074D01*
X158116560Y-70023346D01*
X157591523Y-69805869D01*
X157034148Y-69695000D01*
X156465852Y-69695000D01*
X155908477Y-69805869D01*
X155383440Y-70023346D01*
X154910920Y-70339074D01*
X154509074Y-70740920D01*
X154193346Y-71213440D01*
X153975869Y-71738477D01*
X153865000Y-72295852D01*
X153865000Y-72864148D01*
X153975869Y-73421523D01*
X154193346Y-73946560D01*
X154509074Y-74419080D01*
X154910920Y-74820926D01*
X155383440Y-75136654D01*
X155908477Y-75354131D01*
X156465852Y-75465000D01*
X157034148Y-75465000D01*
X157591523Y-75354131D01*
X158116560Y-75136654D01*
X158589080Y-74820926D01*
X158990926Y-74419080D01*
X159306654Y-73946560D01*
X159524131Y-73421523D01*
X159565000Y-73216061D01*
X159565001Y-120943944D01*
X159524131Y-120738477D01*
X159306654Y-120213440D01*
X158990926Y-119740920D01*
X158589080Y-119339074D01*
X158116560Y-119023346D01*
X157591523Y-118805869D01*
X157034148Y-118695000D01*
X156465852Y-118695000D01*
X155908477Y-118805869D01*
X155383440Y-119023346D01*
X154910920Y-119339074D01*
X154509074Y-119740920D01*
X154193346Y-120213440D01*
X153975869Y-120738477D01*
X153865000Y-121295852D01*
X153865000Y-121864148D01*
X153975869Y-122421523D01*
X154193346Y-122946560D01*
X154509074Y-123419080D01*
X154910920Y-123820926D01*
X155383440Y-124136654D01*
X155908477Y-124354131D01*
X156113939Y-124395000D01*
X99386061Y-124395000D01*
X99591523Y-124354131D01*
X100116560Y-124136654D01*
X100589080Y-123820926D01*
X100990926Y-123419080D01*
X101306654Y-122946560D01*
X101524131Y-122421523D01*
X101635000Y-121864148D01*
X101635000Y-121295852D01*
X101524131Y-120738477D01*
X101306654Y-120213440D01*
X101113925Y-119925000D01*
X107096928Y-119925000D01*
X107096928Y-121375000D01*
X107113992Y-121548254D01*
X107164528Y-121714850D01*
X107246595Y-121868386D01*
X107357038Y-122002962D01*
X107491614Y-122113405D01*
X107645150Y-122195472D01*
X107811746Y-122246008D01*
X107985000Y-122263072D01*
X109185000Y-122263072D01*
X109358254Y-122246008D01*
X109524850Y-122195472D01*
X109678386Y-122113405D01*
X109812962Y-122002962D01*
X109923405Y-121868386D01*
X109977777Y-121766663D01*
X110029866Y-121830134D01*
X110255987Y-122015706D01*
X110513967Y-122153599D01*
X110793890Y-122238513D01*
X111085000Y-122267185D01*
X111376111Y-122238513D01*
X111656034Y-122153599D01*
X111914014Y-122015706D01*
X112140134Y-121830134D01*
X112325706Y-121604014D01*
X112335000Y-121586626D01*
X112344294Y-121604014D01*
X112529866Y-121830134D01*
X112755987Y-122015706D01*
X113013967Y-122153599D01*
X113293890Y-122238513D01*
X113585000Y-122267185D01*
X113876111Y-122238513D01*
X114156034Y-122153599D01*
X114414014Y-122015706D01*
X114640134Y-121830134D01*
X114825706Y-121604014D01*
X114835000Y-121586626D01*
X114844294Y-121604014D01*
X115029866Y-121830134D01*
X115255987Y-122015706D01*
X115513967Y-122153599D01*
X115793890Y-122238513D01*
X116085000Y-122267185D01*
X116376111Y-122238513D01*
X116656034Y-122153599D01*
X116914014Y-122015706D01*
X117140134Y-121830134D01*
X117325706Y-121604014D01*
X117463599Y-121346033D01*
X117548513Y-121066110D01*
X117570000Y-120847949D01*
X117570000Y-120452050D01*
X117548513Y-120233889D01*
X117463599Y-119953966D01*
X117325706Y-119695986D01*
X117140134Y-119469866D01*
X116914013Y-119284294D01*
X116656033Y-119146401D01*
X116376110Y-119061487D01*
X116085000Y-119032815D01*
X115793889Y-119061487D01*
X115513966Y-119146401D01*
X115255986Y-119284294D01*
X115029866Y-119469866D01*
X114844294Y-119695987D01*
X114835000Y-119713374D01*
X114825706Y-119695986D01*
X114640134Y-119469866D01*
X114414013Y-119284294D01*
X114156033Y-119146401D01*
X113876110Y-119061487D01*
X113585000Y-119032815D01*
X113293889Y-119061487D01*
X113013966Y-119146401D01*
X112755986Y-119284294D01*
X112529866Y-119469866D01*
X112344294Y-119695987D01*
X112335000Y-119713374D01*
X112325706Y-119695986D01*
X112140134Y-119469866D01*
X111914013Y-119284294D01*
X111656033Y-119146401D01*
X111376110Y-119061487D01*
X111085000Y-119032815D01*
X110793889Y-119061487D01*
X110513966Y-119146401D01*
X110255986Y-119284294D01*
X110029866Y-119469866D01*
X109977777Y-119533337D01*
X109923405Y-119431614D01*
X109812962Y-119297038D01*
X109678386Y-119186595D01*
X109524850Y-119104528D01*
X109358254Y-119053992D01*
X109185000Y-119036928D01*
X107985000Y-119036928D01*
X107811746Y-119053992D01*
X107645150Y-119104528D01*
X107491614Y-119186595D01*
X107357038Y-119297038D01*
X107246595Y-119431614D01*
X107164528Y-119585150D01*
X107113992Y-119751746D01*
X107096928Y-119925000D01*
X101113925Y-119925000D01*
X100990926Y-119740920D01*
X100589080Y-119339074D01*
X100116560Y-119023346D01*
X99591523Y-118805869D01*
X99034148Y-118695000D01*
X98465852Y-118695000D01*
X97908477Y-118805869D01*
X97383440Y-119023346D01*
X96910920Y-119339074D01*
X96509074Y-119740920D01*
X96193346Y-120213440D01*
X95975869Y-120738477D01*
X95935000Y-120943939D01*
X95935000Y-113969800D01*
X105746588Y-113969800D01*
X105768985Y-114197200D01*
X105835315Y-114415860D01*
X105936305Y-114604800D01*
X105835315Y-114793740D01*
X105768985Y-115012400D01*
X105746588Y-115239800D01*
X105768985Y-115467200D01*
X105835315Y-115685860D01*
X105943029Y-115887379D01*
X106087988Y-116064012D01*
X106264621Y-116208971D01*
X106466140Y-116316685D01*
X106684800Y-116383015D01*
X106855221Y-116399800D01*
X107419179Y-116399800D01*
X107589600Y-116383015D01*
X107808260Y-116316685D01*
X108009779Y-116208971D01*
X108186412Y-116064012D01*
X108331371Y-115887379D01*
X108439085Y-115685860D01*
X108505415Y-115467200D01*
X108527812Y-115239800D01*
X108505415Y-115012400D01*
X108439085Y-114793740D01*
X108338095Y-114604800D01*
X108439085Y-114415860D01*
X108505415Y-114197200D01*
X108520306Y-114046000D01*
X112147388Y-114046000D01*
X112169785Y-114273400D01*
X112236115Y-114492060D01*
X112337105Y-114681000D01*
X112236115Y-114869940D01*
X112169785Y-115088600D01*
X112147388Y-115316000D01*
X112169785Y-115543400D01*
X112236115Y-115762060D01*
X112343829Y-115963579D01*
X112488788Y-116140212D01*
X112665421Y-116285171D01*
X112866940Y-116392885D01*
X113085600Y-116459215D01*
X113256021Y-116476000D01*
X113819979Y-116476000D01*
X113990400Y-116459215D01*
X114209060Y-116392885D01*
X114410579Y-116285171D01*
X114587212Y-116140212D01*
X114732171Y-115963579D01*
X114839885Y-115762060D01*
X114906215Y-115543400D01*
X114928612Y-115316000D01*
X114906215Y-115088600D01*
X114839885Y-114869940D01*
X114738895Y-114681000D01*
X114839885Y-114492060D01*
X114906215Y-114273400D01*
X114928612Y-114046000D01*
X114908599Y-113842800D01*
X118497388Y-113842800D01*
X118519785Y-114070200D01*
X118586115Y-114288860D01*
X118687105Y-114477800D01*
X118586115Y-114666740D01*
X118519785Y-114885400D01*
X118497388Y-115112800D01*
X118519785Y-115340200D01*
X118586115Y-115558860D01*
X118693829Y-115760379D01*
X118838788Y-115937012D01*
X119015421Y-116081971D01*
X119216940Y-116189685D01*
X119435600Y-116256015D01*
X119606021Y-116272800D01*
X120169979Y-116272800D01*
X120340400Y-116256015D01*
X120559060Y-116189685D01*
X120760579Y-116081971D01*
X120937212Y-115937012D01*
X121082171Y-115760379D01*
X121189885Y-115558860D01*
X121256215Y-115340200D01*
X121278612Y-115112800D01*
X121256215Y-114885400D01*
X121189885Y-114666740D01*
X121088895Y-114477800D01*
X121189885Y-114288860D01*
X121256215Y-114070200D01*
X121266224Y-113968576D01*
X152210000Y-113968576D01*
X152210000Y-114631424D01*
X152339315Y-115281534D01*
X152592976Y-115893925D01*
X152961234Y-116445063D01*
X153429937Y-116913766D01*
X153981075Y-117282024D01*
X154593466Y-117535685D01*
X155243576Y-117665000D01*
X155906424Y-117665000D01*
X156556534Y-117535685D01*
X157168925Y-117282024D01*
X157720063Y-116913766D01*
X158188766Y-116445063D01*
X158557024Y-115893925D01*
X158810685Y-115281534D01*
X158940000Y-114631424D01*
X158940000Y-113968576D01*
X158810685Y-113318466D01*
X158557024Y-112706075D01*
X158188766Y-112154937D01*
X157720063Y-111686234D01*
X157168925Y-111317976D01*
X156556534Y-111064315D01*
X155906424Y-110935000D01*
X155243576Y-110935000D01*
X154593466Y-111064315D01*
X153981075Y-111317976D01*
X153429937Y-111686234D01*
X152961234Y-112154937D01*
X152592976Y-112706075D01*
X152339315Y-113318466D01*
X152210000Y-113968576D01*
X121266224Y-113968576D01*
X121278612Y-113842800D01*
X121256215Y-113615400D01*
X121192907Y-113406702D01*
X121227502Y-113341980D01*
X121263812Y-113222282D01*
X121276072Y-113097800D01*
X121273000Y-112858550D01*
X121114250Y-112699800D01*
X120341109Y-112699800D01*
X120340400Y-112699585D01*
X120169979Y-112682800D01*
X119606021Y-112682800D01*
X119435600Y-112699585D01*
X119434891Y-112699800D01*
X118661750Y-112699800D01*
X118503000Y-112858550D01*
X118499928Y-113097800D01*
X118512188Y-113222282D01*
X118548498Y-113341980D01*
X118583093Y-113406702D01*
X118519785Y-113615400D01*
X118497388Y-113842800D01*
X114908599Y-113842800D01*
X114906215Y-113818600D01*
X114842907Y-113609902D01*
X114877502Y-113545180D01*
X114913812Y-113425482D01*
X114926072Y-113301000D01*
X114923000Y-113061750D01*
X114764250Y-112903000D01*
X113991109Y-112903000D01*
X113990400Y-112902785D01*
X113819979Y-112886000D01*
X113256021Y-112886000D01*
X113085600Y-112902785D01*
X113084891Y-112903000D01*
X112311750Y-112903000D01*
X112153000Y-113061750D01*
X112149928Y-113301000D01*
X112162188Y-113425482D01*
X112198498Y-113545180D01*
X112233093Y-113609902D01*
X112169785Y-113818600D01*
X112147388Y-114046000D01*
X108520306Y-114046000D01*
X108527812Y-113969800D01*
X108505415Y-113742400D01*
X108442107Y-113533702D01*
X108476702Y-113468980D01*
X108513012Y-113349282D01*
X108525272Y-113224800D01*
X108522200Y-112985550D01*
X108363450Y-112826800D01*
X107590309Y-112826800D01*
X107589600Y-112826585D01*
X107419179Y-112809800D01*
X106855221Y-112809800D01*
X106684800Y-112826585D01*
X106684091Y-112826800D01*
X105910950Y-112826800D01*
X105752200Y-112985550D01*
X105749128Y-113224800D01*
X105761388Y-113349282D01*
X105797698Y-113468980D01*
X105832293Y-113533702D01*
X105768985Y-113742400D01*
X105746588Y-113969800D01*
X95935000Y-113969800D01*
X95935000Y-112174800D01*
X105749128Y-112174800D01*
X105752200Y-112414050D01*
X105910950Y-112572800D01*
X107010200Y-112572800D01*
X107010200Y-111698550D01*
X107264200Y-111698550D01*
X107264200Y-112572800D01*
X108363450Y-112572800D01*
X108522200Y-112414050D01*
X108524293Y-112251000D01*
X112149928Y-112251000D01*
X112153000Y-112490250D01*
X112311750Y-112649000D01*
X113411000Y-112649000D01*
X113411000Y-111774750D01*
X113665000Y-111774750D01*
X113665000Y-112649000D01*
X114764250Y-112649000D01*
X114923000Y-112490250D01*
X114926072Y-112251000D01*
X114913812Y-112126518D01*
X114889934Y-112047800D01*
X118499928Y-112047800D01*
X118503000Y-112287050D01*
X118661750Y-112445800D01*
X119761000Y-112445800D01*
X119761000Y-111571550D01*
X120015000Y-111571550D01*
X120015000Y-112445800D01*
X121114250Y-112445800D01*
X121273000Y-112287050D01*
X121276072Y-112047800D01*
X121263812Y-111923318D01*
X121227502Y-111803620D01*
X121168537Y-111693306D01*
X121089185Y-111596615D01*
X120992494Y-111517263D01*
X120882180Y-111458298D01*
X120762482Y-111421988D01*
X120638000Y-111409728D01*
X120173750Y-111412800D01*
X120015000Y-111571550D01*
X119761000Y-111571550D01*
X119602250Y-111412800D01*
X119138000Y-111409728D01*
X119013518Y-111421988D01*
X118893820Y-111458298D01*
X118783506Y-111517263D01*
X118686815Y-111596615D01*
X118607463Y-111693306D01*
X118548498Y-111803620D01*
X118512188Y-111923318D01*
X118499928Y-112047800D01*
X114889934Y-112047800D01*
X114877502Y-112006820D01*
X114818537Y-111896506D01*
X114739185Y-111799815D01*
X114642494Y-111720463D01*
X114532180Y-111661498D01*
X114412482Y-111625188D01*
X114288000Y-111612928D01*
X113823750Y-111616000D01*
X113665000Y-111774750D01*
X113411000Y-111774750D01*
X113252250Y-111616000D01*
X112788000Y-111612928D01*
X112663518Y-111625188D01*
X112543820Y-111661498D01*
X112433506Y-111720463D01*
X112336815Y-111799815D01*
X112257463Y-111896506D01*
X112198498Y-112006820D01*
X112162188Y-112126518D01*
X112149928Y-112251000D01*
X108524293Y-112251000D01*
X108525272Y-112174800D01*
X108513012Y-112050318D01*
X108476702Y-111930620D01*
X108417737Y-111820306D01*
X108338385Y-111723615D01*
X108241694Y-111644263D01*
X108131380Y-111585298D01*
X108011682Y-111548988D01*
X107887200Y-111536728D01*
X107422950Y-111539800D01*
X107264200Y-111698550D01*
X107010200Y-111698550D01*
X106851450Y-111539800D01*
X106387200Y-111536728D01*
X106262718Y-111548988D01*
X106143020Y-111585298D01*
X106032706Y-111644263D01*
X105936015Y-111723615D01*
X105856663Y-111820306D01*
X105797698Y-111930620D01*
X105761388Y-112050318D01*
X105749128Y-112174800D01*
X95935000Y-112174800D01*
X95935000Y-111220000D01*
X129196928Y-111220000D01*
X129209188Y-111344482D01*
X129245498Y-111464180D01*
X129304463Y-111574494D01*
X129383815Y-111671185D01*
X129480506Y-111750537D01*
X129590820Y-111809502D01*
X129710518Y-111845812D01*
X129835000Y-111858072D01*
X130524250Y-111855000D01*
X130683000Y-111696250D01*
X130683000Y-110497000D01*
X130937000Y-110497000D01*
X130937000Y-111696250D01*
X131095750Y-111855000D01*
X131785000Y-111858072D01*
X131909482Y-111845812D01*
X132029180Y-111809502D01*
X132139494Y-111750537D01*
X132236185Y-111671185D01*
X132315537Y-111574494D01*
X132374502Y-111464180D01*
X132410812Y-111344482D01*
X132419132Y-111260000D01*
X136816928Y-111260000D01*
X136829188Y-111384482D01*
X136865498Y-111504180D01*
X136924463Y-111614494D01*
X137003815Y-111711185D01*
X137100506Y-111790537D01*
X137210820Y-111849502D01*
X137330518Y-111885812D01*
X137455000Y-111898072D01*
X138144250Y-111895000D01*
X138303000Y-111736250D01*
X138303000Y-110537000D01*
X138557000Y-110537000D01*
X138557000Y-111736250D01*
X138715750Y-111895000D01*
X139405000Y-111898072D01*
X139529482Y-111885812D01*
X139649180Y-111849502D01*
X139759494Y-111790537D01*
X139856185Y-111711185D01*
X139935537Y-111614494D01*
X139994502Y-111504180D01*
X140030812Y-111384482D01*
X140039132Y-111300000D01*
X144436928Y-111300000D01*
X144449188Y-111424482D01*
X144485498Y-111544180D01*
X144544463Y-111654494D01*
X144623815Y-111751185D01*
X144720506Y-111830537D01*
X144830820Y-111889502D01*
X144950518Y-111925812D01*
X145075000Y-111938072D01*
X145764250Y-111935000D01*
X145923000Y-111776250D01*
X145923000Y-110577000D01*
X146177000Y-110577000D01*
X146177000Y-111776250D01*
X146335750Y-111935000D01*
X147025000Y-111938072D01*
X147149482Y-111925812D01*
X147269180Y-111889502D01*
X147379494Y-111830537D01*
X147476185Y-111751185D01*
X147555537Y-111654494D01*
X147614502Y-111544180D01*
X147650812Y-111424482D01*
X147663072Y-111300000D01*
X147660000Y-110735750D01*
X147501250Y-110577000D01*
X146177000Y-110577000D01*
X145923000Y-110577000D01*
X144598750Y-110577000D01*
X144440000Y-110735750D01*
X144436928Y-111300000D01*
X140039132Y-111300000D01*
X140043072Y-111260000D01*
X140040000Y-110695750D01*
X139881250Y-110537000D01*
X138557000Y-110537000D01*
X138303000Y-110537000D01*
X136978750Y-110537000D01*
X136820000Y-110695750D01*
X136816928Y-111260000D01*
X132419132Y-111260000D01*
X132423072Y-111220000D01*
X132420000Y-110655750D01*
X132261250Y-110497000D01*
X130937000Y-110497000D01*
X130683000Y-110497000D01*
X129358750Y-110497000D01*
X129200000Y-110655750D01*
X129196928Y-111220000D01*
X95935000Y-111220000D01*
X95935000Y-109256465D01*
X105727600Y-109256465D01*
X105727600Y-109539135D01*
X105782747Y-109816374D01*
X105890920Y-110077527D01*
X106047963Y-110312559D01*
X106247841Y-110512437D01*
X106482873Y-110669480D01*
X106744026Y-110777653D01*
X107021265Y-110832800D01*
X107303935Y-110832800D01*
X107581174Y-110777653D01*
X107842327Y-110669480D01*
X108077359Y-110512437D01*
X108277237Y-110312559D01*
X108434280Y-110077527D01*
X108542453Y-109816374D01*
X108597600Y-109539135D01*
X108597600Y-109256465D01*
X112128400Y-109256465D01*
X112128400Y-109539135D01*
X112183547Y-109816374D01*
X112291720Y-110077527D01*
X112448763Y-110312559D01*
X112648641Y-110512437D01*
X112883673Y-110669480D01*
X113144826Y-110777653D01*
X113422065Y-110832800D01*
X113704735Y-110832800D01*
X113981974Y-110777653D01*
X114243127Y-110669480D01*
X114478159Y-110512437D01*
X114678037Y-110312559D01*
X114835080Y-110077527D01*
X114943253Y-109816374D01*
X114998400Y-109539135D01*
X114998400Y-109256465D01*
X114988296Y-109205665D01*
X118478400Y-109205665D01*
X118478400Y-109488335D01*
X118533547Y-109765574D01*
X118641720Y-110026727D01*
X118798763Y-110261759D01*
X118998641Y-110461637D01*
X119233673Y-110618680D01*
X119494826Y-110726853D01*
X119772065Y-110782000D01*
X120054735Y-110782000D01*
X120331974Y-110726853D01*
X120593127Y-110618680D01*
X120828159Y-110461637D01*
X121028037Y-110261759D01*
X121185080Y-110026727D01*
X121293253Y-109765574D01*
X121348400Y-109488335D01*
X121348400Y-109205665D01*
X121293253Y-108928426D01*
X121185080Y-108667273D01*
X121028037Y-108432241D01*
X120828159Y-108232363D01*
X120593127Y-108075320D01*
X120581835Y-108070643D01*
X120650820Y-108038037D01*
X120876814Y-107870519D01*
X121065785Y-107662131D01*
X121210470Y-107420881D01*
X121305309Y-107156040D01*
X121184024Y-106934000D01*
X120040400Y-106934000D01*
X120040400Y-106954000D01*
X119786400Y-106954000D01*
X119786400Y-106934000D01*
X118642776Y-106934000D01*
X118521491Y-107156040D01*
X118616330Y-107420881D01*
X118761015Y-107662131D01*
X118949986Y-107870519D01*
X119175980Y-108038037D01*
X119244965Y-108070643D01*
X119233673Y-108075320D01*
X118998641Y-108232363D01*
X118798763Y-108432241D01*
X118641720Y-108667273D01*
X118533547Y-108928426D01*
X118478400Y-109205665D01*
X114988296Y-109205665D01*
X114943253Y-108979226D01*
X114835080Y-108718073D01*
X114678037Y-108483041D01*
X114478159Y-108283163D01*
X114243127Y-108126120D01*
X114231835Y-108121443D01*
X114300820Y-108088837D01*
X114526814Y-107921319D01*
X114715785Y-107712931D01*
X114860470Y-107471681D01*
X114955309Y-107206840D01*
X114834024Y-106984800D01*
X113690400Y-106984800D01*
X113690400Y-107004800D01*
X113436400Y-107004800D01*
X113436400Y-106984800D01*
X112292776Y-106984800D01*
X112171491Y-107206840D01*
X112266330Y-107471681D01*
X112411015Y-107712931D01*
X112599986Y-107921319D01*
X112825980Y-108088837D01*
X112894965Y-108121443D01*
X112883673Y-108126120D01*
X112648641Y-108283163D01*
X112448763Y-108483041D01*
X112291720Y-108718073D01*
X112183547Y-108979226D01*
X112128400Y-109256465D01*
X108597600Y-109256465D01*
X108542453Y-108979226D01*
X108434280Y-108718073D01*
X108277237Y-108483041D01*
X108077359Y-108283163D01*
X107842327Y-108126120D01*
X107831035Y-108121443D01*
X107900020Y-108088837D01*
X108126014Y-107921319D01*
X108314985Y-107712931D01*
X108459670Y-107471681D01*
X108554509Y-107206840D01*
X108433224Y-106984800D01*
X107289600Y-106984800D01*
X107289600Y-107004800D01*
X107035600Y-107004800D01*
X107035600Y-106984800D01*
X105891976Y-106984800D01*
X105770691Y-107206840D01*
X105865530Y-107471681D01*
X106010215Y-107712931D01*
X106199186Y-107921319D01*
X106425180Y-108088837D01*
X106494165Y-108121443D01*
X106482873Y-108126120D01*
X106247841Y-108283163D01*
X106047963Y-108483041D01*
X105890920Y-108718073D01*
X105782747Y-108979226D01*
X105727600Y-109256465D01*
X95935000Y-109256465D01*
X95935000Y-106613505D01*
X95944222Y-106519453D01*
X95947450Y-106508760D01*
X105770691Y-106508760D01*
X105891976Y-106730800D01*
X107035600Y-106730800D01*
X107035600Y-105587885D01*
X107289600Y-105587885D01*
X107289600Y-106730800D01*
X108433224Y-106730800D01*
X108554509Y-106508760D01*
X112171491Y-106508760D01*
X112292776Y-106730800D01*
X113436400Y-106730800D01*
X113436400Y-105587885D01*
X113690400Y-105587885D01*
X113690400Y-106730800D01*
X114834024Y-106730800D01*
X114955309Y-106508760D01*
X114937118Y-106457960D01*
X118521491Y-106457960D01*
X118642776Y-106680000D01*
X119786400Y-106680000D01*
X119786400Y-105537085D01*
X120040400Y-105537085D01*
X120040400Y-106680000D01*
X121184024Y-106680000D01*
X121305309Y-106457960D01*
X121210470Y-106193119D01*
X121065785Y-105951869D01*
X120876814Y-105743481D01*
X120650820Y-105575963D01*
X120396487Y-105455754D01*
X120262439Y-105415096D01*
X120040400Y-105537085D01*
X119786400Y-105537085D01*
X119564361Y-105415096D01*
X119430313Y-105455754D01*
X119175980Y-105575963D01*
X118949986Y-105743481D01*
X118761015Y-105951869D01*
X118616330Y-106193119D01*
X118521491Y-106457960D01*
X114937118Y-106457960D01*
X114860470Y-106243919D01*
X114715785Y-106002669D01*
X114526814Y-105794281D01*
X114300820Y-105626763D01*
X114046487Y-105506554D01*
X113912439Y-105465896D01*
X113690400Y-105587885D01*
X113436400Y-105587885D01*
X113214361Y-105465896D01*
X113080313Y-105506554D01*
X112825980Y-105626763D01*
X112599986Y-105794281D01*
X112411015Y-106002669D01*
X112266330Y-106243919D01*
X112171491Y-106508760D01*
X108554509Y-106508760D01*
X108459670Y-106243919D01*
X108314985Y-106002669D01*
X108126014Y-105794281D01*
X107900020Y-105626763D01*
X107645687Y-105506554D01*
X107511639Y-105465896D01*
X107289600Y-105587885D01*
X107035600Y-105587885D01*
X106813561Y-105465896D01*
X106679513Y-105506554D01*
X106425180Y-105626763D01*
X106199186Y-105794281D01*
X106010215Y-106002669D01*
X105865530Y-106243919D01*
X105770691Y-106508760D01*
X95947450Y-106508760D01*
X95961805Y-106461214D01*
X95990366Y-106407499D01*
X96028816Y-106360354D01*
X96075691Y-106321576D01*
X96129204Y-106292642D01*
X96187323Y-106274651D01*
X96279145Y-106265000D01*
X99283647Y-106265000D01*
X99312955Y-106262113D01*
X99319066Y-106262156D01*
X99328585Y-106261223D01*
X99522682Y-106240822D01*
X99583496Y-106228339D01*
X99644481Y-106216705D01*
X99653637Y-106213941D01*
X99840075Y-106156229D01*
X99897279Y-106132182D01*
X99954873Y-106108913D01*
X99963317Y-106104423D01*
X100134994Y-106011598D01*
X100186468Y-105976878D01*
X100238418Y-105942883D01*
X100245829Y-105936839D01*
X100396207Y-105812435D01*
X100439973Y-105768362D01*
X100484311Y-105724943D01*
X100490408Y-105717574D01*
X100613758Y-105566332D01*
X100648126Y-105514603D01*
X100683191Y-105463392D01*
X100687739Y-105454981D01*
X100687740Y-105454980D01*
X100687742Y-105454976D01*
X100779366Y-105282657D01*
X100803022Y-105225261D01*
X100827482Y-105168193D01*
X100830310Y-105159056D01*
X100886719Y-104972220D01*
X100898780Y-104911310D01*
X100911686Y-104850591D01*
X100912686Y-104841079D01*
X100931731Y-104646845D01*
X100931731Y-104646837D01*
X100935000Y-104613647D01*
X100935000Y-89546353D01*
X100932113Y-89517045D01*
X100932156Y-89510933D01*
X100931223Y-89501415D01*
X100910822Y-89307318D01*
X100898339Y-89246504D01*
X100886705Y-89185519D01*
X100883941Y-89176363D01*
X100826229Y-88989925D01*
X100802170Y-88932692D01*
X100778913Y-88875127D01*
X100774423Y-88866682D01*
X100681598Y-88695006D01*
X100646878Y-88643532D01*
X100612883Y-88591582D01*
X100606838Y-88584170D01*
X100482435Y-88433793D01*
X100438362Y-88390027D01*
X100394943Y-88345689D01*
X100387574Y-88339592D01*
X100236332Y-88216242D01*
X100184614Y-88181881D01*
X100133393Y-88146809D01*
X100124980Y-88142260D01*
X99952657Y-88050635D01*
X99895261Y-88026978D01*
X99838193Y-88002519D01*
X99829057Y-87999690D01*
X99642220Y-87943281D01*
X99581302Y-87931219D01*
X99520590Y-87918314D01*
X99511078Y-87917314D01*
X99316845Y-87898269D01*
X99316837Y-87898269D01*
X99283647Y-87895000D01*
X96283505Y-87895000D01*
X96189454Y-87885778D01*
X96131213Y-87868194D01*
X96077500Y-87839635D01*
X96030354Y-87801183D01*
X95991577Y-87754310D01*
X95962642Y-87700796D01*
X95944651Y-87642677D01*
X95935000Y-87550855D01*
X95935000Y-73216061D01*
X95975869Y-73421523D01*
X96193346Y-73946560D01*
X96509074Y-74419080D01*
X96910920Y-74820926D01*
X97383440Y-75136654D01*
X97908477Y-75354131D01*
X98465852Y-75465000D01*
X99034148Y-75465000D01*
X99591523Y-75354131D01*
X100116560Y-75136654D01*
X100589080Y-74820926D01*
X100990926Y-74419080D01*
X101306654Y-73946560D01*
X101524131Y-73421523D01*
X101610682Y-72986400D01*
X102118328Y-72986400D01*
X102118328Y-74713600D01*
X102130588Y-74838082D01*
X102166898Y-74957780D01*
X102225863Y-75068094D01*
X102305215Y-75164785D01*
X102401906Y-75244137D01*
X102512220Y-75303102D01*
X102631918Y-75339412D01*
X102756400Y-75351672D01*
X104483600Y-75351672D01*
X104608082Y-75339412D01*
X104727780Y-75303102D01*
X104838094Y-75244137D01*
X104934785Y-75164785D01*
X105014137Y-75068094D01*
X105073102Y-74957780D01*
X105090636Y-74899977D01*
X105204698Y-75014039D01*
X105450147Y-75178042D01*
X105722875Y-75291010D01*
X106012401Y-75348600D01*
X106307599Y-75348600D01*
X106537974Y-75302776D01*
X108634990Y-77399792D01*
X108634991Y-81679568D01*
X108361111Y-81596487D01*
X108070000Y-81567815D01*
X107778890Y-81596487D01*
X107498967Y-81681401D01*
X107240987Y-81819294D01*
X107014866Y-82004866D01*
X106829294Y-82230986D01*
X106820000Y-82248374D01*
X106810706Y-82230986D01*
X106625134Y-82004866D01*
X106399014Y-81819294D01*
X106141034Y-81681401D01*
X105861111Y-81596487D01*
X105570000Y-81567815D01*
X105278890Y-81596487D01*
X104998967Y-81681401D01*
X104740987Y-81819294D01*
X104514866Y-82004866D01*
X104329294Y-82230986D01*
X104191401Y-82488966D01*
X104106487Y-82768889D01*
X104085000Y-82987050D01*
X104085000Y-83382949D01*
X104106487Y-83601110D01*
X104191401Y-83881033D01*
X104329294Y-84139013D01*
X104514866Y-84365134D01*
X104740986Y-84550706D01*
X104998966Y-84688599D01*
X105278889Y-84773513D01*
X105570000Y-84802185D01*
X105861110Y-84773513D01*
X106141033Y-84688599D01*
X106399013Y-84550706D01*
X106625134Y-84365134D01*
X106810706Y-84139014D01*
X106820000Y-84121626D01*
X106829294Y-84139013D01*
X107014866Y-84365134D01*
X107240986Y-84550706D01*
X107498966Y-84688599D01*
X107778889Y-84773513D01*
X108070000Y-84802185D01*
X108361110Y-84773513D01*
X108634991Y-84690432D01*
X108634991Y-85876660D01*
X108631314Y-85913992D01*
X108645988Y-86062977D01*
X108689444Y-86206238D01*
X108760016Y-86338268D01*
X108790161Y-86374999D01*
X108854990Y-86453993D01*
X108883988Y-86477791D01*
X125787203Y-103381008D01*
X125810997Y-103410001D01*
X125839990Y-103433795D01*
X125839994Y-103433799D01*
X125886940Y-103472326D01*
X125926722Y-103504974D01*
X126058751Y-103575546D01*
X126202012Y-103619003D01*
X126313665Y-103630000D01*
X126313674Y-103630000D01*
X126350997Y-103633676D01*
X126388320Y-103630000D01*
X129407405Y-103630000D01*
X129444294Y-103699014D01*
X129629866Y-103925134D01*
X129855986Y-104110706D01*
X129873374Y-104120000D01*
X129855986Y-104129294D01*
X129629866Y-104314866D01*
X129444294Y-104540986D01*
X129306401Y-104798966D01*
X129221487Y-105078889D01*
X129192815Y-105370000D01*
X129221487Y-105661111D01*
X129306401Y-105941034D01*
X129444294Y-106199014D01*
X129629866Y-106425134D01*
X129855986Y-106610706D01*
X129873374Y-106620000D01*
X129855986Y-106629294D01*
X129629866Y-106814866D01*
X129444294Y-107040986D01*
X129306401Y-107298966D01*
X129221487Y-107578889D01*
X129192815Y-107870000D01*
X129221487Y-108161111D01*
X129306401Y-108441034D01*
X129444294Y-108699014D01*
X129625608Y-108919945D01*
X129590820Y-108930498D01*
X129480506Y-108989463D01*
X129383815Y-109068815D01*
X129304463Y-109165506D01*
X129245498Y-109275820D01*
X129209188Y-109395518D01*
X129196928Y-109520000D01*
X129200000Y-110084250D01*
X129358750Y-110243000D01*
X130683000Y-110243000D01*
X130683000Y-110223000D01*
X130937000Y-110223000D01*
X130937000Y-110243000D01*
X132261250Y-110243000D01*
X132420000Y-110084250D01*
X132423072Y-109520000D01*
X132410812Y-109395518D01*
X132374502Y-109275820D01*
X132315537Y-109165506D01*
X132236185Y-109068815D01*
X132139494Y-108989463D01*
X132029180Y-108930498D01*
X131994392Y-108919945D01*
X132175706Y-108699014D01*
X132212595Y-108630000D01*
X136320166Y-108630000D01*
X136417986Y-108659392D01*
X136567009Y-108673674D01*
X136715956Y-108658608D01*
X136809379Y-108630000D01*
X137006025Y-108630000D01*
X137064294Y-108739014D01*
X137245608Y-108959945D01*
X137210820Y-108970498D01*
X137100506Y-109029463D01*
X137003815Y-109108815D01*
X136924463Y-109205506D01*
X136865498Y-109315820D01*
X136829188Y-109435518D01*
X136816928Y-109560000D01*
X136820000Y-110124250D01*
X136978750Y-110283000D01*
X138303000Y-110283000D01*
X138303000Y-110263000D01*
X138557000Y-110263000D01*
X138557000Y-110283000D01*
X139881250Y-110283000D01*
X140040000Y-110124250D01*
X140043072Y-109560000D01*
X140030812Y-109435518D01*
X139994502Y-109315820D01*
X139935537Y-109205506D01*
X139856185Y-109108815D01*
X139759494Y-109029463D01*
X139649180Y-108970498D01*
X139614392Y-108959945D01*
X139795706Y-108739014D01*
X139832595Y-108670000D01*
X144626025Y-108670000D01*
X144684294Y-108779014D01*
X144865608Y-108999945D01*
X144830820Y-109010498D01*
X144720506Y-109069463D01*
X144623815Y-109148815D01*
X144544463Y-109245506D01*
X144485498Y-109355820D01*
X144449188Y-109475518D01*
X144436928Y-109600000D01*
X144440000Y-110164250D01*
X144598750Y-110323000D01*
X145923000Y-110323000D01*
X145923000Y-110303000D01*
X146177000Y-110303000D01*
X146177000Y-110323000D01*
X147501250Y-110323000D01*
X147660000Y-110164250D01*
X147663072Y-109600000D01*
X147650812Y-109475518D01*
X147614502Y-109355820D01*
X147555537Y-109245506D01*
X147476185Y-109148815D01*
X147379494Y-109069463D01*
X147269180Y-109010498D01*
X147234392Y-108999945D01*
X147415706Y-108779014D01*
X147553599Y-108521034D01*
X147638513Y-108241111D01*
X147667185Y-107950000D01*
X147638513Y-107658889D01*
X147553599Y-107378966D01*
X147415706Y-107120986D01*
X147230134Y-106894866D01*
X147004014Y-106709294D01*
X146986626Y-106700000D01*
X147004014Y-106690706D01*
X147230134Y-106505134D01*
X147415706Y-106279014D01*
X147431214Y-106250000D01*
X153188518Y-106250000D01*
X153221433Y-106299261D01*
X153415739Y-106493567D01*
X153644220Y-106646233D01*
X153898093Y-106751391D01*
X154167604Y-106805000D01*
X154442396Y-106805000D01*
X154711907Y-106751391D01*
X154965780Y-106646233D01*
X155194261Y-106493567D01*
X155313691Y-106374137D01*
X156060469Y-106374137D01*
X156127206Y-106614025D01*
X156375892Y-106730924D01*
X156642606Y-106797061D01*
X156917097Y-106809895D01*
X157188817Y-106768931D01*
X157447326Y-106675744D01*
X157562794Y-106614025D01*
X157629531Y-106374137D01*
X156845000Y-105589605D01*
X156060469Y-106374137D01*
X155313691Y-106374137D01*
X155388567Y-106299261D01*
X155541233Y-106070780D01*
X155572830Y-105994499D01*
X155579256Y-106012326D01*
X155640975Y-106127794D01*
X155880863Y-106194531D01*
X156665395Y-105410000D01*
X157024605Y-105410000D01*
X157809137Y-106194531D01*
X158049025Y-106127794D01*
X158165924Y-105879108D01*
X158232061Y-105612394D01*
X158244895Y-105337903D01*
X158203931Y-105066183D01*
X158110744Y-104807674D01*
X158049025Y-104692206D01*
X157809137Y-104625469D01*
X157024605Y-105410000D01*
X156665395Y-105410000D01*
X155880863Y-104625469D01*
X155640975Y-104692206D01*
X155575400Y-104831707D01*
X155541233Y-104749220D01*
X155388567Y-104520739D01*
X155194261Y-104326433D01*
X154965780Y-104173767D01*
X154884260Y-104140000D01*
X154965780Y-104106233D01*
X155194261Y-103953567D01*
X155313691Y-103834137D01*
X156060469Y-103834137D01*
X156127206Y-104074025D01*
X156261882Y-104137332D01*
X156242674Y-104144256D01*
X156127206Y-104205975D01*
X156060469Y-104445863D01*
X156845000Y-105230395D01*
X157629531Y-104445863D01*
X157562794Y-104205975D01*
X157428118Y-104142668D01*
X157447326Y-104135744D01*
X157562794Y-104074025D01*
X157629531Y-103834137D01*
X156845000Y-103049605D01*
X156060469Y-103834137D01*
X155313691Y-103834137D01*
X155388567Y-103759261D01*
X155541233Y-103530780D01*
X155572830Y-103454499D01*
X155579256Y-103472326D01*
X155640975Y-103587794D01*
X155880863Y-103654531D01*
X156665395Y-102870000D01*
X157024605Y-102870000D01*
X157809137Y-103654531D01*
X158049025Y-103587794D01*
X158165924Y-103339108D01*
X158232061Y-103072394D01*
X158244895Y-102797903D01*
X158203931Y-102526183D01*
X158110744Y-102267674D01*
X158049025Y-102152206D01*
X157809137Y-102085469D01*
X157024605Y-102870000D01*
X156665395Y-102870000D01*
X155880863Y-102085469D01*
X155640975Y-102152206D01*
X155575400Y-102291707D01*
X155541233Y-102209220D01*
X155388567Y-101980739D01*
X155194261Y-101786433D01*
X154965780Y-101633767D01*
X154884260Y-101600000D01*
X154965780Y-101566233D01*
X155194261Y-101413567D01*
X155313691Y-101294137D01*
X156060469Y-101294137D01*
X156127206Y-101534025D01*
X156261882Y-101597332D01*
X156242674Y-101604256D01*
X156127206Y-101665975D01*
X156060469Y-101905863D01*
X156845000Y-102690395D01*
X157629531Y-101905863D01*
X157562794Y-101665975D01*
X157428118Y-101602668D01*
X157447326Y-101595744D01*
X157562794Y-101534025D01*
X157629531Y-101294137D01*
X156845000Y-100509605D01*
X156060469Y-101294137D01*
X155313691Y-101294137D01*
X155388567Y-101219261D01*
X155541233Y-100990780D01*
X155572830Y-100914499D01*
X155579256Y-100932326D01*
X155640975Y-101047794D01*
X155880863Y-101114531D01*
X156665395Y-100330000D01*
X157024605Y-100330000D01*
X157809137Y-101114531D01*
X158049025Y-101047794D01*
X158165924Y-100799108D01*
X158232061Y-100532394D01*
X158244895Y-100257903D01*
X158203931Y-99986183D01*
X158110744Y-99727674D01*
X158049025Y-99612206D01*
X157809137Y-99545469D01*
X157024605Y-100330000D01*
X156665395Y-100330000D01*
X155880863Y-99545469D01*
X155640975Y-99612206D01*
X155575400Y-99751707D01*
X155541233Y-99669220D01*
X155388567Y-99440739D01*
X155194261Y-99246433D01*
X154965780Y-99093767D01*
X154884260Y-99060000D01*
X154965780Y-99026233D01*
X155194261Y-98873567D01*
X155313691Y-98754137D01*
X156060469Y-98754137D01*
X156127206Y-98994025D01*
X156261882Y-99057332D01*
X156242674Y-99064256D01*
X156127206Y-99125975D01*
X156060469Y-99365863D01*
X156845000Y-100150395D01*
X157629531Y-99365863D01*
X157562794Y-99125975D01*
X157428118Y-99062668D01*
X157447326Y-99055744D01*
X157562794Y-98994025D01*
X157629531Y-98754137D01*
X156845000Y-97969605D01*
X156060469Y-98754137D01*
X155313691Y-98754137D01*
X155388567Y-98679261D01*
X155541233Y-98450780D01*
X155572830Y-98374499D01*
X155579256Y-98392326D01*
X155640975Y-98507794D01*
X155880863Y-98574531D01*
X156665395Y-97790000D01*
X157024605Y-97790000D01*
X157809137Y-98574531D01*
X158049025Y-98507794D01*
X158165924Y-98259108D01*
X158232061Y-97992394D01*
X158244895Y-97717903D01*
X158203931Y-97446183D01*
X158110744Y-97187674D01*
X158049025Y-97072206D01*
X157809137Y-97005469D01*
X157024605Y-97790000D01*
X156665395Y-97790000D01*
X155880863Y-97005469D01*
X155640975Y-97072206D01*
X155575400Y-97211707D01*
X155541233Y-97129220D01*
X155388567Y-96900739D01*
X155194261Y-96706433D01*
X154965780Y-96553767D01*
X154884260Y-96520000D01*
X154965780Y-96486233D01*
X155194261Y-96333567D01*
X155388567Y-96139261D01*
X155541233Y-95910780D01*
X155575000Y-95829260D01*
X155608767Y-95910780D01*
X155761433Y-96139261D01*
X155955739Y-96333567D01*
X156184220Y-96486233D01*
X156260501Y-96517830D01*
X156242674Y-96524256D01*
X156127206Y-96585975D01*
X156060469Y-96825863D01*
X156845000Y-97610395D01*
X157629531Y-96825863D01*
X157562794Y-96585975D01*
X157423293Y-96520400D01*
X157505780Y-96486233D01*
X157734261Y-96333567D01*
X157928567Y-96139261D01*
X158081233Y-95910780D01*
X158186391Y-95656907D01*
X158240000Y-95387396D01*
X158240000Y-95112604D01*
X158209671Y-94960130D01*
X158440998Y-94728803D01*
X158470002Y-94705000D01*
X158564975Y-94589275D01*
X158635547Y-94457246D01*
X158679004Y-94313985D01*
X158690001Y-94202332D01*
X158690001Y-94202323D01*
X158693677Y-94165000D01*
X158690001Y-94127677D01*
X158690001Y-89686521D01*
X158693677Y-89649198D01*
X158690001Y-89611875D01*
X158690001Y-89611866D01*
X158679004Y-89500213D01*
X158635547Y-89356952D01*
X158564975Y-89224923D01*
X158470002Y-89109198D01*
X158441005Y-89085401D01*
X150304180Y-80948576D01*
X152210000Y-80948576D01*
X152210000Y-81611424D01*
X152339315Y-82261534D01*
X152592976Y-82873925D01*
X152961234Y-83425063D01*
X153429937Y-83893766D01*
X153981075Y-84262024D01*
X154593466Y-84515685D01*
X155243576Y-84645000D01*
X155906424Y-84645000D01*
X156556534Y-84515685D01*
X157168925Y-84262024D01*
X157720063Y-83893766D01*
X158188766Y-83425063D01*
X158557024Y-82873925D01*
X158810685Y-82261534D01*
X158940000Y-81611424D01*
X158940000Y-80948576D01*
X158810685Y-80298466D01*
X158557024Y-79686075D01*
X158188766Y-79134937D01*
X157720063Y-78666234D01*
X157168925Y-78297976D01*
X156556534Y-78044315D01*
X155906424Y-77915000D01*
X155243576Y-77915000D01*
X154593466Y-78044315D01*
X153981075Y-78297976D01*
X153429937Y-78666234D01*
X152961234Y-79134937D01*
X152592976Y-79686075D01*
X152339315Y-80298466D01*
X152210000Y-80948576D01*
X150304180Y-80948576D01*
X147560000Y-78204397D01*
X147560000Y-75144535D01*
X147755302Y-75014039D01*
X147964039Y-74805302D01*
X148070000Y-74646719D01*
X148175961Y-74805302D01*
X148384698Y-75014039D01*
X148630147Y-75178042D01*
X148902875Y-75291010D01*
X149192401Y-75348600D01*
X149487599Y-75348600D01*
X149777125Y-75291010D01*
X150049853Y-75178042D01*
X150295302Y-75014039D01*
X150504039Y-74805302D01*
X150614559Y-74639897D01*
X150673183Y-74738488D01*
X150869707Y-74956854D01*
X151105056Y-75132684D01*
X151370186Y-75259222D01*
X151520974Y-75304958D01*
X151753000Y-75183817D01*
X151753000Y-73977000D01*
X152007000Y-73977000D01*
X152007000Y-75183817D01*
X152239026Y-75304958D01*
X152389814Y-75259222D01*
X152654944Y-75132684D01*
X152890293Y-74956854D01*
X153086817Y-74738488D01*
X153236964Y-74485978D01*
X153334963Y-74209027D01*
X153214464Y-73977000D01*
X152007000Y-73977000D01*
X151753000Y-73977000D01*
X151733000Y-73977000D01*
X151733000Y-73723000D01*
X151753000Y-73723000D01*
X151753000Y-73703000D01*
X152007000Y-73703000D01*
X152007000Y-73723000D01*
X153214464Y-73723000D01*
X153334963Y-73490973D01*
X153236964Y-73214022D01*
X153086817Y-72961512D01*
X152890293Y-72743146D01*
X152674187Y-72581692D01*
X152835302Y-72474039D01*
X153044039Y-72265302D01*
X153208042Y-72019853D01*
X153321010Y-71747125D01*
X153378600Y-71457599D01*
X153378600Y-71162401D01*
X153321010Y-70872875D01*
X153208042Y-70600147D01*
X153044039Y-70354698D01*
X152835302Y-70145961D01*
X152589853Y-69981958D01*
X152317125Y-69868990D01*
X152027599Y-69811400D01*
X151732401Y-69811400D01*
X151442875Y-69868990D01*
X151170147Y-69981958D01*
X150924698Y-70145961D01*
X150715961Y-70354698D01*
X150610000Y-70513281D01*
X150504039Y-70354698D01*
X150295302Y-70145961D01*
X150049853Y-69981958D01*
X149777125Y-69868990D01*
X149487599Y-69811400D01*
X149192401Y-69811400D01*
X148902875Y-69868990D01*
X148630147Y-69981958D01*
X148384698Y-70145961D01*
X148175961Y-70354698D01*
X148070000Y-70513281D01*
X147964039Y-70354698D01*
X147755302Y-70145961D01*
X147509853Y-69981958D01*
X147237125Y-69868990D01*
X146947599Y-69811400D01*
X146652401Y-69811400D01*
X146362875Y-69868990D01*
X146090147Y-69981958D01*
X145844698Y-70145961D01*
X145635961Y-70354698D01*
X145525441Y-70520103D01*
X145466817Y-70421512D01*
X145270293Y-70203146D01*
X145034944Y-70027316D01*
X144769814Y-69900778D01*
X144619026Y-69855042D01*
X144387000Y-69976183D01*
X144387000Y-71183000D01*
X144407000Y-71183000D01*
X144407000Y-71437000D01*
X144387000Y-71437000D01*
X144387000Y-71457000D01*
X144133000Y-71457000D01*
X144133000Y-71437000D01*
X144113000Y-71437000D01*
X144113000Y-71183000D01*
X144133000Y-71183000D01*
X144133000Y-69976183D01*
X143900974Y-69855042D01*
X143750186Y-69900778D01*
X143485056Y-70027316D01*
X143249707Y-70203146D01*
X143053183Y-70421512D01*
X142994559Y-70520103D01*
X142884039Y-70354698D01*
X142675302Y-70145961D01*
X142429853Y-69981958D01*
X142157125Y-69868990D01*
X141867599Y-69811400D01*
X141572401Y-69811400D01*
X141282875Y-69868990D01*
X141010147Y-69981958D01*
X140764698Y-70145961D01*
X140555961Y-70354698D01*
X140445441Y-70520103D01*
X140386817Y-70421512D01*
X140190293Y-70203146D01*
X139954944Y-70027316D01*
X139689814Y-69900778D01*
X139539026Y-69855042D01*
X139307000Y-69976183D01*
X139307000Y-71183000D01*
X139327000Y-71183000D01*
X139327000Y-71437000D01*
X139307000Y-71437000D01*
X139307000Y-71457000D01*
X139053000Y-71457000D01*
X139053000Y-71437000D01*
X139033000Y-71437000D01*
X139033000Y-71183000D01*
X139053000Y-71183000D01*
X139053000Y-69976183D01*
X138820974Y-69855042D01*
X138670186Y-69900778D01*
X138405056Y-70027316D01*
X138169707Y-70203146D01*
X137973183Y-70421512D01*
X137914559Y-70520103D01*
X137804039Y-70354698D01*
X137595302Y-70145961D01*
X137349853Y-69981958D01*
X137077125Y-69868990D01*
X136787599Y-69811400D01*
X136492401Y-69811400D01*
X136202875Y-69868990D01*
X135930147Y-69981958D01*
X135684698Y-70145961D01*
X135475961Y-70354698D01*
X135370000Y-70513281D01*
X135264039Y-70354698D01*
X135055302Y-70145961D01*
X134809853Y-69981958D01*
X134537125Y-69868990D01*
X134247599Y-69811400D01*
X133952401Y-69811400D01*
X133662875Y-69868990D01*
X133390147Y-69981958D01*
X133144698Y-70145961D01*
X132935961Y-70354698D01*
X132830000Y-70513281D01*
X132724039Y-70354698D01*
X132515302Y-70145961D01*
X132269853Y-69981958D01*
X131997125Y-69868990D01*
X131707599Y-69811400D01*
X131412401Y-69811400D01*
X131122875Y-69868990D01*
X130850147Y-69981958D01*
X130604698Y-70145961D01*
X130395961Y-70354698D01*
X130290000Y-70513281D01*
X130184039Y-70354698D01*
X129975302Y-70145961D01*
X129729853Y-69981958D01*
X129457125Y-69868990D01*
X129167599Y-69811400D01*
X128872401Y-69811400D01*
X128582875Y-69868990D01*
X128310147Y-69981958D01*
X128064698Y-70145961D01*
X127855961Y-70354698D01*
X127745441Y-70520103D01*
X127686817Y-70421512D01*
X127490293Y-70203146D01*
X127254944Y-70027316D01*
X126989814Y-69900778D01*
X126839026Y-69855042D01*
X126607000Y-69976183D01*
X126607000Y-71183000D01*
X126627000Y-71183000D01*
X126627000Y-71437000D01*
X126607000Y-71437000D01*
X126607000Y-71457000D01*
X126353000Y-71457000D01*
X126353000Y-71437000D01*
X126333000Y-71437000D01*
X126333000Y-71183000D01*
X126353000Y-71183000D01*
X126353000Y-69976183D01*
X126120974Y-69855042D01*
X125970186Y-69900778D01*
X125705056Y-70027316D01*
X125469707Y-70203146D01*
X125273183Y-70421512D01*
X125214559Y-70520103D01*
X125104039Y-70354698D01*
X124895302Y-70145961D01*
X124649853Y-69981958D01*
X124377125Y-69868990D01*
X124087599Y-69811400D01*
X123792401Y-69811400D01*
X123502875Y-69868990D01*
X123230147Y-69981958D01*
X122984698Y-70145961D01*
X122775961Y-70354698D01*
X122670000Y-70513281D01*
X122564039Y-70354698D01*
X122355302Y-70145961D01*
X122109853Y-69981958D01*
X121837125Y-69868990D01*
X121547599Y-69811400D01*
X121252401Y-69811400D01*
X120962875Y-69868990D01*
X120690147Y-69981958D01*
X120444698Y-70145961D01*
X120235961Y-70354698D01*
X120125441Y-70520103D01*
X120066817Y-70421512D01*
X119870293Y-70203146D01*
X119634944Y-70027316D01*
X119369814Y-69900778D01*
X119219026Y-69855042D01*
X118987000Y-69976183D01*
X118987000Y-71183000D01*
X119007000Y-71183000D01*
X119007000Y-71437000D01*
X118987000Y-71437000D01*
X118987000Y-71457000D01*
X118733000Y-71457000D01*
X118733000Y-71437000D01*
X118713000Y-71437000D01*
X118713000Y-71183000D01*
X118733000Y-71183000D01*
X118733000Y-69976183D01*
X118500974Y-69855042D01*
X118350186Y-69900778D01*
X118085056Y-70027316D01*
X117849707Y-70203146D01*
X117653183Y-70421512D01*
X117594559Y-70520103D01*
X117484039Y-70354698D01*
X117275302Y-70145961D01*
X117029853Y-69981958D01*
X116757125Y-69868990D01*
X116467599Y-69811400D01*
X116172401Y-69811400D01*
X115882875Y-69868990D01*
X115610147Y-69981958D01*
X115364698Y-70145961D01*
X115155961Y-70354698D01*
X115050000Y-70513281D01*
X114944039Y-70354698D01*
X114735302Y-70145961D01*
X114489853Y-69981958D01*
X114217125Y-69868990D01*
X113927599Y-69811400D01*
X113632401Y-69811400D01*
X113342875Y-69868990D01*
X113070147Y-69981958D01*
X112824698Y-70145961D01*
X112615961Y-70354698D01*
X112510000Y-70513281D01*
X112404039Y-70354698D01*
X112195302Y-70145961D01*
X111949853Y-69981958D01*
X111677125Y-69868990D01*
X111387599Y-69811400D01*
X111092401Y-69811400D01*
X110802875Y-69868990D01*
X110530147Y-69981958D01*
X110284698Y-70145961D01*
X110075961Y-70354698D01*
X109965441Y-70520103D01*
X109906817Y-70421512D01*
X109710293Y-70203146D01*
X109474944Y-70027316D01*
X109209814Y-69900778D01*
X109059026Y-69855042D01*
X108827000Y-69976183D01*
X108827000Y-71183000D01*
X108847000Y-71183000D01*
X108847000Y-71437000D01*
X108827000Y-71437000D01*
X108827000Y-71457000D01*
X108573000Y-71457000D01*
X108573000Y-71437000D01*
X108553000Y-71437000D01*
X108553000Y-71183000D01*
X108573000Y-71183000D01*
X108573000Y-69976183D01*
X108340974Y-69855042D01*
X108190186Y-69900778D01*
X107925056Y-70027316D01*
X107689707Y-70203146D01*
X107493183Y-70421512D01*
X107434559Y-70520103D01*
X107324039Y-70354698D01*
X107115302Y-70145961D01*
X106869853Y-69981958D01*
X106597125Y-69868990D01*
X106307599Y-69811400D01*
X106012401Y-69811400D01*
X105722875Y-69868990D01*
X105450147Y-69981958D01*
X105204698Y-70145961D01*
X104995961Y-70354698D01*
X104890000Y-70513281D01*
X104784039Y-70354698D01*
X104575302Y-70145961D01*
X104329853Y-69981958D01*
X104057125Y-69868990D01*
X103767599Y-69811400D01*
X103472401Y-69811400D01*
X103182875Y-69868990D01*
X102910147Y-69981958D01*
X102664698Y-70145961D01*
X102455961Y-70354698D01*
X102291958Y-70600147D01*
X102178990Y-70872875D01*
X102121400Y-71162401D01*
X102121400Y-71457599D01*
X102178990Y-71747125D01*
X102291958Y-72019853D01*
X102455961Y-72265302D01*
X102570023Y-72379364D01*
X102512220Y-72396898D01*
X102401906Y-72455863D01*
X102305215Y-72535215D01*
X102225863Y-72631906D01*
X102166898Y-72742220D01*
X102130588Y-72861918D01*
X102118328Y-72986400D01*
X101610682Y-72986400D01*
X101635000Y-72864148D01*
X101635000Y-72295852D01*
X101524131Y-71738477D01*
X101306654Y-71213440D01*
X100990926Y-70740920D01*
X100589080Y-70339074D01*
X100116560Y-70023346D01*
X99591523Y-69805869D01*
X99034148Y-69695000D01*
X98465852Y-69695000D01*
X97908477Y-69805869D01*
X97383440Y-70023346D01*
X96910920Y-70339074D01*
X96509074Y-70740920D01*
X96193346Y-71213440D01*
X95975869Y-71738477D01*
X95935000Y-71943939D01*
X95935000Y-71613505D01*
X95982312Y-71130984D01*
X96112714Y-70699070D01*
X96324524Y-70300715D01*
X96609675Y-69951086D01*
X96957303Y-69663503D01*
X97354177Y-69448914D01*
X97785161Y-69315502D01*
X98265654Y-69265000D01*
X157216495Y-69265000D01*
X157699016Y-69312312D01*
G37*
X157699016Y-69312312D02*
X158130930Y-69442714D01*
X158529285Y-69654524D01*
X158878914Y-69939675D01*
X159166497Y-70287303D01*
X159381086Y-70684177D01*
X159514498Y-71115161D01*
X159565000Y-71595654D01*
X159565000Y-71943939D01*
X159524131Y-71738477D01*
X159306654Y-71213440D01*
X158990926Y-70740920D01*
X158589080Y-70339074D01*
X158116560Y-70023346D01*
X157591523Y-69805869D01*
X157034148Y-69695000D01*
X156465852Y-69695000D01*
X155908477Y-69805869D01*
X155383440Y-70023346D01*
X154910920Y-70339074D01*
X154509074Y-70740920D01*
X154193346Y-71213440D01*
X153975869Y-71738477D01*
X153865000Y-72295852D01*
X153865000Y-72864148D01*
X153975869Y-73421523D01*
X154193346Y-73946560D01*
X154509074Y-74419080D01*
X154910920Y-74820926D01*
X155383440Y-75136654D01*
X155908477Y-75354131D01*
X156465852Y-75465000D01*
X157034148Y-75465000D01*
X157591523Y-75354131D01*
X158116560Y-75136654D01*
X158589080Y-74820926D01*
X158990926Y-74419080D01*
X159306654Y-73946560D01*
X159524131Y-73421523D01*
X159565000Y-73216061D01*
X159565001Y-120943944D01*
X159524131Y-120738477D01*
X159306654Y-120213440D01*
X158990926Y-119740920D01*
X158589080Y-119339074D01*
X158116560Y-119023346D01*
X157591523Y-118805869D01*
X157034148Y-118695000D01*
X156465852Y-118695000D01*
X155908477Y-118805869D01*
X155383440Y-119023346D01*
X154910920Y-119339074D01*
X154509074Y-119740920D01*
X154193346Y-120213440D01*
X153975869Y-120738477D01*
X153865000Y-121295852D01*
X153865000Y-121864148D01*
X153975869Y-122421523D01*
X154193346Y-122946560D01*
X154509074Y-123419080D01*
X154910920Y-123820926D01*
X155383440Y-124136654D01*
X155908477Y-124354131D01*
X156113939Y-124395000D01*
X99386061Y-124395000D01*
X99591523Y-124354131D01*
X100116560Y-124136654D01*
X100589080Y-123820926D01*
X100990926Y-123419080D01*
X101306654Y-122946560D01*
X101524131Y-122421523D01*
X101635000Y-121864148D01*
X101635000Y-121295852D01*
X101524131Y-120738477D01*
X101306654Y-120213440D01*
X101113925Y-119925000D01*
X107096928Y-119925000D01*
X107096928Y-121375000D01*
X107113992Y-121548254D01*
X107164528Y-121714850D01*
X107246595Y-121868386D01*
X107357038Y-122002962D01*
X107491614Y-122113405D01*
X107645150Y-122195472D01*
X107811746Y-122246008D01*
X107985000Y-122263072D01*
X109185000Y-122263072D01*
X109358254Y-122246008D01*
X109524850Y-122195472D01*
X109678386Y-122113405D01*
X109812962Y-122002962D01*
X109923405Y-121868386D01*
X109977777Y-121766663D01*
X110029866Y-121830134D01*
X110255987Y-122015706D01*
X110513967Y-122153599D01*
X110793890Y-122238513D01*
X111085000Y-122267185D01*
X111376111Y-122238513D01*
X111656034Y-122153599D01*
X111914014Y-122015706D01*
X112140134Y-121830134D01*
X112325706Y-121604014D01*
X112335000Y-121586626D01*
X112344294Y-121604014D01*
X112529866Y-121830134D01*
X112755987Y-122015706D01*
X113013967Y-122153599D01*
X113293890Y-122238513D01*
X113585000Y-122267185D01*
X113876111Y-122238513D01*
X114156034Y-122153599D01*
X114414014Y-122015706D01*
X114640134Y-121830134D01*
X114825706Y-121604014D01*
X114835000Y-121586626D01*
X114844294Y-121604014D01*
X115029866Y-121830134D01*
X115255987Y-122015706D01*
X115513967Y-122153599D01*
X115793890Y-122238513D01*
X116085000Y-122267185D01*
X116376111Y-122238513D01*
X116656034Y-122153599D01*
X116914014Y-122015706D01*
X117140134Y-121830134D01*
X117325706Y-121604014D01*
X117463599Y-121346033D01*
X117548513Y-121066110D01*
X117570000Y-120847949D01*
X117570000Y-120452050D01*
X117548513Y-120233889D01*
X117463599Y-119953966D01*
X117325706Y-119695986D01*
X117140134Y-119469866D01*
X116914013Y-119284294D01*
X116656033Y-119146401D01*
X116376110Y-119061487D01*
X116085000Y-119032815D01*
X115793889Y-119061487D01*
X115513966Y-119146401D01*
X115255986Y-119284294D01*
X115029866Y-119469866D01*
X114844294Y-119695987D01*
X114835000Y-119713374D01*
X114825706Y-119695986D01*
X114640134Y-119469866D01*
X114414013Y-119284294D01*
X114156033Y-119146401D01*
X113876110Y-119061487D01*
X113585000Y-119032815D01*
X113293889Y-119061487D01*
X113013966Y-119146401D01*
X112755986Y-119284294D01*
X112529866Y-119469866D01*
X112344294Y-119695987D01*
X112335000Y-119713374D01*
X112325706Y-119695986D01*
X112140134Y-119469866D01*
X111914013Y-119284294D01*
X111656033Y-119146401D01*
X111376110Y-119061487D01*
X111085000Y-119032815D01*
X110793889Y-119061487D01*
X110513966Y-119146401D01*
X110255986Y-119284294D01*
X110029866Y-119469866D01*
X109977777Y-119533337D01*
X109923405Y-119431614D01*
X109812962Y-119297038D01*
X109678386Y-119186595D01*
X109524850Y-119104528D01*
X109358254Y-119053992D01*
X109185000Y-119036928D01*
X107985000Y-119036928D01*
X107811746Y-119053992D01*
X107645150Y-119104528D01*
X107491614Y-119186595D01*
X107357038Y-119297038D01*
X107246595Y-119431614D01*
X107164528Y-119585150D01*
X107113992Y-119751746D01*
X107096928Y-119925000D01*
X101113925Y-119925000D01*
X100990926Y-119740920D01*
X100589080Y-119339074D01*
X100116560Y-119023346D01*
X99591523Y-118805869D01*
X99034148Y-118695000D01*
X98465852Y-118695000D01*
X97908477Y-118805869D01*
X97383440Y-119023346D01*
X96910920Y-119339074D01*
X96509074Y-119740920D01*
X96193346Y-120213440D01*
X95975869Y-120738477D01*
X95935000Y-120943939D01*
X95935000Y-113969800D01*
X105746588Y-113969800D01*
X105768985Y-114197200D01*
X105835315Y-114415860D01*
X105936305Y-114604800D01*
X105835315Y-114793740D01*
X105768985Y-115012400D01*
X105746588Y-115239800D01*
X105768985Y-115467200D01*
X105835315Y-115685860D01*
X105943029Y-115887379D01*
X106087988Y-116064012D01*
X106264621Y-116208971D01*
X106466140Y-116316685D01*
X106684800Y-116383015D01*
X106855221Y-116399800D01*
X107419179Y-116399800D01*
X107589600Y-116383015D01*
X107808260Y-116316685D01*
X108009779Y-116208971D01*
X108186412Y-116064012D01*
X108331371Y-115887379D01*
X108439085Y-115685860D01*
X108505415Y-115467200D01*
X108527812Y-115239800D01*
X108505415Y-115012400D01*
X108439085Y-114793740D01*
X108338095Y-114604800D01*
X108439085Y-114415860D01*
X108505415Y-114197200D01*
X108520306Y-114046000D01*
X112147388Y-114046000D01*
X112169785Y-114273400D01*
X112236115Y-114492060D01*
X112337105Y-114681000D01*
X112236115Y-114869940D01*
X112169785Y-115088600D01*
X112147388Y-115316000D01*
X112169785Y-115543400D01*
X112236115Y-115762060D01*
X112343829Y-115963579D01*
X112488788Y-116140212D01*
X112665421Y-116285171D01*
X112866940Y-116392885D01*
X113085600Y-116459215D01*
X113256021Y-116476000D01*
X113819979Y-116476000D01*
X113990400Y-116459215D01*
X114209060Y-116392885D01*
X114410579Y-116285171D01*
X114587212Y-116140212D01*
X114732171Y-115963579D01*
X114839885Y-115762060D01*
X114906215Y-115543400D01*
X114928612Y-115316000D01*
X114906215Y-115088600D01*
X114839885Y-114869940D01*
X114738895Y-114681000D01*
X114839885Y-114492060D01*
X114906215Y-114273400D01*
X114928612Y-114046000D01*
X114908599Y-113842800D01*
X118497388Y-113842800D01*
X118519785Y-114070200D01*
X118586115Y-114288860D01*
X118687105Y-114477800D01*
X118586115Y-114666740D01*
X118519785Y-114885400D01*
X118497388Y-115112800D01*
X118519785Y-115340200D01*
X118586115Y-115558860D01*
X118693829Y-115760379D01*
X118838788Y-115937012D01*
X119015421Y-116081971D01*
X119216940Y-116189685D01*
X119435600Y-116256015D01*
X119606021Y-116272800D01*
X120169979Y-116272800D01*
X120340400Y-116256015D01*
X120559060Y-116189685D01*
X120760579Y-116081971D01*
X120937212Y-115937012D01*
X121082171Y-115760379D01*
X121189885Y-115558860D01*
X121256215Y-115340200D01*
X121278612Y-115112800D01*
X121256215Y-114885400D01*
X121189885Y-114666740D01*
X121088895Y-114477800D01*
X121189885Y-114288860D01*
X121256215Y-114070200D01*
X121266224Y-113968576D01*
X152210000Y-113968576D01*
X152210000Y-114631424D01*
X152339315Y-115281534D01*
X152592976Y-115893925D01*
X152961234Y-116445063D01*
X153429937Y-116913766D01*
X153981075Y-117282024D01*
X154593466Y-117535685D01*
X155243576Y-117665000D01*
X155906424Y-117665000D01*
X156556534Y-117535685D01*
X157168925Y-117282024D01*
X157720063Y-116913766D01*
X158188766Y-116445063D01*
X158557024Y-115893925D01*
X158810685Y-115281534D01*
X158940000Y-114631424D01*
X158940000Y-113968576D01*
X158810685Y-113318466D01*
X158557024Y-112706075D01*
X158188766Y-112154937D01*
X157720063Y-111686234D01*
X157168925Y-111317976D01*
X156556534Y-111064315D01*
X155906424Y-110935000D01*
X155243576Y-110935000D01*
X154593466Y-111064315D01*
X153981075Y-111317976D01*
X153429937Y-111686234D01*
X152961234Y-112154937D01*
X152592976Y-112706075D01*
X152339315Y-113318466D01*
X152210000Y-113968576D01*
X121266224Y-113968576D01*
X121278612Y-113842800D01*
X121256215Y-113615400D01*
X121192907Y-113406702D01*
X121227502Y-113341980D01*
X121263812Y-113222282D01*
X121276072Y-113097800D01*
X121273000Y-112858550D01*
X121114250Y-112699800D01*
X120341109Y-112699800D01*
X120340400Y-112699585D01*
X120169979Y-112682800D01*
X119606021Y-112682800D01*
X119435600Y-112699585D01*
X119434891Y-112699800D01*
X118661750Y-112699800D01*
X118503000Y-112858550D01*
X118499928Y-113097800D01*
X118512188Y-113222282D01*
X118548498Y-113341980D01*
X118583093Y-113406702D01*
X118519785Y-113615400D01*
X118497388Y-113842800D01*
X114908599Y-113842800D01*
X114906215Y-113818600D01*
X114842907Y-113609902D01*
X114877502Y-113545180D01*
X114913812Y-113425482D01*
X114926072Y-113301000D01*
X114923000Y-113061750D01*
X114764250Y-112903000D01*
X113991109Y-112903000D01*
X113990400Y-112902785D01*
X113819979Y-112886000D01*
X113256021Y-112886000D01*
X113085600Y-112902785D01*
X113084891Y-112903000D01*
X112311750Y-112903000D01*
X112153000Y-113061750D01*
X112149928Y-113301000D01*
X112162188Y-113425482D01*
X112198498Y-113545180D01*
X112233093Y-113609902D01*
X112169785Y-113818600D01*
X112147388Y-114046000D01*
X108520306Y-114046000D01*
X108527812Y-113969800D01*
X108505415Y-113742400D01*
X108442107Y-113533702D01*
X108476702Y-113468980D01*
X108513012Y-113349282D01*
X108525272Y-113224800D01*
X108522200Y-112985550D01*
X108363450Y-112826800D01*
X107590309Y-112826800D01*
X107589600Y-112826585D01*
X107419179Y-112809800D01*
X106855221Y-112809800D01*
X106684800Y-112826585D01*
X106684091Y-112826800D01*
X105910950Y-112826800D01*
X105752200Y-112985550D01*
X105749128Y-113224800D01*
X105761388Y-113349282D01*
X105797698Y-113468980D01*
X105832293Y-113533702D01*
X105768985Y-113742400D01*
X105746588Y-113969800D01*
X95935000Y-113969800D01*
X95935000Y-112174800D01*
X105749128Y-112174800D01*
X105752200Y-112414050D01*
X105910950Y-112572800D01*
X107010200Y-112572800D01*
X107010200Y-111698550D01*
X107264200Y-111698550D01*
X107264200Y-112572800D01*
X108363450Y-112572800D01*
X108522200Y-112414050D01*
X108524293Y-112251000D01*
X112149928Y-112251000D01*
X112153000Y-112490250D01*
X112311750Y-112649000D01*
X113411000Y-112649000D01*
X113411000Y-111774750D01*
X113665000Y-111774750D01*
X113665000Y-112649000D01*
X114764250Y-112649000D01*
X114923000Y-112490250D01*
X114926072Y-112251000D01*
X114913812Y-112126518D01*
X114889934Y-112047800D01*
X118499928Y-112047800D01*
X118503000Y-112287050D01*
X118661750Y-112445800D01*
X119761000Y-112445800D01*
X119761000Y-111571550D01*
X120015000Y-111571550D01*
X120015000Y-112445800D01*
X121114250Y-112445800D01*
X121273000Y-112287050D01*
X121276072Y-112047800D01*
X121263812Y-111923318D01*
X121227502Y-111803620D01*
X121168537Y-111693306D01*
X121089185Y-111596615D01*
X120992494Y-111517263D01*
X120882180Y-111458298D01*
X120762482Y-111421988D01*
X120638000Y-111409728D01*
X120173750Y-111412800D01*
X120015000Y-111571550D01*
X119761000Y-111571550D01*
X119602250Y-111412800D01*
X119138000Y-111409728D01*
X119013518Y-111421988D01*
X118893820Y-111458298D01*
X118783506Y-111517263D01*
X118686815Y-111596615D01*
X118607463Y-111693306D01*
X118548498Y-111803620D01*
X118512188Y-111923318D01*
X118499928Y-112047800D01*
X114889934Y-112047800D01*
X114877502Y-112006820D01*
X114818537Y-111896506D01*
X114739185Y-111799815D01*
X114642494Y-111720463D01*
X114532180Y-111661498D01*
X114412482Y-111625188D01*
X114288000Y-111612928D01*
X113823750Y-111616000D01*
X113665000Y-111774750D01*
X113411000Y-111774750D01*
X113252250Y-111616000D01*
X112788000Y-111612928D01*
X112663518Y-111625188D01*
X112543820Y-111661498D01*
X112433506Y-111720463D01*
X112336815Y-111799815D01*
X112257463Y-111896506D01*
X112198498Y-112006820D01*
X112162188Y-112126518D01*
X112149928Y-112251000D01*
X108524293Y-112251000D01*
X108525272Y-112174800D01*
X108513012Y-112050318D01*
X108476702Y-111930620D01*
X108417737Y-111820306D01*
X108338385Y-111723615D01*
X108241694Y-111644263D01*
X108131380Y-111585298D01*
X108011682Y-111548988D01*
X107887200Y-111536728D01*
X107422950Y-111539800D01*
X107264200Y-111698550D01*
X107010200Y-111698550D01*
X106851450Y-111539800D01*
X106387200Y-111536728D01*
X106262718Y-111548988D01*
X106143020Y-111585298D01*
X106032706Y-111644263D01*
X105936015Y-111723615D01*
X105856663Y-111820306D01*
X105797698Y-111930620D01*
X105761388Y-112050318D01*
X105749128Y-112174800D01*
X95935000Y-112174800D01*
X95935000Y-111220000D01*
X129196928Y-111220000D01*
X129209188Y-111344482D01*
X129245498Y-111464180D01*
X129304463Y-111574494D01*
X129383815Y-111671185D01*
X129480506Y-111750537D01*
X129590820Y-111809502D01*
X129710518Y-111845812D01*
X129835000Y-111858072D01*
X130524250Y-111855000D01*
X130683000Y-111696250D01*
X130683000Y-110497000D01*
X130937000Y-110497000D01*
X130937000Y-111696250D01*
X131095750Y-111855000D01*
X131785000Y-111858072D01*
X131909482Y-111845812D01*
X132029180Y-111809502D01*
X132139494Y-111750537D01*
X132236185Y-111671185D01*
X132315537Y-111574494D01*
X132374502Y-111464180D01*
X132410812Y-111344482D01*
X132419132Y-111260000D01*
X136816928Y-111260000D01*
X136829188Y-111384482D01*
X136865498Y-111504180D01*
X136924463Y-111614494D01*
X137003815Y-111711185D01*
X137100506Y-111790537D01*
X137210820Y-111849502D01*
X137330518Y-111885812D01*
X137455000Y-111898072D01*
X138144250Y-111895000D01*
X138303000Y-111736250D01*
X138303000Y-110537000D01*
X138557000Y-110537000D01*
X138557000Y-111736250D01*
X138715750Y-111895000D01*
X139405000Y-111898072D01*
X139529482Y-111885812D01*
X139649180Y-111849502D01*
X139759494Y-111790537D01*
X139856185Y-111711185D01*
X139935537Y-111614494D01*
X139994502Y-111504180D01*
X140030812Y-111384482D01*
X140039132Y-111300000D01*
X144436928Y-111300000D01*
X144449188Y-111424482D01*
X144485498Y-111544180D01*
X144544463Y-111654494D01*
X144623815Y-111751185D01*
X144720506Y-111830537D01*
X144830820Y-111889502D01*
X144950518Y-111925812D01*
X145075000Y-111938072D01*
X145764250Y-111935000D01*
X145923000Y-111776250D01*
X145923000Y-110577000D01*
X146177000Y-110577000D01*
X146177000Y-111776250D01*
X146335750Y-111935000D01*
X147025000Y-111938072D01*
X147149482Y-111925812D01*
X147269180Y-111889502D01*
X147379494Y-111830537D01*
X147476185Y-111751185D01*
X147555537Y-111654494D01*
X147614502Y-111544180D01*
X147650812Y-111424482D01*
X147663072Y-111300000D01*
X147660000Y-110735750D01*
X147501250Y-110577000D01*
X146177000Y-110577000D01*
X145923000Y-110577000D01*
X144598750Y-110577000D01*
X144440000Y-110735750D01*
X144436928Y-111300000D01*
X140039132Y-111300000D01*
X140043072Y-111260000D01*
X140040000Y-110695750D01*
X139881250Y-110537000D01*
X138557000Y-110537000D01*
X138303000Y-110537000D01*
X136978750Y-110537000D01*
X136820000Y-110695750D01*
X136816928Y-111260000D01*
X132419132Y-111260000D01*
X132423072Y-111220000D01*
X132420000Y-110655750D01*
X132261250Y-110497000D01*
X130937000Y-110497000D01*
X130683000Y-110497000D01*
X129358750Y-110497000D01*
X129200000Y-110655750D01*
X129196928Y-111220000D01*
X95935000Y-111220000D01*
X95935000Y-109256465D01*
X105727600Y-109256465D01*
X105727600Y-109539135D01*
X105782747Y-109816374D01*
X105890920Y-110077527D01*
X106047963Y-110312559D01*
X106247841Y-110512437D01*
X106482873Y-110669480D01*
X106744026Y-110777653D01*
X107021265Y-110832800D01*
X107303935Y-110832800D01*
X107581174Y-110777653D01*
X107842327Y-110669480D01*
X108077359Y-110512437D01*
X108277237Y-110312559D01*
X108434280Y-110077527D01*
X108542453Y-109816374D01*
X108597600Y-109539135D01*
X108597600Y-109256465D01*
X112128400Y-109256465D01*
X112128400Y-109539135D01*
X112183547Y-109816374D01*
X112291720Y-110077527D01*
X112448763Y-110312559D01*
X112648641Y-110512437D01*
X112883673Y-110669480D01*
X113144826Y-110777653D01*
X113422065Y-110832800D01*
X113704735Y-110832800D01*
X113981974Y-110777653D01*
X114243127Y-110669480D01*
X114478159Y-110512437D01*
X114678037Y-110312559D01*
X114835080Y-110077527D01*
X114943253Y-109816374D01*
X114998400Y-109539135D01*
X114998400Y-109256465D01*
X114988296Y-109205665D01*
X118478400Y-109205665D01*
X118478400Y-109488335D01*
X118533547Y-109765574D01*
X118641720Y-110026727D01*
X118798763Y-110261759D01*
X118998641Y-110461637D01*
X119233673Y-110618680D01*
X119494826Y-110726853D01*
X119772065Y-110782000D01*
X120054735Y-110782000D01*
X120331974Y-110726853D01*
X120593127Y-110618680D01*
X120828159Y-110461637D01*
X121028037Y-110261759D01*
X121185080Y-110026727D01*
X121293253Y-109765574D01*
X121348400Y-109488335D01*
X121348400Y-109205665D01*
X121293253Y-108928426D01*
X121185080Y-108667273D01*
X121028037Y-108432241D01*
X120828159Y-108232363D01*
X120593127Y-108075320D01*
X120581835Y-108070643D01*
X120650820Y-108038037D01*
X120876814Y-107870519D01*
X121065785Y-107662131D01*
X121210470Y-107420881D01*
X121305309Y-107156040D01*
X121184024Y-106934000D01*
X120040400Y-106934000D01*
X120040400Y-106954000D01*
X119786400Y-106954000D01*
X119786400Y-106934000D01*
X118642776Y-106934000D01*
X118521491Y-107156040D01*
X118616330Y-107420881D01*
X118761015Y-107662131D01*
X118949986Y-107870519D01*
X119175980Y-108038037D01*
X119244965Y-108070643D01*
X119233673Y-108075320D01*
X118998641Y-108232363D01*
X118798763Y-108432241D01*
X118641720Y-108667273D01*
X118533547Y-108928426D01*
X118478400Y-109205665D01*
X114988296Y-109205665D01*
X114943253Y-108979226D01*
X114835080Y-108718073D01*
X114678037Y-108483041D01*
X114478159Y-108283163D01*
X114243127Y-108126120D01*
X114231835Y-108121443D01*
X114300820Y-108088837D01*
X114526814Y-107921319D01*
X114715785Y-107712931D01*
X114860470Y-107471681D01*
X114955309Y-107206840D01*
X114834024Y-106984800D01*
X113690400Y-106984800D01*
X113690400Y-107004800D01*
X113436400Y-107004800D01*
X113436400Y-106984800D01*
X112292776Y-106984800D01*
X112171491Y-107206840D01*
X112266330Y-107471681D01*
X112411015Y-107712931D01*
X112599986Y-107921319D01*
X112825980Y-108088837D01*
X112894965Y-108121443D01*
X112883673Y-108126120D01*
X112648641Y-108283163D01*
X112448763Y-108483041D01*
X112291720Y-108718073D01*
X112183547Y-108979226D01*
X112128400Y-109256465D01*
X108597600Y-109256465D01*
X108542453Y-108979226D01*
X108434280Y-108718073D01*
X108277237Y-108483041D01*
X108077359Y-108283163D01*
X107842327Y-108126120D01*
X107831035Y-108121443D01*
X107900020Y-108088837D01*
X108126014Y-107921319D01*
X108314985Y-107712931D01*
X108459670Y-107471681D01*
X108554509Y-107206840D01*
X108433224Y-106984800D01*
X107289600Y-106984800D01*
X107289600Y-107004800D01*
X107035600Y-107004800D01*
X107035600Y-106984800D01*
X105891976Y-106984800D01*
X105770691Y-107206840D01*
X105865530Y-107471681D01*
X106010215Y-107712931D01*
X106199186Y-107921319D01*
X106425180Y-108088837D01*
X106494165Y-108121443D01*
X106482873Y-108126120D01*
X106247841Y-108283163D01*
X106047963Y-108483041D01*
X105890920Y-108718073D01*
X105782747Y-108979226D01*
X105727600Y-109256465D01*
X95935000Y-109256465D01*
X95935000Y-106613505D01*
X95944222Y-106519453D01*
X95947450Y-106508760D01*
X105770691Y-106508760D01*
X105891976Y-106730800D01*
X107035600Y-106730800D01*
X107035600Y-105587885D01*
X107289600Y-105587885D01*
X107289600Y-106730800D01*
X108433224Y-106730800D01*
X108554509Y-106508760D01*
X112171491Y-106508760D01*
X112292776Y-106730800D01*
X113436400Y-106730800D01*
X113436400Y-105587885D01*
X113690400Y-105587885D01*
X113690400Y-106730800D01*
X114834024Y-106730800D01*
X114955309Y-106508760D01*
X114937118Y-106457960D01*
X118521491Y-106457960D01*
X118642776Y-106680000D01*
X119786400Y-106680000D01*
X119786400Y-105537085D01*
X120040400Y-105537085D01*
X120040400Y-106680000D01*
X121184024Y-106680000D01*
X121305309Y-106457960D01*
X121210470Y-106193119D01*
X121065785Y-105951869D01*
X120876814Y-105743481D01*
X120650820Y-105575963D01*
X120396487Y-105455754D01*
X120262439Y-105415096D01*
X120040400Y-105537085D01*
X119786400Y-105537085D01*
X119564361Y-105415096D01*
X119430313Y-105455754D01*
X119175980Y-105575963D01*
X118949986Y-105743481D01*
X118761015Y-105951869D01*
X118616330Y-106193119D01*
X118521491Y-106457960D01*
X114937118Y-106457960D01*
X114860470Y-106243919D01*
X114715785Y-106002669D01*
X114526814Y-105794281D01*
X114300820Y-105626763D01*
X114046487Y-105506554D01*
X113912439Y-105465896D01*
X113690400Y-105587885D01*
X113436400Y-105587885D01*
X113214361Y-105465896D01*
X113080313Y-105506554D01*
X112825980Y-105626763D01*
X112599986Y-105794281D01*
X112411015Y-106002669D01*
X112266330Y-106243919D01*
X112171491Y-106508760D01*
X108554509Y-106508760D01*
X108459670Y-106243919D01*
X108314985Y-106002669D01*
X108126014Y-105794281D01*
X107900020Y-105626763D01*
X107645687Y-105506554D01*
X107511639Y-105465896D01*
X107289600Y-105587885D01*
X107035600Y-105587885D01*
X106813561Y-105465896D01*
X106679513Y-105506554D01*
X106425180Y-105626763D01*
X106199186Y-105794281D01*
X106010215Y-106002669D01*
X105865530Y-106243919D01*
X105770691Y-106508760D01*
X95947450Y-106508760D01*
X95961805Y-106461214D01*
X95990366Y-106407499D01*
X96028816Y-106360354D01*
X96075691Y-106321576D01*
X96129204Y-106292642D01*
X96187323Y-106274651D01*
X96279145Y-106265000D01*
X99283647Y-106265000D01*
X99312955Y-106262113D01*
X99319066Y-106262156D01*
X99328585Y-106261223D01*
X99522682Y-106240822D01*
X99583496Y-106228339D01*
X99644481Y-106216705D01*
X99653637Y-106213941D01*
X99840075Y-106156229D01*
X99897279Y-106132182D01*
X99954873Y-106108913D01*
X99963317Y-106104423D01*
X100134994Y-106011598D01*
X100186468Y-105976878D01*
X100238418Y-105942883D01*
X100245829Y-105936839D01*
X100396207Y-105812435D01*
X100439973Y-105768362D01*
X100484311Y-105724943D01*
X100490408Y-105717574D01*
X100613758Y-105566332D01*
X100648126Y-105514603D01*
X100683191Y-105463392D01*
X100687739Y-105454981D01*
X100687740Y-105454980D01*
X100687742Y-105454976D01*
X100779366Y-105282657D01*
X100803022Y-105225261D01*
X100827482Y-105168193D01*
X100830310Y-105159056D01*
X100886719Y-104972220D01*
X100898780Y-104911310D01*
X100911686Y-104850591D01*
X100912686Y-104841079D01*
X100931731Y-104646845D01*
X100931731Y-104646837D01*
X100935000Y-104613647D01*
X100935000Y-89546353D01*
X100932113Y-89517045D01*
X100932156Y-89510933D01*
X100931223Y-89501415D01*
X100910822Y-89307318D01*
X100898339Y-89246504D01*
X100886705Y-89185519D01*
X100883941Y-89176363D01*
X100826229Y-88989925D01*
X100802170Y-88932692D01*
X100778913Y-88875127D01*
X100774423Y-88866682D01*
X100681598Y-88695006D01*
X100646878Y-88643532D01*
X100612883Y-88591582D01*
X100606838Y-88584170D01*
X100482435Y-88433793D01*
X100438362Y-88390027D01*
X100394943Y-88345689D01*
X100387574Y-88339592D01*
X100236332Y-88216242D01*
X100184614Y-88181881D01*
X100133393Y-88146809D01*
X100124980Y-88142260D01*
X99952657Y-88050635D01*
X99895261Y-88026978D01*
X99838193Y-88002519D01*
X99829057Y-87999690D01*
X99642220Y-87943281D01*
X99581302Y-87931219D01*
X99520590Y-87918314D01*
X99511078Y-87917314D01*
X99316845Y-87898269D01*
X99316837Y-87898269D01*
X99283647Y-87895000D01*
X96283505Y-87895000D01*
X96189454Y-87885778D01*
X96131213Y-87868194D01*
X96077500Y-87839635D01*
X96030354Y-87801183D01*
X95991577Y-87754310D01*
X95962642Y-87700796D01*
X95944651Y-87642677D01*
X95935000Y-87550855D01*
X95935000Y-73216061D01*
X95975869Y-73421523D01*
X96193346Y-73946560D01*
X96509074Y-74419080D01*
X96910920Y-74820926D01*
X97383440Y-75136654D01*
X97908477Y-75354131D01*
X98465852Y-75465000D01*
X99034148Y-75465000D01*
X99591523Y-75354131D01*
X100116560Y-75136654D01*
X100589080Y-74820926D01*
X100990926Y-74419080D01*
X101306654Y-73946560D01*
X101524131Y-73421523D01*
X101610682Y-72986400D01*
X102118328Y-72986400D01*
X102118328Y-74713600D01*
X102130588Y-74838082D01*
X102166898Y-74957780D01*
X102225863Y-75068094D01*
X102305215Y-75164785D01*
X102401906Y-75244137D01*
X102512220Y-75303102D01*
X102631918Y-75339412D01*
X102756400Y-75351672D01*
X104483600Y-75351672D01*
X104608082Y-75339412D01*
X104727780Y-75303102D01*
X104838094Y-75244137D01*
X104934785Y-75164785D01*
X105014137Y-75068094D01*
X105073102Y-74957780D01*
X105090636Y-74899977D01*
X105204698Y-75014039D01*
X105450147Y-75178042D01*
X105722875Y-75291010D01*
X106012401Y-75348600D01*
X106307599Y-75348600D01*
X106537974Y-75302776D01*
X108634990Y-77399792D01*
X108634991Y-81679568D01*
X108361111Y-81596487D01*
X108070000Y-81567815D01*
X107778890Y-81596487D01*
X107498967Y-81681401D01*
X107240987Y-81819294D01*
X107014866Y-82004866D01*
X106829294Y-82230986D01*
X106820000Y-82248374D01*
X106810706Y-82230986D01*
X106625134Y-82004866D01*
X106399014Y-81819294D01*
X106141034Y-81681401D01*
X105861111Y-81596487D01*
X105570000Y-81567815D01*
X105278890Y-81596487D01*
X104998967Y-81681401D01*
X104740987Y-81819294D01*
X104514866Y-82004866D01*
X104329294Y-82230986D01*
X104191401Y-82488966D01*
X104106487Y-82768889D01*
X104085000Y-82987050D01*
X104085000Y-83382949D01*
X104106487Y-83601110D01*
X104191401Y-83881033D01*
X104329294Y-84139013D01*
X104514866Y-84365134D01*
X104740986Y-84550706D01*
X104998966Y-84688599D01*
X105278889Y-84773513D01*
X105570000Y-84802185D01*
X105861110Y-84773513D01*
X106141033Y-84688599D01*
X106399013Y-84550706D01*
X106625134Y-84365134D01*
X106810706Y-84139014D01*
X106820000Y-84121626D01*
X106829294Y-84139013D01*
X107014866Y-84365134D01*
X107240986Y-84550706D01*
X107498966Y-84688599D01*
X107778889Y-84773513D01*
X108070000Y-84802185D01*
X108361110Y-84773513D01*
X108634991Y-84690432D01*
X108634991Y-85876660D01*
X108631314Y-85913992D01*
X108645988Y-86062977D01*
X108689444Y-86206238D01*
X108760016Y-86338268D01*
X108790161Y-86374999D01*
X108854990Y-86453993D01*
X108883988Y-86477791D01*
X125787203Y-103381008D01*
X125810997Y-103410001D01*
X125839990Y-103433795D01*
X125839994Y-103433799D01*
X125886940Y-103472326D01*
X125926722Y-103504974D01*
X126058751Y-103575546D01*
X126202012Y-103619003D01*
X126313665Y-103630000D01*
X126313674Y-103630000D01*
X126350997Y-103633676D01*
X126388320Y-103630000D01*
X129407405Y-103630000D01*
X129444294Y-103699014D01*
X129629866Y-103925134D01*
X129855986Y-104110706D01*
X129873374Y-104120000D01*
X129855986Y-104129294D01*
X129629866Y-104314866D01*
X129444294Y-104540986D01*
X129306401Y-104798966D01*
X129221487Y-105078889D01*
X129192815Y-105370000D01*
X129221487Y-105661111D01*
X129306401Y-105941034D01*
X129444294Y-106199014D01*
X129629866Y-106425134D01*
X129855986Y-106610706D01*
X129873374Y-106620000D01*
X129855986Y-106629294D01*
X129629866Y-106814866D01*
X129444294Y-107040986D01*
X129306401Y-107298966D01*
X129221487Y-107578889D01*
X129192815Y-107870000D01*
X129221487Y-108161111D01*
X129306401Y-108441034D01*
X129444294Y-108699014D01*
X129625608Y-108919945D01*
X129590820Y-108930498D01*
X129480506Y-108989463D01*
X129383815Y-109068815D01*
X129304463Y-109165506D01*
X129245498Y-109275820D01*
X129209188Y-109395518D01*
X129196928Y-109520000D01*
X129200000Y-110084250D01*
X129358750Y-110243000D01*
X130683000Y-110243000D01*
X130683000Y-110223000D01*
X130937000Y-110223000D01*
X130937000Y-110243000D01*
X132261250Y-110243000D01*
X132420000Y-110084250D01*
X132423072Y-109520000D01*
X132410812Y-109395518D01*
X132374502Y-109275820D01*
X132315537Y-109165506D01*
X132236185Y-109068815D01*
X132139494Y-108989463D01*
X132029180Y-108930498D01*
X131994392Y-108919945D01*
X132175706Y-108699014D01*
X132212595Y-108630000D01*
X136320166Y-108630000D01*
X136417986Y-108659392D01*
X136567009Y-108673674D01*
X136715956Y-108658608D01*
X136809379Y-108630000D01*
X137006025Y-108630000D01*
X137064294Y-108739014D01*
X137245608Y-108959945D01*
X137210820Y-108970498D01*
X137100506Y-109029463D01*
X137003815Y-109108815D01*
X136924463Y-109205506D01*
X136865498Y-109315820D01*
X136829188Y-109435518D01*
X136816928Y-109560000D01*
X136820000Y-110124250D01*
X136978750Y-110283000D01*
X138303000Y-110283000D01*
X138303000Y-110263000D01*
X138557000Y-110263000D01*
X138557000Y-110283000D01*
X139881250Y-110283000D01*
X140040000Y-110124250D01*
X140043072Y-109560000D01*
X140030812Y-109435518D01*
X139994502Y-109315820D01*
X139935537Y-109205506D01*
X139856185Y-109108815D01*
X139759494Y-109029463D01*
X139649180Y-108970498D01*
X139614392Y-108959945D01*
X139795706Y-108739014D01*
X139832595Y-108670000D01*
X144626025Y-108670000D01*
X144684294Y-108779014D01*
X144865608Y-108999945D01*
X144830820Y-109010498D01*
X144720506Y-109069463D01*
X144623815Y-109148815D01*
X144544463Y-109245506D01*
X144485498Y-109355820D01*
X144449188Y-109475518D01*
X144436928Y-109600000D01*
X144440000Y-110164250D01*
X144598750Y-110323000D01*
X145923000Y-110323000D01*
X145923000Y-110303000D01*
X146177000Y-110303000D01*
X146177000Y-110323000D01*
X147501250Y-110323000D01*
X147660000Y-110164250D01*
X147663072Y-109600000D01*
X147650812Y-109475518D01*
X147614502Y-109355820D01*
X147555537Y-109245506D01*
X147476185Y-109148815D01*
X147379494Y-109069463D01*
X147269180Y-109010498D01*
X147234392Y-108999945D01*
X147415706Y-108779014D01*
X147553599Y-108521034D01*
X147638513Y-108241111D01*
X147667185Y-107950000D01*
X147638513Y-107658889D01*
X147553599Y-107378966D01*
X147415706Y-107120986D01*
X147230134Y-106894866D01*
X147004014Y-106709294D01*
X146986626Y-106700000D01*
X147004014Y-106690706D01*
X147230134Y-106505134D01*
X147415706Y-106279014D01*
X147431214Y-106250000D01*
X153188518Y-106250000D01*
X153221433Y-106299261D01*
X153415739Y-106493567D01*
X153644220Y-106646233D01*
X153898093Y-106751391D01*
X154167604Y-106805000D01*
X154442396Y-106805000D01*
X154711907Y-106751391D01*
X154965780Y-106646233D01*
X155194261Y-106493567D01*
X155313691Y-106374137D01*
X156060469Y-106374137D01*
X156127206Y-106614025D01*
X156375892Y-106730924D01*
X156642606Y-106797061D01*
X156917097Y-106809895D01*
X157188817Y-106768931D01*
X157447326Y-106675744D01*
X157562794Y-106614025D01*
X157629531Y-106374137D01*
X156845000Y-105589605D01*
X156060469Y-106374137D01*
X155313691Y-106374137D01*
X155388567Y-106299261D01*
X155541233Y-106070780D01*
X155572830Y-105994499D01*
X155579256Y-106012326D01*
X155640975Y-106127794D01*
X155880863Y-106194531D01*
X156665395Y-105410000D01*
X157024605Y-105410000D01*
X157809137Y-106194531D01*
X158049025Y-106127794D01*
X158165924Y-105879108D01*
X158232061Y-105612394D01*
X158244895Y-105337903D01*
X158203931Y-105066183D01*
X158110744Y-104807674D01*
X158049025Y-104692206D01*
X157809137Y-104625469D01*
X157024605Y-105410000D01*
X156665395Y-105410000D01*
X155880863Y-104625469D01*
X155640975Y-104692206D01*
X155575400Y-104831707D01*
X155541233Y-104749220D01*
X155388567Y-104520739D01*
X155194261Y-104326433D01*
X154965780Y-104173767D01*
X154884260Y-104140000D01*
X154965780Y-104106233D01*
X155194261Y-103953567D01*
X155313691Y-103834137D01*
X156060469Y-103834137D01*
X156127206Y-104074025D01*
X156261882Y-104137332D01*
X156242674Y-104144256D01*
X156127206Y-104205975D01*
X156060469Y-104445863D01*
X156845000Y-105230395D01*
X157629531Y-104445863D01*
X157562794Y-104205975D01*
X157428118Y-104142668D01*
X157447326Y-104135744D01*
X157562794Y-104074025D01*
X157629531Y-103834137D01*
X156845000Y-103049605D01*
X156060469Y-103834137D01*
X155313691Y-103834137D01*
X155388567Y-103759261D01*
X155541233Y-103530780D01*
X155572830Y-103454499D01*
X155579256Y-103472326D01*
X155640975Y-103587794D01*
X155880863Y-103654531D01*
X156665395Y-102870000D01*
X157024605Y-102870000D01*
X157809137Y-103654531D01*
X158049025Y-103587794D01*
X158165924Y-103339108D01*
X158232061Y-103072394D01*
X158244895Y-102797903D01*
X158203931Y-102526183D01*
X158110744Y-102267674D01*
X158049025Y-102152206D01*
X157809137Y-102085469D01*
X157024605Y-102870000D01*
X156665395Y-102870000D01*
X155880863Y-102085469D01*
X155640975Y-102152206D01*
X155575400Y-102291707D01*
X155541233Y-102209220D01*
X155388567Y-101980739D01*
X155194261Y-101786433D01*
X154965780Y-101633767D01*
X154884260Y-101600000D01*
X154965780Y-101566233D01*
X155194261Y-101413567D01*
X155313691Y-101294137D01*
X156060469Y-101294137D01*
X156127206Y-101534025D01*
X156261882Y-101597332D01*
X156242674Y-101604256D01*
X156127206Y-101665975D01*
X156060469Y-101905863D01*
X156845000Y-102690395D01*
X157629531Y-101905863D01*
X157562794Y-101665975D01*
X157428118Y-101602668D01*
X157447326Y-101595744D01*
X157562794Y-101534025D01*
X157629531Y-101294137D01*
X156845000Y-100509605D01*
X156060469Y-101294137D01*
X155313691Y-101294137D01*
X155388567Y-101219261D01*
X155541233Y-100990780D01*
X155572830Y-100914499D01*
X155579256Y-100932326D01*
X155640975Y-101047794D01*
X155880863Y-101114531D01*
X156665395Y-100330000D01*
X157024605Y-100330000D01*
X157809137Y-101114531D01*
X158049025Y-101047794D01*
X158165924Y-100799108D01*
X158232061Y-100532394D01*
X158244895Y-100257903D01*
X158203931Y-99986183D01*
X158110744Y-99727674D01*
X158049025Y-99612206D01*
X157809137Y-99545469D01*
X157024605Y-100330000D01*
X156665395Y-100330000D01*
X155880863Y-99545469D01*
X155640975Y-99612206D01*
X155575400Y-99751707D01*
X155541233Y-99669220D01*
X155388567Y-99440739D01*
X155194261Y-99246433D01*
X154965780Y-99093767D01*
X154884260Y-99060000D01*
X154965780Y-99026233D01*
X155194261Y-98873567D01*
X155313691Y-98754137D01*
X156060469Y-98754137D01*
X156127206Y-98994025D01*
X156261882Y-99057332D01*
X156242674Y-99064256D01*
X156127206Y-99125975D01*
X156060469Y-99365863D01*
X156845000Y-100150395D01*
X157629531Y-99365863D01*
X157562794Y-99125975D01*
X157428118Y-99062668D01*
X157447326Y-99055744D01*
X157562794Y-98994025D01*
X157629531Y-98754137D01*
X156845000Y-97969605D01*
X156060469Y-98754137D01*
X155313691Y-98754137D01*
X155388567Y-98679261D01*
X155541233Y-98450780D01*
X155572830Y-98374499D01*
X155579256Y-98392326D01*
X155640975Y-98507794D01*
X155880863Y-98574531D01*
X156665395Y-97790000D01*
X157024605Y-97790000D01*
X157809137Y-98574531D01*
X158049025Y-98507794D01*
X158165924Y-98259108D01*
X158232061Y-97992394D01*
X158244895Y-97717903D01*
X158203931Y-97446183D01*
X158110744Y-97187674D01*
X158049025Y-97072206D01*
X157809137Y-97005469D01*
X157024605Y-97790000D01*
X156665395Y-97790000D01*
X155880863Y-97005469D01*
X155640975Y-97072206D01*
X155575400Y-97211707D01*
X155541233Y-97129220D01*
X155388567Y-96900739D01*
X155194261Y-96706433D01*
X154965780Y-96553767D01*
X154884260Y-96520000D01*
X154965780Y-96486233D01*
X155194261Y-96333567D01*
X155388567Y-96139261D01*
X155541233Y-95910780D01*
X155575000Y-95829260D01*
X155608767Y-95910780D01*
X155761433Y-96139261D01*
X155955739Y-96333567D01*
X156184220Y-96486233D01*
X156260501Y-96517830D01*
X156242674Y-96524256D01*
X156127206Y-96585975D01*
X156060469Y-96825863D01*
X156845000Y-97610395D01*
X157629531Y-96825863D01*
X157562794Y-96585975D01*
X157423293Y-96520400D01*
X157505780Y-96486233D01*
X157734261Y-96333567D01*
X157928567Y-96139261D01*
X158081233Y-95910780D01*
X158186391Y-95656907D01*
X158240000Y-95387396D01*
X158240000Y-95112604D01*
X158209671Y-94960130D01*
X158440998Y-94728803D01*
X158470002Y-94705000D01*
X158564975Y-94589275D01*
X158635547Y-94457246D01*
X158679004Y-94313985D01*
X158690001Y-94202332D01*
X158690001Y-94202323D01*
X158693677Y-94165000D01*
X158690001Y-94127677D01*
X158690001Y-89686521D01*
X158693677Y-89649198D01*
X158690001Y-89611875D01*
X158690001Y-89611866D01*
X158679004Y-89500213D01*
X158635547Y-89356952D01*
X158564975Y-89224923D01*
X158470002Y-89109198D01*
X158441005Y-89085401D01*
X150304180Y-80948576D01*
X152210000Y-80948576D01*
X152210000Y-81611424D01*
X152339315Y-82261534D01*
X152592976Y-82873925D01*
X152961234Y-83425063D01*
X153429937Y-83893766D01*
X153981075Y-84262024D01*
X154593466Y-84515685D01*
X155243576Y-84645000D01*
X155906424Y-84645000D01*
X156556534Y-84515685D01*
X157168925Y-84262024D01*
X157720063Y-83893766D01*
X158188766Y-83425063D01*
X158557024Y-82873925D01*
X158810685Y-82261534D01*
X158940000Y-81611424D01*
X158940000Y-80948576D01*
X158810685Y-80298466D01*
X158557024Y-79686075D01*
X158188766Y-79134937D01*
X157720063Y-78666234D01*
X157168925Y-78297976D01*
X156556534Y-78044315D01*
X155906424Y-77915000D01*
X155243576Y-77915000D01*
X154593466Y-78044315D01*
X153981075Y-78297976D01*
X153429937Y-78666234D01*
X152961234Y-79134937D01*
X152592976Y-79686075D01*
X152339315Y-80298466D01*
X152210000Y-80948576D01*
X150304180Y-80948576D01*
X147560000Y-78204397D01*
X147560000Y-75144535D01*
X147755302Y-75014039D01*
X147964039Y-74805302D01*
X148070000Y-74646719D01*
X148175961Y-74805302D01*
X148384698Y-75014039D01*
X148630147Y-75178042D01*
X148902875Y-75291010D01*
X149192401Y-75348600D01*
X149487599Y-75348600D01*
X149777125Y-75291010D01*
X150049853Y-75178042D01*
X150295302Y-75014039D01*
X150504039Y-74805302D01*
X150614559Y-74639897D01*
X150673183Y-74738488D01*
X150869707Y-74956854D01*
X151105056Y-75132684D01*
X151370186Y-75259222D01*
X151520974Y-75304958D01*
X151753000Y-75183817D01*
X151753000Y-73977000D01*
X152007000Y-73977000D01*
X152007000Y-75183817D01*
X152239026Y-75304958D01*
X152389814Y-75259222D01*
X152654944Y-75132684D01*
X152890293Y-74956854D01*
X153086817Y-74738488D01*
X153236964Y-74485978D01*
X153334963Y-74209027D01*
X153214464Y-73977000D01*
X152007000Y-73977000D01*
X151753000Y-73977000D01*
X151733000Y-73977000D01*
X151733000Y-73723000D01*
X151753000Y-73723000D01*
X151753000Y-73703000D01*
X152007000Y-73703000D01*
X152007000Y-73723000D01*
X153214464Y-73723000D01*
X153334963Y-73490973D01*
X153236964Y-73214022D01*
X153086817Y-72961512D01*
X152890293Y-72743146D01*
X152674187Y-72581692D01*
X152835302Y-72474039D01*
X153044039Y-72265302D01*
X153208042Y-72019853D01*
X153321010Y-71747125D01*
X153378600Y-71457599D01*
X153378600Y-71162401D01*
X153321010Y-70872875D01*
X153208042Y-70600147D01*
X153044039Y-70354698D01*
X152835302Y-70145961D01*
X152589853Y-69981958D01*
X152317125Y-69868990D01*
X152027599Y-69811400D01*
X151732401Y-69811400D01*
X151442875Y-69868990D01*
X151170147Y-69981958D01*
X150924698Y-70145961D01*
X150715961Y-70354698D01*
X150610000Y-70513281D01*
X150504039Y-70354698D01*
X150295302Y-70145961D01*
X150049853Y-69981958D01*
X149777125Y-69868990D01*
X149487599Y-69811400D01*
X149192401Y-69811400D01*
X148902875Y-69868990D01*
X148630147Y-69981958D01*
X148384698Y-70145961D01*
X148175961Y-70354698D01*
X148070000Y-70513281D01*
X147964039Y-70354698D01*
X147755302Y-70145961D01*
X147509853Y-69981958D01*
X147237125Y-69868990D01*
X146947599Y-69811400D01*
X146652401Y-69811400D01*
X146362875Y-69868990D01*
X146090147Y-69981958D01*
X145844698Y-70145961D01*
X145635961Y-70354698D01*
X145525441Y-70520103D01*
X145466817Y-70421512D01*
X145270293Y-70203146D01*
X145034944Y-70027316D01*
X144769814Y-69900778D01*
X144619026Y-69855042D01*
X144387000Y-69976183D01*
X144387000Y-71183000D01*
X144407000Y-71183000D01*
X144407000Y-71437000D01*
X144387000Y-71437000D01*
X144387000Y-71457000D01*
X144133000Y-71457000D01*
X144133000Y-71437000D01*
X144113000Y-71437000D01*
X144113000Y-71183000D01*
X144133000Y-71183000D01*
X144133000Y-69976183D01*
X143900974Y-69855042D01*
X143750186Y-69900778D01*
X143485056Y-70027316D01*
X143249707Y-70203146D01*
X143053183Y-70421512D01*
X142994559Y-70520103D01*
X142884039Y-70354698D01*
X142675302Y-70145961D01*
X142429853Y-69981958D01*
X142157125Y-69868990D01*
X141867599Y-69811400D01*
X141572401Y-69811400D01*
X141282875Y-69868990D01*
X141010147Y-69981958D01*
X140764698Y-70145961D01*
X140555961Y-70354698D01*
X140445441Y-70520103D01*
X140386817Y-70421512D01*
X140190293Y-70203146D01*
X139954944Y-70027316D01*
X139689814Y-69900778D01*
X139539026Y-69855042D01*
X139307000Y-69976183D01*
X139307000Y-71183000D01*
X139327000Y-71183000D01*
X139327000Y-71437000D01*
X139307000Y-71437000D01*
X139307000Y-71457000D01*
X139053000Y-71457000D01*
X139053000Y-71437000D01*
X139033000Y-71437000D01*
X139033000Y-71183000D01*
X139053000Y-71183000D01*
X139053000Y-69976183D01*
X138820974Y-69855042D01*
X138670186Y-69900778D01*
X138405056Y-70027316D01*
X138169707Y-70203146D01*
X137973183Y-70421512D01*
X137914559Y-70520103D01*
X137804039Y-70354698D01*
X137595302Y-70145961D01*
X137349853Y-69981958D01*
X137077125Y-69868990D01*
X136787599Y-69811400D01*
X136492401Y-69811400D01*
X136202875Y-69868990D01*
X135930147Y-69981958D01*
X135684698Y-70145961D01*
X135475961Y-70354698D01*
X135370000Y-70513281D01*
X135264039Y-70354698D01*
X135055302Y-70145961D01*
X134809853Y-69981958D01*
X134537125Y-69868990D01*
X134247599Y-69811400D01*
X133952401Y-69811400D01*
X133662875Y-69868990D01*
X133390147Y-69981958D01*
X133144698Y-70145961D01*
X132935961Y-70354698D01*
X132830000Y-70513281D01*
X132724039Y-70354698D01*
X132515302Y-70145961D01*
X132269853Y-69981958D01*
X131997125Y-69868990D01*
X131707599Y-69811400D01*
X131412401Y-69811400D01*
X131122875Y-69868990D01*
X130850147Y-69981958D01*
X130604698Y-70145961D01*
X130395961Y-70354698D01*
X130290000Y-70513281D01*
X130184039Y-70354698D01*
X129975302Y-70145961D01*
X129729853Y-69981958D01*
X129457125Y-69868990D01*
X129167599Y-69811400D01*
X128872401Y-69811400D01*
X128582875Y-69868990D01*
X128310147Y-69981958D01*
X128064698Y-70145961D01*
X127855961Y-70354698D01*
X127745441Y-70520103D01*
X127686817Y-70421512D01*
X127490293Y-70203146D01*
X127254944Y-70027316D01*
X126989814Y-69900778D01*
X126839026Y-69855042D01*
X126607000Y-69976183D01*
X126607000Y-71183000D01*
X126627000Y-71183000D01*
X126627000Y-71437000D01*
X126607000Y-71437000D01*
X126607000Y-71457000D01*
X126353000Y-71457000D01*
X126353000Y-71437000D01*
X126333000Y-71437000D01*
X126333000Y-71183000D01*
X126353000Y-71183000D01*
X126353000Y-69976183D01*
X126120974Y-69855042D01*
X125970186Y-69900778D01*
X125705056Y-70027316D01*
X125469707Y-70203146D01*
X125273183Y-70421512D01*
X125214559Y-70520103D01*
X125104039Y-70354698D01*
X124895302Y-70145961D01*
X124649853Y-69981958D01*
X124377125Y-69868990D01*
X124087599Y-69811400D01*
X123792401Y-69811400D01*
X123502875Y-69868990D01*
X123230147Y-69981958D01*
X122984698Y-70145961D01*
X122775961Y-70354698D01*
X122670000Y-70513281D01*
X122564039Y-70354698D01*
X122355302Y-70145961D01*
X122109853Y-69981958D01*
X121837125Y-69868990D01*
X121547599Y-69811400D01*
X121252401Y-69811400D01*
X120962875Y-69868990D01*
X120690147Y-69981958D01*
X120444698Y-70145961D01*
X120235961Y-70354698D01*
X120125441Y-70520103D01*
X120066817Y-70421512D01*
X119870293Y-70203146D01*
X119634944Y-70027316D01*
X119369814Y-69900778D01*
X119219026Y-69855042D01*
X118987000Y-69976183D01*
X118987000Y-71183000D01*
X119007000Y-71183000D01*
X119007000Y-71437000D01*
X118987000Y-71437000D01*
X118987000Y-71457000D01*
X118733000Y-71457000D01*
X118733000Y-71437000D01*
X118713000Y-71437000D01*
X118713000Y-71183000D01*
X118733000Y-71183000D01*
X118733000Y-69976183D01*
X118500974Y-69855042D01*
X118350186Y-69900778D01*
X118085056Y-70027316D01*
X117849707Y-70203146D01*
X117653183Y-70421512D01*
X117594559Y-70520103D01*
X117484039Y-70354698D01*
X117275302Y-70145961D01*
X117029853Y-69981958D01*
X116757125Y-69868990D01*
X116467599Y-69811400D01*
X116172401Y-69811400D01*
X115882875Y-69868990D01*
X115610147Y-69981958D01*
X115364698Y-70145961D01*
X115155961Y-70354698D01*
X115050000Y-70513281D01*
X114944039Y-70354698D01*
X114735302Y-70145961D01*
X114489853Y-69981958D01*
X114217125Y-69868990D01*
X113927599Y-69811400D01*
X113632401Y-69811400D01*
X113342875Y-69868990D01*
X113070147Y-69981958D01*
X112824698Y-70145961D01*
X112615961Y-70354698D01*
X112510000Y-70513281D01*
X112404039Y-70354698D01*
X112195302Y-70145961D01*
X111949853Y-69981958D01*
X111677125Y-69868990D01*
X111387599Y-69811400D01*
X111092401Y-69811400D01*
X110802875Y-69868990D01*
X110530147Y-69981958D01*
X110284698Y-70145961D01*
X110075961Y-70354698D01*
X109965441Y-70520103D01*
X109906817Y-70421512D01*
X109710293Y-70203146D01*
X109474944Y-70027316D01*
X109209814Y-69900778D01*
X109059026Y-69855042D01*
X108827000Y-69976183D01*
X108827000Y-71183000D01*
X108847000Y-71183000D01*
X108847000Y-71437000D01*
X108827000Y-71437000D01*
X108827000Y-71457000D01*
X108573000Y-71457000D01*
X108573000Y-71437000D01*
X108553000Y-71437000D01*
X108553000Y-71183000D01*
X108573000Y-71183000D01*
X108573000Y-69976183D01*
X108340974Y-69855042D01*
X108190186Y-69900778D01*
X107925056Y-70027316D01*
X107689707Y-70203146D01*
X107493183Y-70421512D01*
X107434559Y-70520103D01*
X107324039Y-70354698D01*
X107115302Y-70145961D01*
X106869853Y-69981958D01*
X106597125Y-69868990D01*
X106307599Y-69811400D01*
X106012401Y-69811400D01*
X105722875Y-69868990D01*
X105450147Y-69981958D01*
X105204698Y-70145961D01*
X104995961Y-70354698D01*
X104890000Y-70513281D01*
X104784039Y-70354698D01*
X104575302Y-70145961D01*
X104329853Y-69981958D01*
X104057125Y-69868990D01*
X103767599Y-69811400D01*
X103472401Y-69811400D01*
X103182875Y-69868990D01*
X102910147Y-69981958D01*
X102664698Y-70145961D01*
X102455961Y-70354698D01*
X102291958Y-70600147D01*
X102178990Y-70872875D01*
X102121400Y-71162401D01*
X102121400Y-71457599D01*
X102178990Y-71747125D01*
X102291958Y-72019853D01*
X102455961Y-72265302D01*
X102570023Y-72379364D01*
X102512220Y-72396898D01*
X102401906Y-72455863D01*
X102305215Y-72535215D01*
X102225863Y-72631906D01*
X102166898Y-72742220D01*
X102130588Y-72861918D01*
X102118328Y-72986400D01*
X101610682Y-72986400D01*
X101635000Y-72864148D01*
X101635000Y-72295852D01*
X101524131Y-71738477D01*
X101306654Y-71213440D01*
X100990926Y-70740920D01*
X100589080Y-70339074D01*
X100116560Y-70023346D01*
X99591523Y-69805869D01*
X99034148Y-69695000D01*
X98465852Y-69695000D01*
X97908477Y-69805869D01*
X97383440Y-70023346D01*
X96910920Y-70339074D01*
X96509074Y-70740920D01*
X96193346Y-71213440D01*
X95975869Y-71738477D01*
X95935000Y-71943939D01*
X95935000Y-71613505D01*
X95982312Y-71130984D01*
X96112714Y-70699070D01*
X96324524Y-70300715D01*
X96609675Y-69951086D01*
X96957303Y-69663503D01*
X97354177Y-69448914D01*
X97785161Y-69315502D01*
X98265654Y-69265000D01*
X157216495Y-69265000D01*
X157699016Y-69312312D01*
G36*
X138015961Y-74805302D02*
G01*
X138224698Y-75014039D01*
X138470147Y-75178042D01*
X138742875Y-75291010D01*
X139032401Y-75348600D01*
X139327599Y-75348600D01*
X139557974Y-75302776D01*
X140509990Y-76254792D01*
X140509990Y-79443913D01*
X140504502Y-79425820D01*
X140445537Y-79315506D01*
X140366185Y-79218815D01*
X140269494Y-79139463D01*
X140159180Y-79080498D01*
X140039482Y-79044188D01*
X139915000Y-79031928D01*
X139350750Y-79035000D01*
X139192000Y-79193750D01*
X139192000Y-80518000D01*
X139212000Y-80518000D01*
X139212000Y-80772000D01*
X139192000Y-80772000D01*
X139192000Y-82096250D01*
X139350750Y-82255000D01*
X139915000Y-82258072D01*
X140039482Y-82245812D01*
X140159180Y-82209502D01*
X140269494Y-82150537D01*
X140366185Y-82071185D01*
X140445537Y-81974494D01*
X140504502Y-81864180D01*
X140509991Y-81846087D01*
X140509991Y-87063915D01*
X140504502Y-87045820D01*
X140445537Y-86935506D01*
X140366185Y-86838815D01*
X140269494Y-86759463D01*
X140159180Y-86700498D01*
X140039482Y-86664188D01*
X139915000Y-86651928D01*
X139350750Y-86655000D01*
X139192000Y-86813750D01*
X139192000Y-88138000D01*
X140391250Y-88138000D01*
X140550000Y-87979250D01*
X140551931Y-87545985D01*
X140564444Y-87587236D01*
X140635016Y-87719266D01*
X140706191Y-87805992D01*
X140729990Y-87834991D01*
X140758988Y-87858789D01*
X152940329Y-100040131D01*
X152910000Y-100192604D01*
X152910000Y-100467396D01*
X152963609Y-100736907D01*
X153068767Y-100990780D01*
X153221433Y-101219261D01*
X153415739Y-101413567D01*
X153644220Y-101566233D01*
X153725740Y-101600000D01*
X153644220Y-101633767D01*
X153415739Y-101786433D01*
X153221433Y-101980739D01*
X153068767Y-102209220D01*
X153060160Y-102230000D01*
X147473975Y-102230000D01*
X147415706Y-102120986D01*
X147230134Y-101894866D01*
X147004014Y-101709294D01*
X146986626Y-101700000D01*
X147004014Y-101690706D01*
X147230134Y-101505134D01*
X147415706Y-101279014D01*
X147553599Y-101021034D01*
X147638513Y-100741111D01*
X147667185Y-100450000D01*
X147638513Y-100158889D01*
X147553599Y-99878966D01*
X147415706Y-99620986D01*
X147230134Y-99394866D01*
X147004014Y-99209294D01*
X146746034Y-99071401D01*
X146466111Y-98986487D01*
X146247950Y-98965000D01*
X145852050Y-98965000D01*
X145633889Y-98986487D01*
X145353966Y-99071401D01*
X145095986Y-99209294D01*
X144869866Y-99394866D01*
X144684294Y-99620986D01*
X144546401Y-99878966D01*
X144461487Y-100158889D01*
X144432815Y-100450000D01*
X144461487Y-100741111D01*
X144546401Y-101021034D01*
X144684294Y-101279014D01*
X144869866Y-101505134D01*
X145095986Y-101690706D01*
X145113374Y-101700000D01*
X145095986Y-101709294D01*
X144869866Y-101894866D01*
X144684294Y-102120986D01*
X144546401Y-102378966D01*
X144461487Y-102658889D01*
X144432815Y-102950000D01*
X144461487Y-103241111D01*
X144546401Y-103521034D01*
X144684294Y-103779014D01*
X144869866Y-104005134D01*
X145095986Y-104190706D01*
X145113374Y-104200000D01*
X145095986Y-104209294D01*
X144869866Y-104394866D01*
X144684294Y-104620986D01*
X144546401Y-104878966D01*
X144461487Y-105158889D01*
X144432815Y-105450000D01*
X144461487Y-105741111D01*
X144546401Y-106021034D01*
X144684294Y-106279014D01*
X144869866Y-106505134D01*
X145095986Y-106690706D01*
X145113374Y-106700000D01*
X145095986Y-106709294D01*
X144869866Y-106894866D01*
X144684294Y-107120986D01*
X144668786Y-107150000D01*
X139832595Y-107150000D01*
X139795706Y-107080986D01*
X139610134Y-106854866D01*
X139384014Y-106669294D01*
X139366626Y-106660000D01*
X139384014Y-106650706D01*
X139610134Y-106465134D01*
X139795706Y-106239014D01*
X139933599Y-105981034D01*
X140018513Y-105701111D01*
X140047185Y-105410000D01*
X140018513Y-105118889D01*
X139933599Y-104838966D01*
X139795706Y-104580986D01*
X139610134Y-104354866D01*
X139384014Y-104169294D01*
X139366626Y-104160000D01*
X139384014Y-104150706D01*
X139610134Y-103965134D01*
X139795706Y-103739014D01*
X139933599Y-103481034D01*
X140018513Y-103201111D01*
X140047185Y-102910000D01*
X140018513Y-102618889D01*
X139933599Y-102338966D01*
X139795706Y-102080986D01*
X139610134Y-101854866D01*
X139384014Y-101669294D01*
X139366626Y-101660000D01*
X139384014Y-101650706D01*
X139610134Y-101465134D01*
X139795706Y-101239014D01*
X139933599Y-100981034D01*
X140018513Y-100701111D01*
X140047185Y-100410000D01*
X140018513Y-100118889D01*
X139933599Y-99838966D01*
X139795706Y-99580986D01*
X139610134Y-99354866D01*
X139384014Y-99169294D01*
X139126034Y-99031401D01*
X138846111Y-98946487D01*
X138627950Y-98925000D01*
X138232050Y-98925000D01*
X138013889Y-98946487D01*
X137733966Y-99031401D01*
X137475986Y-99169294D01*
X137302375Y-99311773D01*
X137285098Y-92746337D01*
X137288677Y-92710000D01*
X137285336Y-92676076D01*
X137312348Y-89674357D01*
X137394013Y-89630706D01*
X137614945Y-89449392D01*
X137625498Y-89484180D01*
X137684463Y-89594494D01*
X137763815Y-89691185D01*
X137860506Y-89770537D01*
X137970820Y-89829502D01*
X138090518Y-89865812D01*
X138215000Y-89878072D01*
X138779250Y-89875000D01*
X138938000Y-89716250D01*
X138938000Y-88392000D01*
X139192000Y-88392000D01*
X139192000Y-89716250D01*
X139350750Y-89875000D01*
X139915000Y-89878072D01*
X140039482Y-89865812D01*
X140159180Y-89829502D01*
X140269494Y-89770537D01*
X140366185Y-89691185D01*
X140445537Y-89594494D01*
X140504502Y-89484180D01*
X140540812Y-89364482D01*
X140553072Y-89240000D01*
X140550000Y-88550750D01*
X140391250Y-88392000D01*
X139192000Y-88392000D01*
X138938000Y-88392000D01*
X138918000Y-88392000D01*
X138918000Y-88138000D01*
X138938000Y-88138000D01*
X138938000Y-86813750D01*
X138779250Y-86655000D01*
X138215000Y-86651928D01*
X138090518Y-86664188D01*
X137970820Y-86700498D01*
X137860506Y-86759463D01*
X137763815Y-86838815D01*
X137684463Y-86935506D01*
X137625498Y-87045820D01*
X137614945Y-87080608D01*
X137394014Y-86899294D01*
X137325000Y-86862405D01*
X137325000Y-82047594D01*
X137394013Y-82010706D01*
X137614945Y-81829392D01*
X137625498Y-81864180D01*
X137684463Y-81974494D01*
X137763815Y-82071185D01*
X137860506Y-82150537D01*
X137970820Y-82209502D01*
X138090518Y-82245812D01*
X138215000Y-82258072D01*
X138779250Y-82255000D01*
X138938000Y-82096250D01*
X138938000Y-80772000D01*
X138918000Y-80772000D01*
X138918000Y-80518000D01*
X138938000Y-80518000D01*
X138938000Y-79193750D01*
X138779250Y-79035000D01*
X138215000Y-79031928D01*
X138090518Y-79044188D01*
X137970820Y-79080498D01*
X137860506Y-79139463D01*
X137763815Y-79218815D01*
X137684463Y-79315506D01*
X137625498Y-79425820D01*
X137614945Y-79460608D01*
X137394014Y-79279294D01*
X137136034Y-79141401D01*
X136856111Y-79056487D01*
X136565000Y-79027815D01*
X136273890Y-79056487D01*
X136048601Y-79124828D01*
X136048601Y-75227107D01*
X136202875Y-75291010D01*
X136492401Y-75348600D01*
X136787599Y-75348600D01*
X137077125Y-75291010D01*
X137349853Y-75178042D01*
X137595302Y-75014039D01*
X137804039Y-74805302D01*
X137910000Y-74646719D01*
X138015961Y-74805302D01*
G37*
X138015961Y-74805302D02*
X138224698Y-75014039D01*
X138470147Y-75178042D01*
X138742875Y-75291010D01*
X139032401Y-75348600D01*
X139327599Y-75348600D01*
X139557974Y-75302776D01*
X140509990Y-76254792D01*
X140509990Y-79443913D01*
X140504502Y-79425820D01*
X140445537Y-79315506D01*
X140366185Y-79218815D01*
X140269494Y-79139463D01*
X140159180Y-79080498D01*
X140039482Y-79044188D01*
X139915000Y-79031928D01*
X139350750Y-79035000D01*
X139192000Y-79193750D01*
X139192000Y-80518000D01*
X139212000Y-80518000D01*
X139212000Y-80772000D01*
X139192000Y-80772000D01*
X139192000Y-82096250D01*
X139350750Y-82255000D01*
X139915000Y-82258072D01*
X140039482Y-82245812D01*
X140159180Y-82209502D01*
X140269494Y-82150537D01*
X140366185Y-82071185D01*
X140445537Y-81974494D01*
X140504502Y-81864180D01*
X140509991Y-81846087D01*
X140509991Y-87063915D01*
X140504502Y-87045820D01*
X140445537Y-86935506D01*
X140366185Y-86838815D01*
X140269494Y-86759463D01*
X140159180Y-86700498D01*
X140039482Y-86664188D01*
X139915000Y-86651928D01*
X139350750Y-86655000D01*
X139192000Y-86813750D01*
X139192000Y-88138000D01*
X140391250Y-88138000D01*
X140550000Y-87979250D01*
X140551931Y-87545985D01*
X140564444Y-87587236D01*
X140635016Y-87719266D01*
X140706191Y-87805992D01*
X140729990Y-87834991D01*
X140758988Y-87858789D01*
X152940329Y-100040131D01*
X152910000Y-100192604D01*
X152910000Y-100467396D01*
X152963609Y-100736907D01*
X153068767Y-100990780D01*
X153221433Y-101219261D01*
X153415739Y-101413567D01*
X153644220Y-101566233D01*
X153725740Y-101600000D01*
X153644220Y-101633767D01*
X153415739Y-101786433D01*
X153221433Y-101980739D01*
X153068767Y-102209220D01*
X153060160Y-102230000D01*
X147473975Y-102230000D01*
X147415706Y-102120986D01*
X147230134Y-101894866D01*
X147004014Y-101709294D01*
X146986626Y-101700000D01*
X147004014Y-101690706D01*
X147230134Y-101505134D01*
X147415706Y-101279014D01*
X147553599Y-101021034D01*
X147638513Y-100741111D01*
X147667185Y-100450000D01*
X147638513Y-100158889D01*
X147553599Y-99878966D01*
X147415706Y-99620986D01*
X147230134Y-99394866D01*
X147004014Y-99209294D01*
X146746034Y-99071401D01*
X146466111Y-98986487D01*
X146247950Y-98965000D01*
X145852050Y-98965000D01*
X145633889Y-98986487D01*
X145353966Y-99071401D01*
X145095986Y-99209294D01*
X144869866Y-99394866D01*
X144684294Y-99620986D01*
X144546401Y-99878966D01*
X144461487Y-100158889D01*
X144432815Y-100450000D01*
X144461487Y-100741111D01*
X144546401Y-101021034D01*
X144684294Y-101279014D01*
X144869866Y-101505134D01*
X145095986Y-101690706D01*
X145113374Y-101700000D01*
X145095986Y-101709294D01*
X144869866Y-101894866D01*
X144684294Y-102120986D01*
X144546401Y-102378966D01*
X144461487Y-102658889D01*
X144432815Y-102950000D01*
X144461487Y-103241111D01*
X144546401Y-103521034D01*
X144684294Y-103779014D01*
X144869866Y-104005134D01*
X145095986Y-104190706D01*
X145113374Y-104200000D01*
X145095986Y-104209294D01*
X144869866Y-104394866D01*
X144684294Y-104620986D01*
X144546401Y-104878966D01*
X144461487Y-105158889D01*
X144432815Y-105450000D01*
X144461487Y-105741111D01*
X144546401Y-106021034D01*
X144684294Y-106279014D01*
X144869866Y-106505134D01*
X145095986Y-106690706D01*
X145113374Y-106700000D01*
X145095986Y-106709294D01*
X144869866Y-106894866D01*
X144684294Y-107120986D01*
X144668786Y-107150000D01*
X139832595Y-107150000D01*
X139795706Y-107080986D01*
X139610134Y-106854866D01*
X139384014Y-106669294D01*
X139366626Y-106660000D01*
X139384014Y-106650706D01*
X139610134Y-106465134D01*
X139795706Y-106239014D01*
X139933599Y-105981034D01*
X140018513Y-105701111D01*
X140047185Y-105410000D01*
X140018513Y-105118889D01*
X139933599Y-104838966D01*
X139795706Y-104580986D01*
X139610134Y-104354866D01*
X139384014Y-104169294D01*
X139366626Y-104160000D01*
X139384014Y-104150706D01*
X139610134Y-103965134D01*
X139795706Y-103739014D01*
X139933599Y-103481034D01*
X140018513Y-103201111D01*
X140047185Y-102910000D01*
X140018513Y-102618889D01*
X139933599Y-102338966D01*
X139795706Y-102080986D01*
X139610134Y-101854866D01*
X139384014Y-101669294D01*
X139366626Y-101660000D01*
X139384014Y-101650706D01*
X139610134Y-101465134D01*
X139795706Y-101239014D01*
X139933599Y-100981034D01*
X140018513Y-100701111D01*
X140047185Y-100410000D01*
X140018513Y-100118889D01*
X139933599Y-99838966D01*
X139795706Y-99580986D01*
X139610134Y-99354866D01*
X139384014Y-99169294D01*
X139126034Y-99031401D01*
X138846111Y-98946487D01*
X138627950Y-98925000D01*
X138232050Y-98925000D01*
X138013889Y-98946487D01*
X137733966Y-99031401D01*
X137475986Y-99169294D01*
X137302375Y-99311773D01*
X137285098Y-92746337D01*
X137288677Y-92710000D01*
X137285336Y-92676076D01*
X137312348Y-89674357D01*
X137394013Y-89630706D01*
X137614945Y-89449392D01*
X137625498Y-89484180D01*
X137684463Y-89594494D01*
X137763815Y-89691185D01*
X137860506Y-89770537D01*
X137970820Y-89829502D01*
X138090518Y-89865812D01*
X138215000Y-89878072D01*
X138779250Y-89875000D01*
X138938000Y-89716250D01*
X138938000Y-88392000D01*
X139192000Y-88392000D01*
X139192000Y-89716250D01*
X139350750Y-89875000D01*
X139915000Y-89878072D01*
X140039482Y-89865812D01*
X140159180Y-89829502D01*
X140269494Y-89770537D01*
X140366185Y-89691185D01*
X140445537Y-89594494D01*
X140504502Y-89484180D01*
X140540812Y-89364482D01*
X140553072Y-89240000D01*
X140550000Y-88550750D01*
X140391250Y-88392000D01*
X139192000Y-88392000D01*
X138938000Y-88392000D01*
X138918000Y-88392000D01*
X138918000Y-88138000D01*
X138938000Y-88138000D01*
X138938000Y-86813750D01*
X138779250Y-86655000D01*
X138215000Y-86651928D01*
X138090518Y-86664188D01*
X137970820Y-86700498D01*
X137860506Y-86759463D01*
X137763815Y-86838815D01*
X137684463Y-86935506D01*
X137625498Y-87045820D01*
X137614945Y-87080608D01*
X137394014Y-86899294D01*
X137325000Y-86862405D01*
X137325000Y-82047594D01*
X137394013Y-82010706D01*
X137614945Y-81829392D01*
X137625498Y-81864180D01*
X137684463Y-81974494D01*
X137763815Y-82071185D01*
X137860506Y-82150537D01*
X137970820Y-82209502D01*
X138090518Y-82245812D01*
X138215000Y-82258072D01*
X138779250Y-82255000D01*
X138938000Y-82096250D01*
X138938000Y-80772000D01*
X138918000Y-80772000D01*
X138918000Y-80518000D01*
X138938000Y-80518000D01*
X138938000Y-79193750D01*
X138779250Y-79035000D01*
X138215000Y-79031928D01*
X138090518Y-79044188D01*
X137970820Y-79080498D01*
X137860506Y-79139463D01*
X137763815Y-79218815D01*
X137684463Y-79315506D01*
X137625498Y-79425820D01*
X137614945Y-79460608D01*
X137394014Y-79279294D01*
X137136034Y-79141401D01*
X136856111Y-79056487D01*
X136565000Y-79027815D01*
X136273890Y-79056487D01*
X136048601Y-79124828D01*
X136048601Y-75227107D01*
X136202875Y-75291010D01*
X136492401Y-75348600D01*
X136787599Y-75348600D01*
X137077125Y-75291010D01*
X137349853Y-75178042D01*
X137595302Y-75014039D01*
X137804039Y-74805302D01*
X137910000Y-74646719D01*
X138015961Y-74805302D01*
G36*
X135802892Y-107110000D02*
G01*
X132212595Y-107110000D01*
X132175706Y-107040986D01*
X131990134Y-106814866D01*
X131764014Y-106629294D01*
X131746626Y-106620000D01*
X131764014Y-106610706D01*
X131990134Y-106425134D01*
X132175706Y-106199014D01*
X132225146Y-106106517D01*
X132327247Y-106075546D01*
X132459276Y-106004974D01*
X132575001Y-105910001D01*
X132598804Y-105880997D01*
X132621007Y-105858794D01*
X132650011Y-105834991D01*
X132744984Y-105719266D01*
X132815556Y-105587237D01*
X132859013Y-105443976D01*
X132870010Y-105332323D01*
X132870010Y-105332313D01*
X132873686Y-105294991D01*
X132870010Y-105257668D01*
X132870010Y-99920617D01*
X132873686Y-99883294D01*
X132870010Y-99845971D01*
X132870010Y-99845962D01*
X132859013Y-99734309D01*
X132815556Y-99591048D01*
X132744984Y-99459019D01*
X132650011Y-99343294D01*
X132621014Y-99319497D01*
X131985508Y-98683992D01*
X131961706Y-98654989D01*
X131845981Y-98560016D01*
X131713952Y-98489444D01*
X131570691Y-98445987D01*
X131459038Y-98434990D01*
X131459027Y-98434990D01*
X131421705Y-98431314D01*
X131384383Y-98434990D01*
X127533382Y-98434990D01*
X122568392Y-93470000D01*
X135766998Y-93470000D01*
X135802892Y-107110000D01*
G37*
X135802892Y-107110000D02*
X132212595Y-107110000D01*
X132175706Y-107040986D01*
X131990134Y-106814866D01*
X131764014Y-106629294D01*
X131746626Y-106620000D01*
X131764014Y-106610706D01*
X131990134Y-106425134D01*
X132175706Y-106199014D01*
X132225146Y-106106517D01*
X132327247Y-106075546D01*
X132459276Y-106004974D01*
X132575001Y-105910001D01*
X132598804Y-105880997D01*
X132621007Y-105858794D01*
X132650011Y-105834991D01*
X132744984Y-105719266D01*
X132815556Y-105587237D01*
X132859013Y-105443976D01*
X132870010Y-105332323D01*
X132870010Y-105332313D01*
X132873686Y-105294991D01*
X132870010Y-105257668D01*
X132870010Y-99920617D01*
X132873686Y-99883294D01*
X132870010Y-99845971D01*
X132870010Y-99845962D01*
X132859013Y-99734309D01*
X132815556Y-99591048D01*
X132744984Y-99459019D01*
X132650011Y-99343294D01*
X132621014Y-99319497D01*
X131985508Y-98683992D01*
X131961706Y-98654989D01*
X131845981Y-98560016D01*
X131713952Y-98489444D01*
X131570691Y-98445987D01*
X131459038Y-98434990D01*
X131459027Y-98434990D01*
X131421705Y-98431314D01*
X131384383Y-98434990D01*
X127533382Y-98434990D01*
X122568392Y-93470000D01*
X135766998Y-93470000D01*
X135802892Y-107110000D01*
G36*
X143095961Y-74805302D02*
G01*
X143304698Y-75014039D01*
X143500001Y-75144536D01*
X143500000Y-84233480D01*
X143496324Y-84270802D01*
X143500000Y-84308124D01*
X143500000Y-84308134D01*
X143510997Y-84419787D01*
X143539726Y-84514494D01*
X143554454Y-84563048D01*
X143625026Y-84695078D01*
X143630909Y-84702246D01*
X143719999Y-84810803D01*
X143749003Y-84834606D01*
X153248284Y-94333888D01*
X153221433Y-94360739D01*
X153068767Y-94589220D01*
X152963609Y-94843093D01*
X152910000Y-95112604D01*
X152910000Y-95320198D01*
X142480000Y-84890199D01*
X142480000Y-75144535D01*
X142675302Y-75014039D01*
X142884039Y-74805302D01*
X142990000Y-74646719D01*
X143095961Y-74805302D01*
G37*
X143095961Y-74805302D02*
X143304698Y-75014039D01*
X143500001Y-75144536D01*
X143500000Y-84233480D01*
X143496324Y-84270802D01*
X143500000Y-84308124D01*
X143500000Y-84308134D01*
X143510997Y-84419787D01*
X143539726Y-84514494D01*
X143554454Y-84563048D01*
X143625026Y-84695078D01*
X143630909Y-84702246D01*
X143719999Y-84810803D01*
X143749003Y-84834606D01*
X153248284Y-94333888D01*
X153221433Y-94360739D01*
X153068767Y-94589220D01*
X152963609Y-94843093D01*
X152910000Y-95112604D01*
X152910000Y-95320198D01*
X142480000Y-84890199D01*
X142480000Y-75144535D01*
X142675302Y-75014039D01*
X142884039Y-74805302D01*
X142990000Y-74646719D01*
X143095961Y-74805302D01*
G36*
X145635961Y-74805302D02*
G01*
X145844698Y-75014039D01*
X146040000Y-75144535D01*
X146040001Y-78481866D01*
X146036324Y-78519198D01*
X146050998Y-78668183D01*
X146094454Y-78811444D01*
X146165026Y-78943474D01*
X146234244Y-79027815D01*
X146260000Y-79059199D01*
X146288998Y-79082997D01*
X156157572Y-88951572D01*
X155955739Y-89086433D01*
X155761433Y-89280739D01*
X155699474Y-89373467D01*
X155690812Y-89285518D01*
X155654502Y-89165820D01*
X155595537Y-89055506D01*
X155516185Y-88958815D01*
X155419494Y-88879463D01*
X155309180Y-88820498D01*
X155189482Y-88784188D01*
X155065000Y-88771928D01*
X153545000Y-88771928D01*
X153420518Y-88784188D01*
X153300820Y-88820498D01*
X153190506Y-88879463D01*
X153093815Y-88958815D01*
X153014463Y-89055506D01*
X152955498Y-89165820D01*
X152919188Y-89285518D01*
X152906928Y-89410000D01*
X152906928Y-90930000D01*
X152919188Y-91054482D01*
X152955498Y-91174180D01*
X153014463Y-91284494D01*
X153093815Y-91381185D01*
X153190506Y-91460537D01*
X153300820Y-91519502D01*
X153420518Y-91555812D01*
X153508467Y-91564474D01*
X153415739Y-91626433D01*
X153221433Y-91820739D01*
X153086572Y-92022572D01*
X145020000Y-83956001D01*
X145020000Y-75144535D01*
X145215302Y-75014039D01*
X145424039Y-74805302D01*
X145530000Y-74646719D01*
X145635961Y-74805302D01*
G37*
X145635961Y-74805302D02*
X145844698Y-75014039D01*
X146040000Y-75144535D01*
X146040001Y-78481866D01*
X146036324Y-78519198D01*
X146050998Y-78668183D01*
X146094454Y-78811444D01*
X146165026Y-78943474D01*
X146234244Y-79027815D01*
X146260000Y-79059199D01*
X146288998Y-79082997D01*
X156157572Y-88951572D01*
X155955739Y-89086433D01*
X155761433Y-89280739D01*
X155699474Y-89373467D01*
X155690812Y-89285518D01*
X155654502Y-89165820D01*
X155595537Y-89055506D01*
X155516185Y-88958815D01*
X155419494Y-88879463D01*
X155309180Y-88820498D01*
X155189482Y-88784188D01*
X155065000Y-88771928D01*
X153545000Y-88771928D01*
X153420518Y-88784188D01*
X153300820Y-88820498D01*
X153190506Y-88879463D01*
X153093815Y-88958815D01*
X153014463Y-89055506D01*
X152955498Y-89165820D01*
X152919188Y-89285518D01*
X152906928Y-89410000D01*
X152906928Y-90930000D01*
X152919188Y-91054482D01*
X152955498Y-91174180D01*
X153014463Y-91284494D01*
X153093815Y-91381185D01*
X153190506Y-91460537D01*
X153300820Y-91519502D01*
X153420518Y-91555812D01*
X153508467Y-91564474D01*
X153415739Y-91626433D01*
X153221433Y-91820739D01*
X153086572Y-92022572D01*
X145020000Y-83956001D01*
X145020000Y-75144535D01*
X145215302Y-75014039D01*
X145424039Y-74805302D01*
X145530000Y-74646719D01*
X145635961Y-74805302D01*
G36*
X113907000Y-73723000D02*
G01*
X113927000Y-73723000D01*
X113927000Y-73977000D01*
X113907000Y-73977000D01*
X113907000Y-75183817D01*
X114139026Y-75304958D01*
X114289814Y-75259222D01*
X114554944Y-75132684D01*
X114790293Y-74956854D01*
X114986817Y-74738488D01*
X115045441Y-74639897D01*
X115155961Y-74805302D01*
X115364698Y-75014039D01*
X115610147Y-75178042D01*
X115882875Y-75291010D01*
X116172401Y-75348600D01*
X116467599Y-75348600D01*
X116757125Y-75291010D01*
X117029853Y-75178042D01*
X117275302Y-75014039D01*
X117484039Y-74805302D01*
X117590000Y-74646719D01*
X117695961Y-74805302D01*
X117904698Y-75014039D01*
X118150147Y-75178042D01*
X118422875Y-75291010D01*
X118712401Y-75348600D01*
X119007599Y-75348600D01*
X119297125Y-75291010D01*
X119569853Y-75178042D01*
X119815302Y-75014039D01*
X120024039Y-74805302D01*
X120130000Y-74646719D01*
X120235961Y-74805302D01*
X120444698Y-75014039D01*
X120690147Y-75178042D01*
X120962875Y-75291010D01*
X121252401Y-75348600D01*
X121547599Y-75348600D01*
X121837125Y-75291010D01*
X122109853Y-75178042D01*
X122355302Y-75014039D01*
X122564039Y-74805302D01*
X122670000Y-74646719D01*
X122775961Y-74805302D01*
X122984698Y-75014039D01*
X123230147Y-75178042D01*
X123502875Y-75291010D01*
X123792401Y-75348600D01*
X124087599Y-75348600D01*
X124377125Y-75291010D01*
X124649853Y-75178042D01*
X124895302Y-75014039D01*
X125104039Y-74805302D01*
X125210000Y-74646719D01*
X125315961Y-74805302D01*
X125524698Y-75014039D01*
X125770147Y-75178042D01*
X126042875Y-75291010D01*
X126332401Y-75348600D01*
X126627599Y-75348600D01*
X126917125Y-75291010D01*
X127189853Y-75178042D01*
X127435302Y-75014039D01*
X127644039Y-74805302D01*
X127750000Y-74646719D01*
X127855961Y-74805302D01*
X128064698Y-75014039D01*
X128310147Y-75178042D01*
X128582875Y-75291010D01*
X128872401Y-75348600D01*
X129167599Y-75348600D01*
X129457125Y-75291010D01*
X129729853Y-75178042D01*
X129975302Y-75014039D01*
X130184039Y-74805302D01*
X130290000Y-74646719D01*
X130395961Y-74805302D01*
X130604698Y-75014039D01*
X130850147Y-75178042D01*
X131122875Y-75291010D01*
X131412401Y-75348600D01*
X131707599Y-75348600D01*
X131988602Y-75292705D01*
X131988602Y-77399067D01*
X131984925Y-77436399D01*
X131999599Y-77585384D01*
X132043055Y-77728645D01*
X132113627Y-77860675D01*
X132158211Y-77915000D01*
X132208601Y-77976400D01*
X132237599Y-78000198D01*
X133305000Y-79067600D01*
X133305000Y-79242406D01*
X133235987Y-79279294D01*
X133009866Y-79464866D01*
X132824294Y-79690986D01*
X132815000Y-79708374D01*
X132805706Y-79690986D01*
X132620134Y-79464866D01*
X132394014Y-79279294D01*
X132136034Y-79141401D01*
X131856111Y-79056487D01*
X131565000Y-79027815D01*
X131273890Y-79056487D01*
X130993967Y-79141401D01*
X130735987Y-79279294D01*
X130509866Y-79464866D01*
X130324294Y-79690986D01*
X130315000Y-79708374D01*
X130305706Y-79690986D01*
X130120134Y-79464866D01*
X129894014Y-79279294D01*
X129636034Y-79141401D01*
X129356111Y-79056487D01*
X129065000Y-79027815D01*
X128773890Y-79056487D01*
X128493967Y-79141401D01*
X128235987Y-79279294D01*
X128009866Y-79464866D01*
X127824294Y-79690986D01*
X127815000Y-79708374D01*
X127805706Y-79690986D01*
X127620134Y-79464866D01*
X127394014Y-79279294D01*
X127136034Y-79141401D01*
X126856111Y-79056487D01*
X126565000Y-79027815D01*
X126273890Y-79056487D01*
X125993967Y-79141401D01*
X125735987Y-79279294D01*
X125509866Y-79464866D01*
X125324294Y-79690986D01*
X125315000Y-79708374D01*
X125305706Y-79690986D01*
X125120134Y-79464866D01*
X124894014Y-79279294D01*
X124636034Y-79141401D01*
X124356111Y-79056487D01*
X124065000Y-79027815D01*
X123773890Y-79056487D01*
X123493967Y-79141401D01*
X123235987Y-79279294D01*
X123009866Y-79464866D01*
X122824294Y-79690986D01*
X122686401Y-79948966D01*
X122601487Y-80228889D01*
X122580000Y-80447050D01*
X122580000Y-80842949D01*
X122601487Y-81061110D01*
X122686401Y-81341033D01*
X122824294Y-81599013D01*
X123009866Y-81825134D01*
X123235986Y-82010706D01*
X123493966Y-82148599D01*
X123773889Y-82233513D01*
X124065000Y-82262185D01*
X124356110Y-82233513D01*
X124636033Y-82148599D01*
X124894013Y-82010706D01*
X125120134Y-81825134D01*
X125305706Y-81599014D01*
X125315000Y-81581626D01*
X125324294Y-81599013D01*
X125509866Y-81825134D01*
X125735986Y-82010706D01*
X125993966Y-82148599D01*
X126273889Y-82233513D01*
X126565000Y-82262185D01*
X126856110Y-82233513D01*
X127136033Y-82148599D01*
X127394013Y-82010706D01*
X127620134Y-81825134D01*
X127805706Y-81599014D01*
X127815000Y-81581626D01*
X127824294Y-81599013D01*
X128009866Y-81825134D01*
X128235986Y-82010706D01*
X128493966Y-82148599D01*
X128773889Y-82233513D01*
X129065000Y-82262185D01*
X129356110Y-82233513D01*
X129636033Y-82148599D01*
X129894013Y-82010706D01*
X130120134Y-81825134D01*
X130305706Y-81599014D01*
X130315000Y-81581626D01*
X130324294Y-81599013D01*
X130509866Y-81825134D01*
X130735986Y-82010706D01*
X130993966Y-82148599D01*
X131273889Y-82233513D01*
X131565000Y-82262185D01*
X131856110Y-82233513D01*
X132136033Y-82148599D01*
X132394013Y-82010706D01*
X132620134Y-81825134D01*
X132805706Y-81599014D01*
X132815000Y-81581626D01*
X132824294Y-81599013D01*
X133009866Y-81825134D01*
X133235986Y-82010706D01*
X133493966Y-82148599D01*
X133773889Y-82233513D01*
X134065000Y-82262185D01*
X134356110Y-82233513D01*
X134528602Y-82181188D01*
X134528602Y-85376596D01*
X133554003Y-86351196D01*
X133524999Y-86374999D01*
X133483970Y-86424994D01*
X133430026Y-86490724D01*
X133408330Y-86531314D01*
X133359454Y-86622754D01*
X133315997Y-86766015D01*
X133306587Y-86861558D01*
X133235987Y-86899294D01*
X133009866Y-87084866D01*
X132824294Y-87310986D01*
X132815000Y-87328374D01*
X132805706Y-87310986D01*
X132620134Y-87084866D01*
X132394014Y-86899294D01*
X132136034Y-86761401D01*
X131856111Y-86676487D01*
X131565000Y-86647815D01*
X131273890Y-86676487D01*
X130993967Y-86761401D01*
X130735987Y-86899294D01*
X130509866Y-87084866D01*
X130324294Y-87310986D01*
X130315000Y-87328374D01*
X130305706Y-87310986D01*
X130120134Y-87084866D01*
X129894014Y-86899294D01*
X129636034Y-86761401D01*
X129356111Y-86676487D01*
X129065000Y-86647815D01*
X128773890Y-86676487D01*
X128493967Y-86761401D01*
X128235987Y-86899294D01*
X128009866Y-87084866D01*
X127824294Y-87310986D01*
X127815000Y-87328374D01*
X127805706Y-87310986D01*
X127620134Y-87084866D01*
X127394014Y-86899294D01*
X127136034Y-86761401D01*
X126856111Y-86676487D01*
X126565000Y-86647815D01*
X126273890Y-86676487D01*
X125993967Y-86761401D01*
X125735987Y-86899294D01*
X125509866Y-87084866D01*
X125324294Y-87310986D01*
X125315000Y-87328374D01*
X125305706Y-87310986D01*
X125120134Y-87084866D01*
X124894014Y-86899294D01*
X124636034Y-86761401D01*
X124356111Y-86676487D01*
X124065000Y-86647815D01*
X123773890Y-86676487D01*
X123493967Y-86761401D01*
X123235987Y-86899294D01*
X123009866Y-87084866D01*
X122824294Y-87310986D01*
X122686401Y-87568966D01*
X122601487Y-87848889D01*
X122580000Y-88067050D01*
X122580000Y-88462949D01*
X122601487Y-88681110D01*
X122686401Y-88961033D01*
X122824294Y-89219013D01*
X123009866Y-89445134D01*
X123235986Y-89630706D01*
X123493966Y-89768599D01*
X123773889Y-89853513D01*
X124065000Y-89882185D01*
X124356110Y-89853513D01*
X124636033Y-89768599D01*
X124894013Y-89630706D01*
X125120134Y-89445134D01*
X125305706Y-89219014D01*
X125315000Y-89201626D01*
X125324294Y-89219013D01*
X125509866Y-89445134D01*
X125735986Y-89630706D01*
X125993966Y-89768599D01*
X126273889Y-89853513D01*
X126565000Y-89882185D01*
X126856110Y-89853513D01*
X127136033Y-89768599D01*
X127394013Y-89630706D01*
X127620134Y-89445134D01*
X127805706Y-89219014D01*
X127815000Y-89201626D01*
X127824294Y-89219013D01*
X128009866Y-89445134D01*
X128235986Y-89630706D01*
X128493966Y-89768599D01*
X128773889Y-89853513D01*
X129065000Y-89882185D01*
X129356110Y-89853513D01*
X129636033Y-89768599D01*
X129894013Y-89630706D01*
X130120134Y-89445134D01*
X130305706Y-89219014D01*
X130315000Y-89201626D01*
X130324294Y-89219013D01*
X130509866Y-89445134D01*
X130735986Y-89630706D01*
X130993966Y-89768599D01*
X131273889Y-89853513D01*
X131565000Y-89882185D01*
X131856110Y-89853513D01*
X132136033Y-89768599D01*
X132394013Y-89630706D01*
X132620134Y-89445134D01*
X132805706Y-89219014D01*
X132815000Y-89201626D01*
X132824294Y-89219013D01*
X133009866Y-89445134D01*
X133235986Y-89630706D01*
X133493966Y-89768599D01*
X133773889Y-89853513D01*
X134065000Y-89882185D01*
X134356110Y-89853513D01*
X134636033Y-89768599D01*
X134894013Y-89630706D01*
X135120134Y-89445134D01*
X135305706Y-89219014D01*
X135315000Y-89201626D01*
X135324294Y-89219013D01*
X135509866Y-89445134D01*
X135735986Y-89630706D01*
X135792408Y-89660864D01*
X135771809Y-91950000D01*
X121684802Y-91950000D01*
X114487997Y-84753196D01*
X114595518Y-84785812D01*
X114720000Y-84798072D01*
X115284250Y-84795000D01*
X115443000Y-84636250D01*
X115443000Y-83312000D01*
X115697000Y-83312000D01*
X115697000Y-84636250D01*
X115855750Y-84795000D01*
X116420000Y-84798072D01*
X116544482Y-84785812D01*
X116664180Y-84749502D01*
X116774494Y-84690537D01*
X116871185Y-84611185D01*
X116950537Y-84514494D01*
X117009502Y-84404180D01*
X117045812Y-84284482D01*
X117058072Y-84160000D01*
X117055000Y-83470750D01*
X116896250Y-83312000D01*
X115697000Y-83312000D01*
X115443000Y-83312000D01*
X115423000Y-83312000D01*
X115423000Y-83058000D01*
X115443000Y-83058000D01*
X115443000Y-81733750D01*
X115697000Y-81733750D01*
X115697000Y-83058000D01*
X116896250Y-83058000D01*
X117055000Y-82899250D01*
X117058072Y-82210000D01*
X117045812Y-82085518D01*
X117009502Y-81965820D01*
X116950537Y-81855506D01*
X116871185Y-81758815D01*
X116774494Y-81679463D01*
X116664180Y-81620498D01*
X116544482Y-81584188D01*
X116420000Y-81571928D01*
X115855750Y-81575000D01*
X115697000Y-81733750D01*
X115443000Y-81733750D01*
X115284250Y-81575000D01*
X114720000Y-81571928D01*
X114595518Y-81584188D01*
X114475820Y-81620498D01*
X114365506Y-81679463D01*
X114268815Y-81758815D01*
X114189463Y-81855506D01*
X114130498Y-81965820D01*
X114119945Y-82000608D01*
X113899014Y-81819294D01*
X113830000Y-81782405D01*
X113830000Y-75717323D01*
X113833676Y-75680000D01*
X113830000Y-75642677D01*
X113830000Y-75642667D01*
X113819003Y-75531014D01*
X113775546Y-75387753D01*
X113704974Y-75255724D01*
X113648073Y-75186390D01*
X113653000Y-75183817D01*
X113653000Y-73977000D01*
X113633000Y-73977000D01*
X113633000Y-73723000D01*
X113653000Y-73723000D01*
X113653000Y-73703000D01*
X113907000Y-73703000D01*
X113907000Y-73723000D01*
G37*
X113907000Y-73723000D02*
X113927000Y-73723000D01*
X113927000Y-73977000D01*
X113907000Y-73977000D01*
X113907000Y-75183817D01*
X114139026Y-75304958D01*
X114289814Y-75259222D01*
X114554944Y-75132684D01*
X114790293Y-74956854D01*
X114986817Y-74738488D01*
X115045441Y-74639897D01*
X115155961Y-74805302D01*
X115364698Y-75014039D01*
X115610147Y-75178042D01*
X115882875Y-75291010D01*
X116172401Y-75348600D01*
X116467599Y-75348600D01*
X116757125Y-75291010D01*
X117029853Y-75178042D01*
X117275302Y-75014039D01*
X117484039Y-74805302D01*
X117590000Y-74646719D01*
X117695961Y-74805302D01*
X117904698Y-75014039D01*
X118150147Y-75178042D01*
X118422875Y-75291010D01*
X118712401Y-75348600D01*
X119007599Y-75348600D01*
X119297125Y-75291010D01*
X119569853Y-75178042D01*
X119815302Y-75014039D01*
X120024039Y-74805302D01*
X120130000Y-74646719D01*
X120235961Y-74805302D01*
X120444698Y-75014039D01*
X120690147Y-75178042D01*
X120962875Y-75291010D01*
X121252401Y-75348600D01*
X121547599Y-75348600D01*
X121837125Y-75291010D01*
X122109853Y-75178042D01*
X122355302Y-75014039D01*
X122564039Y-74805302D01*
X122670000Y-74646719D01*
X122775961Y-74805302D01*
X122984698Y-75014039D01*
X123230147Y-75178042D01*
X123502875Y-75291010D01*
X123792401Y-75348600D01*
X124087599Y-75348600D01*
X124377125Y-75291010D01*
X124649853Y-75178042D01*
X124895302Y-75014039D01*
X125104039Y-74805302D01*
X125210000Y-74646719D01*
X125315961Y-74805302D01*
X125524698Y-75014039D01*
X125770147Y-75178042D01*
X126042875Y-75291010D01*
X126332401Y-75348600D01*
X126627599Y-75348600D01*
X126917125Y-75291010D01*
X127189853Y-75178042D01*
X127435302Y-75014039D01*
X127644039Y-74805302D01*
X127750000Y-74646719D01*
X127855961Y-74805302D01*
X128064698Y-75014039D01*
X128310147Y-75178042D01*
X128582875Y-75291010D01*
X128872401Y-75348600D01*
X129167599Y-75348600D01*
X129457125Y-75291010D01*
X129729853Y-75178042D01*
X129975302Y-75014039D01*
X130184039Y-74805302D01*
X130290000Y-74646719D01*
X130395961Y-74805302D01*
X130604698Y-75014039D01*
X130850147Y-75178042D01*
X131122875Y-75291010D01*
X131412401Y-75348600D01*
X131707599Y-75348600D01*
X131988602Y-75292705D01*
X131988602Y-77399067D01*
X131984925Y-77436399D01*
X131999599Y-77585384D01*
X132043055Y-77728645D01*
X132113627Y-77860675D01*
X132158211Y-77915000D01*
X132208601Y-77976400D01*
X132237599Y-78000198D01*
X133305000Y-79067600D01*
X133305000Y-79242406D01*
X133235987Y-79279294D01*
X133009866Y-79464866D01*
X132824294Y-79690986D01*
X132815000Y-79708374D01*
X132805706Y-79690986D01*
X132620134Y-79464866D01*
X132394014Y-79279294D01*
X132136034Y-79141401D01*
X131856111Y-79056487D01*
X131565000Y-79027815D01*
X131273890Y-79056487D01*
X130993967Y-79141401D01*
X130735987Y-79279294D01*
X130509866Y-79464866D01*
X130324294Y-79690986D01*
X130315000Y-79708374D01*
X130305706Y-79690986D01*
X130120134Y-79464866D01*
X129894014Y-79279294D01*
X129636034Y-79141401D01*
X129356111Y-79056487D01*
X129065000Y-79027815D01*
X128773890Y-79056487D01*
X128493967Y-79141401D01*
X128235987Y-79279294D01*
X128009866Y-79464866D01*
X127824294Y-79690986D01*
X127815000Y-79708374D01*
X127805706Y-79690986D01*
X127620134Y-79464866D01*
X127394014Y-79279294D01*
X127136034Y-79141401D01*
X126856111Y-79056487D01*
X126565000Y-79027815D01*
X126273890Y-79056487D01*
X125993967Y-79141401D01*
X125735987Y-79279294D01*
X125509866Y-79464866D01*
X125324294Y-79690986D01*
X125315000Y-79708374D01*
X125305706Y-79690986D01*
X125120134Y-79464866D01*
X124894014Y-79279294D01*
X124636034Y-79141401D01*
X124356111Y-79056487D01*
X124065000Y-79027815D01*
X123773890Y-79056487D01*
X123493967Y-79141401D01*
X123235987Y-79279294D01*
X123009866Y-79464866D01*
X122824294Y-79690986D01*
X122686401Y-79948966D01*
X122601487Y-80228889D01*
X122580000Y-80447050D01*
X122580000Y-80842949D01*
X122601487Y-81061110D01*
X122686401Y-81341033D01*
X122824294Y-81599013D01*
X123009866Y-81825134D01*
X123235986Y-82010706D01*
X123493966Y-82148599D01*
X123773889Y-82233513D01*
X124065000Y-82262185D01*
X124356110Y-82233513D01*
X124636033Y-82148599D01*
X124894013Y-82010706D01*
X125120134Y-81825134D01*
X125305706Y-81599014D01*
X125315000Y-81581626D01*
X125324294Y-81599013D01*
X125509866Y-81825134D01*
X125735986Y-82010706D01*
X125993966Y-82148599D01*
X126273889Y-82233513D01*
X126565000Y-82262185D01*
X126856110Y-82233513D01*
X127136033Y-82148599D01*
X127394013Y-82010706D01*
X127620134Y-81825134D01*
X127805706Y-81599014D01*
X127815000Y-81581626D01*
X127824294Y-81599013D01*
X128009866Y-81825134D01*
X128235986Y-82010706D01*
X128493966Y-82148599D01*
X128773889Y-82233513D01*
X129065000Y-82262185D01*
X129356110Y-82233513D01*
X129636033Y-82148599D01*
X129894013Y-82010706D01*
X130120134Y-81825134D01*
X130305706Y-81599014D01*
X130315000Y-81581626D01*
X130324294Y-81599013D01*
X130509866Y-81825134D01*
X130735986Y-82010706D01*
X130993966Y-82148599D01*
X131273889Y-82233513D01*
X131565000Y-82262185D01*
X131856110Y-82233513D01*
X132136033Y-82148599D01*
X132394013Y-82010706D01*
X132620134Y-81825134D01*
X132805706Y-81599014D01*
X132815000Y-81581626D01*
X132824294Y-81599013D01*
X133009866Y-81825134D01*
X133235986Y-82010706D01*
X133493966Y-82148599D01*
X133773889Y-82233513D01*
X134065000Y-82262185D01*
X134356110Y-82233513D01*
X134528602Y-82181188D01*
X134528602Y-85376596D01*
X133554003Y-86351196D01*
X133524999Y-86374999D01*
X133483970Y-86424994D01*
X133430026Y-86490724D01*
X133408330Y-86531314D01*
X133359454Y-86622754D01*
X133315997Y-86766015D01*
X133306587Y-86861558D01*
X133235987Y-86899294D01*
X133009866Y-87084866D01*
X132824294Y-87310986D01*
X132815000Y-87328374D01*
X132805706Y-87310986D01*
X132620134Y-87084866D01*
X132394014Y-86899294D01*
X132136034Y-86761401D01*
X131856111Y-86676487D01*
X131565000Y-86647815D01*
X131273890Y-86676487D01*
X130993967Y-86761401D01*
X130735987Y-86899294D01*
X130509866Y-87084866D01*
X130324294Y-87310986D01*
X130315000Y-87328374D01*
X130305706Y-87310986D01*
X130120134Y-87084866D01*
X129894014Y-86899294D01*
X129636034Y-86761401D01*
X129356111Y-86676487D01*
X129065000Y-86647815D01*
X128773890Y-86676487D01*
X128493967Y-86761401D01*
X128235987Y-86899294D01*
X128009866Y-87084866D01*
X127824294Y-87310986D01*
X127815000Y-87328374D01*
X127805706Y-87310986D01*
X127620134Y-87084866D01*
X127394014Y-86899294D01*
X127136034Y-86761401D01*
X126856111Y-86676487D01*
X126565000Y-86647815D01*
X126273890Y-86676487D01*
X125993967Y-86761401D01*
X125735987Y-86899294D01*
X125509866Y-87084866D01*
X125324294Y-87310986D01*
X125315000Y-87328374D01*
X125305706Y-87310986D01*
X125120134Y-87084866D01*
X124894014Y-86899294D01*
X124636034Y-86761401D01*
X124356111Y-86676487D01*
X124065000Y-86647815D01*
X123773890Y-86676487D01*
X123493967Y-86761401D01*
X123235987Y-86899294D01*
X123009866Y-87084866D01*
X122824294Y-87310986D01*
X122686401Y-87568966D01*
X122601487Y-87848889D01*
X122580000Y-88067050D01*
X122580000Y-88462949D01*
X122601487Y-88681110D01*
X122686401Y-88961033D01*
X122824294Y-89219013D01*
X123009866Y-89445134D01*
X123235986Y-89630706D01*
X123493966Y-89768599D01*
X123773889Y-89853513D01*
X124065000Y-89882185D01*
X124356110Y-89853513D01*
X124636033Y-89768599D01*
X124894013Y-89630706D01*
X125120134Y-89445134D01*
X125305706Y-89219014D01*
X125315000Y-89201626D01*
X125324294Y-89219013D01*
X125509866Y-89445134D01*
X125735986Y-89630706D01*
X125993966Y-89768599D01*
X126273889Y-89853513D01*
X126565000Y-89882185D01*
X126856110Y-89853513D01*
X127136033Y-89768599D01*
X127394013Y-89630706D01*
X127620134Y-89445134D01*
X127805706Y-89219014D01*
X127815000Y-89201626D01*
X127824294Y-89219013D01*
X128009866Y-89445134D01*
X128235986Y-89630706D01*
X128493966Y-89768599D01*
X128773889Y-89853513D01*
X129065000Y-89882185D01*
X129356110Y-89853513D01*
X129636033Y-89768599D01*
X129894013Y-89630706D01*
X130120134Y-89445134D01*
X130305706Y-89219014D01*
X130315000Y-89201626D01*
X130324294Y-89219013D01*
X130509866Y-89445134D01*
X130735986Y-89630706D01*
X130993966Y-89768599D01*
X131273889Y-89853513D01*
X131565000Y-89882185D01*
X131856110Y-89853513D01*
X132136033Y-89768599D01*
X132394013Y-89630706D01*
X132620134Y-89445134D01*
X132805706Y-89219014D01*
X132815000Y-89201626D01*
X132824294Y-89219013D01*
X133009866Y-89445134D01*
X133235986Y-89630706D01*
X133493966Y-89768599D01*
X133773889Y-89853513D01*
X134065000Y-89882185D01*
X134356110Y-89853513D01*
X134636033Y-89768599D01*
X134894013Y-89630706D01*
X135120134Y-89445134D01*
X135305706Y-89219014D01*
X135315000Y-89201626D01*
X135324294Y-89219013D01*
X135509866Y-89445134D01*
X135735986Y-89630706D01*
X135792408Y-89660864D01*
X135771809Y-91950000D01*
X121684802Y-91950000D01*
X114487997Y-84753196D01*
X114595518Y-84785812D01*
X114720000Y-84798072D01*
X115284250Y-84795000D01*
X115443000Y-84636250D01*
X115443000Y-83312000D01*
X115697000Y-83312000D01*
X115697000Y-84636250D01*
X115855750Y-84795000D01*
X116420000Y-84798072D01*
X116544482Y-84785812D01*
X116664180Y-84749502D01*
X116774494Y-84690537D01*
X116871185Y-84611185D01*
X116950537Y-84514494D01*
X117009502Y-84404180D01*
X117045812Y-84284482D01*
X117058072Y-84160000D01*
X117055000Y-83470750D01*
X116896250Y-83312000D01*
X115697000Y-83312000D01*
X115443000Y-83312000D01*
X115423000Y-83312000D01*
X115423000Y-83058000D01*
X115443000Y-83058000D01*
X115443000Y-81733750D01*
X115697000Y-81733750D01*
X115697000Y-83058000D01*
X116896250Y-83058000D01*
X117055000Y-82899250D01*
X117058072Y-82210000D01*
X117045812Y-82085518D01*
X117009502Y-81965820D01*
X116950537Y-81855506D01*
X116871185Y-81758815D01*
X116774494Y-81679463D01*
X116664180Y-81620498D01*
X116544482Y-81584188D01*
X116420000Y-81571928D01*
X115855750Y-81575000D01*
X115697000Y-81733750D01*
X115443000Y-81733750D01*
X115284250Y-81575000D01*
X114720000Y-81571928D01*
X114595518Y-81584188D01*
X114475820Y-81620498D01*
X114365506Y-81679463D01*
X114268815Y-81758815D01*
X114189463Y-81855506D01*
X114130498Y-81965820D01*
X114119945Y-82000608D01*
X113899014Y-81819294D01*
X113830000Y-81782405D01*
X113830000Y-75717323D01*
X113833676Y-75680000D01*
X113830000Y-75642677D01*
X113830000Y-75642667D01*
X113819003Y-75531014D01*
X113775546Y-75387753D01*
X113704974Y-75255724D01*
X113648073Y-75186390D01*
X113653000Y-75183817D01*
X113653000Y-73977000D01*
X113633000Y-73977000D01*
X113633000Y-73723000D01*
X113653000Y-73723000D01*
X113653000Y-73703000D01*
X113907000Y-73703000D01*
X113907000Y-73723000D01*
G36*
X134227000Y-73723000D02*
G01*
X134247000Y-73723000D01*
X134247000Y-73977000D01*
X134227000Y-73977000D01*
X134227000Y-75183817D01*
X134459026Y-75304958D01*
X134528601Y-75283855D01*
X134528601Y-78141598D01*
X133508601Y-77121598D01*
X133508601Y-75220284D01*
X133590186Y-75259222D01*
X133740974Y-75304958D01*
X133973000Y-75183817D01*
X133973000Y-73977000D01*
X133953000Y-73977000D01*
X133953000Y-73723000D01*
X133973000Y-73723000D01*
X133973000Y-73703000D01*
X134227000Y-73703000D01*
X134227000Y-73723000D01*
G37*
X134227000Y-73723000D02*
X134247000Y-73723000D01*
X134247000Y-73977000D01*
X134227000Y-73977000D01*
X134227000Y-75183817D01*
X134459026Y-75304958D01*
X134528601Y-75283855D01*
X134528601Y-78141598D01*
X133508601Y-77121598D01*
X133508601Y-75220284D01*
X133590186Y-75259222D01*
X133740974Y-75304958D01*
X133973000Y-75183817D01*
X133973000Y-73977000D01*
X133953000Y-73977000D01*
X133953000Y-73723000D01*
X133973000Y-73723000D01*
X133973000Y-73703000D01*
X134227000Y-73703000D01*
X134227000Y-73723000D01*
G36*
X115155961Y-72265302D02*
G01*
X115364698Y-72474039D01*
X115523281Y-72580000D01*
X115364698Y-72685961D01*
X115155961Y-72894698D01*
X115045441Y-73060103D01*
X114986817Y-72961512D01*
X114790293Y-72743146D01*
X114574187Y-72581692D01*
X114735302Y-72474039D01*
X114944039Y-72265302D01*
X115050000Y-72106719D01*
X115155961Y-72265302D01*
G37*
X115155961Y-72265302D02*
X115364698Y-72474039D01*
X115523281Y-72580000D01*
X115364698Y-72685961D01*
X115155961Y-72894698D01*
X115045441Y-73060103D01*
X114986817Y-72961512D01*
X114790293Y-72743146D01*
X114574187Y-72581692D01*
X114735302Y-72474039D01*
X114944039Y-72265302D01*
X115050000Y-72106719D01*
X115155961Y-72265302D01*
G36*
X137973183Y-72198488D02*
G01*
X138169707Y-72416854D01*
X138385813Y-72578308D01*
X138224698Y-72685961D01*
X138015961Y-72894698D01*
X137910000Y-73053281D01*
X137804039Y-72894698D01*
X137595302Y-72685961D01*
X137436719Y-72580000D01*
X137595302Y-72474039D01*
X137804039Y-72265302D01*
X137914559Y-72099897D01*
X137973183Y-72198488D01*
G37*
X137973183Y-72198488D02*
X138169707Y-72416854D01*
X138385813Y-72578308D01*
X138224698Y-72685961D01*
X138015961Y-72894698D01*
X137910000Y-73053281D01*
X137804039Y-72894698D01*
X137595302Y-72685961D01*
X137436719Y-72580000D01*
X137595302Y-72474039D01*
X137804039Y-72265302D01*
X137914559Y-72099897D01*
X137973183Y-72198488D01*
G36*
X117653183Y-72198488D02*
G01*
X117849707Y-72416854D01*
X118065813Y-72578308D01*
X117904698Y-72685961D01*
X117695961Y-72894698D01*
X117590000Y-73053281D01*
X117484039Y-72894698D01*
X117275302Y-72685961D01*
X117116719Y-72580000D01*
X117275302Y-72474039D01*
X117484039Y-72265302D01*
X117594559Y-72099897D01*
X117653183Y-72198488D01*
G37*
X117653183Y-72198488D02*
X117849707Y-72416854D01*
X118065813Y-72578308D01*
X117904698Y-72685961D01*
X117695961Y-72894698D01*
X117590000Y-73053281D01*
X117484039Y-72894698D01*
X117275302Y-72685961D01*
X117116719Y-72580000D01*
X117275302Y-72474039D01*
X117484039Y-72265302D01*
X117594559Y-72099897D01*
X117653183Y-72198488D01*
M02*
