G04 #@! TF.GenerationSoftware,KiCad,Pcbnew,(5.1.5)-3*
G04 #@! TF.CreationDate,2020-01-30T14:03:48-05:00*
G04 #@! TF.ProjectId,RPi_Hat,5250695f-4861-4742-9e6b-696361645f70,1.0*
G04 #@! TF.SameCoordinates,Original*
G04 #@! TF.FileFunction,Legend,Top*
G04 #@! TF.FilePolarity,Positive*
%FSLAX46Y46*%
G04 Gerber Fmt 4.6, Leading zero omitted, Abs format (unit mm)*
G04 Created by KiCad (PCBNEW (5.1.5)-3) date 2020-01-30 14:03:48*
%MOMM*%
%LPD*%
G04 APERTURE LIST*
%ADD10C,0.500000*%
%ADD11C,0.150000*%
%ADD12C,0.250000*%
%ADD13C,0.120000*%
%ADD14C,0.010000*%
%ADD15C,0.100000*%
G04 APERTURE END LIST*
D10*
X121112142Y-120102142D02*
X121112142Y-117102142D01*
X121112142Y-118530714D02*
X122826428Y-118530714D01*
X122826428Y-120102142D02*
X122826428Y-117102142D01*
X123969285Y-118102142D02*
X124683571Y-120102142D01*
X125397857Y-118102142D02*
X124683571Y-120102142D01*
X124397857Y-120816428D01*
X124254999Y-120959285D01*
X123969285Y-121102142D01*
X127826428Y-120102142D02*
X127826428Y-117102142D01*
X127826428Y-119959285D02*
X127540714Y-120102142D01*
X126969285Y-120102142D01*
X126683571Y-119959285D01*
X126540714Y-119816428D01*
X126397857Y-119530714D01*
X126397857Y-118673571D01*
X126540714Y-118387857D01*
X126683571Y-118245000D01*
X126969285Y-118102142D01*
X127540714Y-118102142D01*
X127826428Y-118245000D01*
X129254999Y-120102142D02*
X129254999Y-118102142D01*
X129254999Y-118673571D02*
X129397857Y-118387857D01*
X129540714Y-118245000D01*
X129826428Y-118102142D01*
X130112142Y-118102142D01*
X131540714Y-120102142D02*
X131254999Y-119959285D01*
X131112142Y-119816428D01*
X130969285Y-119530714D01*
X130969285Y-118673571D01*
X131112142Y-118387857D01*
X131254999Y-118245000D01*
X131540714Y-118102142D01*
X131969285Y-118102142D01*
X132255000Y-118245000D01*
X132397857Y-118387857D01*
X132540714Y-118673571D01*
X132540714Y-119530714D01*
X132397857Y-119816428D01*
X132255000Y-119959285D01*
X131969285Y-120102142D01*
X131540714Y-120102142D01*
X137112142Y-118530714D02*
X137540714Y-118673571D01*
X137683571Y-118816428D01*
X137826428Y-119102142D01*
X137826428Y-119530714D01*
X137683571Y-119816428D01*
X137540714Y-119959285D01*
X137255000Y-120102142D01*
X136112142Y-120102142D01*
X136112142Y-117102142D01*
X137112142Y-117102142D01*
X137397857Y-117245000D01*
X137540714Y-117387857D01*
X137683571Y-117673571D01*
X137683571Y-117959285D01*
X137540714Y-118245000D01*
X137397857Y-118387857D01*
X137112142Y-118530714D01*
X136112142Y-118530714D01*
X139112142Y-119816428D02*
X139255000Y-119959285D01*
X139112142Y-120102142D01*
X138969285Y-119959285D01*
X139112142Y-119816428D01*
X139112142Y-120102142D01*
X142826428Y-120102142D02*
X142826428Y-117102142D01*
X142826428Y-118530714D02*
X144540714Y-118530714D01*
X144540714Y-120102142D02*
X144540714Y-117102142D01*
X145826428Y-119245000D02*
X147255000Y-119245000D01*
X145540714Y-120102142D02*
X146540714Y-117102142D01*
X147540714Y-120102142D01*
X148112142Y-117102142D02*
X149826428Y-117102142D01*
X148969285Y-120102142D02*
X148969285Y-117102142D01*
D11*
X150312380Y-88700952D02*
X149312380Y-88700952D01*
X149788571Y-88700952D02*
X149788571Y-88129523D01*
X150312380Y-88129523D02*
X149312380Y-88129523D01*
X149645714Y-87748571D02*
X150312380Y-87510476D01*
X149645714Y-87272380D02*
X150312380Y-87510476D01*
X150550476Y-87605714D01*
X150598095Y-87653333D01*
X150645714Y-87748571D01*
X150312380Y-86462857D02*
X149312380Y-86462857D01*
X150264761Y-86462857D02*
X150312380Y-86558095D01*
X150312380Y-86748571D01*
X150264761Y-86843809D01*
X150217142Y-86891428D01*
X150121904Y-86939047D01*
X149836190Y-86939047D01*
X149740952Y-86891428D01*
X149693333Y-86843809D01*
X149645714Y-86748571D01*
X149645714Y-86558095D01*
X149693333Y-86462857D01*
X150312380Y-85986666D02*
X149645714Y-85986666D01*
X149836190Y-85986666D02*
X149740952Y-85939047D01*
X149693333Y-85891428D01*
X149645714Y-85796190D01*
X149645714Y-85700952D01*
X150312380Y-85224761D02*
X150264761Y-85320000D01*
X150217142Y-85367619D01*
X150121904Y-85415238D01*
X149836190Y-85415238D01*
X149740952Y-85367619D01*
X149693333Y-85320000D01*
X149645714Y-85224761D01*
X149645714Y-85081904D01*
X149693333Y-84986666D01*
X149740952Y-84939047D01*
X149836190Y-84891428D01*
X150121904Y-84891428D01*
X150217142Y-84939047D01*
X150264761Y-84986666D01*
X150312380Y-85081904D01*
X150312380Y-85224761D01*
X149788571Y-83367619D02*
X149836190Y-83224761D01*
X149883809Y-83177142D01*
X149979047Y-83129523D01*
X150121904Y-83129523D01*
X150217142Y-83177142D01*
X150264761Y-83224761D01*
X150312380Y-83320000D01*
X150312380Y-83700952D01*
X149312380Y-83700952D01*
X149312380Y-83367619D01*
X149360000Y-83272380D01*
X149407619Y-83224761D01*
X149502857Y-83177142D01*
X149598095Y-83177142D01*
X149693333Y-83224761D01*
X149740952Y-83272380D01*
X149788571Y-83367619D01*
X149788571Y-83700952D01*
X150217142Y-82700952D02*
X150264761Y-82653333D01*
X150312380Y-82700952D01*
X150264761Y-82748571D01*
X150217142Y-82700952D01*
X150312380Y-82700952D01*
X150312380Y-81462857D02*
X149312380Y-81462857D01*
X149312380Y-81081904D01*
X149360000Y-80986666D01*
X149407619Y-80939047D01*
X149502857Y-80891428D01*
X149645714Y-80891428D01*
X149740952Y-80939047D01*
X149788571Y-80986666D01*
X149836190Y-81081904D01*
X149836190Y-81462857D01*
X150264761Y-80510476D02*
X150312380Y-80367619D01*
X150312380Y-80129523D01*
X150264761Y-80034285D01*
X150217142Y-79986666D01*
X150121904Y-79939047D01*
X150026666Y-79939047D01*
X149931428Y-79986666D01*
X149883809Y-80034285D01*
X149836190Y-80129523D01*
X149788571Y-80320000D01*
X149740952Y-80415238D01*
X149693333Y-80462857D01*
X149598095Y-80510476D01*
X149502857Y-80510476D01*
X149407619Y-80462857D01*
X149360000Y-80415238D01*
X149312380Y-80320000D01*
X149312380Y-80081904D01*
X149360000Y-79939047D01*
X149312380Y-79510476D02*
X150121904Y-79510476D01*
X150217142Y-79462857D01*
X150264761Y-79415238D01*
X150312380Y-79320000D01*
X150312380Y-79129523D01*
X150264761Y-79034285D01*
X150217142Y-78986666D01*
X150121904Y-78939047D01*
X149312380Y-78939047D01*
X143327380Y-99401190D02*
X142327380Y-99401190D01*
X142422619Y-98972619D02*
X142375000Y-98925000D01*
X142327380Y-98829761D01*
X142327380Y-98591666D01*
X142375000Y-98496428D01*
X142422619Y-98448809D01*
X142517857Y-98401190D01*
X142613095Y-98401190D01*
X142755952Y-98448809D01*
X143327380Y-99020238D01*
X143327380Y-98401190D01*
X143232142Y-97401190D02*
X143279761Y-97448809D01*
X143327380Y-97591666D01*
X143327380Y-97686904D01*
X143279761Y-97829761D01*
X143184523Y-97925000D01*
X143089285Y-97972619D01*
X142898809Y-98020238D01*
X142755952Y-98020238D01*
X142565476Y-97972619D01*
X142470238Y-97925000D01*
X142375000Y-97829761D01*
X142327380Y-97686904D01*
X142327380Y-97591666D01*
X142375000Y-97448809D01*
X142422619Y-97401190D01*
X135707380Y-99401190D02*
X134707380Y-99401190D01*
X134802619Y-98972619D02*
X134755000Y-98925000D01*
X134707380Y-98829761D01*
X134707380Y-98591666D01*
X134755000Y-98496428D01*
X134802619Y-98448809D01*
X134897857Y-98401190D01*
X134993095Y-98401190D01*
X135135952Y-98448809D01*
X135707380Y-99020238D01*
X135707380Y-98401190D01*
X135612142Y-97401190D02*
X135659761Y-97448809D01*
X135707380Y-97591666D01*
X135707380Y-97686904D01*
X135659761Y-97829761D01*
X135564523Y-97925000D01*
X135469285Y-97972619D01*
X135278809Y-98020238D01*
X135135952Y-98020238D01*
X134945476Y-97972619D01*
X134850238Y-97925000D01*
X134755000Y-97829761D01*
X134707380Y-97686904D01*
X134707380Y-97591666D01*
X134755000Y-97448809D01*
X134802619Y-97401190D01*
X128087380Y-99401190D02*
X127087380Y-99401190D01*
X127182619Y-98972619D02*
X127135000Y-98925000D01*
X127087380Y-98829761D01*
X127087380Y-98591666D01*
X127135000Y-98496428D01*
X127182619Y-98448809D01*
X127277857Y-98401190D01*
X127373095Y-98401190D01*
X127515952Y-98448809D01*
X128087380Y-99020238D01*
X128087380Y-98401190D01*
X127992142Y-97401190D02*
X128039761Y-97448809D01*
X128087380Y-97591666D01*
X128087380Y-97686904D01*
X128039761Y-97829761D01*
X127944523Y-97925000D01*
X127849285Y-97972619D01*
X127658809Y-98020238D01*
X127515952Y-98020238D01*
X127325476Y-97972619D01*
X127230238Y-97925000D01*
X127135000Y-97829761D01*
X127087380Y-97686904D01*
X127087380Y-97591666D01*
X127135000Y-97448809D01*
X127182619Y-97401190D01*
X116832142Y-117927380D02*
X116355952Y-117927380D01*
X116355952Y-116927380D01*
X117165476Y-117403571D02*
X117498809Y-117403571D01*
X117641666Y-117927380D02*
X117165476Y-117927380D01*
X117165476Y-116927380D01*
X117641666Y-116927380D01*
X118070238Y-117927380D02*
X118070238Y-116927380D01*
X118308333Y-116927380D01*
X118451190Y-116975000D01*
X118546428Y-117070238D01*
X118594047Y-117165476D01*
X118641666Y-117355952D01*
X118641666Y-117498809D01*
X118594047Y-117689285D01*
X118546428Y-117784523D01*
X118451190Y-117879761D01*
X118308333Y-117927380D01*
X118070238Y-117927380D01*
X138835000Y-91844761D02*
X138977857Y-91892380D01*
X139215952Y-91892380D01*
X139311190Y-91844761D01*
X139358809Y-91797142D01*
X139406428Y-91701904D01*
X139406428Y-91606666D01*
X139358809Y-91511428D01*
X139311190Y-91463809D01*
X139215952Y-91416190D01*
X139025476Y-91368571D01*
X138930238Y-91320952D01*
X138882619Y-91273333D01*
X138835000Y-91178095D01*
X138835000Y-91082857D01*
X138882619Y-90987619D01*
X138930238Y-90940000D01*
X139025476Y-90892380D01*
X139263571Y-90892380D01*
X139406428Y-90940000D01*
X139835000Y-91892380D02*
X139835000Y-90892380D01*
X140215952Y-90892380D01*
X140311190Y-90940000D01*
X140358809Y-90987619D01*
X140406428Y-91082857D01*
X140406428Y-91225714D01*
X140358809Y-91320952D01*
X140311190Y-91368571D01*
X140215952Y-91416190D01*
X139835000Y-91416190D01*
X140835000Y-91892380D02*
X140835000Y-90892380D01*
X141835000Y-91892380D02*
X141263571Y-91892380D01*
X141549285Y-91892380D02*
X141549285Y-90892380D01*
X141454047Y-91035238D01*
X141358809Y-91130476D01*
X141263571Y-91178095D01*
X138835000Y-84224761D02*
X138977857Y-84272380D01*
X139215952Y-84272380D01*
X139311190Y-84224761D01*
X139358809Y-84177142D01*
X139406428Y-84081904D01*
X139406428Y-83986666D01*
X139358809Y-83891428D01*
X139311190Y-83843809D01*
X139215952Y-83796190D01*
X139025476Y-83748571D01*
X138930238Y-83700952D01*
X138882619Y-83653333D01*
X138835000Y-83558095D01*
X138835000Y-83462857D01*
X138882619Y-83367619D01*
X138930238Y-83320000D01*
X139025476Y-83272380D01*
X139263571Y-83272380D01*
X139406428Y-83320000D01*
X139835000Y-84272380D02*
X139835000Y-83272380D01*
X140215952Y-83272380D01*
X140311190Y-83320000D01*
X140358809Y-83367619D01*
X140406428Y-83462857D01*
X140406428Y-83605714D01*
X140358809Y-83700952D01*
X140311190Y-83748571D01*
X140215952Y-83796190D01*
X139835000Y-83796190D01*
X140835000Y-84272380D02*
X140835000Y-83272380D01*
X141501666Y-83272380D02*
X141596904Y-83272380D01*
X141692142Y-83320000D01*
X141739761Y-83367619D01*
X141787380Y-83462857D01*
X141835000Y-83653333D01*
X141835000Y-83891428D01*
X141787380Y-84081904D01*
X141739761Y-84177142D01*
X141692142Y-84224761D01*
X141596904Y-84272380D01*
X141501666Y-84272380D01*
X141406428Y-84224761D01*
X141358809Y-84177142D01*
X141311190Y-84081904D01*
X141263571Y-83891428D01*
X141263571Y-83653333D01*
X141311190Y-83462857D01*
X141358809Y-83367619D01*
X141406428Y-83320000D01*
X141501666Y-83272380D01*
X114609761Y-85812380D02*
X114609761Y-86621904D01*
X114657380Y-86717142D01*
X114705000Y-86764761D01*
X114800238Y-86812380D01*
X114990714Y-86812380D01*
X115085952Y-86764761D01*
X115133571Y-86717142D01*
X115181190Y-86621904D01*
X115181190Y-85812380D01*
X115609761Y-86526666D02*
X116085952Y-86526666D01*
X115514523Y-86812380D02*
X115847857Y-85812380D01*
X116181190Y-86812380D01*
X117085952Y-86812380D02*
X116752619Y-86336190D01*
X116514523Y-86812380D02*
X116514523Y-85812380D01*
X116895476Y-85812380D01*
X116990714Y-85860000D01*
X117038333Y-85907619D01*
X117085952Y-86002857D01*
X117085952Y-86145714D01*
X117038333Y-86240952D01*
X116990714Y-86288571D01*
X116895476Y-86336190D01*
X116514523Y-86336190D01*
X117371666Y-85812380D02*
X117943095Y-85812380D01*
X117657380Y-86812380D02*
X117657380Y-85812380D01*
D12*
X146280476Y-122132380D02*
X145947142Y-121656190D01*
X145709047Y-122132380D02*
X145709047Y-121132380D01*
X146090000Y-121132380D01*
X146185238Y-121180000D01*
X146232857Y-121227619D01*
X146280476Y-121322857D01*
X146280476Y-121465714D01*
X146232857Y-121560952D01*
X146185238Y-121608571D01*
X146090000Y-121656190D01*
X145709047Y-121656190D01*
X147090000Y-122084761D02*
X146994761Y-122132380D01*
X146804285Y-122132380D01*
X146709047Y-122084761D01*
X146661428Y-121989523D01*
X146661428Y-121608571D01*
X146709047Y-121513333D01*
X146804285Y-121465714D01*
X146994761Y-121465714D01*
X147090000Y-121513333D01*
X147137619Y-121608571D01*
X147137619Y-121703809D01*
X146661428Y-121799047D01*
X147470952Y-121465714D02*
X147709047Y-122132380D01*
X147947142Y-121465714D01*
X148328095Y-122037142D02*
X148375714Y-122084761D01*
X148328095Y-122132380D01*
X148280476Y-122084761D01*
X148328095Y-122037142D01*
X148328095Y-122132380D01*
X150090000Y-122132380D02*
X149518571Y-122132380D01*
X149804285Y-122132380D02*
X149804285Y-121132380D01*
X149709047Y-121275238D01*
X149613809Y-121370476D01*
X149518571Y-121418095D01*
X150518571Y-122037142D02*
X150566190Y-122084761D01*
X150518571Y-122132380D01*
X150470952Y-122084761D01*
X150518571Y-122037142D01*
X150518571Y-122132380D01*
X151185238Y-121132380D02*
X151280476Y-121132380D01*
X151375714Y-121180000D01*
X151423333Y-121227619D01*
X151470952Y-121322857D01*
X151518571Y-121513333D01*
X151518571Y-121751428D01*
X151470952Y-121941904D01*
X151423333Y-122037142D01*
X151375714Y-122084761D01*
X151280476Y-122132380D01*
X151185238Y-122132380D01*
X151090000Y-122084761D01*
X151042380Y-122037142D01*
X150994761Y-121941904D01*
X150947142Y-121751428D01*
X150947142Y-121513333D01*
X150994761Y-121322857D01*
X151042380Y-121227619D01*
X151090000Y-121180000D01*
X151185238Y-121132380D01*
X144018571Y-123882380D02*
X144018571Y-122882380D01*
X144256666Y-122882380D01*
X144399523Y-122930000D01*
X144494761Y-123025238D01*
X144542380Y-123120476D01*
X144590000Y-123310952D01*
X144590000Y-123453809D01*
X144542380Y-123644285D01*
X144494761Y-123739523D01*
X144399523Y-123834761D01*
X144256666Y-123882380D01*
X144018571Y-123882380D01*
X145018571Y-123882380D02*
X145018571Y-122882380D01*
X145256666Y-122882380D01*
X145399523Y-122930000D01*
X145494761Y-123025238D01*
X145542380Y-123120476D01*
X145590000Y-123310952D01*
X145590000Y-123453809D01*
X145542380Y-123644285D01*
X145494761Y-123739523D01*
X145399523Y-123834761D01*
X145256666Y-123882380D01*
X145018571Y-123882380D01*
X145970952Y-122977619D02*
X146018571Y-122930000D01*
X146113809Y-122882380D01*
X146351904Y-122882380D01*
X146447142Y-122930000D01*
X146494761Y-122977619D01*
X146542380Y-123072857D01*
X146542380Y-123168095D01*
X146494761Y-123310952D01*
X145923333Y-123882380D01*
X146542380Y-123882380D01*
X147161428Y-122882380D02*
X147256666Y-122882380D01*
X147351904Y-122930000D01*
X147399523Y-122977619D01*
X147447142Y-123072857D01*
X147494761Y-123263333D01*
X147494761Y-123501428D01*
X147447142Y-123691904D01*
X147399523Y-123787142D01*
X147351904Y-123834761D01*
X147256666Y-123882380D01*
X147161428Y-123882380D01*
X147066190Y-123834761D01*
X147018571Y-123787142D01*
X146970952Y-123691904D01*
X146923333Y-123501428D01*
X146923333Y-123263333D01*
X146970952Y-123072857D01*
X147018571Y-122977619D01*
X147066190Y-122930000D01*
X147161428Y-122882380D01*
X147875714Y-122977619D02*
X147923333Y-122930000D01*
X148018571Y-122882380D01*
X148256666Y-122882380D01*
X148351904Y-122930000D01*
X148399523Y-122977619D01*
X148447142Y-123072857D01*
X148447142Y-123168095D01*
X148399523Y-123310952D01*
X147828095Y-123882380D01*
X148447142Y-123882380D01*
X149066190Y-122882380D02*
X149161428Y-122882380D01*
X149256666Y-122930000D01*
X149304285Y-122977619D01*
X149351904Y-123072857D01*
X149399523Y-123263333D01*
X149399523Y-123501428D01*
X149351904Y-123691904D01*
X149304285Y-123787142D01*
X149256666Y-123834761D01*
X149161428Y-123882380D01*
X149066190Y-123882380D01*
X148970952Y-123834761D01*
X148923333Y-123787142D01*
X148875714Y-123691904D01*
X148828095Y-123501428D01*
X148828095Y-123263333D01*
X148875714Y-123072857D01*
X148923333Y-122977619D01*
X148970952Y-122930000D01*
X149066190Y-122882380D01*
X150018571Y-122882380D02*
X150113809Y-122882380D01*
X150209047Y-122930000D01*
X150256666Y-122977619D01*
X150304285Y-123072857D01*
X150351904Y-123263333D01*
X150351904Y-123501428D01*
X150304285Y-123691904D01*
X150256666Y-123787142D01*
X150209047Y-123834761D01*
X150113809Y-123882380D01*
X150018571Y-123882380D01*
X149923333Y-123834761D01*
X149875714Y-123787142D01*
X149828095Y-123691904D01*
X149780476Y-123501428D01*
X149780476Y-123263333D01*
X149828095Y-123072857D01*
X149875714Y-122977619D01*
X149923333Y-122930000D01*
X150018571Y-122882380D01*
X151304285Y-123882380D02*
X150732857Y-123882380D01*
X151018571Y-123882380D02*
X151018571Y-122882380D01*
X150923333Y-123025238D01*
X150828095Y-123120476D01*
X150732857Y-123168095D01*
X151685238Y-122977619D02*
X151732857Y-122930000D01*
X151828095Y-122882380D01*
X152066190Y-122882380D01*
X152161428Y-122930000D01*
X152209047Y-122977619D01*
X152256666Y-123072857D01*
X152256666Y-123168095D01*
X152209047Y-123310952D01*
X151637619Y-123882380D01*
X152256666Y-123882380D01*
X152828095Y-123310952D02*
X152732857Y-123263333D01*
X152685238Y-123215714D01*
X152637619Y-123120476D01*
X152637619Y-123072857D01*
X152685238Y-122977619D01*
X152732857Y-122930000D01*
X152828095Y-122882380D01*
X153018571Y-122882380D01*
X153113809Y-122930000D01*
X153161428Y-122977619D01*
X153209047Y-123072857D01*
X153209047Y-123120476D01*
X153161428Y-123215714D01*
X153113809Y-123263333D01*
X153018571Y-123310952D01*
X152828095Y-123310952D01*
X152732857Y-123358571D01*
X152685238Y-123406190D01*
X152637619Y-123501428D01*
X152637619Y-123691904D01*
X152685238Y-123787142D01*
X152732857Y-123834761D01*
X152828095Y-123882380D01*
X153018571Y-123882380D01*
X153113809Y-123834761D01*
X153161428Y-123787142D01*
X153209047Y-123691904D01*
X153209047Y-123501428D01*
X153161428Y-123406190D01*
X153113809Y-123358571D01*
X153018571Y-123310952D01*
D13*
X119913400Y-107977000D02*
X119913400Y-107907000D01*
X121283400Y-109347000D02*
G75*
G03X121283400Y-109347000I-1370000J0D01*
G01*
X113563400Y-108027800D02*
X113563400Y-107957800D01*
X114933400Y-109397800D02*
G75*
G03X114933400Y-109397800I-1370000J0D01*
G01*
X107162600Y-108027800D02*
X107162600Y-107957800D01*
X108532600Y-109397800D02*
G75*
G03X108532600Y-109397800I-1370000J0D01*
G01*
D14*
G36*
X112780286Y-86129252D02*
G01*
X112784421Y-86266860D01*
X112787351Y-86480735D01*
X112789151Y-86758216D01*
X112789891Y-87086639D01*
X112789646Y-87453344D01*
X112788489Y-87845669D01*
X112786491Y-88250951D01*
X112783726Y-88656528D01*
X112780267Y-89049739D01*
X112776186Y-89417921D01*
X112771557Y-89748413D01*
X112766451Y-90028553D01*
X112760943Y-90245679D01*
X112755105Y-90387128D01*
X112749804Y-90438804D01*
X112682394Y-90483469D01*
X112532300Y-90492889D01*
X112522786Y-90492372D01*
X112318800Y-90480336D01*
X112318800Y-88737668D01*
X112318267Y-88328364D01*
X112316753Y-87953249D01*
X112314384Y-87623937D01*
X112311288Y-87352038D01*
X112307590Y-87149164D01*
X112303417Y-87026928D01*
X112299798Y-86995000D01*
X112248456Y-87017633D01*
X112138047Y-87075497D01*
X112055938Y-87120675D01*
X111750615Y-87272579D01*
X111432747Y-87389561D01*
X111082296Y-87476154D01*
X110679225Y-87536887D01*
X110203496Y-87576294D01*
X109994700Y-87586828D01*
X109220000Y-87620347D01*
X109220000Y-87881200D01*
X109255867Y-88236925D01*
X109356735Y-88632441D01*
X109512503Y-89039114D01*
X109713069Y-89428308D01*
X109830899Y-89613088D01*
X110128337Y-89976748D01*
X110507767Y-90331403D01*
X110949736Y-90662466D01*
X111434790Y-90955347D01*
X111938295Y-91193353D01*
X112133782Y-91270363D01*
X112290780Y-91318743D01*
X112430820Y-91335931D01*
X112575432Y-91319364D01*
X112746146Y-91266480D01*
X112964494Y-91174717D01*
X113252006Y-91041512D01*
X113264828Y-91035484D01*
X113878469Y-90702555D01*
X114404482Y-90322614D01*
X114841797Y-89897007D01*
X115189340Y-89427077D01*
X115446038Y-88914172D01*
X115610819Y-88359636D01*
X115662983Y-88027462D01*
X115681391Y-87806904D01*
X115688945Y-87598801D01*
X115684200Y-87445480D01*
X115683200Y-87436475D01*
X115659778Y-87242950D01*
X116154200Y-87274400D01*
X116146467Y-87719491D01*
X116086499Y-88342715D01*
X115930402Y-88936536D01*
X115680734Y-89495709D01*
X115340053Y-90014991D01*
X114910917Y-90489138D01*
X114706310Y-90672386D01*
X114581857Y-90781612D01*
X114499009Y-90862716D01*
X114476149Y-90896482D01*
X114552464Y-90924663D01*
X114701886Y-90947483D01*
X114895985Y-90963217D01*
X115106333Y-90970139D01*
X115304503Y-90966523D01*
X115436086Y-90954754D01*
X115807301Y-90873814D01*
X116125746Y-90735382D01*
X116430576Y-90521575D01*
X116484519Y-90475875D01*
X116686849Y-90320678D01*
X116923271Y-90167843D01*
X117094000Y-90074977D01*
X117239506Y-90007640D01*
X117361633Y-89962592D01*
X117487077Y-89935370D01*
X117642539Y-89921513D01*
X117854715Y-89916559D01*
X118045277Y-89916000D01*
X118306035Y-89916791D01*
X118485859Y-89921747D01*
X118605414Y-89934740D01*
X118685365Y-89959644D01*
X118746377Y-90000333D01*
X118807277Y-90058813D01*
X118948200Y-90201627D01*
X118795800Y-90160413D01*
X118673683Y-90141892D01*
X118485680Y-90129533D01*
X118267422Y-90125440D01*
X118211600Y-90125965D01*
X117761855Y-90167286D01*
X117368773Y-90281964D01*
X117010493Y-90478881D01*
X116687600Y-90745292D01*
X116576485Y-90829541D01*
X116409353Y-90931944D01*
X116230400Y-91026292D01*
X116081228Y-91095453D01*
X115956265Y-91141127D01*
X115827511Y-91168162D01*
X115666966Y-91181403D01*
X115446629Y-91185695D01*
X115307556Y-91186000D01*
X115047496Y-91184209D01*
X114866758Y-91176568D01*
X114743095Y-91159675D01*
X114654260Y-91130125D01*
X114578002Y-91084516D01*
X114560313Y-91071700D01*
X114445687Y-90992334D01*
X114362787Y-90966788D01*
X114273549Y-90996325D01*
X114139910Y-91082210D01*
X114134573Y-91085836D01*
X113942967Y-91202852D01*
X113689542Y-91339652D01*
X113407448Y-91479921D01*
X113129839Y-91607347D01*
X112889866Y-91705615D01*
X112835104Y-91725281D01*
X112545775Y-91800048D01*
X112286376Y-91804284D01*
X112014059Y-91736712D01*
X111912400Y-91697760D01*
X111364061Y-91446543D01*
X110811049Y-91143142D01*
X110783701Y-91126761D01*
X110493203Y-90951989D01*
X110342803Y-91063185D01*
X110247291Y-91119742D01*
X110126873Y-91157650D01*
X109955905Y-91182449D01*
X109711745Y-91199522D01*
X109294508Y-91198032D01*
X108938948Y-91139957D01*
X108617170Y-91016655D01*
X108301276Y-90819489D01*
X108178600Y-90724713D01*
X107750687Y-90425876D01*
X107326087Y-90225700D01*
X106897384Y-90121815D01*
X106457165Y-90111850D01*
X106312503Y-90128132D01*
X106136725Y-90151750D01*
X106043062Y-90156490D01*
X106013280Y-90139337D01*
X106029140Y-90097279D01*
X106037949Y-90082762D01*
X106153676Y-89988413D01*
X106359727Y-89926710D01*
X106649805Y-89898880D01*
X106959400Y-89902862D01*
X107328843Y-89940792D01*
X107644704Y-90021853D01*
X107939453Y-90158781D01*
X108245564Y-90364313D01*
X108356352Y-90450763D01*
X108560388Y-90601377D01*
X108774467Y-90738282D01*
X108962152Y-90838793D01*
X109016752Y-90861893D01*
X109271770Y-90929171D01*
X109582152Y-90968294D01*
X109904884Y-90976496D01*
X110196953Y-90951013D01*
X110250077Y-90941183D01*
X110441955Y-90901479D01*
X110141369Y-90650315D01*
X109795057Y-90313376D01*
X109473378Y-89910547D01*
X109195818Y-89471101D01*
X108981863Y-89024309D01*
X108896716Y-88780536D01*
X108829736Y-88506407D01*
X108776132Y-88194253D01*
X108739908Y-87878447D01*
X108725066Y-87593362D01*
X108734139Y-87384501D01*
X108766937Y-87122000D01*
X109641168Y-87118324D01*
X110100251Y-87110529D01*
X110478486Y-87089524D01*
X110796091Y-87052496D01*
X111073284Y-86996631D01*
X111330284Y-86919115D01*
X111479657Y-86862480D01*
X111786501Y-86719724D01*
X112113704Y-86537064D01*
X112416310Y-86340787D01*
X112571674Y-86223935D01*
X112683601Y-86137504D01*
X112760138Y-86086451D01*
X112774874Y-86080573D01*
X112780286Y-86129252D01*
G37*
X112780286Y-86129252D02*
X112784421Y-86266860D01*
X112787351Y-86480735D01*
X112789151Y-86758216D01*
X112789891Y-87086639D01*
X112789646Y-87453344D01*
X112788489Y-87845669D01*
X112786491Y-88250951D01*
X112783726Y-88656528D01*
X112780267Y-89049739D01*
X112776186Y-89417921D01*
X112771557Y-89748413D01*
X112766451Y-90028553D01*
X112760943Y-90245679D01*
X112755105Y-90387128D01*
X112749804Y-90438804D01*
X112682394Y-90483469D01*
X112532300Y-90492889D01*
X112522786Y-90492372D01*
X112318800Y-90480336D01*
X112318800Y-88737668D01*
X112318267Y-88328364D01*
X112316753Y-87953249D01*
X112314384Y-87623937D01*
X112311288Y-87352038D01*
X112307590Y-87149164D01*
X112303417Y-87026928D01*
X112299798Y-86995000D01*
X112248456Y-87017633D01*
X112138047Y-87075497D01*
X112055938Y-87120675D01*
X111750615Y-87272579D01*
X111432747Y-87389561D01*
X111082296Y-87476154D01*
X110679225Y-87536887D01*
X110203496Y-87576294D01*
X109994700Y-87586828D01*
X109220000Y-87620347D01*
X109220000Y-87881200D01*
X109255867Y-88236925D01*
X109356735Y-88632441D01*
X109512503Y-89039114D01*
X109713069Y-89428308D01*
X109830899Y-89613088D01*
X110128337Y-89976748D01*
X110507767Y-90331403D01*
X110949736Y-90662466D01*
X111434790Y-90955347D01*
X111938295Y-91193353D01*
X112133782Y-91270363D01*
X112290780Y-91318743D01*
X112430820Y-91335931D01*
X112575432Y-91319364D01*
X112746146Y-91266480D01*
X112964494Y-91174717D01*
X113252006Y-91041512D01*
X113264828Y-91035484D01*
X113878469Y-90702555D01*
X114404482Y-90322614D01*
X114841797Y-89897007D01*
X115189340Y-89427077D01*
X115446038Y-88914172D01*
X115610819Y-88359636D01*
X115662983Y-88027462D01*
X115681391Y-87806904D01*
X115688945Y-87598801D01*
X115684200Y-87445480D01*
X115683200Y-87436475D01*
X115659778Y-87242950D01*
X116154200Y-87274400D01*
X116146467Y-87719491D01*
X116086499Y-88342715D01*
X115930402Y-88936536D01*
X115680734Y-89495709D01*
X115340053Y-90014991D01*
X114910917Y-90489138D01*
X114706310Y-90672386D01*
X114581857Y-90781612D01*
X114499009Y-90862716D01*
X114476149Y-90896482D01*
X114552464Y-90924663D01*
X114701886Y-90947483D01*
X114895985Y-90963217D01*
X115106333Y-90970139D01*
X115304503Y-90966523D01*
X115436086Y-90954754D01*
X115807301Y-90873814D01*
X116125746Y-90735382D01*
X116430576Y-90521575D01*
X116484519Y-90475875D01*
X116686849Y-90320678D01*
X116923271Y-90167843D01*
X117094000Y-90074977D01*
X117239506Y-90007640D01*
X117361633Y-89962592D01*
X117487077Y-89935370D01*
X117642539Y-89921513D01*
X117854715Y-89916559D01*
X118045277Y-89916000D01*
X118306035Y-89916791D01*
X118485859Y-89921747D01*
X118605414Y-89934740D01*
X118685365Y-89959644D01*
X118746377Y-90000333D01*
X118807277Y-90058813D01*
X118948200Y-90201627D01*
X118795800Y-90160413D01*
X118673683Y-90141892D01*
X118485680Y-90129533D01*
X118267422Y-90125440D01*
X118211600Y-90125965D01*
X117761855Y-90167286D01*
X117368773Y-90281964D01*
X117010493Y-90478881D01*
X116687600Y-90745292D01*
X116576485Y-90829541D01*
X116409353Y-90931944D01*
X116230400Y-91026292D01*
X116081228Y-91095453D01*
X115956265Y-91141127D01*
X115827511Y-91168162D01*
X115666966Y-91181403D01*
X115446629Y-91185695D01*
X115307556Y-91186000D01*
X115047496Y-91184209D01*
X114866758Y-91176568D01*
X114743095Y-91159675D01*
X114654260Y-91130125D01*
X114578002Y-91084516D01*
X114560313Y-91071700D01*
X114445687Y-90992334D01*
X114362787Y-90966788D01*
X114273549Y-90996325D01*
X114139910Y-91082210D01*
X114134573Y-91085836D01*
X113942967Y-91202852D01*
X113689542Y-91339652D01*
X113407448Y-91479921D01*
X113129839Y-91607347D01*
X112889866Y-91705615D01*
X112835104Y-91725281D01*
X112545775Y-91800048D01*
X112286376Y-91804284D01*
X112014059Y-91736712D01*
X111912400Y-91697760D01*
X111364061Y-91446543D01*
X110811049Y-91143142D01*
X110783701Y-91126761D01*
X110493203Y-90951989D01*
X110342803Y-91063185D01*
X110247291Y-91119742D01*
X110126873Y-91157650D01*
X109955905Y-91182449D01*
X109711745Y-91199522D01*
X109294508Y-91198032D01*
X108938948Y-91139957D01*
X108617170Y-91016655D01*
X108301276Y-90819489D01*
X108178600Y-90724713D01*
X107750687Y-90425876D01*
X107326087Y-90225700D01*
X106897384Y-90121815D01*
X106457165Y-90111850D01*
X106312503Y-90128132D01*
X106136725Y-90151750D01*
X106043062Y-90156490D01*
X106013280Y-90139337D01*
X106029140Y-90097279D01*
X106037949Y-90082762D01*
X106153676Y-89988413D01*
X106359727Y-89926710D01*
X106649805Y-89898880D01*
X106959400Y-89902862D01*
X107328843Y-89940792D01*
X107644704Y-90021853D01*
X107939453Y-90158781D01*
X108245564Y-90364313D01*
X108356352Y-90450763D01*
X108560388Y-90601377D01*
X108774467Y-90738282D01*
X108962152Y-90838793D01*
X109016752Y-90861893D01*
X109271770Y-90929171D01*
X109582152Y-90968294D01*
X109904884Y-90976496D01*
X110196953Y-90951013D01*
X110250077Y-90941183D01*
X110441955Y-90901479D01*
X110141369Y-90650315D01*
X109795057Y-90313376D01*
X109473378Y-89910547D01*
X109195818Y-89471101D01*
X108981863Y-89024309D01*
X108896716Y-88780536D01*
X108829736Y-88506407D01*
X108776132Y-88194253D01*
X108739908Y-87878447D01*
X108725066Y-87593362D01*
X108734139Y-87384501D01*
X108766937Y-87122000D01*
X109641168Y-87118324D01*
X110100251Y-87110529D01*
X110478486Y-87089524D01*
X110796091Y-87052496D01*
X111073284Y-86996631D01*
X111330284Y-86919115D01*
X111479657Y-86862480D01*
X111786501Y-86719724D01*
X112113704Y-86537064D01*
X112416310Y-86340787D01*
X112571674Y-86223935D01*
X112683601Y-86137504D01*
X112760138Y-86086451D01*
X112774874Y-86080573D01*
X112780286Y-86129252D01*
G36*
X118971308Y-91140741D02*
G01*
X119194630Y-91165829D01*
X119347757Y-91209844D01*
X119350848Y-91211400D01*
X119464135Y-91277180D01*
X119505314Y-91325176D01*
X119468221Y-91357872D01*
X119346693Y-91377756D01*
X119134568Y-91387313D01*
X118910046Y-91389200D01*
X118643740Y-91390636D01*
X118452379Y-91397910D01*
X118309314Y-91415470D01*
X118187899Y-91447763D01*
X118061488Y-91499238D01*
X117957600Y-91548177D01*
X117735931Y-91671874D01*
X117501849Y-91828521D01*
X117348119Y-91949075D01*
X117119172Y-92132793D01*
X116909933Y-92260394D01*
X116691405Y-92342237D01*
X116434593Y-92388678D01*
X116110501Y-92410072D01*
X116052600Y-92411807D01*
X115807345Y-92413625D01*
X115584681Y-92406834D01*
X115413462Y-92392773D01*
X115337268Y-92378604D01*
X115191416Y-92308034D01*
X115083268Y-92220192D01*
X115018980Y-92143083D01*
X115028919Y-92124295D01*
X115112800Y-92144121D01*
X115408819Y-92196630D01*
X115748316Y-92214500D01*
X116078680Y-92196093D01*
X116198141Y-92177894D01*
X116398501Y-92128631D01*
X116593339Y-92052838D01*
X116802433Y-91939792D01*
X117045561Y-91778773D01*
X117342501Y-91559061D01*
X117349169Y-91553960D01*
X117564762Y-91408853D01*
X117792830Y-91287044D01*
X117950949Y-91224341D01*
X118167612Y-91176380D01*
X118429055Y-91146282D01*
X118706535Y-91134314D01*
X118971308Y-91140741D01*
G37*
X118971308Y-91140741D02*
X119194630Y-91165829D01*
X119347757Y-91209844D01*
X119350848Y-91211400D01*
X119464135Y-91277180D01*
X119505314Y-91325176D01*
X119468221Y-91357872D01*
X119346693Y-91377756D01*
X119134568Y-91387313D01*
X118910046Y-91389200D01*
X118643740Y-91390636D01*
X118452379Y-91397910D01*
X118309314Y-91415470D01*
X118187899Y-91447763D01*
X118061488Y-91499238D01*
X117957600Y-91548177D01*
X117735931Y-91671874D01*
X117501849Y-91828521D01*
X117348119Y-91949075D01*
X117119172Y-92132793D01*
X116909933Y-92260394D01*
X116691405Y-92342237D01*
X116434593Y-92388678D01*
X116110501Y-92410072D01*
X116052600Y-92411807D01*
X115807345Y-92413625D01*
X115584681Y-92406834D01*
X115413462Y-92392773D01*
X115337268Y-92378604D01*
X115191416Y-92308034D01*
X115083268Y-92220192D01*
X115018980Y-92143083D01*
X115028919Y-92124295D01*
X115112800Y-92144121D01*
X115408819Y-92196630D01*
X115748316Y-92214500D01*
X116078680Y-92196093D01*
X116198141Y-92177894D01*
X116398501Y-92128631D01*
X116593339Y-92052838D01*
X116802433Y-91939792D01*
X117045561Y-91778773D01*
X117342501Y-91559061D01*
X117349169Y-91553960D01*
X117564762Y-91408853D01*
X117792830Y-91287044D01*
X117950949Y-91224341D01*
X118167612Y-91176380D01*
X118429055Y-91146282D01*
X118706535Y-91134314D01*
X118971308Y-91140741D01*
G36*
X106470766Y-91137976D02*
G01*
X106790969Y-91196390D01*
X107090137Y-91287751D01*
X107345803Y-91409740D01*
X107461051Y-91490119D01*
X107768033Y-91733895D01*
X108021865Y-91915787D01*
X108242481Y-92044487D01*
X108449817Y-92128690D01*
X108663807Y-92177088D01*
X108904384Y-92198375D01*
X109093000Y-92201800D01*
X109316203Y-92197594D01*
X109515608Y-92186205D01*
X109658336Y-92169776D01*
X109689900Y-92162932D01*
X109798408Y-92149658D01*
X109825530Y-92184846D01*
X109771076Y-92255887D01*
X109692182Y-92315097D01*
X109553432Y-92367927D01*
X109341351Y-92404136D01*
X109082910Y-92423298D01*
X108805079Y-92424984D01*
X108534830Y-92408768D01*
X108299132Y-92374222D01*
X108169988Y-92339207D01*
X107988857Y-92256512D01*
X107780924Y-92135038D01*
X107617572Y-92020690D01*
X107384097Y-91841199D01*
X107208190Y-91712581D01*
X107068389Y-91621863D01*
X106943229Y-91556072D01*
X106811245Y-91502234D01*
X106690866Y-91460563D01*
X106514749Y-91408796D01*
X106347204Y-91378769D01*
X106154266Y-91366994D01*
X105901970Y-91369978D01*
X105832674Y-91372359D01*
X105298910Y-91392117D01*
X105428997Y-91280221D01*
X105608646Y-91183633D01*
X105857136Y-91129277D01*
X106151999Y-91114831D01*
X106470766Y-91137976D01*
G37*
X106470766Y-91137976D02*
X106790969Y-91196390D01*
X107090137Y-91287751D01*
X107345803Y-91409740D01*
X107461051Y-91490119D01*
X107768033Y-91733895D01*
X108021865Y-91915787D01*
X108242481Y-92044487D01*
X108449817Y-92128690D01*
X108663807Y-92177088D01*
X108904384Y-92198375D01*
X109093000Y-92201800D01*
X109316203Y-92197594D01*
X109515608Y-92186205D01*
X109658336Y-92169776D01*
X109689900Y-92162932D01*
X109798408Y-92149658D01*
X109825530Y-92184846D01*
X109771076Y-92255887D01*
X109692182Y-92315097D01*
X109553432Y-92367927D01*
X109341351Y-92404136D01*
X109082910Y-92423298D01*
X108805079Y-92424984D01*
X108534830Y-92408768D01*
X108299132Y-92374222D01*
X108169988Y-92339207D01*
X107988857Y-92256512D01*
X107780924Y-92135038D01*
X107617572Y-92020690D01*
X107384097Y-91841199D01*
X107208190Y-91712581D01*
X107068389Y-91621863D01*
X106943229Y-91556072D01*
X106811245Y-91502234D01*
X106690866Y-91460563D01*
X106514749Y-91408796D01*
X106347204Y-91378769D01*
X106154266Y-91366994D01*
X105901970Y-91369978D01*
X105832674Y-91372359D01*
X105298910Y-91392117D01*
X105428997Y-91280221D01*
X105608646Y-91183633D01*
X105857136Y-91129277D01*
X106151999Y-91114831D01*
X106470766Y-91137976D01*
G36*
X110815206Y-92328250D02*
G01*
X110934519Y-92412029D01*
X111289649Y-92659331D01*
X111641869Y-92827875D01*
X112026949Y-92932848D01*
X112238265Y-92965656D01*
X112611785Y-92969062D01*
X113011469Y-92898141D01*
X113406054Y-92762377D01*
X113764276Y-92571255D01*
X113924765Y-92453994D01*
X114053596Y-92361224D01*
X114144147Y-92321009D01*
X114172612Y-92328373D01*
X114188436Y-92378612D01*
X114162647Y-92433992D01*
X114082201Y-92508197D01*
X113934051Y-92614911D01*
X113837034Y-92680380D01*
X113410989Y-92910218D01*
X112960084Y-93044242D01*
X112471978Y-93086069D01*
X112453148Y-93085897D01*
X112228697Y-93077717D01*
X112017717Y-93060828D01*
X111861398Y-93038661D01*
X111846282Y-93035347D01*
X111536478Y-92930577D01*
X111216924Y-92769261D01*
X110937261Y-92577285D01*
X110888789Y-92535983D01*
X110762901Y-92408348D01*
X110711122Y-92324548D01*
X110729781Y-92294532D01*
X110815206Y-92328250D01*
G37*
X110815206Y-92328250D02*
X110934519Y-92412029D01*
X111289649Y-92659331D01*
X111641869Y-92827875D01*
X112026949Y-92932848D01*
X112238265Y-92965656D01*
X112611785Y-92969062D01*
X113011469Y-92898141D01*
X113406054Y-92762377D01*
X113764276Y-92571255D01*
X113924765Y-92453994D01*
X114053596Y-92361224D01*
X114144147Y-92321009D01*
X114172612Y-92328373D01*
X114188436Y-92378612D01*
X114162647Y-92433992D01*
X114082201Y-92508197D01*
X113934051Y-92614911D01*
X113837034Y-92680380D01*
X113410989Y-92910218D01*
X112960084Y-93044242D01*
X112471978Y-93086069D01*
X112453148Y-93085897D01*
X112228697Y-93077717D01*
X112017717Y-93060828D01*
X111861398Y-93038661D01*
X111846282Y-93035347D01*
X111536478Y-92930577D01*
X111216924Y-92769261D01*
X110937261Y-92577285D01*
X110888789Y-92535983D01*
X110762901Y-92408348D01*
X110711122Y-92324548D01*
X110729781Y-92294532D01*
X110815206Y-92328250D01*
G36*
X110389434Y-92820564D02*
G01*
X110458998Y-92876067D01*
X110848062Y-93152941D01*
X111294916Y-93360553D01*
X111781457Y-93497186D01*
X112289580Y-93561127D01*
X112801183Y-93550658D01*
X113298162Y-93464066D01*
X113762412Y-93299635D01*
X113944400Y-93206316D01*
X114128894Y-93090957D01*
X114322033Y-92954595D01*
X114385514Y-92905349D01*
X114533896Y-92803480D01*
X114621820Y-92775692D01*
X114644376Y-92810999D01*
X114596656Y-92898413D01*
X114473753Y-93026947D01*
X114449397Y-93048347D01*
X114081017Y-93304474D01*
X113645750Y-93504355D01*
X113164782Y-93642397D01*
X112659299Y-93713011D01*
X112150484Y-93710606D01*
X111999933Y-93694755D01*
X111595033Y-93613900D01*
X111194770Y-93482673D01*
X110824728Y-93312443D01*
X110510494Y-93114578D01*
X110320734Y-92948527D01*
X110233610Y-92833906D01*
X110224956Y-92769689D01*
X110281366Y-92762900D01*
X110389434Y-92820564D01*
G37*
X110389434Y-92820564D02*
X110458998Y-92876067D01*
X110848062Y-93152941D01*
X111294916Y-93360553D01*
X111781457Y-93497186D01*
X112289580Y-93561127D01*
X112801183Y-93550658D01*
X113298162Y-93464066D01*
X113762412Y-93299635D01*
X113944400Y-93206316D01*
X114128894Y-93090957D01*
X114322033Y-92954595D01*
X114385514Y-92905349D01*
X114533896Y-92803480D01*
X114621820Y-92775692D01*
X114644376Y-92810999D01*
X114596656Y-92898413D01*
X114473753Y-93026947D01*
X114449397Y-93048347D01*
X114081017Y-93304474D01*
X113645750Y-93504355D01*
X113164782Y-93642397D01*
X112659299Y-93713011D01*
X112150484Y-93710606D01*
X111999933Y-93694755D01*
X111595033Y-93613900D01*
X111194770Y-93482673D01*
X110824728Y-93312443D01*
X110510494Y-93114578D01*
X110320734Y-92948527D01*
X110233610Y-92833906D01*
X110224956Y-92769689D01*
X110281366Y-92762900D01*
X110389434Y-92820564D01*
G36*
X109901538Y-93275958D02*
G01*
X110013564Y-93361120D01*
X110142501Y-93474662D01*
X110388652Y-93664825D01*
X110703463Y-93848779D01*
X111054449Y-94010734D01*
X111409125Y-94134899D01*
X111598221Y-94182242D01*
X112042202Y-94243292D01*
X112517747Y-94255130D01*
X112980975Y-94218386D01*
X113300266Y-94157736D01*
X113650061Y-94045801D01*
X114009727Y-93889458D01*
X114346010Y-93705589D01*
X114625655Y-93511072D01*
X114700120Y-93447167D01*
X114854531Y-93314083D01*
X114951510Y-93253586D01*
X115000410Y-93261699D01*
X115011200Y-93314892D01*
X114969899Y-93401093D01*
X114858257Y-93521870D01*
X114694661Y-93662307D01*
X114497500Y-93807486D01*
X114285160Y-93942490D01*
X114140061Y-94021586D01*
X113692553Y-94213436D01*
X113237833Y-94336970D01*
X112745712Y-94398811D01*
X112374173Y-94409002D01*
X111960797Y-94394488D01*
X111619024Y-94353402D01*
X111411593Y-94308299D01*
X110993797Y-94171868D01*
X110594575Y-93991163D01*
X110244445Y-93781468D01*
X110040048Y-93621269D01*
X109883781Y-93465980D01*
X109795858Y-93345520D01*
X109780904Y-93268499D01*
X109837031Y-93243400D01*
X109901538Y-93275958D01*
G37*
X109901538Y-93275958D02*
X110013564Y-93361120D01*
X110142501Y-93474662D01*
X110388652Y-93664825D01*
X110703463Y-93848779D01*
X111054449Y-94010734D01*
X111409125Y-94134899D01*
X111598221Y-94182242D01*
X112042202Y-94243292D01*
X112517747Y-94255130D01*
X112980975Y-94218386D01*
X113300266Y-94157736D01*
X113650061Y-94045801D01*
X114009727Y-93889458D01*
X114346010Y-93705589D01*
X114625655Y-93511072D01*
X114700120Y-93447167D01*
X114854531Y-93314083D01*
X114951510Y-93253586D01*
X115000410Y-93261699D01*
X115011200Y-93314892D01*
X114969899Y-93401093D01*
X114858257Y-93521870D01*
X114694661Y-93662307D01*
X114497500Y-93807486D01*
X114285160Y-93942490D01*
X114140061Y-94021586D01*
X113692553Y-94213436D01*
X113237833Y-94336970D01*
X112745712Y-94398811D01*
X112374173Y-94409002D01*
X111960797Y-94394488D01*
X111619024Y-94353402D01*
X111411593Y-94308299D01*
X110993797Y-94171868D01*
X110594575Y-93991163D01*
X110244445Y-93781468D01*
X110040048Y-93621269D01*
X109883781Y-93465980D01*
X109795858Y-93345520D01*
X109780904Y-93268499D01*
X109837031Y-93243400D01*
X109901538Y-93275958D01*
G36*
X109355494Y-93667020D02*
G01*
X109471267Y-93744224D01*
X109644794Y-93893663D01*
X109710176Y-93954123D01*
X110062034Y-94233785D01*
X110483625Y-94474566D01*
X110504049Y-94484482D01*
X110814760Y-94628265D01*
X111082718Y-94734410D01*
X111333971Y-94808294D01*
X111594568Y-94855290D01*
X111890557Y-94880774D01*
X112247985Y-94890119D01*
X112471200Y-94890367D01*
X112786551Y-94888129D01*
X113023779Y-94882492D01*
X113206359Y-94870496D01*
X113357764Y-94849182D01*
X113501471Y-94815591D01*
X113660955Y-94766763D01*
X113787070Y-94724476D01*
X114299468Y-94517217D01*
X114740337Y-94263965D01*
X115134814Y-93949996D01*
X115177542Y-93910090D01*
X115340333Y-93764367D01*
X115448780Y-93689678D01*
X115513729Y-93679132D01*
X115526979Y-93688059D01*
X115539554Y-93765882D01*
X115475925Y-93882355D01*
X115348496Y-94026420D01*
X115169674Y-94187021D01*
X114951865Y-94353102D01*
X114707475Y-94513604D01*
X114448909Y-94657473D01*
X114427000Y-94668419D01*
X113992471Y-94857118D01*
X113559100Y-94986828D01*
X113094826Y-95064994D01*
X112572800Y-95098923D01*
X112317259Y-95103475D01*
X112088769Y-95103675D01*
X111912018Y-95099755D01*
X111811695Y-95091947D01*
X111810800Y-95091783D01*
X111284689Y-94978208D01*
X110838892Y-94846456D01*
X110452687Y-94689040D01*
X110105353Y-94498473D01*
X110024631Y-94446413D01*
X109848107Y-94317693D01*
X109667929Y-94167176D01*
X109502339Y-94012561D01*
X109369577Y-93871549D01*
X109287883Y-93761838D01*
X109270800Y-93714941D01*
X109290873Y-93658457D01*
X109355494Y-93667020D01*
G37*
X109355494Y-93667020D02*
X109471267Y-93744224D01*
X109644794Y-93893663D01*
X109710176Y-93954123D01*
X110062034Y-94233785D01*
X110483625Y-94474566D01*
X110504049Y-94484482D01*
X110814760Y-94628265D01*
X111082718Y-94734410D01*
X111333971Y-94808294D01*
X111594568Y-94855290D01*
X111890557Y-94880774D01*
X112247985Y-94890119D01*
X112471200Y-94890367D01*
X112786551Y-94888129D01*
X113023779Y-94882492D01*
X113206359Y-94870496D01*
X113357764Y-94849182D01*
X113501471Y-94815591D01*
X113660955Y-94766763D01*
X113787070Y-94724476D01*
X114299468Y-94517217D01*
X114740337Y-94263965D01*
X115134814Y-93949996D01*
X115177542Y-93910090D01*
X115340333Y-93764367D01*
X115448780Y-93689678D01*
X115513729Y-93679132D01*
X115526979Y-93688059D01*
X115539554Y-93765882D01*
X115475925Y-93882355D01*
X115348496Y-94026420D01*
X115169674Y-94187021D01*
X114951865Y-94353102D01*
X114707475Y-94513604D01*
X114448909Y-94657473D01*
X114427000Y-94668419D01*
X113992471Y-94857118D01*
X113559100Y-94986828D01*
X113094826Y-95064994D01*
X112572800Y-95098923D01*
X112317259Y-95103475D01*
X112088769Y-95103675D01*
X111912018Y-95099755D01*
X111811695Y-95091947D01*
X111810800Y-95091783D01*
X111284689Y-94978208D01*
X110838892Y-94846456D01*
X110452687Y-94689040D01*
X110105353Y-94498473D01*
X110024631Y-94446413D01*
X109848107Y-94317693D01*
X109667929Y-94167176D01*
X109502339Y-94012561D01*
X109369577Y-93871549D01*
X109287883Y-93761838D01*
X109270800Y-93714941D01*
X109290873Y-93658457D01*
X109355494Y-93667020D01*
G36*
X108907748Y-94119001D02*
G01*
X108996032Y-94178864D01*
X109131682Y-94295742D01*
X109244702Y-94399545D01*
X109629155Y-94723858D01*
X110018707Y-94979317D01*
X110454267Y-95192149D01*
X110530337Y-95223745D01*
X110874451Y-95351667D01*
X111200828Y-95443731D01*
X111536909Y-95504494D01*
X111910134Y-95538512D01*
X112347943Y-95550341D01*
X112496600Y-95550240D01*
X112827678Y-95546307D01*
X113083993Y-95536875D01*
X113292345Y-95519149D01*
X113479536Y-95490333D01*
X113672366Y-95447631D01*
X113802666Y-95413982D01*
X114328412Y-95238418D01*
X114826656Y-95004290D01*
X115271817Y-94725151D01*
X115577922Y-94473474D01*
X115771386Y-94302338D01*
X115907405Y-94209714D01*
X115990565Y-94193650D01*
X116025455Y-94252195D01*
X116027200Y-94282326D01*
X115988597Y-94357575D01*
X115884745Y-94475324D01*
X115733575Y-94619734D01*
X115553017Y-94774968D01*
X115361003Y-94925185D01*
X115175465Y-95054548D01*
X115100843Y-95100578D01*
X114534672Y-95378406D01*
X113912098Y-95587391D01*
X113254356Y-95724223D01*
X112582683Y-95785594D01*
X111918314Y-95768194D01*
X111353600Y-95684465D01*
X110686516Y-95499814D01*
X110080835Y-95243779D01*
X109543116Y-94919659D01*
X109101306Y-94551779D01*
X108937777Y-94388103D01*
X108840035Y-94276816D01*
X108797785Y-94202968D01*
X108800733Y-94151613D01*
X108812997Y-94133125D01*
X108851759Y-94106855D01*
X108907748Y-94119001D01*
G37*
X108907748Y-94119001D02*
X108996032Y-94178864D01*
X109131682Y-94295742D01*
X109244702Y-94399545D01*
X109629155Y-94723858D01*
X110018707Y-94979317D01*
X110454267Y-95192149D01*
X110530337Y-95223745D01*
X110874451Y-95351667D01*
X111200828Y-95443731D01*
X111536909Y-95504494D01*
X111910134Y-95538512D01*
X112347943Y-95550341D01*
X112496600Y-95550240D01*
X112827678Y-95546307D01*
X113083993Y-95536875D01*
X113292345Y-95519149D01*
X113479536Y-95490333D01*
X113672366Y-95447631D01*
X113802666Y-95413982D01*
X114328412Y-95238418D01*
X114826656Y-95004290D01*
X115271817Y-94725151D01*
X115577922Y-94473474D01*
X115771386Y-94302338D01*
X115907405Y-94209714D01*
X115990565Y-94193650D01*
X116025455Y-94252195D01*
X116027200Y-94282326D01*
X115988597Y-94357575D01*
X115884745Y-94475324D01*
X115733575Y-94619734D01*
X115553017Y-94774968D01*
X115361003Y-94925185D01*
X115175465Y-95054548D01*
X115100843Y-95100578D01*
X114534672Y-95378406D01*
X113912098Y-95587391D01*
X113254356Y-95724223D01*
X112582683Y-95785594D01*
X111918314Y-95768194D01*
X111353600Y-95684465D01*
X110686516Y-95499814D01*
X110080835Y-95243779D01*
X109543116Y-94919659D01*
X109101306Y-94551779D01*
X108937777Y-94388103D01*
X108840035Y-94276816D01*
X108797785Y-94202968D01*
X108800733Y-94151613D01*
X108812997Y-94133125D01*
X108851759Y-94106855D01*
X108907748Y-94119001D01*
G36*
X112433615Y-97318542D02*
G01*
X112716515Y-97512352D01*
X112960551Y-97761719D01*
X113140209Y-98038375D01*
X113190921Y-98157574D01*
X113208917Y-98232232D01*
X113223685Y-98350484D01*
X113235477Y-98520691D01*
X113244545Y-98751212D01*
X113251138Y-99050405D01*
X113255511Y-99426629D01*
X113257913Y-99888245D01*
X113258600Y-100406200D01*
X113258600Y-102463600D01*
X113118281Y-102749326D01*
X112999182Y-102946155D01*
X112841382Y-103149858D01*
X112730853Y-103266196D01*
X112582955Y-103392906D01*
X112434090Y-103489531D01*
X112267709Y-103559956D01*
X112067264Y-103608068D01*
X111816209Y-103637753D01*
X111497994Y-103652896D01*
X111096072Y-103657384D01*
X111064979Y-103657400D01*
X110185200Y-103657400D01*
X110185200Y-101256899D01*
X111159458Y-101256899D01*
X111159803Y-101651477D01*
X111161323Y-101994281D01*
X111163955Y-102274566D01*
X111167639Y-102481586D01*
X111172310Y-102604597D01*
X111175771Y-102634225D01*
X111217856Y-102670608D01*
X111319821Y-102687721D01*
X111499000Y-102687686D01*
X111582736Y-102684038D01*
X111784326Y-102670192D01*
X111916662Y-102646317D01*
X112012090Y-102601491D01*
X112102951Y-102524791D01*
X112128310Y-102499787D01*
X112293400Y-102334751D01*
X112307858Y-100466196D01*
X112322316Y-98597642D01*
X112204400Y-98422421D01*
X112031498Y-98254589D01*
X111788391Y-98155773D01*
X111481668Y-98128458D01*
X111431552Y-98130624D01*
X111175800Y-98145600D01*
X111162545Y-100355400D01*
X111160351Y-100821291D01*
X111159458Y-101256899D01*
X110185200Y-101256899D01*
X110185200Y-97155000D01*
X112126778Y-97155000D01*
X112433615Y-97318542D01*
G37*
X112433615Y-97318542D02*
X112716515Y-97512352D01*
X112960551Y-97761719D01*
X113140209Y-98038375D01*
X113190921Y-98157574D01*
X113208917Y-98232232D01*
X113223685Y-98350484D01*
X113235477Y-98520691D01*
X113244545Y-98751212D01*
X113251138Y-99050405D01*
X113255511Y-99426629D01*
X113257913Y-99888245D01*
X113258600Y-100406200D01*
X113258600Y-102463600D01*
X113118281Y-102749326D01*
X112999182Y-102946155D01*
X112841382Y-103149858D01*
X112730853Y-103266196D01*
X112582955Y-103392906D01*
X112434090Y-103489531D01*
X112267709Y-103559956D01*
X112067264Y-103608068D01*
X111816209Y-103637753D01*
X111497994Y-103652896D01*
X111096072Y-103657384D01*
X111064979Y-103657400D01*
X110185200Y-103657400D01*
X110185200Y-101256899D01*
X111159458Y-101256899D01*
X111159803Y-101651477D01*
X111161323Y-101994281D01*
X111163955Y-102274566D01*
X111167639Y-102481586D01*
X111172310Y-102604597D01*
X111175771Y-102634225D01*
X111217856Y-102670608D01*
X111319821Y-102687721D01*
X111499000Y-102687686D01*
X111582736Y-102684038D01*
X111784326Y-102670192D01*
X111916662Y-102646317D01*
X112012090Y-102601491D01*
X112102951Y-102524791D01*
X112128310Y-102499787D01*
X112293400Y-102334751D01*
X112307858Y-100466196D01*
X112322316Y-98597642D01*
X112204400Y-98422421D01*
X112031498Y-98254589D01*
X111788391Y-98155773D01*
X111481668Y-98128458D01*
X111431552Y-98130624D01*
X111175800Y-98145600D01*
X111162545Y-100355400D01*
X111160351Y-100821291D01*
X111159458Y-101256899D01*
X110185200Y-101256899D01*
X110185200Y-97155000D01*
X112126778Y-97155000D01*
X112433615Y-97318542D01*
G36*
X109321600Y-103657400D02*
G01*
X108305600Y-103657400D01*
X108305600Y-97155000D01*
X109321600Y-97155000D01*
X109321600Y-103657400D01*
G37*
X109321600Y-103657400D02*
X108305600Y-103657400D01*
X108305600Y-97155000D01*
X109321600Y-97155000D01*
X109321600Y-103657400D01*
G36*
X119816093Y-97085119D02*
G01*
X119984353Y-97104597D01*
X120124675Y-97145850D01*
X120272223Y-97215266D01*
X120570202Y-97421683D01*
X120830642Y-97697664D01*
X121023596Y-98011458D01*
X121024023Y-98012381D01*
X121050733Y-98073262D01*
X121072663Y-98136128D01*
X121090283Y-98211138D01*
X121104065Y-98308451D01*
X121114479Y-98438223D01*
X121121995Y-98610615D01*
X121127086Y-98835783D01*
X121130220Y-99123887D01*
X121131870Y-99485084D01*
X121132505Y-99929532D01*
X121132600Y-100355400D01*
X121132336Y-100899025D01*
X121130862Y-101351358D01*
X121127149Y-101722708D01*
X121120173Y-102023382D01*
X121108906Y-102263689D01*
X121092322Y-102453936D01*
X121069395Y-102604431D01*
X121039097Y-102725484D01*
X121000403Y-102827400D01*
X120952286Y-102920490D01*
X120893720Y-103015060D01*
X120863103Y-103061722D01*
X120632671Y-103323085D01*
X120335213Y-103527741D01*
X119993432Y-103666641D01*
X119630031Y-103730735D01*
X119267712Y-103710977D01*
X119245062Y-103706639D01*
X118891063Y-103585180D01*
X118573274Y-103375029D01*
X118304615Y-103086390D01*
X118153486Y-102844600D01*
X118033800Y-102616000D01*
X118033800Y-100406200D01*
X118034082Y-99869731D01*
X118035174Y-99425204D01*
X118037440Y-99062960D01*
X118041246Y-98773344D01*
X118046959Y-98546697D01*
X118054527Y-98382385D01*
X118999000Y-98382385D01*
X118999000Y-102395734D01*
X119164901Y-102543967D01*
X119355729Y-102655925D01*
X119576854Y-102697459D01*
X119789157Y-102663009D01*
X119840013Y-102639894D01*
X119901115Y-102603443D01*
X119951425Y-102559266D01*
X119991988Y-102497798D01*
X120023852Y-102409476D01*
X120048063Y-102284737D01*
X120065666Y-102114017D01*
X120077708Y-101887753D01*
X120085235Y-101596380D01*
X120089294Y-101230335D01*
X120090931Y-100780054D01*
X120091200Y-100343826D01*
X120091109Y-99825609D01*
X120089896Y-99399328D01*
X120086142Y-99055322D01*
X120078434Y-98783927D01*
X120065355Y-98575481D01*
X120045489Y-98420320D01*
X120017422Y-98308782D01*
X119979737Y-98231205D01*
X119931019Y-98177924D01*
X119869851Y-98139278D01*
X119794820Y-98105604D01*
X119761244Y-98091628D01*
X119546045Y-98053439D01*
X119327671Y-98104775D01*
X119134437Y-98238565D01*
X119122227Y-98251215D01*
X118999000Y-98382385D01*
X118054527Y-98382385D01*
X118054943Y-98373361D01*
X118065564Y-98243679D01*
X118079189Y-98147994D01*
X118096182Y-98076648D01*
X118116909Y-98019984D01*
X118124814Y-98002471D01*
X118276789Y-97759397D01*
X118492441Y-97517915D01*
X118738991Y-97311538D01*
X118895360Y-97214666D01*
X119043795Y-97145014D01*
X119184281Y-97104164D01*
X119353451Y-97084954D01*
X119583200Y-97080225D01*
X119816093Y-97085119D01*
G37*
X119816093Y-97085119D02*
X119984353Y-97104597D01*
X120124675Y-97145850D01*
X120272223Y-97215266D01*
X120570202Y-97421683D01*
X120830642Y-97697664D01*
X121023596Y-98011458D01*
X121024023Y-98012381D01*
X121050733Y-98073262D01*
X121072663Y-98136128D01*
X121090283Y-98211138D01*
X121104065Y-98308451D01*
X121114479Y-98438223D01*
X121121995Y-98610615D01*
X121127086Y-98835783D01*
X121130220Y-99123887D01*
X121131870Y-99485084D01*
X121132505Y-99929532D01*
X121132600Y-100355400D01*
X121132336Y-100899025D01*
X121130862Y-101351358D01*
X121127149Y-101722708D01*
X121120173Y-102023382D01*
X121108906Y-102263689D01*
X121092322Y-102453936D01*
X121069395Y-102604431D01*
X121039097Y-102725484D01*
X121000403Y-102827400D01*
X120952286Y-102920490D01*
X120893720Y-103015060D01*
X120863103Y-103061722D01*
X120632671Y-103323085D01*
X120335213Y-103527741D01*
X119993432Y-103666641D01*
X119630031Y-103730735D01*
X119267712Y-103710977D01*
X119245062Y-103706639D01*
X118891063Y-103585180D01*
X118573274Y-103375029D01*
X118304615Y-103086390D01*
X118153486Y-102844600D01*
X118033800Y-102616000D01*
X118033800Y-100406200D01*
X118034082Y-99869731D01*
X118035174Y-99425204D01*
X118037440Y-99062960D01*
X118041246Y-98773344D01*
X118046959Y-98546697D01*
X118054527Y-98382385D01*
X118999000Y-98382385D01*
X118999000Y-102395734D01*
X119164901Y-102543967D01*
X119355729Y-102655925D01*
X119576854Y-102697459D01*
X119789157Y-102663009D01*
X119840013Y-102639894D01*
X119901115Y-102603443D01*
X119951425Y-102559266D01*
X119991988Y-102497798D01*
X120023852Y-102409476D01*
X120048063Y-102284737D01*
X120065666Y-102114017D01*
X120077708Y-101887753D01*
X120085235Y-101596380D01*
X120089294Y-101230335D01*
X120090931Y-100780054D01*
X120091200Y-100343826D01*
X120091109Y-99825609D01*
X120089896Y-99399328D01*
X120086142Y-99055322D01*
X120078434Y-98783927D01*
X120065355Y-98575481D01*
X120045489Y-98420320D01*
X120017422Y-98308782D01*
X119979737Y-98231205D01*
X119931019Y-98177924D01*
X119869851Y-98139278D01*
X119794820Y-98105604D01*
X119761244Y-98091628D01*
X119546045Y-98053439D01*
X119327671Y-98104775D01*
X119134437Y-98238565D01*
X119122227Y-98251215D01*
X118999000Y-98382385D01*
X118054527Y-98382385D01*
X118054943Y-98373361D01*
X118065564Y-98243679D01*
X118079189Y-98147994D01*
X118096182Y-98076648D01*
X118116909Y-98019984D01*
X118124814Y-98002471D01*
X118276789Y-97759397D01*
X118492441Y-97517915D01*
X118738991Y-97311538D01*
X118895360Y-97214666D01*
X119043795Y-97145014D01*
X119184281Y-97104164D01*
X119353451Y-97084954D01*
X119583200Y-97080225D01*
X119816093Y-97085119D01*
G36*
X116093894Y-97129934D02*
G01*
X116437993Y-97270745D01*
X116738700Y-97490493D01*
X116815779Y-97569394D01*
X116983368Y-97777171D01*
X117098890Y-97983033D01*
X117170859Y-98213147D01*
X117207788Y-98493682D01*
X117218076Y-98806000D01*
X117221000Y-99364800D01*
X116731836Y-99379265D01*
X116242673Y-99393731D01*
X116221515Y-98909982D01*
X116197451Y-98611718D01*
X116149589Y-98396429D01*
X116069087Y-98246592D01*
X115947097Y-98144689D01*
X115803774Y-98082535D01*
X115579256Y-98056615D01*
X115370345Y-98123543D01*
X115200750Y-98274888D01*
X115180251Y-98304222D01*
X115156593Y-98346397D01*
X115137311Y-98400297D01*
X115121962Y-98476005D01*
X115110102Y-98583603D01*
X115101290Y-98733174D01*
X115095079Y-98934800D01*
X115091029Y-99198563D01*
X115088695Y-99534546D01*
X115087633Y-99952830D01*
X115087400Y-100415688D01*
X115087400Y-102385446D01*
X115253476Y-102551523D01*
X115384196Y-102661837D01*
X115513397Y-102709408D01*
X115643084Y-102717600D01*
X115853807Y-102686518D01*
X116013834Y-102588816D01*
X116126980Y-102417807D01*
X116197061Y-102166808D01*
X116227892Y-101829131D01*
X116230116Y-101688900D01*
X116230400Y-101269800D01*
X117259885Y-101269800D01*
X117235636Y-101917500D01*
X117210877Y-102302532D01*
X117164339Y-102607032D01*
X117089115Y-102850975D01*
X116978298Y-103054333D01*
X116824981Y-103237081D01*
X116756506Y-103303099D01*
X116434539Y-103533979D01*
X116069999Y-103680792D01*
X115682769Y-103737941D01*
X115323455Y-103706491D01*
X114985601Y-103587108D01*
X114676800Y-103381789D01*
X114415176Y-103105608D01*
X114229167Y-102796380D01*
X114203129Y-102736808D01*
X114181696Y-102674568D01*
X114164422Y-102599663D01*
X114150857Y-102502091D01*
X114140555Y-102371854D01*
X114133068Y-102198951D01*
X114127949Y-101973384D01*
X114124751Y-101685152D01*
X114123025Y-101324255D01*
X114122324Y-100880695D01*
X114122200Y-100406200D01*
X114122352Y-99880542D01*
X114123111Y-99446472D01*
X114124932Y-99093978D01*
X114128269Y-98813048D01*
X114133575Y-98593669D01*
X114141305Y-98425829D01*
X114151912Y-98299516D01*
X114165852Y-98204719D01*
X114183578Y-98131424D01*
X114205544Y-98069620D01*
X114230776Y-98012381D01*
X114438662Y-97678123D01*
X114720320Y-97398654D01*
X115003044Y-97220012D01*
X115356239Y-97100678D01*
X115726583Y-97071948D01*
X116093894Y-97129934D01*
G37*
X116093894Y-97129934D02*
X116437993Y-97270745D01*
X116738700Y-97490493D01*
X116815779Y-97569394D01*
X116983368Y-97777171D01*
X117098890Y-97983033D01*
X117170859Y-98213147D01*
X117207788Y-98493682D01*
X117218076Y-98806000D01*
X117221000Y-99364800D01*
X116731836Y-99379265D01*
X116242673Y-99393731D01*
X116221515Y-98909982D01*
X116197451Y-98611718D01*
X116149589Y-98396429D01*
X116069087Y-98246592D01*
X115947097Y-98144689D01*
X115803774Y-98082535D01*
X115579256Y-98056615D01*
X115370345Y-98123543D01*
X115200750Y-98274888D01*
X115180251Y-98304222D01*
X115156593Y-98346397D01*
X115137311Y-98400297D01*
X115121962Y-98476005D01*
X115110102Y-98583603D01*
X115101290Y-98733174D01*
X115095079Y-98934800D01*
X115091029Y-99198563D01*
X115088695Y-99534546D01*
X115087633Y-99952830D01*
X115087400Y-100415688D01*
X115087400Y-102385446D01*
X115253476Y-102551523D01*
X115384196Y-102661837D01*
X115513397Y-102709408D01*
X115643084Y-102717600D01*
X115853807Y-102686518D01*
X116013834Y-102588816D01*
X116126980Y-102417807D01*
X116197061Y-102166808D01*
X116227892Y-101829131D01*
X116230116Y-101688900D01*
X116230400Y-101269800D01*
X117259885Y-101269800D01*
X117235636Y-101917500D01*
X117210877Y-102302532D01*
X117164339Y-102607032D01*
X117089115Y-102850975D01*
X116978298Y-103054333D01*
X116824981Y-103237081D01*
X116756506Y-103303099D01*
X116434539Y-103533979D01*
X116069999Y-103680792D01*
X115682769Y-103737941D01*
X115323455Y-103706491D01*
X114985601Y-103587108D01*
X114676800Y-103381789D01*
X114415176Y-103105608D01*
X114229167Y-102796380D01*
X114203129Y-102736808D01*
X114181696Y-102674568D01*
X114164422Y-102599663D01*
X114150857Y-102502091D01*
X114140555Y-102371854D01*
X114133068Y-102198951D01*
X114127949Y-101973384D01*
X114124751Y-101685152D01*
X114123025Y-101324255D01*
X114122324Y-100880695D01*
X114122200Y-100406200D01*
X114122352Y-99880542D01*
X114123111Y-99446472D01*
X114124932Y-99093978D01*
X114128269Y-98813048D01*
X114133575Y-98593669D01*
X114141305Y-98425829D01*
X114151912Y-98299516D01*
X114165852Y-98204719D01*
X114183578Y-98131424D01*
X114205544Y-98069620D01*
X114230776Y-98012381D01*
X114438662Y-97678123D01*
X114720320Y-97398654D01*
X115003044Y-97220012D01*
X115356239Y-97100678D01*
X115726583Y-97071948D01*
X116093894Y-97129934D01*
G36*
X106156930Y-97091056D02*
G01*
X106359060Y-97116796D01*
X106490225Y-97147903D01*
X106778239Y-97294973D01*
X107044937Y-97519101D01*
X107263688Y-97795883D01*
X107334822Y-97921886D01*
X107404103Y-98066996D01*
X107449510Y-98189448D01*
X107476055Y-98317548D01*
X107488751Y-98479604D01*
X107492608Y-98703921D01*
X107492800Y-98814113D01*
X107492800Y-99390200D01*
X106476800Y-99390200D01*
X106476800Y-98909367D01*
X106475160Y-98683128D01*
X106466000Y-98531833D01*
X106442956Y-98428831D01*
X106399667Y-98347474D01*
X106329771Y-98261110D01*
X106319137Y-98248967D01*
X106205094Y-98135100D01*
X106096769Y-98082883D01*
X105943695Y-98069484D01*
X105922241Y-98069400D01*
X105754631Y-98081878D01*
X105636513Y-98132799D01*
X105533804Y-98225084D01*
X105384600Y-98380769D01*
X105371122Y-100345984D01*
X105367902Y-100845832D01*
X105366049Y-101254320D01*
X105365980Y-101581684D01*
X105368109Y-101838161D01*
X105372854Y-102033986D01*
X105380630Y-102179395D01*
X105391853Y-102284624D01*
X105406940Y-102359909D01*
X105426306Y-102415486D01*
X105450367Y-102461592D01*
X105457592Y-102473532D01*
X105607839Y-102631330D01*
X105800779Y-102712792D01*
X106011218Y-102717177D01*
X106213962Y-102643739D01*
X106376921Y-102500672D01*
X106422359Y-102429010D01*
X106451785Y-102337881D01*
X106468462Y-102205092D01*
X106475657Y-102008448D01*
X106476800Y-101821749D01*
X106476800Y-101269800D01*
X107492800Y-101269800D01*
X107492303Y-101917500D01*
X107490066Y-102197397D01*
X107481693Y-102400109D01*
X107463945Y-102550010D01*
X107433582Y-102671475D01*
X107387362Y-102788875D01*
X107371985Y-102822522D01*
X107175082Y-103155230D01*
X106927463Y-103407255D01*
X106668922Y-103567509D01*
X106385125Y-103670511D01*
X106069866Y-103727288D01*
X105766035Y-103732273D01*
X105599710Y-103706294D01*
X105253213Y-103576538D01*
X104949704Y-103365521D01*
X104790019Y-103206175D01*
X104697695Y-103101240D01*
X104620753Y-103003228D01*
X104557865Y-102902130D01*
X104507704Y-102787937D01*
X104468942Y-102650638D01*
X104440250Y-102480226D01*
X104420303Y-102266690D01*
X104407771Y-102000021D01*
X104401327Y-101670211D01*
X104399644Y-101267249D01*
X104401395Y-100781127D01*
X104404554Y-100300110D01*
X104408355Y-99782105D01*
X104412123Y-99355561D01*
X104416413Y-99010342D01*
X104421779Y-98736311D01*
X104428776Y-98523332D01*
X104437959Y-98361267D01*
X104449882Y-98239981D01*
X104465099Y-98149336D01*
X104484166Y-98079195D01*
X104507637Y-98019423D01*
X104532152Y-97967800D01*
X104749928Y-97633649D01*
X105032461Y-97371223D01*
X105367159Y-97188433D01*
X105741431Y-97093194D01*
X105943400Y-97080882D01*
X106156930Y-97091056D01*
G37*
X106156930Y-97091056D02*
X106359060Y-97116796D01*
X106490225Y-97147903D01*
X106778239Y-97294973D01*
X107044937Y-97519101D01*
X107263688Y-97795883D01*
X107334822Y-97921886D01*
X107404103Y-98066996D01*
X107449510Y-98189448D01*
X107476055Y-98317548D01*
X107488751Y-98479604D01*
X107492608Y-98703921D01*
X107492800Y-98814113D01*
X107492800Y-99390200D01*
X106476800Y-99390200D01*
X106476800Y-98909367D01*
X106475160Y-98683128D01*
X106466000Y-98531833D01*
X106442956Y-98428831D01*
X106399667Y-98347474D01*
X106329771Y-98261110D01*
X106319137Y-98248967D01*
X106205094Y-98135100D01*
X106096769Y-98082883D01*
X105943695Y-98069484D01*
X105922241Y-98069400D01*
X105754631Y-98081878D01*
X105636513Y-98132799D01*
X105533804Y-98225084D01*
X105384600Y-98380769D01*
X105371122Y-100345984D01*
X105367902Y-100845832D01*
X105366049Y-101254320D01*
X105365980Y-101581684D01*
X105368109Y-101838161D01*
X105372854Y-102033986D01*
X105380630Y-102179395D01*
X105391853Y-102284624D01*
X105406940Y-102359909D01*
X105426306Y-102415486D01*
X105450367Y-102461592D01*
X105457592Y-102473532D01*
X105607839Y-102631330D01*
X105800779Y-102712792D01*
X106011218Y-102717177D01*
X106213962Y-102643739D01*
X106376921Y-102500672D01*
X106422359Y-102429010D01*
X106451785Y-102337881D01*
X106468462Y-102205092D01*
X106475657Y-102008448D01*
X106476800Y-101821749D01*
X106476800Y-101269800D01*
X107492800Y-101269800D01*
X107492303Y-101917500D01*
X107490066Y-102197397D01*
X107481693Y-102400109D01*
X107463945Y-102550010D01*
X107433582Y-102671475D01*
X107387362Y-102788875D01*
X107371985Y-102822522D01*
X107175082Y-103155230D01*
X106927463Y-103407255D01*
X106668922Y-103567509D01*
X106385125Y-103670511D01*
X106069866Y-103727288D01*
X105766035Y-103732273D01*
X105599710Y-103706294D01*
X105253213Y-103576538D01*
X104949704Y-103365521D01*
X104790019Y-103206175D01*
X104697695Y-103101240D01*
X104620753Y-103003228D01*
X104557865Y-102902130D01*
X104507704Y-102787937D01*
X104468942Y-102650638D01*
X104440250Y-102480226D01*
X104420303Y-102266690D01*
X104407771Y-102000021D01*
X104401327Y-101670211D01*
X104399644Y-101267249D01*
X104401395Y-100781127D01*
X104404554Y-100300110D01*
X104408355Y-99782105D01*
X104412123Y-99355561D01*
X104416413Y-99010342D01*
X104421779Y-98736311D01*
X104428776Y-98523332D01*
X104437959Y-98361267D01*
X104449882Y-98239981D01*
X104465099Y-98149336D01*
X104484166Y-98079195D01*
X104507637Y-98019423D01*
X104532152Y-97967800D01*
X104749928Y-97633649D01*
X105032461Y-97371223D01*
X105367159Y-97188433D01*
X105741431Y-97093194D01*
X105943400Y-97080882D01*
X106156930Y-97091056D01*
D13*
X118049522Y-115681278D02*
G75*
G03X122488000Y-113842800I1838478J1838478D01*
G01*
X118049522Y-112004322D02*
G75*
G02X122488000Y-113842800I1838478J-1838478D01*
G01*
X118038000Y-112042800D02*
X118038000Y-115642800D01*
X111699522Y-115884478D02*
G75*
G03X116138000Y-114046000I1838478J1838478D01*
G01*
X111699522Y-112207522D02*
G75*
G02X116138000Y-114046000I1838478J-1838478D01*
G01*
X111688000Y-112246000D02*
X111688000Y-115846000D01*
X105298722Y-115808278D02*
G75*
G03X109737200Y-113969800I1838478J1838478D01*
G01*
X105298722Y-112131322D02*
G75*
G02X109737200Y-113969800I1838478J-1838478D01*
G01*
X105287200Y-112169800D02*
X105287200Y-115769800D01*
D11*
X102070000Y-75400000D02*
X103620000Y-75400000D01*
X104890000Y-72580000D02*
X104890000Y-75120000D01*
X102350000Y-72580000D02*
X104890000Y-72580000D01*
X102070000Y-73850000D02*
X102070000Y-75400000D01*
X102350000Y-70040000D02*
X102350000Y-72580000D01*
X153150000Y-70040000D02*
X153150000Y-75120000D01*
X104890000Y-75120000D02*
X153150000Y-75120000D01*
X153150000Y-70040000D02*
X102350000Y-70040000D01*
D13*
X105675000Y-123260000D02*
X108175000Y-123260000D01*
X105675000Y-120760000D02*
X105675000Y-123260000D01*
X117695000Y-121460000D02*
X117695000Y-122960000D01*
X118695000Y-121460000D02*
X117695000Y-121460000D01*
X106975000Y-121460000D02*
X106975000Y-122960000D01*
X105975000Y-121460000D02*
X106975000Y-121460000D01*
X118195000Y-120650000D02*
X118695000Y-120650000D01*
X118195000Y-119440000D02*
X118195000Y-120650000D01*
X106475000Y-119440000D02*
X118195000Y-119440000D01*
X106475000Y-120650000D02*
X106475000Y-119440000D01*
X105975000Y-120650000D02*
X106475000Y-120650000D01*
X118695000Y-118940000D02*
X105975000Y-118940000D01*
X118695000Y-122960000D02*
X118695000Y-118940000D01*
X105975000Y-122960000D02*
X118695000Y-122960000D01*
X105975000Y-118940000D02*
X105975000Y-122960000D01*
X151135000Y-117150000D02*
X151135000Y-78430000D01*
X151135000Y-117150000D02*
X160015000Y-117150000D01*
X160015000Y-78430000D02*
X151135000Y-78430000D01*
X160015000Y-78430000D02*
X160015000Y-117150000D01*
X150495000Y-90170000D02*
X149987000Y-89916000D01*
X149987000Y-89916000D02*
X149987000Y-90424000D01*
X149987000Y-90424000D02*
X150495000Y-90170000D01*
X118480000Y-80575000D02*
X115980000Y-80575000D01*
X118480000Y-83075000D02*
X118480000Y-80575000D01*
X103960000Y-82375000D02*
X103960000Y-80875000D01*
X102960000Y-82375000D02*
X103960000Y-82375000D01*
X117180000Y-82375000D02*
X117180000Y-80875000D01*
X118180000Y-82375000D02*
X117180000Y-82375000D01*
X103460000Y-83185000D02*
X102960000Y-83185000D01*
X103460000Y-84395000D02*
X103460000Y-83185000D01*
X117680000Y-84395000D02*
X103460000Y-84395000D01*
X117680000Y-83185000D02*
X117680000Y-84395000D01*
X118180000Y-83185000D02*
X117680000Y-83185000D01*
X102960000Y-84895000D02*
X118180000Y-84895000D01*
X102960000Y-80875000D02*
X102960000Y-84895000D01*
X118180000Y-80875000D02*
X102960000Y-80875000D01*
X118180000Y-84895000D02*
X118180000Y-80875000D01*
X141975000Y-85655000D02*
X139475000Y-85655000D01*
X141975000Y-88155000D02*
X141975000Y-85655000D01*
X122455000Y-87455000D02*
X122455000Y-85955000D01*
X121455000Y-87455000D02*
X122455000Y-87455000D01*
X140675000Y-87455000D02*
X140675000Y-85955000D01*
X141675000Y-87455000D02*
X140675000Y-87455000D01*
X121955000Y-88265000D02*
X121455000Y-88265000D01*
X121955000Y-89475000D02*
X121955000Y-88265000D01*
X141175000Y-89475000D02*
X121955000Y-89475000D01*
X141175000Y-88265000D02*
X141175000Y-89475000D01*
X141675000Y-88265000D02*
X141175000Y-88265000D01*
X121455000Y-89975000D02*
X141675000Y-89975000D01*
X121455000Y-85955000D02*
X121455000Y-89975000D01*
X141675000Y-85955000D02*
X121455000Y-85955000D01*
X141675000Y-89975000D02*
X141675000Y-85955000D01*
X141975000Y-78035000D02*
X139475000Y-78035000D01*
X141975000Y-80535000D02*
X141975000Y-78035000D01*
X122455000Y-79835000D02*
X122455000Y-78335000D01*
X121455000Y-79835000D02*
X122455000Y-79835000D01*
X140675000Y-79835000D02*
X140675000Y-78335000D01*
X141675000Y-79835000D02*
X140675000Y-79835000D01*
X121955000Y-80645000D02*
X121455000Y-80645000D01*
X121955000Y-81855000D02*
X121955000Y-80645000D01*
X141175000Y-81855000D02*
X121955000Y-81855000D01*
X141175000Y-80645000D02*
X141175000Y-81855000D01*
X141675000Y-80645000D02*
X141175000Y-80645000D01*
X121455000Y-82355000D02*
X141675000Y-82355000D01*
X121455000Y-78335000D02*
X121455000Y-82355000D01*
X141675000Y-78335000D02*
X121455000Y-78335000D01*
X141675000Y-82355000D02*
X141675000Y-78335000D01*
X148660000Y-113360000D02*
X148660000Y-110860000D01*
X146160000Y-113360000D02*
X148660000Y-113360000D01*
X146860000Y-98840000D02*
X148360000Y-98840000D01*
X146860000Y-97840000D02*
X146860000Y-98840000D01*
X146860000Y-112060000D02*
X148360000Y-112060000D01*
X146860000Y-113060000D02*
X146860000Y-112060000D01*
X146050000Y-98340000D02*
X146050000Y-97840000D01*
X144840000Y-98340000D02*
X146050000Y-98340000D01*
X144840000Y-112560000D02*
X144840000Y-98340000D01*
X146050000Y-112560000D02*
X144840000Y-112560000D01*
X146050000Y-113060000D02*
X146050000Y-112560000D01*
X144340000Y-97840000D02*
X144340000Y-113060000D01*
X148360000Y-97840000D02*
X144340000Y-97840000D01*
X148360000Y-113060000D02*
X148360000Y-97840000D01*
X144340000Y-113060000D02*
X148360000Y-113060000D01*
X141040000Y-113320000D02*
X141040000Y-110820000D01*
X138540000Y-113320000D02*
X141040000Y-113320000D01*
X139240000Y-98800000D02*
X140740000Y-98800000D01*
X139240000Y-97800000D02*
X139240000Y-98800000D01*
X139240000Y-112020000D02*
X140740000Y-112020000D01*
X139240000Y-113020000D02*
X139240000Y-112020000D01*
X138430000Y-98300000D02*
X138430000Y-97800000D01*
X137220000Y-98300000D02*
X138430000Y-98300000D01*
X137220000Y-112520000D02*
X137220000Y-98300000D01*
X138430000Y-112520000D02*
X137220000Y-112520000D01*
X138430000Y-113020000D02*
X138430000Y-112520000D01*
X136720000Y-97800000D02*
X136720000Y-113020000D01*
X140740000Y-97800000D02*
X136720000Y-97800000D01*
X140740000Y-113020000D02*
X140740000Y-97800000D01*
X136720000Y-113020000D02*
X140740000Y-113020000D01*
X133420000Y-113280000D02*
X133420000Y-110780000D01*
X130920000Y-113280000D02*
X133420000Y-113280000D01*
X131620000Y-98760000D02*
X133120000Y-98760000D01*
X131620000Y-97760000D02*
X131620000Y-98760000D01*
X131620000Y-111980000D02*
X133120000Y-111980000D01*
X131620000Y-112980000D02*
X131620000Y-111980000D01*
X130810000Y-98260000D02*
X130810000Y-97760000D01*
X129600000Y-98260000D02*
X130810000Y-98260000D01*
X129600000Y-112480000D02*
X129600000Y-98260000D01*
X130810000Y-112480000D02*
X129600000Y-112480000D01*
X130810000Y-112980000D02*
X130810000Y-112480000D01*
X129100000Y-97760000D02*
X129100000Y-112980000D01*
X133120000Y-97760000D02*
X129100000Y-97760000D01*
X133120000Y-112980000D02*
X133120000Y-97760000D01*
X129100000Y-112980000D02*
X133120000Y-112980000D01*
D15*
X151880000Y-72123600D02*
X151880000Y-72123600D01*
X151880000Y-70496400D02*
X151880000Y-70496400D01*
X151880000Y-72123600D02*
G75*
G03X151880000Y-70496400I0J813600D01*
G01*
X151880000Y-70496400D02*
G75*
G03X151880000Y-72123600I0J-813600D01*
G01*
X151880000Y-74663600D02*
X151880000Y-74663600D01*
X151880000Y-73036400D02*
X151880000Y-73036400D01*
X151880000Y-74663600D02*
G75*
G03X151880000Y-73036400I0J813600D01*
G01*
X151880000Y-73036400D02*
G75*
G03X151880000Y-74663600I0J-813600D01*
G01*
X149340000Y-72123600D02*
X149340000Y-72123600D01*
X149340000Y-70496400D02*
X149340000Y-70496400D01*
X149340000Y-72123600D02*
G75*
G03X149340000Y-70496400I0J813600D01*
G01*
X149340000Y-70496400D02*
G75*
G03X149340000Y-72123600I0J-813600D01*
G01*
X149340000Y-74663600D02*
X149340000Y-74663600D01*
X149340000Y-73036400D02*
X149340000Y-73036400D01*
X149340000Y-74663600D02*
G75*
G03X149340000Y-73036400I0J813600D01*
G01*
X149340000Y-73036400D02*
G75*
G03X149340000Y-74663600I0J-813600D01*
G01*
X146800000Y-72123600D02*
X146800000Y-72123600D01*
X146800000Y-70496400D02*
X146800000Y-70496400D01*
X146800000Y-72123600D02*
G75*
G03X146800000Y-70496400I0J813600D01*
G01*
X146800000Y-70496400D02*
G75*
G03X146800000Y-72123600I0J-813600D01*
G01*
X146800000Y-74663600D02*
X146800000Y-74663600D01*
X146800000Y-73036400D02*
X146800000Y-73036400D01*
X146800000Y-74663600D02*
G75*
G03X146800000Y-73036400I0J813600D01*
G01*
X146800000Y-73036400D02*
G75*
G03X146800000Y-74663600I0J-813600D01*
G01*
X144260000Y-72123600D02*
X144260000Y-72123600D01*
X144260000Y-70496400D02*
X144260000Y-70496400D01*
X144260000Y-72123600D02*
G75*
G03X144260000Y-70496400I0J813600D01*
G01*
X144260000Y-70496400D02*
G75*
G03X144260000Y-72123600I0J-813600D01*
G01*
X144260000Y-74663600D02*
X144260000Y-74663600D01*
X144260000Y-73036400D02*
X144260000Y-73036400D01*
X144260000Y-74663600D02*
G75*
G03X144260000Y-73036400I0J813600D01*
G01*
X144260000Y-73036400D02*
G75*
G03X144260000Y-74663600I0J-813600D01*
G01*
X141720000Y-72123600D02*
X141720000Y-72123600D01*
X141720000Y-70496400D02*
X141720000Y-70496400D01*
X141720000Y-72123600D02*
G75*
G03X141720000Y-70496400I0J813600D01*
G01*
X141720000Y-70496400D02*
G75*
G03X141720000Y-72123600I0J-813600D01*
G01*
X141720000Y-74663600D02*
X141720000Y-74663600D01*
X141720000Y-73036400D02*
X141720000Y-73036400D01*
X141720000Y-74663600D02*
G75*
G03X141720000Y-73036400I0J813600D01*
G01*
X141720000Y-73036400D02*
G75*
G03X141720000Y-74663600I0J-813600D01*
G01*
X139180000Y-72123600D02*
X139180000Y-72123600D01*
X139180000Y-70496400D02*
X139180000Y-70496400D01*
X139180000Y-72123600D02*
G75*
G03X139180000Y-70496400I0J813600D01*
G01*
X139180000Y-70496400D02*
G75*
G03X139180000Y-72123600I0J-813600D01*
G01*
X139180000Y-74663600D02*
X139180000Y-74663600D01*
X139180000Y-73036400D02*
X139180000Y-73036400D01*
X139180000Y-74663600D02*
G75*
G03X139180000Y-73036400I0J813600D01*
G01*
X139180000Y-73036400D02*
G75*
G03X139180000Y-74663600I0J-813600D01*
G01*
X136640000Y-72123600D02*
X136640000Y-72123600D01*
X136640000Y-70496400D02*
X136640000Y-70496400D01*
X136640000Y-72123600D02*
G75*
G03X136640000Y-70496400I0J813600D01*
G01*
X136640000Y-70496400D02*
G75*
G03X136640000Y-72123600I0J-813600D01*
G01*
X136640000Y-74663600D02*
X136640000Y-74663600D01*
X136640000Y-73036400D02*
X136640000Y-73036400D01*
X136640000Y-74663600D02*
G75*
G03X136640000Y-73036400I0J813600D01*
G01*
X136640000Y-73036400D02*
G75*
G03X136640000Y-74663600I0J-813600D01*
G01*
X134100000Y-72123600D02*
X134100000Y-72123600D01*
X134100000Y-70496400D02*
X134100000Y-70496400D01*
X134100000Y-72123600D02*
G75*
G03X134100000Y-70496400I0J813600D01*
G01*
X134100000Y-70496400D02*
G75*
G03X134100000Y-72123600I0J-813600D01*
G01*
X134100000Y-74663600D02*
X134100000Y-74663600D01*
X134100000Y-73036400D02*
X134100000Y-73036400D01*
X134100000Y-74663600D02*
G75*
G03X134100000Y-73036400I0J813600D01*
G01*
X134100000Y-73036400D02*
G75*
G03X134100000Y-74663600I0J-813600D01*
G01*
X131560000Y-72123600D02*
X131560000Y-72123600D01*
X131560000Y-70496400D02*
X131560000Y-70496400D01*
X131560000Y-72123600D02*
G75*
G03X131560000Y-70496400I0J813600D01*
G01*
X131560000Y-70496400D02*
G75*
G03X131560000Y-72123600I0J-813600D01*
G01*
X131560000Y-74663600D02*
X131560000Y-74663600D01*
X131560000Y-73036400D02*
X131560000Y-73036400D01*
X131560000Y-74663600D02*
G75*
G03X131560000Y-73036400I0J813600D01*
G01*
X131560000Y-73036400D02*
G75*
G03X131560000Y-74663600I0J-813600D01*
G01*
X129020000Y-72123600D02*
X129020000Y-72123600D01*
X129020000Y-70496400D02*
X129020000Y-70496400D01*
X129020000Y-72123600D02*
G75*
G03X129020000Y-70496400I0J813600D01*
G01*
X129020000Y-70496400D02*
G75*
G03X129020000Y-72123600I0J-813600D01*
G01*
X129020000Y-74663600D02*
X129020000Y-74663600D01*
X129020000Y-73036400D02*
X129020000Y-73036400D01*
X129020000Y-74663600D02*
G75*
G03X129020000Y-73036400I0J813600D01*
G01*
X129020000Y-73036400D02*
G75*
G03X129020000Y-74663600I0J-813600D01*
G01*
X126480000Y-72123600D02*
X126480000Y-72123600D01*
X126480000Y-70496400D02*
X126480000Y-70496400D01*
X126480000Y-72123600D02*
G75*
G03X126480000Y-70496400I0J813600D01*
G01*
X126480000Y-70496400D02*
G75*
G03X126480000Y-72123600I0J-813600D01*
G01*
X126480000Y-74663600D02*
X126480000Y-74663600D01*
X126480000Y-73036400D02*
X126480000Y-73036400D01*
X126480000Y-74663600D02*
G75*
G03X126480000Y-73036400I0J813600D01*
G01*
X126480000Y-73036400D02*
G75*
G03X126480000Y-74663600I0J-813600D01*
G01*
X123940000Y-72123600D02*
X123940000Y-72123600D01*
X123940000Y-70496400D02*
X123940000Y-70496400D01*
X123940000Y-72123600D02*
G75*
G03X123940000Y-70496400I0J813600D01*
G01*
X123940000Y-70496400D02*
G75*
G03X123940000Y-72123600I0J-813600D01*
G01*
X123940000Y-74663600D02*
X123940000Y-74663600D01*
X123940000Y-73036400D02*
X123940000Y-73036400D01*
X123940000Y-74663600D02*
G75*
G03X123940000Y-73036400I0J813600D01*
G01*
X123940000Y-73036400D02*
G75*
G03X123940000Y-74663600I0J-813600D01*
G01*
X121400000Y-72123600D02*
X121400000Y-72123600D01*
X121400000Y-70496400D02*
X121400000Y-70496400D01*
X121400000Y-72123600D02*
G75*
G03X121400000Y-70496400I0J813600D01*
G01*
X121400000Y-70496400D02*
G75*
G03X121400000Y-72123600I0J-813600D01*
G01*
X121400000Y-74663600D02*
X121400000Y-74663600D01*
X121400000Y-73036400D02*
X121400000Y-73036400D01*
X121400000Y-74663600D02*
G75*
G03X121400000Y-73036400I0J813600D01*
G01*
X121400000Y-73036400D02*
G75*
G03X121400000Y-74663600I0J-813600D01*
G01*
X118860000Y-72123600D02*
X118860000Y-72123600D01*
X118860000Y-70496400D02*
X118860000Y-70496400D01*
X118860000Y-72123600D02*
G75*
G03X118860000Y-70496400I0J813600D01*
G01*
X118860000Y-70496400D02*
G75*
G03X118860000Y-72123600I0J-813600D01*
G01*
X118860000Y-74663600D02*
X118860000Y-74663600D01*
X118860000Y-73036400D02*
X118860000Y-73036400D01*
X118860000Y-74663600D02*
G75*
G03X118860000Y-73036400I0J813600D01*
G01*
X118860000Y-73036400D02*
G75*
G03X118860000Y-74663600I0J-813600D01*
G01*
X116320000Y-72123600D02*
X116320000Y-72123600D01*
X116320000Y-70496400D02*
X116320000Y-70496400D01*
X116320000Y-72123600D02*
G75*
G03X116320000Y-70496400I0J813600D01*
G01*
X116320000Y-70496400D02*
G75*
G03X116320000Y-72123600I0J-813600D01*
G01*
X116320000Y-74663600D02*
X116320000Y-74663600D01*
X116320000Y-73036400D02*
X116320000Y-73036400D01*
X116320000Y-74663600D02*
G75*
G03X116320000Y-73036400I0J813600D01*
G01*
X116320000Y-73036400D02*
G75*
G03X116320000Y-74663600I0J-813600D01*
G01*
X113780000Y-72123600D02*
X113780000Y-72123600D01*
X113780000Y-70496400D02*
X113780000Y-70496400D01*
X113780000Y-72123600D02*
G75*
G03X113780000Y-70496400I0J813600D01*
G01*
X113780000Y-70496400D02*
G75*
G03X113780000Y-72123600I0J-813600D01*
G01*
X113780000Y-74663600D02*
X113780000Y-74663600D01*
X113780000Y-73036400D02*
X113780000Y-73036400D01*
X113780000Y-74663600D02*
G75*
G03X113780000Y-73036400I0J813600D01*
G01*
X113780000Y-73036400D02*
G75*
G03X113780000Y-74663600I0J-813600D01*
G01*
X111240000Y-72123600D02*
X111240000Y-72123600D01*
X111240000Y-70496400D02*
X111240000Y-70496400D01*
X111240000Y-72123600D02*
G75*
G03X111240000Y-70496400I0J813600D01*
G01*
X111240000Y-70496400D02*
G75*
G03X111240000Y-72123600I0J-813600D01*
G01*
X111240000Y-74663600D02*
X111240000Y-74663600D01*
X111240000Y-73036400D02*
X111240000Y-73036400D01*
X111240000Y-74663600D02*
G75*
G03X111240000Y-73036400I0J813600D01*
G01*
X111240000Y-73036400D02*
G75*
G03X111240000Y-74663600I0J-813600D01*
G01*
X108700000Y-72123600D02*
X108700000Y-72123600D01*
X108700000Y-70496400D02*
X108700000Y-70496400D01*
X108700000Y-72123600D02*
G75*
G03X108700000Y-70496400I0J813600D01*
G01*
X108700000Y-70496400D02*
G75*
G03X108700000Y-72123600I0J-813600D01*
G01*
X108700000Y-74663600D02*
X108700000Y-74663600D01*
X108700000Y-73036400D02*
X108700000Y-73036400D01*
X108700000Y-74663600D02*
G75*
G03X108700000Y-73036400I0J813600D01*
G01*
X108700000Y-73036400D02*
G75*
G03X108700000Y-74663600I0J-813600D01*
G01*
X106160000Y-72123600D02*
X106160000Y-72123600D01*
X106160000Y-70496400D02*
X106160000Y-70496400D01*
X106160000Y-72123600D02*
G75*
G03X106160000Y-70496400I0J813600D01*
G01*
X106160000Y-70496400D02*
G75*
G03X106160000Y-72123600I0J-813600D01*
G01*
X106160000Y-74663600D02*
X106160000Y-74663600D01*
X106160000Y-73036400D02*
X106160000Y-73036400D01*
X106160000Y-74663600D02*
G75*
G03X106160000Y-73036400I0J813600D01*
G01*
X106160000Y-73036400D02*
G75*
G03X106160000Y-74663600I0J-813600D01*
G01*
X103620000Y-72123600D02*
X103620000Y-72123600D01*
X103620000Y-70496400D02*
X103620000Y-70496400D01*
X103620000Y-72123600D02*
G75*
G03X103620000Y-70496400I0J813600D01*
G01*
X103620000Y-70496400D02*
G75*
G03X103620000Y-72123600I0J-813600D01*
G01*
X102806400Y-73036400D02*
X102806400Y-74663600D01*
X104433600Y-74663600D01*
X104433600Y-73036400D01*
X102806400Y-73036400D01*
D11*
X122626380Y-108497666D02*
X122150190Y-108831000D01*
X122626380Y-109069095D02*
X121626380Y-109069095D01*
X121626380Y-108688142D01*
X121674000Y-108592904D01*
X121721619Y-108545285D01*
X121816857Y-108497666D01*
X121959714Y-108497666D01*
X122054952Y-108545285D01*
X122102571Y-108592904D01*
X122150190Y-108688142D01*
X122150190Y-109069095D01*
X121626380Y-108164333D02*
X121626380Y-107545285D01*
X122007333Y-107878619D01*
X122007333Y-107735761D01*
X122054952Y-107640523D01*
X122102571Y-107592904D01*
X122197809Y-107545285D01*
X122435904Y-107545285D01*
X122531142Y-107592904D01*
X122578761Y-107640523D01*
X122626380Y-107735761D01*
X122626380Y-108021476D01*
X122578761Y-108116714D01*
X122531142Y-108164333D01*
X116327180Y-108446866D02*
X115850990Y-108780200D01*
X116327180Y-109018295D02*
X115327180Y-109018295D01*
X115327180Y-108637342D01*
X115374800Y-108542104D01*
X115422419Y-108494485D01*
X115517657Y-108446866D01*
X115660514Y-108446866D01*
X115755752Y-108494485D01*
X115803371Y-108542104D01*
X115850990Y-108637342D01*
X115850990Y-109018295D01*
X115422419Y-108065914D02*
X115374800Y-108018295D01*
X115327180Y-107923057D01*
X115327180Y-107684961D01*
X115374800Y-107589723D01*
X115422419Y-107542104D01*
X115517657Y-107494485D01*
X115612895Y-107494485D01*
X115755752Y-107542104D01*
X116327180Y-108113533D01*
X116327180Y-107494485D01*
X109850180Y-108396066D02*
X109373990Y-108729400D01*
X109850180Y-108967495D02*
X108850180Y-108967495D01*
X108850180Y-108586542D01*
X108897800Y-108491304D01*
X108945419Y-108443685D01*
X109040657Y-108396066D01*
X109183514Y-108396066D01*
X109278752Y-108443685D01*
X109326371Y-108491304D01*
X109373990Y-108586542D01*
X109373990Y-108967495D01*
X109850180Y-107443685D02*
X109850180Y-108015114D01*
X109850180Y-107729400D02*
X108850180Y-107729400D01*
X108993038Y-107824638D01*
X109088276Y-107919876D01*
X109135895Y-108015114D01*
X123995619Y-113938038D02*
X123948000Y-114033276D01*
X123852761Y-114128514D01*
X123709904Y-114271371D01*
X123662285Y-114366609D01*
X123662285Y-114461847D01*
X123900380Y-114414228D02*
X123852761Y-114509466D01*
X123757523Y-114604704D01*
X123567047Y-114652323D01*
X123233714Y-114652323D01*
X123043238Y-114604704D01*
X122948000Y-114509466D01*
X122900380Y-114414228D01*
X122900380Y-114223752D01*
X122948000Y-114128514D01*
X123043238Y-114033276D01*
X123233714Y-113985657D01*
X123567047Y-113985657D01*
X123757523Y-114033276D01*
X123852761Y-114128514D01*
X123900380Y-114223752D01*
X123900380Y-114414228D01*
X122900380Y-113652323D02*
X122900380Y-113033276D01*
X123281333Y-113366609D01*
X123281333Y-113223752D01*
X123328952Y-113128514D01*
X123376571Y-113080895D01*
X123471809Y-113033276D01*
X123709904Y-113033276D01*
X123805142Y-113080895D01*
X123852761Y-113128514D01*
X123900380Y-113223752D01*
X123900380Y-113509466D01*
X123852761Y-113604704D01*
X123805142Y-113652323D01*
X117645619Y-114141238D02*
X117598000Y-114236476D01*
X117502761Y-114331714D01*
X117359904Y-114474571D01*
X117312285Y-114569809D01*
X117312285Y-114665047D01*
X117550380Y-114617428D02*
X117502761Y-114712666D01*
X117407523Y-114807904D01*
X117217047Y-114855523D01*
X116883714Y-114855523D01*
X116693238Y-114807904D01*
X116598000Y-114712666D01*
X116550380Y-114617428D01*
X116550380Y-114426952D01*
X116598000Y-114331714D01*
X116693238Y-114236476D01*
X116883714Y-114188857D01*
X117217047Y-114188857D01*
X117407523Y-114236476D01*
X117502761Y-114331714D01*
X117550380Y-114426952D01*
X117550380Y-114617428D01*
X116645619Y-113807904D02*
X116598000Y-113760285D01*
X116550380Y-113665047D01*
X116550380Y-113426952D01*
X116598000Y-113331714D01*
X116645619Y-113284095D01*
X116740857Y-113236476D01*
X116836095Y-113236476D01*
X116978952Y-113284095D01*
X117550380Y-113855523D01*
X117550380Y-113236476D01*
X111244819Y-114065038D02*
X111197200Y-114160276D01*
X111101961Y-114255514D01*
X110959104Y-114398371D01*
X110911485Y-114493609D01*
X110911485Y-114588847D01*
X111149580Y-114541228D02*
X111101961Y-114636466D01*
X111006723Y-114731704D01*
X110816247Y-114779323D01*
X110482914Y-114779323D01*
X110292438Y-114731704D01*
X110197200Y-114636466D01*
X110149580Y-114541228D01*
X110149580Y-114350752D01*
X110197200Y-114255514D01*
X110292438Y-114160276D01*
X110482914Y-114112657D01*
X110816247Y-114112657D01*
X111006723Y-114160276D01*
X111101961Y-114255514D01*
X111149580Y-114350752D01*
X111149580Y-114541228D01*
X111149580Y-113160276D02*
X111149580Y-113731704D01*
X111149580Y-113445990D02*
X110149580Y-113445990D01*
X110292438Y-113541228D01*
X110387676Y-113636466D01*
X110435295Y-113731704D01*
X103072380Y-77104333D02*
X103786666Y-77104333D01*
X103929523Y-77151952D01*
X104024761Y-77247190D01*
X104072380Y-77390047D01*
X104072380Y-77485285D01*
X103167619Y-76675761D02*
X103120000Y-76628142D01*
X103072380Y-76532904D01*
X103072380Y-76294809D01*
X103120000Y-76199571D01*
X103167619Y-76151952D01*
X103262857Y-76104333D01*
X103358095Y-76104333D01*
X103500952Y-76151952D01*
X104072380Y-76723380D01*
X104072380Y-76104333D01*
X112001666Y-117302380D02*
X112001666Y-118016666D01*
X111954047Y-118159523D01*
X111858809Y-118254761D01*
X111715952Y-118302380D01*
X111620714Y-118302380D01*
X112525476Y-118302380D02*
X112715952Y-118302380D01*
X112811190Y-118254761D01*
X112858809Y-118207142D01*
X112954047Y-118064285D01*
X113001666Y-117873809D01*
X113001666Y-117492857D01*
X112954047Y-117397619D01*
X112906428Y-117350000D01*
X112811190Y-117302380D01*
X112620714Y-117302380D01*
X112525476Y-117350000D01*
X112477857Y-117397619D01*
X112430238Y-117492857D01*
X112430238Y-117730952D01*
X112477857Y-117826190D01*
X112525476Y-117873809D01*
X112620714Y-117921428D01*
X112811190Y-117921428D01*
X112906428Y-117873809D01*
X112954047Y-117826190D01*
X113001666Y-117730952D01*
X149312380Y-98123333D02*
X150026666Y-98123333D01*
X150169523Y-98170952D01*
X150264761Y-98266190D01*
X150312380Y-98409047D01*
X150312380Y-98504285D01*
X149740952Y-97504285D02*
X149693333Y-97599523D01*
X149645714Y-97647142D01*
X149550476Y-97694761D01*
X149502857Y-97694761D01*
X149407619Y-97647142D01*
X149360000Y-97599523D01*
X149312380Y-97504285D01*
X149312380Y-97313809D01*
X149360000Y-97218571D01*
X149407619Y-97170952D01*
X149502857Y-97123333D01*
X149550476Y-97123333D01*
X149645714Y-97170952D01*
X149693333Y-97218571D01*
X149740952Y-97313809D01*
X149740952Y-97504285D01*
X149788571Y-97599523D01*
X149836190Y-97647142D01*
X149931428Y-97694761D01*
X150121904Y-97694761D01*
X150217142Y-97647142D01*
X150264761Y-97599523D01*
X150312380Y-97504285D01*
X150312380Y-97313809D01*
X150264761Y-97218571D01*
X150217142Y-97170952D01*
X150121904Y-97123333D01*
X149931428Y-97123333D01*
X149836190Y-97170952D01*
X149788571Y-97218571D01*
X149740952Y-97313809D01*
X110236666Y-85437380D02*
X110236666Y-86151666D01*
X110189047Y-86294523D01*
X110093809Y-86389761D01*
X109950952Y-86437380D01*
X109855714Y-86437380D01*
X110617619Y-85437380D02*
X111284285Y-85437380D01*
X110855714Y-86437380D01*
X131231666Y-90517380D02*
X131231666Y-91231666D01*
X131184047Y-91374523D01*
X131088809Y-91469761D01*
X130945952Y-91517380D01*
X130850714Y-91517380D01*
X132136428Y-90517380D02*
X131945952Y-90517380D01*
X131850714Y-90565000D01*
X131803095Y-90612619D01*
X131707857Y-90755476D01*
X131660238Y-90945952D01*
X131660238Y-91326904D01*
X131707857Y-91422142D01*
X131755476Y-91469761D01*
X131850714Y-91517380D01*
X132041190Y-91517380D01*
X132136428Y-91469761D01*
X132184047Y-91422142D01*
X132231666Y-91326904D01*
X132231666Y-91088809D01*
X132184047Y-90993571D01*
X132136428Y-90945952D01*
X132041190Y-90898333D01*
X131850714Y-90898333D01*
X131755476Y-90945952D01*
X131707857Y-90993571D01*
X131660238Y-91088809D01*
X131231666Y-82897380D02*
X131231666Y-83611666D01*
X131184047Y-83754523D01*
X131088809Y-83849761D01*
X130945952Y-83897380D01*
X130850714Y-83897380D01*
X132184047Y-82897380D02*
X131707857Y-82897380D01*
X131660238Y-83373571D01*
X131707857Y-83325952D01*
X131803095Y-83278333D01*
X132041190Y-83278333D01*
X132136428Y-83325952D01*
X132184047Y-83373571D01*
X132231666Y-83468809D01*
X132231666Y-83706904D01*
X132184047Y-83802142D01*
X132136428Y-83849761D01*
X132041190Y-83897380D01*
X131803095Y-83897380D01*
X131707857Y-83849761D01*
X131660238Y-83802142D01*
X142702380Y-105783333D02*
X143416666Y-105783333D01*
X143559523Y-105830952D01*
X143654761Y-105926190D01*
X143702380Y-106069047D01*
X143702380Y-106164285D01*
X143035714Y-104878571D02*
X143702380Y-104878571D01*
X142654761Y-105116666D02*
X143369047Y-105354761D01*
X143369047Y-104735714D01*
X135082380Y-105743333D02*
X135796666Y-105743333D01*
X135939523Y-105790952D01*
X136034761Y-105886190D01*
X136082380Y-106029047D01*
X136082380Y-106124285D01*
X135082380Y-105362380D02*
X135082380Y-104743333D01*
X135463333Y-105076666D01*
X135463333Y-104933809D01*
X135510952Y-104838571D01*
X135558571Y-104790952D01*
X135653809Y-104743333D01*
X135891904Y-104743333D01*
X135987142Y-104790952D01*
X136034761Y-104838571D01*
X136082380Y-104933809D01*
X136082380Y-105219523D01*
X136034761Y-105314761D01*
X135987142Y-105362380D01*
X127462380Y-105703333D02*
X128176666Y-105703333D01*
X128319523Y-105750952D01*
X128414761Y-105846190D01*
X128462380Y-105989047D01*
X128462380Y-106084285D01*
X128462380Y-104703333D02*
X128462380Y-105274761D01*
X128462380Y-104989047D02*
X127462380Y-104989047D01*
X127605238Y-105084285D01*
X127700476Y-105179523D01*
X127748095Y-105274761D01*
M02*
