G04 #@! TF.GenerationSoftware,KiCad,Pcbnew,(5.1.5)-3*
G04 #@! TF.CreationDate,2020-01-30T14:03:48-05:00*
G04 #@! TF.ProjectId,RPi_Hat,5250695f-4861-4742-9e6b-696361645f70,1.0*
G04 #@! TF.SameCoordinates,Original*
G04 #@! TF.FileFunction,Copper,L2,Bot*
G04 #@! TF.FilePolarity,Positive*
%FSLAX46Y46*%
G04 Gerber Fmt 4.6, Leading zero omitted, Abs format (unit mm)*
G04 Created by KiCad (PCBNEW (5.1.5)-3) date 2020-01-30 14:03:48*
%MOMM*%
%LPD*%
G04 APERTURE LIST*
%ADD10C,4.500000*%
%ADD11O,1.600000X1.600000*%
%ADD12C,1.600000*%
%ADD13R,1.500000X1.050000*%
%ADD14O,1.500000X1.050000*%
%ADD15O,1.727200X1.727200*%
%ADD16R,1.727200X1.727200*%
%ADD17O,1.700000X1.950000*%
%ADD18C,0.100000*%
%ADD19C,1.520000*%
%ADD20R,1.520000X1.520000*%
%ADD21C,5.460000*%
%ADD22O,1.950000X1.700000*%
%ADD23C,0.600000*%
%ADD24C,1.270000*%
%ADD25C,0.250000*%
%ADD26C,0.500000*%
%ADD27C,1.000000*%
%ADD28C,0.254000*%
G04 APERTURE END LIST*
D10*
X156750000Y-121580000D03*
X98750000Y-121580000D03*
X98750000Y-72580000D03*
X156750000Y-72580000D03*
D11*
X119913400Y-106807000D03*
D12*
X119913400Y-109347000D03*
D11*
X113563400Y-106857800D03*
D12*
X113563400Y-109397800D03*
D11*
X107162600Y-106857800D03*
D12*
X107162600Y-109397800D03*
D13*
X119888000Y-112572800D03*
D14*
X119888000Y-115112800D03*
X119888000Y-113842800D03*
D13*
X113538000Y-112776000D03*
D14*
X113538000Y-115316000D03*
X113538000Y-114046000D03*
D13*
X107137200Y-112699800D03*
D14*
X107137200Y-115239800D03*
X107137200Y-113969800D03*
D15*
X151880000Y-71310000D03*
X151880000Y-73850000D03*
X149340000Y-71310000D03*
X149340000Y-73850000D03*
X146800000Y-71310000D03*
X146800000Y-73850000D03*
X144260000Y-71310000D03*
X144260000Y-73850000D03*
X141720000Y-71310000D03*
X141720000Y-73850000D03*
X139180000Y-71310000D03*
X139180000Y-73850000D03*
X136640000Y-71310000D03*
X136640000Y-73850000D03*
X134100000Y-71310000D03*
X134100000Y-73850000D03*
X131560000Y-71310000D03*
X131560000Y-73850000D03*
X129020000Y-71310000D03*
X129020000Y-73850000D03*
X126480000Y-71310000D03*
X126480000Y-73850000D03*
X123940000Y-71310000D03*
X123940000Y-73850000D03*
X121400000Y-71310000D03*
X121400000Y-73850000D03*
X118860000Y-71310000D03*
X118860000Y-73850000D03*
X116320000Y-71310000D03*
X116320000Y-73850000D03*
X113780000Y-71310000D03*
X113780000Y-73850000D03*
X111240000Y-71310000D03*
X111240000Y-73850000D03*
X108700000Y-71310000D03*
X108700000Y-73850000D03*
X106160000Y-71310000D03*
X106160000Y-73850000D03*
X103620000Y-71310000D03*
D16*
X103620000Y-73850000D03*
D17*
X116085000Y-120650000D03*
X113585000Y-120650000D03*
X111085000Y-120650000D03*
G04 #@! TA.AperFunction,ComponentPad*
D18*
G36*
X109209504Y-119676204D02*
G01*
X109233773Y-119679804D01*
X109257571Y-119685765D01*
X109280671Y-119694030D01*
X109302849Y-119704520D01*
X109323893Y-119717133D01*
X109343598Y-119731747D01*
X109361777Y-119748223D01*
X109378253Y-119766402D01*
X109392867Y-119786107D01*
X109405480Y-119807151D01*
X109415970Y-119829329D01*
X109424235Y-119852429D01*
X109430196Y-119876227D01*
X109433796Y-119900496D01*
X109435000Y-119925000D01*
X109435000Y-121375000D01*
X109433796Y-121399504D01*
X109430196Y-121423773D01*
X109424235Y-121447571D01*
X109415970Y-121470671D01*
X109405480Y-121492849D01*
X109392867Y-121513893D01*
X109378253Y-121533598D01*
X109361777Y-121551777D01*
X109343598Y-121568253D01*
X109323893Y-121582867D01*
X109302849Y-121595480D01*
X109280671Y-121605970D01*
X109257571Y-121614235D01*
X109233773Y-121620196D01*
X109209504Y-121623796D01*
X109185000Y-121625000D01*
X107985000Y-121625000D01*
X107960496Y-121623796D01*
X107936227Y-121620196D01*
X107912429Y-121614235D01*
X107889329Y-121605970D01*
X107867151Y-121595480D01*
X107846107Y-121582867D01*
X107826402Y-121568253D01*
X107808223Y-121551777D01*
X107791747Y-121533598D01*
X107777133Y-121513893D01*
X107764520Y-121492849D01*
X107754030Y-121470671D01*
X107745765Y-121447571D01*
X107739804Y-121423773D01*
X107736204Y-121399504D01*
X107735000Y-121375000D01*
X107735000Y-119925000D01*
X107736204Y-119900496D01*
X107739804Y-119876227D01*
X107745765Y-119852429D01*
X107754030Y-119829329D01*
X107764520Y-119807151D01*
X107777133Y-119786107D01*
X107791747Y-119766402D01*
X107808223Y-119748223D01*
X107826402Y-119731747D01*
X107846107Y-119717133D01*
X107867151Y-119704520D01*
X107889329Y-119694030D01*
X107912429Y-119685765D01*
X107936227Y-119679804D01*
X107960496Y-119676204D01*
X107985000Y-119675000D01*
X109185000Y-119675000D01*
X109209504Y-119676204D01*
G37*
G04 #@! TD.AperFunction*
D19*
X156845000Y-105410000D03*
X154305000Y-105410000D03*
X156845000Y-102870000D03*
X154305000Y-102870000D03*
X156845000Y-100330000D03*
X154305000Y-100330000D03*
X156845000Y-97790000D03*
X154305000Y-97790000D03*
X156845000Y-95250000D03*
X154305000Y-95250000D03*
X156845000Y-92710000D03*
X154305000Y-92710000D03*
X156845000Y-90170000D03*
D20*
X154305000Y-90170000D03*
D21*
X155575000Y-114300000D03*
X155575000Y-81280000D03*
D17*
X105570000Y-83185000D03*
X108070000Y-83185000D03*
X110570000Y-83185000D03*
X113070000Y-83185000D03*
G04 #@! TA.AperFunction,ComponentPad*
D18*
G36*
X116194504Y-82211204D02*
G01*
X116218773Y-82214804D01*
X116242571Y-82220765D01*
X116265671Y-82229030D01*
X116287849Y-82239520D01*
X116308893Y-82252133D01*
X116328598Y-82266747D01*
X116346777Y-82283223D01*
X116363253Y-82301402D01*
X116377867Y-82321107D01*
X116390480Y-82342151D01*
X116400970Y-82364329D01*
X116409235Y-82387429D01*
X116415196Y-82411227D01*
X116418796Y-82435496D01*
X116420000Y-82460000D01*
X116420000Y-83910000D01*
X116418796Y-83934504D01*
X116415196Y-83958773D01*
X116409235Y-83982571D01*
X116400970Y-84005671D01*
X116390480Y-84027849D01*
X116377867Y-84048893D01*
X116363253Y-84068598D01*
X116346777Y-84086777D01*
X116328598Y-84103253D01*
X116308893Y-84117867D01*
X116287849Y-84130480D01*
X116265671Y-84140970D01*
X116242571Y-84149235D01*
X116218773Y-84155196D01*
X116194504Y-84158796D01*
X116170000Y-84160000D01*
X114970000Y-84160000D01*
X114945496Y-84158796D01*
X114921227Y-84155196D01*
X114897429Y-84149235D01*
X114874329Y-84140970D01*
X114852151Y-84130480D01*
X114831107Y-84117867D01*
X114811402Y-84103253D01*
X114793223Y-84086777D01*
X114776747Y-84068598D01*
X114762133Y-84048893D01*
X114749520Y-84027849D01*
X114739030Y-84005671D01*
X114730765Y-83982571D01*
X114724804Y-83958773D01*
X114721204Y-83934504D01*
X114720000Y-83910000D01*
X114720000Y-82460000D01*
X114721204Y-82435496D01*
X114724804Y-82411227D01*
X114730765Y-82387429D01*
X114739030Y-82364329D01*
X114749520Y-82342151D01*
X114762133Y-82321107D01*
X114776747Y-82301402D01*
X114793223Y-82283223D01*
X114811402Y-82266747D01*
X114831107Y-82252133D01*
X114852151Y-82239520D01*
X114874329Y-82229030D01*
X114897429Y-82220765D01*
X114921227Y-82214804D01*
X114945496Y-82211204D01*
X114970000Y-82210000D01*
X116170000Y-82210000D01*
X116194504Y-82211204D01*
G37*
G04 #@! TD.AperFunction*
D17*
X124065000Y-88265000D03*
X126565000Y-88265000D03*
X129065000Y-88265000D03*
X131565000Y-88265000D03*
X134065000Y-88265000D03*
X136565000Y-88265000D03*
G04 #@! TA.AperFunction,ComponentPad*
D18*
G36*
X139689504Y-87291204D02*
G01*
X139713773Y-87294804D01*
X139737571Y-87300765D01*
X139760671Y-87309030D01*
X139782849Y-87319520D01*
X139803893Y-87332133D01*
X139823598Y-87346747D01*
X139841777Y-87363223D01*
X139858253Y-87381402D01*
X139872867Y-87401107D01*
X139885480Y-87422151D01*
X139895970Y-87444329D01*
X139904235Y-87467429D01*
X139910196Y-87491227D01*
X139913796Y-87515496D01*
X139915000Y-87540000D01*
X139915000Y-88990000D01*
X139913796Y-89014504D01*
X139910196Y-89038773D01*
X139904235Y-89062571D01*
X139895970Y-89085671D01*
X139885480Y-89107849D01*
X139872867Y-89128893D01*
X139858253Y-89148598D01*
X139841777Y-89166777D01*
X139823598Y-89183253D01*
X139803893Y-89197867D01*
X139782849Y-89210480D01*
X139760671Y-89220970D01*
X139737571Y-89229235D01*
X139713773Y-89235196D01*
X139689504Y-89238796D01*
X139665000Y-89240000D01*
X138465000Y-89240000D01*
X138440496Y-89238796D01*
X138416227Y-89235196D01*
X138392429Y-89229235D01*
X138369329Y-89220970D01*
X138347151Y-89210480D01*
X138326107Y-89197867D01*
X138306402Y-89183253D01*
X138288223Y-89166777D01*
X138271747Y-89148598D01*
X138257133Y-89128893D01*
X138244520Y-89107849D01*
X138234030Y-89085671D01*
X138225765Y-89062571D01*
X138219804Y-89038773D01*
X138216204Y-89014504D01*
X138215000Y-88990000D01*
X138215000Y-87540000D01*
X138216204Y-87515496D01*
X138219804Y-87491227D01*
X138225765Y-87467429D01*
X138234030Y-87444329D01*
X138244520Y-87422151D01*
X138257133Y-87401107D01*
X138271747Y-87381402D01*
X138288223Y-87363223D01*
X138306402Y-87346747D01*
X138326107Y-87332133D01*
X138347151Y-87319520D01*
X138369329Y-87309030D01*
X138392429Y-87300765D01*
X138416227Y-87294804D01*
X138440496Y-87291204D01*
X138465000Y-87290000D01*
X139665000Y-87290000D01*
X139689504Y-87291204D01*
G37*
G04 #@! TD.AperFunction*
D17*
X124065000Y-80645000D03*
X126565000Y-80645000D03*
X129065000Y-80645000D03*
X131565000Y-80645000D03*
X134065000Y-80645000D03*
X136565000Y-80645000D03*
G04 #@! TA.AperFunction,ComponentPad*
D18*
G36*
X139689504Y-79671204D02*
G01*
X139713773Y-79674804D01*
X139737571Y-79680765D01*
X139760671Y-79689030D01*
X139782849Y-79699520D01*
X139803893Y-79712133D01*
X139823598Y-79726747D01*
X139841777Y-79743223D01*
X139858253Y-79761402D01*
X139872867Y-79781107D01*
X139885480Y-79802151D01*
X139895970Y-79824329D01*
X139904235Y-79847429D01*
X139910196Y-79871227D01*
X139913796Y-79895496D01*
X139915000Y-79920000D01*
X139915000Y-81370000D01*
X139913796Y-81394504D01*
X139910196Y-81418773D01*
X139904235Y-81442571D01*
X139895970Y-81465671D01*
X139885480Y-81487849D01*
X139872867Y-81508893D01*
X139858253Y-81528598D01*
X139841777Y-81546777D01*
X139823598Y-81563253D01*
X139803893Y-81577867D01*
X139782849Y-81590480D01*
X139760671Y-81600970D01*
X139737571Y-81609235D01*
X139713773Y-81615196D01*
X139689504Y-81618796D01*
X139665000Y-81620000D01*
X138465000Y-81620000D01*
X138440496Y-81618796D01*
X138416227Y-81615196D01*
X138392429Y-81609235D01*
X138369329Y-81600970D01*
X138347151Y-81590480D01*
X138326107Y-81577867D01*
X138306402Y-81563253D01*
X138288223Y-81546777D01*
X138271747Y-81528598D01*
X138257133Y-81508893D01*
X138244520Y-81487849D01*
X138234030Y-81465671D01*
X138225765Y-81442571D01*
X138219804Y-81418773D01*
X138216204Y-81394504D01*
X138215000Y-81370000D01*
X138215000Y-79920000D01*
X138216204Y-79895496D01*
X138219804Y-79871227D01*
X138225765Y-79847429D01*
X138234030Y-79824329D01*
X138244520Y-79802151D01*
X138257133Y-79781107D01*
X138271747Y-79761402D01*
X138288223Y-79743223D01*
X138306402Y-79726747D01*
X138326107Y-79712133D01*
X138347151Y-79699520D01*
X138369329Y-79689030D01*
X138392429Y-79680765D01*
X138416227Y-79674804D01*
X138440496Y-79671204D01*
X138465000Y-79670000D01*
X139665000Y-79670000D01*
X139689504Y-79671204D01*
G37*
G04 #@! TD.AperFunction*
D22*
X146050000Y-100450000D03*
X146050000Y-102950000D03*
X146050000Y-105450000D03*
X146050000Y-107950000D03*
G04 #@! TA.AperFunction,ComponentPad*
D18*
G36*
X146799504Y-109601204D02*
G01*
X146823773Y-109604804D01*
X146847571Y-109610765D01*
X146870671Y-109619030D01*
X146892849Y-109629520D01*
X146913893Y-109642133D01*
X146933598Y-109656747D01*
X146951777Y-109673223D01*
X146968253Y-109691402D01*
X146982867Y-109711107D01*
X146995480Y-109732151D01*
X147005970Y-109754329D01*
X147014235Y-109777429D01*
X147020196Y-109801227D01*
X147023796Y-109825496D01*
X147025000Y-109850000D01*
X147025000Y-111050000D01*
X147023796Y-111074504D01*
X147020196Y-111098773D01*
X147014235Y-111122571D01*
X147005970Y-111145671D01*
X146995480Y-111167849D01*
X146982867Y-111188893D01*
X146968253Y-111208598D01*
X146951777Y-111226777D01*
X146933598Y-111243253D01*
X146913893Y-111257867D01*
X146892849Y-111270480D01*
X146870671Y-111280970D01*
X146847571Y-111289235D01*
X146823773Y-111295196D01*
X146799504Y-111298796D01*
X146775000Y-111300000D01*
X145325000Y-111300000D01*
X145300496Y-111298796D01*
X145276227Y-111295196D01*
X145252429Y-111289235D01*
X145229329Y-111280970D01*
X145207151Y-111270480D01*
X145186107Y-111257867D01*
X145166402Y-111243253D01*
X145148223Y-111226777D01*
X145131747Y-111208598D01*
X145117133Y-111188893D01*
X145104520Y-111167849D01*
X145094030Y-111145671D01*
X145085765Y-111122571D01*
X145079804Y-111098773D01*
X145076204Y-111074504D01*
X145075000Y-111050000D01*
X145075000Y-109850000D01*
X145076204Y-109825496D01*
X145079804Y-109801227D01*
X145085765Y-109777429D01*
X145094030Y-109754329D01*
X145104520Y-109732151D01*
X145117133Y-109711107D01*
X145131747Y-109691402D01*
X145148223Y-109673223D01*
X145166402Y-109656747D01*
X145186107Y-109642133D01*
X145207151Y-109629520D01*
X145229329Y-109619030D01*
X145252429Y-109610765D01*
X145276227Y-109604804D01*
X145300496Y-109601204D01*
X145325000Y-109600000D01*
X146775000Y-109600000D01*
X146799504Y-109601204D01*
G37*
G04 #@! TD.AperFunction*
D22*
X138430000Y-100410000D03*
X138430000Y-102910000D03*
X138430000Y-105410000D03*
X138430000Y-107910000D03*
G04 #@! TA.AperFunction,ComponentPad*
D18*
G36*
X139179504Y-109561204D02*
G01*
X139203773Y-109564804D01*
X139227571Y-109570765D01*
X139250671Y-109579030D01*
X139272849Y-109589520D01*
X139293893Y-109602133D01*
X139313598Y-109616747D01*
X139331777Y-109633223D01*
X139348253Y-109651402D01*
X139362867Y-109671107D01*
X139375480Y-109692151D01*
X139385970Y-109714329D01*
X139394235Y-109737429D01*
X139400196Y-109761227D01*
X139403796Y-109785496D01*
X139405000Y-109810000D01*
X139405000Y-111010000D01*
X139403796Y-111034504D01*
X139400196Y-111058773D01*
X139394235Y-111082571D01*
X139385970Y-111105671D01*
X139375480Y-111127849D01*
X139362867Y-111148893D01*
X139348253Y-111168598D01*
X139331777Y-111186777D01*
X139313598Y-111203253D01*
X139293893Y-111217867D01*
X139272849Y-111230480D01*
X139250671Y-111240970D01*
X139227571Y-111249235D01*
X139203773Y-111255196D01*
X139179504Y-111258796D01*
X139155000Y-111260000D01*
X137705000Y-111260000D01*
X137680496Y-111258796D01*
X137656227Y-111255196D01*
X137632429Y-111249235D01*
X137609329Y-111240970D01*
X137587151Y-111230480D01*
X137566107Y-111217867D01*
X137546402Y-111203253D01*
X137528223Y-111186777D01*
X137511747Y-111168598D01*
X137497133Y-111148893D01*
X137484520Y-111127849D01*
X137474030Y-111105671D01*
X137465765Y-111082571D01*
X137459804Y-111058773D01*
X137456204Y-111034504D01*
X137455000Y-111010000D01*
X137455000Y-109810000D01*
X137456204Y-109785496D01*
X137459804Y-109761227D01*
X137465765Y-109737429D01*
X137474030Y-109714329D01*
X137484520Y-109692151D01*
X137497133Y-109671107D01*
X137511747Y-109651402D01*
X137528223Y-109633223D01*
X137546402Y-109616747D01*
X137566107Y-109602133D01*
X137587151Y-109589520D01*
X137609329Y-109579030D01*
X137632429Y-109570765D01*
X137656227Y-109564804D01*
X137680496Y-109561204D01*
X137705000Y-109560000D01*
X139155000Y-109560000D01*
X139179504Y-109561204D01*
G37*
G04 #@! TD.AperFunction*
D22*
X130810000Y-100370000D03*
X130810000Y-102870000D03*
X130810000Y-105370000D03*
X130810000Y-107870000D03*
G04 #@! TA.AperFunction,ComponentPad*
D18*
G36*
X131559504Y-109521204D02*
G01*
X131583773Y-109524804D01*
X131607571Y-109530765D01*
X131630671Y-109539030D01*
X131652849Y-109549520D01*
X131673893Y-109562133D01*
X131693598Y-109576747D01*
X131711777Y-109593223D01*
X131728253Y-109611402D01*
X131742867Y-109631107D01*
X131755480Y-109652151D01*
X131765970Y-109674329D01*
X131774235Y-109697429D01*
X131780196Y-109721227D01*
X131783796Y-109745496D01*
X131785000Y-109770000D01*
X131785000Y-110970000D01*
X131783796Y-110994504D01*
X131780196Y-111018773D01*
X131774235Y-111042571D01*
X131765970Y-111065671D01*
X131755480Y-111087849D01*
X131742867Y-111108893D01*
X131728253Y-111128598D01*
X131711777Y-111146777D01*
X131693598Y-111163253D01*
X131673893Y-111177867D01*
X131652849Y-111190480D01*
X131630671Y-111200970D01*
X131607571Y-111209235D01*
X131583773Y-111215196D01*
X131559504Y-111218796D01*
X131535000Y-111220000D01*
X130085000Y-111220000D01*
X130060496Y-111218796D01*
X130036227Y-111215196D01*
X130012429Y-111209235D01*
X129989329Y-111200970D01*
X129967151Y-111190480D01*
X129946107Y-111177867D01*
X129926402Y-111163253D01*
X129908223Y-111146777D01*
X129891747Y-111128598D01*
X129877133Y-111108893D01*
X129864520Y-111087849D01*
X129854030Y-111065671D01*
X129845765Y-111042571D01*
X129839804Y-111018773D01*
X129836204Y-110994504D01*
X129835000Y-110970000D01*
X129835000Y-109770000D01*
X129836204Y-109745496D01*
X129839804Y-109721227D01*
X129845765Y-109697429D01*
X129854030Y-109674329D01*
X129864520Y-109652151D01*
X129877133Y-109631107D01*
X129891747Y-109611402D01*
X129908223Y-109593223D01*
X129926402Y-109576747D01*
X129946107Y-109562133D01*
X129967151Y-109549520D01*
X129989329Y-109539030D01*
X130012429Y-109530765D01*
X130036227Y-109524804D01*
X130060496Y-109521204D01*
X130085000Y-109520000D01*
X131535000Y-109520000D01*
X131559504Y-109521204D01*
G37*
G04 #@! TD.AperFunction*
D23*
X115239800Y-89433400D03*
X130810000Y-100370000D03*
X133350000Y-91186000D03*
X133350000Y-94615000D03*
X149860000Y-77470000D03*
X145542000Y-77470000D03*
X142748000Y-77470000D03*
D24*
X103620000Y-81235000D02*
X105570000Y-83185000D01*
X103620000Y-73850000D02*
X103620000Y-81235000D01*
X123940000Y-80520000D02*
X124065000Y-80645000D01*
X123940000Y-73850000D02*
X123940000Y-80520000D01*
X124065000Y-80645000D02*
X124065000Y-88265000D01*
X128565000Y-100370000D02*
X130810000Y-100370000D01*
X124065000Y-95870000D02*
X128565000Y-100370000D01*
X124065000Y-88265000D02*
X124065000Y-95870000D01*
X138390000Y-100370000D02*
X138430000Y-100410000D01*
X130810000Y-100370000D02*
X138390000Y-100370000D01*
X146010000Y-100410000D02*
X146050000Y-100450000D01*
X138430000Y-100410000D02*
X146010000Y-100410000D01*
X109573400Y-89433400D02*
X115239800Y-89433400D01*
X105570000Y-83185000D02*
X105570000Y-85430000D01*
X105570000Y-85430000D02*
X109573400Y-89433400D01*
D25*
X138390000Y-102990000D02*
X138430000Y-102950000D01*
X130810000Y-102990000D02*
X138390000Y-102990000D01*
X146010000Y-102950000D02*
X146050000Y-102990000D01*
X138430000Y-102950000D02*
X146010000Y-102950000D01*
X138390000Y-105490000D02*
X138430000Y-105450000D01*
X130810000Y-105490000D02*
X138390000Y-105490000D01*
X146010000Y-105450000D02*
X146050000Y-105490000D01*
X138430000Y-105450000D02*
X146010000Y-105450000D01*
X137828601Y-72661399D02*
X138316401Y-72173599D01*
X138316401Y-72173599D02*
X139180000Y-71310000D01*
X135288601Y-72661399D02*
X137828601Y-72661399D01*
X134100000Y-73850000D02*
X135288601Y-72661399D01*
D24*
X149860000Y-77470000D02*
X145542000Y-77470000D01*
X145542000Y-77470000D02*
X142748000Y-77470000D01*
X133350000Y-91186000D02*
X133350000Y-94615000D01*
D25*
X108070000Y-81960000D02*
X108070000Y-83185000D01*
X110051399Y-79978601D02*
X108070000Y-81960000D01*
X110051399Y-72498601D02*
X110051399Y-79978601D01*
X111240000Y-71310000D02*
X110051399Y-72498601D01*
X112591399Y-79938601D02*
X110570000Y-81960000D01*
X110570000Y-81960000D02*
X110570000Y-83185000D01*
X112591399Y-72498601D02*
X112591399Y-79938601D01*
X113780000Y-71310000D02*
X112591399Y-72498601D01*
D26*
X107962599Y-110197799D02*
X107162600Y-109397800D01*
X108337201Y-110572401D02*
X107962599Y-110197799D01*
X108337201Y-113584801D02*
X108337201Y-110572401D01*
X107952202Y-113969800D02*
X108337201Y-113584801D01*
X107137200Y-113969800D02*
X107952202Y-113969800D01*
X107962599Y-108597801D02*
X107162600Y-109397800D01*
X117183599Y-99376801D02*
X107962599Y-108597801D01*
X117183599Y-74713599D02*
X117183599Y-99376801D01*
X116320000Y-73850000D02*
X117183599Y-74713599D01*
X114363399Y-110197799D02*
X113563400Y-109397800D01*
X114738001Y-113661001D02*
X114738001Y-110572401D01*
X114353002Y-114046000D02*
X114738001Y-113661001D01*
X114738001Y-110572401D02*
X114363399Y-110197799D01*
X113538000Y-114046000D02*
X114353002Y-114046000D01*
X118860000Y-104101200D02*
X113563400Y-109397800D01*
X118860000Y-73850000D02*
X118860000Y-104101200D01*
X120713399Y-110146999D02*
X119913400Y-109347000D01*
X121088001Y-113457801D02*
X121088001Y-110521601D01*
X121088001Y-110521601D02*
X120713399Y-110146999D01*
X120703002Y-113842800D02*
X121088001Y-113457801D01*
X119888000Y-113842800D02*
X120703002Y-113842800D01*
X121400000Y-107860400D02*
X119913400Y-109347000D01*
X121400000Y-73850000D02*
X121400000Y-107860400D01*
D27*
X126480000Y-80560000D02*
X126565000Y-80645000D01*
X126480000Y-73850000D02*
X126480000Y-80560000D01*
X126565000Y-88265000D02*
X126565000Y-80645000D01*
X129020000Y-80600000D02*
X129065000Y-80645000D01*
X129020000Y-73850000D02*
X129020000Y-80600000D01*
X129065000Y-88265000D02*
X129065000Y-80645000D01*
X131560000Y-80640000D02*
X131565000Y-80645000D01*
X131560000Y-73850000D02*
X131560000Y-80640000D01*
X131565000Y-80645000D02*
X131565000Y-88265000D01*
X119888000Y-116847000D02*
X116085000Y-120650000D01*
X119888000Y-115112800D02*
X119888000Y-116847000D01*
X113538000Y-120603000D02*
X113585000Y-120650000D01*
X113538000Y-115316000D02*
X113538000Y-120603000D01*
X111085000Y-119187600D02*
X111085000Y-120650000D01*
X107137200Y-115239800D02*
X111085000Y-119187600D01*
D28*
G36*
X157699016Y-69312312D02*
G01*
X158130930Y-69442714D01*
X158529285Y-69654524D01*
X158878914Y-69939675D01*
X159166497Y-70287303D01*
X159381086Y-70684177D01*
X159514498Y-71115161D01*
X159565000Y-71595654D01*
X159565000Y-71943939D01*
X159524131Y-71738477D01*
X159306654Y-71213440D01*
X158990926Y-70740920D01*
X158589080Y-70339074D01*
X158116560Y-70023346D01*
X157591523Y-69805869D01*
X157034148Y-69695000D01*
X156465852Y-69695000D01*
X155908477Y-69805869D01*
X155383440Y-70023346D01*
X154910920Y-70339074D01*
X154509074Y-70740920D01*
X154193346Y-71213440D01*
X153975869Y-71738477D01*
X153865000Y-72295852D01*
X153865000Y-72864148D01*
X153975869Y-73421523D01*
X154193346Y-73946560D01*
X154509074Y-74419080D01*
X154910920Y-74820926D01*
X155383440Y-75136654D01*
X155908477Y-75354131D01*
X156465852Y-75465000D01*
X157034148Y-75465000D01*
X157591523Y-75354131D01*
X158116560Y-75136654D01*
X158589080Y-74820926D01*
X158990926Y-74419080D01*
X159306654Y-73946560D01*
X159524131Y-73421523D01*
X159565000Y-73216061D01*
X159565001Y-120943944D01*
X159524131Y-120738477D01*
X159306654Y-120213440D01*
X158990926Y-119740920D01*
X158589080Y-119339074D01*
X158116560Y-119023346D01*
X157591523Y-118805869D01*
X157034148Y-118695000D01*
X156465852Y-118695000D01*
X155908477Y-118805869D01*
X155383440Y-119023346D01*
X154910920Y-119339074D01*
X154509074Y-119740920D01*
X154193346Y-120213440D01*
X153975869Y-120738477D01*
X153865000Y-121295852D01*
X153865000Y-121864148D01*
X153975869Y-122421523D01*
X154193346Y-122946560D01*
X154509074Y-123419080D01*
X154910920Y-123820926D01*
X155383440Y-124136654D01*
X155908477Y-124354131D01*
X156113939Y-124395000D01*
X99386061Y-124395000D01*
X99591523Y-124354131D01*
X100116560Y-124136654D01*
X100589080Y-123820926D01*
X100990926Y-123419080D01*
X101306654Y-122946560D01*
X101524131Y-122421523D01*
X101635000Y-121864148D01*
X101635000Y-121625000D01*
X107096928Y-121625000D01*
X107109188Y-121749482D01*
X107145498Y-121869180D01*
X107204463Y-121979494D01*
X107283815Y-122076185D01*
X107380506Y-122155537D01*
X107490820Y-122214502D01*
X107610518Y-122250812D01*
X107735000Y-122263072D01*
X108299250Y-122260000D01*
X108458000Y-122101250D01*
X108458000Y-120777000D01*
X107258750Y-120777000D01*
X107100000Y-120935750D01*
X107096928Y-121625000D01*
X101635000Y-121625000D01*
X101635000Y-121295852D01*
X101524131Y-120738477D01*
X101306654Y-120213440D01*
X100990926Y-119740920D01*
X100925006Y-119675000D01*
X107096928Y-119675000D01*
X107100000Y-120364250D01*
X107258750Y-120523000D01*
X108458000Y-120523000D01*
X108458000Y-119198750D01*
X108299250Y-119040000D01*
X107735000Y-119036928D01*
X107610518Y-119049188D01*
X107490820Y-119085498D01*
X107380506Y-119144463D01*
X107283815Y-119223815D01*
X107204463Y-119320506D01*
X107145498Y-119430820D01*
X107109188Y-119550518D01*
X107096928Y-119675000D01*
X100925006Y-119675000D01*
X100589080Y-119339074D01*
X100116560Y-119023346D01*
X99591523Y-118805869D01*
X99034148Y-118695000D01*
X98465852Y-118695000D01*
X97908477Y-118805869D01*
X97383440Y-119023346D01*
X96910920Y-119339074D01*
X96509074Y-119740920D01*
X96193346Y-120213440D01*
X95975869Y-120738477D01*
X95935000Y-120943939D01*
X95935000Y-106613505D01*
X95944222Y-106519453D01*
X95961805Y-106461214D01*
X95990366Y-106407499D01*
X96028816Y-106360354D01*
X96075691Y-106321576D01*
X96129204Y-106292642D01*
X96187323Y-106274651D01*
X96279145Y-106265000D01*
X99283647Y-106265000D01*
X99312955Y-106262113D01*
X99319066Y-106262156D01*
X99328585Y-106261223D01*
X99522682Y-106240822D01*
X99583496Y-106228339D01*
X99644481Y-106216705D01*
X99653637Y-106213941D01*
X99840075Y-106156229D01*
X99897279Y-106132182D01*
X99954873Y-106108913D01*
X99963317Y-106104423D01*
X100134994Y-106011598D01*
X100186468Y-105976878D01*
X100238418Y-105942883D01*
X100245829Y-105936839D01*
X100396207Y-105812435D01*
X100439973Y-105768362D01*
X100484311Y-105724943D01*
X100490408Y-105717574D01*
X100613758Y-105566332D01*
X100648126Y-105514603D01*
X100683191Y-105463392D01*
X100687739Y-105454981D01*
X100687740Y-105454980D01*
X100687742Y-105454976D01*
X100779366Y-105282657D01*
X100803022Y-105225261D01*
X100827482Y-105168193D01*
X100830310Y-105159056D01*
X100886719Y-104972220D01*
X100898780Y-104911310D01*
X100911686Y-104850591D01*
X100912686Y-104841079D01*
X100931731Y-104646845D01*
X100931731Y-104646837D01*
X100935000Y-104613647D01*
X100935000Y-89546353D01*
X100932113Y-89517045D01*
X100932156Y-89510933D01*
X100931223Y-89501415D01*
X100910822Y-89307318D01*
X100898339Y-89246504D01*
X100886705Y-89185519D01*
X100883941Y-89176363D01*
X100826229Y-88989925D01*
X100802170Y-88932692D01*
X100778913Y-88875127D01*
X100774423Y-88866682D01*
X100681598Y-88695006D01*
X100646878Y-88643532D01*
X100612883Y-88591582D01*
X100606838Y-88584170D01*
X100482435Y-88433793D01*
X100438362Y-88390027D01*
X100394943Y-88345689D01*
X100387574Y-88339592D01*
X100236332Y-88216242D01*
X100184614Y-88181881D01*
X100133393Y-88146809D01*
X100124980Y-88142260D01*
X99952657Y-88050635D01*
X99895261Y-88026978D01*
X99838193Y-88002519D01*
X99829057Y-87999690D01*
X99642220Y-87943281D01*
X99581302Y-87931219D01*
X99520590Y-87918314D01*
X99511078Y-87917314D01*
X99316845Y-87898269D01*
X99316837Y-87898269D01*
X99283647Y-87895000D01*
X96283505Y-87895000D01*
X96189454Y-87885778D01*
X96131213Y-87868194D01*
X96077500Y-87839635D01*
X96030354Y-87801183D01*
X95991577Y-87754310D01*
X95962642Y-87700796D01*
X95944651Y-87642677D01*
X95935000Y-87550855D01*
X95935000Y-73216061D01*
X95975869Y-73421523D01*
X96193346Y-73946560D01*
X96509074Y-74419080D01*
X96910920Y-74820926D01*
X97383440Y-75136654D01*
X97908477Y-75354131D01*
X98465852Y-75465000D01*
X99034148Y-75465000D01*
X99591523Y-75354131D01*
X100116560Y-75136654D01*
X100589080Y-74820926D01*
X100990926Y-74419080D01*
X101306654Y-73946560D01*
X101524131Y-73421523D01*
X101610682Y-72986400D01*
X102118328Y-72986400D01*
X102118328Y-74713600D01*
X102130588Y-74838082D01*
X102166898Y-74957780D01*
X102225863Y-75068094D01*
X102305215Y-75164785D01*
X102350000Y-75201539D01*
X102350001Y-81172617D01*
X102343857Y-81235000D01*
X102368377Y-81483963D01*
X102428270Y-81681401D01*
X102440998Y-81723359D01*
X102558926Y-81943988D01*
X102717631Y-82137370D01*
X102766086Y-82177136D01*
X104097357Y-83508407D01*
X104106487Y-83601110D01*
X104191401Y-83881033D01*
X104300000Y-84084208D01*
X104300001Y-85367618D01*
X104293857Y-85430000D01*
X104318377Y-85678963D01*
X104390998Y-85918359D01*
X104508926Y-86138988D01*
X104667631Y-86332370D01*
X104716087Y-86372137D01*
X108631263Y-90287314D01*
X108671030Y-90335770D01*
X108864412Y-90494475D01*
X109085041Y-90612403D01*
X109324437Y-90685023D01*
X109573400Y-90709544D01*
X109635780Y-90703400D01*
X115302180Y-90703400D01*
X115488763Y-90685023D01*
X115728159Y-90612403D01*
X115948788Y-90494475D01*
X116142170Y-90335770D01*
X116298600Y-90145161D01*
X116298600Y-99010221D01*
X108596730Y-106712092D01*
X108542453Y-106439226D01*
X108434280Y-106178073D01*
X108277237Y-105943041D01*
X108077359Y-105743163D01*
X107842327Y-105586120D01*
X107581174Y-105477947D01*
X107303935Y-105422800D01*
X107021265Y-105422800D01*
X106744026Y-105477947D01*
X106482873Y-105586120D01*
X106247841Y-105743163D01*
X106047963Y-105943041D01*
X105890920Y-106178073D01*
X105782747Y-106439226D01*
X105727600Y-106716465D01*
X105727600Y-106999135D01*
X105782747Y-107276374D01*
X105890920Y-107537527D01*
X106047963Y-107772559D01*
X106247841Y-107972437D01*
X106480359Y-108127800D01*
X106247841Y-108283163D01*
X106047963Y-108483041D01*
X105890920Y-108718073D01*
X105782747Y-108979226D01*
X105727600Y-109256465D01*
X105727600Y-109539135D01*
X105782747Y-109816374D01*
X105890920Y-110077527D01*
X106047963Y-110312559D01*
X106247841Y-110512437D01*
X106482873Y-110669480D01*
X106744026Y-110777653D01*
X107021265Y-110832800D01*
X107303935Y-110832800D01*
X107339038Y-110825817D01*
X107367552Y-110854331D01*
X107367558Y-110854336D01*
X107452202Y-110938980D01*
X107452202Y-111536728D01*
X106387200Y-111536728D01*
X106262718Y-111548988D01*
X106143020Y-111585298D01*
X106032706Y-111644263D01*
X105936015Y-111723615D01*
X105856663Y-111820306D01*
X105797698Y-111930620D01*
X105761388Y-112050318D01*
X105749128Y-112174800D01*
X105749128Y-113224800D01*
X105761388Y-113349282D01*
X105797698Y-113468980D01*
X105832293Y-113533702D01*
X105768985Y-113742400D01*
X105746588Y-113969800D01*
X105768985Y-114197200D01*
X105835315Y-114415860D01*
X105936305Y-114604800D01*
X105835315Y-114793740D01*
X105768985Y-115012400D01*
X105746588Y-115239800D01*
X105768985Y-115467200D01*
X105835315Y-115685860D01*
X105943029Y-115887379D01*
X106087988Y-116064012D01*
X106264621Y-116208971D01*
X106466140Y-116316685D01*
X106671140Y-116378871D01*
X109329769Y-119037501D01*
X108870750Y-119040000D01*
X108712000Y-119198750D01*
X108712000Y-120523000D01*
X108732000Y-120523000D01*
X108732000Y-120777000D01*
X108712000Y-120777000D01*
X108712000Y-122101250D01*
X108870750Y-122260000D01*
X109435000Y-122263072D01*
X109559482Y-122250812D01*
X109679180Y-122214502D01*
X109789494Y-122155537D01*
X109886185Y-122076185D01*
X109965537Y-121979494D01*
X110024502Y-121869180D01*
X110035055Y-121834392D01*
X110255987Y-122015706D01*
X110513967Y-122153599D01*
X110793890Y-122238513D01*
X111085000Y-122267185D01*
X111376111Y-122238513D01*
X111656034Y-122153599D01*
X111914014Y-122015706D01*
X112140134Y-121830134D01*
X112325706Y-121604014D01*
X112335000Y-121586626D01*
X112344294Y-121604014D01*
X112529866Y-121830134D01*
X112755987Y-122015706D01*
X113013967Y-122153599D01*
X113293890Y-122238513D01*
X113585000Y-122267185D01*
X113876111Y-122238513D01*
X114156034Y-122153599D01*
X114414014Y-122015706D01*
X114640134Y-121830134D01*
X114825706Y-121604014D01*
X114835000Y-121586626D01*
X114844294Y-121604014D01*
X115029866Y-121830134D01*
X115255987Y-122015706D01*
X115513967Y-122153599D01*
X115793890Y-122238513D01*
X116085000Y-122267185D01*
X116376111Y-122238513D01*
X116656034Y-122153599D01*
X116914014Y-122015706D01*
X117140134Y-121830134D01*
X117325706Y-121604014D01*
X117463599Y-121346033D01*
X117548513Y-121066110D01*
X117570000Y-120847949D01*
X117570000Y-120770131D01*
X120651141Y-117688991D01*
X120694449Y-117653449D01*
X120836284Y-117480623D01*
X120941676Y-117283447D01*
X121006577Y-117069499D01*
X121023000Y-116902752D01*
X121023000Y-116902745D01*
X121028490Y-116847001D01*
X121023000Y-116791257D01*
X121023000Y-115832479D01*
X121082171Y-115760379D01*
X121189885Y-115558860D01*
X121256215Y-115340200D01*
X121278612Y-115112800D01*
X121256215Y-114885400D01*
X121189885Y-114666740D01*
X121156338Y-114603978D01*
X121197061Y-114582211D01*
X121331819Y-114471617D01*
X121359536Y-114437844D01*
X121683046Y-114114334D01*
X121716818Y-114086618D01*
X121813693Y-113968576D01*
X152210000Y-113968576D01*
X152210000Y-114631424D01*
X152339315Y-115281534D01*
X152592976Y-115893925D01*
X152961234Y-116445063D01*
X153429937Y-116913766D01*
X153981075Y-117282024D01*
X154593466Y-117535685D01*
X155243576Y-117665000D01*
X155906424Y-117665000D01*
X156556534Y-117535685D01*
X157168925Y-117282024D01*
X157720063Y-116913766D01*
X158188766Y-116445063D01*
X158557024Y-115893925D01*
X158810685Y-115281534D01*
X158940000Y-114631424D01*
X158940000Y-113968576D01*
X158810685Y-113318466D01*
X158557024Y-112706075D01*
X158188766Y-112154937D01*
X157720063Y-111686234D01*
X157168925Y-111317976D01*
X156556534Y-111064315D01*
X155906424Y-110935000D01*
X155243576Y-110935000D01*
X154593466Y-111064315D01*
X153981075Y-111317976D01*
X153429937Y-111686234D01*
X152961234Y-112154937D01*
X152592976Y-112706075D01*
X152339315Y-113318466D01*
X152210000Y-113968576D01*
X121813693Y-113968576D01*
X121827412Y-113951860D01*
X121909590Y-113798114D01*
X121960196Y-113631291D01*
X121973001Y-113501278D01*
X121973001Y-113501270D01*
X121977282Y-113457801D01*
X121973001Y-113414332D01*
X121973001Y-110565066D01*
X121977282Y-110521600D01*
X121973001Y-110478134D01*
X121973001Y-110478124D01*
X121960196Y-110348111D01*
X121909590Y-110181288D01*
X121827412Y-110027542D01*
X121716818Y-109892784D01*
X121683045Y-109865067D01*
X121369936Y-109551958D01*
X121369931Y-109551952D01*
X121341417Y-109523438D01*
X121348400Y-109488335D01*
X121348400Y-109205665D01*
X121341417Y-109170561D01*
X121995049Y-108516930D01*
X122028817Y-108489217D01*
X122075577Y-108432241D01*
X122139411Y-108354459D01*
X122221588Y-108200714D01*
X122221589Y-108200713D01*
X122272195Y-108033890D01*
X122285000Y-107903877D01*
X122285000Y-107903869D01*
X122289281Y-107860400D01*
X122285000Y-107816931D01*
X122285000Y-75061013D01*
X122355302Y-75014039D01*
X122564039Y-74805302D01*
X122670000Y-74646719D01*
X122670000Y-74646720D01*
X122670001Y-80003030D01*
X122601487Y-80228889D01*
X122580000Y-80447050D01*
X122580000Y-80842949D01*
X122601487Y-81061110D01*
X122686401Y-81341033D01*
X122795000Y-81544208D01*
X122795001Y-87365790D01*
X122686401Y-87568966D01*
X122601487Y-87848889D01*
X122580000Y-88067050D01*
X122580000Y-88462949D01*
X122601487Y-88681110D01*
X122686401Y-88961033D01*
X122795000Y-89164208D01*
X122795001Y-95807617D01*
X122788857Y-95870000D01*
X122813377Y-96118963D01*
X122878477Y-96333567D01*
X122885998Y-96358359D01*
X123003926Y-96578988D01*
X123162631Y-96772370D01*
X123211087Y-96812137D01*
X127622863Y-101223914D01*
X127662630Y-101272370D01*
X127856012Y-101431075D01*
X128076641Y-101549003D01*
X128243416Y-101599594D01*
X128316036Y-101621623D01*
X128341755Y-101624156D01*
X128502620Y-101640000D01*
X128502626Y-101640000D01*
X128564999Y-101646143D01*
X128627372Y-101640000D01*
X129842941Y-101640000D01*
X129629866Y-101814866D01*
X129444294Y-102040986D01*
X129306401Y-102298966D01*
X129221487Y-102578889D01*
X129192815Y-102870000D01*
X129221487Y-103161111D01*
X129306401Y-103441034D01*
X129444294Y-103699014D01*
X129629866Y-103925134D01*
X129855986Y-104110706D01*
X129873374Y-104120000D01*
X129855986Y-104129294D01*
X129629866Y-104314866D01*
X129444294Y-104540986D01*
X129306401Y-104798966D01*
X129221487Y-105078889D01*
X129192815Y-105370000D01*
X129221487Y-105661111D01*
X129306401Y-105941034D01*
X129444294Y-106199014D01*
X129629866Y-106425134D01*
X129855986Y-106610706D01*
X129873374Y-106620000D01*
X129855986Y-106629294D01*
X129629866Y-106814866D01*
X129444294Y-107040986D01*
X129306401Y-107298966D01*
X129221487Y-107578889D01*
X129192815Y-107870000D01*
X129221487Y-108161111D01*
X129306401Y-108441034D01*
X129444294Y-108699014D01*
X129629866Y-108925134D01*
X129693337Y-108977223D01*
X129591614Y-109031595D01*
X129457038Y-109142038D01*
X129346595Y-109276614D01*
X129264528Y-109430150D01*
X129213992Y-109596746D01*
X129196928Y-109770000D01*
X129196928Y-110970000D01*
X129213992Y-111143254D01*
X129264528Y-111309850D01*
X129346595Y-111463386D01*
X129457038Y-111597962D01*
X129591614Y-111708405D01*
X129745150Y-111790472D01*
X129911746Y-111841008D01*
X130085000Y-111858072D01*
X131535000Y-111858072D01*
X131708254Y-111841008D01*
X131874850Y-111790472D01*
X132028386Y-111708405D01*
X132162962Y-111597962D01*
X132273405Y-111463386D01*
X132355472Y-111309850D01*
X132406008Y-111143254D01*
X132423072Y-110970000D01*
X132423072Y-109770000D01*
X132406008Y-109596746D01*
X132355472Y-109430150D01*
X132273405Y-109276614D01*
X132162962Y-109142038D01*
X132028386Y-109031595D01*
X131926663Y-108977223D01*
X131990134Y-108925134D01*
X132175706Y-108699014D01*
X132313599Y-108441034D01*
X132398513Y-108161111D01*
X132427185Y-107870000D01*
X132398513Y-107578889D01*
X132313599Y-107298966D01*
X132175706Y-107040986D01*
X131990134Y-106814866D01*
X131764014Y-106629294D01*
X131746626Y-106620000D01*
X131764014Y-106610706D01*
X131990134Y-106425134D01*
X132133863Y-106250000D01*
X137073310Y-106250000D01*
X137249866Y-106465134D01*
X137475986Y-106650706D01*
X137493374Y-106660000D01*
X137475986Y-106669294D01*
X137249866Y-106854866D01*
X137064294Y-107080986D01*
X136926401Y-107338966D01*
X136841487Y-107618889D01*
X136812815Y-107910000D01*
X136841487Y-108201111D01*
X136926401Y-108481034D01*
X137064294Y-108739014D01*
X137249866Y-108965134D01*
X137313337Y-109017223D01*
X137211614Y-109071595D01*
X137077038Y-109182038D01*
X136966595Y-109316614D01*
X136884528Y-109470150D01*
X136833992Y-109636746D01*
X136816928Y-109810000D01*
X136816928Y-111010000D01*
X136833992Y-111183254D01*
X136884528Y-111349850D01*
X136966595Y-111503386D01*
X137077038Y-111637962D01*
X137211614Y-111748405D01*
X137365150Y-111830472D01*
X137531746Y-111881008D01*
X137705000Y-111898072D01*
X139155000Y-111898072D01*
X139328254Y-111881008D01*
X139494850Y-111830472D01*
X139648386Y-111748405D01*
X139782962Y-111637962D01*
X139893405Y-111503386D01*
X139975472Y-111349850D01*
X140026008Y-111183254D01*
X140043072Y-111010000D01*
X140043072Y-109810000D01*
X140026008Y-109636746D01*
X139975472Y-109470150D01*
X139893405Y-109316614D01*
X139782962Y-109182038D01*
X139648386Y-109071595D01*
X139546663Y-109017223D01*
X139610134Y-108965134D01*
X139795706Y-108739014D01*
X139933599Y-108481034D01*
X140018513Y-108201111D01*
X140047185Y-107910000D01*
X140018513Y-107618889D01*
X139933599Y-107338966D01*
X139795706Y-107080986D01*
X139610134Y-106854866D01*
X139384014Y-106669294D01*
X139366626Y-106660000D01*
X139384014Y-106650706D01*
X139610134Y-106465134D01*
X139795706Y-106239014D01*
X139811214Y-106210000D01*
X144647405Y-106210000D01*
X144684294Y-106279014D01*
X144869866Y-106505134D01*
X145095986Y-106690706D01*
X145113374Y-106700000D01*
X145095986Y-106709294D01*
X144869866Y-106894866D01*
X144684294Y-107120986D01*
X144546401Y-107378966D01*
X144461487Y-107658889D01*
X144432815Y-107950000D01*
X144461487Y-108241111D01*
X144546401Y-108521034D01*
X144684294Y-108779014D01*
X144869866Y-109005134D01*
X144933337Y-109057223D01*
X144831614Y-109111595D01*
X144697038Y-109222038D01*
X144586595Y-109356614D01*
X144504528Y-109510150D01*
X144453992Y-109676746D01*
X144436928Y-109850000D01*
X144436928Y-111050000D01*
X144453992Y-111223254D01*
X144504528Y-111389850D01*
X144586595Y-111543386D01*
X144697038Y-111677962D01*
X144831614Y-111788405D01*
X144985150Y-111870472D01*
X145151746Y-111921008D01*
X145325000Y-111938072D01*
X146775000Y-111938072D01*
X146948254Y-111921008D01*
X147114850Y-111870472D01*
X147268386Y-111788405D01*
X147402962Y-111677962D01*
X147513405Y-111543386D01*
X147595472Y-111389850D01*
X147646008Y-111223254D01*
X147663072Y-111050000D01*
X147663072Y-109850000D01*
X147646008Y-109676746D01*
X147595472Y-109510150D01*
X147513405Y-109356614D01*
X147402962Y-109222038D01*
X147268386Y-109111595D01*
X147166663Y-109057223D01*
X147230134Y-109005134D01*
X147415706Y-108779014D01*
X147553599Y-108521034D01*
X147638513Y-108241111D01*
X147667185Y-107950000D01*
X147638513Y-107658889D01*
X147553599Y-107378966D01*
X147415706Y-107120986D01*
X147230134Y-106894866D01*
X147004014Y-106709294D01*
X146986626Y-106700000D01*
X147004014Y-106690706D01*
X147230134Y-106505134D01*
X147415706Y-106279014D01*
X147553599Y-106021034D01*
X147638513Y-105741111D01*
X147667185Y-105450000D01*
X147638513Y-105158889D01*
X147553599Y-104878966D01*
X147415706Y-104620986D01*
X147230134Y-104394866D01*
X147004014Y-104209294D01*
X146986626Y-104200000D01*
X147004014Y-104190706D01*
X147230134Y-104005134D01*
X147415706Y-103779014D01*
X147553599Y-103521034D01*
X147638513Y-103241111D01*
X147667185Y-102950000D01*
X147638513Y-102658889D01*
X147553599Y-102378966D01*
X147415706Y-102120986D01*
X147230134Y-101894866D01*
X147004014Y-101709294D01*
X146986626Y-101700000D01*
X147004014Y-101690706D01*
X147230134Y-101505134D01*
X147415706Y-101279014D01*
X147553599Y-101021034D01*
X147638513Y-100741111D01*
X147667185Y-100450000D01*
X147638513Y-100158889D01*
X147553599Y-99878966D01*
X147415706Y-99620986D01*
X147230134Y-99394866D01*
X147004014Y-99209294D01*
X146746034Y-99071401D01*
X146466111Y-98986487D01*
X146247950Y-98965000D01*
X145852050Y-98965000D01*
X145633889Y-98986487D01*
X145353966Y-99071401D01*
X145225626Y-99140000D01*
X139329209Y-99140000D01*
X139126034Y-99031401D01*
X138846111Y-98946487D01*
X138627950Y-98925000D01*
X138232050Y-98925000D01*
X138013889Y-98946487D01*
X137733966Y-99031401D01*
X137605626Y-99100000D01*
X131709209Y-99100000D01*
X131506034Y-98991401D01*
X131226111Y-98906487D01*
X131007950Y-98885000D01*
X130612050Y-98885000D01*
X130393889Y-98906487D01*
X130113966Y-98991401D01*
X129910791Y-99100000D01*
X129091051Y-99100000D01*
X125335000Y-95343950D01*
X125335000Y-91123621D01*
X132080000Y-91123621D01*
X132080001Y-94677380D01*
X132098378Y-94863963D01*
X132170998Y-95103359D01*
X132288926Y-95323988D01*
X132447631Y-95517370D01*
X132641013Y-95676075D01*
X132861642Y-95794003D01*
X133101038Y-95866623D01*
X133350000Y-95891144D01*
X133598963Y-95866623D01*
X133838359Y-95794003D01*
X134058988Y-95676075D01*
X134252370Y-95517370D01*
X134411075Y-95323988D01*
X134524061Y-95112604D01*
X152910000Y-95112604D01*
X152910000Y-95387396D01*
X152963609Y-95656907D01*
X153068767Y-95910780D01*
X153221433Y-96139261D01*
X153415739Y-96333567D01*
X153644220Y-96486233D01*
X153725740Y-96520000D01*
X153644220Y-96553767D01*
X153415739Y-96706433D01*
X153221433Y-96900739D01*
X153068767Y-97129220D01*
X152963609Y-97383093D01*
X152910000Y-97652604D01*
X152910000Y-97927396D01*
X152963609Y-98196907D01*
X153068767Y-98450780D01*
X153221433Y-98679261D01*
X153415739Y-98873567D01*
X153644220Y-99026233D01*
X153725740Y-99060000D01*
X153644220Y-99093767D01*
X153415739Y-99246433D01*
X153221433Y-99440739D01*
X153068767Y-99669220D01*
X152963609Y-99923093D01*
X152910000Y-100192604D01*
X152910000Y-100467396D01*
X152963609Y-100736907D01*
X153068767Y-100990780D01*
X153221433Y-101219261D01*
X153415739Y-101413567D01*
X153644220Y-101566233D01*
X153725740Y-101600000D01*
X153644220Y-101633767D01*
X153415739Y-101786433D01*
X153221433Y-101980739D01*
X153068767Y-102209220D01*
X152963609Y-102463093D01*
X152910000Y-102732604D01*
X152910000Y-103007396D01*
X152963609Y-103276907D01*
X153068767Y-103530780D01*
X153221433Y-103759261D01*
X153415739Y-103953567D01*
X153644220Y-104106233D01*
X153725740Y-104140000D01*
X153644220Y-104173767D01*
X153415739Y-104326433D01*
X153221433Y-104520739D01*
X153068767Y-104749220D01*
X152963609Y-105003093D01*
X152910000Y-105272604D01*
X152910000Y-105547396D01*
X152963609Y-105816907D01*
X153068767Y-106070780D01*
X153221433Y-106299261D01*
X153415739Y-106493567D01*
X153644220Y-106646233D01*
X153898093Y-106751391D01*
X154167604Y-106805000D01*
X154442396Y-106805000D01*
X154711907Y-106751391D01*
X154965780Y-106646233D01*
X155194261Y-106493567D01*
X155388567Y-106299261D01*
X155541233Y-106070780D01*
X155575000Y-105989260D01*
X155608767Y-106070780D01*
X155761433Y-106299261D01*
X155955739Y-106493567D01*
X156184220Y-106646233D01*
X156438093Y-106751391D01*
X156707604Y-106805000D01*
X156982396Y-106805000D01*
X157251907Y-106751391D01*
X157505780Y-106646233D01*
X157734261Y-106493567D01*
X157928567Y-106299261D01*
X158081233Y-106070780D01*
X158186391Y-105816907D01*
X158240000Y-105547396D01*
X158240000Y-105272604D01*
X158186391Y-105003093D01*
X158081233Y-104749220D01*
X157928567Y-104520739D01*
X157734261Y-104326433D01*
X157505780Y-104173767D01*
X157424260Y-104140000D01*
X157505780Y-104106233D01*
X157734261Y-103953567D01*
X157928567Y-103759261D01*
X158081233Y-103530780D01*
X158186391Y-103276907D01*
X158240000Y-103007396D01*
X158240000Y-102732604D01*
X158186391Y-102463093D01*
X158081233Y-102209220D01*
X157928567Y-101980739D01*
X157734261Y-101786433D01*
X157505780Y-101633767D01*
X157424260Y-101600000D01*
X157505780Y-101566233D01*
X157734261Y-101413567D01*
X157928567Y-101219261D01*
X158081233Y-100990780D01*
X158186391Y-100736907D01*
X158240000Y-100467396D01*
X158240000Y-100192604D01*
X158186391Y-99923093D01*
X158081233Y-99669220D01*
X157928567Y-99440739D01*
X157734261Y-99246433D01*
X157505780Y-99093767D01*
X157424260Y-99060000D01*
X157505780Y-99026233D01*
X157734261Y-98873567D01*
X157928567Y-98679261D01*
X158081233Y-98450780D01*
X158186391Y-98196907D01*
X158240000Y-97927396D01*
X158240000Y-97652604D01*
X158186391Y-97383093D01*
X158081233Y-97129220D01*
X157928567Y-96900739D01*
X157734261Y-96706433D01*
X157505780Y-96553767D01*
X157424260Y-96520000D01*
X157505780Y-96486233D01*
X157734261Y-96333567D01*
X157928567Y-96139261D01*
X158081233Y-95910780D01*
X158186391Y-95656907D01*
X158240000Y-95387396D01*
X158240000Y-95112604D01*
X158186391Y-94843093D01*
X158081233Y-94589220D01*
X157928567Y-94360739D01*
X157734261Y-94166433D01*
X157505780Y-94013767D01*
X157429499Y-93982170D01*
X157447326Y-93975744D01*
X157562794Y-93914025D01*
X157629531Y-93674137D01*
X156845000Y-92889605D01*
X156060469Y-93674137D01*
X156127206Y-93914025D01*
X156266707Y-93979600D01*
X156184220Y-94013767D01*
X155955739Y-94166433D01*
X155761433Y-94360739D01*
X155608767Y-94589220D01*
X155575000Y-94670740D01*
X155541233Y-94589220D01*
X155388567Y-94360739D01*
X155194261Y-94166433D01*
X154965780Y-94013767D01*
X154889499Y-93982170D01*
X154907326Y-93975744D01*
X155022794Y-93914025D01*
X155089531Y-93674137D01*
X154305000Y-92889605D01*
X153520469Y-93674137D01*
X153587206Y-93914025D01*
X153726707Y-93979600D01*
X153644220Y-94013767D01*
X153415739Y-94166433D01*
X153221433Y-94360739D01*
X153068767Y-94589220D01*
X152963609Y-94843093D01*
X152910000Y-95112604D01*
X134524061Y-95112604D01*
X134529003Y-95103359D01*
X134601623Y-94863963D01*
X134620000Y-94677380D01*
X134620000Y-92782097D01*
X152905105Y-92782097D01*
X152946069Y-93053817D01*
X153039256Y-93312326D01*
X153100975Y-93427794D01*
X153340863Y-93494531D01*
X154125395Y-92710000D01*
X154484605Y-92710000D01*
X155269137Y-93494531D01*
X155509025Y-93427794D01*
X155572332Y-93293118D01*
X155579256Y-93312326D01*
X155640975Y-93427794D01*
X155880863Y-93494531D01*
X156665395Y-92710000D01*
X157024605Y-92710000D01*
X157809137Y-93494531D01*
X158049025Y-93427794D01*
X158165924Y-93179108D01*
X158232061Y-92912394D01*
X158244895Y-92637903D01*
X158203931Y-92366183D01*
X158110744Y-92107674D01*
X158049025Y-91992206D01*
X157809137Y-91925469D01*
X157024605Y-92710000D01*
X156665395Y-92710000D01*
X155880863Y-91925469D01*
X155640975Y-91992206D01*
X155577668Y-92126882D01*
X155570744Y-92107674D01*
X155509025Y-91992206D01*
X155269137Y-91925469D01*
X154484605Y-92710000D01*
X154125395Y-92710000D01*
X153340863Y-91925469D01*
X153100975Y-91992206D01*
X152984076Y-92240892D01*
X152917939Y-92507606D01*
X152905105Y-92782097D01*
X134620000Y-92782097D01*
X134620000Y-91123620D01*
X134601623Y-90937037D01*
X134599489Y-90930000D01*
X152906928Y-90930000D01*
X152919188Y-91054482D01*
X152955498Y-91174180D01*
X153014463Y-91284494D01*
X153093815Y-91381185D01*
X153190506Y-91460537D01*
X153300820Y-91519502D01*
X153420518Y-91555812D01*
X153545000Y-91568072D01*
X153569976Y-91567910D01*
X153520469Y-91745863D01*
X154305000Y-92530395D01*
X155089531Y-91745863D01*
X155040024Y-91567910D01*
X155065000Y-91568072D01*
X155189482Y-91555812D01*
X155309180Y-91519502D01*
X155419494Y-91460537D01*
X155516185Y-91381185D01*
X155595537Y-91284494D01*
X155654502Y-91174180D01*
X155666648Y-91134137D01*
X156060469Y-91134137D01*
X156127206Y-91374025D01*
X156261882Y-91437332D01*
X156242674Y-91444256D01*
X156127206Y-91505975D01*
X156060469Y-91745863D01*
X156845000Y-92530395D01*
X157629531Y-91745863D01*
X157562794Y-91505975D01*
X157428118Y-91442668D01*
X157447326Y-91435744D01*
X157562794Y-91374025D01*
X157629531Y-91134137D01*
X156845000Y-90349605D01*
X156060469Y-91134137D01*
X155666648Y-91134137D01*
X155690812Y-91054482D01*
X155703072Y-90930000D01*
X155702910Y-90905024D01*
X155880863Y-90954531D01*
X156665395Y-90170000D01*
X157024605Y-90170000D01*
X157809137Y-90954531D01*
X158049025Y-90887794D01*
X158165924Y-90639108D01*
X158232061Y-90372394D01*
X158244895Y-90097903D01*
X158203931Y-89826183D01*
X158110744Y-89567674D01*
X158049025Y-89452206D01*
X157809137Y-89385469D01*
X157024605Y-90170000D01*
X156665395Y-90170000D01*
X155880863Y-89385469D01*
X155702910Y-89434976D01*
X155703072Y-89410000D01*
X155690812Y-89285518D01*
X155666649Y-89205863D01*
X156060469Y-89205863D01*
X156845000Y-89990395D01*
X157629531Y-89205863D01*
X157562794Y-88965975D01*
X157314108Y-88849076D01*
X157047394Y-88782939D01*
X156772903Y-88770105D01*
X156501183Y-88811069D01*
X156242674Y-88904256D01*
X156127206Y-88965975D01*
X156060469Y-89205863D01*
X155666649Y-89205863D01*
X155654502Y-89165820D01*
X155595537Y-89055506D01*
X155516185Y-88958815D01*
X155419494Y-88879463D01*
X155309180Y-88820498D01*
X155189482Y-88784188D01*
X155065000Y-88771928D01*
X154590750Y-88775000D01*
X154432000Y-88933750D01*
X154432000Y-90043000D01*
X154452000Y-90043000D01*
X154452000Y-90297000D01*
X154432000Y-90297000D01*
X154432000Y-90317000D01*
X154178000Y-90317000D01*
X154178000Y-90297000D01*
X153068750Y-90297000D01*
X152910000Y-90455750D01*
X152906928Y-90930000D01*
X134599489Y-90930000D01*
X134529003Y-90697641D01*
X134411075Y-90477012D01*
X134252370Y-90283630D01*
X134058987Y-90124925D01*
X133838358Y-90006997D01*
X133598962Y-89934377D01*
X133350000Y-89909856D01*
X133101037Y-89934377D01*
X132861641Y-90006997D01*
X132641012Y-90124925D01*
X132447630Y-90283630D01*
X132288925Y-90477013D01*
X132170997Y-90697642D01*
X132098377Y-90937038D01*
X132080000Y-91123621D01*
X125335000Y-91123621D01*
X125335000Y-89232058D01*
X125509866Y-89445134D01*
X125735986Y-89630706D01*
X125993966Y-89768599D01*
X126273889Y-89853513D01*
X126565000Y-89882185D01*
X126856110Y-89853513D01*
X127136033Y-89768599D01*
X127394013Y-89630706D01*
X127620134Y-89445134D01*
X127805706Y-89219014D01*
X127815000Y-89201626D01*
X127824294Y-89219013D01*
X128009866Y-89445134D01*
X128235986Y-89630706D01*
X128493966Y-89768599D01*
X128773889Y-89853513D01*
X129065000Y-89882185D01*
X129356110Y-89853513D01*
X129636033Y-89768599D01*
X129894013Y-89630706D01*
X130120134Y-89445134D01*
X130305706Y-89219014D01*
X130315000Y-89201626D01*
X130324294Y-89219013D01*
X130509866Y-89445134D01*
X130735986Y-89630706D01*
X130993966Y-89768599D01*
X131273889Y-89853513D01*
X131565000Y-89882185D01*
X131856110Y-89853513D01*
X132136033Y-89768599D01*
X132394013Y-89630706D01*
X132620134Y-89445134D01*
X132805706Y-89219014D01*
X132815000Y-89201626D01*
X132824294Y-89219013D01*
X133009866Y-89445134D01*
X133235986Y-89630706D01*
X133493966Y-89768599D01*
X133773889Y-89853513D01*
X134065000Y-89882185D01*
X134356110Y-89853513D01*
X134636033Y-89768599D01*
X134894013Y-89630706D01*
X135120134Y-89445134D01*
X135305706Y-89219014D01*
X135315000Y-89201626D01*
X135324294Y-89219013D01*
X135509866Y-89445134D01*
X135735986Y-89630706D01*
X135993966Y-89768599D01*
X136273889Y-89853513D01*
X136565000Y-89882185D01*
X136856110Y-89853513D01*
X137136033Y-89768599D01*
X137394013Y-89630706D01*
X137620134Y-89445134D01*
X137672223Y-89381663D01*
X137726595Y-89483386D01*
X137837038Y-89617962D01*
X137971614Y-89728405D01*
X138125150Y-89810472D01*
X138291746Y-89861008D01*
X138465000Y-89878072D01*
X139665000Y-89878072D01*
X139838254Y-89861008D01*
X140004850Y-89810472D01*
X140158386Y-89728405D01*
X140292962Y-89617962D01*
X140403405Y-89483386D01*
X140442630Y-89410000D01*
X152906928Y-89410000D01*
X152910000Y-89884250D01*
X153068750Y-90043000D01*
X154178000Y-90043000D01*
X154178000Y-88933750D01*
X154019250Y-88775000D01*
X153545000Y-88771928D01*
X153420518Y-88784188D01*
X153300820Y-88820498D01*
X153190506Y-88879463D01*
X153093815Y-88958815D01*
X153014463Y-89055506D01*
X152955498Y-89165820D01*
X152919188Y-89285518D01*
X152906928Y-89410000D01*
X140442630Y-89410000D01*
X140485472Y-89329850D01*
X140536008Y-89163254D01*
X140553072Y-88990000D01*
X140553072Y-87540000D01*
X140536008Y-87366746D01*
X140485472Y-87200150D01*
X140403405Y-87046614D01*
X140292962Y-86912038D01*
X140158386Y-86801595D01*
X140004850Y-86719528D01*
X139838254Y-86668992D01*
X139665000Y-86651928D01*
X138465000Y-86651928D01*
X138291746Y-86668992D01*
X138125150Y-86719528D01*
X137971614Y-86801595D01*
X137837038Y-86912038D01*
X137726595Y-87046614D01*
X137672223Y-87148337D01*
X137620134Y-87084866D01*
X137394014Y-86899294D01*
X137136034Y-86761401D01*
X136856111Y-86676487D01*
X136565000Y-86647815D01*
X136273890Y-86676487D01*
X135993967Y-86761401D01*
X135735987Y-86899294D01*
X135509866Y-87084866D01*
X135324294Y-87310986D01*
X135315000Y-87328374D01*
X135305706Y-87310986D01*
X135120134Y-87084866D01*
X134894014Y-86899294D01*
X134636034Y-86761401D01*
X134356111Y-86676487D01*
X134065000Y-86647815D01*
X133773890Y-86676487D01*
X133493967Y-86761401D01*
X133235987Y-86899294D01*
X133009866Y-87084866D01*
X132824294Y-87310986D01*
X132815000Y-87328374D01*
X132805706Y-87310986D01*
X132700000Y-87182183D01*
X132700000Y-81727817D01*
X132805706Y-81599014D01*
X132815000Y-81581626D01*
X132824294Y-81599013D01*
X133009866Y-81825134D01*
X133235986Y-82010706D01*
X133493966Y-82148599D01*
X133773889Y-82233513D01*
X134065000Y-82262185D01*
X134356110Y-82233513D01*
X134636033Y-82148599D01*
X134894013Y-82010706D01*
X135120134Y-81825134D01*
X135305706Y-81599014D01*
X135315000Y-81581626D01*
X135324294Y-81599013D01*
X135509866Y-81825134D01*
X135735986Y-82010706D01*
X135993966Y-82148599D01*
X136273889Y-82233513D01*
X136565000Y-82262185D01*
X136856110Y-82233513D01*
X137136033Y-82148599D01*
X137394013Y-82010706D01*
X137620134Y-81825134D01*
X137672223Y-81761663D01*
X137726595Y-81863386D01*
X137837038Y-81997962D01*
X137971614Y-82108405D01*
X138125150Y-82190472D01*
X138291746Y-82241008D01*
X138465000Y-82258072D01*
X139665000Y-82258072D01*
X139838254Y-82241008D01*
X140004850Y-82190472D01*
X140158386Y-82108405D01*
X140292962Y-81997962D01*
X140403405Y-81863386D01*
X140485472Y-81709850D01*
X140536008Y-81543254D01*
X140553072Y-81370000D01*
X140553072Y-80948576D01*
X152210000Y-80948576D01*
X152210000Y-81611424D01*
X152339315Y-82261534D01*
X152592976Y-82873925D01*
X152961234Y-83425063D01*
X153429937Y-83893766D01*
X153981075Y-84262024D01*
X154593466Y-84515685D01*
X155243576Y-84645000D01*
X155906424Y-84645000D01*
X156556534Y-84515685D01*
X157168925Y-84262024D01*
X157720063Y-83893766D01*
X158188766Y-83425063D01*
X158557024Y-82873925D01*
X158810685Y-82261534D01*
X158940000Y-81611424D01*
X158940000Y-80948576D01*
X158810685Y-80298466D01*
X158557024Y-79686075D01*
X158188766Y-79134937D01*
X157720063Y-78666234D01*
X157168925Y-78297976D01*
X156556534Y-78044315D01*
X155906424Y-77915000D01*
X155243576Y-77915000D01*
X154593466Y-78044315D01*
X153981075Y-78297976D01*
X153429937Y-78666234D01*
X152961234Y-79134937D01*
X152592976Y-79686075D01*
X152339315Y-80298466D01*
X152210000Y-80948576D01*
X140553072Y-80948576D01*
X140553072Y-79920000D01*
X140536008Y-79746746D01*
X140485472Y-79580150D01*
X140403405Y-79426614D01*
X140292962Y-79292038D01*
X140158386Y-79181595D01*
X140004850Y-79099528D01*
X139838254Y-79048992D01*
X139665000Y-79031928D01*
X138465000Y-79031928D01*
X138291746Y-79048992D01*
X138125150Y-79099528D01*
X137971614Y-79181595D01*
X137837038Y-79292038D01*
X137726595Y-79426614D01*
X137672223Y-79528337D01*
X137620134Y-79464866D01*
X137394014Y-79279294D01*
X137136034Y-79141401D01*
X136856111Y-79056487D01*
X136565000Y-79027815D01*
X136273890Y-79056487D01*
X135993967Y-79141401D01*
X135735987Y-79279294D01*
X135509866Y-79464866D01*
X135324294Y-79690986D01*
X135315000Y-79708374D01*
X135305706Y-79690986D01*
X135120134Y-79464866D01*
X134894014Y-79279294D01*
X134636034Y-79141401D01*
X134356111Y-79056487D01*
X134065000Y-79027815D01*
X133773890Y-79056487D01*
X133493967Y-79141401D01*
X133235987Y-79279294D01*
X133009866Y-79464866D01*
X132824294Y-79690986D01*
X132815000Y-79708374D01*
X132805706Y-79690986D01*
X132695000Y-79556090D01*
X132695000Y-77470000D01*
X141471856Y-77470000D01*
X141496377Y-77718963D01*
X141568997Y-77958359D01*
X141686925Y-78178988D01*
X141845630Y-78372370D01*
X142039012Y-78531075D01*
X142259641Y-78649003D01*
X142499037Y-78721623D01*
X142685620Y-78740000D01*
X149922380Y-78740000D01*
X150108963Y-78721623D01*
X150348359Y-78649003D01*
X150568988Y-78531075D01*
X150762370Y-78372370D01*
X150921075Y-78178988D01*
X151039003Y-77958359D01*
X151111623Y-77718963D01*
X151136144Y-77470000D01*
X151111623Y-77221037D01*
X151039003Y-76981641D01*
X150921075Y-76761012D01*
X150762370Y-76567630D01*
X150568988Y-76408925D01*
X150348359Y-76290997D01*
X150108963Y-76218377D01*
X149922380Y-76200000D01*
X142685620Y-76200000D01*
X142499037Y-76218377D01*
X142259641Y-76290997D01*
X142039012Y-76408925D01*
X141845630Y-76567630D01*
X141686925Y-76761012D01*
X141568997Y-76981641D01*
X141496377Y-77221037D01*
X141471856Y-77470000D01*
X132695000Y-77470000D01*
X132695000Y-74834341D01*
X132724039Y-74805302D01*
X132830000Y-74646719D01*
X132935961Y-74805302D01*
X133144698Y-75014039D01*
X133390147Y-75178042D01*
X133662875Y-75291010D01*
X133952401Y-75348600D01*
X134247599Y-75348600D01*
X134537125Y-75291010D01*
X134809853Y-75178042D01*
X135055302Y-75014039D01*
X135264039Y-74805302D01*
X135370000Y-74646719D01*
X135475961Y-74805302D01*
X135684698Y-75014039D01*
X135930147Y-75178042D01*
X136202875Y-75291010D01*
X136492401Y-75348600D01*
X136787599Y-75348600D01*
X137077125Y-75291010D01*
X137349853Y-75178042D01*
X137595302Y-75014039D01*
X137804039Y-74805302D01*
X137910000Y-74646719D01*
X138015961Y-74805302D01*
X138224698Y-75014039D01*
X138470147Y-75178042D01*
X138742875Y-75291010D01*
X139032401Y-75348600D01*
X139327599Y-75348600D01*
X139617125Y-75291010D01*
X139889853Y-75178042D01*
X140135302Y-75014039D01*
X140344039Y-74805302D01*
X140450000Y-74646719D01*
X140555961Y-74805302D01*
X140764698Y-75014039D01*
X141010147Y-75178042D01*
X141282875Y-75291010D01*
X141572401Y-75348600D01*
X141867599Y-75348600D01*
X142157125Y-75291010D01*
X142429853Y-75178042D01*
X142675302Y-75014039D01*
X142884039Y-74805302D01*
X142990000Y-74646719D01*
X143095961Y-74805302D01*
X143304698Y-75014039D01*
X143550147Y-75178042D01*
X143822875Y-75291010D01*
X144112401Y-75348600D01*
X144407599Y-75348600D01*
X144697125Y-75291010D01*
X144969853Y-75178042D01*
X145215302Y-75014039D01*
X145424039Y-74805302D01*
X145530000Y-74646719D01*
X145635961Y-74805302D01*
X145844698Y-75014039D01*
X146090147Y-75178042D01*
X146362875Y-75291010D01*
X146652401Y-75348600D01*
X146947599Y-75348600D01*
X147237125Y-75291010D01*
X147509853Y-75178042D01*
X147755302Y-75014039D01*
X147964039Y-74805302D01*
X148070000Y-74646719D01*
X148175961Y-74805302D01*
X148384698Y-75014039D01*
X148630147Y-75178042D01*
X148902875Y-75291010D01*
X149192401Y-75348600D01*
X149487599Y-75348600D01*
X149777125Y-75291010D01*
X150049853Y-75178042D01*
X150295302Y-75014039D01*
X150504039Y-74805302D01*
X150610000Y-74646719D01*
X150715961Y-74805302D01*
X150924698Y-75014039D01*
X151170147Y-75178042D01*
X151442875Y-75291010D01*
X151732401Y-75348600D01*
X152027599Y-75348600D01*
X152317125Y-75291010D01*
X152589853Y-75178042D01*
X152835302Y-75014039D01*
X153044039Y-74805302D01*
X153208042Y-74559853D01*
X153321010Y-74287125D01*
X153378600Y-73997599D01*
X153378600Y-73702401D01*
X153321010Y-73412875D01*
X153208042Y-73140147D01*
X153044039Y-72894698D01*
X152835302Y-72685961D01*
X152676719Y-72580000D01*
X152835302Y-72474039D01*
X153044039Y-72265302D01*
X153208042Y-72019853D01*
X153321010Y-71747125D01*
X153378600Y-71457599D01*
X153378600Y-71162401D01*
X153321010Y-70872875D01*
X153208042Y-70600147D01*
X153044039Y-70354698D01*
X152835302Y-70145961D01*
X152589853Y-69981958D01*
X152317125Y-69868990D01*
X152027599Y-69811400D01*
X151732401Y-69811400D01*
X151442875Y-69868990D01*
X151170147Y-69981958D01*
X150924698Y-70145961D01*
X150715961Y-70354698D01*
X150610000Y-70513281D01*
X150504039Y-70354698D01*
X150295302Y-70145961D01*
X150049853Y-69981958D01*
X149777125Y-69868990D01*
X149487599Y-69811400D01*
X149192401Y-69811400D01*
X148902875Y-69868990D01*
X148630147Y-69981958D01*
X148384698Y-70145961D01*
X148175961Y-70354698D01*
X148070000Y-70513281D01*
X147964039Y-70354698D01*
X147755302Y-70145961D01*
X147509853Y-69981958D01*
X147237125Y-69868990D01*
X146947599Y-69811400D01*
X146652401Y-69811400D01*
X146362875Y-69868990D01*
X146090147Y-69981958D01*
X145844698Y-70145961D01*
X145635961Y-70354698D01*
X145530000Y-70513281D01*
X145424039Y-70354698D01*
X145215302Y-70145961D01*
X144969853Y-69981958D01*
X144697125Y-69868990D01*
X144407599Y-69811400D01*
X144112401Y-69811400D01*
X143822875Y-69868990D01*
X143550147Y-69981958D01*
X143304698Y-70145961D01*
X143095961Y-70354698D01*
X142990000Y-70513281D01*
X142884039Y-70354698D01*
X142675302Y-70145961D01*
X142429853Y-69981958D01*
X142157125Y-69868990D01*
X141867599Y-69811400D01*
X141572401Y-69811400D01*
X141282875Y-69868990D01*
X141010147Y-69981958D01*
X140764698Y-70145961D01*
X140555961Y-70354698D01*
X140450000Y-70513281D01*
X140344039Y-70354698D01*
X140135302Y-70145961D01*
X139889853Y-69981958D01*
X139617125Y-69868990D01*
X139327599Y-69811400D01*
X139032401Y-69811400D01*
X138742875Y-69868990D01*
X138470147Y-69981958D01*
X138224698Y-70145961D01*
X138015961Y-70354698D01*
X137910000Y-70513281D01*
X137804039Y-70354698D01*
X137595302Y-70145961D01*
X137349853Y-69981958D01*
X137077125Y-69868990D01*
X136787599Y-69811400D01*
X136492401Y-69811400D01*
X136202875Y-69868990D01*
X135930147Y-69981958D01*
X135684698Y-70145961D01*
X135475961Y-70354698D01*
X135370000Y-70513281D01*
X135264039Y-70354698D01*
X135055302Y-70145961D01*
X134809853Y-69981958D01*
X134537125Y-69868990D01*
X134247599Y-69811400D01*
X133952401Y-69811400D01*
X133662875Y-69868990D01*
X133390147Y-69981958D01*
X133144698Y-70145961D01*
X132935961Y-70354698D01*
X132830000Y-70513281D01*
X132724039Y-70354698D01*
X132515302Y-70145961D01*
X132269853Y-69981958D01*
X131997125Y-69868990D01*
X131707599Y-69811400D01*
X131412401Y-69811400D01*
X131122875Y-69868990D01*
X130850147Y-69981958D01*
X130604698Y-70145961D01*
X130395961Y-70354698D01*
X130290000Y-70513281D01*
X130184039Y-70354698D01*
X129975302Y-70145961D01*
X129729853Y-69981958D01*
X129457125Y-69868990D01*
X129167599Y-69811400D01*
X128872401Y-69811400D01*
X128582875Y-69868990D01*
X128310147Y-69981958D01*
X128064698Y-70145961D01*
X127855961Y-70354698D01*
X127750000Y-70513281D01*
X127644039Y-70354698D01*
X127435302Y-70145961D01*
X127189853Y-69981958D01*
X126917125Y-69868990D01*
X126627599Y-69811400D01*
X126332401Y-69811400D01*
X126042875Y-69868990D01*
X125770147Y-69981958D01*
X125524698Y-70145961D01*
X125315961Y-70354698D01*
X125210000Y-70513281D01*
X125104039Y-70354698D01*
X124895302Y-70145961D01*
X124649853Y-69981958D01*
X124377125Y-69868990D01*
X124087599Y-69811400D01*
X123792401Y-69811400D01*
X123502875Y-69868990D01*
X123230147Y-69981958D01*
X122984698Y-70145961D01*
X122775961Y-70354698D01*
X122670000Y-70513281D01*
X122564039Y-70354698D01*
X122355302Y-70145961D01*
X122109853Y-69981958D01*
X121837125Y-69868990D01*
X121547599Y-69811400D01*
X121252401Y-69811400D01*
X120962875Y-69868990D01*
X120690147Y-69981958D01*
X120444698Y-70145961D01*
X120235961Y-70354698D01*
X120130000Y-70513281D01*
X120024039Y-70354698D01*
X119815302Y-70145961D01*
X119569853Y-69981958D01*
X119297125Y-69868990D01*
X119007599Y-69811400D01*
X118712401Y-69811400D01*
X118422875Y-69868990D01*
X118150147Y-69981958D01*
X117904698Y-70145961D01*
X117695961Y-70354698D01*
X117590000Y-70513281D01*
X117484039Y-70354698D01*
X117275302Y-70145961D01*
X117029853Y-69981958D01*
X116757125Y-69868990D01*
X116467599Y-69811400D01*
X116172401Y-69811400D01*
X115882875Y-69868990D01*
X115610147Y-69981958D01*
X115364698Y-70145961D01*
X115155961Y-70354698D01*
X115050000Y-70513281D01*
X114944039Y-70354698D01*
X114735302Y-70145961D01*
X114489853Y-69981958D01*
X114217125Y-69868990D01*
X113927599Y-69811400D01*
X113632401Y-69811400D01*
X113342875Y-69868990D01*
X113070147Y-69981958D01*
X112824698Y-70145961D01*
X112615961Y-70354698D01*
X112510000Y-70513281D01*
X112404039Y-70354698D01*
X112195302Y-70145961D01*
X111949853Y-69981958D01*
X111677125Y-69868990D01*
X111387599Y-69811400D01*
X111092401Y-69811400D01*
X110802875Y-69868990D01*
X110530147Y-69981958D01*
X110284698Y-70145961D01*
X110075961Y-70354698D01*
X109970000Y-70513281D01*
X109864039Y-70354698D01*
X109655302Y-70145961D01*
X109409853Y-69981958D01*
X109137125Y-69868990D01*
X108847599Y-69811400D01*
X108552401Y-69811400D01*
X108262875Y-69868990D01*
X107990147Y-69981958D01*
X107744698Y-70145961D01*
X107535961Y-70354698D01*
X107425441Y-70520103D01*
X107366817Y-70421512D01*
X107170293Y-70203146D01*
X106934944Y-70027316D01*
X106669814Y-69900778D01*
X106519026Y-69855042D01*
X106287000Y-69976183D01*
X106287000Y-71183000D01*
X106307000Y-71183000D01*
X106307000Y-71437000D01*
X106287000Y-71437000D01*
X106287000Y-71457000D01*
X106033000Y-71457000D01*
X106033000Y-71437000D01*
X103747000Y-71437000D01*
X103747000Y-71457000D01*
X103493000Y-71457000D01*
X103493000Y-71437000D01*
X102285536Y-71437000D01*
X102165037Y-71669027D01*
X102263036Y-71945978D01*
X102413183Y-72198488D01*
X102574692Y-72377947D01*
X102512220Y-72396898D01*
X102401906Y-72455863D01*
X102305215Y-72535215D01*
X102225863Y-72631906D01*
X102166898Y-72742220D01*
X102130588Y-72861918D01*
X102118328Y-72986400D01*
X101610682Y-72986400D01*
X101635000Y-72864148D01*
X101635000Y-72295852D01*
X101524131Y-71738477D01*
X101306654Y-71213440D01*
X101131280Y-70950973D01*
X102165037Y-70950973D01*
X102285536Y-71183000D01*
X103493000Y-71183000D01*
X103493000Y-69976183D01*
X103747000Y-69976183D01*
X103747000Y-71183000D01*
X106033000Y-71183000D01*
X106033000Y-69976183D01*
X105800974Y-69855042D01*
X105650186Y-69900778D01*
X105385056Y-70027316D01*
X105149707Y-70203146D01*
X104953183Y-70421512D01*
X104890000Y-70527770D01*
X104826817Y-70421512D01*
X104630293Y-70203146D01*
X104394944Y-70027316D01*
X104129814Y-69900778D01*
X103979026Y-69855042D01*
X103747000Y-69976183D01*
X103493000Y-69976183D01*
X103260974Y-69855042D01*
X103110186Y-69900778D01*
X102845056Y-70027316D01*
X102609707Y-70203146D01*
X102413183Y-70421512D01*
X102263036Y-70674022D01*
X102165037Y-70950973D01*
X101131280Y-70950973D01*
X100990926Y-70740920D01*
X100589080Y-70339074D01*
X100116560Y-70023346D01*
X99591523Y-69805869D01*
X99034148Y-69695000D01*
X98465852Y-69695000D01*
X97908477Y-69805869D01*
X97383440Y-70023346D01*
X96910920Y-70339074D01*
X96509074Y-70740920D01*
X96193346Y-71213440D01*
X95975869Y-71738477D01*
X95935000Y-71943939D01*
X95935000Y-71613505D01*
X95982312Y-71130984D01*
X96112714Y-70699070D01*
X96324524Y-70300715D01*
X96609675Y-69951086D01*
X96957303Y-69663503D01*
X97354177Y-69448914D01*
X97785161Y-69315502D01*
X98265654Y-69265000D01*
X157216495Y-69265000D01*
X157699016Y-69312312D01*
G37*
X157699016Y-69312312D02*
X158130930Y-69442714D01*
X158529285Y-69654524D01*
X158878914Y-69939675D01*
X159166497Y-70287303D01*
X159381086Y-70684177D01*
X159514498Y-71115161D01*
X159565000Y-71595654D01*
X159565000Y-71943939D01*
X159524131Y-71738477D01*
X159306654Y-71213440D01*
X158990926Y-70740920D01*
X158589080Y-70339074D01*
X158116560Y-70023346D01*
X157591523Y-69805869D01*
X157034148Y-69695000D01*
X156465852Y-69695000D01*
X155908477Y-69805869D01*
X155383440Y-70023346D01*
X154910920Y-70339074D01*
X154509074Y-70740920D01*
X154193346Y-71213440D01*
X153975869Y-71738477D01*
X153865000Y-72295852D01*
X153865000Y-72864148D01*
X153975869Y-73421523D01*
X154193346Y-73946560D01*
X154509074Y-74419080D01*
X154910920Y-74820926D01*
X155383440Y-75136654D01*
X155908477Y-75354131D01*
X156465852Y-75465000D01*
X157034148Y-75465000D01*
X157591523Y-75354131D01*
X158116560Y-75136654D01*
X158589080Y-74820926D01*
X158990926Y-74419080D01*
X159306654Y-73946560D01*
X159524131Y-73421523D01*
X159565000Y-73216061D01*
X159565001Y-120943944D01*
X159524131Y-120738477D01*
X159306654Y-120213440D01*
X158990926Y-119740920D01*
X158589080Y-119339074D01*
X158116560Y-119023346D01*
X157591523Y-118805869D01*
X157034148Y-118695000D01*
X156465852Y-118695000D01*
X155908477Y-118805869D01*
X155383440Y-119023346D01*
X154910920Y-119339074D01*
X154509074Y-119740920D01*
X154193346Y-120213440D01*
X153975869Y-120738477D01*
X153865000Y-121295852D01*
X153865000Y-121864148D01*
X153975869Y-122421523D01*
X154193346Y-122946560D01*
X154509074Y-123419080D01*
X154910920Y-123820926D01*
X155383440Y-124136654D01*
X155908477Y-124354131D01*
X156113939Y-124395000D01*
X99386061Y-124395000D01*
X99591523Y-124354131D01*
X100116560Y-124136654D01*
X100589080Y-123820926D01*
X100990926Y-123419080D01*
X101306654Y-122946560D01*
X101524131Y-122421523D01*
X101635000Y-121864148D01*
X101635000Y-121625000D01*
X107096928Y-121625000D01*
X107109188Y-121749482D01*
X107145498Y-121869180D01*
X107204463Y-121979494D01*
X107283815Y-122076185D01*
X107380506Y-122155537D01*
X107490820Y-122214502D01*
X107610518Y-122250812D01*
X107735000Y-122263072D01*
X108299250Y-122260000D01*
X108458000Y-122101250D01*
X108458000Y-120777000D01*
X107258750Y-120777000D01*
X107100000Y-120935750D01*
X107096928Y-121625000D01*
X101635000Y-121625000D01*
X101635000Y-121295852D01*
X101524131Y-120738477D01*
X101306654Y-120213440D01*
X100990926Y-119740920D01*
X100925006Y-119675000D01*
X107096928Y-119675000D01*
X107100000Y-120364250D01*
X107258750Y-120523000D01*
X108458000Y-120523000D01*
X108458000Y-119198750D01*
X108299250Y-119040000D01*
X107735000Y-119036928D01*
X107610518Y-119049188D01*
X107490820Y-119085498D01*
X107380506Y-119144463D01*
X107283815Y-119223815D01*
X107204463Y-119320506D01*
X107145498Y-119430820D01*
X107109188Y-119550518D01*
X107096928Y-119675000D01*
X100925006Y-119675000D01*
X100589080Y-119339074D01*
X100116560Y-119023346D01*
X99591523Y-118805869D01*
X99034148Y-118695000D01*
X98465852Y-118695000D01*
X97908477Y-118805869D01*
X97383440Y-119023346D01*
X96910920Y-119339074D01*
X96509074Y-119740920D01*
X96193346Y-120213440D01*
X95975869Y-120738477D01*
X95935000Y-120943939D01*
X95935000Y-106613505D01*
X95944222Y-106519453D01*
X95961805Y-106461214D01*
X95990366Y-106407499D01*
X96028816Y-106360354D01*
X96075691Y-106321576D01*
X96129204Y-106292642D01*
X96187323Y-106274651D01*
X96279145Y-106265000D01*
X99283647Y-106265000D01*
X99312955Y-106262113D01*
X99319066Y-106262156D01*
X99328585Y-106261223D01*
X99522682Y-106240822D01*
X99583496Y-106228339D01*
X99644481Y-106216705D01*
X99653637Y-106213941D01*
X99840075Y-106156229D01*
X99897279Y-106132182D01*
X99954873Y-106108913D01*
X99963317Y-106104423D01*
X100134994Y-106011598D01*
X100186468Y-105976878D01*
X100238418Y-105942883D01*
X100245829Y-105936839D01*
X100396207Y-105812435D01*
X100439973Y-105768362D01*
X100484311Y-105724943D01*
X100490408Y-105717574D01*
X100613758Y-105566332D01*
X100648126Y-105514603D01*
X100683191Y-105463392D01*
X100687739Y-105454981D01*
X100687740Y-105454980D01*
X100687742Y-105454976D01*
X100779366Y-105282657D01*
X100803022Y-105225261D01*
X100827482Y-105168193D01*
X100830310Y-105159056D01*
X100886719Y-104972220D01*
X100898780Y-104911310D01*
X100911686Y-104850591D01*
X100912686Y-104841079D01*
X100931731Y-104646845D01*
X100931731Y-104646837D01*
X100935000Y-104613647D01*
X100935000Y-89546353D01*
X100932113Y-89517045D01*
X100932156Y-89510933D01*
X100931223Y-89501415D01*
X100910822Y-89307318D01*
X100898339Y-89246504D01*
X100886705Y-89185519D01*
X100883941Y-89176363D01*
X100826229Y-88989925D01*
X100802170Y-88932692D01*
X100778913Y-88875127D01*
X100774423Y-88866682D01*
X100681598Y-88695006D01*
X100646878Y-88643532D01*
X100612883Y-88591582D01*
X100606838Y-88584170D01*
X100482435Y-88433793D01*
X100438362Y-88390027D01*
X100394943Y-88345689D01*
X100387574Y-88339592D01*
X100236332Y-88216242D01*
X100184614Y-88181881D01*
X100133393Y-88146809D01*
X100124980Y-88142260D01*
X99952657Y-88050635D01*
X99895261Y-88026978D01*
X99838193Y-88002519D01*
X99829057Y-87999690D01*
X99642220Y-87943281D01*
X99581302Y-87931219D01*
X99520590Y-87918314D01*
X99511078Y-87917314D01*
X99316845Y-87898269D01*
X99316837Y-87898269D01*
X99283647Y-87895000D01*
X96283505Y-87895000D01*
X96189454Y-87885778D01*
X96131213Y-87868194D01*
X96077500Y-87839635D01*
X96030354Y-87801183D01*
X95991577Y-87754310D01*
X95962642Y-87700796D01*
X95944651Y-87642677D01*
X95935000Y-87550855D01*
X95935000Y-73216061D01*
X95975869Y-73421523D01*
X96193346Y-73946560D01*
X96509074Y-74419080D01*
X96910920Y-74820926D01*
X97383440Y-75136654D01*
X97908477Y-75354131D01*
X98465852Y-75465000D01*
X99034148Y-75465000D01*
X99591523Y-75354131D01*
X100116560Y-75136654D01*
X100589080Y-74820926D01*
X100990926Y-74419080D01*
X101306654Y-73946560D01*
X101524131Y-73421523D01*
X101610682Y-72986400D01*
X102118328Y-72986400D01*
X102118328Y-74713600D01*
X102130588Y-74838082D01*
X102166898Y-74957780D01*
X102225863Y-75068094D01*
X102305215Y-75164785D01*
X102350000Y-75201539D01*
X102350001Y-81172617D01*
X102343857Y-81235000D01*
X102368377Y-81483963D01*
X102428270Y-81681401D01*
X102440998Y-81723359D01*
X102558926Y-81943988D01*
X102717631Y-82137370D01*
X102766086Y-82177136D01*
X104097357Y-83508407D01*
X104106487Y-83601110D01*
X104191401Y-83881033D01*
X104300000Y-84084208D01*
X104300001Y-85367618D01*
X104293857Y-85430000D01*
X104318377Y-85678963D01*
X104390998Y-85918359D01*
X104508926Y-86138988D01*
X104667631Y-86332370D01*
X104716087Y-86372137D01*
X108631263Y-90287314D01*
X108671030Y-90335770D01*
X108864412Y-90494475D01*
X109085041Y-90612403D01*
X109324437Y-90685023D01*
X109573400Y-90709544D01*
X109635780Y-90703400D01*
X115302180Y-90703400D01*
X115488763Y-90685023D01*
X115728159Y-90612403D01*
X115948788Y-90494475D01*
X116142170Y-90335770D01*
X116298600Y-90145161D01*
X116298600Y-99010221D01*
X108596730Y-106712092D01*
X108542453Y-106439226D01*
X108434280Y-106178073D01*
X108277237Y-105943041D01*
X108077359Y-105743163D01*
X107842327Y-105586120D01*
X107581174Y-105477947D01*
X107303935Y-105422800D01*
X107021265Y-105422800D01*
X106744026Y-105477947D01*
X106482873Y-105586120D01*
X106247841Y-105743163D01*
X106047963Y-105943041D01*
X105890920Y-106178073D01*
X105782747Y-106439226D01*
X105727600Y-106716465D01*
X105727600Y-106999135D01*
X105782747Y-107276374D01*
X105890920Y-107537527D01*
X106047963Y-107772559D01*
X106247841Y-107972437D01*
X106480359Y-108127800D01*
X106247841Y-108283163D01*
X106047963Y-108483041D01*
X105890920Y-108718073D01*
X105782747Y-108979226D01*
X105727600Y-109256465D01*
X105727600Y-109539135D01*
X105782747Y-109816374D01*
X105890920Y-110077527D01*
X106047963Y-110312559D01*
X106247841Y-110512437D01*
X106482873Y-110669480D01*
X106744026Y-110777653D01*
X107021265Y-110832800D01*
X107303935Y-110832800D01*
X107339038Y-110825817D01*
X107367552Y-110854331D01*
X107367558Y-110854336D01*
X107452202Y-110938980D01*
X107452202Y-111536728D01*
X106387200Y-111536728D01*
X106262718Y-111548988D01*
X106143020Y-111585298D01*
X106032706Y-111644263D01*
X105936015Y-111723615D01*
X105856663Y-111820306D01*
X105797698Y-111930620D01*
X105761388Y-112050318D01*
X105749128Y-112174800D01*
X105749128Y-113224800D01*
X105761388Y-113349282D01*
X105797698Y-113468980D01*
X105832293Y-113533702D01*
X105768985Y-113742400D01*
X105746588Y-113969800D01*
X105768985Y-114197200D01*
X105835315Y-114415860D01*
X105936305Y-114604800D01*
X105835315Y-114793740D01*
X105768985Y-115012400D01*
X105746588Y-115239800D01*
X105768985Y-115467200D01*
X105835315Y-115685860D01*
X105943029Y-115887379D01*
X106087988Y-116064012D01*
X106264621Y-116208971D01*
X106466140Y-116316685D01*
X106671140Y-116378871D01*
X109329769Y-119037501D01*
X108870750Y-119040000D01*
X108712000Y-119198750D01*
X108712000Y-120523000D01*
X108732000Y-120523000D01*
X108732000Y-120777000D01*
X108712000Y-120777000D01*
X108712000Y-122101250D01*
X108870750Y-122260000D01*
X109435000Y-122263072D01*
X109559482Y-122250812D01*
X109679180Y-122214502D01*
X109789494Y-122155537D01*
X109886185Y-122076185D01*
X109965537Y-121979494D01*
X110024502Y-121869180D01*
X110035055Y-121834392D01*
X110255987Y-122015706D01*
X110513967Y-122153599D01*
X110793890Y-122238513D01*
X111085000Y-122267185D01*
X111376111Y-122238513D01*
X111656034Y-122153599D01*
X111914014Y-122015706D01*
X112140134Y-121830134D01*
X112325706Y-121604014D01*
X112335000Y-121586626D01*
X112344294Y-121604014D01*
X112529866Y-121830134D01*
X112755987Y-122015706D01*
X113013967Y-122153599D01*
X113293890Y-122238513D01*
X113585000Y-122267185D01*
X113876111Y-122238513D01*
X114156034Y-122153599D01*
X114414014Y-122015706D01*
X114640134Y-121830134D01*
X114825706Y-121604014D01*
X114835000Y-121586626D01*
X114844294Y-121604014D01*
X115029866Y-121830134D01*
X115255987Y-122015706D01*
X115513967Y-122153599D01*
X115793890Y-122238513D01*
X116085000Y-122267185D01*
X116376111Y-122238513D01*
X116656034Y-122153599D01*
X116914014Y-122015706D01*
X117140134Y-121830134D01*
X117325706Y-121604014D01*
X117463599Y-121346033D01*
X117548513Y-121066110D01*
X117570000Y-120847949D01*
X117570000Y-120770131D01*
X120651141Y-117688991D01*
X120694449Y-117653449D01*
X120836284Y-117480623D01*
X120941676Y-117283447D01*
X121006577Y-117069499D01*
X121023000Y-116902752D01*
X121023000Y-116902745D01*
X121028490Y-116847001D01*
X121023000Y-116791257D01*
X121023000Y-115832479D01*
X121082171Y-115760379D01*
X121189885Y-115558860D01*
X121256215Y-115340200D01*
X121278612Y-115112800D01*
X121256215Y-114885400D01*
X121189885Y-114666740D01*
X121156338Y-114603978D01*
X121197061Y-114582211D01*
X121331819Y-114471617D01*
X121359536Y-114437844D01*
X121683046Y-114114334D01*
X121716818Y-114086618D01*
X121813693Y-113968576D01*
X152210000Y-113968576D01*
X152210000Y-114631424D01*
X152339315Y-115281534D01*
X152592976Y-115893925D01*
X152961234Y-116445063D01*
X153429937Y-116913766D01*
X153981075Y-117282024D01*
X154593466Y-117535685D01*
X155243576Y-117665000D01*
X155906424Y-117665000D01*
X156556534Y-117535685D01*
X157168925Y-117282024D01*
X157720063Y-116913766D01*
X158188766Y-116445063D01*
X158557024Y-115893925D01*
X158810685Y-115281534D01*
X158940000Y-114631424D01*
X158940000Y-113968576D01*
X158810685Y-113318466D01*
X158557024Y-112706075D01*
X158188766Y-112154937D01*
X157720063Y-111686234D01*
X157168925Y-111317976D01*
X156556534Y-111064315D01*
X155906424Y-110935000D01*
X155243576Y-110935000D01*
X154593466Y-111064315D01*
X153981075Y-111317976D01*
X153429937Y-111686234D01*
X152961234Y-112154937D01*
X152592976Y-112706075D01*
X152339315Y-113318466D01*
X152210000Y-113968576D01*
X121813693Y-113968576D01*
X121827412Y-113951860D01*
X121909590Y-113798114D01*
X121960196Y-113631291D01*
X121973001Y-113501278D01*
X121973001Y-113501270D01*
X121977282Y-113457801D01*
X121973001Y-113414332D01*
X121973001Y-110565066D01*
X121977282Y-110521600D01*
X121973001Y-110478134D01*
X121973001Y-110478124D01*
X121960196Y-110348111D01*
X121909590Y-110181288D01*
X121827412Y-110027542D01*
X121716818Y-109892784D01*
X121683045Y-109865067D01*
X121369936Y-109551958D01*
X121369931Y-109551952D01*
X121341417Y-109523438D01*
X121348400Y-109488335D01*
X121348400Y-109205665D01*
X121341417Y-109170561D01*
X121995049Y-108516930D01*
X122028817Y-108489217D01*
X122075577Y-108432241D01*
X122139411Y-108354459D01*
X122221588Y-108200714D01*
X122221589Y-108200713D01*
X122272195Y-108033890D01*
X122285000Y-107903877D01*
X122285000Y-107903869D01*
X122289281Y-107860400D01*
X122285000Y-107816931D01*
X122285000Y-75061013D01*
X122355302Y-75014039D01*
X122564039Y-74805302D01*
X122670000Y-74646719D01*
X122670000Y-74646720D01*
X122670001Y-80003030D01*
X122601487Y-80228889D01*
X122580000Y-80447050D01*
X122580000Y-80842949D01*
X122601487Y-81061110D01*
X122686401Y-81341033D01*
X122795000Y-81544208D01*
X122795001Y-87365790D01*
X122686401Y-87568966D01*
X122601487Y-87848889D01*
X122580000Y-88067050D01*
X122580000Y-88462949D01*
X122601487Y-88681110D01*
X122686401Y-88961033D01*
X122795000Y-89164208D01*
X122795001Y-95807617D01*
X122788857Y-95870000D01*
X122813377Y-96118963D01*
X122878477Y-96333567D01*
X122885998Y-96358359D01*
X123003926Y-96578988D01*
X123162631Y-96772370D01*
X123211087Y-96812137D01*
X127622863Y-101223914D01*
X127662630Y-101272370D01*
X127856012Y-101431075D01*
X128076641Y-101549003D01*
X128243416Y-101599594D01*
X128316036Y-101621623D01*
X128341755Y-101624156D01*
X128502620Y-101640000D01*
X128502626Y-101640000D01*
X128564999Y-101646143D01*
X128627372Y-101640000D01*
X129842941Y-101640000D01*
X129629866Y-101814866D01*
X129444294Y-102040986D01*
X129306401Y-102298966D01*
X129221487Y-102578889D01*
X129192815Y-102870000D01*
X129221487Y-103161111D01*
X129306401Y-103441034D01*
X129444294Y-103699014D01*
X129629866Y-103925134D01*
X129855986Y-104110706D01*
X129873374Y-104120000D01*
X129855986Y-104129294D01*
X129629866Y-104314866D01*
X129444294Y-104540986D01*
X129306401Y-104798966D01*
X129221487Y-105078889D01*
X129192815Y-105370000D01*
X129221487Y-105661111D01*
X129306401Y-105941034D01*
X129444294Y-106199014D01*
X129629866Y-106425134D01*
X129855986Y-106610706D01*
X129873374Y-106620000D01*
X129855986Y-106629294D01*
X129629866Y-106814866D01*
X129444294Y-107040986D01*
X129306401Y-107298966D01*
X129221487Y-107578889D01*
X129192815Y-107870000D01*
X129221487Y-108161111D01*
X129306401Y-108441034D01*
X129444294Y-108699014D01*
X129629866Y-108925134D01*
X129693337Y-108977223D01*
X129591614Y-109031595D01*
X129457038Y-109142038D01*
X129346595Y-109276614D01*
X129264528Y-109430150D01*
X129213992Y-109596746D01*
X129196928Y-109770000D01*
X129196928Y-110970000D01*
X129213992Y-111143254D01*
X129264528Y-111309850D01*
X129346595Y-111463386D01*
X129457038Y-111597962D01*
X129591614Y-111708405D01*
X129745150Y-111790472D01*
X129911746Y-111841008D01*
X130085000Y-111858072D01*
X131535000Y-111858072D01*
X131708254Y-111841008D01*
X131874850Y-111790472D01*
X132028386Y-111708405D01*
X132162962Y-111597962D01*
X132273405Y-111463386D01*
X132355472Y-111309850D01*
X132406008Y-111143254D01*
X132423072Y-110970000D01*
X132423072Y-109770000D01*
X132406008Y-109596746D01*
X132355472Y-109430150D01*
X132273405Y-109276614D01*
X132162962Y-109142038D01*
X132028386Y-109031595D01*
X131926663Y-108977223D01*
X131990134Y-108925134D01*
X132175706Y-108699014D01*
X132313599Y-108441034D01*
X132398513Y-108161111D01*
X132427185Y-107870000D01*
X132398513Y-107578889D01*
X132313599Y-107298966D01*
X132175706Y-107040986D01*
X131990134Y-106814866D01*
X131764014Y-106629294D01*
X131746626Y-106620000D01*
X131764014Y-106610706D01*
X131990134Y-106425134D01*
X132133863Y-106250000D01*
X137073310Y-106250000D01*
X137249866Y-106465134D01*
X137475986Y-106650706D01*
X137493374Y-106660000D01*
X137475986Y-106669294D01*
X137249866Y-106854866D01*
X137064294Y-107080986D01*
X136926401Y-107338966D01*
X136841487Y-107618889D01*
X136812815Y-107910000D01*
X136841487Y-108201111D01*
X136926401Y-108481034D01*
X137064294Y-108739014D01*
X137249866Y-108965134D01*
X137313337Y-109017223D01*
X137211614Y-109071595D01*
X137077038Y-109182038D01*
X136966595Y-109316614D01*
X136884528Y-109470150D01*
X136833992Y-109636746D01*
X136816928Y-109810000D01*
X136816928Y-111010000D01*
X136833992Y-111183254D01*
X136884528Y-111349850D01*
X136966595Y-111503386D01*
X137077038Y-111637962D01*
X137211614Y-111748405D01*
X137365150Y-111830472D01*
X137531746Y-111881008D01*
X137705000Y-111898072D01*
X139155000Y-111898072D01*
X139328254Y-111881008D01*
X139494850Y-111830472D01*
X139648386Y-111748405D01*
X139782962Y-111637962D01*
X139893405Y-111503386D01*
X139975472Y-111349850D01*
X140026008Y-111183254D01*
X140043072Y-111010000D01*
X140043072Y-109810000D01*
X140026008Y-109636746D01*
X139975472Y-109470150D01*
X139893405Y-109316614D01*
X139782962Y-109182038D01*
X139648386Y-109071595D01*
X139546663Y-109017223D01*
X139610134Y-108965134D01*
X139795706Y-108739014D01*
X139933599Y-108481034D01*
X140018513Y-108201111D01*
X140047185Y-107910000D01*
X140018513Y-107618889D01*
X139933599Y-107338966D01*
X139795706Y-107080986D01*
X139610134Y-106854866D01*
X139384014Y-106669294D01*
X139366626Y-106660000D01*
X139384014Y-106650706D01*
X139610134Y-106465134D01*
X139795706Y-106239014D01*
X139811214Y-106210000D01*
X144647405Y-106210000D01*
X144684294Y-106279014D01*
X144869866Y-106505134D01*
X145095986Y-106690706D01*
X145113374Y-106700000D01*
X145095986Y-106709294D01*
X144869866Y-106894866D01*
X144684294Y-107120986D01*
X144546401Y-107378966D01*
X144461487Y-107658889D01*
X144432815Y-107950000D01*
X144461487Y-108241111D01*
X144546401Y-108521034D01*
X144684294Y-108779014D01*
X144869866Y-109005134D01*
X144933337Y-109057223D01*
X144831614Y-109111595D01*
X144697038Y-109222038D01*
X144586595Y-109356614D01*
X144504528Y-109510150D01*
X144453992Y-109676746D01*
X144436928Y-109850000D01*
X144436928Y-111050000D01*
X144453992Y-111223254D01*
X144504528Y-111389850D01*
X144586595Y-111543386D01*
X144697038Y-111677962D01*
X144831614Y-111788405D01*
X144985150Y-111870472D01*
X145151746Y-111921008D01*
X145325000Y-111938072D01*
X146775000Y-111938072D01*
X146948254Y-111921008D01*
X147114850Y-111870472D01*
X147268386Y-111788405D01*
X147402962Y-111677962D01*
X147513405Y-111543386D01*
X147595472Y-111389850D01*
X147646008Y-111223254D01*
X147663072Y-111050000D01*
X147663072Y-109850000D01*
X147646008Y-109676746D01*
X147595472Y-109510150D01*
X147513405Y-109356614D01*
X147402962Y-109222038D01*
X147268386Y-109111595D01*
X147166663Y-109057223D01*
X147230134Y-109005134D01*
X147415706Y-108779014D01*
X147553599Y-108521034D01*
X147638513Y-108241111D01*
X147667185Y-107950000D01*
X147638513Y-107658889D01*
X147553599Y-107378966D01*
X147415706Y-107120986D01*
X147230134Y-106894866D01*
X147004014Y-106709294D01*
X146986626Y-106700000D01*
X147004014Y-106690706D01*
X147230134Y-106505134D01*
X147415706Y-106279014D01*
X147553599Y-106021034D01*
X147638513Y-105741111D01*
X147667185Y-105450000D01*
X147638513Y-105158889D01*
X147553599Y-104878966D01*
X147415706Y-104620986D01*
X147230134Y-104394866D01*
X147004014Y-104209294D01*
X146986626Y-104200000D01*
X147004014Y-104190706D01*
X147230134Y-104005134D01*
X147415706Y-103779014D01*
X147553599Y-103521034D01*
X147638513Y-103241111D01*
X147667185Y-102950000D01*
X147638513Y-102658889D01*
X147553599Y-102378966D01*
X147415706Y-102120986D01*
X147230134Y-101894866D01*
X147004014Y-101709294D01*
X146986626Y-101700000D01*
X147004014Y-101690706D01*
X147230134Y-101505134D01*
X147415706Y-101279014D01*
X147553599Y-101021034D01*
X147638513Y-100741111D01*
X147667185Y-100450000D01*
X147638513Y-100158889D01*
X147553599Y-99878966D01*
X147415706Y-99620986D01*
X147230134Y-99394866D01*
X147004014Y-99209294D01*
X146746034Y-99071401D01*
X146466111Y-98986487D01*
X146247950Y-98965000D01*
X145852050Y-98965000D01*
X145633889Y-98986487D01*
X145353966Y-99071401D01*
X145225626Y-99140000D01*
X139329209Y-99140000D01*
X139126034Y-99031401D01*
X138846111Y-98946487D01*
X138627950Y-98925000D01*
X138232050Y-98925000D01*
X138013889Y-98946487D01*
X137733966Y-99031401D01*
X137605626Y-99100000D01*
X131709209Y-99100000D01*
X131506034Y-98991401D01*
X131226111Y-98906487D01*
X131007950Y-98885000D01*
X130612050Y-98885000D01*
X130393889Y-98906487D01*
X130113966Y-98991401D01*
X129910791Y-99100000D01*
X129091051Y-99100000D01*
X125335000Y-95343950D01*
X125335000Y-91123621D01*
X132080000Y-91123621D01*
X132080001Y-94677380D01*
X132098378Y-94863963D01*
X132170998Y-95103359D01*
X132288926Y-95323988D01*
X132447631Y-95517370D01*
X132641013Y-95676075D01*
X132861642Y-95794003D01*
X133101038Y-95866623D01*
X133350000Y-95891144D01*
X133598963Y-95866623D01*
X133838359Y-95794003D01*
X134058988Y-95676075D01*
X134252370Y-95517370D01*
X134411075Y-95323988D01*
X134524061Y-95112604D01*
X152910000Y-95112604D01*
X152910000Y-95387396D01*
X152963609Y-95656907D01*
X153068767Y-95910780D01*
X153221433Y-96139261D01*
X153415739Y-96333567D01*
X153644220Y-96486233D01*
X153725740Y-96520000D01*
X153644220Y-96553767D01*
X153415739Y-96706433D01*
X153221433Y-96900739D01*
X153068767Y-97129220D01*
X152963609Y-97383093D01*
X152910000Y-97652604D01*
X152910000Y-97927396D01*
X152963609Y-98196907D01*
X153068767Y-98450780D01*
X153221433Y-98679261D01*
X153415739Y-98873567D01*
X153644220Y-99026233D01*
X153725740Y-99060000D01*
X153644220Y-99093767D01*
X153415739Y-99246433D01*
X153221433Y-99440739D01*
X153068767Y-99669220D01*
X152963609Y-99923093D01*
X152910000Y-100192604D01*
X152910000Y-100467396D01*
X152963609Y-100736907D01*
X153068767Y-100990780D01*
X153221433Y-101219261D01*
X153415739Y-101413567D01*
X153644220Y-101566233D01*
X153725740Y-101600000D01*
X153644220Y-101633767D01*
X153415739Y-101786433D01*
X153221433Y-101980739D01*
X153068767Y-102209220D01*
X152963609Y-102463093D01*
X152910000Y-102732604D01*
X152910000Y-103007396D01*
X152963609Y-103276907D01*
X153068767Y-103530780D01*
X153221433Y-103759261D01*
X153415739Y-103953567D01*
X153644220Y-104106233D01*
X153725740Y-104140000D01*
X153644220Y-104173767D01*
X153415739Y-104326433D01*
X153221433Y-104520739D01*
X153068767Y-104749220D01*
X152963609Y-105003093D01*
X152910000Y-105272604D01*
X152910000Y-105547396D01*
X152963609Y-105816907D01*
X153068767Y-106070780D01*
X153221433Y-106299261D01*
X153415739Y-106493567D01*
X153644220Y-106646233D01*
X153898093Y-106751391D01*
X154167604Y-106805000D01*
X154442396Y-106805000D01*
X154711907Y-106751391D01*
X154965780Y-106646233D01*
X155194261Y-106493567D01*
X155388567Y-106299261D01*
X155541233Y-106070780D01*
X155575000Y-105989260D01*
X155608767Y-106070780D01*
X155761433Y-106299261D01*
X155955739Y-106493567D01*
X156184220Y-106646233D01*
X156438093Y-106751391D01*
X156707604Y-106805000D01*
X156982396Y-106805000D01*
X157251907Y-106751391D01*
X157505780Y-106646233D01*
X157734261Y-106493567D01*
X157928567Y-106299261D01*
X158081233Y-106070780D01*
X158186391Y-105816907D01*
X158240000Y-105547396D01*
X158240000Y-105272604D01*
X158186391Y-105003093D01*
X158081233Y-104749220D01*
X157928567Y-104520739D01*
X157734261Y-104326433D01*
X157505780Y-104173767D01*
X157424260Y-104140000D01*
X157505780Y-104106233D01*
X157734261Y-103953567D01*
X157928567Y-103759261D01*
X158081233Y-103530780D01*
X158186391Y-103276907D01*
X158240000Y-103007396D01*
X158240000Y-102732604D01*
X158186391Y-102463093D01*
X158081233Y-102209220D01*
X157928567Y-101980739D01*
X157734261Y-101786433D01*
X157505780Y-101633767D01*
X157424260Y-101600000D01*
X157505780Y-101566233D01*
X157734261Y-101413567D01*
X157928567Y-101219261D01*
X158081233Y-100990780D01*
X158186391Y-100736907D01*
X158240000Y-100467396D01*
X158240000Y-100192604D01*
X158186391Y-99923093D01*
X158081233Y-99669220D01*
X157928567Y-99440739D01*
X157734261Y-99246433D01*
X157505780Y-99093767D01*
X157424260Y-99060000D01*
X157505780Y-99026233D01*
X157734261Y-98873567D01*
X157928567Y-98679261D01*
X158081233Y-98450780D01*
X158186391Y-98196907D01*
X158240000Y-97927396D01*
X158240000Y-97652604D01*
X158186391Y-97383093D01*
X158081233Y-97129220D01*
X157928567Y-96900739D01*
X157734261Y-96706433D01*
X157505780Y-96553767D01*
X157424260Y-96520000D01*
X157505780Y-96486233D01*
X157734261Y-96333567D01*
X157928567Y-96139261D01*
X158081233Y-95910780D01*
X158186391Y-95656907D01*
X158240000Y-95387396D01*
X158240000Y-95112604D01*
X158186391Y-94843093D01*
X158081233Y-94589220D01*
X157928567Y-94360739D01*
X157734261Y-94166433D01*
X157505780Y-94013767D01*
X157429499Y-93982170D01*
X157447326Y-93975744D01*
X157562794Y-93914025D01*
X157629531Y-93674137D01*
X156845000Y-92889605D01*
X156060469Y-93674137D01*
X156127206Y-93914025D01*
X156266707Y-93979600D01*
X156184220Y-94013767D01*
X155955739Y-94166433D01*
X155761433Y-94360739D01*
X155608767Y-94589220D01*
X155575000Y-94670740D01*
X155541233Y-94589220D01*
X155388567Y-94360739D01*
X155194261Y-94166433D01*
X154965780Y-94013767D01*
X154889499Y-93982170D01*
X154907326Y-93975744D01*
X155022794Y-93914025D01*
X155089531Y-93674137D01*
X154305000Y-92889605D01*
X153520469Y-93674137D01*
X153587206Y-93914025D01*
X153726707Y-93979600D01*
X153644220Y-94013767D01*
X153415739Y-94166433D01*
X153221433Y-94360739D01*
X153068767Y-94589220D01*
X152963609Y-94843093D01*
X152910000Y-95112604D01*
X134524061Y-95112604D01*
X134529003Y-95103359D01*
X134601623Y-94863963D01*
X134620000Y-94677380D01*
X134620000Y-92782097D01*
X152905105Y-92782097D01*
X152946069Y-93053817D01*
X153039256Y-93312326D01*
X153100975Y-93427794D01*
X153340863Y-93494531D01*
X154125395Y-92710000D01*
X154484605Y-92710000D01*
X155269137Y-93494531D01*
X155509025Y-93427794D01*
X155572332Y-93293118D01*
X155579256Y-93312326D01*
X155640975Y-93427794D01*
X155880863Y-93494531D01*
X156665395Y-92710000D01*
X157024605Y-92710000D01*
X157809137Y-93494531D01*
X158049025Y-93427794D01*
X158165924Y-93179108D01*
X158232061Y-92912394D01*
X158244895Y-92637903D01*
X158203931Y-92366183D01*
X158110744Y-92107674D01*
X158049025Y-91992206D01*
X157809137Y-91925469D01*
X157024605Y-92710000D01*
X156665395Y-92710000D01*
X155880863Y-91925469D01*
X155640975Y-91992206D01*
X155577668Y-92126882D01*
X155570744Y-92107674D01*
X155509025Y-91992206D01*
X155269137Y-91925469D01*
X154484605Y-92710000D01*
X154125395Y-92710000D01*
X153340863Y-91925469D01*
X153100975Y-91992206D01*
X152984076Y-92240892D01*
X152917939Y-92507606D01*
X152905105Y-92782097D01*
X134620000Y-92782097D01*
X134620000Y-91123620D01*
X134601623Y-90937037D01*
X134599489Y-90930000D01*
X152906928Y-90930000D01*
X152919188Y-91054482D01*
X152955498Y-91174180D01*
X153014463Y-91284494D01*
X153093815Y-91381185D01*
X153190506Y-91460537D01*
X153300820Y-91519502D01*
X153420518Y-91555812D01*
X153545000Y-91568072D01*
X153569976Y-91567910D01*
X153520469Y-91745863D01*
X154305000Y-92530395D01*
X155089531Y-91745863D01*
X155040024Y-91567910D01*
X155065000Y-91568072D01*
X155189482Y-91555812D01*
X155309180Y-91519502D01*
X155419494Y-91460537D01*
X155516185Y-91381185D01*
X155595537Y-91284494D01*
X155654502Y-91174180D01*
X155666648Y-91134137D01*
X156060469Y-91134137D01*
X156127206Y-91374025D01*
X156261882Y-91437332D01*
X156242674Y-91444256D01*
X156127206Y-91505975D01*
X156060469Y-91745863D01*
X156845000Y-92530395D01*
X157629531Y-91745863D01*
X157562794Y-91505975D01*
X157428118Y-91442668D01*
X157447326Y-91435744D01*
X157562794Y-91374025D01*
X157629531Y-91134137D01*
X156845000Y-90349605D01*
X156060469Y-91134137D01*
X155666648Y-91134137D01*
X155690812Y-91054482D01*
X155703072Y-90930000D01*
X155702910Y-90905024D01*
X155880863Y-90954531D01*
X156665395Y-90170000D01*
X157024605Y-90170000D01*
X157809137Y-90954531D01*
X158049025Y-90887794D01*
X158165924Y-90639108D01*
X158232061Y-90372394D01*
X158244895Y-90097903D01*
X158203931Y-89826183D01*
X158110744Y-89567674D01*
X158049025Y-89452206D01*
X157809137Y-89385469D01*
X157024605Y-90170000D01*
X156665395Y-90170000D01*
X155880863Y-89385469D01*
X155702910Y-89434976D01*
X155703072Y-89410000D01*
X155690812Y-89285518D01*
X155666649Y-89205863D01*
X156060469Y-89205863D01*
X156845000Y-89990395D01*
X157629531Y-89205863D01*
X157562794Y-88965975D01*
X157314108Y-88849076D01*
X157047394Y-88782939D01*
X156772903Y-88770105D01*
X156501183Y-88811069D01*
X156242674Y-88904256D01*
X156127206Y-88965975D01*
X156060469Y-89205863D01*
X155666649Y-89205863D01*
X155654502Y-89165820D01*
X155595537Y-89055506D01*
X155516185Y-88958815D01*
X155419494Y-88879463D01*
X155309180Y-88820498D01*
X155189482Y-88784188D01*
X155065000Y-88771928D01*
X154590750Y-88775000D01*
X154432000Y-88933750D01*
X154432000Y-90043000D01*
X154452000Y-90043000D01*
X154452000Y-90297000D01*
X154432000Y-90297000D01*
X154432000Y-90317000D01*
X154178000Y-90317000D01*
X154178000Y-90297000D01*
X153068750Y-90297000D01*
X152910000Y-90455750D01*
X152906928Y-90930000D01*
X134599489Y-90930000D01*
X134529003Y-90697641D01*
X134411075Y-90477012D01*
X134252370Y-90283630D01*
X134058987Y-90124925D01*
X133838358Y-90006997D01*
X133598962Y-89934377D01*
X133350000Y-89909856D01*
X133101037Y-89934377D01*
X132861641Y-90006997D01*
X132641012Y-90124925D01*
X132447630Y-90283630D01*
X132288925Y-90477013D01*
X132170997Y-90697642D01*
X132098377Y-90937038D01*
X132080000Y-91123621D01*
X125335000Y-91123621D01*
X125335000Y-89232058D01*
X125509866Y-89445134D01*
X125735986Y-89630706D01*
X125993966Y-89768599D01*
X126273889Y-89853513D01*
X126565000Y-89882185D01*
X126856110Y-89853513D01*
X127136033Y-89768599D01*
X127394013Y-89630706D01*
X127620134Y-89445134D01*
X127805706Y-89219014D01*
X127815000Y-89201626D01*
X127824294Y-89219013D01*
X128009866Y-89445134D01*
X128235986Y-89630706D01*
X128493966Y-89768599D01*
X128773889Y-89853513D01*
X129065000Y-89882185D01*
X129356110Y-89853513D01*
X129636033Y-89768599D01*
X129894013Y-89630706D01*
X130120134Y-89445134D01*
X130305706Y-89219014D01*
X130315000Y-89201626D01*
X130324294Y-89219013D01*
X130509866Y-89445134D01*
X130735986Y-89630706D01*
X130993966Y-89768599D01*
X131273889Y-89853513D01*
X131565000Y-89882185D01*
X131856110Y-89853513D01*
X132136033Y-89768599D01*
X132394013Y-89630706D01*
X132620134Y-89445134D01*
X132805706Y-89219014D01*
X132815000Y-89201626D01*
X132824294Y-89219013D01*
X133009866Y-89445134D01*
X133235986Y-89630706D01*
X133493966Y-89768599D01*
X133773889Y-89853513D01*
X134065000Y-89882185D01*
X134356110Y-89853513D01*
X134636033Y-89768599D01*
X134894013Y-89630706D01*
X135120134Y-89445134D01*
X135305706Y-89219014D01*
X135315000Y-89201626D01*
X135324294Y-89219013D01*
X135509866Y-89445134D01*
X135735986Y-89630706D01*
X135993966Y-89768599D01*
X136273889Y-89853513D01*
X136565000Y-89882185D01*
X136856110Y-89853513D01*
X137136033Y-89768599D01*
X137394013Y-89630706D01*
X137620134Y-89445134D01*
X137672223Y-89381663D01*
X137726595Y-89483386D01*
X137837038Y-89617962D01*
X137971614Y-89728405D01*
X138125150Y-89810472D01*
X138291746Y-89861008D01*
X138465000Y-89878072D01*
X139665000Y-89878072D01*
X139838254Y-89861008D01*
X140004850Y-89810472D01*
X140158386Y-89728405D01*
X140292962Y-89617962D01*
X140403405Y-89483386D01*
X140442630Y-89410000D01*
X152906928Y-89410000D01*
X152910000Y-89884250D01*
X153068750Y-90043000D01*
X154178000Y-90043000D01*
X154178000Y-88933750D01*
X154019250Y-88775000D01*
X153545000Y-88771928D01*
X153420518Y-88784188D01*
X153300820Y-88820498D01*
X153190506Y-88879463D01*
X153093815Y-88958815D01*
X153014463Y-89055506D01*
X152955498Y-89165820D01*
X152919188Y-89285518D01*
X152906928Y-89410000D01*
X140442630Y-89410000D01*
X140485472Y-89329850D01*
X140536008Y-89163254D01*
X140553072Y-88990000D01*
X140553072Y-87540000D01*
X140536008Y-87366746D01*
X140485472Y-87200150D01*
X140403405Y-87046614D01*
X140292962Y-86912038D01*
X140158386Y-86801595D01*
X140004850Y-86719528D01*
X139838254Y-86668992D01*
X139665000Y-86651928D01*
X138465000Y-86651928D01*
X138291746Y-86668992D01*
X138125150Y-86719528D01*
X137971614Y-86801595D01*
X137837038Y-86912038D01*
X137726595Y-87046614D01*
X137672223Y-87148337D01*
X137620134Y-87084866D01*
X137394014Y-86899294D01*
X137136034Y-86761401D01*
X136856111Y-86676487D01*
X136565000Y-86647815D01*
X136273890Y-86676487D01*
X135993967Y-86761401D01*
X135735987Y-86899294D01*
X135509866Y-87084866D01*
X135324294Y-87310986D01*
X135315000Y-87328374D01*
X135305706Y-87310986D01*
X135120134Y-87084866D01*
X134894014Y-86899294D01*
X134636034Y-86761401D01*
X134356111Y-86676487D01*
X134065000Y-86647815D01*
X133773890Y-86676487D01*
X133493967Y-86761401D01*
X133235987Y-86899294D01*
X133009866Y-87084866D01*
X132824294Y-87310986D01*
X132815000Y-87328374D01*
X132805706Y-87310986D01*
X132700000Y-87182183D01*
X132700000Y-81727817D01*
X132805706Y-81599014D01*
X132815000Y-81581626D01*
X132824294Y-81599013D01*
X133009866Y-81825134D01*
X133235986Y-82010706D01*
X133493966Y-82148599D01*
X133773889Y-82233513D01*
X134065000Y-82262185D01*
X134356110Y-82233513D01*
X134636033Y-82148599D01*
X134894013Y-82010706D01*
X135120134Y-81825134D01*
X135305706Y-81599014D01*
X135315000Y-81581626D01*
X135324294Y-81599013D01*
X135509866Y-81825134D01*
X135735986Y-82010706D01*
X135993966Y-82148599D01*
X136273889Y-82233513D01*
X136565000Y-82262185D01*
X136856110Y-82233513D01*
X137136033Y-82148599D01*
X137394013Y-82010706D01*
X137620134Y-81825134D01*
X137672223Y-81761663D01*
X137726595Y-81863386D01*
X137837038Y-81997962D01*
X137971614Y-82108405D01*
X138125150Y-82190472D01*
X138291746Y-82241008D01*
X138465000Y-82258072D01*
X139665000Y-82258072D01*
X139838254Y-82241008D01*
X140004850Y-82190472D01*
X140158386Y-82108405D01*
X140292962Y-81997962D01*
X140403405Y-81863386D01*
X140485472Y-81709850D01*
X140536008Y-81543254D01*
X140553072Y-81370000D01*
X140553072Y-80948576D01*
X152210000Y-80948576D01*
X152210000Y-81611424D01*
X152339315Y-82261534D01*
X152592976Y-82873925D01*
X152961234Y-83425063D01*
X153429937Y-83893766D01*
X153981075Y-84262024D01*
X154593466Y-84515685D01*
X155243576Y-84645000D01*
X155906424Y-84645000D01*
X156556534Y-84515685D01*
X157168925Y-84262024D01*
X157720063Y-83893766D01*
X158188766Y-83425063D01*
X158557024Y-82873925D01*
X158810685Y-82261534D01*
X158940000Y-81611424D01*
X158940000Y-80948576D01*
X158810685Y-80298466D01*
X158557024Y-79686075D01*
X158188766Y-79134937D01*
X157720063Y-78666234D01*
X157168925Y-78297976D01*
X156556534Y-78044315D01*
X155906424Y-77915000D01*
X155243576Y-77915000D01*
X154593466Y-78044315D01*
X153981075Y-78297976D01*
X153429937Y-78666234D01*
X152961234Y-79134937D01*
X152592976Y-79686075D01*
X152339315Y-80298466D01*
X152210000Y-80948576D01*
X140553072Y-80948576D01*
X140553072Y-79920000D01*
X140536008Y-79746746D01*
X140485472Y-79580150D01*
X140403405Y-79426614D01*
X140292962Y-79292038D01*
X140158386Y-79181595D01*
X140004850Y-79099528D01*
X139838254Y-79048992D01*
X139665000Y-79031928D01*
X138465000Y-79031928D01*
X138291746Y-79048992D01*
X138125150Y-79099528D01*
X137971614Y-79181595D01*
X137837038Y-79292038D01*
X137726595Y-79426614D01*
X137672223Y-79528337D01*
X137620134Y-79464866D01*
X137394014Y-79279294D01*
X137136034Y-79141401D01*
X136856111Y-79056487D01*
X136565000Y-79027815D01*
X136273890Y-79056487D01*
X135993967Y-79141401D01*
X135735987Y-79279294D01*
X135509866Y-79464866D01*
X135324294Y-79690986D01*
X135315000Y-79708374D01*
X135305706Y-79690986D01*
X135120134Y-79464866D01*
X134894014Y-79279294D01*
X134636034Y-79141401D01*
X134356111Y-79056487D01*
X134065000Y-79027815D01*
X133773890Y-79056487D01*
X133493967Y-79141401D01*
X133235987Y-79279294D01*
X133009866Y-79464866D01*
X132824294Y-79690986D01*
X132815000Y-79708374D01*
X132805706Y-79690986D01*
X132695000Y-79556090D01*
X132695000Y-77470000D01*
X141471856Y-77470000D01*
X141496377Y-77718963D01*
X141568997Y-77958359D01*
X141686925Y-78178988D01*
X141845630Y-78372370D01*
X142039012Y-78531075D01*
X142259641Y-78649003D01*
X142499037Y-78721623D01*
X142685620Y-78740000D01*
X149922380Y-78740000D01*
X150108963Y-78721623D01*
X150348359Y-78649003D01*
X150568988Y-78531075D01*
X150762370Y-78372370D01*
X150921075Y-78178988D01*
X151039003Y-77958359D01*
X151111623Y-77718963D01*
X151136144Y-77470000D01*
X151111623Y-77221037D01*
X151039003Y-76981641D01*
X150921075Y-76761012D01*
X150762370Y-76567630D01*
X150568988Y-76408925D01*
X150348359Y-76290997D01*
X150108963Y-76218377D01*
X149922380Y-76200000D01*
X142685620Y-76200000D01*
X142499037Y-76218377D01*
X142259641Y-76290997D01*
X142039012Y-76408925D01*
X141845630Y-76567630D01*
X141686925Y-76761012D01*
X141568997Y-76981641D01*
X141496377Y-77221037D01*
X141471856Y-77470000D01*
X132695000Y-77470000D01*
X132695000Y-74834341D01*
X132724039Y-74805302D01*
X132830000Y-74646719D01*
X132935961Y-74805302D01*
X133144698Y-75014039D01*
X133390147Y-75178042D01*
X133662875Y-75291010D01*
X133952401Y-75348600D01*
X134247599Y-75348600D01*
X134537125Y-75291010D01*
X134809853Y-75178042D01*
X135055302Y-75014039D01*
X135264039Y-74805302D01*
X135370000Y-74646719D01*
X135475961Y-74805302D01*
X135684698Y-75014039D01*
X135930147Y-75178042D01*
X136202875Y-75291010D01*
X136492401Y-75348600D01*
X136787599Y-75348600D01*
X137077125Y-75291010D01*
X137349853Y-75178042D01*
X137595302Y-75014039D01*
X137804039Y-74805302D01*
X137910000Y-74646719D01*
X138015961Y-74805302D01*
X138224698Y-75014039D01*
X138470147Y-75178042D01*
X138742875Y-75291010D01*
X139032401Y-75348600D01*
X139327599Y-75348600D01*
X139617125Y-75291010D01*
X139889853Y-75178042D01*
X140135302Y-75014039D01*
X140344039Y-74805302D01*
X140450000Y-74646719D01*
X140555961Y-74805302D01*
X140764698Y-75014039D01*
X141010147Y-75178042D01*
X141282875Y-75291010D01*
X141572401Y-75348600D01*
X141867599Y-75348600D01*
X142157125Y-75291010D01*
X142429853Y-75178042D01*
X142675302Y-75014039D01*
X142884039Y-74805302D01*
X142990000Y-74646719D01*
X143095961Y-74805302D01*
X143304698Y-75014039D01*
X143550147Y-75178042D01*
X143822875Y-75291010D01*
X144112401Y-75348600D01*
X144407599Y-75348600D01*
X144697125Y-75291010D01*
X144969853Y-75178042D01*
X145215302Y-75014039D01*
X145424039Y-74805302D01*
X145530000Y-74646719D01*
X145635961Y-74805302D01*
X145844698Y-75014039D01*
X146090147Y-75178042D01*
X146362875Y-75291010D01*
X146652401Y-75348600D01*
X146947599Y-75348600D01*
X147237125Y-75291010D01*
X147509853Y-75178042D01*
X147755302Y-75014039D01*
X147964039Y-74805302D01*
X148070000Y-74646719D01*
X148175961Y-74805302D01*
X148384698Y-75014039D01*
X148630147Y-75178042D01*
X148902875Y-75291010D01*
X149192401Y-75348600D01*
X149487599Y-75348600D01*
X149777125Y-75291010D01*
X150049853Y-75178042D01*
X150295302Y-75014039D01*
X150504039Y-74805302D01*
X150610000Y-74646719D01*
X150715961Y-74805302D01*
X150924698Y-75014039D01*
X151170147Y-75178042D01*
X151442875Y-75291010D01*
X151732401Y-75348600D01*
X152027599Y-75348600D01*
X152317125Y-75291010D01*
X152589853Y-75178042D01*
X152835302Y-75014039D01*
X153044039Y-74805302D01*
X153208042Y-74559853D01*
X153321010Y-74287125D01*
X153378600Y-73997599D01*
X153378600Y-73702401D01*
X153321010Y-73412875D01*
X153208042Y-73140147D01*
X153044039Y-72894698D01*
X152835302Y-72685961D01*
X152676719Y-72580000D01*
X152835302Y-72474039D01*
X153044039Y-72265302D01*
X153208042Y-72019853D01*
X153321010Y-71747125D01*
X153378600Y-71457599D01*
X153378600Y-71162401D01*
X153321010Y-70872875D01*
X153208042Y-70600147D01*
X153044039Y-70354698D01*
X152835302Y-70145961D01*
X152589853Y-69981958D01*
X152317125Y-69868990D01*
X152027599Y-69811400D01*
X151732401Y-69811400D01*
X151442875Y-69868990D01*
X151170147Y-69981958D01*
X150924698Y-70145961D01*
X150715961Y-70354698D01*
X150610000Y-70513281D01*
X150504039Y-70354698D01*
X150295302Y-70145961D01*
X150049853Y-69981958D01*
X149777125Y-69868990D01*
X149487599Y-69811400D01*
X149192401Y-69811400D01*
X148902875Y-69868990D01*
X148630147Y-69981958D01*
X148384698Y-70145961D01*
X148175961Y-70354698D01*
X148070000Y-70513281D01*
X147964039Y-70354698D01*
X147755302Y-70145961D01*
X147509853Y-69981958D01*
X147237125Y-69868990D01*
X146947599Y-69811400D01*
X146652401Y-69811400D01*
X146362875Y-69868990D01*
X146090147Y-69981958D01*
X145844698Y-70145961D01*
X145635961Y-70354698D01*
X145530000Y-70513281D01*
X145424039Y-70354698D01*
X145215302Y-70145961D01*
X144969853Y-69981958D01*
X144697125Y-69868990D01*
X144407599Y-69811400D01*
X144112401Y-69811400D01*
X143822875Y-69868990D01*
X143550147Y-69981958D01*
X143304698Y-70145961D01*
X143095961Y-70354698D01*
X142990000Y-70513281D01*
X142884039Y-70354698D01*
X142675302Y-70145961D01*
X142429853Y-69981958D01*
X142157125Y-69868990D01*
X141867599Y-69811400D01*
X141572401Y-69811400D01*
X141282875Y-69868990D01*
X141010147Y-69981958D01*
X140764698Y-70145961D01*
X140555961Y-70354698D01*
X140450000Y-70513281D01*
X140344039Y-70354698D01*
X140135302Y-70145961D01*
X139889853Y-69981958D01*
X139617125Y-69868990D01*
X139327599Y-69811400D01*
X139032401Y-69811400D01*
X138742875Y-69868990D01*
X138470147Y-69981958D01*
X138224698Y-70145961D01*
X138015961Y-70354698D01*
X137910000Y-70513281D01*
X137804039Y-70354698D01*
X137595302Y-70145961D01*
X137349853Y-69981958D01*
X137077125Y-69868990D01*
X136787599Y-69811400D01*
X136492401Y-69811400D01*
X136202875Y-69868990D01*
X135930147Y-69981958D01*
X135684698Y-70145961D01*
X135475961Y-70354698D01*
X135370000Y-70513281D01*
X135264039Y-70354698D01*
X135055302Y-70145961D01*
X134809853Y-69981958D01*
X134537125Y-69868990D01*
X134247599Y-69811400D01*
X133952401Y-69811400D01*
X133662875Y-69868990D01*
X133390147Y-69981958D01*
X133144698Y-70145961D01*
X132935961Y-70354698D01*
X132830000Y-70513281D01*
X132724039Y-70354698D01*
X132515302Y-70145961D01*
X132269853Y-69981958D01*
X131997125Y-69868990D01*
X131707599Y-69811400D01*
X131412401Y-69811400D01*
X131122875Y-69868990D01*
X130850147Y-69981958D01*
X130604698Y-70145961D01*
X130395961Y-70354698D01*
X130290000Y-70513281D01*
X130184039Y-70354698D01*
X129975302Y-70145961D01*
X129729853Y-69981958D01*
X129457125Y-69868990D01*
X129167599Y-69811400D01*
X128872401Y-69811400D01*
X128582875Y-69868990D01*
X128310147Y-69981958D01*
X128064698Y-70145961D01*
X127855961Y-70354698D01*
X127750000Y-70513281D01*
X127644039Y-70354698D01*
X127435302Y-70145961D01*
X127189853Y-69981958D01*
X126917125Y-69868990D01*
X126627599Y-69811400D01*
X126332401Y-69811400D01*
X126042875Y-69868990D01*
X125770147Y-69981958D01*
X125524698Y-70145961D01*
X125315961Y-70354698D01*
X125210000Y-70513281D01*
X125104039Y-70354698D01*
X124895302Y-70145961D01*
X124649853Y-69981958D01*
X124377125Y-69868990D01*
X124087599Y-69811400D01*
X123792401Y-69811400D01*
X123502875Y-69868990D01*
X123230147Y-69981958D01*
X122984698Y-70145961D01*
X122775961Y-70354698D01*
X122670000Y-70513281D01*
X122564039Y-70354698D01*
X122355302Y-70145961D01*
X122109853Y-69981958D01*
X121837125Y-69868990D01*
X121547599Y-69811400D01*
X121252401Y-69811400D01*
X120962875Y-69868990D01*
X120690147Y-69981958D01*
X120444698Y-70145961D01*
X120235961Y-70354698D01*
X120130000Y-70513281D01*
X120024039Y-70354698D01*
X119815302Y-70145961D01*
X119569853Y-69981958D01*
X119297125Y-69868990D01*
X119007599Y-69811400D01*
X118712401Y-69811400D01*
X118422875Y-69868990D01*
X118150147Y-69981958D01*
X117904698Y-70145961D01*
X117695961Y-70354698D01*
X117590000Y-70513281D01*
X117484039Y-70354698D01*
X117275302Y-70145961D01*
X117029853Y-69981958D01*
X116757125Y-69868990D01*
X116467599Y-69811400D01*
X116172401Y-69811400D01*
X115882875Y-69868990D01*
X115610147Y-69981958D01*
X115364698Y-70145961D01*
X115155961Y-70354698D01*
X115050000Y-70513281D01*
X114944039Y-70354698D01*
X114735302Y-70145961D01*
X114489853Y-69981958D01*
X114217125Y-69868990D01*
X113927599Y-69811400D01*
X113632401Y-69811400D01*
X113342875Y-69868990D01*
X113070147Y-69981958D01*
X112824698Y-70145961D01*
X112615961Y-70354698D01*
X112510000Y-70513281D01*
X112404039Y-70354698D01*
X112195302Y-70145961D01*
X111949853Y-69981958D01*
X111677125Y-69868990D01*
X111387599Y-69811400D01*
X111092401Y-69811400D01*
X110802875Y-69868990D01*
X110530147Y-69981958D01*
X110284698Y-70145961D01*
X110075961Y-70354698D01*
X109970000Y-70513281D01*
X109864039Y-70354698D01*
X109655302Y-70145961D01*
X109409853Y-69981958D01*
X109137125Y-69868990D01*
X108847599Y-69811400D01*
X108552401Y-69811400D01*
X108262875Y-69868990D01*
X107990147Y-69981958D01*
X107744698Y-70145961D01*
X107535961Y-70354698D01*
X107425441Y-70520103D01*
X107366817Y-70421512D01*
X107170293Y-70203146D01*
X106934944Y-70027316D01*
X106669814Y-69900778D01*
X106519026Y-69855042D01*
X106287000Y-69976183D01*
X106287000Y-71183000D01*
X106307000Y-71183000D01*
X106307000Y-71437000D01*
X106287000Y-71437000D01*
X106287000Y-71457000D01*
X106033000Y-71457000D01*
X106033000Y-71437000D01*
X103747000Y-71437000D01*
X103747000Y-71457000D01*
X103493000Y-71457000D01*
X103493000Y-71437000D01*
X102285536Y-71437000D01*
X102165037Y-71669027D01*
X102263036Y-71945978D01*
X102413183Y-72198488D01*
X102574692Y-72377947D01*
X102512220Y-72396898D01*
X102401906Y-72455863D01*
X102305215Y-72535215D01*
X102225863Y-72631906D01*
X102166898Y-72742220D01*
X102130588Y-72861918D01*
X102118328Y-72986400D01*
X101610682Y-72986400D01*
X101635000Y-72864148D01*
X101635000Y-72295852D01*
X101524131Y-71738477D01*
X101306654Y-71213440D01*
X101131280Y-70950973D01*
X102165037Y-70950973D01*
X102285536Y-71183000D01*
X103493000Y-71183000D01*
X103493000Y-69976183D01*
X103747000Y-69976183D01*
X103747000Y-71183000D01*
X106033000Y-71183000D01*
X106033000Y-69976183D01*
X105800974Y-69855042D01*
X105650186Y-69900778D01*
X105385056Y-70027316D01*
X105149707Y-70203146D01*
X104953183Y-70421512D01*
X104890000Y-70527770D01*
X104826817Y-70421512D01*
X104630293Y-70203146D01*
X104394944Y-70027316D01*
X104129814Y-69900778D01*
X103979026Y-69855042D01*
X103747000Y-69976183D01*
X103493000Y-69976183D01*
X103260974Y-69855042D01*
X103110186Y-69900778D01*
X102845056Y-70027316D01*
X102609707Y-70203146D01*
X102413183Y-70421512D01*
X102263036Y-70674022D01*
X102165037Y-70950973D01*
X101131280Y-70950973D01*
X100990926Y-70740920D01*
X100589080Y-70339074D01*
X100116560Y-70023346D01*
X99591523Y-69805869D01*
X99034148Y-69695000D01*
X98465852Y-69695000D01*
X97908477Y-69805869D01*
X97383440Y-70023346D01*
X96910920Y-70339074D01*
X96509074Y-70740920D01*
X96193346Y-71213440D01*
X95975869Y-71738477D01*
X95935000Y-71943939D01*
X95935000Y-71613505D01*
X95982312Y-71130984D01*
X96112714Y-70699070D01*
X96324524Y-70300715D01*
X96609675Y-69951086D01*
X96957303Y-69663503D01*
X97354177Y-69448914D01*
X97785161Y-69315502D01*
X98265654Y-69265000D01*
X157216495Y-69265000D01*
X157699016Y-69312312D01*
M02*
