%TF.GenerationSoftware,KiCad,Pcbnew,8.0.6*%
%TF.CreationDate,2025-02-12T13:49:43-05:00*%
%TF.ProjectId,PwrBypass,50777242-7970-4617-9373-2e6b69636164,rev?*%
%TF.SameCoordinates,Original*%
%TF.FileFunction,Copper,L2,Bot*%
%TF.FilePolarity,Positive*%
%FSLAX46Y46*%
G04 Gerber Fmt 4.6, Leading zero omitted, Abs format (unit mm)*
G04 Created by KiCad (PCBNEW 8.0.6) date 2025-02-12 13:49:43*
%MOMM*%
%LPD*%
G01*
G04 APERTURE LIST*
G04 Aperture macros list*
%AMRoundRect*
0 Rectangle with rounded corners*
0 $1 Rounding radius*
0 $2 $3 $4 $5 $6 $7 $8 $9 X,Y pos of 4 corners*
0 Add a 4 corners polygon primitive as box body*
4,1,4,$2,$3,$4,$5,$6,$7,$8,$9,$2,$3,0*
0 Add four circle primitives for the rounded corners*
1,1,$1+$1,$2,$3*
1,1,$1+$1,$4,$5*
1,1,$1+$1,$6,$7*
1,1,$1+$1,$8,$9*
0 Add four rect primitives between the rounded corners*
20,1,$1+$1,$2,$3,$4,$5,0*
20,1,$1+$1,$4,$5,$6,$7,0*
20,1,$1+$1,$6,$7,$8,$9,0*
20,1,$1+$1,$8,$9,$2,$3,0*%
G04 Aperture macros list end*
%TA.AperFunction,ComponentPad*%
%ADD10R,1.700000X1.700000*%
%TD*%
%TA.AperFunction,ComponentPad*%
%ADD11O,1.700000X1.700000*%
%TD*%
%TA.AperFunction,ComponentPad*%
%ADD12C,4.500000*%
%TD*%
%TA.AperFunction,ComponentPad*%
%ADD13RoundRect,0.250000X0.600000X0.600000X-0.600000X0.600000X-0.600000X-0.600000X0.600000X-0.600000X0*%
%TD*%
%TA.AperFunction,ComponentPad*%
%ADD14C,1.700000*%
%TD*%
%TA.AperFunction,ViaPad*%
%ADD15C,0.800000*%
%TD*%
%TA.AperFunction,Conductor*%
%ADD16C,0.500000*%
%TD*%
%TA.AperFunction,Conductor*%
%ADD17C,2.000000*%
%TD*%
G04 APERTURE END LIST*
D10*
%TO.P,J14,1,Pin_1*%
%TO.N,VCC*%
X124000000Y-98100000D03*
D11*
%TO.P,J14,2,Pin_2*%
X124000000Y-100640000D03*
%TO.P,J14,3,Pin_3*%
X121460000Y-98100000D03*
%TO.P,J14,4,Pin_4*%
X121460000Y-100640000D03*
%TO.P,J14,5,Pin_5*%
%TO.N,GND*%
X118920000Y-98100000D03*
%TO.P,J14,6,Pin_6*%
X118920000Y-100640000D03*
%TO.P,J14,7,Pin_7*%
X116380000Y-98100000D03*
%TO.P,J14,8,Pin_8*%
X116380000Y-100640000D03*
%TD*%
D10*
%TO.P,J11,1,Pin_1*%
%TO.N,VCC*%
X104050000Y-42975000D03*
D11*
%TO.P,J11,2,Pin_2*%
X106590000Y-42975000D03*
%TO.P,J11,3,Pin_3*%
X104050000Y-45515000D03*
%TO.P,J11,4,Pin_4*%
%TO.N,Signal*%
X106590000Y-45515000D03*
%TO.P,J11,5,Pin_5*%
%TO.N,unconnected-(J11-Pin_5-Pad5)*%
X104050000Y-48055000D03*
%TO.P,J11,6,Pin_6*%
%TO.N,unconnected-(J11-Pin_6-Pad6)*%
X106590000Y-48055000D03*
%TO.P,J11,7,Pin_7*%
%TO.N,Red*%
X104050000Y-50595000D03*
%TO.P,J11,8,Pin_8*%
%TO.N,Green*%
X106590000Y-50595000D03*
%TO.P,J11,9,Pin_9*%
%TO.N,Blue*%
X104050000Y-53135000D03*
%TO.P,J11,10,Pin_10*%
%TO.N,GND*%
X106590000Y-53135000D03*
%TO.P,J11,11,Pin_11*%
X104050000Y-55675000D03*
%TO.P,J11,12,Pin_12*%
X106590000Y-55675000D03*
%TD*%
D12*
%TO.P,H5,1*%
%TO.N,N/C*%
X116200000Y-92480000D03*
%TD*%
D13*
%TO.P,J1,1,Pin_1*%
%TO.N,VCC*%
X107500000Y-97040000D03*
D14*
%TO.P,J1,2,Pin_2*%
%TO.N,Red*%
X104960000Y-97040000D03*
%TO.P,J1,3,Pin_3*%
%TO.N,Green*%
X107500000Y-94500000D03*
%TO.P,J1,4,Pin_4*%
%TO.N,Blue*%
X104960000Y-94500000D03*
%TO.P,J1,5,Pin_5*%
%TO.N,Signal*%
X107500000Y-91960000D03*
%TO.P,J1,6,Pin_6*%
%TO.N,GND*%
X104960000Y-91960000D03*
%TD*%
D12*
%TO.P,H1,1*%
%TO.N,N/C*%
X116200000Y-43480000D03*
%TD*%
D15*
%TO.N,Signal*%
X107000000Y-66500000D03*
%TD*%
D16*
%TO.N,Green*%
X108800000Y-52805000D02*
X108800000Y-93200000D01*
X106590000Y-50595000D02*
X108800000Y-52805000D01*
X108800000Y-93200000D02*
X107500000Y-94500000D01*
%TO.N,Red*%
X104050000Y-50595000D02*
X102050000Y-52595000D01*
X102050000Y-52595000D02*
X102050000Y-94130000D01*
X102050000Y-94130000D02*
X104960000Y-97040000D01*
%TO.N,Blue*%
X102750000Y-54435000D02*
X102750000Y-92290000D01*
X104050000Y-53135000D02*
X102750000Y-54435000D01*
X102750000Y-92290000D02*
X104960000Y-94500000D01*
%TO.N,Signal*%
X107500000Y-91960000D02*
X107890000Y-91570000D01*
X107890000Y-91570000D02*
X107890000Y-67390000D01*
X107890000Y-67390000D02*
X107000000Y-66500000D01*
D17*
%TO.N,VCC*%
X119769138Y-96050000D02*
X121460000Y-97740862D01*
X114540862Y-97040000D02*
X115530862Y-96050000D01*
X115530862Y-96050000D02*
X119769138Y-96050000D01*
X121460000Y-97740862D02*
X121460000Y-98100000D01*
X107500000Y-97040000D02*
X114540862Y-97040000D01*
%TD*%
M02*
