M48
; DRILL file {KiCad 8.0.6} date 2025-02-12T13:49:41-0500
; FORMAT={-:-/ absolute / inch / decimal}
; #@! TF.CreationDate,2025-02-12T13:49:41-05:00
; #@! TF.GenerationSoftware,Kicad,Pcbnew,8.0.6
; #@! TF.FileFunction,Plated,1,2,PTH
FMAT,2
INCH
; #@! TA.AperFunction,Plated,PTH,ViaDrill
T1C0.0157
; #@! TA.AperFunction,Plated,PTH,ComponentDrill
T2C0.0394
; #@! TA.AperFunction,Plated,PTH,ComponentDrill
T3C0.1063
%
G90
G05
T1
X4.2126Y-2.6181
T2
X4.0965Y-1.6919
X4.0965Y-1.7919
X4.0965Y-1.8919
X4.0965Y-1.9919
X4.0965Y-2.0919
X4.0965Y-2.1919
X4.1323Y-3.6205
X4.1323Y-3.7205
X4.1323Y-3.8205
X4.1965Y-1.6919
X4.1965Y-1.7919
X4.1965Y-1.8919
X4.1965Y-1.9919
X4.1965Y-2.0919
X4.1965Y-2.1919
X4.2323Y-3.6205
X4.2323Y-3.7205
X4.2323Y-3.8205
X4.5819Y-3.8622
X4.5819Y-3.9622
X4.6819Y-3.8622
X4.6819Y-3.9622
X4.7819Y-3.8622
X4.7819Y-3.9622
X4.8819Y-3.8622
X4.8819Y-3.9622
T3
X4.5748Y-1.7118
X4.5748Y-3.6409
M30
