%TF.GenerationSoftware,KiCad,Pcbnew,8.0.6*%
%TF.CreationDate,2025-02-12T14:43:40-05:00*%
%TF.ProjectId,PwrModule,5077724d-6f64-4756-9c65-2e6b69636164,rev?*%
%TF.SameCoordinates,Original*%
%TF.FileFunction,Copper,L4,Bot*%
%TF.FilePolarity,Positive*%
%FSLAX46Y46*%
G04 Gerber Fmt 4.6, Leading zero omitted, Abs format (unit mm)*
G04 Created by KiCad (PCBNEW 8.0.6) date 2025-02-12 14:43:40*
%MOMM*%
%LPD*%
G01*
G04 APERTURE LIST*
G04 Aperture macros list*
%AMRoundRect*
0 Rectangle with rounded corners*
0 $1 Rounding radius*
0 $2 $3 $4 $5 $6 $7 $8 $9 X,Y pos of 4 corners*
0 Add a 4 corners polygon primitive as box body*
4,1,4,$2,$3,$4,$5,$6,$7,$8,$9,$2,$3,0*
0 Add four circle primitives for the rounded corners*
1,1,$1+$1,$2,$3*
1,1,$1+$1,$4,$5*
1,1,$1+$1,$6,$7*
1,1,$1+$1,$8,$9*
0 Add four rect primitives between the rounded corners*
20,1,$1+$1,$2,$3,$4,$5,0*
20,1,$1+$1,$4,$5,$6,$7,0*
20,1,$1+$1,$6,$7,$8,$9,0*
20,1,$1+$1,$8,$9,$2,$3,0*%
G04 Aperture macros list end*
%TA.AperFunction,ComponentPad*%
%ADD10R,1.700000X1.700000*%
%TD*%
%TA.AperFunction,ComponentPad*%
%ADD11O,1.700000X1.700000*%
%TD*%
%TA.AperFunction,ComponentPad*%
%ADD12C,4.500000*%
%TD*%
%TA.AperFunction,ComponentPad*%
%ADD13RoundRect,0.250000X0.600000X0.600000X-0.600000X0.600000X-0.600000X-0.600000X0.600000X-0.600000X0*%
%TD*%
%TA.AperFunction,ComponentPad*%
%ADD14C,1.700000*%
%TD*%
%TA.AperFunction,SMDPad,CuDef*%
%ADD15RoundRect,0.250000X0.325000X0.650000X-0.325000X0.650000X-0.325000X-0.650000X0.325000X-0.650000X0*%
%TD*%
%TA.AperFunction,SMDPad,CuDef*%
%ADD16RoundRect,0.250000X0.625000X-0.312500X0.625000X0.312500X-0.625000X0.312500X-0.625000X-0.312500X0*%
%TD*%
%TA.AperFunction,SMDPad,CuDef*%
%ADD17RoundRect,0.250000X0.375000X0.625000X-0.375000X0.625000X-0.375000X-0.625000X0.375000X-0.625000X0*%
%TD*%
%TA.AperFunction,SMDPad,CuDef*%
%ADD18RoundRect,0.250000X0.312500X0.625000X-0.312500X0.625000X-0.312500X-0.625000X0.312500X-0.625000X0*%
%TD*%
%TA.AperFunction,SMDPad,CuDef*%
%ADD19RoundRect,0.250000X0.350000X-0.850000X0.350000X0.850000X-0.350000X0.850000X-0.350000X-0.850000X0*%
%TD*%
%TA.AperFunction,SMDPad,CuDef*%
%ADD20RoundRect,0.250000X1.125000X-1.275000X1.125000X1.275000X-1.125000X1.275000X-1.125000X-1.275000X0*%
%TD*%
%TA.AperFunction,SMDPad,CuDef*%
%ADD21RoundRect,0.249997X2.650003X-2.950003X2.650003X2.950003X-2.650003X2.950003X-2.650003X-2.950003X0*%
%TD*%
%TA.AperFunction,SMDPad,CuDef*%
%ADD22RoundRect,0.150000X0.587500X0.150000X-0.587500X0.150000X-0.587500X-0.150000X0.587500X-0.150000X0*%
%TD*%
%TA.AperFunction,SMDPad,CuDef*%
%ADD23C,0.750000*%
%TD*%
%TA.AperFunction,SMDPad,CuDef*%
%ADD24RoundRect,0.150000X-0.150000X0.587500X-0.150000X-0.587500X0.150000X-0.587500X0.150000X0.587500X0*%
%TD*%
%TA.AperFunction,SMDPad,CuDef*%
%ADD25RoundRect,0.250000X-0.625000X0.312500X-0.625000X-0.312500X0.625000X-0.312500X0.625000X0.312500X0*%
%TD*%
%TA.AperFunction,SMDPad,CuDef*%
%ADD26RoundRect,0.250000X-0.312500X-0.625000X0.312500X-0.625000X0.312500X0.625000X-0.312500X0.625000X0*%
%TD*%
%TA.AperFunction,SMDPad,CuDef*%
%ADD27RoundRect,0.150000X-0.825000X-0.150000X0.825000X-0.150000X0.825000X0.150000X-0.825000X0.150000X0*%
%TD*%
%TA.AperFunction,ViaPad*%
%ADD28C,0.800000*%
%TD*%
%TA.AperFunction,Conductor*%
%ADD29C,0.500000*%
%TD*%
%TA.AperFunction,Conductor*%
%ADD30C,2.000000*%
%TD*%
G04 APERTURE END LIST*
D10*
%TO.P,J14,1,Pin_1*%
%TO.N,VCC*%
X124000000Y-98100000D03*
D11*
%TO.P,J14,2,Pin_2*%
X124000000Y-100640000D03*
%TO.P,J14,3,Pin_3*%
X121460000Y-98100000D03*
%TO.P,J14,4,Pin_4*%
X121460000Y-100640000D03*
%TO.P,J14,5,Pin_5*%
%TO.N,GND*%
X118920000Y-98100000D03*
%TO.P,J14,6,Pin_6*%
X118920000Y-100640000D03*
%TO.P,J14,7,Pin_7*%
X116380000Y-98100000D03*
%TO.P,J14,8,Pin_8*%
X116380000Y-100640000D03*
%TD*%
D10*
%TO.P,J11,1,Pin_1*%
%TO.N,+5V*%
X104050000Y-42975000D03*
D11*
%TO.P,J11,2,Pin_2*%
X106590000Y-42975000D03*
%TO.P,J11,3,Pin_3*%
X104050000Y-45515000D03*
%TO.P,J11,4,Pin_4*%
%TO.N,UPDI*%
X106590000Y-45515000D03*
%TO.P,J11,5,Pin_5*%
%TO.N,Net-(J11-Pin_5)*%
X104050000Y-48055000D03*
%TO.P,J11,6,Pin_6*%
%TO.N,Net-(J11-Pin_6)*%
X106590000Y-48055000D03*
%TO.P,J11,7,Pin_7*%
%TO.N,Red*%
X104050000Y-50595000D03*
%TO.P,J11,8,Pin_8*%
%TO.N,Green*%
X106590000Y-50595000D03*
%TO.P,J11,9,Pin_9*%
%TO.N,Net-(J11-Pin_9)*%
X104050000Y-53135000D03*
%TO.P,J11,10,Pin_10*%
%TO.N,GND*%
X106590000Y-53135000D03*
%TO.P,J11,11,Pin_11*%
X104050000Y-55675000D03*
%TO.P,J11,12,Pin_12*%
X106590000Y-55675000D03*
%TD*%
D12*
%TO.P,H5,1*%
%TO.N,N/C*%
X116200000Y-92480000D03*
%TD*%
D13*
%TO.P,J1,1,Pin_1*%
%TO.N,VCC_*%
X107500000Y-97000000D03*
D14*
%TO.P,J1,2,Pin_2*%
%TO.N,Red*%
X104960000Y-97000000D03*
%TO.P,J1,3,Pin_3*%
%TO.N,Green*%
X107500000Y-94460000D03*
%TO.P,J1,4,Pin_4*%
%TO.N,Blue*%
X104960000Y-94460000D03*
%TO.P,J1,5,Pin_5*%
%TO.N,Signal*%
X107500000Y-91920000D03*
%TO.P,J1,6,Pin_6*%
%TO.N,GND*%
X104960000Y-91920000D03*
%TD*%
D12*
%TO.P,H1,1*%
%TO.N,N/C*%
X116200000Y-43480000D03*
%TD*%
D15*
%TO.P,C1,1*%
%TO.N,GND*%
X107730000Y-78330000D03*
%TO.P,C1,2*%
%TO.N,VCC_*%
X104780000Y-78330000D03*
%TD*%
D16*
%TO.P,R2,1*%
%TO.N,VCC*%
X123990000Y-90512500D03*
%TO.P,R2,2*%
%TO.N,Net-(Q2-G)*%
X123990000Y-87587500D03*
%TD*%
D17*
%TO.P,F1,1*%
%TO.N,VCC*%
X115220000Y-88760000D03*
%TO.P,F1,2*%
%TO.N,VCC_*%
X112420000Y-88760000D03*
%TD*%
D18*
%TO.P,R5,1*%
%TO.N,GND*%
X113255000Y-52450000D03*
%TO.P,R5,2*%
%TO.N,Pwr_off*%
X110330000Y-52450000D03*
%TD*%
D19*
%TO.P,Q2,1,G*%
%TO.N,Net-(Q2-G)*%
X119710000Y-85790000D03*
D20*
%TO.P,Q2,2,D*%
%TO.N,+5V*%
X115905000Y-81165000D03*
X118955000Y-81165000D03*
D21*
X117430000Y-79490000D03*
D20*
X115905000Y-77815000D03*
X118955000Y-77815000D03*
D19*
%TO.P,Q2,3,S*%
%TO.N,VCC*%
X115150000Y-85790000D03*
%TD*%
D22*
%TO.P,Q1,1,G*%
%TO.N,Net-(Q1-G)*%
X105607500Y-83657500D03*
%TO.P,Q1,2,S*%
%TO.N,GND*%
X105607500Y-85557500D03*
%TO.P,Q1,3,D*%
%TO.N,Blue*%
X103732500Y-84607500D03*
%TD*%
D23*
%TO.P,FID1,*%
%TO.N,*%
X124000000Y-83000000D03*
%TD*%
D24*
%TO.P,Q6,1,G*%
%TO.N,Net-(J11-Pin_9)*%
X103850000Y-60425000D03*
%TO.P,Q6,2,S*%
%TO.N,GND*%
X105750000Y-60425000D03*
%TO.P,Q6,3,D*%
%TO.N,Pulse*%
X104800000Y-62300000D03*
%TD*%
D15*
%TO.P,C2,1*%
%TO.N,GND*%
X107730000Y-81680000D03*
%TO.P,C2,2*%
%TO.N,VCC_*%
X104780000Y-81680000D03*
%TD*%
D25*
%TO.P,R8,1*%
%TO.N,VCC_*%
X111230000Y-76675000D03*
%TO.P,R8,2*%
%TO.N,Signal*%
X111230000Y-79600000D03*
%TD*%
D23*
%TO.P,FID3,*%
%TO.N,*%
X116000000Y-58000000D03*
%TD*%
%TO.P,FID5,*%
%TO.N,*%
X111200000Y-82200000D03*
%TD*%
D18*
%TO.P,R3,1*%
%TO.N,Net-(JP1-A)*%
X120000000Y-66000000D03*
%TO.P,R3,2*%
%TO.N,VCC_*%
X117075000Y-66000000D03*
%TD*%
D26*
%TO.P,R7,1*%
%TO.N,Pulse*%
X104837500Y-64800000D03*
%TO.P,R7,2*%
%TO.N,VCC_*%
X107762500Y-64800000D03*
%TD*%
D24*
%TO.P,Q4,1,G*%
%TO.N,Pwr_off*%
X110770000Y-47945000D03*
%TO.P,Q4,2,S*%
%TO.N,GND*%
X112670000Y-47945000D03*
%TO.P,Q4,3,D*%
%TO.N,Net-(Q3-G)*%
X111720000Y-49820000D03*
%TD*%
D26*
%TO.P,R1,1*%
%TO.N,Net-(Q1-G)*%
X107855000Y-85170000D03*
%TO.P,R1,2*%
%TO.N,VCC_*%
X110780000Y-85170000D03*
%TD*%
D27*
%TO.P,U1,1,VCC*%
%TO.N,VCC_*%
X104850000Y-75050000D03*
%TO.P,U1,2,PA4*%
%TO.N,Signal*%
X104850000Y-73780000D03*
%TO.P,U1,3,PA5*%
%TO.N,unconnected-(U1-PA5-Pad3)*%
X104850000Y-72510000D03*
%TO.P,U1,4,PA6*%
%TO.N,unconnected-(U1-PA6-Pad4)*%
X104850000Y-71240000D03*
%TO.P,U1,5,PA7*%
%TO.N,unconnected-(U1-PA7-Pad5)*%
X104850000Y-69970000D03*
%TO.P,U1,6,PB3*%
%TO.N,unconnected-(U1-PB3-Pad6)*%
X104850000Y-68700000D03*
%TO.P,U1,7,PB2*%
%TO.N,Pulse*%
X104850000Y-67430000D03*
%TO.P,U1,8,PB1*%
%TO.N,Pwr_mon*%
X109800000Y-67430000D03*
%TO.P,U1,9,PB0*%
%TO.N,Pwr_off*%
X109800000Y-68700000D03*
%TO.P,U1,10,~{RESET}/PA0*%
%TO.N,UPDI*%
X109800000Y-69970000D03*
%TO.P,U1,11,PA1*%
%TO.N,Net-(Q1-G)*%
X109800000Y-71240000D03*
%TO.P,U1,12,PA2*%
%TO.N,Net-(Q2-G)*%
X109800000Y-72510000D03*
%TO.P,U1,13,PA3*%
%TO.N,Net-(JP1-A)*%
X109800000Y-73780000D03*
%TO.P,U1,14,GND*%
%TO.N,GND*%
X109800000Y-75050000D03*
%TD*%
D22*
%TO.P,Q3,1,G*%
%TO.N,Net-(Q3-G)*%
X111790000Y-42430000D03*
%TO.P,Q3,2,S*%
%TO.N,GND*%
X111790000Y-44330000D03*
%TO.P,Q3,3,D*%
%TO.N,Net-(J11-Pin_5)*%
X109915000Y-43380000D03*
%TD*%
D24*
%TO.P,Q5,1,G*%
%TO.N,Net-(J11-Pin_6)*%
X110460000Y-55715000D03*
%TO.P,Q5,2,S*%
%TO.N,GND*%
X112360000Y-55715000D03*
%TO.P,Q5,3,D*%
%TO.N,Pwr_mon*%
X111410000Y-57590000D03*
%TD*%
D26*
%TO.P,R6,1*%
%TO.N,Pwr_mon*%
X115605000Y-53690000D03*
%TO.P,R6,2*%
%TO.N,VCC_*%
X118530000Y-53690000D03*
%TD*%
%TO.P,R4,1*%
%TO.N,Net-(Q3-G)*%
X115620000Y-49920000D03*
%TO.P,R4,2*%
%TO.N,VCC_*%
X118545000Y-49920000D03*
%TD*%
D28*
%TO.N,GND*%
X121000000Y-69100000D03*
X115290000Y-51740000D03*
X109170000Y-46870000D03*
X115180000Y-47860000D03*
X107750000Y-80000000D03*
%TO.N,Pwr_off*%
X110330000Y-49740000D03*
X111920000Y-69027171D03*
%TO.N,Pwr_mon*%
X111570000Y-67850000D03*
X111720000Y-59450000D03*
%TO.N,Signal*%
X109650000Y-79450000D03*
X103425000Y-74230001D03*
%TO.N,+5V*%
X115905000Y-81165000D03*
X115905000Y-77815000D03*
X117430000Y-79490000D03*
X118955000Y-81165000D03*
X118955000Y-77815000D03*
%TO.N,Net-(JP1-A)*%
X116400000Y-73850000D03*
X121170000Y-65590000D03*
X115810000Y-68540000D03*
%TO.N,UPDI*%
X111490000Y-69930000D03*
%TO.N,VCC_*%
X110490000Y-64080000D03*
X109740000Y-76650000D03*
%TO.N,Net-(J11-Pin_6)*%
X111680000Y-52630000D03*
%TD*%
D29*
%TO.N,GND*%
X112360000Y-55715000D02*
X113255000Y-54820000D01*
X113255000Y-54820000D02*
X113255000Y-52450000D01*
X111710000Y-44330000D02*
X109170000Y-46870000D01*
X107730000Y-79980000D02*
X107750000Y-80000000D01*
X107730000Y-78330000D02*
X107730000Y-77120000D01*
X105607500Y-85557500D02*
X104960000Y-86205000D01*
X105750000Y-56515000D02*
X106590000Y-55675000D01*
X115095000Y-47945000D02*
X115180000Y-47860000D01*
X107730000Y-78330000D02*
X107730000Y-79980000D01*
X107750000Y-80000000D02*
X107750000Y-81660000D01*
X105750000Y-60425000D02*
X105750000Y-56515000D01*
X111790000Y-44330000D02*
X111710000Y-44330000D01*
X114580000Y-52450000D02*
X115290000Y-51740000D01*
X107750000Y-81660000D02*
X107730000Y-81680000D01*
X104960000Y-86205000D02*
X104960000Y-91920000D01*
X113255000Y-52450000D02*
X114580000Y-52450000D01*
X107730000Y-77120000D02*
X109800000Y-75050000D01*
X112670000Y-47945000D02*
X115095000Y-47945000D01*
%TO.N,Pwr_off*%
X110877500Y-47637500D02*
X110770000Y-47745000D01*
X111920000Y-69027171D02*
X111612829Y-68720000D01*
X109820000Y-68720000D02*
X109800000Y-68700000D01*
X110330000Y-49850000D02*
X110330000Y-49740000D01*
X111612829Y-68720000D02*
X109820000Y-68720000D01*
X110330000Y-52450000D02*
X110330000Y-49850000D01*
X110330000Y-48385000D02*
X110770000Y-47945000D01*
X110330000Y-49740000D02*
X110330000Y-48385000D01*
%TO.N,Pwr_mon*%
X115605000Y-53690000D02*
X115605000Y-54565000D01*
X111570000Y-67850000D02*
X111150000Y-67430000D01*
X112380000Y-57790000D02*
X111410000Y-57790000D01*
X111150000Y-67430000D02*
X109800000Y-67430000D01*
X115605000Y-54565000D02*
X112380000Y-57790000D01*
X111410000Y-59140000D02*
X111720000Y-59450000D01*
X111410000Y-57790000D02*
X111410000Y-59140000D01*
%TO.N,Blue*%
X103432500Y-92932500D02*
X104960000Y-94460000D01*
X103432500Y-84907500D02*
X103432500Y-92932500D01*
X103732500Y-84607500D02*
X103432500Y-84907500D01*
%TO.N,Signal*%
X109800000Y-79600000D02*
X109650000Y-79450000D01*
X104850000Y-73780000D02*
X103875001Y-73780000D01*
X103875001Y-73780000D02*
X103425000Y-74230001D01*
X111230000Y-79600000D02*
X109800000Y-79600000D01*
D30*
%TO.N,VCC*%
X118195000Y-88835000D02*
X124000000Y-94640000D01*
X118120000Y-88760000D02*
X118195000Y-88835000D01*
X115220000Y-88760000D02*
X118120000Y-88760000D01*
X124000000Y-94640000D02*
X124000000Y-98100000D01*
X115150000Y-85790000D02*
X118195000Y-88835000D01*
D29*
X123990000Y-90512500D02*
X123990000Y-94630000D01*
X123990000Y-94630000D02*
X124000000Y-94640000D01*
%TO.N,Net-(JP1-A)*%
X117460000Y-68540000D02*
X115810000Y-68540000D01*
X120410000Y-65590000D02*
X120000000Y-66000000D01*
X116330000Y-73780000D02*
X116400000Y-73850000D01*
X121170000Y-65590000D02*
X120410000Y-65590000D01*
X109800000Y-73780000D02*
X116330000Y-73780000D01*
X120000000Y-66000000D02*
X117460000Y-68540000D01*
%TO.N,Net-(Q1-G)*%
X109850000Y-71190000D02*
X109800000Y-71240000D01*
X106342500Y-83657500D02*
X107855000Y-85170000D01*
X105607500Y-83657500D02*
X106342500Y-83657500D01*
X107652500Y-76192500D02*
X105819975Y-78025025D01*
X105819975Y-83445025D02*
X105627475Y-83637525D01*
X108680000Y-71240000D02*
X107652500Y-72267500D01*
X105819975Y-78025025D02*
X105819975Y-83445025D01*
X109800000Y-71240000D02*
X108680000Y-71240000D01*
X107652500Y-72267500D02*
X107652500Y-76192500D01*
%TO.N,Net-(Q2-G)*%
X121507500Y-87587500D02*
X123990000Y-87587500D01*
X119710000Y-85790000D02*
X121507500Y-87587500D01*
X117046878Y-72510000D02*
X121910000Y-77373122D01*
X121910000Y-83590000D02*
X119710000Y-85790000D01*
X109800000Y-72510000D02*
X117046878Y-72510000D01*
X121910000Y-77373122D02*
X121910000Y-83590000D01*
%TO.N,Net-(J11-Pin_9)*%
X103850000Y-60425000D02*
X102750000Y-59325000D01*
X102750000Y-59325000D02*
X102750000Y-54435000D01*
X102750000Y-54435000D02*
X104050000Y-53135000D01*
%TO.N,UPDI*%
X109800000Y-69970000D02*
X111450000Y-69970000D01*
X111450000Y-69970000D02*
X111490000Y-69930000D01*
%TO.N,VCC_*%
X106952500Y-73922499D02*
X106952500Y-67617500D01*
X118545000Y-49920000D02*
X118545000Y-53675000D01*
D30*
X112420000Y-88760000D02*
X112420000Y-92930000D01*
D29*
X118545000Y-53675000D02*
X118530000Y-53690000D01*
X104850000Y-75050000D02*
X104850000Y-78260000D01*
X107762500Y-64800000D02*
X109770000Y-64800000D01*
X118530000Y-64545000D02*
X117075000Y-66000000D01*
X104850000Y-75050000D02*
X105824999Y-75050000D01*
X109770000Y-64800000D02*
X110490000Y-64080000D01*
X117075000Y-66000000D02*
X115155000Y-64080000D01*
D30*
X112420000Y-92930000D02*
X108350000Y-97000000D01*
X108350000Y-97000000D02*
X107500000Y-97000000D01*
D29*
X106952500Y-67617500D02*
X110490000Y-64080000D01*
X109765000Y-76675000D02*
X109740000Y-76650000D01*
X115155000Y-64080000D02*
X110490000Y-64080000D01*
X111230000Y-76675000D02*
X109765000Y-76675000D01*
X112420000Y-88760000D02*
X112420000Y-86810000D01*
X104780000Y-78330000D02*
X104780000Y-81680000D01*
X112420000Y-86810000D02*
X110780000Y-85170000D01*
X105824999Y-75050000D02*
X106952500Y-73922499D01*
X112420000Y-88760000D02*
X111860000Y-88760000D01*
X118530000Y-53690000D02*
X118530000Y-64545000D01*
X104850000Y-78260000D02*
X104780000Y-78330000D01*
%TO.N,Net-(J11-Pin_6)*%
X110460000Y-55715000D02*
X111680000Y-54495000D01*
X111680000Y-54495000D02*
X111680000Y-52630000D01*
%TO.N,Net-(J11-Pin_5)*%
X102750000Y-41675000D02*
X102815000Y-41610000D01*
X102750000Y-46755000D02*
X102750000Y-41675000D01*
X102815000Y-41610000D02*
X107945000Y-41610000D01*
X107945000Y-41610000D02*
X109715000Y-43380000D01*
X104050000Y-48055000D02*
X102750000Y-46755000D01*
%TO.N,Net-(Q3-G)*%
X112977500Y-44732684D02*
X111720000Y-45990184D01*
X111720000Y-45990184D02*
X111720000Y-49820000D01*
X111790000Y-42430000D02*
X112977500Y-43617500D01*
X112977500Y-43617500D02*
X112977500Y-44732684D01*
X115620000Y-49920000D02*
X111820000Y-49920000D01*
X111820000Y-49920000D02*
X111720000Y-49820000D01*
%TO.N,Pulse*%
X104850000Y-64812500D02*
X104837500Y-64800000D01*
X104850000Y-67430000D02*
X104850000Y-64812500D01*
X104800000Y-62300000D02*
X104800000Y-64762500D01*
X104800000Y-64762500D02*
X104837500Y-64800000D01*
%TD*%
M02*
