M48
; DRILL file {KiCad 8.0.6} date 2025-02-12T14:43:38-0500
; FORMAT={-:-/ absolute / inch / decimal}
; #@! TF.CreationDate,2025-02-12T14:43:38-05:00
; #@! TF.GenerationSoftware,Kicad,Pcbnew,8.0.6
; #@! TF.FileFunction,Plated,1,4,PTH
FMAT,2
INCH
; #@! TA.AperFunction,Plated,PTH,ViaDrill
T1C0.0157
; #@! TA.AperFunction,Plated,PTH,ComponentDrill
T2C0.0394
; #@! TA.AperFunction,Plated,PTH,ComponentDrill
T3C0.1063
%
G90
G05
T1
X4.0719Y-2.9224
X4.2421Y-3.1496
X4.298Y-1.8453
X4.3169Y-3.128
X4.3205Y-3.0177
X4.3437Y-1.9583
X4.35Y-2.5228
X4.3894Y-2.7531
X4.3925Y-2.6713
X4.3969Y-2.072
X4.3984Y-2.3406
X4.4063Y-2.7176
X4.5346Y-1.8843
X4.539Y-2.037
X4.5594Y-2.6984
X4.5632Y-3.0636
X4.5632Y-3.1955
X4.5827Y-2.9075
X4.6232Y-3.1295
X4.6833Y-3.0636
X4.6833Y-3.1955
X4.7638Y-2.7205
X4.7705Y-2.5823
T2
X4.0965Y-1.6919
X4.0965Y-1.7919
X4.0965Y-1.8919
X4.0965Y-1.9919
X4.0965Y-2.0919
X4.0965Y-2.1919
X4.1323Y-3.6189
X4.1323Y-3.7189
X4.1323Y-3.8189
X4.1965Y-1.6919
X4.1965Y-1.7919
X4.1965Y-1.8919
X4.1965Y-1.9919
X4.1965Y-2.0919
X4.1965Y-2.1919
X4.2323Y-3.6189
X4.2323Y-3.7189
X4.2323Y-3.8189
X4.5819Y-3.8622
X4.5819Y-3.9622
X4.6819Y-3.8622
X4.6819Y-3.9622
X4.7819Y-3.8622
X4.7819Y-3.9622
X4.8819Y-3.8622
X4.8819Y-3.9622
T3
X4.5748Y-1.7118
X4.5748Y-3.6409
M30
