%TF.GenerationSoftware,KiCad,Pcbnew,8.0.6*%
%TF.CreationDate,2025-02-12T14:43:40-05:00*%
%TF.ProjectId,PwrModule,5077724d-6f64-4756-9c65-2e6b69636164,rev?*%
%TF.SameCoordinates,Original*%
%TF.FileFunction,Copper,L3,Inr*%
%TF.FilePolarity,Positive*%
%FSLAX46Y46*%
G04 Gerber Fmt 4.6, Leading zero omitted, Abs format (unit mm)*
G04 Created by KiCad (PCBNEW 8.0.6) date 2025-02-12 14:43:40*
%MOMM*%
%LPD*%
G01*
G04 APERTURE LIST*
G04 Aperture macros list*
%AMRoundRect*
0 Rectangle with rounded corners*
0 $1 Rounding radius*
0 $2 $3 $4 $5 $6 $7 $8 $9 X,Y pos of 4 corners*
0 Add a 4 corners polygon primitive as box body*
4,1,4,$2,$3,$4,$5,$6,$7,$8,$9,$2,$3,0*
0 Add four circle primitives for the rounded corners*
1,1,$1+$1,$2,$3*
1,1,$1+$1,$4,$5*
1,1,$1+$1,$6,$7*
1,1,$1+$1,$8,$9*
0 Add four rect primitives between the rounded corners*
20,1,$1+$1,$2,$3,$4,$5,0*
20,1,$1+$1,$4,$5,$6,$7,0*
20,1,$1+$1,$6,$7,$8,$9,0*
20,1,$1+$1,$8,$9,$2,$3,0*%
G04 Aperture macros list end*
%TA.AperFunction,ComponentPad*%
%ADD10R,1.700000X1.700000*%
%TD*%
%TA.AperFunction,ComponentPad*%
%ADD11O,1.700000X1.700000*%
%TD*%
%TA.AperFunction,ComponentPad*%
%ADD12C,4.500000*%
%TD*%
%TA.AperFunction,ComponentPad*%
%ADD13RoundRect,0.250000X0.600000X0.600000X-0.600000X0.600000X-0.600000X-0.600000X0.600000X-0.600000X0*%
%TD*%
%TA.AperFunction,ComponentPad*%
%ADD14C,1.700000*%
%TD*%
%TA.AperFunction,ViaPad*%
%ADD15C,0.800000*%
%TD*%
%TA.AperFunction,Conductor*%
%ADD16C,0.500000*%
%TD*%
G04 APERTURE END LIST*
D10*
%TO.N,VCC*%
%TO.C,J14*%
X124000000Y-98100000D03*
D11*
X124000000Y-100640000D03*
X121460000Y-98100000D03*
X121460000Y-100640000D03*
%TO.N,GND*%
X118920000Y-98100000D03*
X118920000Y-100640000D03*
X116380000Y-98100000D03*
X116380000Y-100640000D03*
%TD*%
D10*
%TO.N,+5V*%
%TO.C,J11*%
X104050000Y-42975000D03*
D11*
X106590000Y-42975000D03*
X104050000Y-45515000D03*
%TO.N,UPDI*%
X106590000Y-45515000D03*
%TO.N,Net-(J11-Pin_5)*%
X104050000Y-48055000D03*
%TO.N,Net-(J11-Pin_6)*%
X106590000Y-48055000D03*
%TO.N,Red*%
X104050000Y-50595000D03*
%TO.N,Green*%
X106590000Y-50595000D03*
%TO.N,Net-(J11-Pin_9)*%
X104050000Y-53135000D03*
%TO.N,GND*%
X106590000Y-53135000D03*
X104050000Y-55675000D03*
X106590000Y-55675000D03*
%TD*%
D12*
%TO.N,N/C*%
%TO.C,H5*%
X116200000Y-92480000D03*
%TD*%
D13*
%TO.N,VCC_*%
%TO.C,J1*%
X107500000Y-97000000D03*
D14*
%TO.N,Red*%
X104960000Y-97000000D03*
%TO.N,Green*%
X107500000Y-94460000D03*
%TO.N,Blue*%
X104960000Y-94460000D03*
%TO.N,Signal*%
X107500000Y-91920000D03*
%TO.N,GND*%
X104960000Y-91920000D03*
%TD*%
D12*
%TO.N,N/C*%
%TO.C,H1*%
X116200000Y-43480000D03*
%TD*%
D15*
%TO.N,GND*%
X121000000Y-69100000D03*
X115290000Y-51740000D03*
X109170000Y-46870000D03*
X115180000Y-47860000D03*
X107750000Y-80000000D03*
%TO.N,Pwr_off*%
X110330000Y-49740000D03*
X111920000Y-69027171D03*
%TO.N,Pwr_mon*%
X111570000Y-67850000D03*
X111720000Y-59450000D03*
%TO.N,Signal*%
X109650000Y-79450000D03*
X103425000Y-74230001D03*
%TO.N,+5V*%
X115905000Y-81165000D03*
X115905000Y-77815000D03*
X117430000Y-79490000D03*
X118955000Y-81165000D03*
X118955000Y-77815000D03*
%TO.N,Net-(JP1-A)*%
X116400000Y-73850000D03*
X121170000Y-65590000D03*
X115810000Y-68540000D03*
%TO.N,UPDI*%
X111490000Y-69930000D03*
%TO.N,VCC_*%
X110490000Y-64080000D03*
X109740000Y-76650000D03*
%TO.N,Net-(J11-Pin_6)*%
X111680000Y-52630000D03*
%TD*%
D16*
%TO.N,Signal*%
X104430001Y-74230001D02*
X103425000Y-74230001D01*
X109650000Y-79450000D02*
X104430001Y-74230001D01*
%TO.N,UPDI*%
X109490000Y-50102082D02*
X109490000Y-67930000D01*
X109490000Y-67930000D02*
X111490000Y-69930000D01*
X109480000Y-49387918D02*
X109480000Y-50092082D01*
X109490000Y-49377918D02*
X109480000Y-49387918D01*
X106590000Y-45515000D02*
X109490000Y-48415000D01*
X109490000Y-48415000D02*
X109490000Y-49377918D01*
X109480000Y-50092082D02*
X109490000Y-50102082D01*
%TD*%
%TA.AperFunction,Conductor*%
%TO.N,GND*%
G36*
X118454075Y-100447007D02*
G01*
X118420000Y-100574174D01*
X118420000Y-100705826D01*
X118454075Y-100832993D01*
X118486988Y-100890000D01*
X116813012Y-100890000D01*
X116845925Y-100832993D01*
X116880000Y-100705826D01*
X116880000Y-100574174D01*
X116845925Y-100447007D01*
X116813012Y-100390000D01*
X118486988Y-100390000D01*
X118454075Y-100447007D01*
G37*
%TD.AperFunction*%
%TA.AperFunction,Conductor*%
G36*
X116630000Y-100206988D02*
G01*
X116572993Y-100174075D01*
X116445826Y-100140000D01*
X116314174Y-100140000D01*
X116187007Y-100174075D01*
X116130000Y-100206988D01*
X116130000Y-98533012D01*
X116187007Y-98565925D01*
X116314174Y-98600000D01*
X116445826Y-98600000D01*
X116572993Y-98565925D01*
X116630000Y-98533012D01*
X116630000Y-100206988D01*
G37*
%TD.AperFunction*%
%TA.AperFunction,Conductor*%
G36*
X119170000Y-100206988D02*
G01*
X119112993Y-100174075D01*
X118985826Y-100140000D01*
X118854174Y-100140000D01*
X118727007Y-100174075D01*
X118670000Y-100206988D01*
X118670000Y-98533012D01*
X118727007Y-98565925D01*
X118854174Y-98600000D01*
X118985826Y-98600000D01*
X119112993Y-98565925D01*
X119170000Y-98533012D01*
X119170000Y-100206988D01*
G37*
%TD.AperFunction*%
%TA.AperFunction,Conductor*%
G36*
X118454075Y-97907007D02*
G01*
X118420000Y-98034174D01*
X118420000Y-98165826D01*
X118454075Y-98292993D01*
X118486988Y-98350000D01*
X116813012Y-98350000D01*
X116845925Y-98292993D01*
X116880000Y-98165826D01*
X116880000Y-98034174D01*
X116845925Y-97907007D01*
X116813012Y-97850000D01*
X118486988Y-97850000D01*
X118454075Y-97907007D01*
G37*
%TD.AperFunction*%
%TA.AperFunction,Conductor*%
G36*
X106074925Y-92681373D02*
G01*
X106128119Y-92605405D01*
X106182696Y-92561781D01*
X106252195Y-92554588D01*
X106314549Y-92586110D01*
X106331269Y-92605405D01*
X106461505Y-92791401D01*
X106461506Y-92791402D01*
X106628597Y-92958493D01*
X106628603Y-92958498D01*
X106814158Y-93088425D01*
X106857783Y-93143002D01*
X106864977Y-93212500D01*
X106833454Y-93274855D01*
X106814158Y-93291575D01*
X106628597Y-93421505D01*
X106461505Y-93588597D01*
X106331575Y-93774158D01*
X106276998Y-93817783D01*
X106207500Y-93824977D01*
X106145145Y-93793454D01*
X106128425Y-93774158D01*
X105998494Y-93588597D01*
X105831402Y-93421506D01*
X105831401Y-93421505D01*
X105645405Y-93291269D01*
X105601781Y-93236692D01*
X105594588Y-93167193D01*
X105626110Y-93104839D01*
X105645405Y-93088119D01*
X105721373Y-93034925D01*
X105089409Y-92402962D01*
X105152993Y-92385925D01*
X105267007Y-92320099D01*
X105360099Y-92227007D01*
X105425925Y-92112993D01*
X105442962Y-92049409D01*
X106074925Y-92681373D01*
G37*
%TD.AperFunction*%
%TA.AperFunction,Conductor*%
G36*
X106124075Y-55482007D02*
G01*
X106090000Y-55609174D01*
X106090000Y-55740826D01*
X106124075Y-55867993D01*
X106156988Y-55925000D01*
X104483012Y-55925000D01*
X104515925Y-55867993D01*
X104550000Y-55740826D01*
X104550000Y-55609174D01*
X104515925Y-55482007D01*
X104483012Y-55425000D01*
X106156988Y-55425000D01*
X106124075Y-55482007D01*
G37*
%TD.AperFunction*%
%TA.AperFunction,Conductor*%
G36*
X106840000Y-55241988D02*
G01*
X106782993Y-55209075D01*
X106655826Y-55175000D01*
X106524174Y-55175000D01*
X106397007Y-55209075D01*
X106340000Y-55241988D01*
X106340000Y-53568012D01*
X106397007Y-53600925D01*
X106524174Y-53635000D01*
X106655826Y-53635000D01*
X106782993Y-53600925D01*
X106840000Y-53568012D01*
X106840000Y-55241988D01*
G37*
%TD.AperFunction*%
%TA.AperFunction,Conductor*%
G36*
X106937481Y-40412029D02*
G01*
X119246281Y-40439721D01*
X119313274Y-40459557D01*
X119358910Y-40512463D01*
X119370000Y-40563721D01*
X119370000Y-46560000D01*
X119749718Y-48839500D01*
X119904442Y-49768333D01*
X119904457Y-49768426D01*
X122549997Y-65724986D01*
X122550002Y-65725012D01*
X127446238Y-85210032D01*
X127449977Y-85240430D01*
X127433378Y-96826567D01*
X127433326Y-96862769D01*
X127420285Y-102546050D01*
X127420284Y-102546285D01*
X127400445Y-102613279D01*
X127347536Y-102658912D01*
X127296284Y-102670000D01*
X101723948Y-102670000D01*
X101656909Y-102650315D01*
X101611154Y-102597511D01*
X101599948Y-102546050D01*
X101599450Y-101306546D01*
X101596702Y-94459999D01*
X103604341Y-94459999D01*
X103604341Y-94460000D01*
X103624936Y-94695403D01*
X103624938Y-94695413D01*
X103686094Y-94923655D01*
X103686096Y-94923659D01*
X103686097Y-94923663D01*
X103690000Y-94932032D01*
X103785965Y-95137830D01*
X103785967Y-95137834D01*
X103854373Y-95235527D01*
X103921501Y-95331396D01*
X103921506Y-95331402D01*
X104088597Y-95498493D01*
X104088603Y-95498498D01*
X104274158Y-95628425D01*
X104317783Y-95683002D01*
X104324977Y-95752500D01*
X104293454Y-95814855D01*
X104274158Y-95831575D01*
X104088597Y-95961505D01*
X103921505Y-96128597D01*
X103785965Y-96322169D01*
X103785964Y-96322171D01*
X103686098Y-96536335D01*
X103686094Y-96536344D01*
X103624938Y-96764586D01*
X103624936Y-96764596D01*
X103604341Y-96999999D01*
X103604341Y-97000000D01*
X103624936Y-97235403D01*
X103624938Y-97235413D01*
X103686094Y-97463655D01*
X103686096Y-97463659D01*
X103686097Y-97463663D01*
X103766696Y-97636507D01*
X103785965Y-97677830D01*
X103785967Y-97677834D01*
X103866603Y-97792993D01*
X103921505Y-97871401D01*
X104088599Y-98038495D01*
X104131675Y-98068657D01*
X104282165Y-98174032D01*
X104282167Y-98174033D01*
X104282170Y-98174035D01*
X104496337Y-98273903D01*
X104724592Y-98335063D01*
X104901034Y-98350500D01*
X104959999Y-98355659D01*
X104960000Y-98355659D01*
X104960001Y-98355659D01*
X105018966Y-98350500D01*
X105195408Y-98335063D01*
X105423663Y-98273903D01*
X105637830Y-98174035D01*
X105831401Y-98038495D01*
X105998495Y-97871401D01*
X105998504Y-97871388D01*
X105999636Y-97870040D01*
X106000293Y-97869602D01*
X106002323Y-97867573D01*
X106002730Y-97867980D01*
X106057805Y-97831334D01*
X106127666Y-97830220D01*
X106187038Y-97867053D01*
X106212335Y-97910733D01*
X106215186Y-97919334D01*
X106307288Y-98068656D01*
X106431344Y-98192712D01*
X106580666Y-98284814D01*
X106747203Y-98339999D01*
X106849991Y-98350500D01*
X108150008Y-98350499D01*
X108252797Y-98339999D01*
X108419334Y-98284814D01*
X108568656Y-98192712D01*
X108692712Y-98068656D01*
X108784814Y-97919334D01*
X108807789Y-97849999D01*
X115049364Y-97849999D01*
X115049364Y-97850000D01*
X115946988Y-97850000D01*
X115914075Y-97907007D01*
X115880000Y-98034174D01*
X115880000Y-98165826D01*
X115914075Y-98292993D01*
X115946988Y-98350000D01*
X115049364Y-98350000D01*
X115106567Y-98563486D01*
X115106570Y-98563492D01*
X115206399Y-98777578D01*
X115341894Y-98971082D01*
X115508917Y-99138105D01*
X115695031Y-99268425D01*
X115738656Y-99323003D01*
X115745848Y-99392501D01*
X115714326Y-99454856D01*
X115695031Y-99471575D01*
X115508922Y-99601890D01*
X115508920Y-99601891D01*
X115341891Y-99768920D01*
X115341886Y-99768926D01*
X115206400Y-99962420D01*
X115206399Y-99962422D01*
X115106570Y-100176507D01*
X115106567Y-100176513D01*
X115049364Y-100389999D01*
X115049364Y-100390000D01*
X115946988Y-100390000D01*
X115914075Y-100447007D01*
X115880000Y-100574174D01*
X115880000Y-100705826D01*
X115914075Y-100832993D01*
X115946988Y-100890000D01*
X115049364Y-100890000D01*
X115106567Y-101103486D01*
X115106570Y-101103492D01*
X115206399Y-101317578D01*
X115341894Y-101511082D01*
X115508917Y-101678105D01*
X115702421Y-101813600D01*
X115916507Y-101913429D01*
X115916516Y-101913433D01*
X116130000Y-101970634D01*
X116130000Y-101073012D01*
X116187007Y-101105925D01*
X116314174Y-101140000D01*
X116445826Y-101140000D01*
X116572993Y-101105925D01*
X116630000Y-101073012D01*
X116630000Y-101970633D01*
X116843483Y-101913433D01*
X116843492Y-101913429D01*
X117057578Y-101813600D01*
X117251082Y-101678105D01*
X117418105Y-101511082D01*
X117548425Y-101324968D01*
X117603002Y-101281344D01*
X117672501Y-101274151D01*
X117734855Y-101305673D01*
X117751575Y-101324968D01*
X117881894Y-101511082D01*
X118048917Y-101678105D01*
X118242421Y-101813600D01*
X118456507Y-101913429D01*
X118456516Y-101913433D01*
X118670000Y-101970634D01*
X118670000Y-101073012D01*
X118727007Y-101105925D01*
X118854174Y-101140000D01*
X118985826Y-101140000D01*
X119112993Y-101105925D01*
X119170000Y-101073012D01*
X119170000Y-101970633D01*
X119383483Y-101913433D01*
X119383492Y-101913429D01*
X119597578Y-101813600D01*
X119791082Y-101678105D01*
X119958105Y-101511082D01*
X120088119Y-101325405D01*
X120142696Y-101281781D01*
X120212195Y-101274588D01*
X120274549Y-101306110D01*
X120291269Y-101325405D01*
X120421505Y-101511401D01*
X120588599Y-101678495D01*
X120685384Y-101746265D01*
X120782165Y-101814032D01*
X120782167Y-101814033D01*
X120782170Y-101814035D01*
X120996337Y-101913903D01*
X121224592Y-101975063D01*
X121412918Y-101991539D01*
X121459999Y-101995659D01*
X121460000Y-101995659D01*
X121460001Y-101995659D01*
X121499234Y-101992226D01*
X121695408Y-101975063D01*
X121923663Y-101913903D01*
X122137830Y-101814035D01*
X122331401Y-101678495D01*
X122498495Y-101511401D01*
X122628425Y-101325842D01*
X122683002Y-101282217D01*
X122752500Y-101275023D01*
X122814855Y-101306546D01*
X122831575Y-101325842D01*
X122961500Y-101511395D01*
X122961505Y-101511401D01*
X123128599Y-101678495D01*
X123225384Y-101746265D01*
X123322165Y-101814032D01*
X123322167Y-101814033D01*
X123322170Y-101814035D01*
X123536337Y-101913903D01*
X123764592Y-101975063D01*
X123952918Y-101991539D01*
X123999999Y-101995659D01*
X124000000Y-101995659D01*
X124000001Y-101995659D01*
X124039234Y-101992226D01*
X124235408Y-101975063D01*
X124463663Y-101913903D01*
X124677830Y-101814035D01*
X124871401Y-101678495D01*
X125038495Y-101511401D01*
X125174035Y-101317830D01*
X125273903Y-101103663D01*
X125335063Y-100875408D01*
X125355659Y-100640000D01*
X125335063Y-100404592D01*
X125273903Y-100176337D01*
X125174035Y-99962171D01*
X125168730Y-99954595D01*
X125038496Y-99768600D01*
X125038490Y-99768594D01*
X124916567Y-99646671D01*
X124883084Y-99585351D01*
X124888068Y-99515659D01*
X124929939Y-99459725D01*
X124960915Y-99442810D01*
X125092331Y-99393796D01*
X125207546Y-99307546D01*
X125293796Y-99192331D01*
X125344091Y-99057483D01*
X125350500Y-98997873D01*
X125350499Y-97202128D01*
X125344091Y-97142517D01*
X125342810Y-97139083D01*
X125293797Y-97007671D01*
X125293793Y-97007664D01*
X125207547Y-96892455D01*
X125207544Y-96892452D01*
X125092335Y-96806206D01*
X125092328Y-96806202D01*
X124957482Y-96755908D01*
X124957483Y-96755908D01*
X124897883Y-96749501D01*
X124897881Y-96749500D01*
X124897873Y-96749500D01*
X124897864Y-96749500D01*
X123102129Y-96749500D01*
X123102123Y-96749501D01*
X123042516Y-96755908D01*
X122907671Y-96806202D01*
X122907664Y-96806206D01*
X122792455Y-96892452D01*
X122792452Y-96892455D01*
X122706206Y-97007664D01*
X122706203Y-97007669D01*
X122657189Y-97139083D01*
X122615317Y-97195016D01*
X122549853Y-97219433D01*
X122481580Y-97204581D01*
X122453326Y-97183430D01*
X122331402Y-97061506D01*
X122331395Y-97061501D01*
X122137834Y-96925967D01*
X122137830Y-96925965D01*
X122137828Y-96925964D01*
X121923663Y-96826097D01*
X121923659Y-96826096D01*
X121923655Y-96826094D01*
X121695413Y-96764938D01*
X121695403Y-96764936D01*
X121460001Y-96744341D01*
X121459999Y-96744341D01*
X121224596Y-96764936D01*
X121224586Y-96764938D01*
X120996344Y-96826094D01*
X120996335Y-96826098D01*
X120782171Y-96925964D01*
X120782169Y-96925965D01*
X120588597Y-97061505D01*
X120421508Y-97228594D01*
X120291269Y-97414595D01*
X120236692Y-97458219D01*
X120167193Y-97465412D01*
X120104839Y-97433890D01*
X120088119Y-97414594D01*
X119958113Y-97228926D01*
X119958108Y-97228920D01*
X119791082Y-97061894D01*
X119597578Y-96926399D01*
X119383492Y-96826570D01*
X119383486Y-96826567D01*
X119170000Y-96769364D01*
X119170000Y-97666988D01*
X119112993Y-97634075D01*
X118985826Y-97600000D01*
X118854174Y-97600000D01*
X118727007Y-97634075D01*
X118670000Y-97666988D01*
X118670000Y-96769364D01*
X118669999Y-96769364D01*
X118456513Y-96826567D01*
X118456507Y-96826570D01*
X118242422Y-96926399D01*
X118242420Y-96926400D01*
X118048926Y-97061886D01*
X118048920Y-97061891D01*
X117881891Y-97228920D01*
X117881890Y-97228922D01*
X117751575Y-97415031D01*
X117696998Y-97458655D01*
X117627499Y-97465848D01*
X117565145Y-97434326D01*
X117548425Y-97415031D01*
X117418109Y-97228922D01*
X117418108Y-97228920D01*
X117251082Y-97061894D01*
X117057578Y-96926399D01*
X116843492Y-96826570D01*
X116843486Y-96826567D01*
X116630000Y-96769364D01*
X116630000Y-97666988D01*
X116572993Y-97634075D01*
X116445826Y-97600000D01*
X116314174Y-97600000D01*
X116187007Y-97634075D01*
X116130000Y-97666988D01*
X116130000Y-96769364D01*
X116129999Y-96769364D01*
X115916513Y-96826567D01*
X115916507Y-96826570D01*
X115702422Y-96926399D01*
X115702420Y-96926400D01*
X115508926Y-97061886D01*
X115508920Y-97061891D01*
X115341891Y-97228920D01*
X115341886Y-97228926D01*
X115206400Y-97422420D01*
X115206399Y-97422422D01*
X115106570Y-97636507D01*
X115106567Y-97636513D01*
X115049364Y-97849999D01*
X108807789Y-97849999D01*
X108839999Y-97752797D01*
X108850500Y-97650009D01*
X108850499Y-96349992D01*
X108839999Y-96247203D01*
X108784814Y-96080666D01*
X108692712Y-95931344D01*
X108568656Y-95807288D01*
X108475888Y-95750069D01*
X108419336Y-95715187D01*
X108419331Y-95715185D01*
X108419215Y-95715146D01*
X108410733Y-95712336D01*
X108353290Y-95672564D01*
X108326467Y-95608048D01*
X108338782Y-95539272D01*
X108367767Y-95502517D01*
X108367573Y-95502323D01*
X108369219Y-95500676D01*
X108370040Y-95499636D01*
X108371388Y-95498504D01*
X108371401Y-95498495D01*
X108538495Y-95331401D01*
X108674035Y-95137830D01*
X108773903Y-94923663D01*
X108835063Y-94695408D01*
X108855659Y-94460000D01*
X108835063Y-94224592D01*
X108773903Y-93996337D01*
X108674035Y-93782171D01*
X108668425Y-93774158D01*
X108538494Y-93588597D01*
X108371402Y-93421506D01*
X108371396Y-93421501D01*
X108185842Y-93291575D01*
X108142217Y-93236998D01*
X108135023Y-93167500D01*
X108166546Y-93105145D01*
X108185842Y-93088425D01*
X108262248Y-93034925D01*
X108371401Y-92958495D01*
X108538495Y-92791401D01*
X108674035Y-92597830D01*
X108728980Y-92480000D01*
X113444473Y-92480000D01*
X113464563Y-92812136D01*
X113464563Y-92812141D01*
X113464564Y-92812142D01*
X113524544Y-93139441D01*
X113524545Y-93139445D01*
X113524546Y-93139449D01*
X113623530Y-93457104D01*
X113623534Y-93457116D01*
X113623537Y-93457123D01*
X113760102Y-93760557D01*
X113897576Y-93987967D01*
X113932251Y-94045326D01*
X114137460Y-94307255D01*
X114372744Y-94542539D01*
X114634673Y-94747748D01*
X114634678Y-94747751D01*
X114634682Y-94747754D01*
X114919443Y-94919898D01*
X115222877Y-95056463D01*
X115222890Y-95056467D01*
X115222895Y-95056469D01*
X115434665Y-95122458D01*
X115540559Y-95155456D01*
X115867858Y-95215436D01*
X116200000Y-95235527D01*
X116532142Y-95215436D01*
X116859441Y-95155456D01*
X117177123Y-95056463D01*
X117480557Y-94919898D01*
X117765318Y-94747754D01*
X118027252Y-94542542D01*
X118262542Y-94307252D01*
X118467754Y-94045318D01*
X118639898Y-93760557D01*
X118776463Y-93457123D01*
X118875456Y-93139441D01*
X118935436Y-92812142D01*
X118955527Y-92480000D01*
X118935436Y-92147858D01*
X118875456Y-91820559D01*
X118776463Y-91502877D01*
X118639898Y-91199443D01*
X118467754Y-90914682D01*
X118467751Y-90914678D01*
X118467748Y-90914673D01*
X118262539Y-90652744D01*
X118027255Y-90417460D01*
X117765326Y-90212251D01*
X117765318Y-90212246D01*
X117480557Y-90040102D01*
X117177123Y-89903537D01*
X117177116Y-89903534D01*
X117177104Y-89903530D01*
X116859449Y-89804546D01*
X116859445Y-89804545D01*
X116859441Y-89804544D01*
X116532142Y-89744564D01*
X116532141Y-89744563D01*
X116532136Y-89744563D01*
X116200000Y-89724473D01*
X115867863Y-89744563D01*
X115867858Y-89744564D01*
X115540559Y-89804544D01*
X115540556Y-89804544D01*
X115540550Y-89804546D01*
X115222895Y-89903530D01*
X115222879Y-89903536D01*
X115222877Y-89903537D01*
X115029656Y-89990498D01*
X114919447Y-90040100D01*
X114919445Y-90040101D01*
X114634673Y-90212251D01*
X114372744Y-90417460D01*
X114137460Y-90652744D01*
X113932251Y-90914673D01*
X113760101Y-91199445D01*
X113760100Y-91199447D01*
X113740872Y-91242171D01*
X113644403Y-91456516D01*
X113623536Y-91502880D01*
X113623530Y-91502895D01*
X113524546Y-91820550D01*
X113464563Y-92147863D01*
X113444473Y-92480000D01*
X108728980Y-92480000D01*
X108773903Y-92383663D01*
X108835063Y-92155408D01*
X108855659Y-91920000D01*
X108835063Y-91684592D01*
X108773903Y-91456337D01*
X108674035Y-91242171D01*
X108668731Y-91234595D01*
X108538494Y-91048597D01*
X108371402Y-90881506D01*
X108371395Y-90881501D01*
X108177834Y-90745967D01*
X108177830Y-90745965D01*
X108177828Y-90745964D01*
X107963663Y-90646097D01*
X107963659Y-90646096D01*
X107963655Y-90646094D01*
X107735413Y-90584938D01*
X107735403Y-90584936D01*
X107500001Y-90564341D01*
X107499999Y-90564341D01*
X107264596Y-90584936D01*
X107264586Y-90584938D01*
X107036344Y-90646094D01*
X107036335Y-90646098D01*
X106822171Y-90745964D01*
X106822169Y-90745965D01*
X106628597Y-90881505D01*
X106461505Y-91048597D01*
X106331269Y-91234595D01*
X106276692Y-91278220D01*
X106207194Y-91285414D01*
X106144839Y-91253891D01*
X106128119Y-91234595D01*
X106074925Y-91158626D01*
X106074925Y-91158625D01*
X105442962Y-91790589D01*
X105425925Y-91727007D01*
X105360099Y-91612993D01*
X105267007Y-91519901D01*
X105152993Y-91454075D01*
X105089410Y-91437037D01*
X105721373Y-90805073D01*
X105721373Y-90805072D01*
X105637583Y-90746402D01*
X105637579Y-90746400D01*
X105423492Y-90646570D01*
X105423483Y-90646566D01*
X105195326Y-90585432D01*
X105195315Y-90585430D01*
X104960002Y-90564843D01*
X104959998Y-90564843D01*
X104724684Y-90585430D01*
X104724673Y-90585432D01*
X104496516Y-90646566D01*
X104496507Y-90646570D01*
X104282419Y-90746401D01*
X104198625Y-90805072D01*
X104830590Y-91437037D01*
X104767007Y-91454075D01*
X104652993Y-91519901D01*
X104559901Y-91612993D01*
X104494075Y-91727007D01*
X104477037Y-91790589D01*
X103845073Y-91158625D01*
X103845072Y-91158625D01*
X103786401Y-91242419D01*
X103686570Y-91456507D01*
X103686566Y-91456516D01*
X103625432Y-91684673D01*
X103625430Y-91684684D01*
X103604843Y-91919998D01*
X103604843Y-91920001D01*
X103625430Y-92155315D01*
X103625432Y-92155326D01*
X103686566Y-92383483D01*
X103686570Y-92383492D01*
X103786400Y-92597579D01*
X103786402Y-92597583D01*
X103845072Y-92681373D01*
X103845073Y-92681373D01*
X104477037Y-92049409D01*
X104494075Y-92112993D01*
X104559901Y-92227007D01*
X104652993Y-92320099D01*
X104767007Y-92385925D01*
X104830590Y-92402962D01*
X104198625Y-93034925D01*
X104274594Y-93088119D01*
X104318219Y-93142696D01*
X104325413Y-93212194D01*
X104293890Y-93274549D01*
X104274595Y-93291269D01*
X104088594Y-93421508D01*
X103921505Y-93588597D01*
X103785965Y-93782169D01*
X103785964Y-93782171D01*
X103686098Y-93996335D01*
X103686094Y-93996344D01*
X103624938Y-94224586D01*
X103624936Y-94224596D01*
X103604341Y-94459999D01*
X101596702Y-94459999D01*
X101591365Y-81165000D01*
X114999540Y-81165000D01*
X115019326Y-81353256D01*
X115019327Y-81353259D01*
X115077818Y-81533277D01*
X115077821Y-81533284D01*
X115172467Y-81697216D01*
X115299129Y-81837888D01*
X115452265Y-81949148D01*
X115452270Y-81949151D01*
X115625192Y-82026142D01*
X115625197Y-82026144D01*
X115810354Y-82065500D01*
X115810355Y-82065500D01*
X115999644Y-82065500D01*
X115999646Y-82065500D01*
X116184803Y-82026144D01*
X116357730Y-81949151D01*
X116510871Y-81837888D01*
X116637533Y-81697216D01*
X116732179Y-81533284D01*
X116790674Y-81353256D01*
X116810460Y-81165000D01*
X118049540Y-81165000D01*
X118069326Y-81353256D01*
X118069327Y-81353259D01*
X118127818Y-81533277D01*
X118127821Y-81533284D01*
X118222467Y-81697216D01*
X118349129Y-81837888D01*
X118502265Y-81949148D01*
X118502270Y-81949151D01*
X118675192Y-82026142D01*
X118675197Y-82026144D01*
X118860354Y-82065500D01*
X118860355Y-82065500D01*
X119049644Y-82065500D01*
X119049646Y-82065500D01*
X119234803Y-82026144D01*
X119407730Y-81949151D01*
X119560871Y-81837888D01*
X119687533Y-81697216D01*
X119782179Y-81533284D01*
X119840674Y-81353256D01*
X119860460Y-81165000D01*
X119840674Y-80976744D01*
X119782179Y-80796716D01*
X119687533Y-80632784D01*
X119560871Y-80492112D01*
X119560870Y-80492111D01*
X119407734Y-80380851D01*
X119407729Y-80380848D01*
X119234807Y-80303857D01*
X119234802Y-80303855D01*
X119089001Y-80272865D01*
X119049646Y-80264500D01*
X118860354Y-80264500D01*
X118827897Y-80271398D01*
X118675197Y-80303855D01*
X118675192Y-80303857D01*
X118502270Y-80380848D01*
X118502265Y-80380851D01*
X118349129Y-80492111D01*
X118222466Y-80632785D01*
X118127821Y-80796715D01*
X118127818Y-80796722D01*
X118069327Y-80976740D01*
X118069326Y-80976744D01*
X118049540Y-81165000D01*
X116810460Y-81165000D01*
X116790674Y-80976744D01*
X116732179Y-80796716D01*
X116637533Y-80632784D01*
X116510871Y-80492112D01*
X116510870Y-80492111D01*
X116357734Y-80380851D01*
X116357729Y-80380848D01*
X116184807Y-80303857D01*
X116184802Y-80303855D01*
X116039001Y-80272865D01*
X115999646Y-80264500D01*
X115810354Y-80264500D01*
X115777897Y-80271398D01*
X115625197Y-80303855D01*
X115625192Y-80303857D01*
X115452270Y-80380848D01*
X115452265Y-80380851D01*
X115299129Y-80492111D01*
X115172466Y-80632785D01*
X115077821Y-80796715D01*
X115077818Y-80796722D01*
X115019327Y-80976740D01*
X115019326Y-80976744D01*
X114999540Y-81165000D01*
X101591365Y-81165000D01*
X101590000Y-77765000D01*
X101590000Y-74230001D01*
X102519540Y-74230001D01*
X102539326Y-74418257D01*
X102539327Y-74418260D01*
X102597818Y-74598278D01*
X102597821Y-74598285D01*
X102692467Y-74762217D01*
X102819129Y-74902889D01*
X102972265Y-75014149D01*
X102972270Y-75014152D01*
X103145192Y-75091143D01*
X103145197Y-75091145D01*
X103330354Y-75130501D01*
X103330355Y-75130501D01*
X103519644Y-75130501D01*
X103519646Y-75130501D01*
X103704803Y-75091145D01*
X103877730Y-75014152D01*
X103879776Y-75012665D01*
X103891452Y-75004183D01*
X103957258Y-74980703D01*
X103964337Y-74980501D01*
X104067771Y-74980501D01*
X104134810Y-75000186D01*
X104155452Y-75016820D01*
X108737228Y-79598595D01*
X108767478Y-79647958D01*
X108822818Y-79818277D01*
X108822821Y-79818284D01*
X108917467Y-79982216D01*
X109044129Y-80122888D01*
X109197265Y-80234148D01*
X109197270Y-80234151D01*
X109370192Y-80311142D01*
X109370197Y-80311144D01*
X109555354Y-80350500D01*
X109555355Y-80350500D01*
X109744644Y-80350500D01*
X109744646Y-80350500D01*
X109929803Y-80311144D01*
X110102730Y-80234151D01*
X110255871Y-80122888D01*
X110382533Y-79982216D01*
X110477179Y-79818284D01*
X110535674Y-79638256D01*
X110551256Y-79490000D01*
X116524540Y-79490000D01*
X116544326Y-79678256D01*
X116544327Y-79678259D01*
X116602818Y-79858277D01*
X116602821Y-79858284D01*
X116697467Y-80022216D01*
X116788113Y-80122888D01*
X116824129Y-80162888D01*
X116977265Y-80274148D01*
X116977270Y-80274151D01*
X117150192Y-80351142D01*
X117150197Y-80351144D01*
X117335354Y-80390500D01*
X117335355Y-80390500D01*
X117524644Y-80390500D01*
X117524646Y-80390500D01*
X117709803Y-80351144D01*
X117882730Y-80274151D01*
X118035871Y-80162888D01*
X118162533Y-80022216D01*
X118257179Y-79858284D01*
X118315674Y-79678256D01*
X118335460Y-79490000D01*
X118315674Y-79301744D01*
X118257179Y-79121716D01*
X118162533Y-78957784D01*
X118035871Y-78817112D01*
X117980816Y-78777112D01*
X117882734Y-78705851D01*
X117882729Y-78705848D01*
X117709807Y-78628857D01*
X117709802Y-78628855D01*
X117564001Y-78597865D01*
X117524646Y-78589500D01*
X117335354Y-78589500D01*
X117302897Y-78596398D01*
X117150197Y-78628855D01*
X117150192Y-78628857D01*
X116977270Y-78705848D01*
X116977265Y-78705851D01*
X116824129Y-78817111D01*
X116697466Y-78957785D01*
X116602821Y-79121715D01*
X116602818Y-79121722D01*
X116544327Y-79301740D01*
X116544326Y-79301744D01*
X116524540Y-79490000D01*
X110551256Y-79490000D01*
X110555460Y-79450000D01*
X110535674Y-79261744D01*
X110477179Y-79081716D01*
X110382533Y-78917784D01*
X110255871Y-78777112D01*
X110255870Y-78777111D01*
X110102734Y-78665851D01*
X110102729Y-78665848D01*
X109929807Y-78588857D01*
X109929802Y-78588855D01*
X109864669Y-78575011D01*
X109803187Y-78541818D01*
X109802769Y-78541402D01*
X109076367Y-77815000D01*
X114999540Y-77815000D01*
X115019326Y-78003256D01*
X115019327Y-78003259D01*
X115077818Y-78183277D01*
X115077821Y-78183284D01*
X115172467Y-78347216D01*
X115299129Y-78487888D01*
X115452265Y-78599148D01*
X115452270Y-78599151D01*
X115625192Y-78676142D01*
X115625197Y-78676144D01*
X115810354Y-78715500D01*
X115810355Y-78715500D01*
X115999644Y-78715500D01*
X115999646Y-78715500D01*
X116184803Y-78676144D01*
X116357730Y-78599151D01*
X116510871Y-78487888D01*
X116637533Y-78347216D01*
X116732179Y-78183284D01*
X116790674Y-78003256D01*
X116810460Y-77815000D01*
X118049540Y-77815000D01*
X118069326Y-78003256D01*
X118069327Y-78003259D01*
X118127818Y-78183277D01*
X118127821Y-78183284D01*
X118222467Y-78347216D01*
X118349129Y-78487888D01*
X118502265Y-78599148D01*
X118502270Y-78599151D01*
X118675192Y-78676142D01*
X118675197Y-78676144D01*
X118860354Y-78715500D01*
X118860355Y-78715500D01*
X119049644Y-78715500D01*
X119049646Y-78715500D01*
X119234803Y-78676144D01*
X119407730Y-78599151D01*
X119560871Y-78487888D01*
X119687533Y-78347216D01*
X119782179Y-78183284D01*
X119840674Y-78003256D01*
X119860460Y-77815000D01*
X119840674Y-77626744D01*
X119782179Y-77446716D01*
X119687533Y-77282784D01*
X119560871Y-77142112D01*
X119560870Y-77142111D01*
X119407734Y-77030851D01*
X119407729Y-77030848D01*
X119234807Y-76953857D01*
X119234802Y-76953855D01*
X119089001Y-76922865D01*
X119049646Y-76914500D01*
X118860354Y-76914500D01*
X118827897Y-76921398D01*
X118675197Y-76953855D01*
X118675192Y-76953857D01*
X118502270Y-77030848D01*
X118502265Y-77030851D01*
X118349129Y-77142111D01*
X118222466Y-77282785D01*
X118127821Y-77446715D01*
X118127818Y-77446722D01*
X118094099Y-77550500D01*
X118069326Y-77626744D01*
X118049540Y-77815000D01*
X116810460Y-77815000D01*
X116790674Y-77626744D01*
X116732179Y-77446716D01*
X116637533Y-77282784D01*
X116510871Y-77142112D01*
X116510870Y-77142111D01*
X116357734Y-77030851D01*
X116357729Y-77030848D01*
X116184807Y-76953857D01*
X116184802Y-76953855D01*
X116039001Y-76922865D01*
X115999646Y-76914500D01*
X115810354Y-76914500D01*
X115777897Y-76921398D01*
X115625197Y-76953855D01*
X115625192Y-76953857D01*
X115452270Y-77030848D01*
X115452265Y-77030851D01*
X115299129Y-77142111D01*
X115172466Y-77282785D01*
X115077821Y-77446715D01*
X115077818Y-77446722D01*
X115044099Y-77550500D01*
X115019326Y-77626744D01*
X114999540Y-77815000D01*
X109076367Y-77815000D01*
X107911368Y-76650000D01*
X108834540Y-76650000D01*
X108854326Y-76838256D01*
X108854327Y-76838259D01*
X108912818Y-77018277D01*
X108912821Y-77018284D01*
X109007467Y-77182216D01*
X109098019Y-77282784D01*
X109134129Y-77322888D01*
X109287265Y-77434148D01*
X109287270Y-77434151D01*
X109460192Y-77511142D01*
X109460197Y-77511144D01*
X109645354Y-77550500D01*
X109645355Y-77550500D01*
X109834644Y-77550500D01*
X109834646Y-77550500D01*
X110019803Y-77511144D01*
X110192730Y-77434151D01*
X110345871Y-77322888D01*
X110472533Y-77182216D01*
X110567179Y-77018284D01*
X110625674Y-76838256D01*
X110645460Y-76650000D01*
X110625674Y-76461744D01*
X110567179Y-76281716D01*
X110472533Y-76117784D01*
X110345871Y-75977112D01*
X110345870Y-75977111D01*
X110192734Y-75865851D01*
X110192729Y-75865848D01*
X110019807Y-75788857D01*
X110019802Y-75788855D01*
X109874001Y-75757865D01*
X109834646Y-75749500D01*
X109645354Y-75749500D01*
X109612897Y-75756398D01*
X109460197Y-75788855D01*
X109460192Y-75788857D01*
X109287270Y-75865848D01*
X109287265Y-75865851D01*
X109134129Y-75977111D01*
X109007466Y-76117785D01*
X108912821Y-76281715D01*
X108912818Y-76281722D01*
X108854327Y-76461740D01*
X108854326Y-76461744D01*
X108834540Y-76650000D01*
X107911368Y-76650000D01*
X105111369Y-73850000D01*
X115494540Y-73850000D01*
X115514326Y-74038256D01*
X115514327Y-74038259D01*
X115572818Y-74218277D01*
X115572821Y-74218284D01*
X115667467Y-74382216D01*
X115794129Y-74522888D01*
X115947265Y-74634148D01*
X115947270Y-74634151D01*
X116120192Y-74711142D01*
X116120197Y-74711144D01*
X116305354Y-74750500D01*
X116305355Y-74750500D01*
X116494644Y-74750500D01*
X116494646Y-74750500D01*
X116679803Y-74711144D01*
X116852730Y-74634151D01*
X117005871Y-74522888D01*
X117132533Y-74382216D01*
X117227179Y-74218284D01*
X117285674Y-74038256D01*
X117305460Y-73850000D01*
X117285674Y-73661744D01*
X117227179Y-73481716D01*
X117132533Y-73317784D01*
X117005871Y-73177112D01*
X117005870Y-73177111D01*
X116852734Y-73065851D01*
X116852729Y-73065848D01*
X116679807Y-72988857D01*
X116679802Y-72988855D01*
X116534001Y-72957865D01*
X116494646Y-72949500D01*
X116305354Y-72949500D01*
X116272897Y-72956398D01*
X116120197Y-72988855D01*
X116120192Y-72988857D01*
X115947270Y-73065848D01*
X115947265Y-73065851D01*
X115794129Y-73177111D01*
X115667466Y-73317785D01*
X115572821Y-73481715D01*
X115572818Y-73481722D01*
X115519099Y-73647053D01*
X115514326Y-73661744D01*
X115494540Y-73850000D01*
X105111369Y-73850000D01*
X104908422Y-73647053D01*
X104908415Y-73647047D01*
X104834730Y-73597813D01*
X104834730Y-73597814D01*
X104785492Y-73564914D01*
X104648918Y-73508344D01*
X104648908Y-73508341D01*
X104503921Y-73479501D01*
X104503919Y-73479501D01*
X103964337Y-73479501D01*
X103897298Y-73459816D01*
X103891452Y-73455819D01*
X103877734Y-73445852D01*
X103877729Y-73445849D01*
X103704807Y-73368858D01*
X103704802Y-73368856D01*
X103559001Y-73337866D01*
X103519646Y-73329501D01*
X103330354Y-73329501D01*
X103297897Y-73336399D01*
X103145197Y-73368856D01*
X103145192Y-73368858D01*
X102972270Y-73445849D01*
X102972265Y-73445852D01*
X102819129Y-73557112D01*
X102692466Y-73697786D01*
X102597821Y-73861716D01*
X102597818Y-73861723D01*
X102539327Y-74041741D01*
X102539326Y-74041745D01*
X102519540Y-74230001D01*
X101590000Y-74230001D01*
X101590000Y-45514999D01*
X102694341Y-45514999D01*
X102694341Y-45515000D01*
X102714936Y-45750403D01*
X102714938Y-45750413D01*
X102776094Y-45978655D01*
X102776096Y-45978659D01*
X102776097Y-45978663D01*
X102780000Y-45987032D01*
X102875965Y-46192830D01*
X102875967Y-46192834D01*
X102984281Y-46347521D01*
X103011501Y-46386396D01*
X103011506Y-46386402D01*
X103178597Y-46553493D01*
X103178603Y-46553498D01*
X103364158Y-46683425D01*
X103407783Y-46738002D01*
X103414977Y-46807500D01*
X103383454Y-46869855D01*
X103364158Y-46886575D01*
X103178597Y-47016505D01*
X103011505Y-47183597D01*
X102875965Y-47377169D01*
X102875964Y-47377171D01*
X102776098Y-47591335D01*
X102776094Y-47591344D01*
X102714938Y-47819586D01*
X102714936Y-47819596D01*
X102694341Y-48054999D01*
X102694341Y-48055000D01*
X102714936Y-48290403D01*
X102714938Y-48290413D01*
X102776094Y-48518655D01*
X102776096Y-48518659D01*
X102776097Y-48518663D01*
X102780000Y-48527032D01*
X102875965Y-48732830D01*
X102875967Y-48732834D01*
X102950656Y-48839500D01*
X103011501Y-48926396D01*
X103011506Y-48926402D01*
X103178597Y-49093493D01*
X103178603Y-49093498D01*
X103364158Y-49223425D01*
X103407783Y-49278002D01*
X103414977Y-49347500D01*
X103383454Y-49409855D01*
X103364158Y-49426575D01*
X103178597Y-49556505D01*
X103011505Y-49723597D01*
X102875965Y-49917169D01*
X102875964Y-49917171D01*
X102776098Y-50131335D01*
X102776094Y-50131344D01*
X102714938Y-50359586D01*
X102714936Y-50359596D01*
X102694341Y-50594999D01*
X102694341Y-50595000D01*
X102714936Y-50830403D01*
X102714938Y-50830413D01*
X102776094Y-51058655D01*
X102776096Y-51058659D01*
X102776097Y-51058663D01*
X102780000Y-51067032D01*
X102875965Y-51272830D01*
X102875967Y-51272834D01*
X102984281Y-51427521D01*
X103011501Y-51466396D01*
X103011506Y-51466402D01*
X103178597Y-51633493D01*
X103178603Y-51633498D01*
X103364158Y-51763425D01*
X103407783Y-51818002D01*
X103414977Y-51887500D01*
X103383454Y-51949855D01*
X103364158Y-51966575D01*
X103178597Y-52096505D01*
X103011505Y-52263597D01*
X102875965Y-52457169D01*
X102875964Y-52457171D01*
X102776098Y-52671335D01*
X102776094Y-52671344D01*
X102714938Y-52899586D01*
X102714936Y-52899596D01*
X102694341Y-53134999D01*
X102694341Y-53135000D01*
X102714936Y-53370403D01*
X102714938Y-53370413D01*
X102776094Y-53598655D01*
X102776096Y-53598659D01*
X102776097Y-53598663D01*
X102859155Y-53776781D01*
X102875965Y-53812830D01*
X102875967Y-53812834D01*
X102984281Y-53967521D01*
X103011501Y-54006396D01*
X103011506Y-54006402D01*
X103178597Y-54173493D01*
X103178603Y-54173498D01*
X103364594Y-54303730D01*
X103408219Y-54358307D01*
X103415413Y-54427805D01*
X103383890Y-54490160D01*
X103364595Y-54506880D01*
X103178922Y-54636890D01*
X103178920Y-54636891D01*
X103011891Y-54803920D01*
X103011886Y-54803926D01*
X102876400Y-54997420D01*
X102876399Y-54997422D01*
X102776570Y-55211507D01*
X102776567Y-55211513D01*
X102719364Y-55424999D01*
X102719364Y-55425000D01*
X103616988Y-55425000D01*
X103584075Y-55482007D01*
X103550000Y-55609174D01*
X103550000Y-55740826D01*
X103584075Y-55867993D01*
X103616988Y-55925000D01*
X102719364Y-55925000D01*
X102776567Y-56138486D01*
X102776570Y-56138492D01*
X102876399Y-56352578D01*
X103011894Y-56546082D01*
X103178917Y-56713105D01*
X103372421Y-56848600D01*
X103586507Y-56948429D01*
X103586516Y-56948433D01*
X103800000Y-57005634D01*
X103800000Y-56108012D01*
X103857007Y-56140925D01*
X103984174Y-56175000D01*
X104115826Y-56175000D01*
X104242993Y-56140925D01*
X104300000Y-56108012D01*
X104300000Y-57005633D01*
X104513483Y-56948433D01*
X104513492Y-56948429D01*
X104727578Y-56848600D01*
X104921082Y-56713105D01*
X105088105Y-56546082D01*
X105218425Y-56359968D01*
X105273002Y-56316344D01*
X105342501Y-56309151D01*
X105404855Y-56340673D01*
X105421575Y-56359968D01*
X105551894Y-56546082D01*
X105718917Y-56713105D01*
X105912421Y-56848600D01*
X106126507Y-56948429D01*
X106126516Y-56948433D01*
X106340000Y-57005634D01*
X106340000Y-56108012D01*
X106397007Y-56140925D01*
X106524174Y-56175000D01*
X106655826Y-56175000D01*
X106782993Y-56140925D01*
X106840000Y-56108012D01*
X106840000Y-57005633D01*
X107053483Y-56948433D01*
X107053492Y-56948429D01*
X107267578Y-56848600D01*
X107461082Y-56713105D01*
X107628105Y-56546082D01*
X107763600Y-56352578D01*
X107863429Y-56138492D01*
X107863432Y-56138486D01*
X107920636Y-55925000D01*
X107023012Y-55925000D01*
X107055925Y-55867993D01*
X107090000Y-55740826D01*
X107090000Y-55609174D01*
X107055925Y-55482007D01*
X107023012Y-55425000D01*
X107920636Y-55425000D01*
X107920635Y-55424999D01*
X107863432Y-55211513D01*
X107863429Y-55211507D01*
X107763600Y-54997422D01*
X107763599Y-54997420D01*
X107628113Y-54803926D01*
X107628108Y-54803920D01*
X107461082Y-54636894D01*
X107274968Y-54506575D01*
X107231344Y-54451998D01*
X107224151Y-54382499D01*
X107255673Y-54320145D01*
X107274968Y-54303425D01*
X107461082Y-54173105D01*
X107628105Y-54006082D01*
X107763600Y-53812578D01*
X107863429Y-53598492D01*
X107863432Y-53598486D01*
X107920636Y-53385000D01*
X107023012Y-53385000D01*
X107055925Y-53327993D01*
X107090000Y-53200826D01*
X107090000Y-53069174D01*
X107055925Y-52942007D01*
X107023012Y-52885000D01*
X107920636Y-52885000D01*
X107920635Y-52884999D01*
X107863432Y-52671513D01*
X107863429Y-52671507D01*
X107763600Y-52457422D01*
X107763599Y-52457420D01*
X107628113Y-52263926D01*
X107628108Y-52263920D01*
X107461078Y-52096890D01*
X107275405Y-51966879D01*
X107231780Y-51912302D01*
X107224588Y-51842804D01*
X107256110Y-51780449D01*
X107275406Y-51763730D01*
X107275842Y-51763425D01*
X107461401Y-51633495D01*
X107628495Y-51466401D01*
X107764035Y-51272830D01*
X107863903Y-51058663D01*
X107925063Y-50830408D01*
X107945659Y-50595000D01*
X107925063Y-50359592D01*
X107863903Y-50131337D01*
X107764035Y-49917171D01*
X107758425Y-49909158D01*
X107628494Y-49723597D01*
X107461402Y-49556506D01*
X107461396Y-49556501D01*
X107275842Y-49426575D01*
X107232217Y-49371998D01*
X107225023Y-49302500D01*
X107256546Y-49240145D01*
X107275842Y-49223425D01*
X107298180Y-49207784D01*
X107461401Y-49093495D01*
X107628495Y-48926401D01*
X107764035Y-48732830D01*
X107863903Y-48518663D01*
X107925063Y-48290408D01*
X107932375Y-48206822D01*
X107957827Y-48141756D01*
X108014418Y-48100778D01*
X108084180Y-48096899D01*
X108143584Y-48129951D01*
X108703181Y-48689548D01*
X108736666Y-48750871D01*
X108739500Y-48777229D01*
X108739500Y-49251515D01*
X108737117Y-49275708D01*
X108729500Y-49313998D01*
X108729500Y-50166001D01*
X108737117Y-50204291D01*
X108739500Y-50228484D01*
X108739500Y-68003918D01*
X108739500Y-68003920D01*
X108739499Y-68003920D01*
X108768340Y-68148907D01*
X108768343Y-68148917D01*
X108824913Y-68285490D01*
X108824914Y-68285491D01*
X108824916Y-68285495D01*
X108846588Y-68317929D01*
X108870878Y-68354283D01*
X108907051Y-68408420D01*
X108907052Y-68408421D01*
X110577228Y-70078595D01*
X110607478Y-70127958D01*
X110662818Y-70298277D01*
X110662821Y-70298284D01*
X110757467Y-70462216D01*
X110884129Y-70602888D01*
X111037265Y-70714148D01*
X111037270Y-70714151D01*
X111210192Y-70791142D01*
X111210197Y-70791144D01*
X111395354Y-70830500D01*
X111395355Y-70830500D01*
X111584644Y-70830500D01*
X111584646Y-70830500D01*
X111769803Y-70791144D01*
X111942730Y-70714151D01*
X112095871Y-70602888D01*
X112222533Y-70462216D01*
X112317179Y-70298284D01*
X112375674Y-70118256D01*
X112395460Y-69930000D01*
X112389742Y-69875596D01*
X112402312Y-69806867D01*
X112440176Y-69762319D01*
X112525871Y-69700059D01*
X112652533Y-69559387D01*
X112747179Y-69395455D01*
X112805674Y-69215427D01*
X112825460Y-69027171D01*
X112805674Y-68838915D01*
X112747179Y-68658887D01*
X112678540Y-68540000D01*
X114904540Y-68540000D01*
X114924326Y-68728256D01*
X114924327Y-68728259D01*
X114982818Y-68908277D01*
X114982821Y-68908284D01*
X115077467Y-69072216D01*
X115204129Y-69212888D01*
X115357265Y-69324148D01*
X115357270Y-69324151D01*
X115530192Y-69401142D01*
X115530197Y-69401144D01*
X115715354Y-69440500D01*
X115715355Y-69440500D01*
X115904644Y-69440500D01*
X115904646Y-69440500D01*
X116089803Y-69401144D01*
X116262730Y-69324151D01*
X116415871Y-69212888D01*
X116542533Y-69072216D01*
X116637179Y-68908284D01*
X116695674Y-68728256D01*
X116715460Y-68540000D01*
X116695674Y-68351744D01*
X116637179Y-68171716D01*
X116542533Y-68007784D01*
X116415871Y-67867112D01*
X116415870Y-67867111D01*
X116262734Y-67755851D01*
X116262729Y-67755848D01*
X116089807Y-67678857D01*
X116089802Y-67678855D01*
X115944001Y-67647865D01*
X115904646Y-67639500D01*
X115715354Y-67639500D01*
X115682897Y-67646398D01*
X115530197Y-67678855D01*
X115530192Y-67678857D01*
X115357270Y-67755848D01*
X115357265Y-67755851D01*
X115204129Y-67867111D01*
X115077466Y-68007785D01*
X114982821Y-68171715D01*
X114982818Y-68171722D01*
X114935313Y-68317929D01*
X114924326Y-68351744D01*
X114904540Y-68540000D01*
X112678540Y-68540000D01*
X112652533Y-68494955D01*
X112525871Y-68354283D01*
X112458892Y-68305620D01*
X112416227Y-68250290D01*
X112410248Y-68180676D01*
X112413843Y-68166995D01*
X112455674Y-68038256D01*
X112475460Y-67850000D01*
X112455674Y-67661744D01*
X112397179Y-67481716D01*
X112302533Y-67317784D01*
X112175871Y-67177112D01*
X112175870Y-67177111D01*
X112022734Y-67065851D01*
X112022729Y-67065848D01*
X111849807Y-66988857D01*
X111849802Y-66988855D01*
X111704001Y-66957865D01*
X111664646Y-66949500D01*
X111475354Y-66949500D01*
X111442897Y-66956398D01*
X111290197Y-66988855D01*
X111290192Y-66988857D01*
X111117270Y-67065848D01*
X111117265Y-67065851D01*
X110964129Y-67177111D01*
X110837466Y-67317785D01*
X110742821Y-67481715D01*
X110742818Y-67481722D01*
X110684327Y-67661740D01*
X110684326Y-67661744D01*
X110674435Y-67755851D01*
X110673342Y-67766253D01*
X110646757Y-67830868D01*
X110589460Y-67870852D01*
X110519641Y-67873512D01*
X110462340Y-67840972D01*
X110276819Y-67655451D01*
X110243334Y-67594128D01*
X110240500Y-67567770D01*
X110240500Y-65590000D01*
X120264540Y-65590000D01*
X120284326Y-65778256D01*
X120284327Y-65778259D01*
X120342818Y-65958277D01*
X120342821Y-65958284D01*
X120437467Y-66122216D01*
X120564129Y-66262888D01*
X120717265Y-66374148D01*
X120717270Y-66374151D01*
X120890192Y-66451142D01*
X120890197Y-66451144D01*
X121075354Y-66490500D01*
X121075355Y-66490500D01*
X121264644Y-66490500D01*
X121264646Y-66490500D01*
X121449803Y-66451144D01*
X121622730Y-66374151D01*
X121775871Y-66262888D01*
X121902533Y-66122216D01*
X121997179Y-65958284D01*
X122055674Y-65778256D01*
X122075460Y-65590000D01*
X122055674Y-65401744D01*
X121997179Y-65221716D01*
X121902533Y-65057784D01*
X121775871Y-64917112D01*
X121775870Y-64917111D01*
X121622734Y-64805851D01*
X121622729Y-64805848D01*
X121449807Y-64728857D01*
X121449802Y-64728855D01*
X121304001Y-64697865D01*
X121264646Y-64689500D01*
X121075354Y-64689500D01*
X121042897Y-64696398D01*
X120890197Y-64728855D01*
X120890192Y-64728857D01*
X120717270Y-64805848D01*
X120717265Y-64805851D01*
X120564129Y-64917111D01*
X120437466Y-65057785D01*
X120342821Y-65221715D01*
X120342818Y-65221722D01*
X120284327Y-65401740D01*
X120284326Y-65401744D01*
X120264540Y-65590000D01*
X110240500Y-65590000D01*
X110240500Y-65100711D01*
X110260185Y-65033672D01*
X110312989Y-64987917D01*
X110382147Y-64977973D01*
X110390263Y-64979418D01*
X110395354Y-64980500D01*
X110395357Y-64980500D01*
X110584644Y-64980500D01*
X110584646Y-64980500D01*
X110769803Y-64941144D01*
X110942730Y-64864151D01*
X111095871Y-64752888D01*
X111222533Y-64612216D01*
X111317179Y-64448284D01*
X111375674Y-64268256D01*
X111395460Y-64080000D01*
X111375674Y-63891744D01*
X111317179Y-63711716D01*
X111222533Y-63547784D01*
X111095871Y-63407112D01*
X111095870Y-63407111D01*
X110942734Y-63295851D01*
X110942729Y-63295848D01*
X110769807Y-63218857D01*
X110769802Y-63218855D01*
X110624001Y-63187865D01*
X110584646Y-63179500D01*
X110395354Y-63179500D01*
X110395349Y-63179500D01*
X110390276Y-63180578D01*
X110320609Y-63175259D01*
X110264877Y-63133120D01*
X110240775Y-63067539D01*
X110240500Y-63059287D01*
X110240500Y-59450000D01*
X110814540Y-59450000D01*
X110834326Y-59638256D01*
X110834327Y-59638259D01*
X110892818Y-59818277D01*
X110892821Y-59818284D01*
X110987467Y-59982216D01*
X111114129Y-60122888D01*
X111267265Y-60234148D01*
X111267270Y-60234151D01*
X111440192Y-60311142D01*
X111440197Y-60311144D01*
X111625354Y-60350500D01*
X111625355Y-60350500D01*
X111814644Y-60350500D01*
X111814646Y-60350500D01*
X111999803Y-60311144D01*
X112172730Y-60234151D01*
X112325871Y-60122888D01*
X112452533Y-59982216D01*
X112547179Y-59818284D01*
X112605674Y-59638256D01*
X112625460Y-59450000D01*
X112605674Y-59261744D01*
X112547179Y-59081716D01*
X112452533Y-58917784D01*
X112325871Y-58777112D01*
X112325870Y-58777111D01*
X112172734Y-58665851D01*
X112172729Y-58665848D01*
X111999807Y-58588857D01*
X111999802Y-58588855D01*
X111854001Y-58557865D01*
X111814646Y-58549500D01*
X111625354Y-58549500D01*
X111592897Y-58556398D01*
X111440197Y-58588855D01*
X111440192Y-58588857D01*
X111267270Y-58665848D01*
X111267265Y-58665851D01*
X111114129Y-58777111D01*
X110987466Y-58917785D01*
X110892821Y-59081715D01*
X110892818Y-59081722D01*
X110834327Y-59261740D01*
X110834326Y-59261744D01*
X110814540Y-59450000D01*
X110240500Y-59450000D01*
X110240500Y-52630000D01*
X110774540Y-52630000D01*
X110794326Y-52818256D01*
X110794327Y-52818259D01*
X110852818Y-52998277D01*
X110852821Y-52998284D01*
X110947467Y-53162216D01*
X110982232Y-53200826D01*
X111074129Y-53302888D01*
X111227265Y-53414148D01*
X111227270Y-53414151D01*
X111400192Y-53491142D01*
X111400197Y-53491144D01*
X111585354Y-53530500D01*
X111585355Y-53530500D01*
X111774644Y-53530500D01*
X111774646Y-53530500D01*
X111959803Y-53491144D01*
X112132730Y-53414151D01*
X112285871Y-53302888D01*
X112412533Y-53162216D01*
X112507179Y-52998284D01*
X112565674Y-52818256D01*
X112585460Y-52630000D01*
X112565674Y-52441744D01*
X112507179Y-52261716D01*
X112412533Y-52097784D01*
X112285871Y-51957112D01*
X112285870Y-51957111D01*
X112132734Y-51845851D01*
X112132729Y-51845848D01*
X111959807Y-51768857D01*
X111959802Y-51768855D01*
X111814001Y-51737865D01*
X111774646Y-51729500D01*
X111585354Y-51729500D01*
X111552897Y-51736398D01*
X111400197Y-51768855D01*
X111400192Y-51768857D01*
X111227270Y-51845848D01*
X111227265Y-51845851D01*
X111074129Y-51957111D01*
X110947466Y-52097785D01*
X110852821Y-52261715D01*
X110852818Y-52261722D01*
X110794327Y-52441740D01*
X110794326Y-52441744D01*
X110774540Y-52630000D01*
X110240500Y-52630000D01*
X110240500Y-50764500D01*
X110260185Y-50697461D01*
X110312989Y-50651706D01*
X110364500Y-50640500D01*
X110424644Y-50640500D01*
X110424646Y-50640500D01*
X110609803Y-50601144D01*
X110782730Y-50524151D01*
X110935871Y-50412888D01*
X111062533Y-50272216D01*
X111157179Y-50108284D01*
X111215674Y-49928256D01*
X111235460Y-49740000D01*
X111215674Y-49551744D01*
X111157179Y-49371716D01*
X111062533Y-49207784D01*
X110935871Y-49067112D01*
X110935870Y-49067111D01*
X110782734Y-48955851D01*
X110782729Y-48955848D01*
X110609807Y-48878857D01*
X110609802Y-48878855D01*
X110464001Y-48847865D01*
X110424646Y-48839500D01*
X110424645Y-48839500D01*
X110364500Y-48839500D01*
X110297461Y-48819815D01*
X110251706Y-48767011D01*
X110240500Y-48715500D01*
X110240500Y-48341079D01*
X110211659Y-48196092D01*
X110211658Y-48196091D01*
X110211658Y-48196087D01*
X110211656Y-48196082D01*
X110155087Y-48059511D01*
X110155080Y-48059498D01*
X110072952Y-47936585D01*
X110056602Y-47920235D01*
X109968416Y-47832049D01*
X108968365Y-46831998D01*
X107962869Y-45826501D01*
X107929384Y-45765178D01*
X107927022Y-45728012D01*
X107945659Y-45515000D01*
X107945659Y-45514999D01*
X107925063Y-45279596D01*
X107925063Y-45279592D01*
X107863903Y-45051337D01*
X107764035Y-44837171D01*
X107758425Y-44829158D01*
X107628494Y-44643597D01*
X107461402Y-44476506D01*
X107461396Y-44476501D01*
X107275842Y-44346575D01*
X107232217Y-44291998D01*
X107225023Y-44222500D01*
X107256546Y-44160145D01*
X107275842Y-44143425D01*
X107298026Y-44127891D01*
X107461401Y-44013495D01*
X107628495Y-43846401D01*
X107764035Y-43652830D01*
X107844627Y-43480000D01*
X113444473Y-43480000D01*
X113464563Y-43812136D01*
X113464563Y-43812141D01*
X113464564Y-43812142D01*
X113524544Y-44139441D01*
X113524545Y-44139445D01*
X113524546Y-44139449D01*
X113623530Y-44457104D01*
X113623534Y-44457116D01*
X113623537Y-44457123D01*
X113760102Y-44760557D01*
X113832294Y-44879977D01*
X113932251Y-45045326D01*
X114137460Y-45307255D01*
X114372744Y-45542539D01*
X114634673Y-45747748D01*
X114634678Y-45747751D01*
X114634682Y-45747754D01*
X114919443Y-45919898D01*
X115222877Y-46056463D01*
X115222890Y-46056467D01*
X115222895Y-46056469D01*
X115434665Y-46122458D01*
X115540559Y-46155456D01*
X115867858Y-46215436D01*
X116200000Y-46235527D01*
X116532142Y-46215436D01*
X116859441Y-46155456D01*
X117177123Y-46056463D01*
X117480557Y-45919898D01*
X117765318Y-45747754D01*
X118027252Y-45542542D01*
X118262542Y-45307252D01*
X118463033Y-45051344D01*
X118467748Y-45045326D01*
X118467748Y-45045324D01*
X118467754Y-45045318D01*
X118639898Y-44760557D01*
X118776463Y-44457123D01*
X118875456Y-44139441D01*
X118935436Y-43812142D01*
X118955527Y-43480000D01*
X118935436Y-43147858D01*
X118875456Y-42820559D01*
X118842458Y-42714665D01*
X118776469Y-42502895D01*
X118776467Y-42502890D01*
X118776463Y-42502877D01*
X118639898Y-42199443D01*
X118467754Y-41914682D01*
X118467751Y-41914678D01*
X118467748Y-41914673D01*
X118262539Y-41652744D01*
X118027255Y-41417460D01*
X117765326Y-41212251D01*
X117765318Y-41212246D01*
X117480557Y-41040102D01*
X117177123Y-40903537D01*
X117177116Y-40903534D01*
X117177104Y-40903530D01*
X116859449Y-40804546D01*
X116859445Y-40804545D01*
X116859441Y-40804544D01*
X116532142Y-40744564D01*
X116532141Y-40744563D01*
X116532136Y-40744563D01*
X116200000Y-40724473D01*
X115867863Y-40744563D01*
X115867858Y-40744564D01*
X115540559Y-40804544D01*
X115540556Y-40804544D01*
X115540550Y-40804546D01*
X115222895Y-40903530D01*
X115222879Y-40903536D01*
X115222877Y-40903537D01*
X115029656Y-40990498D01*
X114919447Y-41040100D01*
X114919445Y-41040101D01*
X114634673Y-41212251D01*
X114372744Y-41417460D01*
X114137460Y-41652744D01*
X113932251Y-41914673D01*
X113760101Y-42199445D01*
X113760100Y-42199447D01*
X113623536Y-42502880D01*
X113623530Y-42502895D01*
X113524546Y-42820550D01*
X113464563Y-43147863D01*
X113444473Y-43480000D01*
X107844627Y-43480000D01*
X107863903Y-43438663D01*
X107925063Y-43210408D01*
X107945659Y-42975000D01*
X107925063Y-42739592D01*
X107863903Y-42511337D01*
X107764035Y-42297171D01*
X107695609Y-42199447D01*
X107628494Y-42103597D01*
X107461402Y-41936506D01*
X107461395Y-41936501D01*
X107430234Y-41914682D01*
X107384518Y-41882671D01*
X107267834Y-41800967D01*
X107267830Y-41800965D01*
X107267828Y-41800964D01*
X107053663Y-41701097D01*
X107053659Y-41701096D01*
X107053655Y-41701094D01*
X106825413Y-41639938D01*
X106825403Y-41639936D01*
X106590001Y-41619341D01*
X106589999Y-41619341D01*
X106354596Y-41639936D01*
X106354586Y-41639938D01*
X106126344Y-41701094D01*
X106126335Y-41701098D01*
X105912171Y-41800964D01*
X105912169Y-41800965D01*
X105718600Y-41936503D01*
X105596673Y-42058430D01*
X105535350Y-42091914D01*
X105465658Y-42086930D01*
X105409725Y-42045058D01*
X105392810Y-42014081D01*
X105343797Y-41882671D01*
X105343793Y-41882664D01*
X105257547Y-41767455D01*
X105257544Y-41767452D01*
X105142335Y-41681206D01*
X105142328Y-41681202D01*
X105007482Y-41630908D01*
X105007483Y-41630908D01*
X104947883Y-41624501D01*
X104947881Y-41624500D01*
X104947873Y-41624500D01*
X104947864Y-41624500D01*
X103152129Y-41624500D01*
X103152123Y-41624501D01*
X103092516Y-41630908D01*
X102957671Y-41681202D01*
X102957664Y-41681206D01*
X102842455Y-41767452D01*
X102842452Y-41767455D01*
X102756206Y-41882664D01*
X102756202Y-41882671D01*
X102705908Y-42017517D01*
X102699501Y-42077116D01*
X102699500Y-42077135D01*
X102699500Y-43872870D01*
X102699501Y-43872876D01*
X102705908Y-43932483D01*
X102756202Y-44067328D01*
X102756206Y-44067335D01*
X102842452Y-44182544D01*
X102842455Y-44182547D01*
X102957664Y-44268793D01*
X102957671Y-44268797D01*
X103089081Y-44317810D01*
X103145015Y-44359681D01*
X103169432Y-44425145D01*
X103154580Y-44493418D01*
X103133430Y-44521673D01*
X103011503Y-44643600D01*
X102875965Y-44837169D01*
X102875964Y-44837171D01*
X102776098Y-45051335D01*
X102776094Y-45051344D01*
X102714938Y-45279586D01*
X102714936Y-45279596D01*
X102694341Y-45514999D01*
X101590000Y-45514999D01*
X101590000Y-40524279D01*
X101609685Y-40457240D01*
X101662489Y-40411485D01*
X101714279Y-40400279D01*
X106937481Y-40412029D01*
G37*
%TD.AperFunction*%
%TD*%
M02*
