%TF.GenerationSoftware,KiCad,Pcbnew,8.0.6*%
%TF.CreationDate,2025-02-12T14:43:40-05:00*%
%TF.ProjectId,PwrModule,5077724d-6f64-4756-9c65-2e6b69636164,rev?*%
%TF.SameCoordinates,Original*%
%TF.FileFunction,Soldermask,Bot*%
%TF.FilePolarity,Negative*%
%FSLAX46Y46*%
G04 Gerber Fmt 4.6, Leading zero omitted, Abs format (unit mm)*
G04 Created by KiCad (PCBNEW 8.0.6) date 2025-02-12 14:43:40*
%MOMM*%
%LPD*%
G01*
G04 APERTURE LIST*
G04 Aperture macros list*
%AMRoundRect*
0 Rectangle with rounded corners*
0 $1 Rounding radius*
0 $2 $3 $4 $5 $6 $7 $8 $9 X,Y pos of 4 corners*
0 Add a 4 corners polygon primitive as box body*
4,1,4,$2,$3,$4,$5,$6,$7,$8,$9,$2,$3,0*
0 Add four circle primitives for the rounded corners*
1,1,$1+$1,$2,$3*
1,1,$1+$1,$4,$5*
1,1,$1+$1,$6,$7*
1,1,$1+$1,$8,$9*
0 Add four rect primitives between the rounded corners*
20,1,$1+$1,$2,$3,$4,$5,0*
20,1,$1+$1,$4,$5,$6,$7,0*
20,1,$1+$1,$6,$7,$8,$9,0*
20,1,$1+$1,$8,$9,$2,$3,0*%
G04 Aperture macros list end*
%ADD10R,1.700000X1.700000*%
%ADD11O,1.700000X1.700000*%
%ADD12C,4.500000*%
%ADD13RoundRect,0.250000X0.600000X0.600000X-0.600000X0.600000X-0.600000X-0.600000X0.600000X-0.600000X0*%
%ADD14C,1.700000*%
%ADD15RoundRect,0.250000X0.325000X0.650000X-0.325000X0.650000X-0.325000X-0.650000X0.325000X-0.650000X0*%
%ADD16RoundRect,0.250000X0.625000X-0.312500X0.625000X0.312500X-0.625000X0.312500X-0.625000X-0.312500X0*%
%ADD17RoundRect,0.250000X0.375000X0.625000X-0.375000X0.625000X-0.375000X-0.625000X0.375000X-0.625000X0*%
%ADD18RoundRect,0.250000X0.312500X0.625000X-0.312500X0.625000X-0.312500X-0.625000X0.312500X-0.625000X0*%
%ADD19RoundRect,0.250000X0.350000X-0.850000X0.350000X0.850000X-0.350000X0.850000X-0.350000X-0.850000X0*%
%ADD20RoundRect,0.249997X2.650003X-2.950003X2.650003X2.950003X-2.650003X2.950003X-2.650003X-2.950003X0*%
%ADD21RoundRect,0.150000X0.587500X0.150000X-0.587500X0.150000X-0.587500X-0.150000X0.587500X-0.150000X0*%
%ADD22C,2.250000*%
%ADD23RoundRect,0.150000X-0.150000X0.587500X-0.150000X-0.587500X0.150000X-0.587500X0.150000X0.587500X0*%
%ADD24RoundRect,0.250000X-0.625000X0.312500X-0.625000X-0.312500X0.625000X-0.312500X0.625000X0.312500X0*%
%ADD25RoundRect,0.250000X-0.312500X-0.625000X0.312500X-0.625000X0.312500X0.625000X-0.312500X0.625000X0*%
%ADD26RoundRect,0.150000X-0.825000X-0.150000X0.825000X-0.150000X0.825000X0.150000X-0.825000X0.150000X0*%
G04 APERTURE END LIST*
D10*
%TO.C,J14*%
X124000000Y-98100000D03*
D11*
X124000000Y-100640000D03*
X121460000Y-98100000D03*
X121460000Y-100640000D03*
X118920000Y-98100000D03*
X118920000Y-100640000D03*
X116380000Y-98100000D03*
X116380000Y-100640000D03*
%TD*%
D10*
%TO.C,J11*%
X104050000Y-42975000D03*
D11*
X106590000Y-42975000D03*
X104050000Y-45515000D03*
X106590000Y-45515000D03*
X104050000Y-48055000D03*
X106590000Y-48055000D03*
X104050000Y-50595000D03*
X106590000Y-50595000D03*
X104050000Y-53135000D03*
X106590000Y-53135000D03*
X104050000Y-55675000D03*
X106590000Y-55675000D03*
%TD*%
D12*
%TO.C,H5*%
X116200000Y-92480000D03*
%TD*%
D13*
%TO.C,J1*%
X107500000Y-97000000D03*
D14*
X104960000Y-97000000D03*
X107500000Y-94460000D03*
X104960000Y-94460000D03*
X107500000Y-91920000D03*
X104960000Y-91920000D03*
%TD*%
D12*
%TO.C,H1*%
X116200000Y-43480000D03*
%TD*%
D15*
%TO.C,C1*%
X107730000Y-78330000D03*
X104780000Y-78330000D03*
%TD*%
D16*
%TO.C,R2*%
X123990000Y-90512500D03*
X123990000Y-87587500D03*
%TD*%
D17*
%TO.C,F1*%
X115220000Y-88760000D03*
X112420000Y-88760000D03*
%TD*%
D18*
%TO.C,R5*%
X113255000Y-52450000D03*
X110330000Y-52450000D03*
%TD*%
D19*
%TO.C,Q2*%
X119710000Y-85790000D03*
D20*
X117430000Y-79490000D03*
D19*
X115150000Y-85790000D03*
%TD*%
D21*
%TO.C,Q1*%
X105607500Y-83657500D03*
X105607500Y-85557500D03*
X103732500Y-84607500D03*
%TD*%
D22*
%TO.C,FID1*%
X124000000Y-83000000D03*
%TD*%
D23*
%TO.C,Q6*%
X103850000Y-60425000D03*
X105750000Y-60425000D03*
X104800000Y-62300000D03*
%TD*%
D15*
%TO.C,C2*%
X107730000Y-81680000D03*
X104780000Y-81680000D03*
%TD*%
D24*
%TO.C,R8*%
X111230000Y-76675000D03*
X111230000Y-79600000D03*
%TD*%
D22*
%TO.C,FID3*%
X116000000Y-58000000D03*
%TD*%
%TO.C,FID5*%
X111200000Y-82200000D03*
%TD*%
D18*
%TO.C,R3*%
X120000000Y-66000000D03*
X117075000Y-66000000D03*
%TD*%
D25*
%TO.C,R7*%
X104837500Y-64800000D03*
X107762500Y-64800000D03*
%TD*%
D23*
%TO.C,Q4*%
X110770000Y-47945000D03*
X112670000Y-47945000D03*
X111720000Y-49820000D03*
%TD*%
D25*
%TO.C,R1*%
X107855000Y-85170000D03*
X110780000Y-85170000D03*
%TD*%
D26*
%TO.C,U1*%
X104850000Y-75050000D03*
X104850000Y-73780000D03*
X104850000Y-72510000D03*
X104850000Y-71240000D03*
X104850000Y-69970000D03*
X104850000Y-68700000D03*
X104850000Y-67430000D03*
X109800000Y-67430000D03*
X109800000Y-68700000D03*
X109800000Y-69970000D03*
X109800000Y-71240000D03*
X109800000Y-72510000D03*
X109800000Y-73780000D03*
X109800000Y-75050000D03*
%TD*%
D21*
%TO.C,Q3*%
X111790000Y-42430000D03*
X111790000Y-44330000D03*
X109915000Y-43380000D03*
%TD*%
D23*
%TO.C,Q5*%
X110460000Y-55715000D03*
X112360000Y-55715000D03*
X111410000Y-57590000D03*
%TD*%
D25*
%TO.C,R6*%
X115605000Y-53690000D03*
X118530000Y-53690000D03*
%TD*%
%TO.C,R4*%
X115620000Y-49920000D03*
X118545000Y-49920000D03*
%TD*%
M02*
