%TF.GenerationSoftware,KiCad,Pcbnew,8.0.6*%
%TF.CreationDate,2025-02-12T14:43:40-05:00*%
%TF.ProjectId,PwrModule,5077724d-6f64-4756-9c65-2e6b69636164,rev?*%
%TF.SameCoordinates,Original*%
%TF.FileFunction,Copper,L2,Inr*%
%TF.FilePolarity,Positive*%
%FSLAX46Y46*%
G04 Gerber Fmt 4.6, Leading zero omitted, Abs format (unit mm)*
G04 Created by KiCad (PCBNEW 8.0.6) date 2025-02-12 14:43:40*
%MOMM*%
%LPD*%
G01*
G04 APERTURE LIST*
G04 Aperture macros list*
%AMRoundRect*
0 Rectangle with rounded corners*
0 $1 Rounding radius*
0 $2 $3 $4 $5 $6 $7 $8 $9 X,Y pos of 4 corners*
0 Add a 4 corners polygon primitive as box body*
4,1,4,$2,$3,$4,$5,$6,$7,$8,$9,$2,$3,0*
0 Add four circle primitives for the rounded corners*
1,1,$1+$1,$2,$3*
1,1,$1+$1,$4,$5*
1,1,$1+$1,$6,$7*
1,1,$1+$1,$8,$9*
0 Add four rect primitives between the rounded corners*
20,1,$1+$1,$2,$3,$4,$5,0*
20,1,$1+$1,$4,$5,$6,$7,0*
20,1,$1+$1,$6,$7,$8,$9,0*
20,1,$1+$1,$8,$9,$2,$3,0*%
G04 Aperture macros list end*
%TA.AperFunction,ComponentPad*%
%ADD10R,1.700000X1.700000*%
%TD*%
%TA.AperFunction,ComponentPad*%
%ADD11O,1.700000X1.700000*%
%TD*%
%TA.AperFunction,ComponentPad*%
%ADD12C,4.500000*%
%TD*%
%TA.AperFunction,ComponentPad*%
%ADD13RoundRect,0.250000X0.600000X0.600000X-0.600000X0.600000X-0.600000X-0.600000X0.600000X-0.600000X0*%
%TD*%
%TA.AperFunction,ComponentPad*%
%ADD14C,1.700000*%
%TD*%
%TA.AperFunction,ViaPad*%
%ADD15C,0.800000*%
%TD*%
%TA.AperFunction,Conductor*%
%ADD16C,0.500000*%
%TD*%
G04 APERTURE END LIST*
D10*
%TO.N,VCC*%
%TO.C,J14*%
X124000000Y-98100000D03*
D11*
X124000000Y-100640000D03*
X121460000Y-98100000D03*
X121460000Y-100640000D03*
%TO.N,GND*%
X118920000Y-98100000D03*
X118920000Y-100640000D03*
X116380000Y-98100000D03*
X116380000Y-100640000D03*
%TD*%
D10*
%TO.N,+5V*%
%TO.C,J11*%
X104050000Y-42975000D03*
D11*
X106590000Y-42975000D03*
X104050000Y-45515000D03*
%TO.N,UPDI*%
X106590000Y-45515000D03*
%TO.N,Net-(J11-Pin_5)*%
X104050000Y-48055000D03*
%TO.N,Net-(J11-Pin_6)*%
X106590000Y-48055000D03*
%TO.N,Red*%
X104050000Y-50595000D03*
%TO.N,Green*%
X106590000Y-50595000D03*
%TO.N,Net-(J11-Pin_9)*%
X104050000Y-53135000D03*
%TO.N,GND*%
X106590000Y-53135000D03*
X104050000Y-55675000D03*
X106590000Y-55675000D03*
%TD*%
D12*
%TO.N,N/C*%
%TO.C,H5*%
X116200000Y-92480000D03*
%TD*%
D13*
%TO.N,VCC_*%
%TO.C,J1*%
X107500000Y-97000000D03*
D14*
%TO.N,Red*%
X104960000Y-97000000D03*
%TO.N,Green*%
X107500000Y-94460000D03*
%TO.N,Blue*%
X104960000Y-94460000D03*
%TO.N,Signal*%
X107500000Y-91920000D03*
%TO.N,GND*%
X104960000Y-91920000D03*
%TD*%
D12*
%TO.N,N/C*%
%TO.C,H1*%
X116200000Y-43480000D03*
%TD*%
D15*
%TO.N,GND*%
X121000000Y-69100000D03*
X115290000Y-51740000D03*
X109170000Y-46870000D03*
X115180000Y-47860000D03*
X107750000Y-80000000D03*
%TO.N,Pwr_off*%
X110330000Y-49740000D03*
X111920000Y-69027171D03*
%TO.N,Pwr_mon*%
X111570000Y-67850000D03*
X111720000Y-59450000D03*
%TO.N,Signal*%
X109650000Y-79450000D03*
X103425000Y-74230001D03*
%TO.N,+5V*%
X115905000Y-81165000D03*
X115905000Y-77815000D03*
X117430000Y-79490000D03*
X118955000Y-81165000D03*
X118955000Y-77815000D03*
%TO.N,Net-(JP1-A)*%
X116400000Y-73850000D03*
X121170000Y-65590000D03*
X115810000Y-68540000D03*
%TO.N,UPDI*%
X111490000Y-69930000D03*
%TO.N,VCC_*%
X110490000Y-64080000D03*
X109740000Y-76650000D03*
%TO.N,Net-(J11-Pin_6)*%
X111680000Y-52630000D03*
%TD*%
D16*
%TO.N,Pwr_off*%
X110330000Y-52482082D02*
X110330000Y-49850000D01*
X112720000Y-54872082D02*
X110330000Y-52482082D01*
X112720000Y-68227171D02*
X112720000Y-54872082D01*
X111920000Y-69027171D02*
X112720000Y-68227171D01*
%TO.N,Red*%
X102500000Y-94540000D02*
X102500000Y-52145000D01*
X102500000Y-52145000D02*
X104050000Y-50595000D01*
X104960000Y-97000000D02*
X102500000Y-94540000D01*
%TO.N,Signal*%
X107500000Y-91920000D02*
X103360000Y-87780000D01*
X103360000Y-87780000D02*
X103360000Y-74295001D01*
X103360000Y-74295001D02*
X103425000Y-74230001D01*
%TO.N,Green*%
X108800000Y-52805000D02*
X106590000Y-50595000D01*
X107500000Y-94460000D02*
X108800000Y-93160000D01*
X108800000Y-93160000D02*
X108800000Y-52805000D01*
%TD*%
M02*
