%TF.GenerationSoftware,KiCad,Pcbnew,8.0.6*%
%TF.CreationDate,2025-02-12T13:55:56-05:00*%
%TF.ProjectId,module led,6d6f6475-6c65-4206-9c65-642e6b696361,rev?*%
%TF.SameCoordinates,Original*%
%TF.FileFunction,Legend,Bot*%
%TF.FilePolarity,Positive*%
%FSLAX46Y46*%
G04 Gerber Fmt 4.6, Leading zero omitted, Abs format (unit mm)*
G04 Created by KiCad (PCBNEW 8.0.6) date 2025-02-12 13:55:56*
%MOMM*%
%LPD*%
G01*
G04 APERTURE LIST*
%ADD10C,0.300000*%
%ADD11C,0.010000*%
G04 APERTURE END LIST*
D10*
X94389003Y-110805489D02*
X95889003Y-110805489D01*
X95889003Y-110805489D02*
X95889003Y-110234060D01*
X95889003Y-110234060D02*
X95817574Y-110091203D01*
X95817574Y-110091203D02*
X95746146Y-110019774D01*
X95746146Y-110019774D02*
X95603289Y-109948346D01*
X95603289Y-109948346D02*
X95389003Y-109948346D01*
X95389003Y-109948346D02*
X95246146Y-110019774D01*
X95246146Y-110019774D02*
X95174717Y-110091203D01*
X95174717Y-110091203D02*
X95103289Y-110234060D01*
X95103289Y-110234060D02*
X95103289Y-110805489D01*
X94389003Y-109305489D02*
X95889003Y-109305489D01*
X95889003Y-109305489D02*
X94389003Y-108448346D01*
X94389003Y-108448346D02*
X95889003Y-108448346D01*
X94531860Y-107734060D02*
X94460432Y-107662631D01*
X94460432Y-107662631D02*
X94389003Y-107734060D01*
X94389003Y-107734060D02*
X94460432Y-107805488D01*
X94460432Y-107805488D02*
X94531860Y-107734060D01*
X94531860Y-107734060D02*
X94389003Y-107734060D01*
X95317574Y-107734060D02*
X95246146Y-107662631D01*
X95246146Y-107662631D02*
X95174717Y-107734060D01*
X95174717Y-107734060D02*
X95246146Y-107805488D01*
X95246146Y-107805488D02*
X95317574Y-107734060D01*
X95317574Y-107734060D02*
X95174717Y-107734060D01*
X94389003Y-105876917D02*
X95889003Y-105876917D01*
X95174717Y-105876917D02*
X95174717Y-105019774D01*
X94389003Y-105019774D02*
X95889003Y-105019774D01*
X95174717Y-103805488D02*
X95103289Y-103591202D01*
X95103289Y-103591202D02*
X95031860Y-103519773D01*
X95031860Y-103519773D02*
X94889003Y-103448345D01*
X94889003Y-103448345D02*
X94674717Y-103448345D01*
X94674717Y-103448345D02*
X94531860Y-103519773D01*
X94531860Y-103519773D02*
X94460432Y-103591202D01*
X94460432Y-103591202D02*
X94389003Y-103734059D01*
X94389003Y-103734059D02*
X94389003Y-104305488D01*
X94389003Y-104305488D02*
X95889003Y-104305488D01*
X95889003Y-104305488D02*
X95889003Y-103805488D01*
X95889003Y-103805488D02*
X95817574Y-103662631D01*
X95817574Y-103662631D02*
X95746146Y-103591202D01*
X95746146Y-103591202D02*
X95603289Y-103519773D01*
X95603289Y-103519773D02*
X95460432Y-103519773D01*
X95460432Y-103519773D02*
X95317574Y-103591202D01*
X95317574Y-103591202D02*
X95246146Y-103662631D01*
X95246146Y-103662631D02*
X95174717Y-103805488D01*
X95174717Y-103805488D02*
X95174717Y-104305488D01*
X94960432Y-102805488D02*
X94960432Y-101662631D01*
X94389003Y-100234059D02*
X94389003Y-100948345D01*
X94389003Y-100948345D02*
X95889003Y-100948345D01*
X95174717Y-99734059D02*
X95174717Y-99234059D01*
X94389003Y-99019773D02*
X94389003Y-99734059D01*
X94389003Y-99734059D02*
X95889003Y-99734059D01*
X95889003Y-99734059D02*
X95889003Y-99019773D01*
X94389003Y-98376916D02*
X95889003Y-98376916D01*
X95889003Y-98376916D02*
X95889003Y-98019773D01*
X95889003Y-98019773D02*
X95817574Y-97805487D01*
X95817574Y-97805487D02*
X95674717Y-97662630D01*
X95674717Y-97662630D02*
X95531860Y-97591201D01*
X95531860Y-97591201D02*
X95246146Y-97519773D01*
X95246146Y-97519773D02*
X95031860Y-97519773D01*
X95031860Y-97519773D02*
X94746146Y-97591201D01*
X94746146Y-97591201D02*
X94603289Y-97662630D01*
X94603289Y-97662630D02*
X94460432Y-97805487D01*
X94460432Y-97805487D02*
X94389003Y-98019773D01*
X94389003Y-98019773D02*
X94389003Y-98376916D01*
X91974087Y-109948346D02*
X92688373Y-110448346D01*
X91974087Y-110805489D02*
X93474087Y-110805489D01*
X93474087Y-110805489D02*
X93474087Y-110234060D01*
X93474087Y-110234060D02*
X93402658Y-110091203D01*
X93402658Y-110091203D02*
X93331230Y-110019774D01*
X93331230Y-110019774D02*
X93188373Y-109948346D01*
X93188373Y-109948346D02*
X92974087Y-109948346D01*
X92974087Y-109948346D02*
X92831230Y-110019774D01*
X92831230Y-110019774D02*
X92759801Y-110091203D01*
X92759801Y-110091203D02*
X92688373Y-110234060D01*
X92688373Y-110234060D02*
X92688373Y-110805489D01*
X92045516Y-108734060D02*
X91974087Y-108876917D01*
X91974087Y-108876917D02*
X91974087Y-109162632D01*
X91974087Y-109162632D02*
X92045516Y-109305489D01*
X92045516Y-109305489D02*
X92188373Y-109376917D01*
X92188373Y-109376917D02*
X92759801Y-109376917D01*
X92759801Y-109376917D02*
X92902658Y-109305489D01*
X92902658Y-109305489D02*
X92974087Y-109162632D01*
X92974087Y-109162632D02*
X92974087Y-108876917D01*
X92974087Y-108876917D02*
X92902658Y-108734060D01*
X92902658Y-108734060D02*
X92759801Y-108662632D01*
X92759801Y-108662632D02*
X92616944Y-108662632D01*
X92616944Y-108662632D02*
X92474087Y-109376917D01*
X92974087Y-108162632D02*
X91974087Y-107805489D01*
X91974087Y-107805489D02*
X92974087Y-107448346D01*
X92116944Y-106876918D02*
X92045516Y-106805489D01*
X92045516Y-106805489D02*
X91974087Y-106876918D01*
X91974087Y-106876918D02*
X92045516Y-106948346D01*
X92045516Y-106948346D02*
X92116944Y-106876918D01*
X92116944Y-106876918D02*
X91974087Y-106876918D01*
X92902658Y-106876918D02*
X92831230Y-106805489D01*
X92831230Y-106805489D02*
X92759801Y-106876918D01*
X92759801Y-106876918D02*
X92831230Y-106948346D01*
X92831230Y-106948346D02*
X92902658Y-106876918D01*
X92902658Y-106876918D02*
X92759801Y-106876918D01*
X91974087Y-104234060D02*
X91974087Y-105091203D01*
X91974087Y-104662632D02*
X93474087Y-104662632D01*
X93474087Y-104662632D02*
X93259801Y-104805489D01*
X93259801Y-104805489D02*
X93116944Y-104948346D01*
X93116944Y-104948346D02*
X93045516Y-105091203D01*
X92116944Y-103591204D02*
X92045516Y-103519775D01*
X92045516Y-103519775D02*
X91974087Y-103591204D01*
X91974087Y-103591204D02*
X92045516Y-103662632D01*
X92045516Y-103662632D02*
X92116944Y-103591204D01*
X92116944Y-103591204D02*
X91974087Y-103591204D01*
X93474087Y-102591203D02*
X93474087Y-102448346D01*
X93474087Y-102448346D02*
X93402658Y-102305489D01*
X93402658Y-102305489D02*
X93331230Y-102234061D01*
X93331230Y-102234061D02*
X93188373Y-102162632D01*
X93188373Y-102162632D02*
X92902658Y-102091203D01*
X92902658Y-102091203D02*
X92545516Y-102091203D01*
X92545516Y-102091203D02*
X92259801Y-102162632D01*
X92259801Y-102162632D02*
X92116944Y-102234061D01*
X92116944Y-102234061D02*
X92045516Y-102305489D01*
X92045516Y-102305489D02*
X91974087Y-102448346D01*
X91974087Y-102448346D02*
X91974087Y-102591203D01*
X91974087Y-102591203D02*
X92045516Y-102734061D01*
X92045516Y-102734061D02*
X92116944Y-102805489D01*
X92116944Y-102805489D02*
X92259801Y-102876918D01*
X92259801Y-102876918D02*
X92545516Y-102948346D01*
X92545516Y-102948346D02*
X92902658Y-102948346D01*
X92902658Y-102948346D02*
X93188373Y-102876918D01*
X93188373Y-102876918D02*
X93331230Y-102805489D01*
X93331230Y-102805489D02*
X93402658Y-102734061D01*
X93402658Y-102734061D02*
X93474087Y-102591203D01*
X89559171Y-110019774D02*
X89559171Y-110876917D01*
X89559171Y-110448346D02*
X91059171Y-110448346D01*
X91059171Y-110448346D02*
X90844885Y-110591203D01*
X90844885Y-110591203D02*
X90702028Y-110734060D01*
X90702028Y-110734060D02*
X90630600Y-110876917D01*
X89559171Y-108591203D02*
X89559171Y-109448346D01*
X89559171Y-109019775D02*
X91059171Y-109019775D01*
X91059171Y-109019775D02*
X90844885Y-109162632D01*
X90844885Y-109162632D02*
X90702028Y-109305489D01*
X90702028Y-109305489D02*
X90630600Y-109448346D01*
X91059171Y-107662632D02*
X91059171Y-107519775D01*
X91059171Y-107519775D02*
X90987742Y-107376918D01*
X90987742Y-107376918D02*
X90916314Y-107305490D01*
X90916314Y-107305490D02*
X90773457Y-107234061D01*
X90773457Y-107234061D02*
X90487742Y-107162632D01*
X90487742Y-107162632D02*
X90130600Y-107162632D01*
X90130600Y-107162632D02*
X89844885Y-107234061D01*
X89844885Y-107234061D02*
X89702028Y-107305490D01*
X89702028Y-107305490D02*
X89630600Y-107376918D01*
X89630600Y-107376918D02*
X89559171Y-107519775D01*
X89559171Y-107519775D02*
X89559171Y-107662632D01*
X89559171Y-107662632D02*
X89630600Y-107805490D01*
X89630600Y-107805490D02*
X89702028Y-107876918D01*
X89702028Y-107876918D02*
X89844885Y-107948347D01*
X89844885Y-107948347D02*
X90130600Y-108019775D01*
X90130600Y-108019775D02*
X90487742Y-108019775D01*
X90487742Y-108019775D02*
X90773457Y-107948347D01*
X90773457Y-107948347D02*
X90916314Y-107876918D01*
X90916314Y-107876918D02*
X90987742Y-107805490D01*
X90987742Y-107805490D02*
X91059171Y-107662632D01*
X90916314Y-106591204D02*
X90987742Y-106519776D01*
X90987742Y-106519776D02*
X91059171Y-106376919D01*
X91059171Y-106376919D02*
X91059171Y-106019776D01*
X91059171Y-106019776D02*
X90987742Y-105876919D01*
X90987742Y-105876919D02*
X90916314Y-105805490D01*
X90916314Y-105805490D02*
X90773457Y-105734061D01*
X90773457Y-105734061D02*
X90630600Y-105734061D01*
X90630600Y-105734061D02*
X90416314Y-105805490D01*
X90416314Y-105805490D02*
X89559171Y-106662633D01*
X89559171Y-106662633D02*
X89559171Y-105734061D01*
X90916314Y-105162633D02*
X90987742Y-105091205D01*
X90987742Y-105091205D02*
X91059171Y-104948348D01*
X91059171Y-104948348D02*
X91059171Y-104591205D01*
X91059171Y-104591205D02*
X90987742Y-104448348D01*
X90987742Y-104448348D02*
X90916314Y-104376919D01*
X90916314Y-104376919D02*
X90773457Y-104305490D01*
X90773457Y-104305490D02*
X90630600Y-104305490D01*
X90630600Y-104305490D02*
X90416314Y-104376919D01*
X90416314Y-104376919D02*
X89559171Y-105234062D01*
X89559171Y-105234062D02*
X89559171Y-104305490D01*
X91059171Y-103376919D02*
X91059171Y-103234062D01*
X91059171Y-103234062D02*
X90987742Y-103091205D01*
X90987742Y-103091205D02*
X90916314Y-103019777D01*
X90916314Y-103019777D02*
X90773457Y-102948348D01*
X90773457Y-102948348D02*
X90487742Y-102876919D01*
X90487742Y-102876919D02*
X90130600Y-102876919D01*
X90130600Y-102876919D02*
X89844885Y-102948348D01*
X89844885Y-102948348D02*
X89702028Y-103019777D01*
X89702028Y-103019777D02*
X89630600Y-103091205D01*
X89630600Y-103091205D02*
X89559171Y-103234062D01*
X89559171Y-103234062D02*
X89559171Y-103376919D01*
X89559171Y-103376919D02*
X89630600Y-103519777D01*
X89630600Y-103519777D02*
X89702028Y-103591205D01*
X89702028Y-103591205D02*
X89844885Y-103662634D01*
X89844885Y-103662634D02*
X90130600Y-103734062D01*
X90130600Y-103734062D02*
X90487742Y-103734062D01*
X90487742Y-103734062D02*
X90773457Y-103662634D01*
X90773457Y-103662634D02*
X90916314Y-103591205D01*
X90916314Y-103591205D02*
X90987742Y-103519777D01*
X90987742Y-103519777D02*
X91059171Y-103376919D01*
X90916314Y-102305491D02*
X90987742Y-102234063D01*
X90987742Y-102234063D02*
X91059171Y-102091206D01*
X91059171Y-102091206D02*
X91059171Y-101734063D01*
X91059171Y-101734063D02*
X90987742Y-101591206D01*
X90987742Y-101591206D02*
X90916314Y-101519777D01*
X90916314Y-101519777D02*
X90773457Y-101448348D01*
X90773457Y-101448348D02*
X90630600Y-101448348D01*
X90630600Y-101448348D02*
X90416314Y-101519777D01*
X90416314Y-101519777D02*
X89559171Y-102376920D01*
X89559171Y-102376920D02*
X89559171Y-101448348D01*
X91059171Y-100091206D02*
X91059171Y-100805492D01*
X91059171Y-100805492D02*
X90344885Y-100876920D01*
X90344885Y-100876920D02*
X90416314Y-100805492D01*
X90416314Y-100805492D02*
X90487742Y-100662635D01*
X90487742Y-100662635D02*
X90487742Y-100305492D01*
X90487742Y-100305492D02*
X90416314Y-100162635D01*
X90416314Y-100162635D02*
X90344885Y-100091206D01*
X90344885Y-100091206D02*
X90202028Y-100019777D01*
X90202028Y-100019777D02*
X89844885Y-100019777D01*
X89844885Y-100019777D02*
X89702028Y-100091206D01*
X89702028Y-100091206D02*
X89630600Y-100162635D01*
X89630600Y-100162635D02*
X89559171Y-100305492D01*
X89559171Y-100305492D02*
X89559171Y-100662635D01*
X89559171Y-100662635D02*
X89630600Y-100805492D01*
X89630600Y-100805492D02*
X89702028Y-100876920D01*
X89559171Y-99376921D02*
X91059171Y-99376921D01*
X91059171Y-99376921D02*
X91059171Y-99019778D01*
X91059171Y-99019778D02*
X90987742Y-98805492D01*
X90987742Y-98805492D02*
X90844885Y-98662635D01*
X90844885Y-98662635D02*
X90702028Y-98591206D01*
X90702028Y-98591206D02*
X90416314Y-98519778D01*
X90416314Y-98519778D02*
X90202028Y-98519778D01*
X90202028Y-98519778D02*
X89916314Y-98591206D01*
X89916314Y-98591206D02*
X89773457Y-98662635D01*
X89773457Y-98662635D02*
X89630600Y-98805492D01*
X89630600Y-98805492D02*
X89559171Y-99019778D01*
X89559171Y-99019778D02*
X89559171Y-99376921D01*
X89559171Y-97876921D02*
X91059171Y-97876921D01*
X91059171Y-97876921D02*
X91059171Y-97519778D01*
X91059171Y-97519778D02*
X90987742Y-97305492D01*
X90987742Y-97305492D02*
X90844885Y-97162635D01*
X90844885Y-97162635D02*
X90702028Y-97091206D01*
X90702028Y-97091206D02*
X90416314Y-97019778D01*
X90416314Y-97019778D02*
X90202028Y-97019778D01*
X90202028Y-97019778D02*
X89916314Y-97091206D01*
X89916314Y-97091206D02*
X89773457Y-97162635D01*
X89773457Y-97162635D02*
X89630600Y-97305492D01*
X89630600Y-97305492D02*
X89559171Y-97519778D01*
X89559171Y-97519778D02*
X89559171Y-97876921D01*
X109757971Y-98184510D02*
X109829400Y-98255939D01*
X109829400Y-98255939D02*
X109900828Y-98184510D01*
X109900828Y-98184510D02*
X109829400Y-98113082D01*
X109829400Y-98113082D02*
X109757971Y-98184510D01*
X109757971Y-98184510D02*
X109900828Y-98184510D01*
X109757971Y-99755939D02*
X109829400Y-99684511D01*
X109829400Y-99684511D02*
X109900828Y-99470225D01*
X109900828Y-99470225D02*
X109900828Y-99327368D01*
X109900828Y-99327368D02*
X109829400Y-99113082D01*
X109829400Y-99113082D02*
X109686542Y-98970225D01*
X109686542Y-98970225D02*
X109543685Y-98898796D01*
X109543685Y-98898796D02*
X109257971Y-98827368D01*
X109257971Y-98827368D02*
X109043685Y-98827368D01*
X109043685Y-98827368D02*
X108757971Y-98898796D01*
X108757971Y-98898796D02*
X108615114Y-98970225D01*
X108615114Y-98970225D02*
X108472257Y-99113082D01*
X108472257Y-99113082D02*
X108400828Y-99327368D01*
X108400828Y-99327368D02*
X108400828Y-99470225D01*
X108400828Y-99470225D02*
X108472257Y-99684511D01*
X108472257Y-99684511D02*
X108543685Y-99755939D01*
X109472257Y-100327368D02*
X109472257Y-101041654D01*
X109900828Y-100184511D02*
X108400828Y-100684511D01*
X108400828Y-100684511D02*
X109900828Y-101184511D01*
D11*
%TO.C,logo1*%
X110093200Y-85842400D02*
X103590800Y-85842400D01*
X103590800Y-84826400D01*
X110093200Y-84826400D01*
X110093200Y-85842400D01*
G36*
X110093200Y-85842400D02*
G01*
X103590800Y-85842400D01*
X103590800Y-84826400D01*
X110093200Y-84826400D01*
X110093200Y-85842400D01*
G37*
X99269706Y-86754410D02*
X99384327Y-86841534D01*
X99550378Y-87031294D01*
X99748243Y-87345528D01*
X99918473Y-87715570D01*
X100049700Y-88115833D01*
X100130555Y-88520733D01*
X100146406Y-88671284D01*
X100148811Y-89180099D01*
X100078197Y-89685582D01*
X99940155Y-90166550D01*
X99740274Y-90601817D01*
X99484147Y-90970197D01*
X99462747Y-90994553D01*
X99334213Y-91117456D01*
X99246799Y-91165176D01*
X99211492Y-91142620D01*
X99239280Y-91054696D01*
X99341149Y-90906314D01*
X99390395Y-90842833D01*
X99526757Y-90649694D01*
X99642116Y-90465200D01*
X99735435Y-90283212D01*
X99899866Y-89818962D01*
X99986458Y-89321983D01*
X99996927Y-88810380D01*
X99932986Y-88302257D01*
X99796353Y-87815716D01*
X99588741Y-87368862D01*
X99311867Y-86979798D01*
X99256364Y-86910234D01*
X99198700Y-86802166D01*
X99205489Y-86745756D01*
X99269706Y-86754410D01*
G36*
X99269706Y-86754410D02*
G01*
X99384327Y-86841534D01*
X99550378Y-87031294D01*
X99748243Y-87345528D01*
X99918473Y-87715570D01*
X100049700Y-88115833D01*
X100130555Y-88520733D01*
X100146406Y-88671284D01*
X100148811Y-89180099D01*
X100078197Y-89685582D01*
X99940155Y-90166550D01*
X99740274Y-90601817D01*
X99484147Y-90970197D01*
X99462747Y-90994553D01*
X99334213Y-91117456D01*
X99246799Y-91165176D01*
X99211492Y-91142620D01*
X99239280Y-91054696D01*
X99341149Y-90906314D01*
X99390395Y-90842833D01*
X99526757Y-90649694D01*
X99642116Y-90465200D01*
X99735435Y-90283212D01*
X99899866Y-89818962D01*
X99986458Y-89321983D01*
X99996927Y-88810380D01*
X99932986Y-88302257D01*
X99796353Y-87815716D01*
X99588741Y-87368862D01*
X99311867Y-86979798D01*
X99256364Y-86910234D01*
X99198700Y-86802166D01*
X99205489Y-86745756D01*
X99269706Y-86754410D01*
G37*
X98844148Y-87283701D02*
X98971783Y-87409589D01*
X99013085Y-87458061D01*
X99205061Y-87737724D01*
X99366377Y-88057278D01*
X99471147Y-88367082D01*
X99474461Y-88382198D01*
X99496628Y-88538517D01*
X99513517Y-88749497D01*
X99521697Y-88973948D01*
X99521869Y-88992778D01*
X99480042Y-89480884D01*
X99346018Y-89931789D01*
X99116180Y-90357834D01*
X99050711Y-90454851D01*
X98943997Y-90603001D01*
X98869792Y-90683447D01*
X98814412Y-90709236D01*
X98764173Y-90693412D01*
X98756809Y-90664947D01*
X98797024Y-90574396D01*
X98889794Y-90445565D01*
X99007055Y-90285076D01*
X99198177Y-89926854D01*
X99333941Y-89532269D01*
X99404862Y-89132585D01*
X99401456Y-88759065D01*
X99368648Y-88547749D01*
X99263675Y-88162669D01*
X99095131Y-87810449D01*
X98847829Y-87455319D01*
X98764050Y-87336006D01*
X98730332Y-87250581D01*
X98760348Y-87231922D01*
X98844148Y-87283701D01*
G36*
X98844148Y-87283701D02*
G01*
X98971783Y-87409589D01*
X99013085Y-87458061D01*
X99205061Y-87737724D01*
X99366377Y-88057278D01*
X99471147Y-88367082D01*
X99474461Y-88382198D01*
X99496628Y-88538517D01*
X99513517Y-88749497D01*
X99521697Y-88973948D01*
X99521869Y-88992778D01*
X99480042Y-89480884D01*
X99346018Y-89931789D01*
X99116180Y-90357834D01*
X99050711Y-90454851D01*
X98943997Y-90603001D01*
X98869792Y-90683447D01*
X98814412Y-90709236D01*
X98764173Y-90693412D01*
X98756809Y-90664947D01*
X98797024Y-90574396D01*
X98889794Y-90445565D01*
X99007055Y-90285076D01*
X99198177Y-89926854D01*
X99333941Y-89532269D01*
X99404862Y-89132585D01*
X99401456Y-88759065D01*
X99368648Y-88547749D01*
X99263675Y-88162669D01*
X99095131Y-87810449D01*
X98847829Y-87455319D01*
X98764050Y-87336006D01*
X98730332Y-87250581D01*
X98760348Y-87231922D01*
X98844148Y-87283701D01*
G37*
X99781320Y-86316658D02*
X99901780Y-86404581D01*
X100057069Y-86560848D01*
X100217268Y-86765245D01*
X100426963Y-87115375D01*
X100607668Y-87514597D01*
X100744099Y-87932393D01*
X100789202Y-88139824D01*
X100830288Y-88481597D01*
X100844802Y-88894973D01*
X100834611Y-89266512D01*
X100772770Y-89758633D01*
X100649236Y-90213353D01*
X100457386Y-90660861D01*
X100378290Y-90805960D01*
X100243286Y-91018300D01*
X100098107Y-91215461D01*
X99957670Y-91379057D01*
X99836893Y-91490699D01*
X99750692Y-91532000D01*
X99697499Y-91521210D01*
X99689386Y-91472310D01*
X99749883Y-91375331D01*
X99882967Y-91220920D01*
X99946872Y-91146455D01*
X100141389Y-90866810D01*
X100325258Y-90530527D01*
X100481601Y-90170861D01*
X100593536Y-89821066D01*
X100654186Y-89501775D01*
X100690930Y-89038547D01*
X100679092Y-88563002D01*
X100618042Y-88119021D01*
X100570699Y-87929925D01*
X100446534Y-87575249D01*
X100284579Y-87224263D01*
X100100625Y-86909452D01*
X99910462Y-86663301D01*
X99796920Y-86534364D01*
X99711758Y-86422338D01*
X99679200Y-86357831D01*
X99704299Y-86301704D01*
X99781320Y-86316658D01*
G36*
X99781320Y-86316658D02*
G01*
X99901780Y-86404581D01*
X100057069Y-86560848D01*
X100217268Y-86765245D01*
X100426963Y-87115375D01*
X100607668Y-87514597D01*
X100744099Y-87932393D01*
X100789202Y-88139824D01*
X100830288Y-88481597D01*
X100844802Y-88894973D01*
X100834611Y-89266512D01*
X100772770Y-89758633D01*
X100649236Y-90213353D01*
X100457386Y-90660861D01*
X100378290Y-90805960D01*
X100243286Y-91018300D01*
X100098107Y-91215461D01*
X99957670Y-91379057D01*
X99836893Y-91490699D01*
X99750692Y-91532000D01*
X99697499Y-91521210D01*
X99689386Y-91472310D01*
X99749883Y-91375331D01*
X99882967Y-91220920D01*
X99946872Y-91146455D01*
X100141389Y-90866810D01*
X100325258Y-90530527D01*
X100481601Y-90170861D01*
X100593536Y-89821066D01*
X100654186Y-89501775D01*
X100690930Y-89038547D01*
X100679092Y-88563002D01*
X100618042Y-88119021D01*
X100570699Y-87929925D01*
X100446534Y-87575249D01*
X100284579Y-87224263D01*
X100100625Y-86909452D01*
X99910462Y-86663301D01*
X99796920Y-86534364D01*
X99711758Y-86422338D01*
X99679200Y-86357831D01*
X99704299Y-86301704D01*
X99781320Y-86316658D01*
G37*
X97808159Y-82353474D02*
X97805778Y-82422770D01*
X97802794Y-82675066D01*
X97814569Y-82868004D01*
X97844596Y-83035549D01*
X97896363Y-83211666D01*
X97938034Y-83332045D01*
X97991872Y-83464029D01*
X98057663Y-83589189D01*
X98148381Y-83728990D01*
X98276999Y-83904897D01*
X98456490Y-84138372D01*
X98570838Y-84301724D01*
X98692312Y-84509657D01*
X98775007Y-84690788D01*
X98810022Y-84819932D01*
X98844568Y-85055630D01*
X98860784Y-85325879D01*
X98859098Y-85603710D01*
X98839936Y-85862151D01*
X98803727Y-86074232D01*
X98750897Y-86212982D01*
X98691687Y-86291876D01*
X98620646Y-86346330D01*
X98585458Y-86319208D01*
X98598732Y-86210700D01*
X98605576Y-86179136D01*
X98622005Y-86036408D01*
X98633394Y-85837003D01*
X98637600Y-85613800D01*
X98634175Y-85425184D01*
X98612888Y-85184607D01*
X98564490Y-84970617D01*
X98480287Y-84763281D01*
X98351587Y-84542665D01*
X98169695Y-84288833D01*
X97925919Y-83981851D01*
X97845540Y-83866603D01*
X97723551Y-83610937D01*
X97632190Y-83311769D01*
X97573776Y-82991566D01*
X97550631Y-82672799D01*
X97565077Y-82377936D01*
X97619433Y-82129446D01*
X97716021Y-81949797D01*
X97827917Y-81819710D01*
X97808159Y-82353474D01*
G36*
X97808159Y-82353474D02*
G01*
X97805778Y-82422770D01*
X97802794Y-82675066D01*
X97814569Y-82868004D01*
X97844596Y-83035549D01*
X97896363Y-83211666D01*
X97938034Y-83332045D01*
X97991872Y-83464029D01*
X98057663Y-83589189D01*
X98148381Y-83728990D01*
X98276999Y-83904897D01*
X98456490Y-84138372D01*
X98570838Y-84301724D01*
X98692312Y-84509657D01*
X98775007Y-84690788D01*
X98810022Y-84819932D01*
X98844568Y-85055630D01*
X98860784Y-85325879D01*
X98859098Y-85603710D01*
X98839936Y-85862151D01*
X98803727Y-86074232D01*
X98750897Y-86212982D01*
X98691687Y-86291876D01*
X98620646Y-86346330D01*
X98585458Y-86319208D01*
X98598732Y-86210700D01*
X98605576Y-86179136D01*
X98622005Y-86036408D01*
X98633394Y-85837003D01*
X98637600Y-85613800D01*
X98634175Y-85425184D01*
X98612888Y-85184607D01*
X98564490Y-84970617D01*
X98480287Y-84763281D01*
X98351587Y-84542665D01*
X98169695Y-84288833D01*
X97925919Y-83981851D01*
X97845540Y-83866603D01*
X97723551Y-83610937D01*
X97632190Y-83311769D01*
X97573776Y-82991566D01*
X97550631Y-82672799D01*
X97565077Y-82377936D01*
X97619433Y-82129446D01*
X97716021Y-81949797D01*
X97827917Y-81819710D01*
X97808159Y-82353474D01*
G37*
X98655992Y-91604068D02*
X98743834Y-91712216D01*
X98814404Y-91858068D01*
X98828573Y-91934262D01*
X98842634Y-92105481D01*
X98849425Y-92328145D01*
X98847607Y-92573400D01*
X98845872Y-92631301D01*
X98824478Y-92955393D01*
X98778037Y-93212205D01*
X98696194Y-93430733D01*
X98568593Y-93639972D01*
X98384875Y-93868919D01*
X98264321Y-94022649D01*
X98107674Y-94256731D01*
X97983977Y-94478400D01*
X97935038Y-94582288D01*
X97883563Y-94708699D01*
X97851270Y-94830114D01*
X97833710Y-94973179D01*
X97826436Y-95164540D01*
X97825000Y-95430846D01*
X97823113Y-95655368D01*
X97813556Y-95867493D01*
X97793672Y-95989021D01*
X97760976Y-96026114D01*
X97712980Y-95984935D01*
X97647200Y-95871648D01*
X97645644Y-95868557D01*
X97601629Y-95715430D01*
X97576541Y-95492108D01*
X97570114Y-95227335D01*
X97582082Y-94949855D01*
X97612180Y-94688412D01*
X97660141Y-94471749D01*
X97722844Y-94313630D01*
X97844653Y-94085562D01*
X97989760Y-93869969D01*
X97994861Y-93863301D01*
X98214573Y-93566361D01*
X98375592Y-93323233D01*
X98488638Y-93114139D01*
X98564431Y-92919301D01*
X98613694Y-92718941D01*
X98631893Y-92599480D01*
X98650300Y-92269116D01*
X98632430Y-91929619D01*
X98579921Y-91633600D01*
X98560095Y-91549719D01*
X98578883Y-91539780D01*
X98655992Y-91604068D01*
G36*
X98655992Y-91604068D02*
G01*
X98743834Y-91712216D01*
X98814404Y-91858068D01*
X98828573Y-91934262D01*
X98842634Y-92105481D01*
X98849425Y-92328145D01*
X98847607Y-92573400D01*
X98845872Y-92631301D01*
X98824478Y-92955393D01*
X98778037Y-93212205D01*
X98696194Y-93430733D01*
X98568593Y-93639972D01*
X98384875Y-93868919D01*
X98264321Y-94022649D01*
X98107674Y-94256731D01*
X97983977Y-94478400D01*
X97935038Y-94582288D01*
X97883563Y-94708699D01*
X97851270Y-94830114D01*
X97833710Y-94973179D01*
X97826436Y-95164540D01*
X97825000Y-95430846D01*
X97823113Y-95655368D01*
X97813556Y-95867493D01*
X97793672Y-95989021D01*
X97760976Y-96026114D01*
X97712980Y-95984935D01*
X97647200Y-95871648D01*
X97645644Y-95868557D01*
X97601629Y-95715430D01*
X97576541Y-95492108D01*
X97570114Y-95227335D01*
X97582082Y-94949855D01*
X97612180Y-94688412D01*
X97660141Y-94471749D01*
X97722844Y-94313630D01*
X97844653Y-94085562D01*
X97989760Y-93869969D01*
X97994861Y-93863301D01*
X98214573Y-93566361D01*
X98375592Y-93323233D01*
X98488638Y-93114139D01*
X98564431Y-92919301D01*
X98613694Y-92718941D01*
X98631893Y-92599480D01*
X98650300Y-92269116D01*
X98632430Y-91929619D01*
X98579921Y-91633600D01*
X98560095Y-91549719D01*
X98578883Y-91539780D01*
X98655992Y-91604068D01*
G37*
X100712616Y-85360835D02*
X100823903Y-85458577D01*
X100987579Y-85622106D01*
X101355459Y-86063916D01*
X101679579Y-86601635D01*
X101935614Y-87207316D01*
X102120265Y-87874400D01*
X102203994Y-88439114D01*
X102221394Y-89103483D01*
X102160023Y-89775156D01*
X102023191Y-90432898D01*
X101814206Y-91055472D01*
X101536378Y-91621643D01*
X101490348Y-91696265D01*
X101360985Y-91881803D01*
X101210768Y-92073817D01*
X101055534Y-92254375D01*
X100911124Y-92405545D01*
X100793375Y-92509397D01*
X100718126Y-92548000D01*
X100687995Y-92546255D01*
X100629450Y-92511365D01*
X100645514Y-92428205D01*
X100738138Y-92292186D01*
X100909274Y-92098722D01*
X101160951Y-91792617D01*
X101440090Y-91347456D01*
X101674218Y-90849212D01*
X101849782Y-90323466D01*
X101883431Y-90193166D01*
X101926133Y-90000336D01*
X101954949Y-89813145D01*
X101972675Y-89604793D01*
X101982107Y-89348478D01*
X101986040Y-89017400D01*
X101986141Y-88868743D01*
X101974312Y-88430934D01*
X101940294Y-88057709D01*
X101879531Y-87721628D01*
X101787467Y-87395251D01*
X101659545Y-87051137D01*
X101627949Y-86975067D01*
X101415117Y-86539507D01*
X101159658Y-86149955D01*
X100835345Y-85765502D01*
X100731542Y-85652482D01*
X100614664Y-85516832D01*
X100554801Y-85428548D01*
X100542655Y-85372559D01*
X100568925Y-85333797D01*
X100587413Y-85321533D01*
X100638768Y-85318585D01*
X100712616Y-85360835D01*
G36*
X100712616Y-85360835D02*
G01*
X100823903Y-85458577D01*
X100987579Y-85622106D01*
X101355459Y-86063916D01*
X101679579Y-86601635D01*
X101935614Y-87207316D01*
X102120265Y-87874400D01*
X102203994Y-88439114D01*
X102221394Y-89103483D01*
X102160023Y-89775156D01*
X102023191Y-90432898D01*
X101814206Y-91055472D01*
X101536378Y-91621643D01*
X101490348Y-91696265D01*
X101360985Y-91881803D01*
X101210768Y-92073817D01*
X101055534Y-92254375D01*
X100911124Y-92405545D01*
X100793375Y-92509397D01*
X100718126Y-92548000D01*
X100687995Y-92546255D01*
X100629450Y-92511365D01*
X100645514Y-92428205D01*
X100738138Y-92292186D01*
X100909274Y-92098722D01*
X101160951Y-91792617D01*
X101440090Y-91347456D01*
X101674218Y-90849212D01*
X101849782Y-90323466D01*
X101883431Y-90193166D01*
X101926133Y-90000336D01*
X101954949Y-89813145D01*
X101972675Y-89604793D01*
X101982107Y-89348478D01*
X101986040Y-89017400D01*
X101986141Y-88868743D01*
X101974312Y-88430934D01*
X101940294Y-88057709D01*
X101879531Y-87721628D01*
X101787467Y-87395251D01*
X101659545Y-87051137D01*
X101627949Y-86975067D01*
X101415117Y-86539507D01*
X101159658Y-86149955D01*
X100835345Y-85765502D01*
X100731542Y-85652482D01*
X100614664Y-85516832D01*
X100554801Y-85428548D01*
X100542655Y-85372559D01*
X100568925Y-85333797D01*
X100587413Y-85321533D01*
X100638768Y-85318585D01*
X100712616Y-85360835D01*
G37*
X100197638Y-85808683D02*
X100307349Y-85890377D01*
X100448361Y-86023139D01*
X100602976Y-86188729D01*
X100753493Y-86368907D01*
X100882213Y-86545431D01*
X100934273Y-86626153D01*
X101124840Y-86973487D01*
X101282256Y-87359692D01*
X101414008Y-87805489D01*
X101527583Y-88331600D01*
X101527747Y-88332495D01*
X101535555Y-88432818D01*
X101539475Y-88609569D01*
X101539275Y-88838059D01*
X101534723Y-89093600D01*
X101500794Y-89615626D01*
X101422628Y-90079900D01*
X101292918Y-90513271D01*
X101104219Y-90947800D01*
X101093273Y-90969709D01*
X100949404Y-91228275D01*
X100788902Y-91472665D01*
X100622821Y-91690474D01*
X100462220Y-91869296D01*
X100318155Y-91996725D01*
X100201682Y-92060354D01*
X100123859Y-92047779D01*
X100114932Y-92034529D01*
X100125478Y-91969580D01*
X100200167Y-91861133D01*
X100345890Y-91698342D01*
X100385796Y-91655614D01*
X100699765Y-91261137D01*
X100953017Y-90820268D01*
X101160276Y-90307870D01*
X101202563Y-90181755D01*
X101251391Y-90022271D01*
X101284982Y-89878564D01*
X101306296Y-89727159D01*
X101318292Y-89544579D01*
X101323929Y-89307351D01*
X101326167Y-88992000D01*
X101325919Y-88768785D01*
X101316574Y-88411357D01*
X101291090Y-88115368D01*
X101244094Y-87854771D01*
X101170210Y-87603518D01*
X101064065Y-87335560D01*
X100920282Y-87024849D01*
X100910366Y-87004425D01*
X100669585Y-86582834D01*
X100389923Y-86230976D01*
X100329463Y-86165594D01*
X100180024Y-85992067D01*
X100102820Y-85876294D01*
X100094257Y-85811673D01*
X100150741Y-85791600D01*
X100197638Y-85808683D01*
G36*
X100197638Y-85808683D02*
G01*
X100307349Y-85890377D01*
X100448361Y-86023139D01*
X100602976Y-86188729D01*
X100753493Y-86368907D01*
X100882213Y-86545431D01*
X100934273Y-86626153D01*
X101124840Y-86973487D01*
X101282256Y-87359692D01*
X101414008Y-87805489D01*
X101527583Y-88331600D01*
X101527747Y-88332495D01*
X101535555Y-88432818D01*
X101539475Y-88609569D01*
X101539275Y-88838059D01*
X101534723Y-89093600D01*
X101500794Y-89615626D01*
X101422628Y-90079900D01*
X101292918Y-90513271D01*
X101104219Y-90947800D01*
X101093273Y-90969709D01*
X100949404Y-91228275D01*
X100788902Y-91472665D01*
X100622821Y-91690474D01*
X100462220Y-91869296D01*
X100318155Y-91996725D01*
X100201682Y-92060354D01*
X100123859Y-92047779D01*
X100114932Y-92034529D01*
X100125478Y-91969580D01*
X100200167Y-91861133D01*
X100345890Y-91698342D01*
X100385796Y-91655614D01*
X100699765Y-91261137D01*
X100953017Y-90820268D01*
X101160276Y-90307870D01*
X101202563Y-90181755D01*
X101251391Y-90022271D01*
X101284982Y-89878564D01*
X101306296Y-89727159D01*
X101318292Y-89544579D01*
X101323929Y-89307351D01*
X101326167Y-88992000D01*
X101325919Y-88768785D01*
X101316574Y-88411357D01*
X101291090Y-88115368D01*
X101244094Y-87854771D01*
X101170210Y-87603518D01*
X101064065Y-87335560D01*
X100920282Y-87024849D01*
X100910366Y-87004425D01*
X100669585Y-86582834D01*
X100389923Y-86230976D01*
X100329463Y-86165594D01*
X100180024Y-85992067D01*
X100102820Y-85876294D01*
X100094257Y-85811673D01*
X100150741Y-85791600D01*
X100197638Y-85808683D01*
G37*
X107692699Y-86706000D02*
X110093200Y-86706000D01*
X110093200Y-87585779D01*
X110093184Y-87616872D01*
X110088696Y-88018794D01*
X110073553Y-88337009D01*
X110043868Y-88588064D01*
X109995756Y-88788509D01*
X109925331Y-88954890D01*
X109828706Y-89103755D01*
X109701996Y-89251653D01*
X109585658Y-89362182D01*
X109381955Y-89519982D01*
X109185126Y-89639081D01*
X108899400Y-89779400D01*
X106842000Y-89779400D01*
X106324045Y-89778713D01*
X105862429Y-89776311D01*
X105486205Y-89771938D01*
X105187012Y-89765345D01*
X104956491Y-89756277D01*
X104786284Y-89744485D01*
X104668032Y-89729717D01*
X104593374Y-89711721D01*
X104474175Y-89661009D01*
X104197519Y-89481351D01*
X103948152Y-89237315D01*
X103754342Y-88954415D01*
X103590800Y-88647578D01*
X103590800Y-88002468D01*
X104564258Y-88002468D01*
X104591573Y-88309191D01*
X104690389Y-88552298D01*
X104858221Y-88725200D01*
X105033442Y-88843116D01*
X106901996Y-88828658D01*
X108770551Y-88814200D01*
X108935587Y-88649110D01*
X108960591Y-88623751D01*
X109037291Y-88532890D01*
X109082117Y-88437462D01*
X109105992Y-88305126D01*
X109119838Y-88103536D01*
X109123486Y-88019800D01*
X109123521Y-87840621D01*
X109106408Y-87738656D01*
X109070025Y-87696571D01*
X109040397Y-87693110D01*
X108917386Y-87688439D01*
X108710366Y-87684755D01*
X108430081Y-87682123D01*
X108087277Y-87680603D01*
X107692699Y-87680258D01*
X107257091Y-87681151D01*
X106791200Y-87683345D01*
X104581400Y-87696600D01*
X104566424Y-87952352D01*
X104564258Y-88002468D01*
X103590800Y-88002468D01*
X103590800Y-86706000D01*
X107692699Y-86706000D01*
G36*
X107692699Y-86706000D02*
G01*
X110093200Y-86706000D01*
X110093200Y-87585779D01*
X110093184Y-87616872D01*
X110088696Y-88018794D01*
X110073553Y-88337009D01*
X110043868Y-88588064D01*
X109995756Y-88788509D01*
X109925331Y-88954890D01*
X109828706Y-89103755D01*
X109701996Y-89251653D01*
X109585658Y-89362182D01*
X109381955Y-89519982D01*
X109185126Y-89639081D01*
X108899400Y-89779400D01*
X106842000Y-89779400D01*
X106324045Y-89778713D01*
X105862429Y-89776311D01*
X105486205Y-89771938D01*
X105187012Y-89765345D01*
X104956491Y-89756277D01*
X104786284Y-89744485D01*
X104668032Y-89729717D01*
X104593374Y-89711721D01*
X104474175Y-89661009D01*
X104197519Y-89481351D01*
X103948152Y-89237315D01*
X103754342Y-88954415D01*
X103590800Y-88647578D01*
X103590800Y-88002468D01*
X104564258Y-88002468D01*
X104591573Y-88309191D01*
X104690389Y-88552298D01*
X104858221Y-88725200D01*
X105033442Y-88843116D01*
X106901996Y-88828658D01*
X108770551Y-88814200D01*
X108935587Y-88649110D01*
X108960591Y-88623751D01*
X109037291Y-88532890D01*
X109082117Y-88437462D01*
X109105992Y-88305126D01*
X109119838Y-88103536D01*
X109123486Y-88019800D01*
X109123521Y-87840621D01*
X109106408Y-87738656D01*
X109070025Y-87696571D01*
X109040397Y-87693110D01*
X108917386Y-87688439D01*
X108710366Y-87684755D01*
X108430081Y-87682123D01*
X108087277Y-87680603D01*
X107692699Y-87680258D01*
X107257091Y-87681151D01*
X106791200Y-87683345D01*
X104581400Y-87696600D01*
X104566424Y-87952352D01*
X104564258Y-88002468D01*
X103590800Y-88002468D01*
X103590800Y-86706000D01*
X107692699Y-86706000D01*
G37*
X107316495Y-90643124D02*
X107760055Y-90643825D01*
X108120952Y-90645551D01*
X108409184Y-90648749D01*
X108634751Y-90653868D01*
X108807654Y-90661355D01*
X108937891Y-90671657D01*
X109035463Y-90685222D01*
X109110368Y-90702496D01*
X109172608Y-90723929D01*
X109232180Y-90749967D01*
X109541408Y-90935976D01*
X109817589Y-91197600D01*
X110022908Y-91506401D01*
X110142291Y-91844255D01*
X110173741Y-92203569D01*
X110116592Y-92590799D01*
X109969779Y-92955339D01*
X109738899Y-93277306D01*
X109672881Y-93345781D01*
X109490133Y-93499098D01*
X109286775Y-93609915D01*
X109042832Y-93685139D01*
X108738332Y-93731677D01*
X108353300Y-93756436D01*
X107705600Y-93780685D01*
X107705600Y-92751200D01*
X108124700Y-92750916D01*
X108264931Y-92748692D01*
X108602608Y-92717861D01*
X108853607Y-92647780D01*
X109024616Y-92534634D01*
X109122318Y-92374607D01*
X109153400Y-92163884D01*
X109145208Y-92034197D01*
X109097637Y-91904996D01*
X108987323Y-91774276D01*
X108821246Y-91608200D01*
X106851488Y-91608200D01*
X106388630Y-91608433D01*
X105970346Y-91609495D01*
X105634363Y-91611829D01*
X105370600Y-91615879D01*
X105168974Y-91622090D01*
X105019403Y-91630902D01*
X104911805Y-91642762D01*
X104836097Y-91658111D01*
X104782197Y-91677393D01*
X104740022Y-91701051D01*
X104710688Y-91721550D01*
X104559343Y-91891145D01*
X104492415Y-92100056D01*
X104518335Y-92324574D01*
X104580489Y-92467897D01*
X104682392Y-92589887D01*
X104832229Y-92670389D01*
X105047518Y-92718251D01*
X105345782Y-92742315D01*
X105829531Y-92763473D01*
X105815065Y-93252636D01*
X105800600Y-93741800D01*
X105241800Y-93738876D01*
X104929482Y-93728588D01*
X104648947Y-93691659D01*
X104418833Y-93619690D01*
X104212971Y-93504168D01*
X104005194Y-93336579D01*
X103926293Y-93259500D01*
X103706545Y-92958793D01*
X103565734Y-92614694D01*
X103507748Y-92247383D01*
X103536478Y-91877039D01*
X103655812Y-91523844D01*
X103834454Y-91241120D01*
X104113923Y-90959462D01*
X104448181Y-90751576D01*
X104505420Y-90726344D01*
X104567224Y-90704378D01*
X104640519Y-90686652D01*
X104735316Y-90672712D01*
X104861629Y-90662105D01*
X105029469Y-90654375D01*
X105248848Y-90649069D01*
X105529778Y-90645732D01*
X105882272Y-90643911D01*
X106316342Y-90643152D01*
X106842000Y-90643000D01*
X107316495Y-90643124D01*
G36*
X107316495Y-90643124D02*
G01*
X107760055Y-90643825D01*
X108120952Y-90645551D01*
X108409184Y-90648749D01*
X108634751Y-90653868D01*
X108807654Y-90661355D01*
X108937891Y-90671657D01*
X109035463Y-90685222D01*
X109110368Y-90702496D01*
X109172608Y-90723929D01*
X109232180Y-90749967D01*
X109541408Y-90935976D01*
X109817589Y-91197600D01*
X110022908Y-91506401D01*
X110142291Y-91844255D01*
X110173741Y-92203569D01*
X110116592Y-92590799D01*
X109969779Y-92955339D01*
X109738899Y-93277306D01*
X109672881Y-93345781D01*
X109490133Y-93499098D01*
X109286775Y-93609915D01*
X109042832Y-93685139D01*
X108738332Y-93731677D01*
X108353300Y-93756436D01*
X107705600Y-93780685D01*
X107705600Y-92751200D01*
X108124700Y-92750916D01*
X108264931Y-92748692D01*
X108602608Y-92717861D01*
X108853607Y-92647780D01*
X109024616Y-92534634D01*
X109122318Y-92374607D01*
X109153400Y-92163884D01*
X109145208Y-92034197D01*
X109097637Y-91904996D01*
X108987323Y-91774276D01*
X108821246Y-91608200D01*
X106851488Y-91608200D01*
X106388630Y-91608433D01*
X105970346Y-91609495D01*
X105634363Y-91611829D01*
X105370600Y-91615879D01*
X105168974Y-91622090D01*
X105019403Y-91630902D01*
X104911805Y-91642762D01*
X104836097Y-91658111D01*
X104782197Y-91677393D01*
X104740022Y-91701051D01*
X104710688Y-91721550D01*
X104559343Y-91891145D01*
X104492415Y-92100056D01*
X104518335Y-92324574D01*
X104580489Y-92467897D01*
X104682392Y-92589887D01*
X104832229Y-92670389D01*
X105047518Y-92718251D01*
X105345782Y-92742315D01*
X105829531Y-92763473D01*
X105815065Y-93252636D01*
X105800600Y-93741800D01*
X105241800Y-93738876D01*
X104929482Y-93728588D01*
X104648947Y-93691659D01*
X104418833Y-93619690D01*
X104212971Y-93504168D01*
X104005194Y-93336579D01*
X103926293Y-93259500D01*
X103706545Y-92958793D01*
X103565734Y-92614694D01*
X103507748Y-92247383D01*
X103536478Y-91877039D01*
X103655812Y-91523844D01*
X103834454Y-91241120D01*
X104113923Y-90959462D01*
X104448181Y-90751576D01*
X104505420Y-90726344D01*
X104567224Y-90704378D01*
X104640519Y-90686652D01*
X104735316Y-90672712D01*
X104861629Y-90662105D01*
X105029469Y-90654375D01*
X105248848Y-90649069D01*
X105529778Y-90645732D01*
X105882272Y-90643911D01*
X106316342Y-90643152D01*
X106842000Y-90643000D01*
X107316495Y-90643124D01*
G37*
X109280400Y-94674286D02*
X109522190Y-94825415D01*
X109810829Y-95094074D01*
X110020980Y-95411863D01*
X110142439Y-95765862D01*
X110146777Y-95788512D01*
X110166535Y-96150831D01*
X110102441Y-96514232D01*
X109963541Y-96856013D01*
X109758885Y-97153471D01*
X109497522Y-97383903D01*
X109450860Y-97414520D01*
X109356290Y-97473086D01*
X109263200Y-97521203D01*
X109161284Y-97559897D01*
X109040231Y-97590195D01*
X108889736Y-97613122D01*
X108699489Y-97629706D01*
X108459182Y-97640973D01*
X108158508Y-97647949D01*
X107787158Y-97651662D01*
X107334825Y-97653136D01*
X106791200Y-97653400D01*
X106365332Y-97653305D01*
X105920884Y-97652670D01*
X105559687Y-97651020D01*
X105271583Y-97647886D01*
X105046415Y-97642795D01*
X104874023Y-97635279D01*
X104744251Y-97624865D01*
X104646938Y-97611083D01*
X104571928Y-97593463D01*
X104509062Y-97571533D01*
X104448181Y-97544823D01*
X104447258Y-97544396D01*
X104133464Y-97351442D01*
X103857483Y-97091002D01*
X103651066Y-96793023D01*
X103581650Y-96645475D01*
X103540397Y-96505153D01*
X103520919Y-96336893D01*
X103516025Y-96104000D01*
X103516790Y-96066845D01*
X104489239Y-96066845D01*
X104527428Y-96282044D01*
X104541404Y-96315620D01*
X104575078Y-96390651D01*
X104613724Y-96451819D01*
X104667005Y-96500537D01*
X104744582Y-96538222D01*
X104856120Y-96566289D01*
X105011281Y-96586155D01*
X105219727Y-96599234D01*
X105491122Y-96606942D01*
X105835128Y-96610696D01*
X106261409Y-96611909D01*
X106779626Y-96612000D01*
X107215854Y-96611731D01*
X107666135Y-96610094D01*
X108032180Y-96606035D01*
X108323553Y-96598508D01*
X108549817Y-96586466D01*
X108720537Y-96568863D01*
X108845276Y-96544652D01*
X108933598Y-96512788D01*
X108995066Y-96472225D01*
X109039243Y-96421915D01*
X109075694Y-96360813D01*
X109098809Y-96309957D01*
X109133259Y-96097654D01*
X109091725Y-95876529D01*
X108979767Y-95685701D01*
X108831534Y-95519800D01*
X104818185Y-95519800D01*
X104687015Y-95643027D01*
X104674365Y-95655237D01*
X104540575Y-95848471D01*
X104489239Y-96066845D01*
X103516790Y-96066845D01*
X103520754Y-95874251D01*
X103539964Y-95705081D01*
X103580814Y-95564595D01*
X103650466Y-95416160D01*
X103747338Y-95259791D01*
X103953715Y-95013241D01*
X104195197Y-94797589D01*
X104438271Y-94645614D01*
X104455784Y-94637709D01*
X104512448Y-94616982D01*
X104583794Y-94599989D01*
X104679479Y-94586364D01*
X104809161Y-94575743D01*
X104818185Y-94575327D01*
X104982497Y-94567759D01*
X105209144Y-94562046D01*
X105498760Y-94558240D01*
X105861004Y-94555974D01*
X106305531Y-94554882D01*
X106842000Y-94554600D01*
X109051800Y-94554600D01*
X109280400Y-94674286D01*
G36*
X109280400Y-94674286D02*
G01*
X109522190Y-94825415D01*
X109810829Y-95094074D01*
X110020980Y-95411863D01*
X110142439Y-95765862D01*
X110146777Y-95788512D01*
X110166535Y-96150831D01*
X110102441Y-96514232D01*
X109963541Y-96856013D01*
X109758885Y-97153471D01*
X109497522Y-97383903D01*
X109450860Y-97414520D01*
X109356290Y-97473086D01*
X109263200Y-97521203D01*
X109161284Y-97559897D01*
X109040231Y-97590195D01*
X108889736Y-97613122D01*
X108699489Y-97629706D01*
X108459182Y-97640973D01*
X108158508Y-97647949D01*
X107787158Y-97651662D01*
X107334825Y-97653136D01*
X106791200Y-97653400D01*
X106365332Y-97653305D01*
X105920884Y-97652670D01*
X105559687Y-97651020D01*
X105271583Y-97647886D01*
X105046415Y-97642795D01*
X104874023Y-97635279D01*
X104744251Y-97624865D01*
X104646938Y-97611083D01*
X104571928Y-97593463D01*
X104509062Y-97571533D01*
X104448181Y-97544823D01*
X104447258Y-97544396D01*
X104133464Y-97351442D01*
X103857483Y-97091002D01*
X103651066Y-96793023D01*
X103581650Y-96645475D01*
X103540397Y-96505153D01*
X103520919Y-96336893D01*
X103516025Y-96104000D01*
X103516790Y-96066845D01*
X104489239Y-96066845D01*
X104527428Y-96282044D01*
X104541404Y-96315620D01*
X104575078Y-96390651D01*
X104613724Y-96451819D01*
X104667005Y-96500537D01*
X104744582Y-96538222D01*
X104856120Y-96566289D01*
X105011281Y-96586155D01*
X105219727Y-96599234D01*
X105491122Y-96606942D01*
X105835128Y-96610696D01*
X106261409Y-96611909D01*
X106779626Y-96612000D01*
X107215854Y-96611731D01*
X107666135Y-96610094D01*
X108032180Y-96606035D01*
X108323553Y-96598508D01*
X108549817Y-96586466D01*
X108720537Y-96568863D01*
X108845276Y-96544652D01*
X108933598Y-96512788D01*
X108995066Y-96472225D01*
X109039243Y-96421915D01*
X109075694Y-96360813D01*
X109098809Y-96309957D01*
X109133259Y-96097654D01*
X109091725Y-95876529D01*
X108979767Y-95685701D01*
X108831534Y-95519800D01*
X104818185Y-95519800D01*
X104687015Y-95643027D01*
X104674365Y-95655237D01*
X104540575Y-95848471D01*
X104489239Y-96066845D01*
X103516790Y-96066845D01*
X103520754Y-95874251D01*
X103539964Y-95705081D01*
X103580814Y-95564595D01*
X103650466Y-95416160D01*
X103747338Y-95259791D01*
X103953715Y-95013241D01*
X104195197Y-94797589D01*
X104438271Y-94645614D01*
X104455784Y-94637709D01*
X104512448Y-94616982D01*
X104583794Y-94599989D01*
X104679479Y-94586364D01*
X104809161Y-94575743D01*
X104818185Y-94575327D01*
X104982497Y-94567759D01*
X105209144Y-94562046D01*
X105498760Y-94558240D01*
X105861004Y-94555974D01*
X106305531Y-94554882D01*
X106842000Y-94554600D01*
X109051800Y-94554600D01*
X109280400Y-94674286D01*
G37*
X108106011Y-80922127D02*
X108435821Y-80928571D01*
X108702490Y-80941103D01*
X108916026Y-80961050D01*
X109086438Y-80989742D01*
X109223737Y-81028504D01*
X109337930Y-81078665D01*
X109439028Y-81141553D01*
X109537040Y-81218495D01*
X109641975Y-81310819D01*
X109801321Y-81470504D01*
X110012338Y-81774013D01*
X110142094Y-82120510D01*
X110168073Y-82286835D01*
X110163088Y-82590666D01*
X110106311Y-82905925D01*
X110003309Y-83189722D01*
X109843055Y-83448263D01*
X109591030Y-83695882D01*
X109258322Y-83892785D01*
X109224675Y-83908162D01*
X109107275Y-83954382D01*
X108985810Y-83984745D01*
X108835909Y-84002493D01*
X108633197Y-84010866D01*
X108353300Y-84013103D01*
X107705600Y-84013600D01*
X107705600Y-82997600D01*
X108257549Y-82997600D01*
X108444248Y-82996457D01*
X108640892Y-82989262D01*
X108773681Y-82972585D01*
X108864810Y-82943159D01*
X108936472Y-82897721D01*
X109079539Y-82734762D01*
X109152977Y-82532018D01*
X109148592Y-82321579D01*
X109067130Y-82128639D01*
X108909332Y-81978392D01*
X108897392Y-81971167D01*
X108851286Y-81947106D01*
X108795709Y-81927740D01*
X108720424Y-81912653D01*
X108615195Y-81901430D01*
X108469786Y-81893654D01*
X108273961Y-81888909D01*
X108017484Y-81886780D01*
X107690120Y-81886849D01*
X107281632Y-81888702D01*
X106781784Y-81891922D01*
X104816569Y-81905400D01*
X104660884Y-82054604D01*
X104568599Y-82157313D01*
X104517678Y-82275431D01*
X104505200Y-82443041D01*
X104505284Y-82464495D01*
X104518683Y-82617569D01*
X104570900Y-82725894D01*
X104684767Y-82839937D01*
X104696910Y-82850571D01*
X104783274Y-82920467D01*
X104864631Y-82963756D01*
X104967633Y-82986800D01*
X105118928Y-82995960D01*
X105345167Y-82997600D01*
X105826000Y-82997600D01*
X105826000Y-84013600D01*
X105249913Y-84013600D01*
X105139721Y-84013408D01*
X104915404Y-84009551D01*
X104753348Y-83996855D01*
X104625248Y-83970310D01*
X104502796Y-83924903D01*
X104357686Y-83855622D01*
X104231683Y-83784488D01*
X103954901Y-83565737D01*
X103730773Y-83299039D01*
X103583703Y-83011025D01*
X103552596Y-82879860D01*
X103526856Y-82677730D01*
X103516682Y-82464200D01*
X103528994Y-82262231D01*
X103624233Y-81887959D01*
X103807023Y-81553261D01*
X104069449Y-81270728D01*
X104403600Y-81052952D01*
X104455223Y-81028437D01*
X104514995Y-81004966D01*
X104585136Y-80985899D01*
X104675781Y-80970682D01*
X104797067Y-80958759D01*
X104959132Y-80949576D01*
X105172111Y-80942579D01*
X105446142Y-80937213D01*
X105791361Y-80932923D01*
X106217905Y-80929155D01*
X106735910Y-80925354D01*
X107216927Y-80922195D01*
X107703049Y-80920444D01*
X108106011Y-80922127D01*
G36*
X108106011Y-80922127D02*
G01*
X108435821Y-80928571D01*
X108702490Y-80941103D01*
X108916026Y-80961050D01*
X109086438Y-80989742D01*
X109223737Y-81028504D01*
X109337930Y-81078665D01*
X109439028Y-81141553D01*
X109537040Y-81218495D01*
X109641975Y-81310819D01*
X109801321Y-81470504D01*
X110012338Y-81774013D01*
X110142094Y-82120510D01*
X110168073Y-82286835D01*
X110163088Y-82590666D01*
X110106311Y-82905925D01*
X110003309Y-83189722D01*
X109843055Y-83448263D01*
X109591030Y-83695882D01*
X109258322Y-83892785D01*
X109224675Y-83908162D01*
X109107275Y-83954382D01*
X108985810Y-83984745D01*
X108835909Y-84002493D01*
X108633197Y-84010866D01*
X108353300Y-84013103D01*
X107705600Y-84013600D01*
X107705600Y-82997600D01*
X108257549Y-82997600D01*
X108444248Y-82996457D01*
X108640892Y-82989262D01*
X108773681Y-82972585D01*
X108864810Y-82943159D01*
X108936472Y-82897721D01*
X109079539Y-82734762D01*
X109152977Y-82532018D01*
X109148592Y-82321579D01*
X109067130Y-82128639D01*
X108909332Y-81978392D01*
X108897392Y-81971167D01*
X108851286Y-81947106D01*
X108795709Y-81927740D01*
X108720424Y-81912653D01*
X108615195Y-81901430D01*
X108469786Y-81893654D01*
X108273961Y-81888909D01*
X108017484Y-81886780D01*
X107690120Y-81886849D01*
X107281632Y-81888702D01*
X106781784Y-81891922D01*
X104816569Y-81905400D01*
X104660884Y-82054604D01*
X104568599Y-82157313D01*
X104517678Y-82275431D01*
X104505200Y-82443041D01*
X104505284Y-82464495D01*
X104518683Y-82617569D01*
X104570900Y-82725894D01*
X104684767Y-82839937D01*
X104696910Y-82850571D01*
X104783274Y-82920467D01*
X104864631Y-82963756D01*
X104967633Y-82986800D01*
X105118928Y-82995960D01*
X105345167Y-82997600D01*
X105826000Y-82997600D01*
X105826000Y-84013600D01*
X105249913Y-84013600D01*
X105139721Y-84013408D01*
X104915404Y-84009551D01*
X104753348Y-83996855D01*
X104625248Y-83970310D01*
X104502796Y-83924903D01*
X104357686Y-83855622D01*
X104231683Y-83784488D01*
X103954901Y-83565737D01*
X103730773Y-83299039D01*
X103583703Y-83011025D01*
X103552596Y-82879860D01*
X103526856Y-82677730D01*
X103516682Y-82464200D01*
X103528994Y-82262231D01*
X103624233Y-81887959D01*
X103807023Y-81553261D01*
X104069449Y-81270728D01*
X104403600Y-81052952D01*
X104455223Y-81028437D01*
X104514995Y-81004966D01*
X104585136Y-80985899D01*
X104675781Y-80970682D01*
X104797067Y-80958759D01*
X104959132Y-80949576D01*
X105172111Y-80942579D01*
X105446142Y-80937213D01*
X105791361Y-80932923D01*
X106217905Y-80929155D01*
X106735910Y-80925354D01*
X107216927Y-80922195D01*
X107703049Y-80920444D01*
X108106011Y-80922127D01*
G37*
X96592290Y-82563862D02*
X96587550Y-82657525D01*
X96563932Y-82833303D01*
X96547650Y-82977965D01*
X96557615Y-83418184D01*
X96661500Y-83846887D01*
X96861676Y-84271487D01*
X97160513Y-84699400D01*
X97255289Y-84822076D01*
X97452455Y-85137970D01*
X97575757Y-85459748D01*
X97633832Y-85815308D01*
X97635322Y-86232545D01*
X97618249Y-86476705D01*
X97593450Y-86647673D01*
X97555542Y-86768091D01*
X97498985Y-86863603D01*
X97387789Y-87014003D01*
X97562561Y-87304501D01*
X97578942Y-87331849D01*
X97882343Y-87884861D01*
X98133560Y-88433200D01*
X98172512Y-88534859D01*
X98240084Y-88807176D01*
X98235848Y-89066575D01*
X98161081Y-89355904D01*
X98141415Y-89410666D01*
X98043147Y-89650639D01*
X97915721Y-89928248D01*
X97775452Y-90210342D01*
X97638652Y-90463767D01*
X97521636Y-90655373D01*
X97518010Y-90660710D01*
X97432125Y-90794349D01*
X97402588Y-90883587D01*
X97428134Y-90966487D01*
X97507500Y-91081113D01*
X97520316Y-91098802D01*
X97565925Y-91175060D01*
X97595475Y-91263895D01*
X97612368Y-91387558D01*
X97620009Y-91568296D01*
X97621800Y-91828356D01*
X97621495Y-91967429D01*
X97617203Y-92187766D01*
X97603962Y-92348311D01*
X97576927Y-92477065D01*
X97531253Y-92602028D01*
X97462092Y-92751200D01*
X97367744Y-92930153D01*
X97265341Y-93097285D01*
X97181092Y-93208400D01*
X96914681Y-93531293D01*
X96717764Y-93889573D01*
X96603086Y-94282655D01*
X96561765Y-94732400D01*
X96561240Y-94788222D01*
X96565333Y-95006480D01*
X96577692Y-95194483D01*
X96596213Y-95316600D01*
X96637427Y-95469000D01*
X96494613Y-95328077D01*
X96436133Y-95267177D01*
X96395444Y-95206165D01*
X96370540Y-95126214D01*
X96357547Y-95006659D01*
X96352591Y-94826835D01*
X96351800Y-94566077D01*
X96352359Y-94375515D01*
X96357313Y-94163339D01*
X96371170Y-94007877D01*
X96398392Y-93882433D01*
X96443440Y-93760306D01*
X96510777Y-93614800D01*
X96603643Y-93444071D01*
X96756478Y-93207649D01*
X96911675Y-93005319D01*
X96957375Y-92951376D01*
X97171182Y-92646546D01*
X97309614Y-92328101D01*
X97390554Y-91956886D01*
X97402323Y-91825303D01*
X97405939Y-91627133D01*
X97399017Y-91416785D01*
X97383283Y-91222686D01*
X97360463Y-91073264D01*
X97332282Y-90996949D01*
X97298516Y-91019809D01*
X97217412Y-91102657D01*
X97108186Y-91227110D01*
X96924938Y-91431717D01*
X96450791Y-91860853D01*
X95931509Y-92201534D01*
X95372336Y-92451202D01*
X94778515Y-92607299D01*
X94155291Y-92667267D01*
X93710200Y-92675000D01*
X93678750Y-92180578D01*
X93872275Y-92204000D01*
X93881280Y-92205000D01*
X94034601Y-92209745D01*
X94242704Y-92202191D01*
X94463262Y-92183783D01*
X94795436Y-92131619D01*
X95349972Y-91966838D01*
X95862877Y-91710140D01*
X96332807Y-91362597D01*
X96758414Y-90925282D01*
X97138355Y-90399269D01*
X97471284Y-89785628D01*
X97477312Y-89772806D01*
X97610517Y-89485294D01*
X97702280Y-89266946D01*
X97755164Y-89096232D01*
X97771731Y-88951620D01*
X97754543Y-88811580D01*
X97706163Y-88654582D01*
X97629153Y-88459095D01*
X97391147Y-87955590D01*
X97098266Y-87470536D01*
X96767203Y-87028567D01*
X96412548Y-86649137D01*
X96048888Y-86351699D01*
X95864108Y-86233869D01*
X95474914Y-86033303D01*
X95068241Y-85877535D01*
X94672725Y-85776667D01*
X94317000Y-85740800D01*
X94056147Y-85740800D01*
X94022628Y-86515500D01*
X94012094Y-86724296D01*
X93972687Y-87200025D01*
X93911954Y-87603096D01*
X93825361Y-87953547D01*
X93708379Y-88271415D01*
X93556475Y-88576738D01*
X93511297Y-88658847D01*
X93453433Y-88769256D01*
X93430800Y-88820598D01*
X93462728Y-88824217D01*
X93584964Y-88828390D01*
X93787838Y-88832088D01*
X94059737Y-88835184D01*
X94389049Y-88837553D01*
X94764164Y-88839067D01*
X95173468Y-88839600D01*
X96916136Y-88839600D01*
X96928172Y-89043586D01*
X96928689Y-89053100D01*
X96919269Y-89203194D01*
X96874604Y-89270604D01*
X96822928Y-89275905D01*
X96681479Y-89281743D01*
X96464353Y-89287251D01*
X96184213Y-89292357D01*
X95853721Y-89296986D01*
X95485539Y-89301067D01*
X95092328Y-89304526D01*
X94686751Y-89307291D01*
X94281469Y-89309289D01*
X93889144Y-89310446D01*
X93522439Y-89310691D01*
X93194016Y-89309951D01*
X92916535Y-89308151D01*
X92702660Y-89305221D01*
X92565052Y-89301086D01*
X92516373Y-89295674D01*
X92522251Y-89280938D01*
X92573304Y-89204401D01*
X92659735Y-89092474D01*
X92776587Y-88937110D01*
X92972864Y-88634504D01*
X93155524Y-88307301D01*
X93298280Y-88000457D01*
X93354915Y-87851084D01*
X93432431Y-87594084D01*
X93488296Y-87316891D01*
X93525324Y-86999286D01*
X93546329Y-86621051D01*
X93554124Y-86161968D01*
X93557800Y-85287737D01*
X93820301Y-85254939D01*
X94029162Y-85245866D01*
X94314247Y-85260708D01*
X94630053Y-85296932D01*
X94942207Y-85350536D01*
X95216336Y-85417516D01*
X95460109Y-85502663D01*
X95906901Y-85716618D01*
X96346347Y-85994178D01*
X96749176Y-86315857D01*
X97086115Y-86662169D01*
X97337279Y-86962755D01*
X97376983Y-86770877D01*
X97386813Y-86717753D01*
X97412296Y-86425684D01*
X97404094Y-86102952D01*
X97364971Y-85792570D01*
X97297693Y-85537552D01*
X97274593Y-85482952D01*
X97174082Y-85295267D01*
X97037177Y-85081188D01*
X96886563Y-84877152D01*
X96800113Y-84766364D01*
X96594581Y-84460253D01*
X96457653Y-84165504D01*
X96376592Y-83849643D01*
X96338662Y-83480200D01*
X96334680Y-83170605D01*
X96362510Y-82880527D01*
X96424213Y-82674476D01*
X96518562Y-82558749D01*
X96533079Y-82549940D01*
X96575137Y-82534080D01*
X96592290Y-82563862D01*
G36*
X96592290Y-82563862D02*
G01*
X96587550Y-82657525D01*
X96563932Y-82833303D01*
X96547650Y-82977965D01*
X96557615Y-83418184D01*
X96661500Y-83846887D01*
X96861676Y-84271487D01*
X97160513Y-84699400D01*
X97255289Y-84822076D01*
X97452455Y-85137970D01*
X97575757Y-85459748D01*
X97633832Y-85815308D01*
X97635322Y-86232545D01*
X97618249Y-86476705D01*
X97593450Y-86647673D01*
X97555542Y-86768091D01*
X97498985Y-86863603D01*
X97387789Y-87014003D01*
X97562561Y-87304501D01*
X97578942Y-87331849D01*
X97882343Y-87884861D01*
X98133560Y-88433200D01*
X98172512Y-88534859D01*
X98240084Y-88807176D01*
X98235848Y-89066575D01*
X98161081Y-89355904D01*
X98141415Y-89410666D01*
X98043147Y-89650639D01*
X97915721Y-89928248D01*
X97775452Y-90210342D01*
X97638652Y-90463767D01*
X97521636Y-90655373D01*
X97518010Y-90660710D01*
X97432125Y-90794349D01*
X97402588Y-90883587D01*
X97428134Y-90966487D01*
X97507500Y-91081113D01*
X97520316Y-91098802D01*
X97565925Y-91175060D01*
X97595475Y-91263895D01*
X97612368Y-91387558D01*
X97620009Y-91568296D01*
X97621800Y-91828356D01*
X97621495Y-91967429D01*
X97617203Y-92187766D01*
X97603962Y-92348311D01*
X97576927Y-92477065D01*
X97531253Y-92602028D01*
X97462092Y-92751200D01*
X97367744Y-92930153D01*
X97265341Y-93097285D01*
X97181092Y-93208400D01*
X96914681Y-93531293D01*
X96717764Y-93889573D01*
X96603086Y-94282655D01*
X96561765Y-94732400D01*
X96561240Y-94788222D01*
X96565333Y-95006480D01*
X96577692Y-95194483D01*
X96596213Y-95316600D01*
X96637427Y-95469000D01*
X96494613Y-95328077D01*
X96436133Y-95267177D01*
X96395444Y-95206165D01*
X96370540Y-95126214D01*
X96357547Y-95006659D01*
X96352591Y-94826835D01*
X96351800Y-94566077D01*
X96352359Y-94375515D01*
X96357313Y-94163339D01*
X96371170Y-94007877D01*
X96398392Y-93882433D01*
X96443440Y-93760306D01*
X96510777Y-93614800D01*
X96603643Y-93444071D01*
X96756478Y-93207649D01*
X96911675Y-93005319D01*
X96957375Y-92951376D01*
X97171182Y-92646546D01*
X97309614Y-92328101D01*
X97390554Y-91956886D01*
X97402323Y-91825303D01*
X97405939Y-91627133D01*
X97399017Y-91416785D01*
X97383283Y-91222686D01*
X97360463Y-91073264D01*
X97332282Y-90996949D01*
X97298516Y-91019809D01*
X97217412Y-91102657D01*
X97108186Y-91227110D01*
X96924938Y-91431717D01*
X96450791Y-91860853D01*
X95931509Y-92201534D01*
X95372336Y-92451202D01*
X94778515Y-92607299D01*
X94155291Y-92667267D01*
X93710200Y-92675000D01*
X93678750Y-92180578D01*
X93872275Y-92204000D01*
X93881280Y-92205000D01*
X94034601Y-92209745D01*
X94242704Y-92202191D01*
X94463262Y-92183783D01*
X94795436Y-92131619D01*
X95349972Y-91966838D01*
X95862877Y-91710140D01*
X96332807Y-91362597D01*
X96758414Y-90925282D01*
X97138355Y-90399269D01*
X97471284Y-89785628D01*
X97477312Y-89772806D01*
X97610517Y-89485294D01*
X97702280Y-89266946D01*
X97755164Y-89096232D01*
X97771731Y-88951620D01*
X97754543Y-88811580D01*
X97706163Y-88654582D01*
X97629153Y-88459095D01*
X97391147Y-87955590D01*
X97098266Y-87470536D01*
X96767203Y-87028567D01*
X96412548Y-86649137D01*
X96048888Y-86351699D01*
X95864108Y-86233869D01*
X95474914Y-86033303D01*
X95068241Y-85877535D01*
X94672725Y-85776667D01*
X94317000Y-85740800D01*
X94056147Y-85740800D01*
X94022628Y-86515500D01*
X94012094Y-86724296D01*
X93972687Y-87200025D01*
X93911954Y-87603096D01*
X93825361Y-87953547D01*
X93708379Y-88271415D01*
X93556475Y-88576738D01*
X93511297Y-88658847D01*
X93453433Y-88769256D01*
X93430800Y-88820598D01*
X93462728Y-88824217D01*
X93584964Y-88828390D01*
X93787838Y-88832088D01*
X94059737Y-88835184D01*
X94389049Y-88837553D01*
X94764164Y-88839067D01*
X95173468Y-88839600D01*
X96916136Y-88839600D01*
X96928172Y-89043586D01*
X96928689Y-89053100D01*
X96919269Y-89203194D01*
X96874604Y-89270604D01*
X96822928Y-89275905D01*
X96681479Y-89281743D01*
X96464353Y-89287251D01*
X96184213Y-89292357D01*
X95853721Y-89296986D01*
X95485539Y-89301067D01*
X95092328Y-89304526D01*
X94686751Y-89307291D01*
X94281469Y-89309289D01*
X93889144Y-89310446D01*
X93522439Y-89310691D01*
X93194016Y-89309951D01*
X92916535Y-89308151D01*
X92702660Y-89305221D01*
X92565052Y-89301086D01*
X92516373Y-89295674D01*
X92522251Y-89280938D01*
X92573304Y-89204401D01*
X92659735Y-89092474D01*
X92776587Y-88937110D01*
X92972864Y-88634504D01*
X93155524Y-88307301D01*
X93298280Y-88000457D01*
X93354915Y-87851084D01*
X93432431Y-87594084D01*
X93488296Y-87316891D01*
X93525324Y-86999286D01*
X93546329Y-86621051D01*
X93554124Y-86161968D01*
X93557800Y-85287737D01*
X93820301Y-85254939D01*
X94029162Y-85245866D01*
X94314247Y-85260708D01*
X94630053Y-85296932D01*
X94942207Y-85350536D01*
X95216336Y-85417516D01*
X95460109Y-85502663D01*
X95906901Y-85716618D01*
X96346347Y-85994178D01*
X96749176Y-86315857D01*
X97086115Y-86662169D01*
X97337279Y-86962755D01*
X97376983Y-86770877D01*
X97386813Y-86717753D01*
X97412296Y-86425684D01*
X97404094Y-86102952D01*
X97364971Y-85792570D01*
X97297693Y-85537552D01*
X97274593Y-85482952D01*
X97174082Y-85295267D01*
X97037177Y-85081188D01*
X96886563Y-84877152D01*
X96800113Y-84766364D01*
X96594581Y-84460253D01*
X96457653Y-84165504D01*
X96376592Y-83849643D01*
X96338662Y-83480200D01*
X96334680Y-83170605D01*
X96362510Y-82880527D01*
X96424213Y-82674476D01*
X96518562Y-82558749D01*
X96533079Y-82549940D01*
X96575137Y-82534080D01*
X96592290Y-82563862D01*
G37*
%TD*%
M02*
